G04 #@! TF.GenerationSoftware,KiCad,Pcbnew,5.0.2-bee76a0~70~ubuntu16.04.1*
G04 #@! TF.CreationDate,2019-01-15T14:46:21+00:00*
G04 #@! TF.ProjectId,sangaboard_v0.3,73616e67-6162-46f6-9172-645f76302e33,0.3*
G04 #@! TF.SameCoordinates,Original*
G04 #@! TF.FileFunction,Soldermask,Top*
G04 #@! TF.FilePolarity,Negative*
%FSLAX46Y46*%
G04 Gerber Fmt 4.6, Leading zero omitted, Abs format (unit mm)*
G04 Created by KiCad (PCBNEW 5.0.2-bee76a0~70~ubuntu16.04.1) date Tue 15 Jan 2019 14:46:21 GMT*
%MOMM*%
%LPD*%
G01*
G04 APERTURE LIST*
%ADD10C,0.100000*%
G04 APERTURE END LIST*
D10*
G36*
X161568793Y-94124937D02*
X161923670Y-94271932D01*
X162243055Y-94485338D01*
X162514662Y-94756945D01*
X162728068Y-95076330D01*
X162875063Y-95431207D01*
X162950000Y-95807940D01*
X162950000Y-96192060D01*
X162875063Y-96568793D01*
X162728068Y-96923670D01*
X162514662Y-97243055D01*
X162243055Y-97514662D01*
X161923670Y-97728068D01*
X161568793Y-97875063D01*
X161192060Y-97950000D01*
X160807940Y-97950000D01*
X160431207Y-97875063D01*
X160076330Y-97728068D01*
X159756945Y-97514662D01*
X159485338Y-97243055D01*
X159271932Y-96923670D01*
X159124937Y-96568793D01*
X159050000Y-96192060D01*
X159050000Y-95807940D01*
X159124937Y-95431207D01*
X159271932Y-95076330D01*
X159485338Y-94756945D01*
X159756945Y-94485338D01*
X160076330Y-94271932D01*
X160431207Y-94124937D01*
X160807940Y-94050000D01*
X161192060Y-94050000D01*
X161568793Y-94124937D01*
X161568793Y-94124937D01*
G37*
G36*
X104568793Y-94124937D02*
X104923670Y-94271932D01*
X105243055Y-94485338D01*
X105514662Y-94756945D01*
X105728068Y-95076330D01*
X105875063Y-95431207D01*
X105950000Y-95807940D01*
X105950000Y-96192060D01*
X105875063Y-96568793D01*
X105728068Y-96923670D01*
X105514662Y-97243055D01*
X105243055Y-97514662D01*
X104923670Y-97728068D01*
X104568793Y-97875063D01*
X104192060Y-97950000D01*
X103807940Y-97950000D01*
X103431207Y-97875063D01*
X103076330Y-97728068D01*
X102756945Y-97514662D01*
X102485338Y-97243055D01*
X102271932Y-96923670D01*
X102124937Y-96568793D01*
X102050000Y-96192060D01*
X102050000Y-95807940D01*
X102124937Y-95431207D01*
X102271932Y-95076330D01*
X102485338Y-94756945D01*
X102756945Y-94485338D01*
X103076330Y-94271932D01*
X103431207Y-94124937D01*
X103807940Y-94050000D01*
X104192060Y-94050000D01*
X104568793Y-94124937D01*
X104568793Y-94124937D01*
G37*
G36*
X155313566Y-92866312D02*
X155509203Y-92947347D01*
X155685275Y-93064995D01*
X155835005Y-93214725D01*
X155952653Y-93390797D01*
X156033688Y-93586434D01*
X156075000Y-93794122D01*
X156075000Y-94005878D01*
X156033688Y-94213566D01*
X155952653Y-94409203D01*
X155835005Y-94585275D01*
X155685275Y-94735005D01*
X155509203Y-94852653D01*
X155313566Y-94933688D01*
X155105878Y-94975000D01*
X154894122Y-94975000D01*
X154686434Y-94933688D01*
X154490797Y-94852653D01*
X154314725Y-94735005D01*
X154164995Y-94585275D01*
X154047347Y-94409203D01*
X153966312Y-94213566D01*
X153925000Y-94005878D01*
X153925000Y-93794122D01*
X153966312Y-93586434D01*
X154047347Y-93390797D01*
X154164995Y-93214725D01*
X154314725Y-93064995D01*
X154490797Y-92947347D01*
X154686434Y-92866312D01*
X154894122Y-92825000D01*
X155105878Y-92825000D01*
X155313566Y-92866312D01*
X155313566Y-92866312D01*
G37*
G36*
X152813566Y-92866312D02*
X153009203Y-92947347D01*
X153185275Y-93064995D01*
X153335005Y-93214725D01*
X153452653Y-93390797D01*
X153533688Y-93586434D01*
X153575000Y-93794122D01*
X153575000Y-94005878D01*
X153533688Y-94213566D01*
X153452653Y-94409203D01*
X153335005Y-94585275D01*
X153185275Y-94735005D01*
X153009203Y-94852653D01*
X152813566Y-94933688D01*
X152605878Y-94975000D01*
X152394122Y-94975000D01*
X152186434Y-94933688D01*
X151990797Y-94852653D01*
X151814725Y-94735005D01*
X151664995Y-94585275D01*
X151547347Y-94409203D01*
X151466312Y-94213566D01*
X151425000Y-94005878D01*
X151425000Y-93794122D01*
X151466312Y-93586434D01*
X151547347Y-93390797D01*
X151664995Y-93214725D01*
X151814725Y-93064995D01*
X151990797Y-92947347D01*
X152186434Y-92866312D01*
X152394122Y-92825000D01*
X152605878Y-92825000D01*
X152813566Y-92866312D01*
X152813566Y-92866312D01*
G37*
G36*
X120813566Y-92866312D02*
X121009203Y-92947347D01*
X121185275Y-93064995D01*
X121335005Y-93214725D01*
X121452653Y-93390797D01*
X121533688Y-93586434D01*
X121575000Y-93794122D01*
X121575000Y-94005878D01*
X121533688Y-94213566D01*
X121452653Y-94409203D01*
X121335005Y-94585275D01*
X121185275Y-94735005D01*
X121009203Y-94852653D01*
X120813566Y-94933688D01*
X120605878Y-94975000D01*
X120394122Y-94975000D01*
X120186434Y-94933688D01*
X119990797Y-94852653D01*
X119814725Y-94735005D01*
X119664995Y-94585275D01*
X119547347Y-94409203D01*
X119466312Y-94213566D01*
X119425000Y-94005878D01*
X119425000Y-93794122D01*
X119466312Y-93586434D01*
X119547347Y-93390797D01*
X119664995Y-93214725D01*
X119814725Y-93064995D01*
X119990797Y-92947347D01*
X120186434Y-92866312D01*
X120394122Y-92825000D01*
X120605878Y-92825000D01*
X120813566Y-92866312D01*
X120813566Y-92866312D01*
G37*
G36*
X118313566Y-92866312D02*
X118509203Y-92947347D01*
X118685275Y-93064995D01*
X118835005Y-93214725D01*
X118952653Y-93390797D01*
X119033688Y-93586434D01*
X119075000Y-93794122D01*
X119075000Y-94005878D01*
X119033688Y-94213566D01*
X118952653Y-94409203D01*
X118835005Y-94585275D01*
X118685275Y-94735005D01*
X118509203Y-94852653D01*
X118313566Y-94933688D01*
X118105878Y-94975000D01*
X117894122Y-94975000D01*
X117686434Y-94933688D01*
X117490797Y-94852653D01*
X117314725Y-94735005D01*
X117164995Y-94585275D01*
X117047347Y-94409203D01*
X116966312Y-94213566D01*
X116925000Y-94005878D01*
X116925000Y-93794122D01*
X116966312Y-93586434D01*
X117047347Y-93390797D01*
X117164995Y-93214725D01*
X117314725Y-93064995D01*
X117490797Y-92947347D01*
X117686434Y-92866312D01*
X117894122Y-92825000D01*
X118105878Y-92825000D01*
X118313566Y-92866312D01*
X118313566Y-92866312D01*
G37*
G36*
X115813566Y-92866312D02*
X116009203Y-92947347D01*
X116185275Y-93064995D01*
X116335005Y-93214725D01*
X116452653Y-93390797D01*
X116533688Y-93586434D01*
X116575000Y-93794122D01*
X116575000Y-94005878D01*
X116533688Y-94213566D01*
X116452653Y-94409203D01*
X116335005Y-94585275D01*
X116185275Y-94735005D01*
X116009203Y-94852653D01*
X115813566Y-94933688D01*
X115605878Y-94975000D01*
X115394122Y-94975000D01*
X115186434Y-94933688D01*
X114990797Y-94852653D01*
X114814725Y-94735005D01*
X114664995Y-94585275D01*
X114547347Y-94409203D01*
X114466312Y-94213566D01*
X114425000Y-94005878D01*
X114425000Y-93794122D01*
X114466312Y-93586434D01*
X114547347Y-93390797D01*
X114664995Y-93214725D01*
X114814725Y-93064995D01*
X114990797Y-92947347D01*
X115186434Y-92866312D01*
X115394122Y-92825000D01*
X115605878Y-92825000D01*
X115813566Y-92866312D01*
X115813566Y-92866312D01*
G37*
G36*
X113313566Y-92866312D02*
X113509203Y-92947347D01*
X113685275Y-93064995D01*
X113835005Y-93214725D01*
X113952653Y-93390797D01*
X114033688Y-93586434D01*
X114075000Y-93794122D01*
X114075000Y-94005878D01*
X114033688Y-94213566D01*
X113952653Y-94409203D01*
X113835005Y-94585275D01*
X113685275Y-94735005D01*
X113509203Y-94852653D01*
X113313566Y-94933688D01*
X113105878Y-94975000D01*
X112894122Y-94975000D01*
X112686434Y-94933688D01*
X112490797Y-94852653D01*
X112314725Y-94735005D01*
X112164995Y-94585275D01*
X112047347Y-94409203D01*
X111966312Y-94213566D01*
X111925000Y-94005878D01*
X111925000Y-93794122D01*
X111966312Y-93586434D01*
X112047347Y-93390797D01*
X112164995Y-93214725D01*
X112314725Y-93064995D01*
X112490797Y-92947347D01*
X112686434Y-92866312D01*
X112894122Y-92825000D01*
X113105878Y-92825000D01*
X113313566Y-92866312D01*
X113313566Y-92866312D01*
G37*
G36*
X111575000Y-94975000D02*
X109425000Y-94975000D01*
X109425000Y-92825000D01*
X111575000Y-92825000D01*
X111575000Y-94975000D01*
X111575000Y-94975000D01*
G37*
G36*
X138063566Y-92866312D02*
X138259203Y-92947347D01*
X138435275Y-93064995D01*
X138585005Y-93214725D01*
X138702653Y-93390797D01*
X138783688Y-93586434D01*
X138825000Y-93794122D01*
X138825000Y-94005878D01*
X138783688Y-94213566D01*
X138702653Y-94409203D01*
X138585005Y-94585275D01*
X138435275Y-94735005D01*
X138259203Y-94852653D01*
X138063566Y-94933688D01*
X137855878Y-94975000D01*
X137644122Y-94975000D01*
X137436434Y-94933688D01*
X137240797Y-94852653D01*
X137064725Y-94735005D01*
X136914995Y-94585275D01*
X136797347Y-94409203D01*
X136716312Y-94213566D01*
X136675000Y-94005878D01*
X136675000Y-93794122D01*
X136716312Y-93586434D01*
X136797347Y-93390797D01*
X136914995Y-93214725D01*
X137064725Y-93064995D01*
X137240797Y-92947347D01*
X137436434Y-92866312D01*
X137644122Y-92825000D01*
X137855878Y-92825000D01*
X138063566Y-92866312D01*
X138063566Y-92866312D01*
G37*
G36*
X133063566Y-92866312D02*
X133259203Y-92947347D01*
X133435275Y-93064995D01*
X133585005Y-93214725D01*
X133702653Y-93390797D01*
X133783688Y-93586434D01*
X133825000Y-93794122D01*
X133825000Y-94005878D01*
X133783688Y-94213566D01*
X133702653Y-94409203D01*
X133585005Y-94585275D01*
X133435275Y-94735005D01*
X133259203Y-94852653D01*
X133063566Y-94933688D01*
X132855878Y-94975000D01*
X132644122Y-94975000D01*
X132436434Y-94933688D01*
X132240797Y-94852653D01*
X132064725Y-94735005D01*
X131914995Y-94585275D01*
X131797347Y-94409203D01*
X131716312Y-94213566D01*
X131675000Y-94005878D01*
X131675000Y-93794122D01*
X131716312Y-93586434D01*
X131797347Y-93390797D01*
X131914995Y-93214725D01*
X132064725Y-93064995D01*
X132240797Y-92947347D01*
X132436434Y-92866312D01*
X132644122Y-92825000D01*
X132855878Y-92825000D01*
X133063566Y-92866312D01*
X133063566Y-92866312D01*
G37*
G36*
X130563566Y-92866312D02*
X130759203Y-92947347D01*
X130935275Y-93064995D01*
X131085005Y-93214725D01*
X131202653Y-93390797D01*
X131283688Y-93586434D01*
X131325000Y-93794122D01*
X131325000Y-94005878D01*
X131283688Y-94213566D01*
X131202653Y-94409203D01*
X131085005Y-94585275D01*
X130935275Y-94735005D01*
X130759203Y-94852653D01*
X130563566Y-94933688D01*
X130355878Y-94975000D01*
X130144122Y-94975000D01*
X129936434Y-94933688D01*
X129740797Y-94852653D01*
X129564725Y-94735005D01*
X129414995Y-94585275D01*
X129297347Y-94409203D01*
X129216312Y-94213566D01*
X129175000Y-94005878D01*
X129175000Y-93794122D01*
X129216312Y-93586434D01*
X129297347Y-93390797D01*
X129414995Y-93214725D01*
X129564725Y-93064995D01*
X129740797Y-92947347D01*
X129936434Y-92866312D01*
X130144122Y-92825000D01*
X130355878Y-92825000D01*
X130563566Y-92866312D01*
X130563566Y-92866312D01*
G37*
G36*
X128825000Y-94975000D02*
X126675000Y-94975000D01*
X126675000Y-92825000D01*
X128825000Y-92825000D01*
X128825000Y-94975000D01*
X128825000Y-94975000D01*
G37*
G36*
X146075000Y-94975000D02*
X143925000Y-94975000D01*
X143925000Y-92825000D01*
X146075000Y-92825000D01*
X146075000Y-94975000D01*
X146075000Y-94975000D01*
G37*
G36*
X147813566Y-92866312D02*
X148009203Y-92947347D01*
X148185275Y-93064995D01*
X148335005Y-93214725D01*
X148452653Y-93390797D01*
X148533688Y-93586434D01*
X148575000Y-93794122D01*
X148575000Y-94005878D01*
X148533688Y-94213566D01*
X148452653Y-94409203D01*
X148335005Y-94585275D01*
X148185275Y-94735005D01*
X148009203Y-94852653D01*
X147813566Y-94933688D01*
X147605878Y-94975000D01*
X147394122Y-94975000D01*
X147186434Y-94933688D01*
X146990797Y-94852653D01*
X146814725Y-94735005D01*
X146664995Y-94585275D01*
X146547347Y-94409203D01*
X146466312Y-94213566D01*
X146425000Y-94005878D01*
X146425000Y-93794122D01*
X146466312Y-93586434D01*
X146547347Y-93390797D01*
X146664995Y-93214725D01*
X146814725Y-93064995D01*
X146990797Y-92947347D01*
X147186434Y-92866312D01*
X147394122Y-92825000D01*
X147605878Y-92825000D01*
X147813566Y-92866312D01*
X147813566Y-92866312D01*
G37*
G36*
X150313566Y-92866312D02*
X150509203Y-92947347D01*
X150685275Y-93064995D01*
X150835005Y-93214725D01*
X150952653Y-93390797D01*
X151033688Y-93586434D01*
X151075000Y-93794122D01*
X151075000Y-94005878D01*
X151033688Y-94213566D01*
X150952653Y-94409203D01*
X150835005Y-94585275D01*
X150685275Y-94735005D01*
X150509203Y-94852653D01*
X150313566Y-94933688D01*
X150105878Y-94975000D01*
X149894122Y-94975000D01*
X149686434Y-94933688D01*
X149490797Y-94852653D01*
X149314725Y-94735005D01*
X149164995Y-94585275D01*
X149047347Y-94409203D01*
X148966312Y-94213566D01*
X148925000Y-94005878D01*
X148925000Y-93794122D01*
X148966312Y-93586434D01*
X149047347Y-93390797D01*
X149164995Y-93214725D01*
X149314725Y-93064995D01*
X149490797Y-92947347D01*
X149686434Y-92866312D01*
X149894122Y-92825000D01*
X150105878Y-92825000D01*
X150313566Y-92866312D01*
X150313566Y-92866312D01*
G37*
G36*
X135563566Y-92866312D02*
X135759203Y-92947347D01*
X135935275Y-93064995D01*
X136085005Y-93214725D01*
X136202653Y-93390797D01*
X136283688Y-93586434D01*
X136325000Y-93794122D01*
X136325000Y-94005878D01*
X136283688Y-94213566D01*
X136202653Y-94409203D01*
X136085005Y-94585275D01*
X135935275Y-94735005D01*
X135759203Y-94852653D01*
X135563566Y-94933688D01*
X135355878Y-94975000D01*
X135144122Y-94975000D01*
X134936434Y-94933688D01*
X134740797Y-94852653D01*
X134564725Y-94735005D01*
X134414995Y-94585275D01*
X134297347Y-94409203D01*
X134216312Y-94213566D01*
X134175000Y-94005878D01*
X134175000Y-93794122D01*
X134216312Y-93586434D01*
X134297347Y-93390797D01*
X134414995Y-93214725D01*
X134564725Y-93064995D01*
X134740797Y-92947347D01*
X134936434Y-92866312D01*
X135144122Y-92825000D01*
X135355878Y-92825000D01*
X135563566Y-92866312D01*
X135563566Y-92866312D01*
G37*
G36*
X106490000Y-92610000D02*
X104590000Y-92610000D01*
X104590000Y-90710000D01*
X106490000Y-90710000D01*
X106490000Y-92610000D01*
X106490000Y-92610000D01*
G37*
G36*
X149200000Y-90050000D02*
X147900000Y-90050000D01*
X147900000Y-87950000D01*
X149200000Y-87950000D01*
X149200000Y-90050000D01*
X149200000Y-90050000D01*
G37*
G36*
X152100000Y-90050000D02*
X150800000Y-90050000D01*
X150800000Y-87950000D01*
X152100000Y-87950000D01*
X152100000Y-90050000D01*
X152100000Y-90050000D01*
G37*
G36*
X134900000Y-90050000D02*
X133600000Y-90050000D01*
X133600000Y-87950000D01*
X134900000Y-87950000D01*
X134900000Y-90050000D01*
X134900000Y-90050000D01*
G37*
G36*
X132000000Y-90050000D02*
X130700000Y-90050000D01*
X130700000Y-87950000D01*
X132000000Y-87950000D01*
X132000000Y-90050000D01*
X132000000Y-90050000D01*
G37*
G36*
X117600000Y-90050000D02*
X116300000Y-90050000D01*
X116300000Y-87950000D01*
X117600000Y-87950000D01*
X117600000Y-90050000D01*
X117600000Y-90050000D01*
G37*
G36*
X114700000Y-90050000D02*
X113400000Y-90050000D01*
X113400000Y-87950000D01*
X114700000Y-87950000D01*
X114700000Y-90050000D01*
X114700000Y-90050000D01*
G37*
G36*
X109268707Y-87457596D02*
X109345836Y-87465193D01*
X109477787Y-87505220D01*
X109543763Y-87525233D01*
X109726172Y-87622733D01*
X109886054Y-87753946D01*
X110017267Y-87913828D01*
X110114767Y-88096237D01*
X110114767Y-88096238D01*
X110174807Y-88294164D01*
X110195080Y-88500000D01*
X110174807Y-88705836D01*
X110134780Y-88837787D01*
X110114767Y-88903763D01*
X110017267Y-89086172D01*
X109886054Y-89246054D01*
X109726172Y-89377267D01*
X109543763Y-89474767D01*
X109477787Y-89494780D01*
X109345836Y-89534807D01*
X109268707Y-89542403D01*
X109191580Y-89550000D01*
X109088420Y-89550000D01*
X109011293Y-89542403D01*
X108934164Y-89534807D01*
X108802213Y-89494780D01*
X108736237Y-89474767D01*
X108553828Y-89377267D01*
X108393946Y-89246054D01*
X108262733Y-89086172D01*
X108165233Y-88903763D01*
X108145220Y-88837787D01*
X108105193Y-88705836D01*
X108084920Y-88500000D01*
X108105193Y-88294164D01*
X108165233Y-88096238D01*
X108165233Y-88096237D01*
X108262733Y-87913828D01*
X108393946Y-87753946D01*
X108553828Y-87622733D01*
X108736237Y-87525233D01*
X108802213Y-87505220D01*
X108934164Y-87465193D01*
X109011293Y-87457596D01*
X109088420Y-87450000D01*
X109191580Y-87450000D01*
X109268707Y-87457596D01*
X109268707Y-87457596D01*
G37*
G36*
X106728707Y-87457596D02*
X106805836Y-87465193D01*
X106937787Y-87505220D01*
X107003763Y-87525233D01*
X107186172Y-87622733D01*
X107346054Y-87753946D01*
X107477267Y-87913828D01*
X107574767Y-88096237D01*
X107574767Y-88096238D01*
X107634807Y-88294164D01*
X107655080Y-88500000D01*
X107634807Y-88705836D01*
X107594780Y-88837787D01*
X107574767Y-88903763D01*
X107477267Y-89086172D01*
X107346054Y-89246054D01*
X107186172Y-89377267D01*
X107003763Y-89474767D01*
X106937787Y-89494780D01*
X106805836Y-89534807D01*
X106728707Y-89542403D01*
X106651580Y-89550000D01*
X106548420Y-89550000D01*
X106471293Y-89542403D01*
X106394164Y-89534807D01*
X106262213Y-89494780D01*
X106196237Y-89474767D01*
X106013828Y-89377267D01*
X105853946Y-89246054D01*
X105722733Y-89086172D01*
X105625233Y-88903763D01*
X105605220Y-88837787D01*
X105565193Y-88705836D01*
X105544920Y-88500000D01*
X105565193Y-88294164D01*
X105625233Y-88096238D01*
X105625233Y-88096237D01*
X105722733Y-87913828D01*
X105853946Y-87753946D01*
X106013828Y-87622733D01*
X106196237Y-87525233D01*
X106262213Y-87505220D01*
X106394164Y-87465193D01*
X106471293Y-87457596D01*
X106548420Y-87450000D01*
X106651580Y-87450000D01*
X106728707Y-87457596D01*
X106728707Y-87457596D01*
G37*
G36*
X105110000Y-89550000D02*
X103010000Y-89550000D01*
X103010000Y-87450000D01*
X105110000Y-87450000D01*
X105110000Y-89550000D01*
X105110000Y-89550000D01*
G37*
G36*
X162068707Y-87327597D02*
X162145836Y-87335193D01*
X162277787Y-87375220D01*
X162343763Y-87395233D01*
X162526172Y-87492733D01*
X162686054Y-87623946D01*
X162817267Y-87783828D01*
X162914767Y-87966237D01*
X162914767Y-87966238D01*
X162974807Y-88164164D01*
X162995080Y-88370000D01*
X162974807Y-88575836D01*
X162935373Y-88705834D01*
X162914767Y-88773763D01*
X162817267Y-88956172D01*
X162686054Y-89116054D01*
X162526172Y-89247267D01*
X162343763Y-89344767D01*
X162277787Y-89364780D01*
X162145836Y-89404807D01*
X162068707Y-89412404D01*
X161991580Y-89420000D01*
X161888420Y-89420000D01*
X161811293Y-89412404D01*
X161734164Y-89404807D01*
X161602213Y-89364780D01*
X161536237Y-89344767D01*
X161353828Y-89247267D01*
X161193946Y-89116054D01*
X161062733Y-88956172D01*
X160965233Y-88773763D01*
X160944627Y-88705834D01*
X160905193Y-88575836D01*
X160884920Y-88370000D01*
X160905193Y-88164164D01*
X160965233Y-87966238D01*
X160965233Y-87966237D01*
X161062733Y-87783828D01*
X161193946Y-87623946D01*
X161353828Y-87492733D01*
X161536237Y-87395233D01*
X161602213Y-87375220D01*
X161734164Y-87335193D01*
X161811293Y-87327597D01*
X161888420Y-87320000D01*
X161991580Y-87320000D01*
X162068707Y-87327597D01*
X162068707Y-87327597D01*
G37*
G36*
X159528707Y-87327597D02*
X159605836Y-87335193D01*
X159737787Y-87375220D01*
X159803763Y-87395233D01*
X159986172Y-87492733D01*
X160146054Y-87623946D01*
X160277267Y-87783828D01*
X160374767Y-87966237D01*
X160374767Y-87966238D01*
X160434807Y-88164164D01*
X160455080Y-88370000D01*
X160434807Y-88575836D01*
X160395373Y-88705834D01*
X160374767Y-88773763D01*
X160277267Y-88956172D01*
X160146054Y-89116054D01*
X159986172Y-89247267D01*
X159803763Y-89344767D01*
X159737787Y-89364780D01*
X159605836Y-89404807D01*
X159528707Y-89412404D01*
X159451580Y-89420000D01*
X159348420Y-89420000D01*
X159271293Y-89412404D01*
X159194164Y-89404807D01*
X159062213Y-89364780D01*
X158996237Y-89344767D01*
X158813828Y-89247267D01*
X158653946Y-89116054D01*
X158522733Y-88956172D01*
X158425233Y-88773763D01*
X158404627Y-88705834D01*
X158365193Y-88575836D01*
X158344920Y-88370000D01*
X158365193Y-88164164D01*
X158425233Y-87966238D01*
X158425233Y-87966237D01*
X158522733Y-87783828D01*
X158653946Y-87623946D01*
X158813828Y-87492733D01*
X158996237Y-87395233D01*
X159062213Y-87375220D01*
X159194164Y-87335193D01*
X159271293Y-87327597D01*
X159348420Y-87320000D01*
X159451580Y-87320000D01*
X159528707Y-87327597D01*
X159528707Y-87327597D01*
G37*
G36*
X130450000Y-87245000D02*
X129710000Y-87245000D01*
X129710000Y-85555000D01*
X130450000Y-85555000D01*
X130450000Y-87245000D01*
X130450000Y-87245000D01*
G37*
G36*
X140180000Y-87245000D02*
X139440000Y-87245000D01*
X139440000Y-85555000D01*
X140180000Y-85555000D01*
X140180000Y-87245000D01*
X140180000Y-87245000D01*
G37*
G36*
X138910000Y-87245000D02*
X138170000Y-87245000D01*
X138170000Y-85555000D01*
X138910000Y-85555000D01*
X138910000Y-87245000D01*
X138910000Y-87245000D01*
G37*
G36*
X137640000Y-87245000D02*
X136900000Y-87245000D01*
X136900000Y-85555000D01*
X137640000Y-85555000D01*
X137640000Y-87245000D01*
X137640000Y-87245000D01*
G37*
G36*
X141450000Y-87245000D02*
X140710000Y-87245000D01*
X140710000Y-85555000D01*
X141450000Y-85555000D01*
X141450000Y-87245000D01*
X141450000Y-87245000D01*
G37*
G36*
X142720000Y-87245000D02*
X141980000Y-87245000D01*
X141980000Y-85555000D01*
X142720000Y-85555000D01*
X142720000Y-87245000D01*
X142720000Y-87245000D01*
G37*
G36*
X143990000Y-87245000D02*
X143250000Y-87245000D01*
X143250000Y-85555000D01*
X143990000Y-85555000D01*
X143990000Y-87245000D01*
X143990000Y-87245000D01*
G37*
G36*
X136370000Y-87245000D02*
X135630000Y-87245000D01*
X135630000Y-85555000D01*
X136370000Y-85555000D01*
X136370000Y-87245000D01*
X136370000Y-87245000D01*
G37*
G36*
X121560000Y-87245000D02*
X120820000Y-87245000D01*
X120820000Y-85555000D01*
X121560000Y-85555000D01*
X121560000Y-87245000D01*
X121560000Y-87245000D01*
G37*
G36*
X122830000Y-87245000D02*
X122090000Y-87245000D01*
X122090000Y-85555000D01*
X122830000Y-85555000D01*
X122830000Y-87245000D01*
X122830000Y-87245000D01*
G37*
G36*
X124100000Y-87245000D02*
X123360000Y-87245000D01*
X123360000Y-85555000D01*
X124100000Y-85555000D01*
X124100000Y-87245000D01*
X124100000Y-87245000D01*
G37*
G36*
X125370000Y-87245000D02*
X124630000Y-87245000D01*
X124630000Y-85555000D01*
X125370000Y-85555000D01*
X125370000Y-87245000D01*
X125370000Y-87245000D01*
G37*
G36*
X126640000Y-87245000D02*
X125900000Y-87245000D01*
X125900000Y-85555000D01*
X126640000Y-85555000D01*
X126640000Y-87245000D01*
X126640000Y-87245000D01*
G37*
G36*
X127910000Y-87245000D02*
X127170000Y-87245000D01*
X127170000Y-85555000D01*
X127910000Y-85555000D01*
X127910000Y-87245000D01*
X127910000Y-87245000D01*
G37*
G36*
X129180000Y-87245000D02*
X128440000Y-87245000D01*
X128440000Y-85555000D01*
X129180000Y-85555000D01*
X129180000Y-87245000D01*
X129180000Y-87245000D01*
G37*
G36*
X145260000Y-87245000D02*
X144520000Y-87245000D01*
X144520000Y-85555000D01*
X145260000Y-85555000D01*
X145260000Y-87245000D01*
X145260000Y-87245000D01*
G37*
G36*
X162068707Y-84787597D02*
X162145836Y-84795193D01*
X162277787Y-84835220D01*
X162343763Y-84855233D01*
X162526172Y-84952733D01*
X162686054Y-85083946D01*
X162817267Y-85243828D01*
X162914767Y-85426237D01*
X162914767Y-85426238D01*
X162974807Y-85624164D01*
X162995080Y-85830000D01*
X162974807Y-86035836D01*
X162934780Y-86167787D01*
X162914767Y-86233763D01*
X162817267Y-86416172D01*
X162686054Y-86576054D01*
X162526172Y-86707267D01*
X162343763Y-86804767D01*
X162277787Y-86824780D01*
X162145836Y-86864807D01*
X162068707Y-86872403D01*
X161991580Y-86880000D01*
X161888420Y-86880000D01*
X161811293Y-86872403D01*
X161734164Y-86864807D01*
X161602213Y-86824780D01*
X161536237Y-86804767D01*
X161353828Y-86707267D01*
X161193946Y-86576054D01*
X161062733Y-86416172D01*
X160965233Y-86233763D01*
X160945220Y-86167787D01*
X160905193Y-86035836D01*
X160884920Y-85830000D01*
X160905193Y-85624164D01*
X160965233Y-85426238D01*
X160965233Y-85426237D01*
X161062733Y-85243828D01*
X161193946Y-85083946D01*
X161353828Y-84952733D01*
X161536237Y-84855233D01*
X161602213Y-84835220D01*
X161734164Y-84795193D01*
X161811293Y-84787597D01*
X161888420Y-84780000D01*
X161991580Y-84780000D01*
X162068707Y-84787597D01*
X162068707Y-84787597D01*
G37*
G36*
X159528707Y-84787597D02*
X159605836Y-84795193D01*
X159737787Y-84835220D01*
X159803763Y-84855233D01*
X159986172Y-84952733D01*
X160146054Y-85083946D01*
X160277267Y-85243828D01*
X160374767Y-85426237D01*
X160374767Y-85426238D01*
X160434807Y-85624164D01*
X160455080Y-85830000D01*
X160434807Y-86035836D01*
X160394780Y-86167787D01*
X160374767Y-86233763D01*
X160277267Y-86416172D01*
X160146054Y-86576054D01*
X159986172Y-86707267D01*
X159803763Y-86804767D01*
X159737787Y-86824780D01*
X159605836Y-86864807D01*
X159528707Y-86872403D01*
X159451580Y-86880000D01*
X159348420Y-86880000D01*
X159271293Y-86872403D01*
X159194164Y-86864807D01*
X159062213Y-86824780D01*
X158996237Y-86804767D01*
X158813828Y-86707267D01*
X158653946Y-86576054D01*
X158522733Y-86416172D01*
X158425233Y-86233763D01*
X158405220Y-86167787D01*
X158365193Y-86035836D01*
X158344920Y-85830000D01*
X158365193Y-85624164D01*
X158425233Y-85426238D01*
X158425233Y-85426237D01*
X158522733Y-85243828D01*
X158653946Y-85083946D01*
X158813828Y-84952733D01*
X158996237Y-84855233D01*
X159062213Y-84835220D01*
X159194164Y-84795193D01*
X159271293Y-84787597D01*
X159348420Y-84780000D01*
X159451580Y-84780000D01*
X159528707Y-84787597D01*
X159528707Y-84787597D01*
G37*
G36*
X149188707Y-83947597D02*
X149265836Y-83955193D01*
X149397787Y-83995220D01*
X149463763Y-84015233D01*
X149646172Y-84112733D01*
X149806054Y-84243946D01*
X149937267Y-84403828D01*
X150034767Y-84586237D01*
X150034767Y-84586238D01*
X150094807Y-84784164D01*
X150115080Y-84990000D01*
X150094807Y-85195836D01*
X150054780Y-85327787D01*
X150034767Y-85393763D01*
X149937267Y-85576172D01*
X149806054Y-85736054D01*
X149646172Y-85867267D01*
X149463763Y-85964767D01*
X149397787Y-85984780D01*
X149265836Y-86024807D01*
X149188707Y-86032403D01*
X149111580Y-86040000D01*
X149008420Y-86040000D01*
X148931293Y-86032403D01*
X148854164Y-86024807D01*
X148722213Y-85984780D01*
X148656237Y-85964767D01*
X148473828Y-85867267D01*
X148313946Y-85736054D01*
X148182733Y-85576172D01*
X148085233Y-85393763D01*
X148065220Y-85327787D01*
X148025193Y-85195836D01*
X148004920Y-84990000D01*
X148025193Y-84784164D01*
X148085233Y-84586238D01*
X148085233Y-84586237D01*
X148182733Y-84403828D01*
X148313946Y-84243946D01*
X148473828Y-84112733D01*
X148656237Y-84015233D01*
X148722213Y-83995220D01*
X148854164Y-83955193D01*
X148931293Y-83947597D01*
X149008420Y-83940000D01*
X149111580Y-83940000D01*
X149188707Y-83947597D01*
X149188707Y-83947597D01*
G37*
G36*
X152650000Y-86040000D02*
X150550000Y-86040000D01*
X150550000Y-83940000D01*
X152650000Y-83940000D01*
X152650000Y-86040000D01*
X152650000Y-86040000D01*
G37*
G36*
X104566393Y-82623553D02*
X104675872Y-82645330D01*
X104985252Y-82773479D01*
X105263687Y-82959523D01*
X105500477Y-83196313D01*
X105686521Y-83474748D01*
X105814670Y-83784128D01*
X105814670Y-83784129D01*
X105880000Y-84112563D01*
X105880000Y-84447437D01*
X105836447Y-84666393D01*
X105814670Y-84775872D01*
X105686521Y-85085252D01*
X105500477Y-85363687D01*
X105263687Y-85600477D01*
X104985252Y-85786521D01*
X104675872Y-85914670D01*
X104566393Y-85936447D01*
X104347437Y-85980000D01*
X104012563Y-85980000D01*
X103793607Y-85936447D01*
X103684128Y-85914670D01*
X103374748Y-85786521D01*
X103096313Y-85600477D01*
X102859523Y-85363687D01*
X102673479Y-85085252D01*
X102545330Y-84775872D01*
X102523553Y-84666393D01*
X102480000Y-84447437D01*
X102480000Y-84112563D01*
X102545330Y-83784129D01*
X102545330Y-83784128D01*
X102673479Y-83474748D01*
X102859523Y-83196313D01*
X103096313Y-82959523D01*
X103374748Y-82773479D01*
X103684128Y-82645330D01*
X103793607Y-82623553D01*
X104012563Y-82580000D01*
X104347437Y-82580000D01*
X104566393Y-82623553D01*
X104566393Y-82623553D01*
G37*
G36*
X116250000Y-85700000D02*
X114450000Y-85700000D01*
X114450000Y-84300000D01*
X116250000Y-84300000D01*
X116250000Y-85700000D01*
X116250000Y-85700000D01*
G37*
G36*
X113710000Y-85700000D02*
X111910000Y-85700000D01*
X111910000Y-84300000D01*
X113710000Y-84300000D01*
X113710000Y-85700000D01*
X113710000Y-85700000D01*
G37*
G36*
X134775000Y-85450000D02*
X133125000Y-85450000D01*
X133125000Y-84050000D01*
X134775000Y-84050000D01*
X134775000Y-85450000D01*
X134775000Y-85450000D01*
G37*
G36*
X119825000Y-85400000D02*
X118175000Y-85400000D01*
X118175000Y-84000000D01*
X119825000Y-84000000D01*
X119825000Y-85400000D01*
X119825000Y-85400000D01*
G37*
G36*
X162068707Y-82247597D02*
X162145836Y-82255193D01*
X162277787Y-82295220D01*
X162343763Y-82315233D01*
X162526172Y-82412733D01*
X162686054Y-82543946D01*
X162817267Y-82703828D01*
X162914767Y-82886237D01*
X162914767Y-82886238D01*
X162974807Y-83084164D01*
X162995080Y-83290000D01*
X162974807Y-83495836D01*
X162934780Y-83627787D01*
X162914767Y-83693763D01*
X162817267Y-83876172D01*
X162686054Y-84036054D01*
X162526172Y-84167267D01*
X162343763Y-84264767D01*
X162277787Y-84284780D01*
X162145836Y-84324807D01*
X162068707Y-84332404D01*
X161991580Y-84340000D01*
X161888420Y-84340000D01*
X161811293Y-84332404D01*
X161734164Y-84324807D01*
X161602213Y-84284780D01*
X161536237Y-84264767D01*
X161353828Y-84167267D01*
X161193946Y-84036054D01*
X161062733Y-83876172D01*
X160965233Y-83693763D01*
X160945220Y-83627787D01*
X160905193Y-83495836D01*
X160884920Y-83290000D01*
X160905193Y-83084164D01*
X160965233Y-82886238D01*
X160965233Y-82886237D01*
X161062733Y-82703828D01*
X161193946Y-82543946D01*
X161353828Y-82412733D01*
X161536237Y-82315233D01*
X161602213Y-82295220D01*
X161734164Y-82255193D01*
X161811293Y-82247597D01*
X161888420Y-82240000D01*
X161991580Y-82240000D01*
X162068707Y-82247597D01*
X162068707Y-82247597D01*
G37*
G36*
X159528707Y-82247597D02*
X159605836Y-82255193D01*
X159737787Y-82295220D01*
X159803763Y-82315233D01*
X159986172Y-82412733D01*
X160146054Y-82543946D01*
X160277267Y-82703828D01*
X160374767Y-82886237D01*
X160374767Y-82886238D01*
X160434807Y-83084164D01*
X160455080Y-83290000D01*
X160434807Y-83495836D01*
X160394780Y-83627787D01*
X160374767Y-83693763D01*
X160277267Y-83876172D01*
X160146054Y-84036054D01*
X159986172Y-84167267D01*
X159803763Y-84264767D01*
X159737787Y-84284780D01*
X159605836Y-84324807D01*
X159528707Y-84332404D01*
X159451580Y-84340000D01*
X159348420Y-84340000D01*
X159271293Y-84332404D01*
X159194164Y-84324807D01*
X159062213Y-84284780D01*
X158996237Y-84264767D01*
X158813828Y-84167267D01*
X158653946Y-84036054D01*
X158522733Y-83876172D01*
X158425233Y-83693763D01*
X158405220Y-83627787D01*
X158365193Y-83495836D01*
X158344920Y-83290000D01*
X158365193Y-83084164D01*
X158425233Y-82886238D01*
X158425233Y-82886237D01*
X158522733Y-82703828D01*
X158653946Y-82543946D01*
X158813828Y-82412733D01*
X158996237Y-82315233D01*
X159062213Y-82295220D01*
X159194164Y-82255193D01*
X159271293Y-82247597D01*
X159348420Y-82240000D01*
X159451580Y-82240000D01*
X159528707Y-82247597D01*
X159528707Y-82247597D01*
G37*
G36*
X151728707Y-81407597D02*
X151805836Y-81415193D01*
X151937787Y-81455220D01*
X152003763Y-81475233D01*
X152186172Y-81572733D01*
X152346054Y-81703946D01*
X152477267Y-81863828D01*
X152574767Y-82046237D01*
X152574767Y-82046238D01*
X152634807Y-82244164D01*
X152655080Y-82450000D01*
X152634807Y-82655836D01*
X152594780Y-82787787D01*
X152574767Y-82853763D01*
X152477267Y-83036172D01*
X152346054Y-83196054D01*
X152186172Y-83327267D01*
X152003763Y-83424767D01*
X151937787Y-83444780D01*
X151805836Y-83484807D01*
X151728707Y-83492404D01*
X151651580Y-83500000D01*
X151548420Y-83500000D01*
X151471293Y-83492404D01*
X151394164Y-83484807D01*
X151262213Y-83444780D01*
X151196237Y-83424767D01*
X151013828Y-83327267D01*
X150853946Y-83196054D01*
X150722733Y-83036172D01*
X150625233Y-82853763D01*
X150605220Y-82787787D01*
X150565193Y-82655836D01*
X150544920Y-82450000D01*
X150565193Y-82244164D01*
X150625233Y-82046238D01*
X150625233Y-82046237D01*
X150722733Y-81863828D01*
X150853946Y-81703946D01*
X151013828Y-81572733D01*
X151196237Y-81475233D01*
X151262213Y-81455220D01*
X151394164Y-81415193D01*
X151471293Y-81407597D01*
X151548420Y-81400000D01*
X151651580Y-81400000D01*
X151728707Y-81407597D01*
X151728707Y-81407597D01*
G37*
G36*
X149188707Y-81407597D02*
X149265836Y-81415193D01*
X149397787Y-81455220D01*
X149463763Y-81475233D01*
X149646172Y-81572733D01*
X149806054Y-81703946D01*
X149937267Y-81863828D01*
X150034767Y-82046237D01*
X150034767Y-82046238D01*
X150094807Y-82244164D01*
X150115080Y-82450000D01*
X150094807Y-82655836D01*
X150054780Y-82787787D01*
X150034767Y-82853763D01*
X149937267Y-83036172D01*
X149806054Y-83196054D01*
X149646172Y-83327267D01*
X149463763Y-83424767D01*
X149397787Y-83444780D01*
X149265836Y-83484807D01*
X149188707Y-83492404D01*
X149111580Y-83500000D01*
X149008420Y-83500000D01*
X148931293Y-83492404D01*
X148854164Y-83484807D01*
X148722213Y-83444780D01*
X148656237Y-83424767D01*
X148473828Y-83327267D01*
X148313946Y-83196054D01*
X148182733Y-83036172D01*
X148085233Y-82853763D01*
X148065220Y-82787787D01*
X148025193Y-82655836D01*
X148004920Y-82450000D01*
X148025193Y-82244164D01*
X148085233Y-82046238D01*
X148085233Y-82046237D01*
X148182733Y-81863828D01*
X148313946Y-81703946D01*
X148473828Y-81572733D01*
X148656237Y-81475233D01*
X148722213Y-81455220D01*
X148854164Y-81415193D01*
X148931293Y-81407597D01*
X149008420Y-81400000D01*
X149111580Y-81400000D01*
X149188707Y-81407597D01*
X149188707Y-81407597D01*
G37*
G36*
X134775000Y-83450000D02*
X133125000Y-83450000D01*
X133125000Y-82050000D01*
X134775000Y-82050000D01*
X134775000Y-83450000D01*
X134775000Y-83450000D01*
G37*
G36*
X119825000Y-83400000D02*
X118175000Y-83400000D01*
X118175000Y-82000000D01*
X119825000Y-82000000D01*
X119825000Y-83400000D01*
X119825000Y-83400000D01*
G37*
G36*
X106989452Y-80289127D02*
X107127105Y-80316508D01*
X107299994Y-80388121D01*
X107455590Y-80492087D01*
X107587913Y-80624410D01*
X107691879Y-80780006D01*
X107763492Y-80952895D01*
X107800000Y-81136433D01*
X107800000Y-81323567D01*
X107763492Y-81507105D01*
X107691879Y-81679994D01*
X107587913Y-81835590D01*
X107455590Y-81967913D01*
X107299994Y-82071879D01*
X107127105Y-82143492D01*
X106989452Y-82170873D01*
X106943568Y-82180000D01*
X106756432Y-82180000D01*
X106710548Y-82170873D01*
X106572895Y-82143492D01*
X106400006Y-82071879D01*
X106244410Y-81967913D01*
X106112087Y-81835590D01*
X106008121Y-81679994D01*
X105936508Y-81507105D01*
X105900000Y-81323567D01*
X105900000Y-81136433D01*
X105936508Y-80952895D01*
X106008121Y-80780006D01*
X106112087Y-80624410D01*
X106244410Y-80492087D01*
X106400006Y-80388121D01*
X106572895Y-80316508D01*
X106710548Y-80289127D01*
X106756432Y-80280000D01*
X106943568Y-80280000D01*
X106989452Y-80289127D01*
X106989452Y-80289127D01*
G37*
G36*
X130450000Y-81845000D02*
X129710000Y-81845000D01*
X129710000Y-80155000D01*
X130450000Y-80155000D01*
X130450000Y-81845000D01*
X130450000Y-81845000D01*
G37*
G36*
X138910000Y-81845000D02*
X138170000Y-81845000D01*
X138170000Y-80155000D01*
X138910000Y-80155000D01*
X138910000Y-81845000D01*
X138910000Y-81845000D01*
G37*
G36*
X140180000Y-81845000D02*
X139440000Y-81845000D01*
X139440000Y-80155000D01*
X140180000Y-80155000D01*
X140180000Y-81845000D01*
X140180000Y-81845000D01*
G37*
G36*
X141450000Y-81845000D02*
X140710000Y-81845000D01*
X140710000Y-80155000D01*
X141450000Y-80155000D01*
X141450000Y-81845000D01*
X141450000Y-81845000D01*
G37*
G36*
X142720000Y-81845000D02*
X141980000Y-81845000D01*
X141980000Y-80155000D01*
X142720000Y-80155000D01*
X142720000Y-81845000D01*
X142720000Y-81845000D01*
G37*
G36*
X143990000Y-81845000D02*
X143250000Y-81845000D01*
X143250000Y-80155000D01*
X143990000Y-80155000D01*
X143990000Y-81845000D01*
X143990000Y-81845000D01*
G37*
G36*
X145260000Y-81845000D02*
X144520000Y-81845000D01*
X144520000Y-80155000D01*
X145260000Y-80155000D01*
X145260000Y-81845000D01*
X145260000Y-81845000D01*
G37*
G36*
X137640000Y-81845000D02*
X136900000Y-81845000D01*
X136900000Y-80155000D01*
X137640000Y-80155000D01*
X137640000Y-81845000D01*
X137640000Y-81845000D01*
G37*
G36*
X121560000Y-81845000D02*
X120820000Y-81845000D01*
X120820000Y-80155000D01*
X121560000Y-80155000D01*
X121560000Y-81845000D01*
X121560000Y-81845000D01*
G37*
G36*
X136370000Y-81845000D02*
X135630000Y-81845000D01*
X135630000Y-80155000D01*
X136370000Y-80155000D01*
X136370000Y-81845000D01*
X136370000Y-81845000D01*
G37*
G36*
X129180000Y-81845000D02*
X128440000Y-81845000D01*
X128440000Y-80155000D01*
X129180000Y-80155000D01*
X129180000Y-81845000D01*
X129180000Y-81845000D01*
G37*
G36*
X122830000Y-81845000D02*
X122090000Y-81845000D01*
X122090000Y-80155000D01*
X122830000Y-80155000D01*
X122830000Y-81845000D01*
X122830000Y-81845000D01*
G37*
G36*
X127910000Y-81845000D02*
X127170000Y-81845000D01*
X127170000Y-80155000D01*
X127910000Y-80155000D01*
X127910000Y-81845000D01*
X127910000Y-81845000D01*
G37*
G36*
X126640000Y-81845000D02*
X125900000Y-81845000D01*
X125900000Y-80155000D01*
X126640000Y-80155000D01*
X126640000Y-81845000D01*
X126640000Y-81845000D01*
G37*
G36*
X125370000Y-81845000D02*
X124630000Y-81845000D01*
X124630000Y-80155000D01*
X125370000Y-80155000D01*
X125370000Y-81845000D01*
X125370000Y-81845000D01*
G37*
G36*
X124100000Y-81845000D02*
X123360000Y-81845000D01*
X123360000Y-80155000D01*
X124100000Y-80155000D01*
X124100000Y-81845000D01*
X124100000Y-81845000D01*
G37*
G36*
X162068707Y-79707597D02*
X162145836Y-79715193D01*
X162277787Y-79755220D01*
X162343763Y-79775233D01*
X162526172Y-79872733D01*
X162686054Y-80003946D01*
X162817267Y-80163828D01*
X162914767Y-80346237D01*
X162914767Y-80346238D01*
X162974807Y-80544164D01*
X162995080Y-80750000D01*
X162974807Y-80955836D01*
X162934780Y-81087787D01*
X162914767Y-81153763D01*
X162817267Y-81336172D01*
X162686054Y-81496054D01*
X162526172Y-81627267D01*
X162343763Y-81724767D01*
X162277787Y-81744780D01*
X162145836Y-81784807D01*
X162068707Y-81792403D01*
X161991580Y-81800000D01*
X161888420Y-81800000D01*
X161811293Y-81792403D01*
X161734164Y-81784807D01*
X161602213Y-81744780D01*
X161536237Y-81724767D01*
X161353828Y-81627267D01*
X161193946Y-81496054D01*
X161062733Y-81336172D01*
X160965233Y-81153763D01*
X160945220Y-81087787D01*
X160905193Y-80955836D01*
X160884920Y-80750000D01*
X160905193Y-80544164D01*
X160965233Y-80346238D01*
X160965233Y-80346237D01*
X161062733Y-80163828D01*
X161193946Y-80003946D01*
X161353828Y-79872733D01*
X161536237Y-79775233D01*
X161602213Y-79755220D01*
X161734164Y-79715193D01*
X161811293Y-79707597D01*
X161888420Y-79700000D01*
X161991580Y-79700000D01*
X162068707Y-79707597D01*
X162068707Y-79707597D01*
G37*
G36*
X160450000Y-81800000D02*
X158350000Y-81800000D01*
X158350000Y-79700000D01*
X160450000Y-79700000D01*
X160450000Y-81800000D01*
X160450000Y-81800000D01*
G37*
G36*
X119850000Y-79750000D02*
X118250000Y-79750000D01*
X118250000Y-78150000D01*
X119850000Y-78150000D01*
X119850000Y-79750000D01*
X119850000Y-79750000D01*
G37*
G36*
X106989452Y-75719127D02*
X107127105Y-75746508D01*
X107299994Y-75818121D01*
X107455590Y-75922087D01*
X107587913Y-76054410D01*
X107691879Y-76210006D01*
X107763492Y-76382895D01*
X107800000Y-76566433D01*
X107800000Y-76753567D01*
X107763492Y-76937105D01*
X107691879Y-77109994D01*
X107587913Y-77265590D01*
X107455590Y-77397913D01*
X107299994Y-77501879D01*
X107160842Y-77559518D01*
X107139236Y-77571067D01*
X107120294Y-77586612D01*
X107104749Y-77605554D01*
X107093198Y-77627165D01*
X107086085Y-77650614D01*
X107083683Y-77675000D01*
X107086085Y-77699387D01*
X107093198Y-77722836D01*
X107104750Y-77744447D01*
X107120295Y-77763389D01*
X107139237Y-77778934D01*
X107160842Y-77790482D01*
X107299994Y-77848121D01*
X107455590Y-77952087D01*
X107587913Y-78084410D01*
X107691879Y-78240006D01*
X107763492Y-78412895D01*
X107800000Y-78596433D01*
X107800000Y-78783567D01*
X107763492Y-78967105D01*
X107691879Y-79139994D01*
X107587913Y-79295590D01*
X107455590Y-79427913D01*
X107299994Y-79531879D01*
X107127105Y-79603492D01*
X106989451Y-79630873D01*
X106943568Y-79640000D01*
X106756432Y-79640000D01*
X106710549Y-79630873D01*
X106572895Y-79603492D01*
X106400006Y-79531879D01*
X106244410Y-79427913D01*
X106112087Y-79295590D01*
X106008121Y-79139994D01*
X105936508Y-78967105D01*
X105900000Y-78783567D01*
X105900000Y-78596433D01*
X105936508Y-78412895D01*
X106008121Y-78240006D01*
X106112087Y-78084410D01*
X106244410Y-77952087D01*
X106400006Y-77848121D01*
X106539158Y-77790482D01*
X106560764Y-77778933D01*
X106579706Y-77763388D01*
X106595251Y-77744446D01*
X106606802Y-77722835D01*
X106613915Y-77699386D01*
X106616317Y-77675000D01*
X106613915Y-77650613D01*
X106606802Y-77627164D01*
X106595250Y-77605553D01*
X106579705Y-77586611D01*
X106560763Y-77571066D01*
X106539158Y-77559518D01*
X106400006Y-77501879D01*
X106244410Y-77397913D01*
X106112087Y-77265590D01*
X106008121Y-77109994D01*
X105936508Y-76937105D01*
X105900000Y-76753567D01*
X105900000Y-76566433D01*
X105936508Y-76382895D01*
X106008121Y-76210006D01*
X106112087Y-76054410D01*
X106244410Y-75922087D01*
X106400006Y-75818121D01*
X106572895Y-75746508D01*
X106710548Y-75719127D01*
X106756432Y-75710000D01*
X106943568Y-75710000D01*
X106989452Y-75719127D01*
X106989452Y-75719127D01*
G37*
G36*
X113710000Y-79550000D02*
X111910000Y-79550000D01*
X111910000Y-78150000D01*
X113710000Y-78150000D01*
X113710000Y-79550000D01*
X113710000Y-79550000D01*
G37*
G36*
X116250000Y-79550000D02*
X114450000Y-79550000D01*
X114450000Y-78150000D01*
X116250000Y-78150000D01*
X116250000Y-79550000D01*
X116250000Y-79550000D01*
G37*
G36*
X149178707Y-76437596D02*
X149255836Y-76445193D01*
X149387787Y-76485220D01*
X149453763Y-76505233D01*
X149636172Y-76602733D01*
X149796054Y-76733946D01*
X149927267Y-76893828D01*
X150024767Y-77076237D01*
X150024767Y-77076238D01*
X150084807Y-77274164D01*
X150105080Y-77480000D01*
X150084807Y-77685836D01*
X150057302Y-77776508D01*
X150024767Y-77883763D01*
X149927267Y-78066172D01*
X149796054Y-78226054D01*
X149636172Y-78357267D01*
X149453763Y-78454767D01*
X149387787Y-78474780D01*
X149255836Y-78514807D01*
X149178707Y-78522403D01*
X149101580Y-78530000D01*
X148998420Y-78530000D01*
X148921293Y-78522403D01*
X148844164Y-78514807D01*
X148712213Y-78474780D01*
X148646237Y-78454767D01*
X148463828Y-78357267D01*
X148303946Y-78226054D01*
X148172733Y-78066172D01*
X148075233Y-77883763D01*
X148042698Y-77776508D01*
X148015193Y-77685836D01*
X147994920Y-77480000D01*
X148015193Y-77274164D01*
X148075233Y-77076238D01*
X148075233Y-77076237D01*
X148172733Y-76893828D01*
X148303946Y-76733946D01*
X148463828Y-76602733D01*
X148646237Y-76505233D01*
X148712213Y-76485220D01*
X148844164Y-76445193D01*
X148921293Y-76437596D01*
X148998420Y-76430000D01*
X149101580Y-76430000D01*
X149178707Y-76437596D01*
X149178707Y-76437596D01*
G37*
G36*
X151718707Y-76437596D02*
X151795836Y-76445193D01*
X151927787Y-76485220D01*
X151993763Y-76505233D01*
X152176172Y-76602733D01*
X152336054Y-76733946D01*
X152467267Y-76893828D01*
X152564767Y-77076237D01*
X152564767Y-77076238D01*
X152624807Y-77274164D01*
X152645080Y-77480000D01*
X152624807Y-77685836D01*
X152597302Y-77776508D01*
X152564767Y-77883763D01*
X152467267Y-78066172D01*
X152336054Y-78226054D01*
X152176172Y-78357267D01*
X151993763Y-78454767D01*
X151927787Y-78474780D01*
X151795836Y-78514807D01*
X151718707Y-78522403D01*
X151641580Y-78530000D01*
X151538420Y-78530000D01*
X151461293Y-78522403D01*
X151384164Y-78514807D01*
X151252213Y-78474780D01*
X151186237Y-78454767D01*
X151003828Y-78357267D01*
X150843946Y-78226054D01*
X150712733Y-78066172D01*
X150615233Y-77883763D01*
X150582698Y-77776508D01*
X150555193Y-77685836D01*
X150534920Y-77480000D01*
X150555193Y-77274164D01*
X150615233Y-77076238D01*
X150615233Y-77076237D01*
X150712733Y-76893828D01*
X150843946Y-76733946D01*
X151003828Y-76602733D01*
X151186237Y-76505233D01*
X151252213Y-76485220D01*
X151384164Y-76445193D01*
X151461293Y-76437596D01*
X151538420Y-76430000D01*
X151641580Y-76430000D01*
X151718707Y-76437596D01*
X151718707Y-76437596D01*
G37*
G36*
X119850000Y-77550000D02*
X118250000Y-77550000D01*
X118250000Y-75950000D01*
X119850000Y-75950000D01*
X119850000Y-77550000D01*
X119850000Y-77550000D01*
G37*
G36*
X162068707Y-74757597D02*
X162145836Y-74765193D01*
X162277787Y-74805220D01*
X162343763Y-74825233D01*
X162526172Y-74922733D01*
X162686054Y-75053946D01*
X162817267Y-75213828D01*
X162914767Y-75396237D01*
X162914767Y-75396238D01*
X162974807Y-75594164D01*
X162995080Y-75800000D01*
X162974807Y-76005836D01*
X162960073Y-76054408D01*
X162914767Y-76203763D01*
X162817267Y-76386172D01*
X162686054Y-76546054D01*
X162526172Y-76677267D01*
X162343763Y-76774767D01*
X162277787Y-76794780D01*
X162145836Y-76834807D01*
X162068707Y-76842404D01*
X161991580Y-76850000D01*
X161888420Y-76850000D01*
X161811293Y-76842404D01*
X161734164Y-76834807D01*
X161602213Y-76794780D01*
X161536237Y-76774767D01*
X161353828Y-76677267D01*
X161193946Y-76546054D01*
X161062733Y-76386172D01*
X160965233Y-76203763D01*
X160919927Y-76054408D01*
X160905193Y-76005836D01*
X160884920Y-75800000D01*
X160905193Y-75594164D01*
X160965233Y-75396238D01*
X160965233Y-75396237D01*
X161062733Y-75213828D01*
X161193946Y-75053946D01*
X161353828Y-74922733D01*
X161536237Y-74825233D01*
X161602213Y-74805220D01*
X161734164Y-74765193D01*
X161811293Y-74757597D01*
X161888420Y-74750000D01*
X161991580Y-74750000D01*
X162068707Y-74757597D01*
X162068707Y-74757597D01*
G37*
G36*
X159528707Y-74757597D02*
X159605836Y-74765193D01*
X159737787Y-74805220D01*
X159803763Y-74825233D01*
X159986172Y-74922733D01*
X160146054Y-75053946D01*
X160277267Y-75213828D01*
X160374767Y-75396237D01*
X160374767Y-75396238D01*
X160434807Y-75594164D01*
X160455080Y-75800000D01*
X160434807Y-76005836D01*
X160420073Y-76054408D01*
X160374767Y-76203763D01*
X160277267Y-76386172D01*
X160146054Y-76546054D01*
X159986172Y-76677267D01*
X159803763Y-76774767D01*
X159737787Y-76794780D01*
X159605836Y-76834807D01*
X159528707Y-76842404D01*
X159451580Y-76850000D01*
X159348420Y-76850000D01*
X159271293Y-76842404D01*
X159194164Y-76834807D01*
X159062213Y-76794780D01*
X158996237Y-76774767D01*
X158813828Y-76677267D01*
X158653946Y-76546054D01*
X158522733Y-76386172D01*
X158425233Y-76203763D01*
X158379927Y-76054408D01*
X158365193Y-76005836D01*
X158344920Y-75800000D01*
X158365193Y-75594164D01*
X158425233Y-75396238D01*
X158425233Y-75396237D01*
X158522733Y-75213828D01*
X158653946Y-75053946D01*
X158813828Y-74922733D01*
X158996237Y-74825233D01*
X159062213Y-74805220D01*
X159194164Y-74765193D01*
X159271293Y-74757597D01*
X159348420Y-74750000D01*
X159451580Y-74750000D01*
X159528707Y-74757597D01*
X159528707Y-74757597D01*
G37*
G36*
X115850000Y-76400000D02*
X114350000Y-76400000D01*
X114350000Y-74900000D01*
X115850000Y-74900000D01*
X115850000Y-76400000D01*
X115850000Y-76400000D01*
G37*
G36*
X113050000Y-76400000D02*
X111550000Y-76400000D01*
X111550000Y-74900000D01*
X113050000Y-74900000D01*
X113050000Y-76400000D01*
X113050000Y-76400000D01*
G37*
G36*
X149178707Y-73897596D02*
X149255836Y-73905193D01*
X149387787Y-73945220D01*
X149453763Y-73965233D01*
X149636172Y-74062733D01*
X149796054Y-74193946D01*
X149927267Y-74353828D01*
X150024767Y-74536237D01*
X150024767Y-74536238D01*
X150084807Y-74734164D01*
X150105080Y-74940000D01*
X150084807Y-75145836D01*
X150044780Y-75277787D01*
X150024767Y-75343763D01*
X149927267Y-75526172D01*
X149796054Y-75686054D01*
X149636172Y-75817267D01*
X149453763Y-75914767D01*
X149429625Y-75922089D01*
X149255836Y-75974807D01*
X149178707Y-75982403D01*
X149101580Y-75990000D01*
X148998420Y-75990000D01*
X148921293Y-75982403D01*
X148844164Y-75974807D01*
X148670375Y-75922089D01*
X148646237Y-75914767D01*
X148463828Y-75817267D01*
X148303946Y-75686054D01*
X148172733Y-75526172D01*
X148075233Y-75343763D01*
X148055220Y-75277787D01*
X148015193Y-75145836D01*
X147994920Y-74940000D01*
X148015193Y-74734164D01*
X148075233Y-74536238D01*
X148075233Y-74536237D01*
X148172733Y-74353828D01*
X148303946Y-74193946D01*
X148463828Y-74062733D01*
X148646237Y-73965233D01*
X148712213Y-73945220D01*
X148844164Y-73905193D01*
X148921293Y-73897596D01*
X148998420Y-73890000D01*
X149101580Y-73890000D01*
X149178707Y-73897596D01*
X149178707Y-73897596D01*
G37*
G36*
X151718707Y-73897596D02*
X151795836Y-73905193D01*
X151927787Y-73945220D01*
X151993763Y-73965233D01*
X152176172Y-74062733D01*
X152336054Y-74193946D01*
X152467267Y-74353828D01*
X152564767Y-74536237D01*
X152564767Y-74536238D01*
X152624807Y-74734164D01*
X152645080Y-74940000D01*
X152624807Y-75145836D01*
X152584780Y-75277787D01*
X152564767Y-75343763D01*
X152467267Y-75526172D01*
X152336054Y-75686054D01*
X152176172Y-75817267D01*
X151993763Y-75914767D01*
X151969625Y-75922089D01*
X151795836Y-75974807D01*
X151718707Y-75982403D01*
X151641580Y-75990000D01*
X151538420Y-75990000D01*
X151461293Y-75982403D01*
X151384164Y-75974807D01*
X151210375Y-75922089D01*
X151186237Y-75914767D01*
X151003828Y-75817267D01*
X150843946Y-75686054D01*
X150712733Y-75526172D01*
X150615233Y-75343763D01*
X150595220Y-75277787D01*
X150555193Y-75145836D01*
X150534920Y-74940000D01*
X150555193Y-74734164D01*
X150615233Y-74536238D01*
X150615233Y-74536237D01*
X150712733Y-74353828D01*
X150843946Y-74193946D01*
X151003828Y-74062733D01*
X151186237Y-73965233D01*
X151252213Y-73945220D01*
X151384164Y-73905193D01*
X151461293Y-73897596D01*
X151538420Y-73890000D01*
X151641580Y-73890000D01*
X151718707Y-73897596D01*
X151718707Y-73897596D01*
G37*
G36*
X106989451Y-73179127D02*
X107127105Y-73206508D01*
X107299994Y-73278121D01*
X107455590Y-73382087D01*
X107587913Y-73514410D01*
X107691879Y-73670006D01*
X107763492Y-73842895D01*
X107800000Y-74026433D01*
X107800000Y-74213567D01*
X107763492Y-74397105D01*
X107691879Y-74569994D01*
X107587913Y-74725590D01*
X107455590Y-74857913D01*
X107299994Y-74961879D01*
X107127105Y-75033492D01*
X106989452Y-75060873D01*
X106943568Y-75070000D01*
X106756432Y-75070000D01*
X106710548Y-75060873D01*
X106572895Y-75033492D01*
X106400006Y-74961879D01*
X106244410Y-74857913D01*
X106112087Y-74725590D01*
X106008121Y-74569994D01*
X105936508Y-74397105D01*
X105900000Y-74213567D01*
X105900000Y-74026433D01*
X105936508Y-73842895D01*
X106008121Y-73670006D01*
X106112087Y-73514410D01*
X106244410Y-73382087D01*
X106400006Y-73278121D01*
X106572895Y-73206508D01*
X106710549Y-73179127D01*
X106756432Y-73170000D01*
X106943568Y-73170000D01*
X106989451Y-73179127D01*
X106989451Y-73179127D01*
G37*
G36*
X122740000Y-75020000D02*
X118750000Y-75020000D01*
X118750000Y-73120000D01*
X122740000Y-73120000D01*
X122740000Y-75020000D01*
X122740000Y-75020000D01*
G37*
G36*
X159528707Y-72217596D02*
X159605836Y-72225193D01*
X159737787Y-72265220D01*
X159803763Y-72285233D01*
X159986172Y-72382733D01*
X160146054Y-72513946D01*
X160277267Y-72673828D01*
X160374767Y-72856237D01*
X160374767Y-72856238D01*
X160434807Y-73054164D01*
X160455080Y-73260000D01*
X160434807Y-73465836D01*
X160420073Y-73514408D01*
X160374767Y-73663763D01*
X160277267Y-73846172D01*
X160146054Y-74006054D01*
X159986172Y-74137267D01*
X159803763Y-74234767D01*
X159737787Y-74254780D01*
X159605836Y-74294807D01*
X159528707Y-74302404D01*
X159451580Y-74310000D01*
X159348420Y-74310000D01*
X159271293Y-74302404D01*
X159194164Y-74294807D01*
X159062213Y-74254780D01*
X158996237Y-74234767D01*
X158813828Y-74137267D01*
X158653946Y-74006054D01*
X158522733Y-73846172D01*
X158425233Y-73663763D01*
X158379927Y-73514408D01*
X158365193Y-73465836D01*
X158344920Y-73260000D01*
X158365193Y-73054164D01*
X158425233Y-72856238D01*
X158425233Y-72856237D01*
X158522733Y-72673828D01*
X158653946Y-72513946D01*
X158813828Y-72382733D01*
X158996237Y-72285233D01*
X159062213Y-72265220D01*
X159194164Y-72225193D01*
X159271293Y-72217596D01*
X159348420Y-72210000D01*
X159451580Y-72210000D01*
X159528707Y-72217596D01*
X159528707Y-72217596D01*
G37*
G36*
X162068707Y-72217596D02*
X162145836Y-72225193D01*
X162277787Y-72265220D01*
X162343763Y-72285233D01*
X162526172Y-72382733D01*
X162686054Y-72513946D01*
X162817267Y-72673828D01*
X162914767Y-72856237D01*
X162914767Y-72856238D01*
X162974807Y-73054164D01*
X162995080Y-73260000D01*
X162974807Y-73465836D01*
X162960073Y-73514408D01*
X162914767Y-73663763D01*
X162817267Y-73846172D01*
X162686054Y-74006054D01*
X162526172Y-74137267D01*
X162343763Y-74234767D01*
X162277787Y-74254780D01*
X162145836Y-74294807D01*
X162068707Y-74302404D01*
X161991580Y-74310000D01*
X161888420Y-74310000D01*
X161811293Y-74302404D01*
X161734164Y-74294807D01*
X161602213Y-74254780D01*
X161536237Y-74234767D01*
X161353828Y-74137267D01*
X161193946Y-74006054D01*
X161062733Y-73846172D01*
X160965233Y-73663763D01*
X160919927Y-73514408D01*
X160905193Y-73465836D01*
X160884920Y-73260000D01*
X160905193Y-73054164D01*
X160965233Y-72856238D01*
X160965233Y-72856237D01*
X161062733Y-72673828D01*
X161193946Y-72513946D01*
X161353828Y-72382733D01*
X161536237Y-72285233D01*
X161602213Y-72265220D01*
X161734164Y-72225193D01*
X161811293Y-72217596D01*
X161888420Y-72210000D01*
X161991580Y-72210000D01*
X162068707Y-72217596D01*
X162068707Y-72217596D01*
G37*
G36*
X138750000Y-73700000D02*
X137650000Y-73700000D01*
X137650000Y-72000000D01*
X138750000Y-72000000D01*
X138750000Y-73700000D01*
X138750000Y-73700000D01*
G37*
G36*
X136850000Y-73700000D02*
X135750000Y-73700000D01*
X135750000Y-72000000D01*
X136850000Y-72000000D01*
X136850000Y-73700000D01*
X136850000Y-73700000D01*
G37*
G36*
X128850000Y-73675000D02*
X127450000Y-73675000D01*
X127450000Y-72025000D01*
X128850000Y-72025000D01*
X128850000Y-73675000D01*
X128850000Y-73675000D01*
G37*
G36*
X126850000Y-73675000D02*
X125450000Y-73675000D01*
X125450000Y-72025000D01*
X126850000Y-72025000D01*
X126850000Y-73675000D01*
X126850000Y-73675000D01*
G37*
G36*
X150100000Y-73450000D02*
X148000000Y-73450000D01*
X148000000Y-71350000D01*
X150100000Y-71350000D01*
X150100000Y-73450000D01*
X150100000Y-73450000D01*
G37*
G36*
X151718707Y-71357597D02*
X151795836Y-71365193D01*
X151927787Y-71405220D01*
X151993763Y-71425233D01*
X152176172Y-71522733D01*
X152336054Y-71653946D01*
X152467267Y-71813828D01*
X152564767Y-71996237D01*
X152564767Y-71996238D01*
X152624807Y-72194164D01*
X152645080Y-72400000D01*
X152624807Y-72605836D01*
X152584780Y-72737787D01*
X152564767Y-72803763D01*
X152467267Y-72986172D01*
X152336054Y-73146054D01*
X152176172Y-73277267D01*
X151993763Y-73374767D01*
X151969625Y-73382089D01*
X151795836Y-73434807D01*
X151718707Y-73442404D01*
X151641580Y-73450000D01*
X151538420Y-73450000D01*
X151461293Y-73442404D01*
X151384164Y-73434807D01*
X151210375Y-73382089D01*
X151186237Y-73374767D01*
X151003828Y-73277267D01*
X150843946Y-73146054D01*
X150712733Y-72986172D01*
X150615233Y-72803763D01*
X150595220Y-72737787D01*
X150555193Y-72605836D01*
X150534920Y-72400000D01*
X150555193Y-72194164D01*
X150615233Y-71996238D01*
X150615233Y-71996237D01*
X150712733Y-71813828D01*
X150843946Y-71653946D01*
X151003828Y-71522733D01*
X151186237Y-71425233D01*
X151252213Y-71405220D01*
X151384164Y-71365193D01*
X151461293Y-71357597D01*
X151538420Y-71350000D01*
X151641580Y-71350000D01*
X151718707Y-71357597D01*
X151718707Y-71357597D01*
G37*
G36*
X113050000Y-72900000D02*
X111550000Y-72900000D01*
X111550000Y-71400000D01*
X113050000Y-71400000D01*
X113050000Y-72900000D01*
X113050000Y-72900000D01*
G37*
G36*
X115850000Y-72900000D02*
X114350000Y-72900000D01*
X114350000Y-71400000D01*
X115850000Y-71400000D01*
X115850000Y-72900000D01*
X115850000Y-72900000D01*
G37*
G36*
X121850000Y-72850000D02*
X120150000Y-72850000D01*
X120150000Y-71750000D01*
X121850000Y-71750000D01*
X121850000Y-72850000D01*
X121850000Y-72850000D01*
G37*
G36*
X123950000Y-72850000D02*
X122250000Y-72850000D01*
X122250000Y-71750000D01*
X123950000Y-71750000D01*
X123950000Y-72850000D01*
X123950000Y-72850000D01*
G37*
G36*
X104566393Y-68903553D02*
X104675872Y-68925330D01*
X104985252Y-69053479D01*
X105263687Y-69239523D01*
X105500477Y-69476313D01*
X105686521Y-69754748D01*
X105814670Y-70064128D01*
X105814670Y-70064129D01*
X105864818Y-70316237D01*
X105880000Y-70392565D01*
X105880000Y-70727435D01*
X105814670Y-71055872D01*
X105686521Y-71365252D01*
X105500477Y-71643687D01*
X105263687Y-71880477D01*
X104985252Y-72066521D01*
X104675872Y-72194670D01*
X104566393Y-72216447D01*
X104347437Y-72260000D01*
X104012563Y-72260000D01*
X103793607Y-72216447D01*
X103684128Y-72194670D01*
X103374748Y-72066521D01*
X103096313Y-71880477D01*
X102859523Y-71643687D01*
X102673479Y-71365252D01*
X102545330Y-71055872D01*
X102480000Y-70727435D01*
X102480000Y-70392565D01*
X102495183Y-70316237D01*
X102545330Y-70064129D01*
X102545330Y-70064128D01*
X102673479Y-69754748D01*
X102859523Y-69476313D01*
X103096313Y-69239523D01*
X103374748Y-69053479D01*
X103684128Y-68925330D01*
X103793607Y-68903553D01*
X104012563Y-68860000D01*
X104347437Y-68860000D01*
X104566393Y-68903553D01*
X104566393Y-68903553D01*
G37*
G36*
X162068707Y-69677596D02*
X162145836Y-69685193D01*
X162277787Y-69725220D01*
X162343763Y-69745233D01*
X162526172Y-69842733D01*
X162686054Y-69973946D01*
X162817267Y-70133828D01*
X162914767Y-70316237D01*
X162914767Y-70316238D01*
X162974807Y-70514164D01*
X162995080Y-70720000D01*
X162974807Y-70925836D01*
X162935361Y-71055871D01*
X162914767Y-71123763D01*
X162817267Y-71306172D01*
X162686054Y-71466054D01*
X162526172Y-71597267D01*
X162343763Y-71694767D01*
X162277787Y-71714780D01*
X162145836Y-71754807D01*
X162068707Y-71762404D01*
X161991580Y-71770000D01*
X161888420Y-71770000D01*
X161811293Y-71762404D01*
X161734164Y-71754807D01*
X161602213Y-71714780D01*
X161536237Y-71694767D01*
X161353828Y-71597267D01*
X161193946Y-71466054D01*
X161062733Y-71306172D01*
X160965233Y-71123763D01*
X160944639Y-71055871D01*
X160905193Y-70925836D01*
X160884920Y-70720000D01*
X160905193Y-70514164D01*
X160965233Y-70316238D01*
X160965233Y-70316237D01*
X161062733Y-70133828D01*
X161193946Y-69973946D01*
X161353828Y-69842733D01*
X161536237Y-69745233D01*
X161602213Y-69725220D01*
X161734164Y-69685193D01*
X161811293Y-69677596D01*
X161888420Y-69670000D01*
X161991580Y-69670000D01*
X162068707Y-69677596D01*
X162068707Y-69677596D01*
G37*
G36*
X159528707Y-69677596D02*
X159605836Y-69685193D01*
X159737787Y-69725220D01*
X159803763Y-69745233D01*
X159986172Y-69842733D01*
X160146054Y-69973946D01*
X160277267Y-70133828D01*
X160374767Y-70316237D01*
X160374767Y-70316238D01*
X160434807Y-70514164D01*
X160455080Y-70720000D01*
X160434807Y-70925836D01*
X160395361Y-71055871D01*
X160374767Y-71123763D01*
X160277267Y-71306172D01*
X160146054Y-71466054D01*
X159986172Y-71597267D01*
X159803763Y-71694767D01*
X159737787Y-71714780D01*
X159605836Y-71754807D01*
X159528707Y-71762404D01*
X159451580Y-71770000D01*
X159348420Y-71770000D01*
X159271293Y-71762404D01*
X159194164Y-71754807D01*
X159062213Y-71714780D01*
X158996237Y-71694767D01*
X158813828Y-71597267D01*
X158653946Y-71466054D01*
X158522733Y-71306172D01*
X158425233Y-71123763D01*
X158404639Y-71055871D01*
X158365193Y-70925836D01*
X158344920Y-70720000D01*
X158365193Y-70514164D01*
X158425233Y-70316238D01*
X158425233Y-70316237D01*
X158522733Y-70133828D01*
X158653946Y-69973946D01*
X158813828Y-69842733D01*
X158996237Y-69745233D01*
X159062213Y-69725220D01*
X159194164Y-69685193D01*
X159271293Y-69677596D01*
X159348420Y-69670000D01*
X159451580Y-69670000D01*
X159528707Y-69677596D01*
X159528707Y-69677596D01*
G37*
G36*
X136575000Y-71350000D02*
X127625000Y-71350000D01*
X127625000Y-69450000D01*
X136575000Y-69450000D01*
X136575000Y-71350000D01*
X136575000Y-71350000D01*
G37*
G36*
X123950000Y-70950000D02*
X122250000Y-70950000D01*
X122250000Y-69850000D01*
X123950000Y-69850000D01*
X123950000Y-70950000D01*
X123950000Y-70950000D01*
G37*
G36*
X121850000Y-70950000D02*
X120150000Y-70950000D01*
X120150000Y-69850000D01*
X121850000Y-69850000D01*
X121850000Y-70950000D01*
X121850000Y-70950000D01*
G37*
G36*
X115800000Y-69400000D02*
X114300000Y-69400000D01*
X114300000Y-67900000D01*
X115800000Y-67900000D01*
X115800000Y-69400000D01*
X115800000Y-69400000D01*
G37*
G36*
X113000000Y-69400000D02*
X111500000Y-69400000D01*
X111500000Y-67900000D01*
X113000000Y-67900000D01*
X113000000Y-69400000D01*
X113000000Y-69400000D01*
G37*
G36*
X159528707Y-67137597D02*
X159605836Y-67145193D01*
X159734307Y-67184164D01*
X159803763Y-67205233D01*
X159986172Y-67302733D01*
X160146054Y-67433946D01*
X160277267Y-67593828D01*
X160374767Y-67776237D01*
X160374767Y-67776238D01*
X160434807Y-67974164D01*
X160455080Y-68180000D01*
X160434807Y-68385836D01*
X160394780Y-68517787D01*
X160374767Y-68583763D01*
X160277267Y-68766172D01*
X160146054Y-68926054D01*
X159986172Y-69057267D01*
X159803763Y-69154767D01*
X159737787Y-69174780D01*
X159605836Y-69214807D01*
X159528707Y-69222404D01*
X159451580Y-69230000D01*
X159348420Y-69230000D01*
X159271293Y-69222404D01*
X159194164Y-69214807D01*
X159062213Y-69174780D01*
X158996237Y-69154767D01*
X158813828Y-69057267D01*
X158653946Y-68926054D01*
X158522733Y-68766172D01*
X158425233Y-68583763D01*
X158405220Y-68517787D01*
X158365193Y-68385836D01*
X158344920Y-68180000D01*
X158365193Y-67974164D01*
X158425233Y-67776238D01*
X158425233Y-67776237D01*
X158522733Y-67593828D01*
X158653946Y-67433946D01*
X158813828Y-67302733D01*
X158996237Y-67205233D01*
X159065693Y-67184164D01*
X159194164Y-67145193D01*
X159271293Y-67137597D01*
X159348420Y-67130000D01*
X159451580Y-67130000D01*
X159528707Y-67137597D01*
X159528707Y-67137597D01*
G37*
G36*
X162068707Y-67137597D02*
X162145836Y-67145193D01*
X162274307Y-67184164D01*
X162343763Y-67205233D01*
X162526172Y-67302733D01*
X162686054Y-67433946D01*
X162817267Y-67593828D01*
X162914767Y-67776237D01*
X162914767Y-67776238D01*
X162974807Y-67974164D01*
X162995080Y-68180000D01*
X162974807Y-68385836D01*
X162934780Y-68517787D01*
X162914767Y-68583763D01*
X162817267Y-68766172D01*
X162686054Y-68926054D01*
X162526172Y-69057267D01*
X162343763Y-69154767D01*
X162277787Y-69174780D01*
X162145836Y-69214807D01*
X162068707Y-69222404D01*
X161991580Y-69230000D01*
X161888420Y-69230000D01*
X161811293Y-69222404D01*
X161734164Y-69214807D01*
X161602213Y-69174780D01*
X161536237Y-69154767D01*
X161353828Y-69057267D01*
X161193946Y-68926054D01*
X161062733Y-68766172D01*
X160965233Y-68583763D01*
X160945220Y-68517787D01*
X160905193Y-68385836D01*
X160884920Y-68180000D01*
X160905193Y-67974164D01*
X160965233Y-67776238D01*
X160965233Y-67776237D01*
X161062733Y-67593828D01*
X161193946Y-67433946D01*
X161353828Y-67302733D01*
X161536237Y-67205233D01*
X161605693Y-67184164D01*
X161734164Y-67145193D01*
X161811293Y-67137597D01*
X161888420Y-67130000D01*
X161991580Y-67130000D01*
X162068707Y-67137597D01*
X162068707Y-67137597D01*
G37*
G36*
X138750000Y-69175000D02*
X136850000Y-69175000D01*
X136850000Y-60225000D01*
X138750000Y-60225000D01*
X138750000Y-69175000D01*
X138750000Y-69175000D01*
G37*
G36*
X127350000Y-69175000D02*
X125450000Y-69175000D01*
X125450000Y-60225000D01*
X127350000Y-60225000D01*
X127350000Y-69175000D01*
X127350000Y-69175000D01*
G37*
G36*
X121900000Y-68575000D02*
X120500000Y-68575000D01*
X120500000Y-66925000D01*
X121900000Y-66925000D01*
X121900000Y-68575000D01*
X121900000Y-68575000D01*
G37*
G36*
X119900000Y-68575000D02*
X118500000Y-68575000D01*
X118500000Y-66925000D01*
X119900000Y-66925000D01*
X119900000Y-68575000D01*
X119900000Y-68575000D01*
G37*
G36*
X149178707Y-66347597D02*
X149255836Y-66355193D01*
X149357571Y-66386054D01*
X149453763Y-66415233D01*
X149636172Y-66512733D01*
X149796054Y-66643946D01*
X149927267Y-66803828D01*
X150024767Y-66986237D01*
X150024767Y-66986238D01*
X150084807Y-67184164D01*
X150105080Y-67390000D01*
X150084807Y-67595836D01*
X150044780Y-67727787D01*
X150024767Y-67793763D01*
X149927267Y-67976172D01*
X149796054Y-68136054D01*
X149636172Y-68267267D01*
X149453763Y-68364767D01*
X149387787Y-68384780D01*
X149255836Y-68424807D01*
X149178707Y-68432404D01*
X149101580Y-68440000D01*
X148998420Y-68440000D01*
X148921293Y-68432404D01*
X148844164Y-68424807D01*
X148712213Y-68384780D01*
X148646237Y-68364767D01*
X148463828Y-68267267D01*
X148303946Y-68136054D01*
X148172733Y-67976172D01*
X148075233Y-67793763D01*
X148055220Y-67727787D01*
X148015193Y-67595836D01*
X147994920Y-67390000D01*
X148015193Y-67184164D01*
X148075233Y-66986238D01*
X148075233Y-66986237D01*
X148172733Y-66803828D01*
X148303946Y-66643946D01*
X148463828Y-66512733D01*
X148646237Y-66415233D01*
X148742429Y-66386054D01*
X148844164Y-66355193D01*
X148921293Y-66347597D01*
X148998420Y-66340000D01*
X149101580Y-66340000D01*
X149178707Y-66347597D01*
X149178707Y-66347597D01*
G37*
G36*
X151718707Y-66347597D02*
X151795836Y-66355193D01*
X151897571Y-66386054D01*
X151993763Y-66415233D01*
X152176172Y-66512733D01*
X152336054Y-66643946D01*
X152467267Y-66803828D01*
X152564767Y-66986237D01*
X152564767Y-66986238D01*
X152624807Y-67184164D01*
X152645080Y-67390000D01*
X152624807Y-67595836D01*
X152584780Y-67727787D01*
X152564767Y-67793763D01*
X152467267Y-67976172D01*
X152336054Y-68136054D01*
X152176172Y-68267267D01*
X151993763Y-68364767D01*
X151927787Y-68384780D01*
X151795836Y-68424807D01*
X151718707Y-68432404D01*
X151641580Y-68440000D01*
X151538420Y-68440000D01*
X151461293Y-68432404D01*
X151384164Y-68424807D01*
X151252213Y-68384780D01*
X151186237Y-68364767D01*
X151003828Y-68267267D01*
X150843946Y-68136054D01*
X150712733Y-67976172D01*
X150615233Y-67793763D01*
X150595220Y-67727787D01*
X150555193Y-67595836D01*
X150534920Y-67390000D01*
X150555193Y-67184164D01*
X150615233Y-66986238D01*
X150615233Y-66986237D01*
X150712733Y-66803828D01*
X150843946Y-66643946D01*
X151003828Y-66512733D01*
X151186237Y-66415233D01*
X151282429Y-66386054D01*
X151384164Y-66355193D01*
X151461293Y-66347597D01*
X151538420Y-66340000D01*
X151641580Y-66340000D01*
X151718707Y-66347597D01*
X151718707Y-66347597D01*
G37*
G36*
X102462224Y-65810128D02*
X102594175Y-65850155D01*
X102715781Y-65915155D01*
X102822370Y-66002630D01*
X102909845Y-66109219D01*
X102974845Y-66230825D01*
X103014872Y-66362776D01*
X103028387Y-66500000D01*
X103014872Y-66637224D01*
X102974845Y-66769175D01*
X102909845Y-66890781D01*
X102822370Y-66997370D01*
X102715781Y-67084845D01*
X102594175Y-67149845D01*
X102462224Y-67189872D01*
X102359390Y-67200000D01*
X101740610Y-67200000D01*
X101637776Y-67189872D01*
X101505825Y-67149845D01*
X101384219Y-67084845D01*
X101277630Y-66997370D01*
X101190155Y-66890781D01*
X101125155Y-66769175D01*
X101085128Y-66637224D01*
X101071613Y-66500000D01*
X101085128Y-66362776D01*
X101125155Y-66230825D01*
X101190155Y-66109219D01*
X101277630Y-66002630D01*
X101384219Y-65915155D01*
X101505825Y-65850155D01*
X101637776Y-65810128D01*
X101740610Y-65800000D01*
X102359390Y-65800000D01*
X102462224Y-65810128D01*
X102462224Y-65810128D01*
G37*
G36*
X134550000Y-67150000D02*
X129650000Y-67150000D01*
X129650000Y-62250000D01*
X134550000Y-62250000D01*
X134550000Y-67150000D01*
X134550000Y-67150000D01*
G37*
G36*
X159528707Y-64597596D02*
X159605836Y-64605193D01*
X159734307Y-64644164D01*
X159803763Y-64665233D01*
X159986172Y-64762733D01*
X160146054Y-64893946D01*
X160277267Y-65053828D01*
X160374767Y-65236237D01*
X160374767Y-65236238D01*
X160434807Y-65434164D01*
X160455080Y-65640000D01*
X160434807Y-65845836D01*
X160413779Y-65915155D01*
X160374767Y-66043763D01*
X160277267Y-66226172D01*
X160146054Y-66386054D01*
X159986172Y-66517267D01*
X159803763Y-66614767D01*
X159737787Y-66634780D01*
X159605836Y-66674807D01*
X159528707Y-66682403D01*
X159451580Y-66690000D01*
X159348420Y-66690000D01*
X159271293Y-66682403D01*
X159194164Y-66674807D01*
X159062213Y-66634780D01*
X158996237Y-66614767D01*
X158813828Y-66517267D01*
X158653946Y-66386054D01*
X158522733Y-66226172D01*
X158425233Y-66043763D01*
X158386221Y-65915155D01*
X158365193Y-65845836D01*
X158344920Y-65640000D01*
X158365193Y-65434164D01*
X158425233Y-65236238D01*
X158425233Y-65236237D01*
X158522733Y-65053828D01*
X158653946Y-64893946D01*
X158813828Y-64762733D01*
X158996237Y-64665233D01*
X159065693Y-64644164D01*
X159194164Y-64605193D01*
X159271293Y-64597596D01*
X159348420Y-64590000D01*
X159451580Y-64590000D01*
X159528707Y-64597596D01*
X159528707Y-64597596D01*
G37*
G36*
X162068707Y-64597596D02*
X162145836Y-64605193D01*
X162274307Y-64644164D01*
X162343763Y-64665233D01*
X162526172Y-64762733D01*
X162686054Y-64893946D01*
X162817267Y-65053828D01*
X162914767Y-65236237D01*
X162914767Y-65236238D01*
X162974807Y-65434164D01*
X162995080Y-65640000D01*
X162974807Y-65845836D01*
X162953779Y-65915155D01*
X162914767Y-66043763D01*
X162817267Y-66226172D01*
X162686054Y-66386054D01*
X162526172Y-66517267D01*
X162343763Y-66614767D01*
X162277787Y-66634780D01*
X162145836Y-66674807D01*
X162068707Y-66682403D01*
X161991580Y-66690000D01*
X161888420Y-66690000D01*
X161811293Y-66682403D01*
X161734164Y-66674807D01*
X161602213Y-66634780D01*
X161536237Y-66614767D01*
X161353828Y-66517267D01*
X161193946Y-66386054D01*
X161062733Y-66226172D01*
X160965233Y-66043763D01*
X160926221Y-65915155D01*
X160905193Y-65845836D01*
X160884920Y-65640000D01*
X160905193Y-65434164D01*
X160965233Y-65236238D01*
X160965233Y-65236237D01*
X161062733Y-65053828D01*
X161193946Y-64893946D01*
X161353828Y-64762733D01*
X161536237Y-64665233D01*
X161605693Y-64644164D01*
X161734164Y-64605193D01*
X161811293Y-64597596D01*
X161888420Y-64590000D01*
X161991580Y-64590000D01*
X162068707Y-64597596D01*
X162068707Y-64597596D01*
G37*
G36*
X111450000Y-66400000D02*
X110150000Y-66400000D01*
X110150000Y-63500000D01*
X111450000Y-63500000D01*
X111450000Y-66400000D01*
X111450000Y-66400000D01*
G37*
G36*
X108550000Y-66400000D02*
X107250000Y-66400000D01*
X107250000Y-63500000D01*
X108550000Y-63500000D01*
X108550000Y-66400000D01*
X108550000Y-66400000D01*
G37*
G36*
X104882322Y-59684767D02*
X105009560Y-59723364D01*
X105126823Y-59786042D01*
X105178214Y-59828218D01*
X105229604Y-59870392D01*
X105229606Y-59870395D01*
X105313958Y-59973176D01*
X105376636Y-60090439D01*
X105415233Y-60217677D01*
X105425000Y-60316841D01*
X105425000Y-60683158D01*
X105415233Y-60782322D01*
X105376636Y-60909561D01*
X105313958Y-61026824D01*
X105257431Y-61095701D01*
X105243817Y-61116076D01*
X105234439Y-61138715D01*
X105229659Y-61162748D01*
X105229659Y-61187252D01*
X105234440Y-61211286D01*
X105243817Y-61233925D01*
X105257431Y-61254299D01*
X105274758Y-61271626D01*
X105295133Y-61285240D01*
X105317772Y-61294618D01*
X105354057Y-61300000D01*
X105625000Y-61300000D01*
X105625000Y-64700000D01*
X105354057Y-64700000D01*
X105329671Y-64702402D01*
X105306222Y-64709515D01*
X105284611Y-64721066D01*
X105265669Y-64736612D01*
X105250123Y-64755554D01*
X105238572Y-64777165D01*
X105231459Y-64800614D01*
X105229057Y-64825000D01*
X105231459Y-64849386D01*
X105238572Y-64872835D01*
X105257430Y-64904298D01*
X105313958Y-64973176D01*
X105376636Y-65090439D01*
X105415233Y-65217677D01*
X105425000Y-65316841D01*
X105425000Y-65683158D01*
X105415233Y-65782322D01*
X105376636Y-65909561D01*
X105313958Y-66026824D01*
X105229606Y-66129606D01*
X105126824Y-66213958D01*
X105009561Y-66276636D01*
X104882323Y-66315233D01*
X104750000Y-66328266D01*
X104617678Y-66315233D01*
X104490440Y-66276636D01*
X104373177Y-66213958D01*
X104321786Y-66171782D01*
X104270396Y-66129608D01*
X104253663Y-66109219D01*
X104186042Y-66026824D01*
X104123364Y-65909561D01*
X104084767Y-65782323D01*
X104075000Y-65683159D01*
X104075000Y-65316842D01*
X104084767Y-65217678D01*
X104123364Y-65090440D01*
X104186042Y-64973177D01*
X104242570Y-64904298D01*
X104256184Y-64883924D01*
X104265561Y-64861285D01*
X104270341Y-64837251D01*
X104270341Y-64812747D01*
X104265560Y-64788713D01*
X104256183Y-64766074D01*
X104242569Y-64745700D01*
X104225241Y-64728373D01*
X104204867Y-64714759D01*
X104182228Y-64705382D01*
X104145943Y-64700000D01*
X103875000Y-64700000D01*
X103875000Y-61300000D01*
X104145943Y-61300000D01*
X104170329Y-61297598D01*
X104193778Y-61290485D01*
X104215389Y-61278934D01*
X104234331Y-61263388D01*
X104249877Y-61244446D01*
X104261428Y-61222835D01*
X104268541Y-61199386D01*
X104270943Y-61175000D01*
X104268541Y-61150614D01*
X104261428Y-61127165D01*
X104242569Y-61095701D01*
X104233401Y-61084529D01*
X104186042Y-61026824D01*
X104123364Y-60909561D01*
X104084767Y-60782323D01*
X104075000Y-60683159D01*
X104075000Y-60316842D01*
X104084767Y-60217678D01*
X104123364Y-60090440D01*
X104186042Y-59973177D01*
X104254304Y-59890000D01*
X104270392Y-59870396D01*
X104290474Y-59853915D01*
X104373176Y-59786042D01*
X104490439Y-59723364D01*
X104617677Y-59684767D01*
X104750000Y-59671734D01*
X104882322Y-59684767D01*
X104882322Y-59684767D01*
G37*
G36*
X151718707Y-63807596D02*
X151795836Y-63815193D01*
X151927787Y-63855220D01*
X151993763Y-63875233D01*
X152176172Y-63972733D01*
X152336054Y-64103946D01*
X152467267Y-64263828D01*
X152564767Y-64446237D01*
X152584780Y-64512213D01*
X152624807Y-64644164D01*
X152645080Y-64850000D01*
X152624807Y-65055836D01*
X152614310Y-65090439D01*
X152564767Y-65253763D01*
X152467267Y-65436172D01*
X152336054Y-65596054D01*
X152176172Y-65727267D01*
X151993763Y-65824767D01*
X151927787Y-65844780D01*
X151795836Y-65884807D01*
X151718707Y-65892403D01*
X151641580Y-65900000D01*
X151538420Y-65900000D01*
X151461293Y-65892403D01*
X151384164Y-65884807D01*
X151252213Y-65844780D01*
X151186237Y-65824767D01*
X151003828Y-65727267D01*
X150843946Y-65596054D01*
X150712733Y-65436172D01*
X150615233Y-65253763D01*
X150565690Y-65090439D01*
X150555193Y-65055836D01*
X150534920Y-64850000D01*
X150555193Y-64644164D01*
X150595220Y-64512213D01*
X150615233Y-64446237D01*
X150712733Y-64263828D01*
X150843946Y-64103946D01*
X151003828Y-63972733D01*
X151186237Y-63875233D01*
X151252213Y-63855220D01*
X151384164Y-63815193D01*
X151461293Y-63807596D01*
X151538420Y-63800000D01*
X151641580Y-63800000D01*
X151718707Y-63807596D01*
X151718707Y-63807596D01*
G37*
G36*
X150100000Y-65900000D02*
X148000000Y-65900000D01*
X148000000Y-63800000D01*
X150100000Y-63800000D01*
X150100000Y-65900000D01*
X150100000Y-65900000D01*
G37*
G36*
X122650000Y-65550000D02*
X120850000Y-65550000D01*
X120850000Y-62250000D01*
X122650000Y-62250000D01*
X122650000Y-65550000D01*
X122650000Y-65550000D01*
G37*
G36*
X120450000Y-65550000D02*
X118650000Y-65550000D01*
X118650000Y-62250000D01*
X120450000Y-62250000D01*
X120450000Y-65550000D01*
X120450000Y-65550000D01*
G37*
G36*
X160450000Y-64150000D02*
X158350000Y-64150000D01*
X158350000Y-62050000D01*
X160450000Y-62050000D01*
X160450000Y-64150000D01*
X160450000Y-64150000D01*
G37*
G36*
X162068707Y-62057597D02*
X162145836Y-62065193D01*
X162277787Y-62105220D01*
X162343763Y-62125233D01*
X162526172Y-62222733D01*
X162686054Y-62353946D01*
X162817267Y-62513828D01*
X162914767Y-62696237D01*
X162934780Y-62762213D01*
X162974807Y-62894164D01*
X162995080Y-63100000D01*
X162974807Y-63305836D01*
X162953826Y-63375000D01*
X162914767Y-63503763D01*
X162817267Y-63686172D01*
X162686054Y-63846054D01*
X162526172Y-63977267D01*
X162343763Y-64074767D01*
X162277787Y-64094780D01*
X162145836Y-64134807D01*
X162068707Y-64142403D01*
X161991580Y-64150000D01*
X161888420Y-64150000D01*
X161811293Y-64142403D01*
X161734164Y-64134807D01*
X161602213Y-64094780D01*
X161536237Y-64074767D01*
X161353828Y-63977267D01*
X161193946Y-63846054D01*
X161062733Y-63686172D01*
X160965233Y-63503763D01*
X160926174Y-63375000D01*
X160905193Y-63305836D01*
X160884920Y-63100000D01*
X160905193Y-62894164D01*
X160945220Y-62762213D01*
X160965233Y-62696237D01*
X161062733Y-62513828D01*
X161193946Y-62353946D01*
X161353828Y-62222733D01*
X161536237Y-62125233D01*
X161602213Y-62105220D01*
X161734164Y-62065193D01*
X161811293Y-62057597D01*
X161888420Y-62050000D01*
X161991580Y-62050000D01*
X162068707Y-62057597D01*
X162068707Y-62057597D01*
G37*
G36*
X110700000Y-63125000D02*
X109300000Y-63125000D01*
X109300000Y-61475000D01*
X110700000Y-61475000D01*
X110700000Y-63125000D01*
X110700000Y-63125000D01*
G37*
G36*
X112700000Y-63125000D02*
X111300000Y-63125000D01*
X111300000Y-61475000D01*
X112700000Y-61475000D01*
X112700000Y-63125000D01*
X112700000Y-63125000D01*
G37*
G36*
X141625000Y-62600000D02*
X139975000Y-62600000D01*
X139975000Y-61200000D01*
X141625000Y-61200000D01*
X141625000Y-62600000D01*
X141625000Y-62600000D01*
G37*
G36*
X119800000Y-61025000D02*
X118400000Y-61025000D01*
X118400000Y-59375000D01*
X119800000Y-59375000D01*
X119800000Y-61025000D01*
X119800000Y-61025000D01*
G37*
G36*
X121800000Y-61025000D02*
X120400000Y-61025000D01*
X120400000Y-59375000D01*
X121800000Y-59375000D01*
X121800000Y-61025000D01*
X121800000Y-61025000D01*
G37*
G36*
X151718707Y-58847597D02*
X151795836Y-58855193D01*
X151927787Y-58895220D01*
X151993763Y-58915233D01*
X152176172Y-59012733D01*
X152336054Y-59143946D01*
X152467267Y-59303828D01*
X152564767Y-59486237D01*
X152564767Y-59486238D01*
X152624807Y-59684164D01*
X152645080Y-59890000D01*
X152624807Y-60095836D01*
X152585626Y-60225000D01*
X152564767Y-60293763D01*
X152467267Y-60476172D01*
X152336054Y-60636054D01*
X152176172Y-60767267D01*
X151993763Y-60864767D01*
X151927787Y-60884780D01*
X151795836Y-60924807D01*
X151718707Y-60932404D01*
X151641580Y-60940000D01*
X151538420Y-60940000D01*
X151461293Y-60932404D01*
X151384164Y-60924807D01*
X151252213Y-60884780D01*
X151186237Y-60864767D01*
X151003828Y-60767267D01*
X150843946Y-60636054D01*
X150712733Y-60476172D01*
X150615233Y-60293763D01*
X150594374Y-60225000D01*
X150555193Y-60095836D01*
X150534920Y-59890000D01*
X150555193Y-59684164D01*
X150615233Y-59486238D01*
X150615233Y-59486237D01*
X150712733Y-59303828D01*
X150843946Y-59143946D01*
X151003828Y-59012733D01*
X151186237Y-58915233D01*
X151252213Y-58895220D01*
X151384164Y-58855193D01*
X151461293Y-58847597D01*
X151538420Y-58840000D01*
X151641580Y-58840000D01*
X151718707Y-58847597D01*
X151718707Y-58847597D01*
G37*
G36*
X149178707Y-58847597D02*
X149255836Y-58855193D01*
X149387787Y-58895220D01*
X149453763Y-58915233D01*
X149636172Y-59012733D01*
X149796054Y-59143946D01*
X149927267Y-59303828D01*
X150024767Y-59486237D01*
X150024767Y-59486238D01*
X150084807Y-59684164D01*
X150105080Y-59890000D01*
X150084807Y-60095836D01*
X150045626Y-60225000D01*
X150024767Y-60293763D01*
X149927267Y-60476172D01*
X149796054Y-60636054D01*
X149636172Y-60767267D01*
X149453763Y-60864767D01*
X149387787Y-60884780D01*
X149255836Y-60924807D01*
X149178707Y-60932404D01*
X149101580Y-60940000D01*
X148998420Y-60940000D01*
X148921293Y-60932404D01*
X148844164Y-60924807D01*
X148712213Y-60884780D01*
X148646237Y-60864767D01*
X148463828Y-60767267D01*
X148303946Y-60636054D01*
X148172733Y-60476172D01*
X148075233Y-60293763D01*
X148054374Y-60225000D01*
X148015193Y-60095836D01*
X147994920Y-59890000D01*
X148015193Y-59684164D01*
X148075233Y-59486238D01*
X148075233Y-59486237D01*
X148172733Y-59303828D01*
X148303946Y-59143946D01*
X148463828Y-59012733D01*
X148646237Y-58915233D01*
X148712213Y-58895220D01*
X148844164Y-58855193D01*
X148921293Y-58847597D01*
X148998420Y-58840000D01*
X149101580Y-58840000D01*
X149178707Y-58847597D01*
X149178707Y-58847597D01*
G37*
G36*
X141625000Y-60600000D02*
X139975000Y-60600000D01*
X139975000Y-59200000D01*
X141625000Y-59200000D01*
X141625000Y-60600000D01*
X141625000Y-60600000D01*
G37*
G36*
X102462224Y-58810128D02*
X102594175Y-58850155D01*
X102715781Y-58915155D01*
X102822370Y-59002630D01*
X102909845Y-59109219D01*
X102974845Y-59230825D01*
X103014872Y-59362776D01*
X103028387Y-59500000D01*
X103014872Y-59637224D01*
X102974845Y-59769175D01*
X102909845Y-59890781D01*
X102822370Y-59997370D01*
X102715781Y-60084845D01*
X102594175Y-60149845D01*
X102462224Y-60189872D01*
X102359390Y-60200000D01*
X101740610Y-60200000D01*
X101637776Y-60189872D01*
X101505825Y-60149845D01*
X101384219Y-60084845D01*
X101277630Y-59997370D01*
X101190155Y-59890781D01*
X101125155Y-59769175D01*
X101085128Y-59637224D01*
X101071613Y-59500000D01*
X101085128Y-59362776D01*
X101125155Y-59230825D01*
X101190155Y-59109219D01*
X101277630Y-59002630D01*
X101384219Y-58915155D01*
X101505825Y-58850155D01*
X101637776Y-58810128D01*
X101740610Y-58800000D01*
X102359390Y-58800000D01*
X102462224Y-58810128D01*
X102462224Y-58810128D01*
G37*
G36*
X136575000Y-59950000D02*
X127625000Y-59950000D01*
X127625000Y-58050000D01*
X136575000Y-58050000D01*
X136575000Y-59950000D01*
X136575000Y-59950000D01*
G37*
G36*
X110840000Y-59520000D02*
X107840000Y-59520000D01*
X107840000Y-57520000D01*
X110840000Y-57520000D01*
X110840000Y-59520000D01*
X110840000Y-59520000D01*
G37*
G36*
X114440000Y-59520000D02*
X111440000Y-59520000D01*
X111440000Y-57520000D01*
X114440000Y-57520000D01*
X114440000Y-59520000D01*
X114440000Y-59520000D01*
G37*
G36*
X151718707Y-56307596D02*
X151795836Y-56315193D01*
X151927787Y-56355220D01*
X151993763Y-56375233D01*
X152176172Y-56472733D01*
X152336054Y-56603946D01*
X152467267Y-56763828D01*
X152564767Y-56946237D01*
X152564767Y-56946238D01*
X152624807Y-57144164D01*
X152645080Y-57350000D01*
X152624807Y-57555836D01*
X152584780Y-57687787D01*
X152564767Y-57753763D01*
X152467267Y-57936172D01*
X152336054Y-58096054D01*
X152176172Y-58227267D01*
X151993763Y-58324767D01*
X151927787Y-58344780D01*
X151795836Y-58384807D01*
X151718707Y-58392403D01*
X151641580Y-58400000D01*
X151538420Y-58400000D01*
X151461293Y-58392403D01*
X151384164Y-58384807D01*
X151252213Y-58344780D01*
X151186237Y-58324767D01*
X151003828Y-58227267D01*
X150843946Y-58096054D01*
X150712733Y-57936172D01*
X150615233Y-57753763D01*
X150595220Y-57687787D01*
X150555193Y-57555836D01*
X150534920Y-57350000D01*
X150555193Y-57144164D01*
X150615233Y-56946238D01*
X150615233Y-56946237D01*
X150712733Y-56763828D01*
X150843946Y-56603946D01*
X151003828Y-56472733D01*
X151186237Y-56375233D01*
X151252213Y-56355220D01*
X151384164Y-56315193D01*
X151461293Y-56307596D01*
X151538420Y-56300000D01*
X151641580Y-56300000D01*
X151718707Y-56307596D01*
X151718707Y-56307596D01*
G37*
G36*
X150100000Y-58400000D02*
X148000000Y-58400000D01*
X148000000Y-56300000D01*
X150100000Y-56300000D01*
X150100000Y-58400000D01*
X150100000Y-58400000D01*
G37*
G36*
X121000000Y-58050000D02*
X119900000Y-58050000D01*
X119900000Y-56350000D01*
X121000000Y-56350000D01*
X121000000Y-58050000D01*
X121000000Y-58050000D01*
G37*
G36*
X122900000Y-58050000D02*
X121800000Y-58050000D01*
X121800000Y-56350000D01*
X122900000Y-56350000D01*
X122900000Y-58050000D01*
X122900000Y-58050000D01*
G37*
G36*
X126125000Y-57450000D02*
X124475000Y-57450000D01*
X124475000Y-56050000D01*
X126125000Y-56050000D01*
X126125000Y-57450000D01*
X126125000Y-57450000D01*
G37*
G36*
X145350000Y-57350000D02*
X143850000Y-57350000D01*
X143850000Y-55850000D01*
X145350000Y-55850000D01*
X145350000Y-57350000D01*
X145350000Y-57350000D01*
G37*
G36*
X142550000Y-57350000D02*
X141050000Y-57350000D01*
X141050000Y-55850000D01*
X142550000Y-55850000D01*
X142550000Y-57350000D01*
X142550000Y-57350000D01*
G37*
G36*
X106000000Y-56600000D02*
X104100000Y-56600000D01*
X104100000Y-54900000D01*
X106000000Y-54900000D01*
X106000000Y-56600000D01*
X106000000Y-56600000D01*
G37*
G36*
X103300000Y-56600000D02*
X101400000Y-56600000D01*
X101400000Y-54900000D01*
X103300000Y-54900000D01*
X103300000Y-56600000D01*
X103300000Y-56600000D01*
G37*
G36*
X136750000Y-56200000D02*
X135050000Y-56200000D01*
X135050000Y-55100000D01*
X136750000Y-55100000D01*
X136750000Y-56200000D01*
X136750000Y-56200000D01*
G37*
G36*
X134650000Y-56200000D02*
X132950000Y-56200000D01*
X132950000Y-55100000D01*
X134650000Y-55100000D01*
X134650000Y-56200000D01*
X134650000Y-56200000D01*
G37*
G36*
X138450000Y-55600000D02*
X137150000Y-55600000D01*
X137150000Y-54700000D01*
X138450000Y-54700000D01*
X138450000Y-55600000D01*
X138450000Y-55600000D01*
G37*
G36*
X132500000Y-55600000D02*
X131200000Y-55600000D01*
X131200000Y-54700000D01*
X132500000Y-54700000D01*
X132500000Y-55600000D01*
X132500000Y-55600000D01*
G37*
G36*
X126125000Y-55450000D02*
X124475000Y-55450000D01*
X124475000Y-54050000D01*
X126125000Y-54050000D01*
X126125000Y-55450000D01*
X126125000Y-55450000D01*
G37*
G36*
X111950000Y-54950000D02*
X108750000Y-54950000D01*
X108750000Y-53650000D01*
X111950000Y-53650000D01*
X111950000Y-54950000D01*
X111950000Y-54950000D01*
G37*
G36*
X123500000Y-54950000D02*
X122000000Y-54950000D01*
X122000000Y-53450000D01*
X123500000Y-53450000D01*
X123500000Y-54950000D01*
X123500000Y-54950000D01*
G37*
G36*
X120700000Y-54950000D02*
X119200000Y-54950000D01*
X119200000Y-53450000D01*
X120700000Y-53450000D01*
X120700000Y-54950000D01*
X120700000Y-54950000D01*
G37*
G36*
X145350000Y-54450000D02*
X144050000Y-54450000D01*
X144050000Y-52350000D01*
X145350000Y-52350000D01*
X145350000Y-54450000D01*
X145350000Y-54450000D01*
G37*
G36*
X142450000Y-54450000D02*
X141150000Y-54450000D01*
X141150000Y-52350000D01*
X142450000Y-52350000D01*
X142450000Y-54450000D01*
X142450000Y-54450000D01*
G37*
G36*
X134650000Y-54300000D02*
X132950000Y-54300000D01*
X132950000Y-53200000D01*
X134650000Y-53200000D01*
X134650000Y-54300000D01*
X134650000Y-54300000D01*
G37*
G36*
X136750000Y-54300000D02*
X135050000Y-54300000D01*
X135050000Y-53200000D01*
X136750000Y-53200000D01*
X136750000Y-54300000D01*
X136750000Y-54300000D01*
G37*
G36*
X132500000Y-54100000D02*
X131200000Y-54100000D01*
X131200000Y-53200000D01*
X132500000Y-53200000D01*
X132500000Y-54100000D01*
X132500000Y-54100000D01*
G37*
G36*
X138450000Y-54100000D02*
X137150000Y-54100000D01*
X137150000Y-53200000D01*
X138450000Y-53200000D01*
X138450000Y-54100000D01*
X138450000Y-54100000D01*
G37*
G36*
X151450000Y-53375000D02*
X150050000Y-53375000D01*
X150050000Y-51725000D01*
X151450000Y-51725000D01*
X151450000Y-53375000D01*
X151450000Y-53375000D01*
G37*
G36*
X149450000Y-53375000D02*
X148050000Y-53375000D01*
X148050000Y-51725000D01*
X149450000Y-51725000D01*
X149450000Y-53375000D01*
X149450000Y-53375000D01*
G37*
G36*
X111950000Y-53250000D02*
X108750000Y-53250000D01*
X108750000Y-51950000D01*
X111950000Y-51950000D01*
X111950000Y-53250000D01*
X111950000Y-53250000D01*
G37*
G36*
X117898707Y-48997597D02*
X117975836Y-49005193D01*
X118107787Y-49045220D01*
X118173763Y-49065233D01*
X118356172Y-49162733D01*
X118516054Y-49293946D01*
X118647267Y-49453828D01*
X118744767Y-49636237D01*
X118744767Y-49636238D01*
X118804807Y-49834164D01*
X118825080Y-50040000D01*
X118804807Y-50245836D01*
X118772068Y-50353762D01*
X118744767Y-50443763D01*
X118647267Y-50626172D01*
X118516054Y-50786054D01*
X118356172Y-50917267D01*
X118173763Y-51014767D01*
X118107787Y-51034780D01*
X117975836Y-51074807D01*
X117898707Y-51082404D01*
X117821580Y-51090000D01*
X117718420Y-51090000D01*
X117641293Y-51082404D01*
X117564164Y-51074807D01*
X117432213Y-51034780D01*
X117366237Y-51014767D01*
X117183828Y-50917267D01*
X117023946Y-50786054D01*
X116892733Y-50626172D01*
X116795233Y-50443763D01*
X116767932Y-50353762D01*
X116735193Y-50245836D01*
X116714920Y-50040000D01*
X116735193Y-49834164D01*
X116795233Y-49636238D01*
X116795233Y-49636237D01*
X116892733Y-49453828D01*
X117023946Y-49293946D01*
X117183828Y-49162733D01*
X117366237Y-49065233D01*
X117432213Y-49045220D01*
X117564164Y-49005193D01*
X117641293Y-48997597D01*
X117718420Y-48990000D01*
X117821580Y-48990000D01*
X117898707Y-48997597D01*
X117898707Y-48997597D01*
G37*
G36*
X125900000Y-51000000D02*
X123800000Y-51000000D01*
X123800000Y-48900000D01*
X125900000Y-48900000D01*
X125900000Y-51000000D01*
X125900000Y-51000000D01*
G37*
G36*
X130058707Y-48907597D02*
X130135836Y-48915193D01*
X130267787Y-48955220D01*
X130333763Y-48975233D01*
X130516172Y-49072733D01*
X130676054Y-49203946D01*
X130807267Y-49363828D01*
X130904767Y-49546237D01*
X130911272Y-49567681D01*
X130964807Y-49744164D01*
X130985080Y-49950000D01*
X130964807Y-50155836D01*
X130949156Y-50207431D01*
X130904767Y-50353763D01*
X130807267Y-50536172D01*
X130676054Y-50696054D01*
X130516172Y-50827267D01*
X130333763Y-50924767D01*
X130267787Y-50944780D01*
X130135836Y-50984807D01*
X130058707Y-50992404D01*
X129981580Y-51000000D01*
X129878420Y-51000000D01*
X129801293Y-50992404D01*
X129724164Y-50984807D01*
X129592213Y-50944780D01*
X129526237Y-50924767D01*
X129343828Y-50827267D01*
X129183946Y-50696054D01*
X129052733Y-50536172D01*
X128955233Y-50353763D01*
X128910844Y-50207431D01*
X128895193Y-50155836D01*
X128874920Y-49950000D01*
X128895193Y-49744164D01*
X128948728Y-49567681D01*
X128955233Y-49546237D01*
X129052733Y-49363828D01*
X129183946Y-49203946D01*
X129343828Y-49072733D01*
X129526237Y-48975233D01*
X129592213Y-48955220D01*
X129724164Y-48915193D01*
X129801293Y-48907597D01*
X129878420Y-48900000D01*
X129981580Y-48900000D01*
X130058707Y-48907597D01*
X130058707Y-48907597D01*
G37*
G36*
X127518707Y-48907597D02*
X127595836Y-48915193D01*
X127727787Y-48955220D01*
X127793763Y-48975233D01*
X127976172Y-49072733D01*
X128136054Y-49203946D01*
X128267267Y-49363828D01*
X128364767Y-49546237D01*
X128371272Y-49567681D01*
X128424807Y-49744164D01*
X128445080Y-49950000D01*
X128424807Y-50155836D01*
X128409156Y-50207431D01*
X128364767Y-50353763D01*
X128267267Y-50536172D01*
X128136054Y-50696054D01*
X127976172Y-50827267D01*
X127793763Y-50924767D01*
X127727787Y-50944780D01*
X127595836Y-50984807D01*
X127518707Y-50992404D01*
X127441580Y-51000000D01*
X127338420Y-51000000D01*
X127261293Y-50992404D01*
X127184164Y-50984807D01*
X127052213Y-50944780D01*
X126986237Y-50924767D01*
X126803828Y-50827267D01*
X126643946Y-50696054D01*
X126512733Y-50536172D01*
X126415233Y-50353763D01*
X126370844Y-50207431D01*
X126355193Y-50155836D01*
X126334920Y-49950000D01*
X126355193Y-49744164D01*
X126408728Y-49567681D01*
X126415233Y-49546237D01*
X126512733Y-49363828D01*
X126643946Y-49203946D01*
X126803828Y-49072733D01*
X126986237Y-48975233D01*
X127052213Y-48955220D01*
X127184164Y-48915193D01*
X127261293Y-48907597D01*
X127338420Y-48900000D01*
X127441580Y-48900000D01*
X127518707Y-48907597D01*
X127518707Y-48907597D01*
G37*
G36*
X104568793Y-47124937D02*
X104923670Y-47271932D01*
X105243055Y-47485338D01*
X105514662Y-47756945D01*
X105728068Y-48076330D01*
X105875063Y-48431207D01*
X105950000Y-48807940D01*
X105950000Y-49192060D01*
X105875063Y-49568793D01*
X105728068Y-49923670D01*
X105514662Y-50243055D01*
X105243055Y-50514662D01*
X104923670Y-50728068D01*
X104568793Y-50875063D01*
X104192060Y-50950000D01*
X103807940Y-50950000D01*
X103431207Y-50875063D01*
X103076330Y-50728068D01*
X102756945Y-50514662D01*
X102485338Y-50243055D01*
X102271932Y-49923670D01*
X102124937Y-49568793D01*
X102050000Y-49192060D01*
X102050000Y-48807940D01*
X102124937Y-48431207D01*
X102271932Y-48076330D01*
X102485338Y-47756945D01*
X102756945Y-47485338D01*
X103076330Y-47271932D01*
X103431207Y-47124937D01*
X103807940Y-47050000D01*
X104192060Y-47050000D01*
X104568793Y-47124937D01*
X104568793Y-47124937D01*
G37*
G36*
X161578793Y-47114937D02*
X161933670Y-47261932D01*
X162253055Y-47475338D01*
X162524662Y-47746945D01*
X162738068Y-48066330D01*
X162885063Y-48421207D01*
X162960000Y-48797940D01*
X162960000Y-49182060D01*
X162885063Y-49558793D01*
X162738068Y-49913670D01*
X162524662Y-50233055D01*
X162253055Y-50504662D01*
X161933670Y-50718068D01*
X161578793Y-50865063D01*
X161202060Y-50940000D01*
X160817940Y-50940000D01*
X160441207Y-50865063D01*
X160086330Y-50718068D01*
X159766945Y-50504662D01*
X159495338Y-50233055D01*
X159281932Y-49913670D01*
X159134937Y-49558793D01*
X159060000Y-49182060D01*
X159060000Y-48797940D01*
X159134937Y-48421207D01*
X159281932Y-48066330D01*
X159495338Y-47746945D01*
X159766945Y-47475338D01*
X160086330Y-47261932D01*
X160441207Y-47114937D01*
X160817940Y-47040000D01*
X161202060Y-47040000D01*
X161578793Y-47114937D01*
X161578793Y-47114937D01*
G37*
G36*
X111300000Y-50900000D02*
X109700000Y-50900000D01*
X109700000Y-49300000D01*
X111300000Y-49300000D01*
X111300000Y-50900000D01*
X111300000Y-50900000D01*
G37*
G36*
X109200000Y-50900000D02*
X107600000Y-50900000D01*
X107600000Y-49300000D01*
X109200000Y-49300000D01*
X109200000Y-50900000D01*
X109200000Y-50900000D01*
G37*
G36*
X113400000Y-50900000D02*
X111800000Y-50900000D01*
X111800000Y-49300000D01*
X113400000Y-49300000D01*
X113400000Y-50900000D01*
X113400000Y-50900000D01*
G37*
G36*
X143050000Y-49095943D02*
X143052402Y-49120329D01*
X143059515Y-49143778D01*
X143071066Y-49165389D01*
X143086612Y-49184331D01*
X143105554Y-49199877D01*
X143127165Y-49211428D01*
X143150614Y-49218541D01*
X143175000Y-49220943D01*
X143199386Y-49218541D01*
X143222835Y-49211428D01*
X143254297Y-49192570D01*
X143323176Y-49136042D01*
X143440439Y-49073364D01*
X143567677Y-49034767D01*
X143666841Y-49025000D01*
X144033159Y-49025000D01*
X144132323Y-49034767D01*
X144259561Y-49073364D01*
X144376824Y-49136042D01*
X144479606Y-49220394D01*
X144563958Y-49323176D01*
X144626636Y-49440439D01*
X144665233Y-49567677D01*
X144678266Y-49700000D01*
X144665233Y-49832323D01*
X144626636Y-49959561D01*
X144563958Y-50076824D01*
X144479606Y-50179606D01*
X144376824Y-50263958D01*
X144259561Y-50326636D01*
X144132323Y-50365233D01*
X144033159Y-50375000D01*
X143666841Y-50375000D01*
X143567677Y-50365233D01*
X143440439Y-50326636D01*
X143323176Y-50263958D01*
X143254296Y-50207429D01*
X143233924Y-50193817D01*
X143211285Y-50184439D01*
X143187252Y-50179659D01*
X143162748Y-50179659D01*
X143138714Y-50184440D01*
X143116075Y-50193817D01*
X143095701Y-50207431D01*
X143078374Y-50224758D01*
X143064760Y-50245133D01*
X143055382Y-50267772D01*
X143050000Y-50304057D01*
X143050000Y-50575000D01*
X139650000Y-50575000D01*
X139650000Y-50304057D01*
X139647598Y-50279671D01*
X139640485Y-50256222D01*
X139628934Y-50234611D01*
X139613388Y-50215669D01*
X139594446Y-50200123D01*
X139572835Y-50188572D01*
X139549386Y-50181459D01*
X139525000Y-50179057D01*
X139500614Y-50181459D01*
X139477165Y-50188572D01*
X139445703Y-50207430D01*
X139376824Y-50263958D01*
X139259561Y-50326636D01*
X139132323Y-50365233D01*
X139033159Y-50375000D01*
X138666841Y-50375000D01*
X138567677Y-50365233D01*
X138440439Y-50326636D01*
X138323176Y-50263958D01*
X138220394Y-50179606D01*
X138136042Y-50076824D01*
X138073364Y-49959561D01*
X138034767Y-49832323D01*
X138021734Y-49700000D01*
X138034767Y-49567677D01*
X138073364Y-49440439D01*
X138136042Y-49323176D01*
X138220394Y-49220394D01*
X138323176Y-49136042D01*
X138440439Y-49073364D01*
X138567677Y-49034767D01*
X138666841Y-49025000D01*
X139033159Y-49025000D01*
X139132323Y-49034767D01*
X139259561Y-49073364D01*
X139376824Y-49136042D01*
X139445704Y-49192571D01*
X139466076Y-49206183D01*
X139488715Y-49215561D01*
X139512748Y-49220341D01*
X139537252Y-49220341D01*
X139561286Y-49215560D01*
X139583925Y-49206183D01*
X139604299Y-49192569D01*
X139621626Y-49175242D01*
X139635240Y-49154867D01*
X139644618Y-49132228D01*
X139650000Y-49095943D01*
X139650000Y-48825000D01*
X143050000Y-48825000D01*
X143050000Y-49095943D01*
X143050000Y-49095943D01*
G37*
G36*
X135700000Y-50500000D02*
X134000000Y-50500000D01*
X134000000Y-48600000D01*
X135700000Y-48600000D01*
X135700000Y-50500000D01*
X135700000Y-50500000D01*
G37*
G36*
X153300000Y-49400000D02*
X150300000Y-49400000D01*
X150300000Y-47400000D01*
X153300000Y-47400000D01*
X153300000Y-49400000D01*
X153300000Y-49400000D01*
G37*
G36*
X149700000Y-49400000D02*
X146700000Y-49400000D01*
X146700000Y-47400000D01*
X149700000Y-47400000D01*
X149700000Y-49400000D01*
X149700000Y-49400000D01*
G37*
G36*
X111300000Y-48700000D02*
X109700000Y-48700000D01*
X109700000Y-47100000D01*
X111300000Y-47100000D01*
X111300000Y-48700000D01*
X111300000Y-48700000D01*
G37*
G36*
X109200000Y-48700000D02*
X107600000Y-48700000D01*
X107600000Y-47100000D01*
X109200000Y-47100000D01*
X109200000Y-48700000D01*
X109200000Y-48700000D01*
G37*
G36*
X113400000Y-48700000D02*
X111800000Y-48700000D01*
X111800000Y-47100000D01*
X113400000Y-47100000D01*
X113400000Y-48700000D01*
X113400000Y-48700000D01*
G37*
G36*
X118820000Y-48550000D02*
X116720000Y-48550000D01*
X116720000Y-46450000D01*
X118820000Y-46450000D01*
X118820000Y-48550000D01*
X118820000Y-48550000D01*
G37*
G36*
X124978707Y-46367596D02*
X125055836Y-46375193D01*
X125187787Y-46415220D01*
X125253763Y-46435233D01*
X125436172Y-46532733D01*
X125596054Y-46663946D01*
X125727267Y-46823828D01*
X125824767Y-47006237D01*
X125824767Y-47006238D01*
X125884807Y-47204164D01*
X125905080Y-47410000D01*
X125884807Y-47615836D01*
X125869656Y-47665781D01*
X125824767Y-47813763D01*
X125727267Y-47996172D01*
X125596054Y-48156054D01*
X125436172Y-48287267D01*
X125253763Y-48384767D01*
X125187787Y-48404780D01*
X125055836Y-48444807D01*
X124978707Y-48452404D01*
X124901580Y-48460000D01*
X124798420Y-48460000D01*
X124721293Y-48452404D01*
X124644164Y-48444807D01*
X124512213Y-48404780D01*
X124446237Y-48384767D01*
X124263828Y-48287267D01*
X124103946Y-48156054D01*
X123972733Y-47996172D01*
X123875233Y-47813763D01*
X123830344Y-47665781D01*
X123815193Y-47615836D01*
X123794920Y-47410000D01*
X123815193Y-47204164D01*
X123875233Y-47006238D01*
X123875233Y-47006237D01*
X123972733Y-46823828D01*
X124103946Y-46663946D01*
X124263828Y-46532733D01*
X124446237Y-46435233D01*
X124512213Y-46415220D01*
X124644164Y-46375193D01*
X124721293Y-46367596D01*
X124798420Y-46360000D01*
X124901580Y-46360000D01*
X124978707Y-46367596D01*
X124978707Y-46367596D01*
G37*
G36*
X127518707Y-46367596D02*
X127595836Y-46375193D01*
X127727787Y-46415220D01*
X127793763Y-46435233D01*
X127976172Y-46532733D01*
X128136054Y-46663946D01*
X128267267Y-46823828D01*
X128364767Y-47006237D01*
X128364767Y-47006238D01*
X128424807Y-47204164D01*
X128445080Y-47410000D01*
X128424807Y-47615836D01*
X128409656Y-47665781D01*
X128364767Y-47813763D01*
X128267267Y-47996172D01*
X128136054Y-48156054D01*
X127976172Y-48287267D01*
X127793763Y-48384767D01*
X127727787Y-48404780D01*
X127595836Y-48444807D01*
X127518707Y-48452404D01*
X127441580Y-48460000D01*
X127338420Y-48460000D01*
X127261293Y-48452404D01*
X127184164Y-48444807D01*
X127052213Y-48404780D01*
X126986237Y-48384767D01*
X126803828Y-48287267D01*
X126643946Y-48156054D01*
X126512733Y-47996172D01*
X126415233Y-47813763D01*
X126370344Y-47665781D01*
X126355193Y-47615836D01*
X126334920Y-47410000D01*
X126355193Y-47204164D01*
X126415233Y-47006238D01*
X126415233Y-47006237D01*
X126512733Y-46823828D01*
X126643946Y-46663946D01*
X126803828Y-46532733D01*
X126986237Y-46435233D01*
X127052213Y-46415220D01*
X127184164Y-46375193D01*
X127261293Y-46367596D01*
X127338420Y-46360000D01*
X127441580Y-46360000D01*
X127518707Y-46367596D01*
X127518707Y-46367596D01*
G37*
G36*
X130058707Y-46367596D02*
X130135836Y-46375193D01*
X130267787Y-46415220D01*
X130333763Y-46435233D01*
X130516172Y-46532733D01*
X130676054Y-46663946D01*
X130807267Y-46823828D01*
X130904767Y-47006237D01*
X130904767Y-47006238D01*
X130964807Y-47204164D01*
X130985080Y-47410000D01*
X130964807Y-47615836D01*
X130949656Y-47665781D01*
X130904767Y-47813763D01*
X130807267Y-47996172D01*
X130676054Y-48156054D01*
X130516172Y-48287267D01*
X130333763Y-48384767D01*
X130267787Y-48404780D01*
X130135836Y-48444807D01*
X130058707Y-48452404D01*
X129981580Y-48460000D01*
X129878420Y-48460000D01*
X129801293Y-48452404D01*
X129724164Y-48444807D01*
X129592213Y-48404780D01*
X129526237Y-48384767D01*
X129343828Y-48287267D01*
X129183946Y-48156054D01*
X129052733Y-47996172D01*
X128955233Y-47813763D01*
X128910344Y-47665781D01*
X128895193Y-47615836D01*
X128874920Y-47410000D01*
X128895193Y-47204164D01*
X128955233Y-47006238D01*
X128955233Y-47006237D01*
X129052733Y-46823828D01*
X129183946Y-46663946D01*
X129343828Y-46532733D01*
X129526237Y-46435233D01*
X129592213Y-46415220D01*
X129724164Y-46375193D01*
X129801293Y-46367596D01*
X129878420Y-46360000D01*
X129981580Y-46360000D01*
X130058707Y-46367596D01*
X130058707Y-46367596D01*
G37*
G36*
X144987224Y-46035128D02*
X145119175Y-46075155D01*
X145240781Y-46140155D01*
X145347370Y-46227630D01*
X145434845Y-46334219D01*
X145499845Y-46455825D01*
X145539872Y-46587776D01*
X145550000Y-46690610D01*
X145550000Y-47309390D01*
X145539872Y-47412224D01*
X145499845Y-47544175D01*
X145434845Y-47665781D01*
X145347369Y-47772370D01*
X145240780Y-47859845D01*
X145119174Y-47924845D01*
X144987223Y-47964872D01*
X144850000Y-47978387D01*
X144712776Y-47964872D01*
X144580825Y-47924845D01*
X144459219Y-47859845D01*
X144352630Y-47772369D01*
X144265155Y-47665780D01*
X144200155Y-47544174D01*
X144160128Y-47412223D01*
X144150000Y-47309389D01*
X144150000Y-46690610D01*
X144160128Y-46587776D01*
X144200155Y-46455825D01*
X144265155Y-46334219D01*
X144352631Y-46227630D01*
X144459220Y-46140155D01*
X144580826Y-46075155D01*
X144712777Y-46035128D01*
X144850000Y-46021613D01*
X144987224Y-46035128D01*
X144987224Y-46035128D01*
G37*
G36*
X137987224Y-46035128D02*
X138119175Y-46075155D01*
X138240781Y-46140155D01*
X138347370Y-46227630D01*
X138434845Y-46334219D01*
X138499845Y-46455825D01*
X138539872Y-46587776D01*
X138550000Y-46690610D01*
X138550000Y-47309390D01*
X138539872Y-47412224D01*
X138499845Y-47544175D01*
X138434845Y-47665781D01*
X138347369Y-47772370D01*
X138240780Y-47859845D01*
X138119174Y-47924845D01*
X137987223Y-47964872D01*
X137850000Y-47978387D01*
X137712776Y-47964872D01*
X137580825Y-47924845D01*
X137459219Y-47859845D01*
X137352630Y-47772369D01*
X137265155Y-47665780D01*
X137200155Y-47544174D01*
X137160128Y-47412223D01*
X137150000Y-47309389D01*
X137150000Y-46690610D01*
X137160128Y-46587776D01*
X137200155Y-46455825D01*
X137265155Y-46334219D01*
X137352631Y-46227630D01*
X137459220Y-46140155D01*
X137580826Y-46075155D01*
X137712777Y-46035128D01*
X137850000Y-46021613D01*
X137987224Y-46035128D01*
X137987224Y-46035128D01*
G37*
G36*
X135700000Y-47800000D02*
X134000000Y-47800000D01*
X134000000Y-45900000D01*
X135700000Y-45900000D01*
X135700000Y-47800000D01*
X135700000Y-47800000D01*
G37*
M02*
