M48
;DRILL file {KiCad 5.0.2-bee76a0~70~ubuntu16.04.1} date Tue 15 Jan 2019 14:46:15 GMT
;FORMAT={-:-/ absolute / inch / decimal}
FMAT,2
INCH,TZ
T1C0.0157
T2C0.0197
T3C0.0217
T4C0.0394
T5C0.0906
T6C0.1220
%
G90
G05
T1
X4.1811Y-2.0984
X4.3465Y-2.9055
X4.4425Y-2.6161
X4.4449Y-2.5177
X4.4862Y-2.0335
X4.6366Y-2.6181
X4.6839Y-2.2661
X4.6909Y-2.7362
X4.7224Y-1.9606
X4.7224Y-2.065
X4.7441Y-3.5413
X4.7697Y-3.1083
X4.7697Y-3.1083
X4.8209Y-1.9803
X4.8213Y-3.5299
X4.8268Y-3.2854
X4.8327Y-2.0787
X4.8386Y-2.4035
X4.8713Y-3.513
X4.8803Y-2.6937
X4.9016Y-3.0197
X4.9075Y-2.7717
X4.9094Y-2.8681
X4.9213Y-3.4744
X4.9272Y-2.3425
X4.939Y-2.748
X4.939Y-2.748
X5.0748Y-2.1496
X5.1358Y-2.0768
X5.1378Y-2.2087
X5.1378Y-2.2087
X5.1378Y-2.8917
X5.1693Y-2.2402
X5.1693Y-2.8571
X5.2323Y-2.2559
X5.2441Y-2.0039
X5.3524Y-3.2854
X5.3583Y-2.6398
X5.3661Y-1.8051
X5.3661Y-2.9744
X5.4075Y-2.935
X5.4173Y-3.3346
X5.4272Y-3.0256
X5.4272Y-3.5039
X5.4543Y-3.4642
X5.4843Y-3.7736
X5.5Y-2.1465
X5.5039Y-2.8858
X5.5394Y-2.3012
X5.5453Y-3.0276
X5.5512Y-2.1791
X5.5807Y-2.7402
X5.6142Y-2.7126
X5.6161Y-2.3031
X5.6417Y-2.5157
X5.7047Y-3.5768
X5.7185Y-2.5157
X5.7492Y-3.4488
X5.7579Y-2.3543
X5.7638Y-3.5039
X5.7874Y-3.4154
X5.8327Y-2.4469
X6.0748Y-2.0157
X6.187Y-2.8366
T4
X4.9154Y-1.8665
X4.9154Y-1.9665
X5.0154Y-1.8665
X5.0154Y-1.9665
X5.1154Y-1.8665
X5.1154Y-1.9665
X4.2067Y-2.9181
X4.2067Y-3.0181
X4.2067Y-3.098
X4.2067Y-3.198
X5.8685Y-3.2461
X5.8685Y-3.3461
X5.9685Y-3.2461
X5.9685Y-3.3461
X6.2756Y-3.1791
X6.2756Y-3.2791
X6.2756Y-3.3791
X6.2756Y-3.4791
X6.3756Y-3.1791
X6.3756Y-3.2791
X6.3756Y-3.3791
X6.3756Y-3.4791
X4.6366Y-1.8701
X4.6366Y-1.9701
X4.3504Y-3.6969
X4.4488Y-3.6969
X4.5472Y-3.6969
X4.6457Y-3.6969
X4.7441Y-3.6969
X5.0295Y-3.6969
X5.128Y-3.6969
X5.2264Y-3.6969
X5.3248Y-3.6969
X5.4232Y-3.6969
X5.8681Y-2.5531
X5.8681Y-2.6531
X5.9681Y-2.5531
X5.9681Y-2.6531
X6.2756Y-2.4843
X6.2756Y-2.5843
X6.2756Y-2.6843
X6.2756Y-2.7843
X6.2756Y-2.8843
X6.2756Y-2.9843
X6.3756Y-2.4843
X6.3756Y-2.5843
X6.3756Y-2.6843
X6.3756Y-2.7843
X6.3756Y-2.8843
X6.3756Y-2.9843
X5.7087Y-3.6969
X5.8071Y-3.6969
X5.9055Y-3.6969
X6.0039Y-3.6969
X6.1024Y-3.6969
X5.8681Y-2.2579
X5.8681Y-2.3579
X5.9681Y-2.2579
X5.9681Y-2.3579
X4.0969Y-3.4843
X4.1969Y-3.4843
X4.2969Y-3.4843
X5.8681Y-2.8504
X5.8681Y-2.9504
X5.8681Y-3.0504
X5.9681Y-2.8504
X5.9681Y-2.9504
X5.9681Y-3.0504
T5
X4.1016Y-2.778
X4.1016Y-3.3181
T6
X6.339Y-1.9287
X4.0945Y-3.7795
X4.0945Y-1.9291
X6.3386Y-3.7795
T2
X4.0049Y-2.3425G85X4.0305Y-2.3425
G05
X4.0049Y-2.6181G85X4.0305Y-2.6181
G05
X5.4272Y-1.8376G85X5.4272Y-1.8632
G05
X5.7028Y-1.8376G85X5.7028Y-1.8632
G05
T3
X4.124Y-2.376G85X4.124Y-2.3878
G05
X4.124Y-2.5728G85X4.124Y-2.5846
G05
X5.4724Y-1.9567G85X5.4606Y-1.9567
G05
X5.6693Y-1.9567G85X5.6575Y-1.9567
G05
T0
M30
