<?xml version="1.0" encoding="UTF-8" standalone="no"?>
<!-- Created with Inkscape (http://www.inkscape.org/) -->

<svg
   xmlns:dc="http://purl.org/dc/elements/1.1/"
   xmlns:cc="http://creativecommons.org/ns#"
   xmlns:rdf="http://www.w3.org/1999/02/22-rdf-syntax-ns#"
   xmlns:svg="http://www.w3.org/2000/svg"
   xmlns="http://www.w3.org/2000/svg"
   xmlns:sodipodi="http://sodipodi.sourceforge.net/DTD/sodipodi-0.dtd"
   xmlns:inkscape="http://www.inkscape.org/namespaces/inkscape"
   id="svg2"
   version="1.1"
   inkscape:version="0.91 r13725"
   xml:space="preserve"
   width="279.96878"
   height="268.6344"
   viewBox="0 0 279.96877 268.63439"
   sodipodi:docname="Logo.svg"><metadata
     id="metadata8"><rdf:RDF><cc:Work
         rdf:about=""><dc:format>image/svg+xml</dc:format><dc:type
           rdf:resource="http://purl.org/dc/dcmitype/StillImage" /><dc:title></dc:title></cc:Work></rdf:RDF></metadata><defs
     id="defs6" /><sodipodi:namedview
     pagecolor="#ffffff"
     bordercolor="#666666"
     borderopacity="1"
     objecttolerance="10"
     gridtolerance="10"
     guidetolerance="10"
     inkscape:pageopacity="0"
     inkscape:pageshadow="2"
     inkscape:window-width="1920"
     inkscape:window-height="1003"
     id="namedview4"
     showgrid="false"
     fit-margin-top="10"
     fit-margin-left="10"
     fit-margin-right="10"
     fit-margin-bottom="10"
     inkscape:zoom="0.89700837"
     inkscape:cx="-57.247768"
     inkscape:cy="413.1005"
     inkscape:window-x="0"
     inkscape:window-y="0"
     inkscape:window-maximized="1"
     inkscape:current-layer="g10" /><g
     id="g10"
     inkscape:groupmode="layer"
     inkscape:label="Logo"
     transform="matrix(0.9375,0,0,0.9375,-541.475,-412.97186)"><g
       id="g68"><path
         d="m 727.15997,455.54999 0.26001,2.17001 0.28003,2.73001 0.28998,3.13999 0.29004,3.42001 0.19995,2.53998 0.17004,2.23001 0.20996,2.72 0.24,2.97 0.25,3 0.24005,2.82001 0.02,0.22 0.23999,2.84 0.21002,2.51999 0.19,2.29 0.16998,2.19001 0.16004,2.19998 0.16998,2.31 0.16998,2.55001 0.19001,2.88999 0.21002,3.36001 0.23999,3.91999 0.07,1.01001 0.27997,4.47 0.27002,4.35998 0.28003,4.20002 0.25995,3.97003 0.24005,3.69995 0.22998,3.36004 0.21002,2.97998 0.18,2.52997 0.14996,2.03003 0.12,1.47998 0.08,0.87 0.04,0.22003 0.16003,-0.22003 0.38001,-0.57996 0.56,-0.88 0.69,-1.11005 0.45001,-0.73999 2.13001,-3.26996 2.07995,-2.74005 2.15003,-2.35999 2.04999,-1.84997 1.70001,-1.22003 1.76001,-0.87 1.71997,-0.48999 1.60998,-0.1 1.42005,0.32995 0.02,0 0.96002,0.56 1,0.82001 0.91998,0.99005 0.73999,1.03998 0.26001,0.48999 0.42004,0.82 0.25,0.24 0.10999,-0.33002 0.01,-0.43 0.15997,-1.72998 0.43,-1.85998 0.64001,-1.84003 0.82001,-1.67999 0.91998,-1.39002 0.42999,-0.46997 0.53003,-0.57 0.12,-0.20001 6.59997,0 0.14002,0.33001 0.38,0.51996 0.52997,0.62006 0.04,0.05 1.57001,2.03998 1.45996,2.65003 1.32001,3.15997 1.15002,3.59003 0.95001,3.91998 0.72998,4.16998 0.45001,4.08002 0.20002,2.59003 1.63995,-5.19001 0.63,-1.97003 0.66004,-2.01001 0.61999,-1.85998 0.52997,-1.52002 0.22003,-0.59998 0.78998,-2.03998 0.65003,-1.5 0.57,-1.01001 0.53998,-0.60998 0.57001,-0.27002 0.63,0.01 0.31,0.07 0.42999,0.09 0.24,0.01 0.01,-0.02 -0.05,-0.35998 -0.15003,-0.91999 -0.22998,-1.39001 -0.29004,-1.75 -0.32995,-2 -0.01,-0.08 -1.14002,-6.61999 -1.15997,-6.43 -1.17999,-6.10998 -1.15003,-5.68002 -1.10998,-5.12998 -0.28003,-1.19 -0.96997,-4.20001 -0.27002,1.07 -0.43,1.62 -0.59002,2.04999 -0.69,2.35 -0.75995,2.5 -0.77002,2.49002 -0.75,2.34 -0.66999,2.04999 -0.45001,1.31 -0.53003,1.51001 -0.57995,1.76999 -0.62006,1.91998 -0.62994,1.99005 -0.60004,1.93994 -0.54999,1.81006 -0.45001,1.57995 -0.34998,1.23005 -0.19,0.79998 -0.03,0.22999 -6.59997,0 0.14001,-0.21003 0.06,-0.36999 -0.06,-0.31 -0.14001,-1.09998 -0.01,-1.46002 0.11999,-1.51996 0.16999,-1.02002 0.24005,-0.73999 0.45996,-1.11999 0.64001,-1.40003 0.78998,-1.58996 0.42999,-0.86005 1,-1.93997 0.81,-1.67001 0.68005,-1.51001 0.56995,-1.47998 0.51001,-1.57001 0.48999,-1.76001 0.51001,-2.07999 0.56,-2.51001 0.61999,-2.94998 0.45002,-2.06 0.54003,-2.35 0.58997,-2.51001 0.63,-2.57999 L 773,482.91 l 0.62,-2.39999 0.57,-2.16 0.5,-1.81 0.40003,-1.37 0.26995,-0.78 0.44001,-0.85 0.59002,-0.87 0.35999,-0.40002 1.11999,-0.78 1.12,-0.08 1.10999,0.60001 1.05004,1.26999 0.81,1.54999 0.45996,1.24002 0.56,1.85 0.65002,2.40998 0.72998,2.90002 0.79004,3.34 0.84998,3.72 0.88,4.03 0.90003,4.29999 0.91998,4.48999 0.90998,4.62002 0.66003,3.47 0.29999,1.60999 0.39001,2.14001 0.48999,2.62 0.54999,3.03998 0.63,3.38 0.66999,3.67999 0.71002,3.90003 0.75,4.05999 0.76001,4.15998 0.76001,4.19 0.76996,4.17004 0.73999,4.07996 0.71002,3.92004 0.67999,3.70996 0.62,3.42005 0.55999,3.08996 0.48005,2.66999 0.39996,2.21002 0.29999,1.66998 0.19,1.08002 0.02,0.12 0.22998,1.26 0.17004,0.94001 0.10999,0.46002 0.01,0.03 -0.01,-0.37 -0.08,-0.95001 -0.11999,-1.41998 -0.15998,-1.78003 -0.16003,-1.66998 -0.16998,-1.85999 -0.22003,-2.44 -0.23999,-2.85999 -0.26996,-3.14001 -0.27002,-3.28998 -0.26001,-3.30005 -0.14002,-1.70996 -0.39996,-5.07001 8.51001,0 0.05,0.19 0.23999,-0.17004 0.46002,-0.54999 0.70996,-0.91998 0.48999,-0.66998 0.83002,-1.18 0.84997,-1.32 0.74005,-1.26001 0.39997,-0.73999 0.52002,-1.03003 0.27997,-0.62 0.08,-0.29999 -0.1,-0.07 -0.26001,0.08 -0.01,0 -0.84998,0.53998 -0.95001,0.98999 -0.98999,1.32001 -0.92004,1.51001 -0.76996,1.59003 -0.43,1.19995 -0.25,0.86999 -0.11999,0.54004 -8.51001,0 -0.02,-0.28003 -0.39002,-4.70001 -0.34997,-4.12994 -0.32001,-3.61005 -0.29999,-3.16998 -0.29003,-2.77997 -0.27997,-2.47003 -0.28003,-2.21002 -0.27997,-2.02997 -0.29999,-1.91999 -0.28003,-1.65002 -0.39996,-2.28998 -0.29004,-1.75 -0.17999,-1.31 -0.1,-1.01001 -0.02,-0.82 0.04,-0.75 0.03,-0.25 0.34998,-1.99002 0.59002,-1.45999 0.82001,-0.91999 1.03998,-0.40002 1.13,0.15002 0.95001,0.78 0.79999,1.41 0.32001,0.87 0.56,1.95999 0.58001,2.55002 0.59998,3.04999 0.59998,3.44 0.57,3.71997 0.53003,3.89001 0.38001,3.20002 0.45996,4.15997 1.26001,-1.92999 1.07,-1.51001 1.24,-1.5 1.28002,-1.34998 1.19001,-1.07001 0.38995,-0.28997 0.82001,-0.40003 1.01001,-0.25 1.10003,-0.08 1.08997,0.07 0.97998,0.22003 0.78003,0.38001 0.19,0.15997 1.19,1.48999 0.93,1.96002 0.65002,2.39002 0.38001,2.78998 0.05,0.82 -0.04,2.73999 -0.38001,2.87 -0.69995,2.97998 -1.01001,3.06006 -1.32001,3.10998 -1.61999,3.15998 -1.91004,3.16003 -0.95996,1.41998 -2.34003,3.39002 0.60004,0.27997 0.31,0.10003 0.60998,0.18 0.84998,0.25 1.07001,0.28998 1.21002,0.33001 1.33997,0.34998 1.39001,0.35998 1.41998,0.37006 1.40003,0.35998 1.32,0.33997 1.21003,0.30005 1.03997,0.25 0.83997,0.19995 0.58002,0.13001 0.28003,0.04 0,0 0.23999,-0.10003 0.20001,-0.39002 0.21997,-0.80999 0.25,-1.22998 0.35004,-1.52002 0.42999,-1.47998 0.38995,-1.08002 0.66004,-1.56 -0.43,-4.58997 -0.20001,-2.29003 -0.21002,-2.57996 -0.19,-2.5 -0.1,-1.59003 -0.35998,-5.08001 -0.39002,-4.5 -0.45001,-4.06 -0.52002,-3.76996 -0.61999,-3.60004 -0.71998,-3.57995 -0.28002,-1.23004 -0.75995,-3.34998 -0.92005,0.22998 -0.83996,0.29999 -0.81,0.44 -0.71002,0.51001 -0.52997,0.54004 -0.28003,0.5 -0.01,0.0699 -0.41998,1.53002 -0.68,1.21998 -0.89001,0.82 -1.03998,0.36005 -0.20001,0.01 -1.16003,-0.29999 -0.95997,-0.89001 -0.77001,-1.47998 -0.56,-2.06 -0.15003,-0.89002 -0.14996,-2.14996 18.22998,0 0.07,0.36999 0.21002,0.89002 0.31,1.26996 0.38995,1.56 0.13001,0.52001 0.60003,2.56 0.59998,2.90998 0.54004,2.92004 0.17999,1.13 0.41998,2.65998 0.41998,2.84997 0.41004,2.92005 0.38995,2.84997 0.35004,2.65003 0.28998,2.32 0.21002,1.84998 0.08,0.85999 0.11999,1.23999 0.12,0.66003 0.13995,0.19 0.10004,-0.04 0.23999,-0.22998 0.48999,-0.51001 0.69,-0.73999 0.84003,-0.90997 0.94,-1.03003 0.03,-0.03 2.31,-2.61999 2,-2.42005 1.67999,-2.25 1.40002,-2.07995 0.06,-0.10004 1.08002,-1.90997 1.01001,-2.08002 0.89996,-2.14001 0.73999,-2.08997 0.55005,-1.94 0.31995,-1.68 0.05,-0.5 0.02,-1.04004 -0.13995,-0.76995 -0.29004,-0.69001 -1.02002,-1.74005 -1.34997,-1.5 -1.27002,-1.01996 -0.87,-0.58001 -0.82001,-0.46002 -0.83996,-0.38996 -0.95002,-0.34003 -1.15997,-0.33996 -0.95001,-0.25 -0.60004,-0.13001 -0.82995,-0.11999 -1.01001,-0.12006 -1.14002,-0.10998 -1.22998,-0.10999 -1.25,-0.1 -1.25,-0.08 -1.17999,-0.06 -1.07001,-0.04 -0.91003,-0.01 -0.69995,0.01 -0.45002,0.04 -0.15002,0.07 -18.22998,0 0,-0.04 0.17999,-2.15997 0.51001,-2.02002 0.33002,-0.84 0.63995,-1.03 0.97003,-1.03 1.31,-1.00998 1.64002,-0.99002 1.95996,-0.97998 2.27002,-0.95001 2.58996,-0.92001 1.60004,-0.50998 3.31,-0.85001 3.28997,-0.51999 3.25001,-0.20001 3.15002,0.12 3.01001,0.42999 2.82001,0.73001 2.59997,1.04001 2.34003,1.33999 0.37994,0.26999 2.09003,1.78 1.85998,2.19001 1.72004,2.70999 0.51996,0.97 0.75,1.51001 0.54003,1.28003 0.41999,1.23999 0.34002,1.33996 0.60999,3.19001 0.31,3.03002 0,3.02997 -0.21003,2.69 -0.64001,4.06 -0.96997,4.04999 -1.32001,4.04004 -1.64996,4.03998 -1.99005,4.03003 -2.33997,4.02997 -2.67999,4.03002 -3.03003,4.03998 -3.37,4.03998 -3.21002,3.5 -0.84997,0.92004 -0.83002,0.91999 -0.69995,0.82 -0.47003,0.58997 -0.59003,0.69 -0.56995,0.38001 -0.71002,0.19 -0.15997,0.02 -1.18005,0.13 0.16003,1.45002 0.06,1.97998 -0.19001,2.10998 -0.41998,1.97003 -0.24005,0.73999 -0.84997,1.83997 -1,1.28003 -1.18,0.76001 -1.40002,0.25 -0.82001,-0.05 -1.57996,-0.33002 -1.91003,-0.59997 -2.22998,-0.86005 -2.54999,-1.13 -2.86999,-1.38996 -0.10004,-0.06 -1.20996,-0.60004 -1.10004,-0.53998 -0.94,-0.44 -0.73999,-0.34003 -0.48999,-0.20996 -0.19,-0.05 0,0 0.02,0.38001 0.11999,0.91003 0.19,1.32001 0.25,1.57996 0,0.02 0.43,3.16999 0.21002,2.78003 -0.03,2.53997 -0.20001,2.16004 -0.39002,1.82996 -0.63995,1.49005 -0.79004,1.03997 -0.88995,0.52997 -0.92005,-0.09 -0.11999,-0.06 -0.69001,-0.56 -0.78997,-0.91003 -0.78003,-1.09998 -0.65998,-1.13 -0.40002,-0.94 -0.42999,-1.29999 0,1.27002 -0.05,1.39996 -0.12,1.72003 -0.16003,1.73999 -0.17999,1.44 -0.05,0.28998 -0.47998,1.73999 -0.70001,1.29004 -0.84998,0.82001 -0.92004,0.31995 -0.93,-0.20997 -0.86999,-0.77002 -0.57001,-0.96002 -0.56,-1.26996 -0.46997,-1.30999 -0.44,-1.45002 -0.41998,-1.72998 -0.43005,-2.10003 -0.47998,-2.59998 -0.39002,-2.26001 -0.37,-2.19 -0.33996,-1.98999 -0.29004,-1.66003 -0.21997,-1.22998 -0.14002,-0.71003 -0.02,-0.10998 -0.19001,-0.26996 -0.35998,0.04 -0.26996,0.13 -0.46002,0.20996 -0.70002,0.26001 -0.83001,0.28003 -0.57996,0.19 -0.86004,0.31 -1.13996,0.48999 -1.36004,0.65003 -1.53998,0.77996 -1.65003,0.87 -1.71997,0.94 -1.72998,0.97003 -1.67999,0.98999 -1.59003,0.95997 -1.44,0.92004 -0.58002,0.38995 -1.53998,0.99005 -1.26001,0.71998 -1.02996,0.42999 -0.84003,0.16003 -0.70001,-0.11999 -0.59998,-0.39002 -0.54004,-0.66003 -0.37994,-0.63001 -0.18005,-0.26996 -0.16999,-0.09 -0.26001,0.13 -0.38995,0.41004 -0.60004,0.70996 -0.28998,0.35998 -1.85998,1.97003 -1.82001,1.27002 -1.79004,0.56995 -1.76001,-0.10999 -1.60998,-0.72998 -1.42999,-1.34997 -1.25001,-1.96002 -1.05999,-2.54999 -0.88001,-3.14002 -0.67999,-3.73999 -0.19,-1.38 -0.35999,-2.91998 -1.60003,4.16998 -1.79999,4.46997 -1.89002,4.31 -1.90997,4.03003 -1.90002,3.65997 -1.83997,3.17999 -1.03003,1.60004 -0.76001,1.15997 -0.52997,0.85004 -0.34002,0.64996 -0.19001,0.54999 -0.1,0.55005 -0.04,0.35998 -0.31,2.02997 -0.56,1.56 -0.78002,1.04004 -0.96998,0.45996 -0.24005,0.01 -1.02997,-0.21997 -0.84002,-0.72003 -0.76996,-1.32996 -0.01,-0.01 -0.38001,-0.75 -0.28997,-0.46002 -0.10004,-0.08 -0.34998,-0.28998 -0.45001,-0.77001 -0.47003,-1.07996 -0.42999,-1.21002 -0.32996,-1.19 -0.17004,-0.99 0,-0.19 -0.1,-0.58002 -0.22998,-0.80999 -0.28003,-0.81 -0.25,-0.54999 -0.10998,-0.10998 -0.22003,0.13 -0.46998,0.35999 -0.67999,0.55999 -0.82001,0.69001 -0.48999,0.41998 -1.11999,0.94 -1.25,1 -1.23999,0.94001 -1.08002,0.78002 -0.10003,0.06 -1.33997,0.92999 -1.16998,0.85999 -1.09003,0.85999 -1.09998,0.95001 -1.21002,1.09997 -1.40002,1.33002 -0.40998,0.40002 -1.39001,1.29999 -1.15997,0.96002 -0.97003,0.63996 -0.84998,0.36004 -0.79004,0.10999 -0.73999,-0.10999 -1.17999,-0.64001 -1.04999,-1.25 -0.89001,-1.73999 -0.64997,-2.15003 -0.34002,-2.09997 -0.10999,-1.85004 0.06,-1.91998 0.22998,-2.16998 0.35003,-2.16004 0.18,-0.97998 0.19,-0.97003 0.23999,-1.02997 0.29999,-1.16998 0.36999,-1.38001 0.47998,-1.67999 0.08,-0.26001 9.56,0 0.17999,-0.13 0.44,-0.37 0.65003,-0.54999 0.78998,-0.68005 0.42999,-0.37994 1.08002,-0.90003 1.17999,-0.95001 1.15002,-0.88001 0.98999,-0.70001 0.06,-0.04 0.78998,-0.54999 0.64001,-0.48999 0.44,-0.39002 0.18,-0.23999 0,-0.01 -0.08,-0.40002 -0.22998,-0.89997 -0.33997,-1.23999 -0.42004,-1.48004 -0.03,-0.1 -0.57001,-2 -0.63,-2.27002 -0.60999,-2.20996 -0.32,-1.18006 -0.40003,-1.44995 -0.34997,-1.15002 -0.25,-0.75 -0.13001,-0.23999 0,0.01 -0.1,0.41998 -0.19001,0.95001 -0.25,1.33002 -0.24005,1.31995 -0.36999,1.96002 -0.44995,2.34002 -0.52002,2.56 -0.53003,2.60999 -0.52997,2.5 -0.47998,2.21997 -0.41003,1.79004 -0.14002,0.55999 -0.23999,1.04999 -0.15997,0.73999 -0.03,0.27002 -9.56,0 0.52002,-1.77002 0.72998,-2.46997 0.90002,-2.98004 0.25,-0.82996 0.60999,-2.04003 0.64001,-2.22999 0.66999,-2.34997 0.65002,-2.36005 0.62,-2.28998 0.57,-2.13 0.48999,-1.88001 0.38001,-1.54998 0.26001,-1.10999 0.10998,-0.61004 0,-0.04 -0.11999,0.09 -0.33002,0.45997 -0.46002,0.74999 -0.13995,0.24 -0.80005,1.30999 -0.73999,1.04004 -0.75,0.83002 -0.84998,0.70996 -1.01001,0.64001 -1.27002,0.65003 -0.35998,0.17999 -1.12,0.53998 -0.79999,0.44 -0.53002,0.34998 -0.28998,0.29004 -0.08,0.23999 0,0.01 0.08,0.59997 0.15997,1.02002 0.15002,0.87 0.33002,2.83996 0.01,3.02002 -0.28998,3.10999 -0.58996,3.09002 -0.66004,2.33997 -1.36999,3.63001 -1.54999,3.16003 -1.71002,2.63 -1.82001,2.06 -1.90997,1.42999 -1.96002,0.77997 -0.24,0.05 -1.58996,-0.07 -1.58002,-0.72003 -1.5,-1.32 -1.36999,-1.83997 -1.15002,-2.3199 -0.17999,-0.46002 -0.83002,-2.17999 -0.13,2.10003 -0.23999,2.70996 -0.34998,2.16004 -0.48999,1.76001 -0.44,1.02997 -0.92004,1.45001 -1.00995,0.81 -1.05005,0.14001 -1.04999,-0.52002 -0.62,-0.67999 -0.46002,-0.71002 -0.45996,-0.93 -0.47003,-1.21002 -0.51001,-1.52997 -0.54999,-1.91998 -0.59997,-2.35004 -0.69001,-2.82995 -0.77002,-3.36005 -0.86999,-3.95996 -0.52997,-2.45001 -0.64001,-2.95001 -0.71002,-3.21002 -0.72999,-3.26996 -0.71002,-3.14002 -0.64996,-2.79999 -0.34003,-1.44 6.83002,0 0.07,0.28998 0.05,-0.06 0.02,-0.41998 -0.02,-0.05 -0.10998,0.05 -0.01,0.19 -6.83002,0 -0.03,-0.16003 -1.77002,-7.47998 -0.09,14.46002 -0.1,14.45996 0.69,2.86005 0.33002,1.30999 0.45996,1.72998 0.54999,1.99 0.58002,2.04998 0.34002,1.15003 0.69001,2.36999 0.53997,1.85999 0.39002,1.44 0.27002,1.10999 0.16998,0.90002 0.1,0.76001 0.04,0.71997 0.01,0.67999 -0.15998,2.18006 -0.41998,1.86999 -0.66003,1.5 -0.82001,1.07001 -0.94,0.56995 -1.00995,0.02 -1.02002,-0.58001 -0.41999,-0.43 -0.38,-0.61999 -0.51001,-1.07001 -0.59003,-1.36999 -0.59997,-1.52997 -0.56,-1.53003 -0.46002,-1.38001 -0.20996,-0.73998 -0.26001,-0.91999 -0.21002,-0.41003 -0.28998,-0.06 -0.25,0.08 -0.79999,0.35998 -1.09003,0.57001 -1.33002,0.75 -1.51995,0.91003 -1.66004,1.03998 -1.76001,1.15003 -1.82995,1.20996 -0.63001,0.44 -2.41003,1.63 -2.12,1.35999 -1.84997,1.10004 -1.61005,0.85998 -1.37994,0.62 -1.20002,0.39001 -1.02002,0.16998 -0.88,-0.04 -0.77002,-0.23999 -0.67999,-0.42005 -0.09,-0.08 -0.75,-0.97003 -0.66003,-1.41999 -0.45996,-1.61999 -0.08,-0.47003 -0.21997,-1.51996 -1.04004,1.92999 -2.14001,3.89996 -2.19001,3.75 -2.26996,3.68 -2.40002,3.68005 -2.58997,3.75 -2.82,3.90997 -2.41004,3.21002 -2.56,3.34998 -2.51,3.22998 -2.44996,3.09003 -2.35003,2.91998 -2.22998,2.72998 -2.10004,2.5 -1.92999,2.24005 -1.72998,1.94995 -1.52002,1.63001 -1.27997,1.30005 -0.98999,0.88995 -1.14002,0.72003 -1.16998,0.34998 -1.09003,-0.03 -0.92999,-0.42999 -0.19,-0.15003 -1.02002,-1.29999 -0.70996,-1.60998 -0.42004,-1.96002 -0.10999,-2.04999 0.16998,-2.48999 0.51001,-2.37006 0.84003,-2.21997 1.08002,-1.90002 0.35998,-0.47998 0.63001,-0.77002 0.84997,-1 1.03003,-1.16999 1.14997,-1.28997 1.23004,-1.37 0.63995,-0.70001 2.20001,-2.41003 2.23999,-2.47998 2.25,-2.52002 2.22003,-2.50995 2.16999,-2.47003 2.08001,-2.40003 1.95002,-2.26996 1.80999,-2.11999 1.60999,-1.94001 1.39996,-1.70001 1.15003,-1.42999 0.69,-0.91003 2.71997,-3.75 2.61005,-3.82996 2.47998,-3.87 2.30999,-3.84002 2.10999,-3.76001 0.81,-1.57001 17.59002,0 3,-2.23999 1.09998,-0.79999 1.13001,-0.78003 1.04998,-0.69 0.88001,-0.52997 0.46002,-0.25 0.75,-0.39001 0.46997,-0.29999 0.24005,-0.26001 0.07,-0.28998 -0.02,-0.28003 -0.14002,-0.63995 -0.24999,-1.04004 -0.33997,-1.29999 -0.38001,-1.40997 -0.38,-1.38001 -0.35004,-1.23004 -0.27997,-0.90997 -0.17004,-0.47998 -0.02,-0.03 -0.15002,0.26001 -0.33002,0.71997 -0.44995,1.06 -0.55005,1.31 -0.11999,0.29003 -0.69996,1.65998 -0.84002,1.95001 -0.89002,1.98999 -0.82995,1.82001 -0.09,0.17999 -1.87,3.98999 -17.59002,0 1.06,-2.04999 1.60003,-3.41998 0.70996,-1.66998 0.71002,-1.76001 0.64002,-1.68 0.54999,-1.51001 0.41998,-1.25 0.27002,-0.90002 0.08,-0.45996 0,-0.02 -0.19001,0 -0.46002,0.10999 -0.65997,0.20001 -0.67004,0.22998 -2.18,0.94 -2.38995,1.35004 -2.55005,1.72998 -2.67999,2.04999 -2.73999,2.34997 -2.75,2.60004 -2.07001,2.11999 -2.08997,2.21997 -1.80004,1.90003 -1.54999,1.61999 -1.32001,1.35999 -1.10998,1.11004 -0.94001,0.89997 -0.77997,0.71002 -0.65002,0.52997 -0.56,0.39001 -0.47003,0.26001 -0.42999,0.15998 -0.40998,0.09 -0.41003,0.03 -0.04,0 -1.14996,-0.26996 -0.97003,-0.85998 -0.77997,-1.47004 -0.37006,-1.08001 -0.40997,-1.84998 -0.15997,-1.91998 0.1,-2.02002 0.38001,-2.14002 0.65997,-2.29998 0.94,-2.5 1.23999,-2.72998 1.55005,-2.98999 0.46997,-0.85004 4.26001,-7.89996 4.15003,-8.10004 3.95996,-8.17999 3.71002,-8.13001 1.20996,-2.77002 0.52002,-1.22998 0.67999,-1.63 0.82001,-1.95996 0.90002,-2.20002 0.96998,-2.35998 1,-2.45001 1,-2.46002 0.96002,-2.39002 0.89996,-2.23999 0.80005,-2 0.67999,-1.70001 0.51001,-1.31 0.32001,-0.84998 0,0 0.71997,-1.51 0.88,-1.06 0.93,-0.52002 0.28003,-0.03 0.92999,0.29999 0.82001,0.81 0.65997,1.22003 0.44,1.50995 0.18,1.69 -0.04,0.98004 -0.20002,1.27997 -0.34997,1.44 -0.43005,1.38001 -0.43,1.07 -0.25,0.40998 -0.22998,0.41003 -0.40997,0.89996 -0.59003,1.31 -0.71002,1.65002 -0.82001,1.93 -0.87994,2.13 -0.65003,1.58002 -1.53002,3.70996 -1.33997,3.24005 -1.19,2.87 -1.09003,2.57995 -1.02997,2.38001 -1,2.27002 -1,2.25 -1.06,2.32 -1.14001,2.47999 -0.19,0.41003 -1.27002,2.75 -1.06,2.27997 -0.84998,1.84002 -0.66003,1.45002 -0.5,1.09997 -0.34998,0.79999 -0.21002,0.53003 -0.10998,0.31 0,0.13995 0.07,-0.01 0.11999,-0.10003 0.13,-0.10999 0.41999,-0.38 0.64001,-0.57001 0.75,-0.68 0.45001,-0.40997 2.47999,-2.11999 2.51001,-1.90003 2.46002,-1.65002 2.36999,-1.35999 2.20001,-1.02002 0.06,-0.02 7.78998,0 0.76001,0.78998 1.08997,1.52002 0.86999,2 0.63001,2.39002 0.36004,2.64996 0.06,2.81 -0.07,1.16998 -0.25,2.33002 -0.40002,2.30999 -0.57001,2.45002 -0.78998,2.72998 -0.36999,1.19 -0.15003,0.48999 -0.04,0.25 0.09,-0.03 0.26001,-0.35998 0.44,-0.71003 0.65003,-1.09997 0.88,-1.53003 0.14002,-0.25 0.86999,-1.52997 0.88996,-1.66003 0.84002,-1.60999 0.67999,-1.38 0.13001,-0.27997 0.54999,-1.23004 0.65002,-1.46997 0.69,-1.62 0.69001,-1.67004 0.66998,-1.63001 0.60998,-1.48999 0.49,-1.26001 0.35003,-0.94995 0.16998,-0.52002 0.01,-0.07 -0.09,-0.46998 -0.25,-0.97003 -0.38996,-1.39001 -0.49005,-1.70996 -0.56994,-1.92005 -0.62006,-2.05999 -0.62994,-2.08997 -0.63001,-2.03003 -0.59002,-1.88 -0.52997,-1.63001 -0.43006,-1.29999 -0.29999,-0.84997 -0.13,-0.28998 -0.13,-0.09 -0.19001,0.16999 -0.26996,0.51001 -0.40002,0.90002 -0.54999,1.38 -0.36999,0.91999 -0.72998,1.91998 -0.80005,2.15002 -0.76996,2.14002 -0.65003,1.84997 -0.03,0.08 -1.34003,3.92999 -7.78998,0 1.91998,-0.64001 0.15003,-0.04 0.97998,-0.23004 -0.25,-1.5 -0.16003,-1.19995 -0.03,-1.14002 0.11999,-1.19 0.28998,-1.36999 0.48004,-1.66004 0.69,-2.07 0.03,-0.09 0.63001,-1.92999 0.71002,-2.31 0.71997,-2.42004 0.63001,-2.26996 0.11999,-0.44001 0.79004,-2.91003 0.69995,-2.32001 0.65002,-1.81994 0.63001,-1.40003 0.64001,-1.08002 0.68,-0.82995 0.04,-0.04 1.13001,-0.95001 1.02002,-0.38996 1.01001,0.14997 0.81,0.45001 0.70996,0.54999 0.66003,0.66003 0.63996,0.82001 0.61999,1.02997 0.65003,1.29999 0.66998,1.60003 0.73004,1.96997 0.82001,2.39002 0.89996,2.84997 1.03003,3.36005 1.16998,3.92999 0.29999,1.00995 2.47003,8.40003 -0.11004,-11.08997 -0.03,-2.85004 -0.03,-2.71002 -0.02,-2.46997 -0.02,-2.10999 -0.02,-1.65002 -0.01,-1.07001 -0.01,-0.21997 0.04,-1.54999 0.19,-1.21002 0.14002,-0.52002 0.46997,-1.07995 0.65002,-0.93006 0.70001,-0.60998 0.48999,-0.14997 0.70997,0.29999 0.75,0.76001 0.65002,1.07996 0.27002,0.65002 0.57996,1.25 0.60003,0.60999 0.67999,0.71002 0.78998,1.32001 0.88001,1.89996 0.96002,2.42004 1.01001,2.88996 1.06,3.32001 1.07,3.70001 1.03998,3.88 0.41999,1.60999 0.36999,1.33001 0.28003,0.96003 0.16998,0.47998 0.03,0.03 0.01,-0.38996 0,-1 -0.03,-1.48004 -0.05,-1.84998 -0.06,-2.10998 0,-0.08 -0.04,-1.70001 -0.04,-2.33997 -0.04,-2.86999 -0.04,-3.32001 -0.03,-3.67004 -0.02,-3.94995 -0.02,-4.13001 -0.01,-4.23004 -0.01,-1.44995 -0.01,-3.99005 -0.01,-3.89997 -0.02,-3.75 -0.02,-3.51001 -0.02,-3.17999 -0.02,-2.77002 -0.03,-2.28 -0.03,-1.69998 -0.01,-0.76001 -0.06,-2.04999 -0.02,-1.49002 0.02,-1.08999 0.06,-0.85001 0.10004,-0.75998 0.06,-0.35 0.58001,-2.20002 0.81,-1.72998 0.96997,-1.22 1.09003,-0.66 1.15997,-0.07 1.15003,0.59 0.33996,0.31 0.87,1.1 0.67004,1.44 0.54999,1.94999 0.08,0.38 0.06,0.29001 0.05,0.34 0.05,0.41 0.04,0.54999 0.03,0.72 0.03,0.94 0.03,1.21002 0.02,1.51999 0.01,1.88001 0.02,2.29 0.01,2.72998 0.01,3.22999 0.01,3.77001 0.01,4.34998 0.01,4.99005 0.01,4.63996 0.01,6.05004 0.02,5.35999 0.01,4.70001 0.02,4.04999 0.02,3.44 0.02,2.84998 0.03,2.28003 0.02,1.72998 0.04,1.22998 0.03,0.73004 0.03,0.25 0.15002,0.09 0.12,-0.51001 0.05,-0.53998 0.32,-2.72998 0.46998,-3.19001 0.60003,-3.51001 0.70996,-3.67999 0.78003,-3.70001 0.69,-2.96997 0.48999,-1.87006 0.60999,-2.19 0.69,-2.32996 0.72003,-2.32 0.70002,-2.13001 0.61999,-1.78998 0.37,-0.98004 0.46997,-1.25 0.47003,-1.35998 0.19995,-0.59998 0.52002,-1.49005 0.52002,-0.95996 0.60998,-0.59003 0.22004,-0.13 0.94995,-0.15998 0.91003,0.47999 0.77997,1.04998 0.47003,1.18006 0.29999,1.58996 0.06,1.88001 -0.21002,2.22998 -0.45997,2.61999 -0.15002,0.70001 -1.39001,6.35004 -1.21998,5.90998 -1.04998,5.42999 -0.88001,4.91998 -0.70001,4.37006 -0.15002,1.04998 -0.44001,3.33997 -0.32995,2.86005 -0.23004,2.57995 -0.13996,2.48999 -0.06,2.59003 -0.02,1.57001 0.02,2.63 0.09,1.96997 0.16998,1.37 0.29004,0.83002 0.40998,0.34997 0.58001,-0.0699 0.75,-0.44 0.27002,-0.21002 0.46997,-0.46997 0.57001,-0.76001 0.63,-0.92999 0.59998,-0.99005 0.51001,-0.94996 0.35004,-0.77002 0.12994,-0.48999 -0.13995,-0.32 -0.37,-0.56 -0.51001,-0.69 -0.07,-0.08 -1.28997,-1.81 -0.97003,-1.83001 -0.66999,-1.91999 -0.39001,-2.08001 -0.13001,-2.29999 0,-0.13001 0.13001,-2.44 0.40002,-2.17999 0.67999,-1.96997 0.33997,-0.60004 41.84003,0 0.02,0.94 0.04,1.29999 0.08,1.74005 0.10999,2.26996 0.15997,2.89002 0.03,0.61999 0.14001,2.60999 0.13996,2.36999 0.11004,2.03003 0.1,1.60998 0.06,1.10004 0.04,0.48999 0,0.02 0.14001,-0.20996 0.35004,-0.58002 0.48999,-0.83001 0.32995,-0.56995 0.86005,-1.5 1,-1.81006 1.07996,-2.02997 1.13,-2.13 0.88001,-1.70001 16.39001,0 0.09,2.89001 0.27996,2.51001 0.44001,2.01001 0.19,0.57001 0.28998,0.60998 0.30005,0.20001 0.47998,-0.09 0.52997,-0.28998 0.68005,-0.53003 0.54999,-0.53998 0.73999,-0.96002 0.85998,-1.39996 0.89002,-1.70002 0,0 0.70001,-1.5 0.51996,-1.29003 0.44,-1.33997 0.17999,-0.69 12.04004,0 0.01,0.02 0.17999,-0.10004 0.45997,-0.28998 0.69,-0.44 0.85003,-0.54999 0.83997,-0.55005 1.45001,-0.92999 1.47003,-0.88995 1.43,-0.84003 1.33996,-0.73999 1.18,-0.60999 0.97003,-0.45001 0.64996,-0.25 0.51001,-0.19 0.22003,-0.23999 0,-0.37 0,-0.03 -0.13,-0.68 -0.22003,-1.26001 -0.29999,-1.70001 -0.34998,-2.04999 -0.39001,-2.27002 -0.40998,-2.38995 -0.40002,-2.39002 -0.39002,-2.28997 -0.34997,-2.06 -0.28003,-1.74005 -0.21997,-1.27997 -0.06,-0.42999 -0.23999,-1.47003 -0.17004,-0.87 -0.13001,-0.38001 -0.10998,0.02 -0.08,0.18 -0.13995,0.48999 -0.27002,1.03003 -0.38001,1.46997 -0.45001,1.80999 -0.51001,2.04004 -0.23999,0.95996 -0.60998,2.43 -0.71003,2.77002 -0.77997,2.97003 -0.79998,3.03998 -0.79999,2.96002 -0.75,2.75995 -0.67004,2.41003 -0.54999,1.94 -0.09,0.28998 -0.19995,0.73999 -0.07,0.40003 -12.04004,0 0.25,-0.95001 0.20002,-0.85999 0.69,-3.31 0.45001,-3.09003 0.23999,-3.09997 0.05,-2.53003 -0.13001,-3.76996 -0.40997,-3.36004 -0.69,-3.02997 -0.98999,-2.77002 -0.22998,-0.51996 -0.76001,-1.56006 -0.60004,-1.00995 -0.48999,-0.52002 -0.40997,-0.06 -0.13001,0.08 -0.41998,0.63996 -0.48004,1.26001 -0.51001,1.79003 -0.52997,2.23999 -0.54004,2.59998 -0.52997,2.88001 -0.51001,3.08001 -0.46002,3.17999 -0.41998,3.21998 -0.33997,3.15002 -0.27002,3 -0.10998,1.66998 -0.08,3.19001 -16.39001,0 0.22003,-0.44001 1.03997,-2.03998 0.91004,-1.84002 0.72998,-1.53998 0.33997,-0.73999 1.63,-3.92999 1.41003,-3.84003 1.15998,-3.70996 0.89001,-3.49005 0.60999,-3.23999 0.11999,-0.83997 0.22003,-2.03003 0.04,-1.45001 -0.14996,-0.94995 -0.37006,-0.53003 -0.60998,-0.17999 -0.67999,0.06 -1.65998,0.58997 -1.77002,1.18005 -1.83002,1.72998 -1.85998,2.24 -1.83002,2.70001 -0.98999,1.67999 -0.66998,1.23999 -0.75,1.5 -0.78003,1.65002 -0.76001,1.66999 -0.68994,1.58001 -0.56006,1.39002 -0.38995,1.06 -0.12,0.40997 -0.07,0.34998 -0.05,0.47003 -0.02,0.65997 -41.84003,0 0.65002,-1.17999 1.32001,-1.65998 0.58002,-0.60998 1.32995,-1.30005 1.13001,-1.06 1.01001,-0.90997 0.97998,-0.82001 1.04004,-0.82 1.19995,-0.89002 1.44,-1.01996 0.01,-0.01 1.04004,-0.73004 0.78998,-0.50995 0.62,-0.35003 0.53002,-0.20002 0.51996,-0.1 0.58002,-0.04 0.23999,0 L 710,553.5 l 1.31,0.66998 1.09002,1.09003 0.83997,1.46997 0.31,0.89002 0.30999,1.03997 0.42005,-1.25 0.42999,-0.97998 0.54999,-0.88 0.13,-0.16999 0.43,-0.48999 0.27997,-0.32 0.05,-0.07 -0.04,-0.34003 -0.15998,-0.75 -0.08,-0.36999 -0.16998,-0.72998 -0.27002,-1.27997 -0.35998,-1.70001 -0.41999,-2.01001 -0.45001,-2.21002 -0.20001,-0.95997 -0.44,-2.17004 -0.40003,-1.94995 -0.34997,-1.63001 -0.26001,-1.22003 -0.15998,-0.70001 -0.04,-0.13 -0.15998,0.10003 -0.26001,0.56 -0.14996,0.41998 -0.32001,0.89002 -0.48004,1.20001 -0.54999,1.27997 -0.17999,0.41003 -0.60999,1.26996 -0.57,0.97003 -0.64002,0.83997 -0.84997,0.89001 -0.05,0.05 -0.87006,0.81 -0.65997,0.49005 -0.56,0.25 -0.45001,0.05 -1.02002,-0.32001 -0.85998,-0.91003 -0.66999,-1.40998 -0.42999,-1.79999 -0.13001,-1.92999 0.06,-1.01001 0.16999,-1.44 0.23999,-1.60999 0.11999,-0.68005 0.37006,-1.76996 0.44,-1.72003 0.56995,-1.78998 0.72003,-1.98999 0.91998,-2.29004 0.48999,-1.14996 0.57001,-1.5 0.56,-1.72998 0.44,-1.61005 0.02,-0.08 0.33001,-1.27002 0.31995,-1.03998 0.27002,-0.61005 0.04,-0.06 0.32995,-0.45997 0.46003,-0.75 0.25,-0.46002 0.55999,-0.86999 0.56,-0.44001 0.44,-0.13 0.75,-0.02 0.63001,0.35004 0.61999,0.78998 0.68,1.32 0.14001,0.29999 0.45996,1.09003 0.44001,1.13995 0.44,1.28003 0.46002,1.48999 0.5,1.78003 0.56,2.13995 0.65002,2.58002 0.75,3.10004 0.64996,2.69 0.67005,2.78998 0.67999,2.82 0.65997,2.70997 0.62,2.48004 0.53003,2.11999 0.41998,1.64002 0.1,0.38995 0.42999,1.56 0.5,1.82 0.56006,1.97004 0.56995,2.02996 0.57,1.97004 0.53003,1.82 0.45996,1.54999 0.36005,1.19 0.22998,0.70997 0.06,0.15002 0.03,0.08 0.03,0.07 0.02,0 0,-0.13 -0.01,-0.33002 -0.03,-0.56 -0.05,-0.86999 -0.08,-1.22998 -0.1,-1.65003 -0.15003,-2.10998 -0.16998,-2.65003 -0.21997,-3.22998 -0.26001,-3.88 -0.04,-0.60999 -0.31006,-4.58001 -0.26996,-3.96002 -0.22003,-3.45002 -0.19995,-3.00995 -0.16003,-2.68005 -0.15003,-2.42999 -0.12994,-2.28998 -0.12006,-2.22998 -0.11999,-2.27002 -0.12,-2.39002 -0.10999,-2.36999 -0.15002,-3.22 -0.15997,-3.72 -0.16999,-4.09998 -0.17004,-4.37002 -0.17999,-4.48999 -0.15998,-4.51001 -0.16003,-4.4 -0.14996,-4.16 -0.12,-3.81 -0.10003,-3.31998 -0.0699,-2.47 -0.0601,-2.45001 -0.08,-2.35 -0.07,-2.12 -0.08,-1.73999 -0.06,-1.20001 -0.01,-0.16001 -0.15997,-2.25 -0.10004,-1.67999 -0.03,-1.23999 0.03,-0.94 0.10004,-0.79001 0.15997,-0.75 0.06,-0.20999 0.59003,-1.59 0.77002,-1.06 0.89996,-0.47 0.58002,0.05 0,0 0.79999,0.54001 0.72998,1.03 0.55999,1.33999 0.25,1.16999 z"
         style="fill:#000000;fill-opacity:1;fill-rule:evenodd;stroke:#000000;stroke-width:0.5;stroke-linecap:round;stroke-linejoin:round;stroke-miterlimit:10;stroke-dasharray:none;stroke-opacity:1"
         id="path70"
         inkscape:connector-curvature="0" /></g><g
       id="g72"><path
         d="m 861.98999,602.09998 1.19,1.25 0.96002,1.72003 0.68,2.10998 0.39001,2.45001 0.08,1.18 -0.01,2.44 -0.22003,2.03003 -0.46002,1.84997 -0.15998,0.46998 -0.44,1.09002 -0.53003,0.96002 -0.65997,0.88001 -0.85999,0.87994 -1.10003,0.95001 -0.75,0.60004 -2.85999,2.22998 -2.90997,2.34003 -2.94001,2.41998 -2.92999,2.47998 -2.89001,2.51001 -2.84003,2.51001 -2.73999,2.47998 -2.62,2.44 -2.46997,2.35999 -2.29003,2.25 -2.07996,2.12 -1.85004,1.97003 -1.58001,1.77997 -1.28998,1.57 -0.16999,0.22003 -1.46002,1.93 -1.21002,1.58996 -0.98999,1.29004 -0.81,1.02997 -0.64996,0.83002 -0.53003,0.66998 -0.45996,0.55005 -0.41003,0.47998 -0.21003,0.23999 -1.39996,1.35999 -1.27002,0.78002 -1.10999,0.20002 -0.95001,-0.37006 -0.77997,-0.94995 -0.53003,-1.38001 -0.21002,-0.92004 -0.11999,-1.01996 -0.05,-1.35998 -0.01,-0.95002 0.17004,-3.21002 0.51996,-3.22998 0.87,-3.23004 1.20001,-3.23999 1.54999,-3.22998 0.33002,-0.62 1.19,-2.01001 1.28998,-1.94 L 821.06,636 l 1.66998,-1.98999 1.92004,-2.10004 1.16999,-1.19995 0.89001,-0.92999 0.75995,-0.82001 0.56006,-0.65002 0.33996,-0.44001 0.07,-0.17999 -0.01,0 -0.29999,0.03 -0.47003,0.08 -0.66998,0.15002 -0.85999,0.20001 -1.07,0.26996 -1.29999,0.33002 -1.52002,0.40997 -1.77002,0.48004 -2.01996,0.56 -2.28003,0.63001 -2.55999,0.71997 -2.83997,0.80999 -3.14002,0.89002 -3.45001,0.97998 -3.77002,1.08002 -4.09997,1.17999 -1.79999,0.52002 -4.21002,1.20996 -3.88001,1.12006 -3.58996,1.03997 -3.31,0.96003 -3.07001,0.89996 -2.85003,0.83002 -2.63996,0.77997 -2.48004,0.74005 -2.32001,0.70996 -2.19995,0.66998 -2.10004,0.66003 -2.02996,0.64002 -1.97004,0.63 -1.95001,0.63996 -1.94995,0.65002 -1.97003,0.66998 -2.02002,0.70002 -2.08997,0.72003 -2.19,0.76996 -2.29999,0.82 -2.46002,0.88001 -2.61999,0.94 -2.82001,1.02002 -0.15997,0.05 -3.54004,1.27997 -3.22998,1.17004 -2.96002,1.08997 -2.74,1.01001 -2.53997,0.96002 -2.39002,0.90997 -2.27002,0.88001 -2.19995,0.88 -2.15002,0.87 -2.15998,0.90002 -2.19,0.92999 -2.26001,0.96998 -2.38,1.04003 -2.53003,1.13001 -2.70996,1.20996 -1.66004,0.75 -2.76001,1.23999 -2.47998,1.12 -2.21997,1.02002 -2.03003,0.92999 -1.89001,0.86999 -1.77997,0.84003 -1.72998,0.82001 -1.73004,0.82995 -1.77997,0.86005 -1.86005,0.90997 -1.45996,0.71002 -1.48999,0.73999 -1.77002,0.85999 -1.96002,0.97003 -2.07996,1.01996 -2.14001,1.05005 -2.10999,1.03998 -2.03002,0.98999 -0.97999,0.48999 -1.82,0.89001 -1.85004,0.91998 -1.81995,0.91004 -1.73004,0.86999 -1.60998,0.82001 -1.40998,0.71997 -1.16003,0.60999 -0.72998,0.38 -1.66998,0.91004 -1.80005,0.97998 -1.88996,1.03998 -1.93005,1.05999 -1.90997,1.05005 -1.84003,1.02997 -1.72998,0.96002 -1.56,0.88001 -1.33996,0.76001 -1.08002,0.61999 -0.34003,0.19995 -0.76996,0.46003 -1.04003,0.65002 -1.26001,0.79999 -1.41999,0.89996 -1.52997,0.99005 -1.58001,1.02997 -1.60004,1.04004 -1.53998,1.00995 -1.45001,0.96002 -1.27997,0.85998 -1.09003,0.74 -0.82,0.57 -0.23999,0.16004 -1.08997,0.72998 -0.88,0.41998 -0.76001,0.15002 -0.75,-0.1 -0.07,-0.03 -0.96997,-0.64002 -0.84003,-1.26 -0.65002,-1.79999 -0.05,-0.17999 -0.33002,-2.06 0.01,-2.08002 0.33002,-2.02997 0.65997,-1.90002 0.27002,-0.56 0.16999,-0.29999 0.21002,-0.29999 0.28003,-0.32 0.36999,-0.35999 0.5,-0.42004 0.63996,-0.50995 0.83001,-0.61005 1.03003,-0.73999 1.25995,-0.89001 1.53003,-1.06 1.82001,-1.25 0.92999,-0.63995 3.81,-2.60004 3.72998,-2.52002 3.61004,-2.41998 3.47998,-2.32001 3.32001,-2.19 3.14002,-2.03998 2.92999,-1.89001 2.69995,-1.70997 2.44,-1.53003 2.16004,-1.30999 1.85998,-1.09998 0.05,-0.03 4.14002,-2.35998 3.94,-2.21003 3.78998,-2.08996 3.70001,-2 3.69,-1.92999 3.72003,-1.91004 3.81,-1.89996 3.96997,-1.94 4.19,-2 4.46002,-2.09003 0.73999,-0.34003 2.93,-1.35998 2.77002,-1.26001 2.61999,-1.19 2.52997,-1.12 2.46002,-1.07001 2.44,-1.03997 2.44001,-1.02002 2.48999,-1.00995 2.57,-1.02002 2.69001,-1.04999 2.83996,-1.08002 3.02002,-1.14001 3.26001,-1.20996 3.51001,-1.29004 3.81,-1.39002 1.29999,-0.45996 3.03003,-1.10003 2.81994,-1.01996 2.64002,-0.94001 2.48004,-0.88 2.35998,-0.83002 2.26001,-0.78998 2.20997,-0.76001 2.17004,-0.72998 2.16998,-0.72003 2.02997,-0.66998 68.89001,0 0.09,0.17999 0.09,-0.17999 -0.09,-0.17999 -0.09,0.17999 -68.89001,0 0.17004,-0.05 2.25,-0.73004 2.34998,-0.75 2.46997,-0.77997 2.62006,-0.81 2.79998,-0.85998 3.01996,-0.92004 3.25,-0.98999 3.53003,-1.06 3.83002,-1.15003 1.51996,-0.45996 4.40002,-1.32001 4.09003,-1.22003 3.77997,-1.11999 3.52002,-1.03998 3.26001,-0.96002 3.04998,-0.88001 2.83997,-0.81994 2.67004,-0.75 2.51996,-0.70002 2.40003,-0.66003 2.28998,-0.60999 2.21002,-0.57 2.16998,-0.54999 2.13001,-0.53003 2.13,-0.50995 2.15002,-0.5 2.19996,-0.5 2.26,-0.5 2.35004,-0.52002 2.47998,-0.53003 0.31,-0.0699 2.91998,-0.61005 2.60004,-0.53998 2.28998,-0.45001 2.02002,-0.36999 1.75,-0.28998 1.51001,-0.22003 1.29998,-0.14997 1.09998,-0.07 0.92999,-0.01 0.78003,0.06 0,0 0.64002,0.12 0.53997,0.17999 0.45002,0.25 0.15997,0.10999 z"
         style="fill:#000000;fill-opacity:1;fill-rule:evenodd;stroke:#000000;stroke-width:0.5;stroke-linecap:round;stroke-linejoin:round;stroke-miterlimit:10;stroke-dasharray:none;stroke-opacity:1"
         id="path74"
         inkscape:connector-curvature="0" /></g><g
       id="g180"><path
         d="m 727.15997,455.54999 0.26001,2.17001 0.28003,2.73001 0.28998,3.13999 0.29004,3.42001 0.19995,2.53998 0.17004,2.23001 0.20996,2.72 0.24,2.97 0.25,3 0.24005,2.82001 0.02,0.22 0.23999,2.84 0.21002,2.51999 0.19,2.29 0.16998,2.19001 0.16004,2.19998 0.16998,2.31 0.16998,2.55001 0.19001,2.88999 0.21002,3.36001 0.23999,3.91999 0.07,1.01001 0.27997,4.47 0.27002,4.35998 0.28003,4.20002 0.25995,3.97003 0.24005,3.69995 0.22998,3.36004 0.21002,2.97998 0.18,2.52997 0.14996,2.03003 0.12,1.47998 0.08,0.87 0.04,0.22003 0.16003,-0.22003 0.38001,-0.57996 0.56,-0.88 0.69,-1.11005 0.45001,-0.73999 2.13001,-3.26996 2.07995,-2.74005 2.15003,-2.35999 2.04999,-1.84997 1.70001,-1.22003 1.76001,-0.87 1.71997,-0.48999 1.60998,-0.1 1.42005,0.32995 0.02,0 0.96002,0.56 1,0.82001 0.91998,0.99005 0.73999,1.03998 0.26001,0.48999 0.42004,0.82 0.25,0.24 0.10999,-0.33002 0.01,-0.43 0.15997,-1.72998 0.43,-1.85998 0.64001,-1.84003 0.82001,-1.67999 0.91998,-1.39002 0.42999,-0.46997 0.53003,-0.57 0.12,-0.20001 6.59997,0 0.14002,0.33001 0.38,0.51996 0.52997,0.62006 0.04,0.05 1.57001,2.03998 1.45996,2.65003 1.32001,3.15997 1.15002,3.59003 0.95001,3.91998 0.72998,4.16998 0.45001,4.08002 0.20002,2.59003 1.63995,-5.19001 0.63,-1.97003 0.66004,-2.01001 0.61999,-1.85998 0.52997,-1.52002 0.22003,-0.59998 0.78998,-2.03998 0.65003,-1.5 0.57,-1.01001 0.53998,-0.60998 0.57001,-0.27002 0.63,0.01 0.31,0.07 0.42999,0.09 0.24,0.01 0.01,-0.02 -0.05,-0.35998 -0.15003,-0.91999 -0.22998,-1.39001 -0.29004,-1.75 -0.32995,-2 -0.01,-0.08 -1.14002,-6.61999 -1.15997,-6.43 -1.17999,-6.10998 -1.15003,-5.68002 -1.10998,-5.12998 -0.28003,-1.19 -0.96997,-4.20001 -0.27002,1.07 -0.43,1.62 -0.59002,2.04999 -0.69,2.35 -0.75995,2.5 -0.77002,2.49002 -0.75,2.34 -0.66999,2.04999 -0.45001,1.31 -0.53003,1.51001 -0.57995,1.76999 -0.62006,1.91998 -0.62994,1.99005 -0.60004,1.93994 -0.54999,1.81006 -0.45001,1.57995 -0.34998,1.23005 -0.19,0.79998 -0.03,0.22999 -6.59997,0 0.14001,-0.21003 0.06,-0.36999 -0.06,-0.31 -0.14001,-1.09998 -0.01,-1.46002 0.11999,-1.51996 0.16999,-1.02002 0.24005,-0.73999 0.45996,-1.11999 0.64001,-1.40003 0.78998,-1.58996 0.42999,-0.86005 1,-1.93997 0.81,-1.67001 0.68005,-1.51001 0.56995,-1.47998 0.51001,-1.57001 0.48999,-1.76001 0.51001,-2.07999 0.56,-2.51001 0.61999,-2.94998 0.45002,-2.06 0.54003,-2.35 0.58997,-2.51001 0.63,-2.57999 L 773,482.91 l 0.62,-2.39999 0.57,-2.16 0.5,-1.81 0.40003,-1.37 0.26995,-0.78 0.44001,-0.85 0.59002,-0.87 0.35999,-0.40002 1.11999,-0.78 1.12,-0.08 1.10999,0.60001 1.05004,1.26999 0.81,1.54999 0.45996,1.24002 0.56,1.85 0.65002,2.40998 0.72998,2.90002 0.79004,3.34 0.84998,3.72 0.88,4.03 0.90003,4.29999 0.91998,4.48999 0.90998,4.62002 0.66003,3.47 0.29999,1.60999 0.39001,2.14001 0.48999,2.62 0.54999,3.03998 0.63,3.38 0.66999,3.67999 0.71002,3.90003 0.75,4.05999 0.76001,4.15998 0.76001,4.19 0.76996,4.17004 0.73999,4.07996 0.71002,3.92004 0.67999,3.70996 0.62,3.42005 0.55999,3.08996 0.48005,2.66999 0.39996,2.21002 0.29999,1.66998 0.19,1.08002 0.02,0.12 0.22998,1.26 0.17004,0.94001 0.10999,0.46002 0.01,0.03 -0.01,-0.37 -0.08,-0.95001 -0.11999,-1.41998 -0.15998,-1.78003 -0.16003,-1.66998 -0.16998,-1.85999 -0.22003,-2.44 -0.23999,-2.85999 -0.26996,-3.14001 -0.27002,-3.28998 -0.26001,-3.30005 -0.14002,-1.70996 -0.39996,-5.07001 8.51001,0 0.05,0.19 0.23999,-0.17004 0.46002,-0.54999 0.70996,-0.91998 0.48999,-0.66998 0.83002,-1.18 0.84997,-1.32 0.74005,-1.26001 0.39997,-0.73999 0.52002,-1.03003 0.27997,-0.62 0.08,-0.29999 -0.1,-0.07 -0.26001,0.08 -0.01,0 -0.84998,0.53998 -0.95001,0.98999 -0.98999,1.32001 -0.92004,1.51001 -0.76996,1.59003 -0.43,1.19995 -0.25,0.86999 -0.11999,0.54004 -8.51001,0 -0.02,-0.28003 -0.39002,-4.70001 -0.34997,-4.12994 -0.32001,-3.61005 -0.29999,-3.16998 -0.29003,-2.77997 -0.27997,-2.47003 -0.28003,-2.21002 -0.27997,-2.02997 -0.29999,-1.91999 -0.28003,-1.65002 -0.39996,-2.28998 -0.29004,-1.75 -0.17999,-1.31 -0.1,-1.01001 -0.02,-0.82 0.04,-0.75 0.03,-0.25 0.34998,-1.99002 0.59002,-1.45999 0.82001,-0.91999 1.03998,-0.40002 1.13,0.15002 0.95001,0.78 0.79999,1.41 0.32001,0.87 0.56,1.95999 0.58001,2.55002 0.59998,3.04999 0.59998,3.44 0.57,3.71997 0.53003,3.89001 0.38001,3.20002 0.45996,4.15997 1.26001,-1.92999 1.07,-1.51001 1.24,-1.5 1.28002,-1.34998 1.19001,-1.07001 0.38995,-0.28997 0.82001,-0.40003 1.01001,-0.25 1.10003,-0.08 1.08997,0.07 0.97998,0.22003 0.78003,0.38001 0.19,0.15997 1.19,1.48999 0.93,1.96002 0.65002,2.39002 0.38001,2.78998 0.05,0.82 -0.04,2.73999 -0.38001,2.87 -0.69995,2.97998 -1.01001,3.06006 -1.32001,3.10998 -1.61999,3.15998 -1.91004,3.16003 -0.95996,1.41998 -2.34003,3.39002 0.60004,0.27997 0.31,0.10003 0.60998,0.18 0.84998,0.25 1.07001,0.28998 1.21002,0.33001 1.33997,0.34998 1.39001,0.35998 1.41998,0.37006 1.40003,0.35998 1.32,0.33997 1.21003,0.30005 1.03997,0.25 0.83997,0.19995 0.58002,0.13001 0.28003,0.04 0,0 0.23999,-0.10003 0.20001,-0.39002 0.21997,-0.80999 0.25,-1.22998 0.35004,-1.52002 0.42999,-1.47998 0.38995,-1.08002 0.66004,-1.56 -0.43,-4.58997 -0.20001,-2.29003 -0.21002,-2.57996 -0.19,-2.5 -0.1,-1.59003 -0.35998,-5.08001 -0.39002,-4.5 -0.45001,-4.06 -0.52002,-3.76996 -0.61999,-3.60004 -0.71998,-3.57995 -0.28002,-1.23004 -0.75995,-3.34998 -0.92005,0.22998 -0.83996,0.29999 -0.81,0.44 -0.71002,0.51001 -0.52997,0.54004 -0.28003,0.5 -0.01,0.0699 -0.41998,1.53002 -0.68,1.21998 -0.89001,0.82 -1.03998,0.36005 -0.20001,0.01 -1.16003,-0.29999 -0.95997,-0.89001 -0.77001,-1.47998 -0.56,-2.06 -0.15003,-0.89002 -0.14996,-2.14996 18.22998,0 0.07,0.36999 0.21002,0.89002 0.31,1.26996 0.38995,1.56 0.13001,0.52001 0.60003,2.56 0.59998,2.90998 0.54004,2.92004 0.17999,1.13 0.41998,2.65998 0.41998,2.84997 0.41004,2.92005 0.38995,2.84997 0.35004,2.65003 0.28998,2.32 0.21002,1.84998 0.08,0.85999 0.11999,1.23999 0.12,0.66003 0.13995,0.19 0.10004,-0.04 0.23999,-0.22998 0.48999,-0.51001 0.69,-0.73999 0.84003,-0.90997 0.94,-1.03003 0.03,-0.03 2.31,-2.61999 2,-2.42005 1.67999,-2.25 1.40002,-2.07995 0.06,-0.10004 1.08002,-1.90997 1.01001,-2.08002 0.89996,-2.14001 0.73999,-2.08997 0.55005,-1.94 0.31995,-1.68 0.05,-0.5 0.02,-1.04004 -0.13995,-0.76995 -0.29004,-0.69001 -1.02002,-1.74005 -1.34997,-1.5 -1.27002,-1.01996 -0.87,-0.58001 -0.82001,-0.46002 -0.83996,-0.38996 -0.95002,-0.34003 -1.15997,-0.33996 -0.95001,-0.25 -0.60004,-0.13001 -0.82995,-0.11999 -1.01001,-0.12006 -1.14002,-0.10998 -1.22998,-0.10999 -1.25,-0.1 -1.25,-0.08 -1.17999,-0.06 -1.07001,-0.04 -0.91003,-0.01 -0.69995,0.01 -0.45002,0.04 -0.15002,0.07 -18.22998,0 0,-0.04 0.17999,-2.15997 0.51001,-2.02002 0.33002,-0.84 0.63995,-1.03 0.97003,-1.03 1.31,-1.00998 1.64002,-0.99002 1.95996,-0.97998 2.27002,-0.95001 2.58996,-0.92001 1.60004,-0.50998 3.31,-0.85001 3.28997,-0.51999 3.25001,-0.20001 3.15002,0.12 3.01001,0.42999 2.82001,0.73001 2.59997,1.04001 2.34003,1.33999 0.37994,0.26999 2.09003,1.78 1.85998,2.19001 1.72004,2.70999 0.51996,0.97 0.75,1.51001 0.54003,1.28003 0.41999,1.23999 0.34002,1.33996 0.60999,3.19001 0.31,3.03002 0,3.02997 -0.21003,2.69 -0.64001,4.06 -0.96997,4.04999 -1.32001,4.04004 -1.64996,4.03998 -1.99005,4.03003 -2.33997,4.02997 -2.67999,4.03002 -3.03003,4.03998 -3.37,4.03998 -3.21002,3.5 -0.84997,0.92004 -0.83002,0.91999 -0.69995,0.82 -0.47003,0.58997 -0.59003,0.69 -0.56995,0.38001 -0.71002,0.19 -0.15997,0.02 -1.18005,0.13 0.16003,1.45002 0.06,1.97998 -0.19001,2.10998 -0.41998,1.97003 -0.24005,0.73999 -0.84997,1.83997 -1,1.28003 -1.18,0.76001 -1.40002,0.25 -0.82001,-0.05 -1.57996,-0.33002 -1.91003,-0.59997 -2.22998,-0.86005 -2.54999,-1.13 -2.86999,-1.38996 -0.10004,-0.06 -1.20996,-0.60004 -1.10004,-0.53998 -0.94,-0.44 -0.73999,-0.34003 -0.48999,-0.20996 -0.19,-0.05 0,0 0.02,0.38001 0.11999,0.91003 0.19,1.32001 0.25,1.57996 0,0.02 0.43,3.16999 0.21002,2.78003 -0.03,2.53997 -0.20001,2.16004 -0.39002,1.82996 -0.63995,1.49005 -0.79004,1.03997 -0.88995,0.52997 -0.92005,-0.09 -0.11999,-0.06 -0.69001,-0.56 -0.78997,-0.91003 -0.78003,-1.09998 -0.65998,-1.13 -0.40002,-0.94 -0.42999,-1.29999 0,1.27002 -0.05,1.39996 -0.12,1.72003 -0.16003,1.73999 -0.17999,1.44 -0.05,0.28998 -0.47998,1.73999 -0.70001,1.29004 -0.84998,0.82001 -0.92004,0.31995 -0.93,-0.20997 -0.86999,-0.77002 -0.57001,-0.96002 -0.56,-1.26996 -0.46997,-1.30999 -0.44,-1.45002 -0.41998,-1.72998 -0.43005,-2.10003 -0.47998,-2.59998 -0.39002,-2.26001 -0.37,-2.19 -0.33996,-1.98999 -0.29004,-1.66003 -0.21997,-1.22998 -0.14002,-0.71003 -0.02,-0.10998 -0.19001,-0.26996 -0.35998,0.04 -0.26996,0.13 -0.46002,0.20996 -0.70002,0.26001 -0.83001,0.28003 -0.57996,0.19 -0.86004,0.31 -1.13996,0.48999 -1.36004,0.65003 -1.53998,0.77996 -1.65003,0.87 -1.71997,0.94 -1.72998,0.97003 -1.67999,0.98999 -1.59003,0.95997 -1.44,0.92004 -0.58002,0.38995 -1.53998,0.99005 -1.26001,0.71998 -1.02996,0.42999 -0.84003,0.16003 -0.70001,-0.11999 -0.59998,-0.39002 -0.54004,-0.66003 -0.37994,-0.63001 -0.18005,-0.26996 -0.16999,-0.09 -0.26001,0.13 -0.38995,0.41004 -0.60004,0.70996 -0.28998,0.35998 -1.85998,1.97003 -1.82001,1.27002 -1.79004,0.56995 -1.76001,-0.10999 -1.60998,-0.72998 -1.42999,-1.34997 -1.25001,-1.96002 -1.05999,-2.54999 -0.88001,-3.14002 -0.67999,-3.73999 -0.19,-1.38 -0.35999,-2.91998 -1.60003,4.16998 -1.79999,4.46997 -1.89002,4.31 -1.90997,4.03003 -1.90002,3.65997 -1.83997,3.17999 -1.03003,1.60004 -0.76001,1.15997 -0.52997,0.85004 -0.34002,0.64996 -0.19001,0.54999 -0.1,0.55005 -0.04,0.35998 -0.31,2.02997 -0.56,1.56 -0.78002,1.04004 -0.96998,0.45996 -0.24005,0.01 -1.02997,-0.21997 -0.84002,-0.72003 -0.76996,-1.32996 -0.01,-0.01 -0.38001,-0.75 -0.28997,-0.46002 -0.10004,-0.08 -0.34998,-0.28998 -0.45001,-0.77001 -0.47003,-1.07996 -0.42999,-1.21002 -0.32996,-1.19 -0.17004,-0.99 0,-0.19 -0.1,-0.58002 -0.22998,-0.80999 -0.28003,-0.81 -0.25,-0.54999 -0.10998,-0.10998 -0.22003,0.13 -0.46998,0.35999 -0.67999,0.55999 -0.82001,0.69001 -0.48999,0.41998 -1.11999,0.94 -1.25,1 -1.23999,0.94001 -1.08002,0.78002 -0.10003,0.06 -1.33997,0.92999 -1.16998,0.85999 -1.09003,0.85999 -1.09998,0.95001 -1.21002,1.09997 -1.40002,1.33002 -0.40998,0.40002 -1.39001,1.29999 -1.15997,0.96002 -0.97003,0.63996 -0.84998,0.36004 -0.79004,0.10999 -0.73999,-0.10999 -1.17999,-0.64001 -1.04999,-1.25 -0.89001,-1.73999 -0.64997,-2.15003 -0.34002,-2.09997 -0.10999,-1.85004 0.06,-1.91998 0.22998,-2.16998 0.35003,-2.16004 0.18,-0.97998 0.19,-0.97003 0.23999,-1.02997 0.29999,-1.16998 0.36999,-1.38001 0.47998,-1.67999 0.08,-0.26001 9.56,0 0.17999,-0.13 0.44,-0.37 0.65003,-0.54999 0.78998,-0.68005 0.42999,-0.37994 1.08002,-0.90003 1.17999,-0.95001 1.15002,-0.88001 0.98999,-0.70001 0.06,-0.04 0.78998,-0.54999 0.64001,-0.48999 0.44,-0.39002 0.18,-0.23999 0,-0.01 -0.08,-0.40002 -0.22998,-0.89997 -0.33997,-1.23999 -0.42004,-1.48004 -0.03,-0.1 -0.57001,-2 -0.63,-2.27002 -0.60999,-2.20996 -0.32,-1.18006 -0.40003,-1.44995 -0.34997,-1.15002 -0.25,-0.75 -0.13001,-0.23999 0,0.01 -0.1,0.41998 -0.19001,0.95001 -0.25,1.33002 -0.24005,1.31995 -0.36999,1.96002 -0.44995,2.34002 -0.52002,2.56 -0.53003,2.60999 -0.52997,2.5 -0.47998,2.21997 -0.41003,1.79004 -0.14002,0.55999 -0.23999,1.04999 -0.15997,0.73999 -0.03,0.27002 -9.56,0 0.52002,-1.77002 0.72998,-2.46997 0.90002,-2.98004 0.25,-0.82996 0.60999,-2.04003 0.64001,-2.22999 0.66999,-2.34997 0.65002,-2.36005 0.62,-2.28998 0.57,-2.13 0.48999,-1.88001 0.38001,-1.54998 0.26001,-1.10999 0.10998,-0.61004 0,-0.04 -0.11999,0.09 -0.33002,0.45997 -0.46002,0.74999 -0.13995,0.24 -0.80005,1.30999 -0.73999,1.04004 -0.75,0.83002 -0.84998,0.70996 -1.01001,0.64001 -1.27002,0.65003 -0.35998,0.17999 -1.12,0.53998 -0.79999,0.44 -0.53002,0.34998 -0.28998,0.29004 -0.08,0.23999 0,0.01 0.08,0.59997 0.15997,1.02002 0.15002,0.87 0.33002,2.83996 0.01,3.02002 -0.28998,3.10999 -0.58996,3.09002 -0.66004,2.33997 -1.36999,3.63001 -1.54999,3.16003 -1.71002,2.63 -1.82001,2.06 -1.90997,1.42999 -1.96002,0.77997 -0.24,0.05 -1.58996,-0.07 -1.58002,-0.72003 -1.5,-1.32 -1.36999,-1.83997 -1.15002,-2.3199 -0.17999,-0.46002 -0.83002,-2.17999 -0.13,2.10003 -0.23999,2.70996 -0.34998,2.16004 -0.48999,1.76001 -0.44,1.02997 -0.92004,1.45001 -1.00995,0.81 -1.05005,0.14001 -1.04999,-0.52002 -0.62,-0.67999 -0.46002,-0.71002 -0.45996,-0.93 -0.47003,-1.21002 -0.51001,-1.52997 -0.54999,-1.91998 -0.59997,-2.35004 -0.69001,-2.82995 -0.77002,-3.36005 -0.86999,-3.95996 -0.52997,-2.45001 -0.64001,-2.95001 -0.71002,-3.21002 -0.72999,-3.26996 -0.71002,-3.14002 -0.64996,-2.79999 -0.34003,-1.44 6.83002,0 0.07,0.28998 0.05,-0.06 0.02,-0.41998 -0.02,-0.05 -0.10998,0.05 -0.01,0.19 -6.83002,0 -0.03,-0.16003 -1.77002,-7.47998 -0.09,14.46002 -0.1,14.45996 0.69,2.86005 0.33002,1.30999 0.45996,1.72998 0.54999,1.99 0.58002,2.04998 0.34002,1.15003 0.69001,2.36999 0.53997,1.85999 0.39002,1.44 0.27002,1.10999 0.16998,0.90002 0.1,0.76001 0.04,0.71997 0.01,0.67999 -0.15998,2.18006 -0.41998,1.86999 -0.66003,1.5 -0.82001,1.07001 -0.94,0.56995 -1.00995,0.02 -1.02002,-0.58001 -0.41999,-0.43 -0.38,-0.61999 -0.51001,-1.07001 -0.59003,-1.36999 -0.59997,-1.52997 -0.56,-1.53003 -0.46002,-1.38001 -0.20996,-0.73998 -0.26001,-0.91999 -0.21002,-0.41003 -0.28998,-0.06 -0.25,0.08 -0.79999,0.35998 -1.09003,0.57001 -1.33002,0.75 -1.51995,0.91003 -1.66004,1.03998 -1.76001,1.15003 -1.82995,1.20996 -0.63001,0.44 -2.41003,1.63 -2.12,1.35999 -1.84997,1.10004 -1.61005,0.85998 -1.37994,0.62 -1.20002,0.39001 -1.02002,0.16998 -0.88,-0.04 -0.77002,-0.23999 -0.67999,-0.42005 -0.09,-0.08 -0.75,-0.97003 -0.66003,-1.41999 -0.45996,-1.61999 -0.08,-0.47003 -0.21997,-1.51996 -1.04004,1.92999 -2.14001,3.89996 -2.19001,3.75 -2.26996,3.68 -2.40002,3.68005 -2.58997,3.75 -2.82,3.90997 -2.41004,3.21002 -2.56,3.34998 -2.51,3.22998 -2.44996,3.09003 -2.35003,2.91998 -2.22998,2.72998 -2.10004,2.5 -1.92999,2.24005 -1.72998,1.94995 -1.52002,1.63001 -1.27997,1.30005 -0.98999,0.88995 -1.14002,0.72003 -1.16998,0.34998 -1.09003,-0.03 -0.92999,-0.42999 -0.19,-0.15003 -1.02002,-1.29999 -0.70996,-1.60998 -0.42004,-1.96002 -0.10999,-2.04999 0.16998,-2.48999 0.51001,-2.37006 0.84003,-2.21997 1.08002,-1.90002 0.35998,-0.47998 0.63001,-0.77002 0.84997,-1 1.03003,-1.16999 1.14997,-1.28997 1.23004,-1.37 0.63995,-0.70001 2.20001,-2.41003 2.23999,-2.47998 2.25,-2.52002 2.22003,-2.50995 2.16999,-2.47003 2.08001,-2.40003 1.95002,-2.26996 1.80999,-2.11999 1.60999,-1.94001 1.39996,-1.70001 1.15003,-1.42999 0.69,-0.91003 2.71997,-3.75 2.61005,-3.82996 2.47998,-3.87 2.30999,-3.84002 2.10999,-3.76001 0.81,-1.57001 17.59002,0 3,-2.23999 1.09998,-0.79999 1.13001,-0.78003 1.04998,-0.69 0.88001,-0.52997 0.46002,-0.25 0.75,-0.39001 0.46997,-0.29999 0.24005,-0.26001 0.07,-0.28998 -0.02,-0.28003 -0.14002,-0.63995 -0.24999,-1.04004 -0.33997,-1.29999 -0.38001,-1.40997 -0.38,-1.38001 -0.35004,-1.23004 -0.27997,-0.90997 -0.17004,-0.47998 -0.02,-0.03 -0.15002,0.26001 -0.33002,0.71997 -0.44995,1.06 -0.55005,1.31 -0.11999,0.29003 -0.69996,1.65998 -0.84002,1.95001 -0.89002,1.98999 -0.82995,1.82001 -0.09,0.17999 -1.87,3.98999 -17.59002,0 1.06,-2.04999 1.60003,-3.41998 0.70996,-1.66998 0.71002,-1.76001 0.64002,-1.68 0.54999,-1.51001 0.41998,-1.25 0.27002,-0.90002 0.08,-0.45996 0,-0.02 -0.19001,0 -0.46002,0.10999 -0.65997,0.20001 -0.67004,0.22998 -2.18,0.94 -2.38995,1.35004 -2.55005,1.72998 -2.67999,2.04999 -2.73999,2.34997 -2.75,2.60004 -2.07001,2.11999 -2.08997,2.21997 -1.80004,1.90003 -1.54999,1.61999 -1.32001,1.35999 -1.10998,1.11004 -0.94001,0.89997 -0.77997,0.71002 -0.65002,0.52997 -0.56,0.39001 -0.47003,0.26001 -0.42999,0.15998 -0.40998,0.09 -0.41003,0.03 -0.04,0 -1.14996,-0.26996 -0.97003,-0.85998 -0.77997,-1.47004 -0.37006,-1.08001 -0.40997,-1.84998 -0.15997,-1.91998 0.1,-2.02002 0.38001,-2.14002 0.65997,-2.29998 0.94,-2.5 1.23999,-2.72998 1.55005,-2.98999 0.46997,-0.85004 4.26001,-7.89996 4.15003,-8.10004 3.95996,-8.17999 3.71002,-8.13001 1.20996,-2.77002 0.52002,-1.22998 0.67999,-1.63 0.82001,-1.95996 0.90002,-2.20002 0.96998,-2.35998 1,-2.45001 1,-2.46002 0.96002,-2.39002 0.89996,-2.23999 0.80005,-2 0.67999,-1.70001 0.51001,-1.31 0.32001,-0.84998 0,0 0.71997,-1.51 0.88,-1.06 0.93,-0.52002 0.28003,-0.03 0.92999,0.29999 0.82001,0.81 0.65997,1.22003 0.44,1.50995 0.18,1.69 -0.04,0.98004 -0.20002,1.27997 -0.34997,1.44 -0.43005,1.38001 -0.43,1.07 -0.25,0.40998 -0.22998,0.41003 -0.40997,0.89996 -0.59003,1.31 -0.71002,1.65002 -0.82001,1.93 -0.87994,2.13 -0.65003,1.58002 -1.53002,3.70996 -1.33997,3.24005 -1.19,2.87 -1.09003,2.57995 -1.02997,2.38001 -1,2.27002 -1,2.25 -1.06,2.32 -1.14001,2.47999 -0.19,0.41003 -1.27002,2.75 -1.06,2.27997 -0.84998,1.84002 -0.66003,1.45002 -0.5,1.09997 -0.34998,0.79999 -0.21002,0.53003 -0.10998,0.31 0,0.13995 0.07,-0.01 0.11999,-0.10003 0.13,-0.10999 0.41999,-0.38 0.64001,-0.57001 0.75,-0.68 0.45001,-0.40997 2.47999,-2.11999 2.51001,-1.90003 2.46002,-1.65002 2.36999,-1.35999 2.20001,-1.02002 0.06,-0.02 7.78998,0 0.76001,0.78998 1.08997,1.52002 0.86999,2 0.63001,2.39002 0.36004,2.64996 0.06,2.81 -0.07,1.16998 -0.25,2.33002 -0.40002,2.30999 -0.57001,2.45002 -0.78998,2.72998 -0.36999,1.19 -0.15003,0.48999 -0.04,0.25 0.09,-0.03 0.26001,-0.35998 0.44,-0.71003 0.65003,-1.09997 0.88,-1.53003 0.14002,-0.25 0.86999,-1.52997 0.88996,-1.66003 0.84002,-1.60999 0.67999,-1.38 0.13001,-0.27997 0.54999,-1.23004 0.65002,-1.46997 0.69,-1.62 0.69001,-1.67004 0.66998,-1.63001 0.60998,-1.48999 0.49,-1.26001 0.35003,-0.94995 0.16998,-0.52002 0.01,-0.07 -0.09,-0.46998 -0.25,-0.97003 -0.38996,-1.39001 -0.49005,-1.70996 -0.56994,-1.92005 -0.62006,-2.05999 -0.62994,-2.08997 -0.63001,-2.03003 -0.59002,-1.88 -0.52997,-1.63001 -0.43006,-1.29999 -0.29999,-0.84997 -0.13,-0.28998 -0.13,-0.09 -0.19001,0.16999 -0.26996,0.51001 -0.40002,0.90002 -0.54999,1.38 -0.36999,0.91999 -0.72998,1.91998 -0.80005,2.15002 -0.76996,2.14002 -0.65003,1.84997 -0.03,0.08 -1.34003,3.92999 -7.78998,0 1.91998,-0.64001 0.15003,-0.04 0.97998,-0.23004 -0.25,-1.5 -0.16003,-1.19995 -0.03,-1.14002 0.11999,-1.19 0.28998,-1.36999 0.48004,-1.66004 0.69,-2.07 0.03,-0.09 0.63001,-1.92999 0.71002,-2.31 0.71997,-2.42004 0.63001,-2.26996 0.11999,-0.44001 0.79004,-2.91003 0.69995,-2.32001 0.65002,-1.81994 0.63001,-1.40003 0.64001,-1.08002 0.68,-0.82995 0.04,-0.04 1.13001,-0.95001 1.02002,-0.38996 1.01001,0.14997 0.81,0.45001 0.70996,0.54999 0.66003,0.66003 0.63996,0.82001 0.61999,1.02997 0.65003,1.29999 0.66998,1.60003 0.73004,1.96997 0.82001,2.39002 0.89996,2.84997 1.03003,3.36005 1.16998,3.92999 0.29999,1.00995 2.47003,8.40003 -0.11004,-11.08997 -0.03,-2.85004 -0.03,-2.71002 -0.02,-2.46997 -0.02,-2.10999 -0.02,-1.65002 -0.01,-1.07001 -0.01,-0.21997 0.04,-1.54999 0.19,-1.21002 0.14002,-0.52002 0.46997,-1.07995 0.65002,-0.93006 0.70001,-0.60998 0.48999,-0.14997 0.70997,0.29999 0.75,0.76001 0.65002,1.07996 0.27002,0.65002 0.57996,1.25 0.60003,0.60999 0.67999,0.71002 0.78998,1.32001 0.88001,1.89996 0.96002,2.42004 1.01001,2.88996 1.06,3.32001 1.07,3.70001 1.03998,3.88 0.41999,1.60999 0.36999,1.33001 0.28003,0.96003 0.16998,0.47998 0.03,0.03 0.01,-0.38996 0,-1 -0.03,-1.48004 -0.05,-1.84998 -0.06,-2.10998 0,-0.08 -0.04,-1.70001 -0.04,-2.33997 -0.04,-2.86999 -0.04,-3.32001 -0.03,-3.67004 -0.02,-3.94995 -0.02,-4.13001 -0.01,-4.23004 -0.01,-1.44995 -0.01,-3.99005 -0.01,-3.89997 -0.02,-3.75 -0.02,-3.51001 -0.02,-3.17999 -0.02,-2.77002 -0.03,-2.28 -0.03,-1.69998 -0.01,-0.76001 -0.06,-2.04999 -0.02,-1.49002 0.02,-1.08999 0.06,-0.85001 0.10004,-0.75998 0.06,-0.35 0.58001,-2.20002 0.81,-1.72998 0.96997,-1.22 1.09003,-0.66 1.15997,-0.07 1.15003,0.59 0.33996,0.31 0.87,1.1 0.67004,1.44 0.54999,1.94999 0.08,0.38 0.06,0.29001 0.05,0.34 0.05,0.41 0.04,0.54999 0.03,0.72 0.03,0.94 0.03,1.21002 0.02,1.51999 0.01,1.88001 0.02,2.29 0.01,2.72998 0.01,3.22999 0.01,3.77001 0.01,4.34998 0.01,4.99005 0.01,4.63996 0.01,6.05004 0.02,5.35999 0.01,4.70001 0.02,4.04999 0.02,3.44 0.02,2.84998 0.03,2.28003 0.02,1.72998 0.04,1.22998 0.03,0.73004 0.03,0.25 0.15002,0.09 0.12,-0.51001 0.05,-0.53998 0.32,-2.72998 0.46998,-3.19001 0.60003,-3.51001 0.70996,-3.67999 0.78003,-3.70001 0.69,-2.96997 0.48999,-1.87006 0.60999,-2.19 0.69,-2.32996 0.72003,-2.32 0.70002,-2.13001 0.61999,-1.78998 0.37,-0.98004 0.46997,-1.25 0.47003,-1.35998 0.19995,-0.59998 0.52002,-1.49005 0.52002,-0.95996 0.60998,-0.59003 0.22004,-0.13 0.94995,-0.15998 0.91003,0.47999 0.77997,1.04998 0.47003,1.18006 0.29999,1.58996 0.06,1.88001 -0.21002,2.22998 -0.45997,2.61999 -0.15002,0.70001 -1.39001,6.35004 -1.21998,5.90998 -1.04998,5.42999 -0.88001,4.91998 -0.70001,4.37006 -0.15002,1.04998 -0.44001,3.33997 -0.32995,2.86005 -0.23004,2.57995 -0.13996,2.48999 -0.06,2.59003 -0.02,1.57001 0.02,2.63 0.09,1.96997 0.16998,1.37 0.29004,0.83002 0.40998,0.34997 0.58001,-0.0699 0.75,-0.44 0.27002,-0.21002 0.46997,-0.46997 0.57001,-0.76001 0.63,-0.92999 0.59998,-0.99005 0.51001,-0.94996 0.35004,-0.77002 0.12994,-0.48999 -0.13995,-0.32 -0.37,-0.56 -0.51001,-0.69 -0.07,-0.08 -1.28997,-1.81 -0.97003,-1.83001 -0.66999,-1.91999 -0.39001,-2.08001 -0.13001,-2.29999 0,-0.13001 0.13001,-2.44 0.40002,-2.17999 0.67999,-1.96997 0.33997,-0.60004 41.84003,0 0.02,0.94 0.04,1.29999 0.08,1.74005 0.10999,2.26996 0.15997,2.89002 0.03,0.61999 0.14001,2.60999 0.13996,2.36999 0.11004,2.03003 0.1,1.60998 0.06,1.10004 0.04,0.48999 0,0.02 0.14001,-0.20996 0.35004,-0.58002 0.48999,-0.83001 0.32995,-0.56995 0.86005,-1.5 1,-1.81006 1.07996,-2.02997 1.13,-2.13 0.88001,-1.70001 16.39001,0 0.09,2.89001 0.27996,2.51001 0.44001,2.01001 0.19,0.57001 0.28998,0.60998 0.30005,0.20001 0.47998,-0.09 0.52997,-0.28998 0.68005,-0.53003 0.54999,-0.53998 0.73999,-0.96002 0.85998,-1.39996 0.89002,-1.70002 0,0 0.70001,-1.5 0.51996,-1.29003 0.44,-1.33997 0.17999,-0.69 12.04004,0 0.01,0.02 0.17999,-0.10004 0.45997,-0.28998 0.69,-0.44 0.85003,-0.54999 0.83997,-0.55005 1.45001,-0.92999 1.47003,-0.88995 1.43,-0.84003 1.33996,-0.73999 1.18,-0.60999 0.97003,-0.45001 0.64996,-0.25 0.51001,-0.19 0.22003,-0.23999 0,-0.37 0,-0.03 -0.13,-0.68 -0.22003,-1.26001 -0.29999,-1.70001 -0.34998,-2.04999 -0.39001,-2.27002 -0.40998,-2.38995 -0.40002,-2.39002 -0.39002,-2.28997 -0.34997,-2.06 -0.28003,-1.74005 -0.21997,-1.27997 -0.06,-0.42999 -0.23999,-1.47003 -0.17004,-0.87 -0.13001,-0.38001 -0.10998,0.02 -0.08,0.18 -0.13995,0.48999 -0.27002,1.03003 -0.38001,1.46997 -0.45001,1.80999 -0.51001,2.04004 -0.23999,0.95996 -0.60998,2.43 -0.71003,2.77002 -0.77997,2.97003 -0.79998,3.03998 -0.79999,2.96002 -0.75,2.75995 -0.67004,2.41003 -0.54999,1.94 -0.09,0.28998 -0.19995,0.73999 -0.07,0.40003 -12.04004,0 0.25,-0.95001 0.20002,-0.85999 0.69,-3.31 0.45001,-3.09003 0.23999,-3.09997 0.05,-2.53003 -0.13001,-3.76996 -0.40997,-3.36004 -0.69,-3.02997 -0.98999,-2.77002 -0.22998,-0.51996 -0.76001,-1.56006 -0.60004,-1.00995 -0.48999,-0.52002 -0.40997,-0.06 -0.13001,0.08 -0.41998,0.63996 -0.48004,1.26001 -0.51001,1.79003 -0.52997,2.23999 -0.54004,2.59998 -0.52997,2.88001 -0.51001,3.08001 -0.46002,3.17999 -0.41998,3.21998 -0.33997,3.15002 -0.27002,3 -0.10998,1.66998 -0.08,3.19001 -16.39001,0 0.22003,-0.44001 1.03997,-2.03998 0.91004,-1.84002 0.72998,-1.53998 0.33997,-0.73999 1.63,-3.92999 1.41003,-3.84003 1.15998,-3.70996 0.89001,-3.49005 0.60999,-3.23999 0.11999,-0.83997 0.22003,-2.03003 0.04,-1.45001 -0.14996,-0.94995 -0.37006,-0.53003 -0.60998,-0.17999 -0.67999,0.06 -1.65998,0.58997 -1.77002,1.18005 -1.83002,1.72998 -1.85998,2.24 -1.83002,2.70001 -0.98999,1.67999 -0.66998,1.23999 -0.75,1.5 -0.78003,1.65002 -0.76001,1.66999 -0.68994,1.58001 -0.56006,1.39002 -0.38995,1.06 -0.12,0.40997 -0.07,0.34998 -0.05,0.47003 -0.02,0.65997 -41.84003,0 0.65002,-1.17999 1.32001,-1.65998 0.58002,-0.60998 1.32995,-1.30005 1.13001,-1.06 1.01001,-0.90997 0.97998,-0.82001 1.04004,-0.82 1.19995,-0.89002 1.44,-1.01996 0.01,-0.01 1.04004,-0.73004 0.78998,-0.50995 0.62,-0.35003 0.53002,-0.20002 0.51996,-0.1 0.58002,-0.04 0.23999,0 L 710,553.5 l 1.31,0.66998 1.09002,1.09003 0.83997,1.46997 0.31,0.89002 0.30999,1.03997 0.42005,-1.25 0.42999,-0.97998 0.54999,-0.88 0.13,-0.16999 0.43,-0.48999 0.27997,-0.32 0.05,-0.07 -0.04,-0.34003 -0.15998,-0.75 -0.08,-0.36999 -0.16998,-0.72998 -0.27002,-1.27997 -0.35998,-1.70001 -0.41999,-2.01001 -0.45001,-2.21002 -0.20001,-0.95997 -0.44,-2.17004 -0.40003,-1.94995 -0.34997,-1.63001 -0.26001,-1.22003 -0.15998,-0.70001 -0.04,-0.13 -0.15998,0.10003 -0.26001,0.56 -0.14996,0.41998 -0.32001,0.89002 -0.48004,1.20001 -0.54999,1.27997 -0.17999,0.41003 -0.60999,1.26996 -0.57,0.97003 -0.64002,0.83997 -0.84997,0.89001 -0.05,0.05 -0.87006,0.81 -0.65997,0.49005 -0.56,0.25 -0.45001,0.05 -1.02002,-0.32001 -0.85998,-0.91003 -0.66999,-1.40998 -0.42999,-1.79999 -0.13001,-1.92999 0.06,-1.01001 0.16999,-1.44 0.23999,-1.60999 0.11999,-0.68005 0.37006,-1.76996 0.44,-1.72003 0.56995,-1.78998 0.72003,-1.98999 0.91998,-2.29004 0.48999,-1.14996 0.57001,-1.5 0.56,-1.72998 0.44,-1.61005 0.02,-0.08 0.33001,-1.27002 0.31995,-1.03998 0.27002,-0.61005 0.04,-0.06 0.32995,-0.45997 0.46003,-0.75 0.25,-0.46002 0.55999,-0.86999 0.56,-0.44001 0.44,-0.13 0.75,-0.02 0.63001,0.35004 0.61999,0.78998 0.68,1.32 0.14001,0.29999 0.45996,1.09003 0.44001,1.13995 0.44,1.28003 0.46002,1.48999 0.5,1.78003 0.56,2.13995 0.65002,2.58002 0.75,3.10004 0.64996,2.69 0.67005,2.78998 0.67999,2.82 0.65997,2.70997 0.62,2.48004 0.53003,2.11999 0.41998,1.64002 0.1,0.38995 0.42999,1.56 0.5,1.82 0.56006,1.97004 0.56995,2.02996 0.57,1.97004 0.53003,1.82 0.45996,1.54999 0.36005,1.19 0.22998,0.70997 0.06,0.15002 0.03,0.08 0.03,0.07 0.02,0 0,-0.13 -0.01,-0.33002 -0.03,-0.56 -0.05,-0.86999 -0.08,-1.22998 -0.1,-1.65003 -0.15003,-2.10998 -0.16998,-2.65003 -0.21997,-3.22998 -0.26001,-3.88 -0.04,-0.60999 -0.31006,-4.58001 -0.26996,-3.96002 -0.22003,-3.45002 -0.19995,-3.00995 -0.16003,-2.68005 -0.15003,-2.42999 -0.12994,-2.28998 -0.12006,-2.22998 -0.11999,-2.27002 -0.12,-2.39002 -0.10999,-2.36999 -0.15002,-3.22 -0.15997,-3.72 -0.16999,-4.09998 -0.17004,-4.37002 -0.17999,-4.48999 -0.15998,-4.51001 -0.16003,-4.4 -0.14996,-4.16 -0.12,-3.81 -0.10003,-3.31998 -0.0699,-2.47 -0.0601,-2.45001 -0.08,-2.35 -0.07,-2.12 -0.08,-1.73999 -0.06,-1.20001 -0.01,-0.16001 -0.15997,-2.25 -0.10004,-1.67999 -0.03,-1.23999 0.03,-0.94 0.10004,-0.79001 0.15997,-0.75 0.06,-0.20999 0.59003,-1.59 0.77002,-1.06 0.89996,-0.47 0.58002,0.05 0,0 0.79999,0.54001 0.72998,1.03 0.55999,1.33999 0.25,1.16999 z"
         style="fill:#008484;fill-opacity:1;fill-rule:evenodd;stroke:#008484;stroke-width:0.5;stroke-linecap:round;stroke-linejoin:round;stroke-miterlimit:10;stroke-dasharray:none;stroke-opacity:1"
         id="path182"
         inkscape:connector-curvature="0" /></g><g
       id="g184"><path
         d="m 861.98999,602.09998 1.19,1.25 0.96002,1.72003 0.68,2.10998 0.39001,2.45001 0.08,1.18 -0.01,2.44 -0.22003,2.03003 -0.46002,1.84997 -0.15998,0.46998 -0.44,1.09002 -0.53003,0.96002 -0.65997,0.88001 -0.85999,0.87994 -1.10003,0.95001 -0.75,0.60004 -2.85999,2.22998 -2.90997,2.34003 -2.94001,2.41998 -2.92999,2.47998 -2.89001,2.51001 -2.84003,2.51001 -2.73999,2.47998 -2.62,2.44 -2.46997,2.35999 -2.29003,2.25 -2.07996,2.12 -1.85004,1.97003 -1.58001,1.77997 -1.28998,1.57 -0.16999,0.22003 -1.46002,1.93 -1.21002,1.58996 -0.98999,1.29004 -0.81,1.02997 -0.64996,0.83002 -0.53003,0.66998 -0.45996,0.55005 -0.41003,0.47998 -0.21003,0.23999 -1.39996,1.35999 -1.27002,0.78002 -1.10999,0.20002 -0.95001,-0.37006 -0.77997,-0.94995 -0.53003,-1.38001 -0.21002,-0.92004 -0.11999,-1.01996 -0.05,-1.35998 -0.01,-0.95002 0.17004,-3.21002 0.51996,-3.22998 0.87,-3.23004 1.20001,-3.23999 1.54999,-3.22998 0.33002,-0.62 1.19,-2.01001 1.28998,-1.94 L 821.06,636 l 1.66998,-1.98999 1.92004,-2.10004 1.16999,-1.19995 0.89001,-0.92999 0.75995,-0.82001 0.56006,-0.65002 0.33996,-0.44001 0.07,-0.17999 -0.01,0 -0.29999,0.03 -0.47003,0.08 -0.66998,0.15002 -0.85999,0.20001 -1.07,0.26996 -1.29999,0.33002 -1.52002,0.40997 -1.77002,0.48004 -2.01996,0.56 -2.28003,0.63001 -2.55999,0.71997 -2.83997,0.80999 -3.14002,0.89002 -3.45001,0.97998 -3.77002,1.08002 -4.09997,1.17999 -1.79999,0.52002 -4.21002,1.20996 -3.88001,1.12006 -3.58996,1.03997 -3.31,0.96003 -3.07001,0.89996 -2.85003,0.83002 -2.63996,0.77997 -2.48004,0.74005 -2.32001,0.70996 -2.19995,0.66998 -2.10004,0.66003 -2.02996,0.64002 -1.97004,0.63 -1.95001,0.63996 -1.94995,0.65002 -1.97003,0.66998 -2.02002,0.70002 -2.08997,0.72003 -2.19,0.76996 -2.29999,0.82 -2.46002,0.88001 -2.61999,0.94 -2.82001,1.02002 -0.15997,0.05 -3.54004,1.27997 -3.22998,1.17004 -2.96002,1.08997 -2.74,1.01001 -2.53997,0.96002 -2.39002,0.90997 -2.27002,0.88001 -2.19995,0.88 -2.15002,0.87 -2.15998,0.90002 -2.19,0.92999 -2.26001,0.96998 -2.38,1.04003 -2.53003,1.13001 -2.70996,1.20996 -1.66004,0.75 -2.76001,1.23999 -2.47998,1.12 -2.21997,1.02002 -2.03003,0.92999 -1.89001,0.86999 -1.77997,0.84003 -1.72998,0.82001 -1.73004,0.82995 -1.77997,0.86005 -1.86005,0.90997 -1.45996,0.71002 -1.48999,0.73999 -1.77002,0.85999 -1.96002,0.97003 -2.07996,1.01996 -2.14001,1.05005 -2.10999,1.03998 -2.03002,0.98999 -0.97999,0.48999 -1.82,0.89001 -1.85004,0.91998 -1.81995,0.91004 -1.73004,0.86999 -1.60998,0.82001 -1.40998,0.71997 -1.16003,0.60999 -0.72998,0.38 -1.66998,0.91004 -1.80005,0.97998 -1.88996,1.03998 -1.93005,1.05999 -1.90997,1.05005 -1.84003,1.02997 -1.72998,0.96002 -1.56,0.88001 -1.33996,0.76001 -1.08002,0.61999 -0.34003,0.19995 -0.76996,0.46003 -1.04003,0.65002 -1.26001,0.79999 -1.41999,0.89996 -1.52997,0.99005 -1.58001,1.02997 -1.60004,1.04004 -1.53998,1.00995 -1.45001,0.96002 -1.27997,0.85998 -1.09003,0.74 -0.82,0.57 -0.23999,0.16004 -1.08997,0.72998 -0.88,0.41998 -0.76001,0.15002 -0.75,-0.1 -0.07,-0.03 -0.96997,-0.64002 -0.84003,-1.26 -0.65002,-1.79999 -0.05,-0.17999 -0.33002,-2.06 0.01,-2.08002 0.33002,-2.02997 0.65997,-1.90002 0.27002,-0.56 0.16999,-0.29999 0.21002,-0.29999 0.28003,-0.32 0.36999,-0.35999 0.5,-0.42004 0.63996,-0.50995 0.83001,-0.61005 1.03003,-0.73999 1.25995,-0.89001 1.53003,-1.06 1.82001,-1.25 0.92999,-0.63995 3.81,-2.60004 3.72998,-2.52002 3.61004,-2.41998 3.47998,-2.32001 3.32001,-2.19 3.14002,-2.03998 2.92999,-1.89001 2.69995,-1.70997 2.44,-1.53003 2.16004,-1.30999 1.85998,-1.09998 0.05,-0.03 4.14002,-2.35998 3.94,-2.21003 3.78998,-2.08996 3.70001,-2 3.69,-1.92999 3.72003,-1.91004 3.81,-1.89996 3.96997,-1.94 4.19,-2 4.46002,-2.09003 0.73999,-0.34003 2.93,-1.35998 2.77002,-1.26001 2.61999,-1.19 2.52997,-1.12 2.46002,-1.07001 2.44,-1.03997 2.44001,-1.02002 2.48999,-1.00995 2.57,-1.02002 2.69001,-1.04999 2.83996,-1.08002 3.02002,-1.14001 3.26001,-1.20996 3.51001,-1.29004 3.81,-1.39002 1.29999,-0.45996 3.03003,-1.10003 2.81994,-1.01996 2.64002,-0.94001 2.48004,-0.88 2.35998,-0.83002 2.26001,-0.78998 2.20997,-0.76001 2.17004,-0.72998 2.16998,-0.72003 2.02997,-0.66998 68.89001,0 0.09,0.17999 0.09,-0.17999 -0.09,-0.17999 -0.09,0.17999 -68.89001,0 0.17004,-0.05 2.25,-0.73004 2.34998,-0.75 2.46997,-0.77997 2.62006,-0.81 2.79998,-0.85998 3.01996,-0.92004 3.25,-0.98999 3.53003,-1.06 3.83002,-1.15003 1.51996,-0.45996 4.40002,-1.32001 4.09003,-1.22003 3.77997,-1.11999 3.52002,-1.03998 3.26001,-0.96002 3.04998,-0.88001 2.83997,-0.81994 2.67004,-0.75 2.51996,-0.70002 2.40003,-0.66003 2.28998,-0.60999 2.21002,-0.57 2.16998,-0.54999 2.13001,-0.53003 2.13,-0.50995 2.15002,-0.5 2.19996,-0.5 2.26,-0.5 2.35004,-0.52002 2.47998,-0.53003 0.31,-0.0699 2.91998,-0.61005 2.60004,-0.53998 2.28998,-0.45001 2.02002,-0.36999 1.75,-0.28998 1.51001,-0.22003 1.29998,-0.14997 1.09998,-0.07 0.92999,-0.01 0.78003,0.06 0,0 0.64002,0.12 0.53997,0.17999 0.45002,0.25 0.15997,0.10999 z"
         style="fill:#008484;fill-opacity:1;fill-rule:evenodd;stroke:#008484;stroke-width:0.5;stroke-linecap:round;stroke-linejoin:round;stroke-miterlimit:10;stroke-dasharray:none;stroke-opacity:1"
         id="path186"
         inkscape:connector-curvature="0" /></g></g></svg>