<?xml version="1.0" encoding="UTF-8" standalone="no"?>
<!-- Created with Inkscape (http://www.inkscape.org/) -->

<svg
   xmlns:dc="http://purl.org/dc/elements/1.1/"
   xmlns:cc="http://creativecommons.org/ns#"
   xmlns:rdf="http://www.w3.org/1999/02/22-rdf-syntax-ns#"
   xmlns:svg="http://www.w3.org/2000/svg"
   xmlns="http://www.w3.org/2000/svg"
   xmlns:sodipodi="http://sodipodi.sourceforge.net/DTD/sodipodi-0.dtd"
   xmlns:inkscape="http://www.inkscape.org/namespaces/inkscape"
   id="svg2"
   version="1.1"
   inkscape:version="0.91 r13725"
   xml:space="preserve"
   width="279.96878"
   height="268.6344"
   viewBox="0 0 279.96877 268.63439"
   sodipodi:docname="Logo.svg"><metadata
     id="metadata8"><rdf:RDF><cc:Work
         rdf:about=""><dc:format>image/svg+xml</dc:format><dc:type
           rdf:resource="http://purl.org/dc/dcmitype/StillImage" /><dc:title /></cc:Work></rdf:RDF></metadata><defs
     id="defs6" /><sodipodi:namedview
     pagecolor="#ffffff"
     bordercolor="#666666"
     borderopacity="1"
     objecttolerance="10"
     gridtolerance="10"
     guidetolerance="10"
     inkscape:pageopacity="0"
     inkscape:pageshadow="2"
     inkscape:window-width="1920"
     inkscape:window-height="1015"
     id="namedview4"
     showgrid="false"
     fit-margin-top="10"
     fit-margin-left="10"
     fit-margin-right="10"
     fit-margin-bottom="10"
     inkscape:zoom="0.89700837"
     inkscape:cx="-254.01293"
     inkscape:cy="190.13714"
     inkscape:window-x="1080"
     inkscape:window-y="510"
     inkscape:window-maximized="1"
     inkscape:current-layer="g10" /><g
     id="g10"
     inkscape:groupmode="layer"
     inkscape:label="Logo"
     transform="matrix(0.9375,0,0,0.9375,-541.475,-412.97186)"><g
       transform="translate(2.6233e-5,217.11)"
       id="g4362"><g
         id="g76"><path
           inkscape:connector-curvature="0"
           id="path78"
           style="fill:#000000;fill-opacity:1;fill-rule:evenodd;stroke:#000000;stroke-width:0.5;stroke-linecap:round;stroke-linejoin:round;stroke-miterlimit:10;stroke-dasharray:none;stroke-opacity:1"
           d="m 727.15997,276.91 0.26001,1.51999 0.28003,1.91001 0.28998,2.20001 0.29004,2.38998 0.19995,1.78 0.17004,1.56 0.20996,1.90002 0.24,2.07999 0.25,2.10999 0.24005,1.97 0.02,0.15002 0.23999,1.98999 0.21002,1.76001 0.19,1.60999 0.16998,1.53 0.16004,1.54 0.16998,1.62 0.16998,1.78 0.19001,2.03 0.21002,2.35 0.23999,2.73999 0.07,0.71002 0.27997,3.12998 0.27002,3.05002 0.28003,2.94 0.25995,2.78 0.24005,2.58999 0.22998,2.35001 0.21002,2.09 0.18,1.76999 0.14996,1.42001 0.12,1.03998 0.08,0.6 0.04,0.16001 0.16003,-0.15 0.38001,-0.41 0.56,-0.62 0.69,-0.77001 0.45001,-0.53 2.13001,-2.28 2.07995,-1.91999 2.15003,-1.64999 2.04999,-1.30002 1.70001,-0.85 1.76001,-0.60999 1.71997,-0.34 1.60998,-0.07 1.42005,0.22 0.02,0.01 0.96002,0.38998 1,0.58002 0.91998,0.69 0.73999,0.72 0.26001,0.34998 0.42004,0.57001 0.25,0.17001 0.10999,-0.23001 0.01,-0.29999 0.15997,-1.22 0.43,-1.30002 0.64001,-1.28 0.82001,-1.17999 0.91998,-0.97 0.42999,-0.32999 0.53003,-0.40002 0.12,-0.13999 6.59997,0 0.14002,0.23001 0.38,0.37 0.52997,0.42999 0.04,0.03 1.57001,1.42999 1.45996,1.86002 1.32001,2.20999 1.15002,2.51001 0.95001,2.75 0.72998,2.91 0.45001,2.85999 0.20002,1.82001 1.63995,-3.64002 0.63,-1.38 0.66004,-1.4 0.61999,-1.29998 0.52997,-1.07001 0.22003,-0.42001 0.78998,-1.43 0.65003,-1.04999 0.57,-0.70999 0.53998,-0.43002 0.57001,-0.17999 0.63,0 0.31,0.05 0.42999,0.07 0.24,0 0.01,-0.01 -0.05,-0.25 -0.15003,-0.65002 -0.22998,-0.97 -0.29004,-1.22 -0.32995,-1.4 -0.01,-0.06 -1.14002,-4.63999 -1.15997,-4.5 -1.17999,-4.28 -1.15003,-3.97 -1.10998,-3.59 -0.28003,-0.84002 -0.96997,-2.94 -0.27002,0.76001 -0.43,1.13 -0.59002,1.44 -0.69,1.63999 -0.75995,1.75 -0.77002,1.74002 -0.75,1.64999 -0.66999,1.42999 -0.45001,0.91001 -0.53003,1.06 -0.57995,1.23999 -0.62006,1.34002 -0.62994,1.4 -0.60004,1.35998 -0.54999,1.26001 -0.45001,1.10001 -0.34998,0.86999 -0.19,0.56 -0.03,0.16 -6.59997,0 0.14001,-0.14999 0.06,-0.25 -0.06,-0.22 -0.14001,-0.78 -0.01,-1.02002 0.11999,-1.06 0.16999,-0.70999 0.24005,-0.51999 0.45996,-0.78 0.64001,-0.98001 0.78998,-1.11999 0.42999,-0.60001 1,-1.36001 0.81,-1.16999 0.68005,-1.06 0.56995,-1.02999 0.51001,-1.10001 0.48999,-1.23001 0.51001,-1.44998 0.56,-1.76001 0.61999,-2.07001 0.45002,-1.44 0.54003,-1.63999 0.58997,-1.76001 0.63,-1.80999 0.63001,-1.78 0.62,-1.68 0.57,-1.51 0.5,-1.26999 0.40003,-0.95002 0.26995,-0.54998 0.44001,-0.60001 0.59002,-0.60001 0.35999,-0.29 1.11999,-0.53998 1.12,-0.06 1.10999,0.41998 1.05004,0.89002 0.81,1.07998 0.45996,0.87 0.56,1.30002 0.65002,1.69 0.72998,2.03 0.79004,2.33999 0.84998,2.60001 0.88,2.81998 0.90003,3.01001 0.91998,3.14001 0.90998,3.23999 0.66003,2.43 0.29999,1.11999 0.39001,1.5 0.48999,1.84 0.54999,2.12002 0.63,2.37 0.66999,2.57 0.71002,2.72999 0.75,2.85 0.76001,2.91 0.76001,2.93 0.76996,2.92001 0.73999,2.85999 0.71002,2.73999 0.67999,2.6 0.62,2.39002 0.55999,2.16 0.48005,1.87998 0.39996,1.54 0.29999,1.17002 0.19,0.75998 0.02,0.08 0.22998,0.88001 0.17004,0.66 0.10999,0.31998 0.01,0.02 -0.01,-0.26001 -0.08,-0.66 -0.11999,-1 -0.15998,-1.24 -0.16003,-1.17001 -0.16998,-1.29999 -0.22003,-1.70999 -0.23999,-2 -0.26996,-2.20001 -0.27002,-2.31 -0.26001,-2.29999 -0.14002,-1.20001 -0.39996,-3.54999 8.51001,0 0.05,0.12998 0.23999,-0.12 0.46002,-0.38 0.70996,-0.64999 0.48999,-0.46 0.83002,-0.83001 0.84997,-0.91999 0.74005,-0.88 0.39997,-0.51999 0.52002,-0.72 0.27997,-0.44 0.08,-0.21 -0.1,-0.05 -0.26001,0.06 -0.01,0 -0.84998,0.37 -0.95001,0.70001 -0.98999,0.92001 -0.92004,1.06 -0.76996,1.12 -0.43,0.82998 -0.25,0.61002 -0.11999,0.38 -8.51001,0 -0.02,-0.19 -0.39002,-3.30002 -0.34997,-2.88 -0.32001,-2.53 -0.29999,-2.22 -0.29003,-1.94998 -0.27997,-1.73001 -0.28003,-1.54999 -0.27997,-1.42001 -0.29999,-1.34 -0.28003,-1.16 -0.39996,-1.60001 -0.29004,-1.22 -0.17999,-0.91999 -0.1,-0.70999 -0.02,-0.57 0.04,-0.52002 0.03,-0.18 0.34998,-1.38998 0.59002,-1.02002 0.82001,-0.64999 1.03998,-0.28 1.13,0.11001 0.95001,0.53998 0.79999,0.99002 0.32001,0.60999 0.56,1.36999 0.58001,1.78 0.59998,2.14002 0.59998,2.39999 0.57,2.60999 0.53003,2.73001 0.38001,2.23001 0.45996,2.91998 1.26001,-1.35999 1.07,-1.05001 1.24,-1.04999 1.28002,-0.95001 1.19001,-0.75 0.38995,-0.19999 0.82001,-0.27999 1.01001,-0.17002 1.10003,-0.06 1.08997,0.05 0.97998,0.15998 0.78003,0.26001 0.19,0.11001 1.19,1.03998 0.93,1.37 0.65002,1.68002 0.38001,1.94998 0.05,0.57001 -0.04,1.92001 -0.38001,2.00998 -0.69995,2.09 -1.01001,2.14001 -1.32001,2.17999 -1.61999,2.21 -1.91004,2.21002 -0.95996,1 -2.34003,2.36999 0.60004,0.19 0.31,0.08 0.60998,0.13001 0.84998,0.16 1.07001,0.20999 1.21002,0.23001 1.33997,0.23999 1.39001,0.26001 1.41998,0.26001 1.40003,0.25 1.32,0.22998 1.21003,0.21002 1.03997,0.18 0.83997,0.13998 0.58002,0.09 0.28003,0.03 0,0 0.23999,-0.07 0.20001,-0.27002 0.21997,-0.56998 0.25,-0.86001 0.35004,-1.06 0.42999,-1.04001 0.38995,-0.75998 0.66004,-1.09002 -0.43,-3.21 -0.20001,-1.6 -0.21002,-1.81 -0.19,-1.75 -0.1,-1.10999 -0.35998,-3.55999 -0.39002,-3.15 -0.45001,-2.84002 -0.52002,-2.63999 -0.61999,-2.51999 -0.71998,-2.51001 -0.28002,-0.86001 -0.75995,-2.34998 -0.92005,0.16999 -0.83996,0.20999 -0.81,0.31002 -0.71002,0.35999 -0.52997,0.37 -0.28003,0.35 -0.01,0.05 -0.41998,1.07001 -0.68,0.86001 -0.89001,0.56998 -1.03998,0.25 -0.20001,0.01 -1.16003,-0.20999 -0.95997,-0.63001 -0.77001,-1.03 -0.56,-1.44 -0.15003,-0.63 -0.14996,-1.5 18.22998,0 0.07,0.26001 0.21002,0.61999 0.31,0.88999 0.38995,1.09002 0.13001,0.35999 0.60003,1.79999 0.59998,2.04 0.54004,2.04001 0.17999,0.79001 0.41998,1.85999 0.41998,2 0.41004,2.04 0.38995,2 0.35004,1.85001 0.28998,1.62998 0.21002,1.29 0.08,0.61002 0.11999,0.85999 0.12,0.45999 0.13995,0.14001 0.10004,-0.03 0.23999,-0.16 0.48999,-0.35999 0.69,-0.52002 0.84003,-0.63998 0.94,-0.71002 0.03,-0.03 2.31,-1.82999 2,-1.70001 1.67999,-1.56998 1.40002,-1.46002 0.06,-0.07 1.08002,-1.33001 1.01001,-1.45999 0.89996,-1.5 0.73999,-1.46 0.55005,-1.36001 0.31995,-1.17999 0.05,-0.34 0.02,-0.73001 -0.13995,-0.54001 -0.29004,-0.48999 -1.02002,-1.20999 -1.34997,-1.05002 -1.27002,-0.70999 -0.87,-0.41 -0.82001,-0.32999 -0.83996,-0.27002 -0.95002,-0.23999 -1.15997,-0.23999 -0.95001,-0.17001 -0.60004,-0.09 -0.82995,-0.08 -1.01001,-0.09 -1.14002,-0.08 -1.22998,-0.07 -1.25,-0.07 -1.25,-0.05 -1.17999,-0.05 -1.07001,-0.03 -0.91003,-0.01 -0.69995,0.01 -0.45002,0.03 -0.15002,0.05 -18.22998,0 0,-0.03 0.17999,-1.51001 0.51001,-1.41999 0.33002,-0.58001 0.63995,-0.72 0.97003,-0.72 1.31,-0.71 1.64002,-0.69998 1.95996,-0.68002 2.27002,-0.66 2.58996,-0.65 1.60004,-0.35998 3.31,-0.59 3.28997,-0.36002 3.25001,-0.13998 3.15002,0.08 3.01001,0.30001 2.82001,0.50998 2.59997,0.73001 2.34003,0.93 0.37994,0.19 2.09003,1.25 1.85998,1.54001 1.72004,1.88998 0.51996,0.68 0.75,1.06002 0.54003,0.88999 0.41999,0.86999 0.34002,0.94001 0.60999,2.23001 0.31,2.11999 0,2.13001 -0.21003,1.86999 -0.64001,2.85001 -0.96997,2.82998 -1.32001,2.83002 -1.64996,2.82999 -1.99005,2.82 -2.33997,2.82001 -2.67999,2.81998 -3.03003,2.83002 -3.37,2.82998 -3.21002,2.45001 -0.84997,0.63999 -0.83002,0.65002 -0.69995,0.56998 -0.47003,0.42001 -0.59003,0.48001 -0.56995,0.25998 -0.71002,0.13001 -0.15997,0.02 -1.18005,0.09 0.16003,1.01999 0.06,1.38001 -0.19001,1.47998 -0.41998,1.38 -0.24005,0.52002 -0.84997,1.28 -1,0.9 -1.18,0.52999 -1.40002,0.18 -0.82001,-0.04 -1.57996,-0.22998 L 823.72998,367.37 821.5,366.76999 818.95001,365.98001 816.08002,365 l -0.10004,-0.03 -1.20996,-0.42999 -1.10004,-0.37 -0.94,-0.32 -0.73999,-0.23001 -0.48999,-0.13999 -0.19,-0.04 0,0 0.02,0.26001 0.11999,0.63999 0.19,0.92001 0.25,1.10999 0,0.02 0.43,2.21 0.21002,1.94998 -0.03,1.78 -0.20001,1.51001 -0.39002,1.28 -0.63995,1.04 -0.79004,0.73001 -0.88995,0.37 -0.92005,-0.06 -0.11999,-0.04 -0.69001,-0.39999 -0.78997,-0.63001 -0.78003,-0.77001 -0.65998,-0.78998 -0.40002,-0.66001 -0.42999,-0.91 0,0.89001 -0.05,0.97999 -0.12,1.20999 -0.16003,1.21002 -0.17999,1.00998 -0.05,0.20001 -0.47998,1.22 -0.70001,0.9 -0.84998,0.58001 -0.92004,0.22 -0.93,-0.15002 -0.86999,-0.53998 -0.57001,-0.67001 -0.56,-0.88999 -0.46997,-0.91 -0.44,-1.02002 -0.41998,-1.20999 -0.43005,-1.47 -0.47998,-1.82001 -0.39002,-1.57999 -0.37,-1.54 -0.33996,-1.38001 -0.29004,-1.16998 -0.21997,-0.86002 -0.14002,-0.5 -0.02,-0.07 -0.19001,-0.19 -0.35998,0.03 -0.26996,0.09 -0.46002,0.13998 -0.70002,0.19 -0.83001,0.19001 -0.57996,0.13 -0.86004,0.22 -1.13996,0.35001 -1.36004,0.44998 -1.53998,0.54001 -1.65003,0.61001 -1.71997,0.65998 -1.72998,0.68002 -1.67999,0.69 -1.59003,0.68 -1.44,0.63998 -0.58002,0.27002 -1.53998,0.69998 -1.26001,0.5 -1.02996,0.30002 -0.84003,0.11 -0.70001,-0.08 -0.59998,-0.27002 -0.54004,-0.45999 -0.37994,-0.45001 -0.18005,-0.18998 -0.16999,-0.06 -0.26001,0.09 -0.38995,0.28998 -0.60004,0.5 -0.28998,0.25 -1.85998,1.38001 -1.82001,0.89001 -1.79004,0.39999 -1.76001,-0.08 -1.60998,-0.51999 -1.42999,-0.94 -1.25001,-1.37 -1.05999,-1.78 -0.88001,-2.20999 -0.67999,-2.61002 -0.19,-0.97 -0.35999,-2.03998 -1.60003,2.91999 -1.79999,3.13 -1.89002,3.01001 L 745,375.28 l -1.90002,2.56 -1.83997,2.22 -1.03003,1.13 -0.76001,0.79999 -0.52997,0.60001 -0.34002,0.45999 -0.19001,0.38 -0.1,0.38001 -0.04,0.25 -0.31,1.42999 -0.56,1.09 -0.78002,0.73001 -0.96998,0.32 -0.24005,0.01 -1.02997,-0.16 -0.84002,-0.5 -0.76996,-0.93002 -0.01,-0.01 -0.38001,-0.52002 -0.28997,-0.32999 -0.10004,-0.05 -0.34998,-0.21002 -0.45001,-0.53998 -0.47003,-0.75 -0.42999,-0.85 -0.32996,-0.83002 -0.17004,-0.69 0,-0.13999 -0.1,-0.39999 -0.22998,-0.57001 -0.28003,-0.55999 -0.25,-0.39002 -0.10998,-0.08 -0.22003,0.09 -0.46998,0.26001 -0.67999,0.37998 -0.82001,0.49002 -0.48999,0.29 -1.11999,0.65998 -1.25,0.70001 -1.23999,0.66 -1.08002,0.54001 -0.10003,0.05 -1.33997,0.64999 -1.16998,0.60001 -1.09003,0.60001 -1.09998,0.66 -1.21002,0.78 -1.40002,0.92999 -0.40998,0.28 -1.39001,0.91 -1.15997,0.66999 -0.97003,0.45001 -0.84998,0.25 -0.79004,0.07 -0.73999,-0.07 -1.17999,-0.45001 -1.04999,-0.87 -0.89001,-1.22 -0.64997,-1.5 -0.34002,-1.47998 -0.10999,-1.29001 0.06,-1.34 0.22998,-1.52001 0.35003,-1.51999 0.18,-0.68 0.19,-0.67999 0.23999,-0.72 0.29999,-0.82001 0.36999,-0.97 0.47998,-1.17001 0.08,-0.17999 9.56,0 0.17999,-0.10001 0.44,-0.25 0.65003,-0.38999 0.78998,-0.48001 0.42999,-0.25998 1.08002,-0.63 1.17999,-0.67001 1.15002,-0.60999 0.98999,-0.49002 0.06,-0.03 0.78998,-0.38 0.64001,-0.34998 0.44,-0.27002 0.18,-0.16998 0,0 -0.08,-0.29001 -0.22998,-0.62 -0.33997,-0.88 -0.42004,-1.03 -0.03,-0.07 -0.57001,-1.39999 -0.63,-1.59 -0.60999,-1.54 -0.32,-0.82999 -0.40003,-1.01001 -0.34997,-0.81 -0.25,-0.53 -0.13001,-0.16 0,0 -0.1,0.29999 -0.19001,0.66 -0.25,0.93002 -0.24005,0.91999 -0.36999,1.38 -0.44995,1.63999 -0.52002,1.79 -0.53003,1.82001 -0.52997,1.75 -0.47998,1.56 -0.41003,1.25 -0.14002,0.39999 -0.23999,0.73001 -0.15997,0.51999 -0.03,0.19001 -9.56,0 0.52002,-1.24 0.72998,-1.73001 0.90002,-2.08999 0.25,-0.57999 0.60999,-1.43002 0.64001,-1.56 0.66999,-1.63998 0.65002,-1.65 0.62,-1.61001 0.57,-1.48999 0.48999,-1.32001 0.38001,-1.07999 0.26001,-0.78 0.10998,-0.42001 0,-0.03 -0.11999,0.06 -0.33002,0.32999 -0.46002,0.52001 -0.13995,0.16001 -0.80005,0.91998 -0.73999,0.73001 -0.75,0.57999 -0.84998,0.5 -1.01001,0.45001 -1.27002,0.45001 -0.35998,0.12998 -1.12,0.38 -0.79999,0.30002 -0.53002,0.25 -0.28998,0.19998 -0.08,0.17002 0,0.01 0.08,0.42001 0.15997,0.70999 0.15002,0.61002 0.33002,1.98999 0.01,2.11001 -0.28998,2.17999 -0.58996,2.16001 -0.66004,1.63998 -1.36999,2.54001 -1.54999,2.20999 -1.71002,1.84 -1.82001,1.44 -1.90997,1.01001 -1.96002,0.54001 -0.24,0.04 -1.58996,-0.05 -1.58002,-0.51001 -1.5,-0.91998 -1.36999,-1.29001 -1.15003,-1.62 -0.17999,-0.32 -0.83002,-1.53 -0.13,1.47 -0.23999,1.89999 -0.34998,1.51001 -0.48999,1.23001 -0.44,0.72998 -0.92004,1.01001 -1.00995,0.56 -1.05005,0.10001 -1.04999,-0.36002 -0.62,-0.47998 -0.46002,-0.49002 -0.45996,-0.66 -0.47003,-0.84 -0.51001,-1.07999 -0.54999,-1.33999 -0.59997,-1.64002 -0.69001,-1.97998 -0.77002,-2.36001 -0.86999,-2.76999 -0.52997,-1.71002 -0.64001,-2.06998 -0.71002,-2.25 -0.72999,-2.28 -0.71002,-2.20001 -0.64996,-1.95999 -0.34003,-1.01001 6.83002,0 0.07,0.20001 0.05,-0.04 0.02,-0.29001 -0.02,-0.04 -0.10998,0.03 -0.01,0.13999 -6.83002,0 -0.03,-0.10999 -1.77002,-5.24002 -0.09,10.12 -0.1,10.13 0.69,2 0.33002,0.92001 0.45996,1.21 0.54999,1.39001 0.58002,1.42999 0.34002,0.81 0.69001,1.66 0.53997,1.29999 0.39002,1.01001 0.27002,0.78 0.16998,0.62 0.1,0.52999 0.04,0.51001 0.01,0.48001 -0.15998,1.53 -0.41998,1.31 -0.66003,1.03998 -0.82001,0.75 -0.94,0.40002 -1.00995,0.02 -1.02002,-0.41 -0.41999,-0.29999 -0.38,-0.44 -0.51001,-0.75 -0.59003,-0.96002 -0.59997,-1.06 -0.56,-1.06998 -0.46002,-0.98001 -0.20996,-0.51001 -0.26001,-0.63998 -0.21002,-0.29001 -0.28998,-0.04 -0.25,0.05 -0.79999,0.25 -1.09003,0.39999 -1.33002,0.53 -1.51995,0.63999 -1.66004,0.73001 -1.76001,0.80001 -1.82995,0.84998 -0.63001,0.30002 -2.41003,1.13998 -2.12,0.96002 -1.84997,0.76999 -1.61005,0.60001 -1.37994,0.42999 -1.20002,0.26999 -1.02002,0.12 -0.88,-0.02 -0.77002,-0.16999 -0.67999,-0.30001 -0.09,-0.05 -0.75,-0.68002 -0.66003,-0.98999 -0.45996,-1.13999 -0.08,-0.33002 -0.21997,-1.05999 -1.04004,1.35 -2.14001,2.73001 -2.19001,2.62998 -2.26996,2.57001 -2.40002,2.58001 -2.58997,2.62 -2.82,2.73999 -2.41004,2.25 -2.56,2.33999 -2.51,2.26001 -2.44996,2.16999 -2.35003,2.04001 -2.22998,1.91 -2.10004,1.75 -1.92999,1.56 -1.72998,1.36999 -1.52002,1.15 -1.27997,0.90002 -0.98999,0.61999 -1.14002,0.51001 -1.16998,0.25 -1.09003,-0.03 -0.92999,-0.28998 -0.19,-0.11002 -1.02002,-0.91 -0.70996,-1.12998 -0.42004,-1.37002 -0.10999,-1.42999 0.16998,-1.75 0.51001,-1.66001 0.84003,-1.54999 1.08002,-1.33001 0.35998,-0.34 0.63001,-0.53998 0.84997,-0.69 1.03003,-0.82001 1.14997,-0.91 1.23004,-0.95999 0.63995,-0.48001 2.20001,-1.69001 2.23999,-1.73999 2.25,-1.76001 2.22003,-1.75998 2.16999,-1.73001 2.08001,-1.67999 1.95002,-1.59 1.80999,-1.49002 1.60999,-1.35 1.39996,-1.19 1.15003,-1.00998 0.69,-0.63001 2.71997,-2.61999 2.61005,-2.69001 2.47998,-2.70999 2.30999,-2.68002 2.10999,-2.62998 0.81,-1.1 17.59002,0 3,-1.57001 1.09998,-0.56 1.13001,-0.55001 1.04998,-0.47999 0.88001,-0.36999 0.46002,-0.18002 0.75,-0.26999 0.46997,-0.20999 0.24005,-0.18 0.07,-0.20001 -0.02,-0.20001 -0.14002,-0.44998 -0.24999,-0.73001 -0.33997,-0.9 L 657.4,370.7 l -0.38,-0.97 -0.35004,-0.86001 -0.27997,-0.63999 -0.17004,-0.33002 -0.02,-0.03 -0.15002,0.19 -0.33002,0.5 -0.44995,0.73999 -0.55005,0.92001 -0.11999,0.20001 -0.69996,1.16999 -0.84002,1.36001 -0.89002,1.38999 -0.82995,1.26999 -0.09,0.13 -1.87,2.80002 -17.59002,0 1.06,-1.44 1.60003,-2.39002 0.70996,-1.16998 0.71002,-1.23001 0.64002,-1.18 0.54999,-1.05001 0.41998,-0.87998 0.27002,-0.63 0.08,-0.32001 0,-0.02 -0.19001,0 -0.46002,0.08 -0.65997,0.14001 -0.67004,0.15998 -2.18,0.66 -2.38995,0.95001 -2.55005,1.20001 -2.67999,1.43998 -2.73999,1.64001 -2.75,1.82999 -2.07001,1.48001 -2.08997,1.54999 -1.80004,1.34002 -1.54999,1.12998 -1.32001,0.95001 -1.10998,0.78 -0.94001,0.63 -0.77997,0.48999 -0.65002,0.37 -0.56,0.27002 -0.47003,0.19 -0.42999,0.10999 -0.40998,0.06 -0.41003,0.02 -0.04,0 -1.14996,-0.18002 -0.97003,-0.60999 -0.77997,-1.03 -0.37006,-0.75 -0.40997,-1.30001 -0.15997,-1.34 0.1,-1.41 0.38001,-1.5 0.65997,-1.60999 0.94,-1.75 1.23999,-1.91 1.55005,-2.10001 0.46997,-0.58999 4.26001,-5.53 4.15003,-5.66999 3.95996,-5.73001 3.71002,-5.69 1.20996,-1.92999 0.52002,-0.87 0.67999,-1.14001 0.82001,-1.37 0.90002,-1.54001 0.96998,-1.64999 1,-1.72 1,-1.72 0.96002,-1.66999 0.89996,-1.57 0.80005,-1.4 0.67999,-1.19 0.51001,-0.92001 0.32001,-0.59 0,0 0.71997,-1.06 0.88,-0.73999 0.93,-0.37002 0.28003,-0.02 0.92999,0.20999 0.82001,0.57001 0.65997,0.85 0.44,1.06 0.18,1.17999 -0.04,0.69001 -0.20002,0.89999 -0.34997,1.01001 -0.43005,0.95999 -0.43,0.75 -0.25,0.28 -0.22998,0.29001 -0.40997,0.63 -0.59003,0.91999 -0.71002,1.16 -0.82001,1.34 -0.87994,1.5 -0.65003,1.1 -1.53002,2.60001 -1.33997,2.26999 -1.19,2.01001 -1.09003,1.79999 -1.02997,1.67001 -1,1.59 -1,1.57 -1.06,1.63001 -1.14001,1.72998 -0.19,0.29001 -1.27002,1.92999 -1.06,1.59 -0.84998,1.29 -0.66003,1.02002 -0.5,0.76999 -0.34998,0.54999 -0.21002,0.38001 -0.10998,0.20999 0,0.1 0.07,-0.01 0.11999,-0.06 0.13,-0.08 0.41999,-0.26999 0.64001,-0.40002 0.75,-0.46998 0.45001,-0.29 2.47999,-1.48001 2.51001,-1.34 2.46002,-1.15 2.36999,-0.95001 2.20001,-0.72 0.06,-0.01 7.78998,0 0.76001,0.54999 1.08997,1.06 0.86999,1.41 0.63001,1.67001 0.36004,1.84998 0.06,1.97 -0.07,0.82001 -0.25,1.63 -0.40002,1.62 -0.57001,1.70999 -0.78998,1.92001 -0.36999,0.82001 -0.15003,0.34998 -0.04,0.18002 0.09,-0.03 0.26001,-0.25 0.44,-0.49002 0.65003,-0.76999 0.88,-1.07001 0.14002,-0.17999 0.86999,-1.07001 0.88996,-1.16998 0.84002,-1.12002 0.67999,-0.96998 0.13001,-0.19 0.54999,-0.86001 0.65002,-1.04001 0.69,-1.12998 0.69001,-1.17001 0.66998,-1.14001 0.60998,-1.03998 0.49,-0.89002 0.35003,-0.66 0.16998,-0.35999 0.01,-0.05 -0.09,-0.32999 -0.25,-0.67999 -0.38996,-0.97001 -0.49005,-1.20001 -0.56994,-1.35 -0.62006,-1.43 -0.62994,-1.47 -0.63001,-1.41998 -0.59002,-1.32001 -0.52997,-1.14001 -0.43006,-0.9 -0.29999,-0.6 -0.13,-0.20999 -0.13,-0.06 -0.19001,0.11999 -0.26996,0.36002 -0.40002,0.63 -0.54999,0.96 -0.36999,0.64999 -0.72998,1.34 -0.80005,1.51001 -0.76996,1.48999 -0.65003,1.30001 -0.03,0.06 -1.34003,2.75 -7.78998,0 1.91998,-0.45001 0.15003,-0.03 0.97998,-0.16 -0.25,-1.04999 -0.16003,-0.84 -0.03,-0.80001 0.11999,-0.82999 0.28998,-0.96002 0.48004,-1.15998 0.69,-1.45001 0.03,-0.06 0.63001,-1.36001 0.71002,-1.60999 0.71997,-1.70001 0.63001,-1.57999 0.11999,-0.30999 0.79004,-2.04001 0.69995,-1.62 0.65002,-1.26999 0.63001,-0.99002 0.64001,-0.75 0.68,-0.57998 0.04,-0.03 1.13001,-0.67002 1.02002,-0.26999 1.01001,0.10001 0.81,0.31998 0.70996,0.38 0.66003,0.47 0.63996,0.57001 0.61999,0.72 0.65003,0.91001 0.66998,1.13 0.73004,1.37 0.82001,1.66998 0.89996,2 1.03003,2.35001 1.16998,2.76 0.29999,0.69999 2.47003,5.88 -0.11004,-7.75998 -0.03,-2 -0.03,-1.90002 -0.02,-1.72 -0.02,-1.47998 -0.02,-1.15 -0.01,-0.76001 -0.01,-0.14999 0.04,-1.09 0.19,-0.84002 0.14002,-0.37 0.46997,-0.75 0.65002,-0.64999 0.70001,-0.43 0.48999,-0.1 0.70997,0.20001 0.75,0.53998 0.65002,0.76001 0.27002,0.45001 0.57996,0.86999 0.60003,0.43 0.67999,0.48999 0.78998,0.93002 0.88001,1.32999 0.96002,1.70001 1.01001,2.01999 1.06,2.32999 1.07,2.59002 1.03998,2.70999 0.41999,1.12 0.36999,0.94 0.28003,0.67001 0.16998,0.32999 0.03,0.03 0.01,-0.28 0,-0.70001 -0.03,-1.03 -0.05,-1.29999 -0.06,-1.48001 0,-0.05 -0.04,-1.19 -0.04,-1.64001 -0.04,-2.00998 -0.04,-2.32001 -0.03,-2.57001 -0.02,-2.76999 -0.02,-2.89001 -0.01,-2.95999 -0.01,-1.01999 -0.01,-2.78 -0.01,-2.74002 -0.02,-2.62 -0.02,-2.45999 -0.02,-2.23001 -0.02,-1.94 -0.03,-1.59 -0.03,-1.19 -0.01,-0.53 -0.06,-1.44 -0.02,-1.03998 0.02,-0.76001 0.06,-0.6 0.10004,-0.53 0.06,-0.23999 0.58001,-1.54001 0.81,-1.20999 0.96997,-0.86002 1.09003,-0.45999 1.15997,-0.05 1.15003,0.41 0.33996,0.21998 0.87,0.77001 0.67004,1.01001 0.54999,1.35999 0.08,0.26999 0.06,0.20001 0.05,0.23999 0.05,0.29001 0.04,0.38 0.03,0.51001 0.03,0.65998 0.03,0.84002 0.02,1.06998 0.01,1.31 0.02,1.60001 0.01,1.92001 0.01,2.25 0.01,2.63998 0.01,3.05002 0.01,3.48999 0.01,3.25 0.01,4.23999 0.02,3.75 0.01,3.29001 0.02,2.82999 0.02,2.41 0.02,1.99002 0.03,1.59998 0.02,1.22 0.04,0.85 0.03,0.51001 0.03,0.18 0.15002,0.06 0.12,-0.35998 0.05,-0.37 0.32,-1.91 0.46998,-2.24002 0.60003,-2.44998 0.70996,-2.58002 0.78003,-2.59 0.69,-2.07998 0.48999,-1.31 0.60999,-1.53 0.69,-1.63 0.72003,-1.63001 0.70002,-1.48999 0.61999,-1.25 0.37,-0.69 0.46997,-0.87 0.47003,-0.95001 0.19995,-0.42001 0.52002,-1.03998 0.52002,-0.68002 0.60998,-0.40998 0.22004,-0.09 0.94995,-0.10999 0.91003,0.32999 0.77997,0.74002 0.47003,0.81998 0.29999,1.12002 0.06,1.31 -0.21002,1.56 -0.45997,1.83999 -0.15002,0.48001 -1.39001,4.44999 -1.21998,4.14001 -1.04998,3.79999 -0.88001,3.45001 L 692,354.81 l -0.15002,0.73999 -0.44001,2.33001 -0.32995,2.01001 -0.23004,1.79999 -0.13996,1.75 -0.06,1.81 -0.02,1.10001 0.02,1.83999 0.09,1.38001 0.16998,0.95999 0.29004,0.57999 0.40998,0.25 0.58001,-0.05 0.75,-0.32001 0.27002,-0.13998 0.46997,-0.33002 0.57001,-0.53 0.63,-0.64999 0.59998,-0.69999 0.51001,-0.66 0.35004,-0.54001 0.12994,-0.33999 -0.13995,-0.22001 -0.37,-0.39999 -0.51001,-0.48001 -0.07,-0.06 -1.28997,-1.26001 -0.97003,-1.28998 -0.66999,-1.34002 -0.39001,-1.44998 -0.13001,-1.62 0,-0.08 0.13001,-1.72 0.40002,-1.51999 0.67999,-1.38 0.33997,-0.42001 41.84003,0 0.02,0.66 0.04,0.91 0.08,1.22 0.10999,1.59 0.15997,2.02002 0.03,0.42999 0.14001,1.82999 0.13996,1.66 0.11004,1.42002 0.1,1.13 0.06,0.76999 0.04,0.34 0,0.02 0.14001,-0.15 0.35004,-0.41 0.48999,-0.57999 0.32995,-0.39999 0.86005,-1.05002 1,-1.26999 1.07996,-1.42001 1.13,-1.48999 0.88001,-1.19001 16.39001,0 0.09,2.03 0.27996,1.75 0.44001,1.41001 0.19,0.39999 0.28998,0.42001 0.30005,0.15 0.47998,-0.07 0.52997,-0.19998 0.68005,-0.37 0.54999,-0.38 0.73999,-0.67001 0.85998,-0.97999 0.89002,-1.19 0,0 0.70001,-1.05002 0.51996,-0.89999 0.44,-0.94 0.17999,-0.48999 12.04004,0 0.01,0.02 0.17999,-0.07 0.45997,-0.19998 0.69,-0.31 0.85003,-0.39001 0.83997,-0.38001 1.45001,-0.64999 1.47003,-0.63001 1.43,-0.57999 1.33996,-0.52001 1.18,-0.43 0.97003,-0.30999 0.64996,-0.18 0.51001,-0.13 0.22003,-0.16999 0,-0.26001 0,-0.02 -0.13,-0.47999 -0.22003,-0.88 -0.29999,-1.19 -0.34998,-1.43 -0.39001,-1.58999 -0.40998,-1.68002 -0.40002,-1.66999 -0.39002,-1.6 -0.34997,-1.44999 -0.28003,-1.21002 -0.21997,-0.89999 -0.06,-0.29999 -0.23999,-1.03 -0.17004,-0.61001 -0.13001,-0.26001 -0.10998,0.01 -0.08,0.13 -0.13995,0.34 -0.27002,0.72 -0.38001,1.03 -0.45001,1.26999 -0.51001,1.42001 -0.23999,0.67999 -0.60998,1.70001 -0.71003,1.94001 -0.77997,2.07998 -0.79998,2.12 -0.79999,2.08002 -0.75,1.92999 -0.67004,1.69 -0.54999,1.35001 -0.09,0.20999 -0.19995,0.51001 -0.07,0.28 -12.04004,0 0.25,-0.66001 0.20002,-0.6 0.69,-2.32001 0.45001,-2.16 0.23999,-2.16999 0.05,-1.76999 L 768.90997,346.5 768.5,344.14999 767.81,342.03 l -0.98999,-1.94 -0.22998,-0.37 -0.76001,-1.09 -0.60004,-0.70999 -0.48999,-0.36001 -0.40997,-0.04 -0.13001,0.05 -0.41998,0.44998 -0.48004,0.88 -0.51001,1.26001 -0.52997,1.56 -0.54004,1.82999 -0.52997,2.01001 -0.51001,2.16 -0.46002,2.23001 -0.41998,2.23999 -0.33997,2.20999 -0.27002,2.10001 -0.10998,1.17001 -0.08,2.22998 -16.39001,0 0.22003,-0.30999 1.03997,-1.41999 0.91004,-1.29001 0.72998,-1.08001 0.33997,-0.51999 1.63,-2.75 1.41003,-2.69 1.15998,-2.59 0.89001,-2.45001 0.60999,-2.25998 0.11999,-0.59 0.22003,-1.42001 0.04,-1.01999 -0.14996,-0.66 -0.37006,-0.38001 -0.60998,-0.11999 -0.67999,0.04 -1.65998,0.40998 -1.77002,0.83001 -1.83002,1.21 -1.85998,1.57 -1.83002,1.88999 -0.98999,1.17001 -0.66998,0.87 -0.75,1.05999 -0.78003,1.15 -0.76001,1.17001 -0.68994,1.10999 -0.56006,0.96002 -0.38995,0.75 -0.12,0.28998 -0.07,0.24002 -0.05,0.32998 -0.02,0.46 -41.84003,0 0.65002,-0.82999 1.32001,-1.16 0.58002,-0.41999 1.32995,-0.91 1.13001,-0.75 1.01001,-0.63001 0.97998,-0.58001 1.04004,-0.56998 1.19995,-0.62 1.44,-0.72 0.01,0 1.04004,-0.51001 0.78998,-0.36999 0.62,-0.24002 0.53002,-0.13999 0.51996,-0.07 0.58002,-0.02 0.23999,0 1.51001,0.16 1.31,0.47 1.09002,0.75998 0.83997,1.02002 0.31,0.62998 0.30999,0.73001 0.42005,-0.87 0.42999,-0.69 0.54999,-0.62 0.13,-0.11999 0.43,-0.34 0.27997,-0.23001 0.05,-0.04 -0.04,-0.23999 -0.15998,-0.53 -0.08,-0.26001 -0.16998,-0.50998 -0.27002,-0.89001 -0.35998,-1.19 -0.41999,-1.41001 L 714.20006,339.6 714,338.92999 713.56,337.41 l -0.40003,-1.36001 -0.34997,-1.15 -0.26001,-0.85 -0.15998,-0.48999 -0.04,-0.09 -0.15998,0.07 -0.26001,0.39999 -0.14996,0.28 -0.32001,0.63001 -0.48004,0.83999 -0.54999,0.9 -0.17999,0.28 -0.60999,0.89001 -0.57,0.67999 -0.64002,0.59 -0.84997,0.61999 -0.05,0.04 -0.87006,0.56 -0.65997,0.35001 -0.56,0.16998 -0.45001,0.04 -1.02002,-0.23001 -0.85998,-0.63999 -0.66999,-0.98001 -0.42999,-1.25998 -0.13001,-1.35 0.06,-0.71 0.16999,-1.01001 0.23999,-1.13 0.11999,-0.47 0.37006,-1.23999 0.44,-1.20001 0.56995,-1.26001 0.72003,-1.38999 0.91998,-1.61001 0.48999,-0.79999 0.57001,-1.04001 0.56,-1.22 0.44,-1.12 0.02,-0.06 0.33001,-0.88999 0.31995,-0.73001 0.27002,-0.42999 0.04,-0.04 0.32995,-0.32001 0.46003,-0.51999 0.25,-0.32 0.55999,-0.62 0.56,-0.29999 0.44,-0.1 0.75,-0.01 0.63001,0.25 0.61999,0.54999 0.68,0.92001 0.14001,0.20999 0.45996,0.76001 0.44001,0.81 0.44,0.89001 0.46002,1.03998 0.5,1.25 0.56,1.5 0.65002,1.80002 0.75,2.16998 0.64996,1.89002 0.67005,1.94998 0.67999,1.97 0.65997,1.90002 0.62,1.73999 0.53003,1.48001 0.41998,1.15 0.1,0.26999 0.42999,1.08999 0.5,1.28 0.56006,1.38001 0.56995,1.42001 0.57,1.37998 0.53003,1.27001 0.45996,1.07999 0.36005,0.84 0.22998,0.5 0.06,0.1 0.03,0.06 0.03,0.05 0.02,0 0,-0.10001 -0.01,-0.22 -0.03,-0.39999 -0.05,-0.61002 -0.08,-0.85998 -0.1,-1.15 -0.15003,-1.48001 -0.16998,-1.85 -0.21997,-2.26999 -0.26001,-2.71002 -0.04,-0.43 -0.31006,-3.19998 -0.26996,-2.78 -0.22003,-2.41 -0.19995,-2.11002 L 724.62,328.31 724.46997,326.60001 724.34003,325 l -0.12006,-1.56 -0.11999,-1.58999 -0.12,-1.67002 -0.10999,-1.66 -0.15002,-2.25 -0.15997,-2.60999 -0.16999,-2.86999 -0.17004,-3.06 -0.17999,-3.14001 -0.15998,-3.16001 -0.16003,-3.07998 -0.14996,-2.91001 -0.12,-2.66 -0.10003,-2.32999 -0.0699,-1.73001 -0.0601,-1.70999 -0.08,-1.65002 -0.07,-1.48999 -0.08,-1.21 -0.06,-0.83999 -0.01,-0.12 -0.15997,-1.57001 -0.10004,-1.17001 -0.03,-0.86999 0.03,-0.66001 0.10004,-0.54999 0.15997,-0.52999 0.06,-0.15 0.59003,-1.11001 0.77002,-0.73999 0.89996,-0.33002 0.58002,0.03 0,0 0.79999,0.39001 0.72998,0.72 0.55999,0.93 0.25,0.82 z" /></g><g
         id="g80"><path
           inkscape:connector-curvature="0"
           id="path82"
           style="fill:#000000;fill-opacity:1;fill-rule:evenodd;stroke:#000000;stroke-width:0.5;stroke-linecap:round;stroke-linejoin:round;stroke-miterlimit:10;stroke-dasharray:none;stroke-opacity:1"
           d="m 861.98999,379.5 1.19,0.87 0.96002,1.20001 0.68,1.47998 0.39001,1.72 0.08,0.82001 -0.01,1.70999 -0.22003,1.42001 -0.46002,1.29999 -0.15998,0.32001 -0.44,0.76999 -0.53003,0.67001 -0.65997,0.61999 -0.85999,0.61002 -1.10003,0.66998 -0.75,0.41001 -2.85999,1.57 -2.90997,1.63001 -2.94001,1.69998 -2.92999,1.74002 -2.89001,1.75 -2.84003,1.75998 -2.73999,1.74002 -2.62,1.69998 -2.46997,1.65 -2.29003,1.58001 -2.07996,1.48999 -1.85004,1.37 -1.58001,1.25 -1.28998,1.10001 -0.16999,0.14999 -1.46002,1.36001 -1.21002,1.10999 -0.98999,0.90002 -0.81,0.71998 -0.64996,0.58001 -0.53003,0.47 -0.45996,0.38999 -0.41003,0.33001 -0.21003,0.16999 -1.39996,0.95001 -1.27002,0.54999 -1.10999,0.14001 -0.95001,-0.26001 -0.77997,-0.66998 -0.53003,-0.96002 -0.21002,-0.63999 -0.11999,-0.72 -0.05,-0.95001 -0.01,-0.66998 0.17004,-2.24002 0.51996,-2.25998 0.87,-2.27002 1.20001,-2.25998 1.54999,-2.26001 0.33002,-0.44 1.19,-1.4 1.28998,-1.36001 1.46002,-1.35999 1.66998,-1.39001 1.92004,-1.47 1.16999,-0.84 0.89001,-0.64999 0.75995,-0.57001 0.56006,-0.45999 0.33996,-0.29999 0.07,-0.13001 -0.01,0 -0.29999,0.02 -0.47003,0.06 -0.66998,0.10001 -0.85999,0.14001 -1.07,0.19 -1.29999,0.22998 -1.52002,0.29001 -1.77002,0.32999 -2.01996,0.39001 -2.28003,0.44999 -2.55999,0.5 -2.83997,0.57 -3.14002,0.62 -3.45001,0.69 -3.77002,0.76001 -4.09997,0.82001 -1.79999,0.35998 -4.21002,0.85001 -3.88001,0.78 -3.58996,0.73001 -3.31,0.66998 -3.07001,0.63001 -2.85003,0.58999 -2.63996,0.54001 -2.48004,0.51999 -2.32001,0.49002 -2.19995,0.47998 -2.10004,0.45001 -2.02996,0.44999 -1.97004,0.45001 -1.95001,0.45001 -1.94995,0.44998 -1.97003,0.47 -2.02002,0.48001 -2.08997,0.51001 -2.19,0.53998 -2.29999,0.58002 -2.46002,0.60998 -2.61999,0.66001 -2.82001,0.70999 -0.15997,0.04 -3.54004,0.89001 -3.22998,0.81998 -2.96002,0.76001 -2.74,0.70999 -2.53997,0.67001 -2.39002,0.63999 -2.27002,0.62002 -2.19995,0.60999 -2.15002,0.61001 -2.15998,0.62998 -2.19,0.65002 -2.26001,0.68 -2.38,0.72998 -2.53003,0.79001 -2.70996,0.85 -1.66004,0.51999 -2.76001,0.87 -2.47998,0.79 -2.21997,0.71 -2.03003,0.65002 -1.89001,0.60999 -1.77997,0.58999 -1.72998,0.57001 -1.73004,0.57999 -1.77997,0.6 -1.86005,0.64002 -1.45996,0.5 -1.48999,0.50998 -1.77002,0.61001 -1.96002,0.67999 -2.07996,0.71 -2.14001,0.74002 -2.10999,0.72 -2.03002,0.69998 -0.97999,0.34 -1.82,0.63 -1.85004,0.64001 -1.81995,0.63001 -1.73004,0.61999 -1.60998,0.57001 -1.40998,0.5 -1.16003,0.42999 -0.72998,0.26999 -1.66998,0.63001 -1.80005,0.69 -1.88996,0.72 -1.93005,0.75 -1.90997,0.73999 -1.84003,0.71002 -1.72998,0.68 -1.56,0.60998 -1.33996,0.54001 -1.08002,0.42999 -0.34003,0.14002 -0.76996,0.31998 -1.04003,0.46002 -1.26001,0.54999 -1.41999,0.64001 -1.52997,0.69 -1.58001,0.72 -1.60004,0.72998 -1.53998,0.71 -1.45001,0.67001 -1.27997,0.6 -1.09003,0.51001 -0.82,0.4 -0.23999,0.11999 -1.08997,0.51001 -0.88,0.28998 -0.76001,0.10001 -0.75,-0.07 -0.07,-0.01 -0.96997,-0.45001 -0.84003,-0.88001 -0.65002,-1.25998 -0.05,-0.13 -0.33002,-1.44 0.01,-1.46002 0.33002,-1.41999 0.65997,-1.33001 0.27002,-0.38999 0.16999,-0.20999 0.21002,-0.21002 0.28003,-0.22 0.36999,-0.25998 0.5,-0.29001 0.63996,-0.35999 0.83001,-0.42001 1.03003,-0.51999 1.25995,-0.62002 1.53003,-0.75 1.82001,-0.87 0.92999,-0.44998 3.81,-1.82001 3.72998,-1.76001 3.61004,-1.69998 3.47998,-1.62 3.32001,-1.53002 3.14002,-1.43998 2.92999,-1.32 2.69995,-1.20002 2.44,-1.05999 2.16004,-0.91999 1.85998,-0.77002 0.05,-0.02 4.14002,-1.66 3.94,-1.54999 3.78998,-1.46002 3.70001,-1.38998 3.69,-1.36002 3.72003,-1.32999 3.81,-1.33001 3.96997,-1.35999 4.19,-1.39999 4.46002,-1.46002 0.73999,-0.23999 2.93,-0.94999 2.77002,-0.89001 2.61999,-0.82999 2.52997,-0.78 2.46002,-0.75 2.44,-0.73001 2.44001,-0.70999 2.48999,-0.71002 2.57,-0.72 2.69001,-0.72998 2.83996,-0.76001 3.02002,-0.79999 3.26001,-0.84 3.51001,-0.90002 3.81,-0.97 1.29999,-0.32999 3.03003,-0.76999 2.81994,-0.71002 2.64002,-0.66 2.48004,-0.62 2.35998,-0.57998 2.26001,-0.55002 2.20997,-0.53 2.17004,-0.51999 2.16998,-0.5 2.02997,-0.47 68.89001,0 0.09,0.13 0.09,-0.13 -0.09,-0.12 -0.09,0.12 -68.89001,0 0.17004,-0.04 2.25,-0.50998 2.34998,-0.52002 2.46997,-0.53998 2.62006,-0.57 2.79998,-0.60001 3.01996,-0.64999 3.25,-0.69001 3.53003,-0.73999 3.83002,-0.81002 1.51996,-0.31998 4.40002,-0.92001 4.09003,-0.85999 3.77997,-0.78 3.52002,-0.73001 3.26001,-0.67001 3.04998,-0.62 2.83997,-0.56998 2.67004,-0.53002 2.51996,-0.48999 2.40003,-0.46 2.28998,-0.42001 2.21002,-0.41 2.16998,-0.37998 2.13001,-0.37002 2.13,-0.34998 2.15002,-0.36001 2.19996,-0.35001 2.26,-0.34998 2.35004,-0.36001 2.47998,-0.37 0.31,-0.05 2.91998,-0.43002 2.60004,-0.36999 2.28998,-0.32001 2.02002,-0.25998 1.75,-0.21002 1.51001,-0.15 1.29998,-0.1 1.09998,-0.05 0.92999,-0.01 0.78003,0.04 0,0 0.64002,0.09 0.53997,0.13 0.45002,0.17001 0.15997,0.08 z" /></g><g
         id="g188"><path
           inkscape:connector-curvature="0"
           id="path190"
           style="fill:#008484;fill-opacity:1;fill-rule:evenodd;stroke:#008484;stroke-width:0.5;stroke-linecap:round;stroke-linejoin:round;stroke-miterlimit:10;stroke-dasharray:none;stroke-opacity:1"
           d="m 727.15997,276.91 0.26001,1.51999 0.28003,1.91001 0.28998,2.20001 0.29004,2.38998 0.19995,1.78 0.17004,1.56 0.20996,1.90002 0.24,2.07999 0.25,2.10999 0.24005,1.97 0.02,0.15002 0.23999,1.98999 0.21002,1.76001 0.19,1.60999 0.16998,1.53 0.16004,1.54 0.16998,1.62 0.16998,1.78 0.19001,2.03 0.21002,2.35 0.23999,2.73999 0.07,0.71002 0.27997,3.12998 0.27002,3.05002 0.28003,2.94 0.25995,2.78 0.24005,2.58999 0.22998,2.35001 0.21002,2.09 0.18,1.76999 0.14996,1.42001 0.12,1.03998 0.08,0.6 0.04,0.16001 0.16003,-0.15 0.38001,-0.41 0.56,-0.62 0.69,-0.77001 0.45001,-0.53 2.13001,-2.28 2.07995,-1.91999 2.15003,-1.64999 2.04999,-1.30002 1.70001,-0.85 1.76001,-0.60999 1.71997,-0.34 1.60998,-0.07 1.42005,0.22 0.02,0.01 0.96002,0.38998 1,0.58002 0.91998,0.69 0.73999,0.72 0.26001,0.34998 0.42004,0.57001 0.25,0.17001 0.10999,-0.23001 0.01,-0.29999 0.15997,-1.22 0.43,-1.30002 0.64001,-1.28 0.82001,-1.17999 0.91998,-0.97 0.42999,-0.32999 0.53003,-0.40002 0.12,-0.13999 6.59997,0 0.14002,0.23001 0.38,0.37 0.52997,0.42999 0.04,0.03 1.57001,1.42999 1.45996,1.86002 1.32001,2.20999 1.15002,2.51001 0.95001,2.75 0.72998,2.91 0.45001,2.85999 0.20002,1.82001 1.63995,-3.64002 0.63,-1.38 0.66004,-1.4 0.61999,-1.29998 0.52997,-1.07001 0.22003,-0.42001 0.78998,-1.43 0.65003,-1.04999 0.57,-0.70999 0.53998,-0.43002 0.57001,-0.17999 0.63,0 0.31,0.05 0.42999,0.07 0.24,0 0.01,-0.01 -0.05,-0.25 -0.15003,-0.65002 -0.22998,-0.97 -0.29004,-1.22 -0.32995,-1.4 -0.01,-0.06 -1.14002,-4.63999 -1.15997,-4.5 -1.17999,-4.28 -1.15003,-3.97 -1.10998,-3.59 -0.28003,-0.84002 -0.96997,-2.94 -0.27002,0.76001 -0.43,1.13 -0.59002,1.44 -0.69,1.63999 -0.75995,1.75 -0.77002,1.74002 -0.75,1.64999 -0.66999,1.42999 -0.45001,0.91001 -0.53003,1.06 -0.57995,1.23999 -0.62006,1.34002 -0.62994,1.4 -0.60004,1.35998 -0.54999,1.26001 -0.45001,1.10001 -0.34998,0.86999 -0.19,0.56 -0.03,0.16 -6.59997,0 0.14001,-0.14999 0.06,-0.25 -0.06,-0.22 -0.14001,-0.78 -0.01,-1.02002 0.11999,-1.06 0.16999,-0.70999 0.24005,-0.51999 0.45996,-0.78 0.64001,-0.98001 0.78998,-1.11999 0.42999,-0.60001 1,-1.36001 0.81,-1.16999 0.68005,-1.06 0.56995,-1.02999 0.51001,-1.10001 0.48999,-1.23001 0.51001,-1.44998 0.56,-1.76001 0.61999,-2.07001 0.45002,-1.44 0.54003,-1.63999 0.58997,-1.76001 0.63,-1.80999 0.63001,-1.78 0.62,-1.68 0.57,-1.51 0.5,-1.26999 0.40003,-0.95002 0.26995,-0.54998 0.44001,-0.60001 0.59002,-0.60001 0.35999,-0.29 1.11999,-0.53998 1.12,-0.06 1.10999,0.41998 1.05004,0.89002 0.81,1.07998 0.45996,0.87 0.56,1.30002 0.65002,1.69 0.72998,2.03 0.79004,2.33999 0.84998,2.60001 0.88,2.81998 0.90003,3.01001 0.91998,3.14001 0.90998,3.23999 0.66003,2.43 0.29999,1.11999 0.39001,1.5 0.48999,1.84 0.54999,2.12002 0.63,2.37 0.66999,2.57 0.71002,2.72999 0.75,2.85 0.76001,2.91 0.76001,2.93 0.76996,2.92001 0.73999,2.85999 0.71002,2.73999 0.67999,2.6 0.62,2.39002 0.55999,2.16 0.48005,1.87998 0.39996,1.54 0.29999,1.17002 0.19,0.75998 0.02,0.08 0.22998,0.88001 0.17004,0.66 0.10999,0.31998 0.01,0.02 -0.01,-0.26001 -0.08,-0.66 -0.11999,-1 -0.15998,-1.24 -0.16003,-1.17001 -0.16998,-1.29999 -0.22003,-1.70999 -0.23999,-2 -0.26996,-2.20001 -0.27002,-2.31 -0.26001,-2.29999 -0.14002,-1.20001 -0.39996,-3.54999 8.51001,0 0.05,0.12998 0.23999,-0.12 0.46002,-0.38 0.70996,-0.64999 0.48999,-0.46 0.83002,-0.83001 0.84997,-0.91999 0.74005,-0.88 0.39997,-0.51999 0.52002,-0.72 0.27997,-0.44 0.08,-0.21 -0.1,-0.05 -0.26001,0.06 -0.01,0 -0.84998,0.37 -0.95001,0.70001 -0.98999,0.92001 -0.92004,1.06 -0.76996,1.12 -0.43,0.82998 -0.25,0.61002 -0.11999,0.38 -8.51001,0 -0.02,-0.19 -0.39002,-3.30002 -0.34997,-2.88 -0.32001,-2.53 -0.29999,-2.22 -0.29003,-1.94998 -0.27997,-1.73001 -0.28003,-1.54999 -0.27997,-1.42001 -0.29999,-1.34 -0.28003,-1.16 -0.39996,-1.60001 -0.29004,-1.22 -0.17999,-0.91999 -0.1,-0.70999 -0.02,-0.57 0.04,-0.52002 0.03,-0.18 0.34998,-1.38998 0.59002,-1.02002 0.82001,-0.64999 1.03998,-0.28 1.13,0.11001 0.95001,0.53998 0.79999,0.99002 0.32001,0.60999 0.56,1.36999 0.58001,1.78 0.59998,2.14002 0.59998,2.39999 0.57,2.60999 0.53003,2.73001 0.38001,2.23001 0.45996,2.91998 1.26001,-1.35999 1.07,-1.05001 1.24,-1.04999 1.28002,-0.95001 1.19001,-0.75 0.38995,-0.19999 0.82001,-0.27999 1.01001,-0.17002 1.10003,-0.06 1.08997,0.05 0.97998,0.15998 0.78003,0.26001 0.19,0.11001 1.19,1.03998 0.93,1.37 0.65002,1.68002 0.38001,1.94998 0.05,0.57001 -0.04,1.92001 -0.38001,2.00998 -0.69995,2.09 -1.01001,2.14001 -1.32001,2.17999 -1.61999,2.21 -1.91004,2.21002 -0.95996,1 -2.34003,2.36999 0.60004,0.19 0.31,0.08 0.60998,0.13001 0.84998,0.16 1.07001,0.20999 1.21002,0.23001 1.33997,0.23999 1.39001,0.26001 1.41998,0.26001 1.40003,0.25 1.32,0.22998 1.21003,0.21002 1.03997,0.18 0.83997,0.13998 0.58002,0.09 0.28003,0.03 0,0 0.23999,-0.07 0.20001,-0.27002 0.21997,-0.56998 0.25,-0.86001 0.35004,-1.06 0.42999,-1.04001 0.38995,-0.75998 0.66004,-1.09002 -0.43,-3.21 -0.20001,-1.6 -0.21002,-1.81 -0.19,-1.75 -0.1,-1.10999 -0.35998,-3.55999 -0.39002,-3.15 -0.45001,-2.84002 -0.52002,-2.63999 -0.61999,-2.51999 -0.71998,-2.51001 -0.28002,-0.86001 -0.75995,-2.34998 -0.92005,0.16999 -0.83996,0.20999 -0.81,0.31002 -0.71002,0.35999 -0.52997,0.37 -0.28003,0.35 -0.01,0.05 -0.41998,1.07001 -0.68,0.86001 -0.89001,0.56998 -1.03998,0.25 -0.20001,0.01 -1.16003,-0.20999 -0.95997,-0.63001 -0.77001,-1.03 -0.56,-1.44 -0.15003,-0.63 -0.14996,-1.5 18.22998,0 0.07,0.26001 0.21002,0.61999 0.31,0.88999 0.38995,1.09002 0.13001,0.35999 0.60003,1.79999 0.59998,2.04 0.54004,2.04001 0.17999,0.79001 0.41998,1.85999 0.41998,2 0.41004,2.04 0.38995,2 0.35004,1.85001 0.28998,1.62998 0.21002,1.29 0.08,0.61002 0.11999,0.85999 0.12,0.45999 0.13995,0.14001 0.10004,-0.03 0.23999,-0.16 0.48999,-0.35999 0.69,-0.52002 0.84003,-0.63998 0.94,-0.71002 0.03,-0.03 2.31,-1.82999 2,-1.70001 1.67999,-1.56998 1.40002,-1.46002 0.06,-0.07 1.08002,-1.33001 1.01001,-1.45999 0.89996,-1.5 0.73999,-1.46 0.55005,-1.36001 0.31995,-1.17999 0.05,-0.34 0.02,-0.73001 -0.13995,-0.54001 -0.29004,-0.48999 -1.02002,-1.20999 -1.34997,-1.05002 -1.27002,-0.70999 -0.87,-0.41 -0.82001,-0.32999 -0.83996,-0.27002 -0.95002,-0.23999 -1.15997,-0.23999 -0.95001,-0.17001 -0.60004,-0.09 -0.82995,-0.08 -1.01001,-0.09 -1.14002,-0.08 -1.22998,-0.07 -1.25,-0.07 -1.25,-0.05 -1.17999,-0.05 -1.07001,-0.03 -0.91003,-0.01 -0.69995,0.01 -0.45002,0.03 -0.15002,0.05 -18.22998,0 0,-0.03 0.17999,-1.51001 0.51001,-1.41999 0.33002,-0.58001 0.63995,-0.72 0.97003,-0.72 1.31,-0.71 1.64002,-0.69998 1.95996,-0.68002 2.27002,-0.66 2.58996,-0.65 1.60004,-0.35998 3.31,-0.59 3.28997,-0.36002 3.25001,-0.13998 3.15002,0.08 3.01001,0.30001 2.82001,0.50998 2.59997,0.73001 2.34003,0.93 0.37994,0.19 2.09003,1.25 1.85998,1.54001 1.72004,1.88998 0.51996,0.68 0.75,1.06002 0.54003,0.88999 0.41999,0.86999 0.34002,0.94001 0.60999,2.23001 0.31,2.11999 0,2.13001 -0.21003,1.86999 -0.64001,2.85001 -0.96997,2.82998 -1.32001,2.83002 -1.64996,2.82999 -1.99005,2.82 -2.33997,2.82001 -2.67999,2.81998 -3.03003,2.83002 -3.37,2.82998 -3.21002,2.45001 -0.84997,0.63999 -0.83002,0.65002 -0.69995,0.56998 -0.47003,0.42001 -0.59003,0.48001 -0.56995,0.25998 -0.71002,0.13001 -0.15997,0.02 -1.18005,0.09 0.16003,1.01999 0.06,1.38001 -0.19001,1.47998 -0.41998,1.38 -0.24005,0.52002 -0.84997,1.28 -1,0.9 -1.18,0.52999 -1.40002,0.18 -0.82001,-0.04 -1.57996,-0.22998 L 823.72998,367.37 821.5,366.76999 818.95001,365.98001 816.08002,365 l -0.10004,-0.03 -1.20996,-0.42999 -1.10004,-0.37 -0.94,-0.32 -0.73999,-0.23001 -0.48999,-0.13999 -0.19,-0.04 0,0 0.02,0.26001 0.11999,0.63999 0.19,0.92001 0.25,1.10999 0,0.02 0.43,2.21 0.21002,1.94998 -0.03,1.78 -0.20001,1.51001 -0.39002,1.28 -0.63995,1.04 -0.79004,0.73001 -0.88995,0.37 -0.92005,-0.06 -0.11999,-0.04 -0.69001,-0.39999 -0.78997,-0.63001 -0.78003,-0.77001 -0.65998,-0.78998 -0.40002,-0.66001 -0.42999,-0.91 0,0.89001 -0.05,0.97999 -0.12,1.20999 -0.16003,1.21002 -0.17999,1.00998 -0.05,0.20001 -0.47998,1.22 -0.70001,0.9 -0.84998,0.58001 -0.92004,0.22 -0.93,-0.15002 -0.86999,-0.53998 -0.57001,-0.67001 -0.56,-0.88999 -0.46997,-0.91 -0.44,-1.02002 -0.41998,-1.20999 -0.43005,-1.47 -0.47998,-1.82001 -0.39002,-1.57999 -0.37,-1.54 -0.33996,-1.38001 -0.29004,-1.16998 -0.21997,-0.86002 -0.14002,-0.5 -0.02,-0.07 -0.19001,-0.19 -0.35998,0.03 -0.26996,0.09 -0.46002,0.13998 -0.70002,0.19 -0.83001,0.19001 -0.57996,0.13 -0.86004,0.22 -1.13996,0.35001 -1.36004,0.44998 -1.53998,0.54001 -1.65003,0.61001 -1.71997,0.65998 -1.72998,0.68002 -1.67999,0.69 -1.59003,0.68 -1.44,0.63998 -0.58002,0.27002 -1.53998,0.69998 -1.26001,0.5 -1.02996,0.30002 -0.84003,0.11 -0.70001,-0.08 -0.59998,-0.27002 -0.54004,-0.45999 -0.37994,-0.45001 -0.18005,-0.18998 -0.16999,-0.06 -0.26001,0.09 -0.38995,0.28998 -0.60004,0.5 -0.28998,0.25 -1.85998,1.38001 -1.82001,0.89001 -1.79004,0.39999 -1.76001,-0.08 -1.60998,-0.51999 -1.42999,-0.94 -1.25001,-1.37 -1.05999,-1.78 -0.88001,-2.20999 -0.67999,-2.61002 -0.19,-0.97 -0.35999,-2.03998 -1.60003,2.91999 -1.79999,3.13 -1.89002,3.01001 L 745,375.28 l -1.90002,2.56 -1.83997,2.22 -1.03003,1.13 -0.76001,0.79999 -0.52997,0.60001 -0.34002,0.45999 -0.19001,0.38 -0.1,0.38001 -0.04,0.25 -0.31,1.42999 -0.56,1.09 -0.78002,0.73001 -0.96998,0.32 -0.24005,0.01 -1.02997,-0.16 -0.84002,-0.5 -0.76996,-0.93002 -0.01,-0.01 -0.38001,-0.52002 -0.28997,-0.32999 -0.10004,-0.05 -0.34998,-0.21002 -0.45001,-0.53998 -0.47003,-0.75 -0.42999,-0.85 -0.32996,-0.83002 -0.17004,-0.69 0,-0.13999 -0.1,-0.39999 -0.22998,-0.57001 -0.28003,-0.55999 -0.25,-0.39002 -0.10998,-0.08 -0.22003,0.09 -0.46998,0.26001 -0.67999,0.37998 -0.82001,0.49002 -0.48999,0.29 -1.11999,0.65998 -1.25,0.70001 -1.23999,0.66 -1.08002,0.54001 -0.10003,0.05 -1.33997,0.64999 -1.16998,0.60001 -1.09003,0.60001 -1.09998,0.66 -1.21002,0.78 -1.40002,0.92999 -0.40998,0.28 -1.39001,0.91 -1.15997,0.66999 -0.97003,0.45001 -0.84998,0.25 -0.79004,0.07 -0.73999,-0.07 -1.17999,-0.45001 -1.04999,-0.87 -0.89001,-1.22 -0.64997,-1.5 -0.34002,-1.47998 -0.10999,-1.29001 0.06,-1.34 0.22998,-1.52001 0.35003,-1.51999 0.18,-0.68 0.19,-0.67999 0.23999,-0.72 0.29999,-0.82001 0.36999,-0.97 0.47998,-1.17001 0.08,-0.17999 9.56,0 0.17999,-0.10001 0.44,-0.25 0.65003,-0.38999 0.78998,-0.48001 0.42999,-0.25998 1.08002,-0.63 1.17999,-0.67001 1.15002,-0.60999 0.98999,-0.49002 0.06,-0.03 0.78998,-0.38 0.64001,-0.34998 0.44,-0.27002 0.18,-0.16998 0,0 -0.08,-0.29001 -0.22998,-0.62 -0.33997,-0.88 -0.42004,-1.03 -0.03,-0.07 -0.57001,-1.39999 -0.63,-1.59 -0.60999,-1.54 -0.32,-0.82999 -0.40003,-1.01001 -0.34997,-0.81 -0.25,-0.53 -0.13001,-0.16 0,0 -0.1,0.29999 -0.19001,0.66 -0.25,0.93002 -0.24005,0.91999 -0.36999,1.38 -0.44995,1.63999 -0.52002,1.79 -0.53003,1.82001 -0.52997,1.75 -0.47998,1.56 -0.41003,1.25 -0.14002,0.39999 -0.23999,0.73001 -0.15997,0.51999 -0.03,0.19001 -9.56,0 0.52002,-1.24 0.72998,-1.73001 0.90002,-2.08999 0.25,-0.57999 0.60999,-1.43002 0.64001,-1.56 0.66999,-1.63998 0.65002,-1.65 0.62,-1.61001 0.57,-1.48999 0.48999,-1.32001 0.38001,-1.07999 0.26001,-0.78 0.10998,-0.42001 0,-0.03 -0.11999,0.06 -0.33002,0.32999 -0.46002,0.52001 -0.13995,0.16001 -0.80005,0.91998 -0.73999,0.73001 -0.75,0.57999 -0.84998,0.5 -1.01001,0.45001 -1.27002,0.45001 -0.35998,0.12998 -1.12,0.38 -0.79999,0.30002 -0.53002,0.25 -0.28998,0.19998 -0.08,0.17002 0,0.01 0.08,0.42001 0.15997,0.70999 0.15002,0.61002 0.33002,1.98999 0.01,2.11001 -0.28998,2.17999 -0.58996,2.16001 -0.66004,1.63998 -1.36999,2.54001 -1.54999,2.20999 -1.71002,1.84 -1.82001,1.44 -1.90997,1.01001 -1.96002,0.54001 -0.24,0.04 -1.58996,-0.05 -1.58002,-0.51001 -1.5,-0.91998 -1.36999,-1.29001 -1.15003,-1.62 -0.17999,-0.32 -0.83002,-1.53 -0.13,1.47 -0.23999,1.89999 -0.34998,1.51001 -0.48999,1.23001 -0.44,0.72998 -0.92004,1.01001 -1.00995,0.56 -1.05005,0.10001 -1.04999,-0.36002 -0.62,-0.47998 -0.46002,-0.49002 -0.45996,-0.66 -0.47003,-0.84 -0.51001,-1.07999 -0.54999,-1.33999 -0.59997,-1.64002 -0.69001,-1.97998 -0.77002,-2.36001 -0.86999,-2.76999 -0.52997,-1.71002 -0.64001,-2.06998 -0.71002,-2.25 -0.72999,-2.28 -0.71002,-2.20001 -0.64996,-1.95999 -0.34003,-1.01001 6.83002,0 0.07,0.20001 0.05,-0.04 0.02,-0.29001 -0.02,-0.04 -0.10998,0.03 -0.01,0.13999 -6.83002,0 -0.03,-0.10999 -1.77002,-5.24002 -0.09,10.12 -0.1,10.13 0.69,2 0.33002,0.92001 0.45996,1.21 0.54999,1.39001 0.58002,1.42999 0.34002,0.81 0.69001,1.66 0.53997,1.29999 0.39002,1.01001 0.27002,0.78 0.16998,0.62 0.1,0.52999 0.04,0.51001 0.01,0.48001 -0.15998,1.53 -0.41998,1.31 -0.66003,1.03998 -0.82001,0.75 -0.94,0.40002 -1.00995,0.02 -1.02002,-0.41 -0.41999,-0.29999 -0.38,-0.44 -0.51001,-0.75 -0.59003,-0.96002 -0.59997,-1.06 -0.56,-1.06998 -0.46002,-0.98001 -0.20996,-0.51001 -0.26001,-0.63998 -0.21002,-0.29001 -0.28998,-0.04 -0.25,0.05 -0.79999,0.25 -1.09003,0.39999 -1.33002,0.53 -1.51995,0.63999 -1.66004,0.73001 -1.76001,0.80001 -1.82995,0.84998 -0.63001,0.30002 -2.41003,1.13998 -2.12,0.96002 -1.84997,0.76999 -1.61005,0.60001 -1.37994,0.42999 -1.20002,0.26999 -1.02002,0.12 -0.88,-0.02 -0.77002,-0.16999 -0.67999,-0.30001 -0.09,-0.05 -0.75,-0.68002 -0.66003,-0.98999 -0.45996,-1.13999 -0.08,-0.33002 -0.21997,-1.05999 -1.04004,1.35 -2.14001,2.73001 -2.19001,2.62998 -2.26996,2.57001 -2.40002,2.58001 -2.58997,2.62 -2.82,2.73999 -2.41004,2.25 -2.56,2.33999 -2.51,2.26001 -2.44996,2.16999 -2.35003,2.04001 -2.22998,1.91 -2.10004,1.75 -1.92999,1.56 -1.72998,1.36999 -1.52002,1.15 -1.27997,0.90002 -0.98999,0.61999 -1.14002,0.51001 -1.16998,0.25 -1.09003,-0.03 -0.92999,-0.28998 -0.19,-0.11002 -1.02002,-0.91 -0.70996,-1.12998 -0.42004,-1.37002 -0.10999,-1.42999 0.16998,-1.75 0.51001,-1.66001 0.84003,-1.54999 1.08002,-1.33001 0.35998,-0.34 0.63001,-0.53998 0.84997,-0.69 1.03003,-0.82001 1.14997,-0.91 1.23004,-0.95999 0.63995,-0.48001 2.20001,-1.69001 2.23999,-1.73999 2.25,-1.76001 2.22003,-1.75998 2.16999,-1.73001 2.08001,-1.67999 1.95002,-1.59 1.80999,-1.49002 1.60999,-1.35 1.39996,-1.19 1.15003,-1.00998 0.69,-0.63001 2.71997,-2.61999 2.61005,-2.69001 2.47998,-2.70999 2.30999,-2.68002 2.10999,-2.62998 0.81,-1.1 17.59002,0 3,-1.57001 1.09998,-0.56 1.13001,-0.55001 1.04998,-0.47999 0.88001,-0.36999 0.46002,-0.18002 0.75,-0.26999 0.46997,-0.20999 0.24005,-0.18 0.07,-0.20001 -0.02,-0.20001 -0.14002,-0.44998 -0.24999,-0.73001 -0.33997,-0.9 L 657.4,370.7 l -0.38,-0.97 -0.35004,-0.86001 -0.27997,-0.63999 -0.17004,-0.33002 -0.02,-0.03 -0.15002,0.19 -0.33002,0.5 -0.44995,0.73999 -0.55005,0.92001 -0.11999,0.20001 -0.69996,1.16999 -0.84002,1.36001 -0.89002,1.38999 -0.82995,1.26999 -0.09,0.13 -1.87,2.80002 -17.59002,0 1.06,-1.44 1.60003,-2.39002 0.70996,-1.16998 0.71002,-1.23001 0.64002,-1.18 0.54999,-1.05001 0.41998,-0.87998 0.27002,-0.63 0.08,-0.32001 0,-0.02 -0.19001,0 -0.46002,0.08 -0.65997,0.14001 -0.67004,0.15998 -2.18,0.66 -2.38995,0.95001 -2.55005,1.20001 -2.67999,1.43998 -2.73999,1.64001 -2.75,1.82999 -2.07001,1.48001 -2.08997,1.54999 -1.80004,1.34002 -1.54999,1.12998 -1.32001,0.95001 -1.10998,0.78 -0.94001,0.63 -0.77997,0.48999 -0.65002,0.37 -0.56,0.27002 -0.47003,0.19 -0.42999,0.10999 -0.40998,0.06 -0.41003,0.02 -0.04,0 -1.14996,-0.18002 -0.97003,-0.60999 -0.77997,-1.03 -0.37006,-0.75 -0.40997,-1.30001 -0.15997,-1.34 0.1,-1.41 0.38001,-1.5 0.65997,-1.60999 0.94,-1.75 1.23999,-1.91 1.55005,-2.10001 0.46997,-0.58999 4.26001,-5.53 4.15003,-5.66999 3.95996,-5.73001 3.71002,-5.69 1.20996,-1.92999 0.52002,-0.87 0.67999,-1.14001 0.82001,-1.37 0.90002,-1.54001 0.96998,-1.64999 1,-1.72 1,-1.72 0.96002,-1.66999 0.89996,-1.57 0.80005,-1.4 0.67999,-1.19 0.51001,-0.92001 0.32001,-0.59 0,0 0.71997,-1.06 0.88,-0.73999 0.93,-0.37002 0.28003,-0.02 0.92999,0.20999 0.82001,0.57001 0.65997,0.85 0.44,1.06 0.18,1.17999 -0.04,0.69001 -0.20002,0.89999 -0.34997,1.01001 -0.43005,0.95999 -0.43,0.75 -0.25,0.28 -0.22998,0.29001 -0.40997,0.63 -0.59003,0.91999 -0.71002,1.16 -0.82001,1.34 -0.87994,1.5 -0.65003,1.1 -1.53002,2.60001 -1.33997,2.26999 -1.19,2.01001 -1.09003,1.79999 -1.02997,1.67001 -1,1.59 -1,1.57 -1.06,1.63001 -1.14001,1.72998 -0.19,0.29001 -1.27002,1.92999 -1.06,1.59 -0.84998,1.29 -0.66003,1.02002 -0.5,0.76999 -0.34998,0.54999 -0.21002,0.38001 -0.10998,0.20999 0,0.1 0.07,-0.01 0.11999,-0.06 0.13,-0.08 0.41999,-0.26999 0.64001,-0.40002 0.75,-0.46998 0.45001,-0.29 2.47999,-1.48001 2.51001,-1.34 2.46002,-1.15 2.36999,-0.95001 2.20001,-0.72 0.06,-0.01 7.78998,0 0.76001,0.54999 1.08997,1.06 0.86999,1.41 0.63001,1.67001 0.36004,1.84998 0.06,1.97 -0.07,0.82001 -0.25,1.63 -0.40002,1.62 -0.57001,1.70999 -0.78998,1.92001 -0.36999,0.82001 -0.15003,0.34998 -0.04,0.18002 0.09,-0.03 0.26001,-0.25 0.44,-0.49002 0.65003,-0.76999 0.88,-1.07001 0.14002,-0.17999 0.86999,-1.07001 0.88996,-1.16998 0.84002,-1.12002 0.67999,-0.96998 0.13001,-0.19 0.54999,-0.86001 0.65002,-1.04001 0.69,-1.12998 0.69001,-1.17001 0.66998,-1.14001 0.60998,-1.03998 0.49,-0.89002 0.35003,-0.66 0.16998,-0.35999 0.01,-0.05 -0.09,-0.32999 -0.25,-0.67999 -0.38996,-0.97001 -0.49005,-1.20001 -0.56994,-1.35 -0.62006,-1.43 -0.62994,-1.47 -0.63001,-1.41998 -0.59002,-1.32001 -0.52997,-1.14001 -0.43006,-0.9 -0.29999,-0.6 -0.13,-0.20999 -0.13,-0.06 -0.19001,0.11999 -0.26996,0.36002 -0.40002,0.63 -0.54999,0.96 -0.36999,0.64999 -0.72998,1.34 -0.80005,1.51001 -0.76996,1.48999 -0.65003,1.30001 -0.03,0.06 -1.34003,2.75 -7.78998,0 1.91998,-0.45001 0.15003,-0.03 0.97998,-0.16 -0.25,-1.04999 -0.16003,-0.84 -0.03,-0.80001 0.11999,-0.82999 0.28998,-0.96002 0.48004,-1.15998 0.69,-1.45001 0.03,-0.06 0.63001,-1.36001 0.71002,-1.60999 0.71997,-1.70001 0.63001,-1.57999 0.11999,-0.30999 0.79004,-2.04001 0.69995,-1.62 0.65002,-1.26999 0.63001,-0.99002 0.64001,-0.75 0.68,-0.57998 0.04,-0.03 1.13001,-0.67002 1.02002,-0.26999 1.01001,0.10001 0.81,0.31998 0.70996,0.38 0.66003,0.47 0.63996,0.57001 0.61999,0.72 0.65003,0.91001 0.66998,1.13 0.73004,1.37 0.82001,1.66998 0.89996,2 1.03003,2.35001 1.16998,2.76 0.29999,0.69999 2.47003,5.88 -0.11004,-7.75998 -0.03,-2 -0.03,-1.90002 -0.02,-1.72 -0.02,-1.47998 -0.02,-1.15 -0.01,-0.76001 -0.01,-0.14999 0.04,-1.09 0.19,-0.84002 0.14002,-0.37 0.46997,-0.75 0.65002,-0.64999 0.70001,-0.43 0.48999,-0.1 0.70997,0.20001 0.75,0.53998 0.65002,0.76001 0.27002,0.45001 0.57996,0.86999 0.60003,0.43 0.67999,0.48999 0.78998,0.93002 0.88001,1.32999 0.96002,1.70001 1.01001,2.01999 1.06,2.32999 1.07,2.59002 1.03998,2.70999 0.41999,1.12 0.36999,0.94 0.28003,0.67001 0.16998,0.32999 0.03,0.03 0.01,-0.28 0,-0.70001 -0.03,-1.03 -0.05,-1.29999 -0.06,-1.48001 0,-0.05 -0.04,-1.19 -0.04,-1.64001 -0.04,-2.00998 -0.04,-2.32001 -0.03,-2.57001 -0.02,-2.76999 -0.02,-2.89001 -0.01,-2.95999 -0.01,-1.01999 -0.01,-2.78 -0.01,-2.74002 -0.02,-2.62 -0.02,-2.45999 -0.02,-2.23001 -0.02,-1.94 -0.03,-1.59 -0.03,-1.19 -0.01,-0.53 -0.06,-1.44 -0.02,-1.03998 0.02,-0.76001 0.06,-0.6 0.10004,-0.53 0.06,-0.23999 0.58001,-1.54001 0.81,-1.20999 0.96997,-0.86002 1.09003,-0.45999 1.15997,-0.05 1.15003,0.41 0.33996,0.21998 0.87,0.77001 0.67004,1.01001 0.54999,1.35999 0.08,0.26999 0.06,0.20001 0.05,0.23999 0.05,0.29001 0.04,0.38 0.03,0.51001 0.03,0.65998 0.03,0.84002 0.02,1.06998 0.01,1.31 0.02,1.60001 0.01,1.92001 0.01,2.25 0.01,2.63998 0.01,3.05002 0.01,3.48999 0.01,3.25 0.01,4.23999 0.02,3.75 0.01,3.29001 0.02,2.82999 0.02,2.41 0.02,1.99002 0.03,1.59998 0.02,1.22 0.04,0.85 0.03,0.51001 0.03,0.18 0.15002,0.06 0.12,-0.35998 0.05,-0.37 0.32,-1.91 0.46998,-2.24002 0.60003,-2.44998 0.70996,-2.58002 0.78003,-2.59 0.69,-2.07998 0.48999,-1.31 0.60999,-1.53 0.69,-1.63 0.72003,-1.63001 0.70002,-1.48999 0.61999,-1.25 0.37,-0.69 0.46997,-0.87 0.47003,-0.95001 0.19995,-0.42001 0.52002,-1.03998 0.52002,-0.68002 0.60998,-0.40998 0.22004,-0.09 0.94995,-0.10999 0.91003,0.32999 0.77997,0.74002 0.47003,0.81998 0.29999,1.12002 0.06,1.31 -0.21002,1.56 -0.45997,1.83999 -0.15002,0.48001 -1.39001,4.44999 -1.21998,4.14001 -1.04998,3.79999 -0.88001,3.45001 L 692,354.81 l -0.15002,0.73999 -0.44001,2.33001 -0.32995,2.01001 -0.23004,1.79999 -0.13996,1.75 -0.06,1.81 -0.02,1.10001 0.02,1.83999 0.09,1.38001 0.16998,0.95999 0.29004,0.57999 0.40998,0.25 0.58001,-0.05 0.75,-0.32001 0.27002,-0.13998 0.46997,-0.33002 0.57001,-0.53 0.63,-0.64999 0.59998,-0.69999 0.51001,-0.66 0.35004,-0.54001 0.12994,-0.33999 -0.13995,-0.22001 -0.37,-0.39999 -0.51001,-0.48001 -0.07,-0.06 -1.28997,-1.26001 -0.97003,-1.28998 -0.66999,-1.34002 -0.39001,-1.44998 -0.13001,-1.62 0,-0.08 0.13001,-1.72 0.40002,-1.51999 0.67999,-1.38 0.33997,-0.42001 41.84003,0 0.02,0.66 0.04,0.91 0.08,1.22 0.10999,1.59 0.15997,2.02002 0.03,0.42999 0.14001,1.82999 0.13996,1.66 0.11004,1.42002 0.1,1.13 0.06,0.76999 0.04,0.34 0,0.02 0.14001,-0.15 0.35004,-0.41 0.48999,-0.57999 0.32995,-0.39999 0.86005,-1.05002 1,-1.26999 1.07996,-1.42001 1.13,-1.48999 0.88001,-1.19001 16.39001,0 0.09,2.03 0.27996,1.75 0.44001,1.41001 0.19,0.39999 0.28998,0.42001 0.30005,0.15 0.47998,-0.07 0.52997,-0.19998 0.68005,-0.37 0.54999,-0.38 0.73999,-0.67001 0.85998,-0.97999 0.89002,-1.19 0,0 0.70001,-1.05002 0.51996,-0.89999 0.44,-0.94 0.17999,-0.48999 12.04004,0 0.01,0.02 0.17999,-0.07 0.45997,-0.19998 0.69,-0.31 0.85003,-0.39001 0.83997,-0.38001 1.45001,-0.64999 1.47003,-0.63001 1.43,-0.57999 1.33996,-0.52001 1.18,-0.43 0.97003,-0.30999 0.64996,-0.18 0.51001,-0.13 0.22003,-0.16999 0,-0.26001 0,-0.02 -0.13,-0.47999 -0.22003,-0.88 -0.29999,-1.19 -0.34998,-1.43 -0.39001,-1.58999 -0.40998,-1.68002 -0.40002,-1.66999 -0.39002,-1.6 -0.34997,-1.44999 -0.28003,-1.21002 -0.21997,-0.89999 -0.06,-0.29999 -0.23999,-1.03 -0.17004,-0.61001 -0.13001,-0.26001 -0.10998,0.01 -0.08,0.13 -0.13995,0.34 -0.27002,0.72 -0.38001,1.03 -0.45001,1.26999 -0.51001,1.42001 -0.23999,0.67999 -0.60998,1.70001 -0.71003,1.94001 -0.77997,2.07998 -0.79998,2.12 -0.79999,2.08002 -0.75,1.92999 -0.67004,1.69 -0.54999,1.35001 -0.09,0.20999 -0.19995,0.51001 -0.07,0.28 -12.04004,0 0.25,-0.66001 0.20002,-0.6 0.69,-2.32001 0.45001,-2.16 0.23999,-2.16999 0.05,-1.76999 L 768.90997,346.5 768.5,344.14999 767.81,342.03 l -0.98999,-1.94 -0.22998,-0.37 -0.76001,-1.09 -0.60004,-0.70999 -0.48999,-0.36001 -0.40997,-0.04 -0.13001,0.05 -0.41998,0.44998 -0.48004,0.88 -0.51001,1.26001 -0.52997,1.56 -0.54004,1.82999 -0.52997,2.01001 -0.51001,2.16 -0.46002,2.23001 -0.41998,2.23999 -0.33997,2.20999 -0.27002,2.10001 -0.10998,1.17001 -0.08,2.22998 -16.39001,0 0.22003,-0.30999 1.03997,-1.41999 0.91004,-1.29001 0.72998,-1.08001 0.33997,-0.51999 1.63,-2.75 1.41003,-2.69 1.15998,-2.59 0.89001,-2.45001 0.60999,-2.25998 0.11999,-0.59 0.22003,-1.42001 0.04,-1.01999 -0.14996,-0.66 -0.37006,-0.38001 -0.60998,-0.11999 -0.67999,0.04 -1.65998,0.40998 -1.77002,0.83001 -1.83002,1.21 -1.85998,1.57 -1.83002,1.88999 -0.98999,1.17001 -0.66998,0.87 -0.75,1.05999 -0.78003,1.15 -0.76001,1.17001 -0.68994,1.10999 -0.56006,0.96002 -0.38995,0.75 -0.12,0.28998 -0.07,0.24002 -0.05,0.32998 -0.02,0.46 -41.84003,0 0.65002,-0.82999 1.32001,-1.16 0.58002,-0.41999 1.32995,-0.91 1.13001,-0.75 1.01001,-0.63001 0.97998,-0.58001 1.04004,-0.56998 1.19995,-0.62 1.44,-0.72 0.01,0 1.04004,-0.51001 0.78998,-0.36999 0.62,-0.24002 0.53002,-0.13999 0.51996,-0.07 0.58002,-0.02 0.23999,0 1.51001,0.16 1.31,0.47 1.09002,0.75998 0.83997,1.02002 0.31,0.62998 0.30999,0.73001 0.42005,-0.87 0.42999,-0.69 0.54999,-0.62 0.13,-0.11999 0.43,-0.34 0.27997,-0.23001 0.05,-0.04 -0.04,-0.23999 -0.15998,-0.53 -0.08,-0.26001 -0.16998,-0.50998 -0.27002,-0.89001 -0.35998,-1.19 -0.41999,-1.41001 L 714.20006,339.6 714,338.92999 713.56,337.41 l -0.40003,-1.36001 -0.34997,-1.15 -0.26001,-0.85 -0.15998,-0.48999 -0.04,-0.09 -0.15998,0.07 -0.26001,0.39999 -0.14996,0.28 -0.32001,0.63001 -0.48004,0.83999 -0.54999,0.9 -0.17999,0.28 -0.60999,0.89001 -0.57,0.67999 -0.64002,0.59 -0.84997,0.61999 -0.05,0.04 -0.87006,0.56 -0.65997,0.35001 -0.56,0.16998 -0.45001,0.04 -1.02002,-0.23001 -0.85998,-0.63999 -0.66999,-0.98001 -0.42999,-1.25998 -0.13001,-1.35 0.06,-0.71 0.16999,-1.01001 0.23999,-1.13 0.11999,-0.47 0.37006,-1.23999 0.44,-1.20001 0.56995,-1.26001 0.72003,-1.38999 0.91998,-1.61001 0.48999,-0.79999 0.57001,-1.04001 0.56,-1.22 0.44,-1.12 0.02,-0.06 0.33001,-0.88999 0.31995,-0.73001 0.27002,-0.42999 0.04,-0.04 0.32995,-0.32001 0.46003,-0.51999 0.25,-0.32 0.55999,-0.62 0.56,-0.29999 0.44,-0.1 0.75,-0.01 0.63001,0.25 0.61999,0.54999 0.68,0.92001 0.14001,0.20999 0.45996,0.76001 0.44001,0.81 0.44,0.89001 0.46002,1.03998 0.5,1.25 0.56,1.5 0.65002,1.80002 0.75,2.16998 0.64996,1.89002 0.67005,1.94998 0.67999,1.97 0.65997,1.90002 0.62,1.73999 0.53003,1.48001 0.41998,1.15 0.1,0.26999 0.42999,1.08999 0.5,1.28 0.56006,1.38001 0.56995,1.42001 0.57,1.37998 0.53003,1.27001 0.45996,1.07999 0.36005,0.84 0.22998,0.5 0.06,0.1 0.03,0.06 0.03,0.05 0.02,0 0,-0.10001 -0.01,-0.22 -0.03,-0.39999 -0.05,-0.61002 -0.08,-0.85998 -0.1,-1.15 -0.15003,-1.48001 -0.16998,-1.85 -0.21997,-2.26999 -0.26001,-2.71002 -0.04,-0.43 -0.31006,-3.19998 -0.26996,-2.78 -0.22003,-2.41 -0.19995,-2.11002 L 724.62,328.31 724.46997,326.60001 724.34003,325 l -0.12006,-1.56 -0.11999,-1.58999 -0.12,-1.67002 -0.10999,-1.66 -0.15002,-2.25 -0.15997,-2.60999 -0.16999,-2.86999 -0.17004,-3.06 -0.17999,-3.14001 -0.15998,-3.16001 -0.16003,-3.07998 -0.14996,-2.91001 -0.12,-2.66 -0.10003,-2.32999 -0.0699,-1.73001 -0.0601,-1.70999 -0.08,-1.65002 -0.07,-1.48999 -0.08,-1.21 -0.06,-0.83999 -0.01,-0.12 -0.15997,-1.57001 -0.10004,-1.17001 -0.03,-0.86999 0.03,-0.66001 0.10004,-0.54999 0.15997,-0.52999 0.06,-0.15 0.59003,-1.11001 0.77002,-0.73999 0.89996,-0.33002 0.58002,0.03 0,0 0.79999,0.39001 0.72998,0.72 0.55999,0.93 0.25,0.82 z" /></g><g
         id="g192"><path
           inkscape:connector-curvature="0"
           id="path194"
           style="fill:#008484;fill-opacity:1;fill-rule:evenodd;stroke:#008484;stroke-width:0.5;stroke-linecap:round;stroke-linejoin:round;stroke-miterlimit:10;stroke-dasharray:none;stroke-opacity:1"
           d="m 861.98999,379.5 1.19,0.87 0.96002,1.20001 0.68,1.47998 0.39001,1.72 0.08,0.82001 -0.01,1.70999 -0.22003,1.42001 -0.46002,1.29999 -0.15998,0.32001 -0.44,0.76999 -0.53003,0.67001 -0.65997,0.61999 -0.85999,0.61002 -1.10003,0.66998 -0.75,0.41001 -2.85999,1.57 -2.90997,1.63001 -2.94001,1.69998 -2.92999,1.74002 -2.89001,1.75 -2.84003,1.75998 -2.73999,1.74002 -2.62,1.69998 -2.46997,1.65 -2.29003,1.58001 -2.07996,1.48999 -1.85004,1.37 -1.58001,1.25 -1.28998,1.10001 -0.16999,0.14999 -1.46002,1.36001 -1.21002,1.10999 -0.98999,0.90002 -0.81,0.71998 -0.64996,0.58001 -0.53003,0.47 -0.45996,0.38999 -0.41003,0.33001 -0.21003,0.16999 -1.39996,0.95001 -1.27002,0.54999 -1.10999,0.14001 -0.95001,-0.26001 -0.77997,-0.66998 -0.53003,-0.96002 -0.21002,-0.63999 -0.11999,-0.72 -0.05,-0.95001 -0.01,-0.66998 0.17004,-2.24002 0.51996,-2.25998 0.87,-2.27002 1.20001,-2.25998 1.54999,-2.26001 0.33002,-0.44 1.19,-1.4 1.28998,-1.36001 1.46002,-1.35999 1.66998,-1.39001 1.92004,-1.47 1.16999,-0.84 0.89001,-0.64999 0.75995,-0.57001 0.56006,-0.45999 0.33996,-0.29999 0.07,-0.13001 -0.01,0 -0.29999,0.02 -0.47003,0.06 -0.66998,0.10001 -0.85999,0.14001 -1.07,0.19 -1.29999,0.22998 -1.52002,0.29001 -1.77002,0.32999 -2.01996,0.39001 -2.28003,0.44999 -2.55999,0.5 -2.83997,0.57 -3.14002,0.62 -3.45001,0.69 -3.77002,0.76001 -4.09997,0.82001 -1.79999,0.35998 -4.21002,0.85001 -3.88001,0.78 -3.58996,0.73001 -3.31,0.66998 -3.07001,0.63001 -2.85003,0.58999 -2.63996,0.54001 -2.48004,0.51999 -2.32001,0.49002 -2.19995,0.47998 -2.10004,0.45001 -2.02996,0.44999 -1.97004,0.45001 -1.95001,0.45001 -1.94995,0.44998 -1.97003,0.47 -2.02002,0.48001 -2.08997,0.51001 -2.19,0.53998 -2.29999,0.58002 -2.46002,0.60998 -2.61999,0.66001 -2.82001,0.70999 -0.15997,0.04 -3.54004,0.89001 -3.22998,0.81998 -2.96002,0.76001 -2.74,0.70999 -2.53997,0.67001 -2.39002,0.63999 -2.27002,0.62002 -2.19995,0.60999 -2.15002,0.61001 -2.15998,0.62998 -2.19,0.65002 -2.26001,0.68 -2.38,0.72998 -2.53003,0.79001 -2.70996,0.85 -1.66004,0.51999 -2.76001,0.87 -2.47998,0.79 -2.21997,0.71 -2.03003,0.65002 -1.89001,0.60999 -1.77997,0.58999 -1.72998,0.57001 -1.73004,0.57999 -1.77997,0.6 -1.86005,0.64002 -1.45996,0.5 -1.48999,0.50998 -1.77002,0.61001 -1.96002,0.67999 -2.07996,0.71 -2.14001,0.74002 -2.10999,0.72 -2.03002,0.69998 -0.97999,0.34 -1.82,0.63 -1.85004,0.64001 -1.81995,0.63001 -1.73004,0.61999 -1.60998,0.57001 -1.40998,0.5 -1.16003,0.42999 -0.72998,0.26999 -1.66998,0.63001 -1.80005,0.69 -1.88996,0.72 -1.93005,0.75 -1.90997,0.73999 -1.84003,0.71002 -1.72998,0.68 -1.56,0.60998 -1.33996,0.54001 -1.08002,0.42999 -0.34003,0.14002 -0.76996,0.31998 -1.04003,0.46002 -1.26001,0.54999 -1.41999,0.64001 -1.52997,0.69 -1.58001,0.72 -1.60004,0.72998 -1.53998,0.71 -1.45001,0.67001 -1.27997,0.6 -1.09003,0.51001 -0.82,0.4 -0.23999,0.11999 -1.08997,0.51001 -0.88,0.28998 -0.76001,0.10001 -0.75,-0.07 -0.07,-0.01 -0.96997,-0.45001 -0.84003,-0.88001 -0.65002,-1.25998 -0.05,-0.13 -0.33002,-1.44 0.01,-1.46002 0.33002,-1.41999 0.65997,-1.33001 0.27002,-0.38999 0.16999,-0.20999 0.21002,-0.21002 0.28003,-0.22 0.36999,-0.25998 0.5,-0.29001 0.63996,-0.35999 0.83001,-0.42001 1.03003,-0.51999 1.25995,-0.62002 1.53003,-0.75 1.82001,-0.87 0.92999,-0.44998 3.81,-1.82001 3.72998,-1.76001 3.61004,-1.69998 3.47998,-1.62 3.32001,-1.53002 3.14002,-1.43998 2.92999,-1.32 2.69995,-1.20002 2.44,-1.05999 2.16004,-0.91999 1.85998,-0.77002 0.05,-0.02 4.14002,-1.66 3.94,-1.54999 3.78998,-1.46002 3.70001,-1.38998 3.69,-1.36002 3.72003,-1.32999 3.81,-1.33001 3.96997,-1.35999 4.19,-1.39999 4.46002,-1.46002 0.73999,-0.23999 2.93,-0.94999 2.77002,-0.89001 2.61999,-0.82999 2.52997,-0.78 2.46002,-0.75 2.44,-0.73001 2.44001,-0.70999 2.48999,-0.71002 2.57,-0.72 2.69001,-0.72998 2.83996,-0.76001 3.02002,-0.79999 3.26001,-0.84 3.51001,-0.90002 3.81,-0.97 1.29999,-0.32999 3.03003,-0.76999 2.81994,-0.71002 2.64002,-0.66 2.48004,-0.62 2.35998,-0.57998 2.26001,-0.55002 2.20997,-0.53 2.17004,-0.51999 2.16998,-0.5 2.02997,-0.47 68.89001,0 0.09,0.13 0.09,-0.13 -0.09,-0.12 -0.09,0.12 -68.89001,0 0.17004,-0.04 2.25,-0.50998 2.34998,-0.52002 2.46997,-0.53998 2.62006,-0.57 2.79998,-0.60001 3.01996,-0.64999 3.25,-0.69001 3.53003,-0.73999 3.83002,-0.81002 1.51996,-0.31998 4.40002,-0.92001 4.09003,-0.85999 3.77997,-0.78 3.52002,-0.73001 3.26001,-0.67001 3.04998,-0.62 2.83997,-0.56998 2.67004,-0.53002 2.51996,-0.48999 2.40003,-0.46 2.28998,-0.42001 2.21002,-0.41 2.16998,-0.37998 2.13001,-0.37002 2.13,-0.34998 2.15002,-0.36001 2.19996,-0.35001 2.26,-0.34998 2.35004,-0.36001 2.47998,-0.37 0.31,-0.05 2.91998,-0.43002 2.60004,-0.36999 2.28998,-0.32001 2.02002,-0.25998 1.75,-0.21002 1.51001,-0.15 1.29998,-0.1 1.09998,-0.05 0.92999,-0.01 0.78003,0.04 0,0 0.64002,0.09 0.53997,0.13 0.45002,0.17001 0.15997,0.08 z" /></g></g></g></svg>