G04 #@! TF.GenerationSoftware,KiCad,Pcbnew,5.1.5-52549c5~84~ubuntu18.04.1*
G04 #@! TF.CreationDate,2020-01-13T18:21:35+00:00*
G04 #@! TF.ProjectId,sangaboard_v0.3,73616e67-6162-46f6-9172-645f76302e33,0.3*
G04 #@! TF.SameCoordinates,Original*
G04 #@! TF.FileFunction,Copper,L2,Bot*
G04 #@! TF.FilePolarity,Positive*
%FSLAX46Y46*%
G04 Gerber Fmt 4.6, Leading zero omitted, Abs format (unit mm)*
G04 Created by KiCad (PCBNEW 5.1.5-52549c5~84~ubuntu18.04.1) date 2020-01-13 18:21:35*
%MOMM*%
%LPD*%
G04 APERTURE LIST*
%ADD10C,1.750000*%
%ADD11R,1.750000X1.750000*%
%ADD12O,0.950000X1.250000*%
%ADD13O,1.550000X1.000000*%
%ADD14C,3.000000*%
%ADD15C,1.500000*%
%ADD16O,1.700000X1.700000*%
%ADD17R,1.700000X1.700000*%
%ADD18O,1.000000X1.550000*%
%ADD19O,1.250000X0.950000*%
%ADD20C,3.500000*%
%ADD21C,0.800000*%
%ADD22C,0.300000*%
%ADD23C,0.530000*%
%ADD24C,1.060000*%
%ADD25C,0.254000*%
G04 APERTURE END LIST*
D10*
X120500000Y-93900000D03*
X118000000Y-93900000D03*
X115500000Y-93900000D03*
X113000000Y-93900000D03*
D11*
X110500000Y-93900000D03*
D10*
X137750000Y-93900000D03*
X135250000Y-93900000D03*
X132750000Y-93900000D03*
X130250000Y-93900000D03*
D11*
X127750000Y-93900000D03*
X145000000Y-93900000D03*
D10*
X147500000Y-93900000D03*
X150000000Y-93900000D03*
X152500000Y-93900000D03*
X155000000Y-93900000D03*
D12*
X104750000Y-60500000D03*
X104750000Y-65500000D03*
D13*
X102050000Y-59500000D03*
X102050000Y-66500000D03*
D14*
X104180000Y-70560000D03*
X104180000Y-84280000D03*
D15*
X106850000Y-74120000D03*
X106850000Y-76660000D03*
X106850000Y-78690000D03*
X106850000Y-81230000D03*
D16*
X151590000Y-77480000D03*
X149050000Y-77480000D03*
X151590000Y-74940000D03*
X149050000Y-74940000D03*
X151590000Y-72400000D03*
D17*
X149050000Y-72400000D03*
D16*
X151590000Y-59890000D03*
X149050000Y-59890000D03*
X151590000Y-57350000D03*
D17*
X149050000Y-57350000D03*
X149050000Y-64850000D03*
D16*
X151590000Y-64850000D03*
X149050000Y-67390000D03*
X151590000Y-67390000D03*
X161940000Y-75800000D03*
X159400000Y-75800000D03*
X161940000Y-73260000D03*
X159400000Y-73260000D03*
X161940000Y-70720000D03*
X159400000Y-70720000D03*
X161940000Y-68180000D03*
X159400000Y-68180000D03*
X161940000Y-65640000D03*
X159400000Y-65640000D03*
X161940000Y-63100000D03*
D17*
X159400000Y-63100000D03*
D16*
X109140000Y-88500000D03*
X106600000Y-88500000D03*
D17*
X104060000Y-88500000D03*
D16*
X149060000Y-82450000D03*
X151600000Y-82450000D03*
X149060000Y-84990000D03*
D17*
X151600000Y-84990000D03*
D16*
X161940000Y-88370000D03*
X159400000Y-88370000D03*
X161940000Y-85830000D03*
X159400000Y-85830000D03*
X161940000Y-83290000D03*
X159400000Y-83290000D03*
X161940000Y-80750000D03*
D17*
X159400000Y-80750000D03*
X124850000Y-49950000D03*
D16*
X124850000Y-47410000D03*
X127390000Y-49950000D03*
X127390000Y-47410000D03*
X129930000Y-49950000D03*
X129930000Y-47410000D03*
D18*
X137850000Y-47000000D03*
X144850000Y-47000000D03*
D19*
X138850000Y-49700000D03*
X143850000Y-49700000D03*
D20*
X104000000Y-49000000D03*
X161010000Y-48990000D03*
X104000000Y-96000000D03*
X161000000Y-96000000D03*
D16*
X117770000Y-50040000D03*
D17*
X117770000Y-47500000D03*
D21*
X157150000Y-72050000D03*
X139800000Y-73300000D03*
X137850000Y-76850000D03*
X122600000Y-83450000D03*
X110400000Y-73800000D03*
X112900000Y-63950000D03*
X140700000Y-58450000D03*
X124700000Y-72850000D03*
X132900000Y-57300000D03*
X141000000Y-55350000D03*
X122900000Y-61050000D03*
X136300000Y-45850000D03*
X122450000Y-50300000D03*
X118970000Y-57560000D03*
X117770000Y-66500000D03*
X154300000Y-51200000D03*
X106200000Y-53300000D03*
X133200000Y-50900000D03*
X119950000Y-49800000D03*
X119950000Y-52450000D03*
X142650000Y-58500000D03*
X131300000Y-56900000D03*
X139700000Y-54520000D03*
X121150000Y-78950000D03*
X121150000Y-78950000D03*
X135950000Y-83450000D03*
X146400000Y-89000000D03*
X137850000Y-89000000D03*
X110350000Y-68850000D03*
X122750000Y-52800000D03*
X130500000Y-56100000D03*
X130500000Y-56100000D03*
X113950000Y-51650000D03*
X120500000Y-89950000D03*
X124650000Y-70400000D03*
X119150000Y-69500000D03*
X123960000Y-68420000D03*
X146250000Y-59800000D03*
X125450000Y-69800000D03*
X125450000Y-69800000D03*
X148150000Y-62150000D03*
X147000000Y-86750000D03*
X137600000Y-84700000D03*
X146030000Y-87600000D03*
X138540000Y-87990000D03*
X128900000Y-54600000D03*
X130450000Y-52750000D03*
X144900000Y-90850000D03*
X139300000Y-95850000D03*
X122460000Y-89660000D03*
X123730000Y-89230000D03*
X125000000Y-88250000D03*
X125150000Y-59500000D03*
X124500000Y-76700000D03*
X141750000Y-69600000D03*
X143300000Y-63900000D03*
X145250000Y-63900000D03*
X142600000Y-68900000D03*
X140850000Y-76900000D03*
X136100000Y-67050000D03*
X131300000Y-72570000D03*
X137350000Y-74550000D03*
X136300000Y-75550000D03*
X130500000Y-73450000D03*
D22*
X157150000Y-72615685D02*
X157150000Y-72050000D01*
X157150000Y-74752081D02*
X157150000Y-72615685D01*
X158197919Y-75800000D02*
X157150000Y-74752081D01*
X159400000Y-75800000D02*
X158197919Y-75800000D01*
D23*
X119950000Y-52450000D02*
X119950000Y-49800000D01*
X152700000Y-64850000D02*
X151590000Y-64850000D01*
X153550000Y-65700000D02*
X152700000Y-64850000D01*
X151600000Y-82450000D02*
X153550000Y-80500000D01*
X151590000Y-55740000D02*
X151590000Y-57350000D01*
X150650000Y-54800000D02*
X151590000Y-55740000D01*
X151590000Y-55740000D02*
X152690000Y-55740000D01*
X153550000Y-56600000D02*
X152690000Y-55740000D01*
X153550000Y-66100000D02*
X153550000Y-56600000D01*
X153550000Y-66100000D02*
X153550000Y-65700000D01*
X153550000Y-80500000D02*
X153550000Y-66100000D01*
X146915685Y-54800000D02*
X149300000Y-54800000D01*
X143215685Y-58500000D02*
X146915685Y-54800000D01*
X142650000Y-58500000D02*
X143215685Y-58500000D01*
X148200000Y-54800000D02*
X149300000Y-54800000D01*
X149300000Y-54800000D02*
X150650000Y-54800000D01*
X161940000Y-77110000D02*
X161940000Y-75800000D01*
X160850000Y-78200000D02*
X161940000Y-77110000D01*
X157850000Y-78200000D02*
X160850000Y-78200000D01*
X153550000Y-80500000D02*
X155550000Y-80500000D01*
X155550000Y-80500000D02*
X157850000Y-78200000D01*
X139134315Y-54520000D02*
X139700000Y-54520000D01*
X133360202Y-54520000D02*
X139134315Y-54520000D01*
X131300000Y-56580202D02*
X133360202Y-54520000D01*
X131300000Y-56900000D02*
X131300000Y-56580202D01*
X131450000Y-78950000D02*
X135950000Y-83450000D01*
X121150000Y-78950000D02*
X131450000Y-78950000D01*
X137850000Y-89000000D02*
X139750000Y-89000000D01*
X146400000Y-89000000D02*
X139750000Y-89000000D01*
X139750000Y-89000000D02*
X138395000Y-89000000D01*
X161940000Y-83290000D02*
X161940000Y-85830000D01*
X146400000Y-89000000D02*
X155800000Y-89000000D01*
X155800000Y-89000000D02*
X157200000Y-90400000D01*
X157200000Y-90400000D02*
X162750000Y-90400000D01*
X162750000Y-90400000D02*
X163700000Y-89450000D01*
X163700000Y-89450000D02*
X163700000Y-86150000D01*
X163380000Y-85830000D02*
X161940000Y-85830000D01*
X163700000Y-86150000D02*
X163380000Y-85830000D01*
D24*
X106850000Y-72440000D02*
X106850000Y-74110000D01*
X110350000Y-68850000D02*
X106850000Y-72440000D01*
D22*
X129930000Y-49950000D02*
X129930000Y-51152081D01*
X128282081Y-52800000D02*
X128500000Y-52582081D01*
X122750000Y-52800000D02*
X128282081Y-52800000D01*
X129930000Y-51152081D02*
X128500000Y-52582081D01*
X128500000Y-52582081D02*
X128382081Y-52700000D01*
X113950000Y-51650000D02*
X113950000Y-52215685D01*
X117834315Y-56100000D02*
X117234315Y-55500000D01*
X130500000Y-56100000D02*
X117834315Y-56100000D01*
X113950000Y-52215685D02*
X117234315Y-55500000D01*
D23*
X120500000Y-89950000D02*
X120500000Y-93900000D01*
D22*
X124084315Y-70400000D02*
X124650000Y-70400000D01*
X118550000Y-70400000D02*
X124084315Y-70400000D01*
X118050000Y-68850000D02*
X118050000Y-69900000D01*
X118600000Y-68300000D02*
X118050000Y-68850000D01*
X121250000Y-68300000D02*
X118600000Y-68300000D01*
X149050000Y-57350000D02*
X146200000Y-57350000D01*
X118050000Y-69900000D02*
X118550000Y-70400000D01*
X146200000Y-57350000D02*
X143350000Y-60200000D01*
X143350000Y-60200000D02*
X137150000Y-60200000D01*
X137150000Y-60200000D02*
X134700000Y-62650000D01*
X134700000Y-62650000D02*
X126900000Y-62650000D01*
X126900000Y-62650000D02*
X121250000Y-68300000D01*
X119150000Y-69500000D02*
X124100000Y-69500000D01*
X124100000Y-69500000D02*
X126250000Y-67350000D01*
X148200001Y-60739999D02*
X146510001Y-60739999D01*
X149050000Y-59890000D02*
X148200001Y-60739999D01*
X146510001Y-60739999D02*
X145200000Y-62050000D01*
X145200000Y-62050000D02*
X138400000Y-62050000D01*
X138400000Y-62050000D02*
X135850000Y-64600000D01*
X128100000Y-64600000D02*
X126250000Y-66450000D01*
X135850000Y-64600000D02*
X128100000Y-64600000D01*
X126250000Y-67350000D02*
X126250000Y-66450000D01*
X127450000Y-63750000D02*
X135500000Y-63750000D01*
X135500000Y-63750000D02*
X138050000Y-61200000D01*
X145684315Y-59800000D02*
X146250000Y-59800000D01*
X138050000Y-61200000D02*
X144284315Y-61200000D01*
X144284315Y-61200000D02*
X145684315Y-59800000D01*
X124050000Y-67150000D02*
X124200000Y-67000000D01*
X124200000Y-67000000D02*
X127450000Y-63750000D01*
X123960000Y-67240000D02*
X123960000Y-68420000D01*
X124200000Y-67000000D02*
X123960000Y-67240000D01*
X126015685Y-69800000D02*
X127050000Y-68765685D01*
X125450000Y-69800000D02*
X126015685Y-69800000D01*
X147584315Y-62150000D02*
X146884315Y-62850000D01*
X148150000Y-62150000D02*
X147584315Y-62150000D01*
X146884315Y-62850000D02*
X139100000Y-62850000D01*
X139100000Y-62850000D02*
X136400000Y-65550000D01*
X128700000Y-65550000D02*
X127050000Y-67200000D01*
X136400000Y-65550000D02*
X128700000Y-65550000D01*
X127050000Y-68765685D02*
X127050000Y-67200000D01*
X110342081Y-88500000D02*
X113442081Y-85400000D01*
X109140000Y-88500000D02*
X110342081Y-88500000D01*
X113442081Y-85400000D02*
X135400000Y-85400000D01*
X136850001Y-83949999D02*
X145649999Y-83949999D01*
X135400000Y-85400000D02*
X136850001Y-83949999D01*
X145649999Y-83949999D02*
X148700000Y-87000000D01*
X148700000Y-87000000D02*
X151000000Y-87000000D01*
X151600000Y-86400000D02*
X151600000Y-84990000D01*
X151000000Y-87000000D02*
X151600000Y-86400000D01*
X139900000Y-84700000D02*
X137600000Y-84700000D01*
X141950000Y-86750000D02*
X139900000Y-84700000D01*
X147000000Y-86750000D02*
X141950000Y-86750000D01*
X138540000Y-87990000D02*
X138540000Y-87850000D01*
X138790000Y-87600000D02*
X139820000Y-87600000D01*
X138540000Y-87850000D02*
X138790000Y-87600000D01*
X139450000Y-87600000D02*
X139820000Y-87600000D01*
X139820000Y-87600000D02*
X146030000Y-87600000D01*
X128900000Y-54300000D02*
X130450000Y-52750000D01*
X128900000Y-54600000D02*
X128900000Y-54300000D01*
X139900000Y-95850000D02*
X144900000Y-90850000D01*
X139300000Y-95850000D02*
X139900000Y-95850000D01*
X122460000Y-89660000D02*
X124650000Y-91850000D01*
X124650000Y-91850000D02*
X124650000Y-95350000D01*
X124650000Y-95350000D02*
X125900000Y-96600000D01*
X125900000Y-96600000D02*
X131600000Y-96600000D01*
X132750000Y-95450000D02*
X132750000Y-93900000D01*
X131600000Y-96600000D02*
X132750000Y-95450000D01*
X123730000Y-89230000D02*
X125750000Y-91250000D01*
X125750000Y-91250000D02*
X125750000Y-95050000D01*
X125750000Y-95050000D02*
X126550000Y-95850000D01*
X129537436Y-95850000D02*
X129100000Y-95850000D01*
X130250000Y-95137436D02*
X129537436Y-95850000D01*
X130250000Y-93900000D02*
X130250000Y-95137436D01*
X126550000Y-95850000D02*
X129100000Y-95850000D01*
X125000000Y-88250000D02*
X125000000Y-88900000D01*
X127750000Y-91650000D02*
X127750000Y-93900000D01*
X125000000Y-88900000D02*
X127750000Y-91650000D01*
X145000000Y-93900000D02*
X144950000Y-93900000D01*
X121349980Y-76700000D02*
X124500000Y-76700000D01*
X117100000Y-72450020D02*
X121349980Y-76700000D01*
X125150000Y-59500000D02*
X124750001Y-59899999D01*
X124750001Y-59899999D02*
X124750001Y-62599999D01*
X120050000Y-67300000D02*
X118350000Y-67300000D01*
X118350000Y-67300000D02*
X117100000Y-68550000D01*
X124750001Y-62599999D02*
X120050000Y-67300000D01*
X117100000Y-68550000D02*
X117100000Y-72450020D01*
X141750000Y-65100000D02*
X141750000Y-69600000D01*
X142950000Y-63900000D02*
X141750000Y-65100000D01*
X142600000Y-68900000D02*
X142600000Y-66200000D01*
X143350000Y-65450000D02*
X143950000Y-64850000D01*
X142600000Y-66200000D02*
X143350000Y-65450000D01*
X144900000Y-63900000D02*
X145250000Y-63900000D01*
X143350000Y-65450000D02*
X144900000Y-63900000D01*
X140850000Y-76900000D02*
X139075000Y-75125000D01*
X140450001Y-76500001D02*
X140850000Y-76900000D01*
X136100000Y-72150000D02*
X140450001Y-76500001D01*
X136100000Y-67050000D02*
X136100000Y-72150000D01*
X135370000Y-72570000D02*
X137350000Y-74550000D01*
X131300000Y-72570000D02*
X135370000Y-72570000D01*
X132600000Y-75550000D02*
X130500000Y-73450000D01*
X136300000Y-75550000D02*
X132600000Y-75550000D01*
D25*
G36*
X137216378Y-45776716D02*
G01*
X137043552Y-45918551D01*
X136901717Y-46091377D01*
X136796324Y-46288553D01*
X136731423Y-46502501D01*
X136715000Y-46669248D01*
X136715000Y-47330751D01*
X136731423Y-47497498D01*
X136796324Y-47711446D01*
X136901716Y-47908623D01*
X137043551Y-48081449D01*
X137216377Y-48223284D01*
X137413553Y-48328676D01*
X137627501Y-48393577D01*
X137850000Y-48415491D01*
X138072498Y-48393577D01*
X138286446Y-48328676D01*
X138483623Y-48223284D01*
X138656449Y-48081449D01*
X138798284Y-47908623D01*
X138903676Y-47711447D01*
X138968577Y-47497499D01*
X138985000Y-47330752D01*
X138985000Y-46669249D01*
X138968577Y-46502502D01*
X138903676Y-46288554D01*
X138798284Y-46091377D01*
X138656449Y-45918551D01*
X138483623Y-45776716D01*
X138358805Y-45710000D01*
X144341196Y-45710000D01*
X144216378Y-45776716D01*
X144043552Y-45918551D01*
X143901717Y-46091377D01*
X143796324Y-46288553D01*
X143731423Y-46502501D01*
X143715000Y-46669248D01*
X143715000Y-47330751D01*
X143731423Y-47497498D01*
X143796324Y-47711446D01*
X143901716Y-47908623D01*
X144043551Y-48081449D01*
X144216377Y-48223284D01*
X144413553Y-48328676D01*
X144627501Y-48393577D01*
X144850000Y-48415491D01*
X145072498Y-48393577D01*
X145286446Y-48328676D01*
X145483623Y-48223284D01*
X145656449Y-48081449D01*
X145798284Y-47908623D01*
X145903676Y-47711447D01*
X145968577Y-47497499D01*
X145985000Y-47330752D01*
X145985000Y-47320391D01*
X159519997Y-47320391D01*
X161010000Y-48810395D01*
X162500003Y-47320391D01*
X162313927Y-46979234D01*
X161896591Y-46763487D01*
X161445185Y-46633304D01*
X160977054Y-46593687D01*
X160510189Y-46646158D01*
X160062532Y-46788703D01*
X159706073Y-46979234D01*
X159519997Y-47320391D01*
X145985000Y-47320391D01*
X145985000Y-46669249D01*
X145968577Y-46502502D01*
X145903676Y-46288554D01*
X145798284Y-46091377D01*
X145656449Y-45918551D01*
X145483623Y-45776716D01*
X145358805Y-45710000D01*
X160897622Y-45710000D01*
X161608252Y-45919284D01*
X162305469Y-46268574D01*
X162929811Y-46735812D01*
X163461543Y-47306221D01*
X163883864Y-47961785D01*
X164188235Y-48693348D01*
X164290000Y-49089697D01*
X164290001Y-85467210D01*
X164047658Y-85224866D01*
X164019475Y-85190525D01*
X163882432Y-85078057D01*
X163726081Y-84994486D01*
X163556431Y-84943023D01*
X163424207Y-84930000D01*
X163424206Y-84930000D01*
X163380000Y-84925646D01*
X163335794Y-84930000D01*
X163124633Y-84930000D01*
X163093475Y-84883368D01*
X162886632Y-84676525D01*
X162840000Y-84645367D01*
X162840000Y-84474633D01*
X162886632Y-84443475D01*
X163093475Y-84236632D01*
X163255990Y-83993411D01*
X163367932Y-83723158D01*
X163425000Y-83436260D01*
X163425000Y-83143740D01*
X163367932Y-82856842D01*
X163255990Y-82586589D01*
X163093475Y-82343368D01*
X162886632Y-82136525D01*
X162712240Y-82020000D01*
X162886632Y-81903475D01*
X163093475Y-81696632D01*
X163255990Y-81453411D01*
X163367932Y-81183158D01*
X163425000Y-80896260D01*
X163425000Y-80603740D01*
X163367932Y-80316842D01*
X163255990Y-80046589D01*
X163093475Y-79803368D01*
X162886632Y-79596525D01*
X162643411Y-79434010D01*
X162373158Y-79322068D01*
X162086260Y-79265000D01*
X161793740Y-79265000D01*
X161506842Y-79322068D01*
X161236589Y-79434010D01*
X160993368Y-79596525D01*
X160861513Y-79728380D01*
X160839502Y-79655820D01*
X160780537Y-79545506D01*
X160701185Y-79448815D01*
X160604494Y-79369463D01*
X160494180Y-79310498D01*
X160374482Y-79274188D01*
X160250000Y-79261928D01*
X158550000Y-79261928D01*
X158425518Y-79274188D01*
X158305820Y-79310498D01*
X158195506Y-79369463D01*
X158098815Y-79448815D01*
X158019463Y-79545506D01*
X157960498Y-79655820D01*
X157924188Y-79775518D01*
X157911928Y-79900000D01*
X157911928Y-81600000D01*
X157924188Y-81724482D01*
X157960498Y-81844180D01*
X158019463Y-81954494D01*
X158098815Y-82051185D01*
X158195506Y-82130537D01*
X158305820Y-82189502D01*
X158378380Y-82211513D01*
X158246525Y-82343368D01*
X158084010Y-82586589D01*
X157972068Y-82856842D01*
X157915000Y-83143740D01*
X157915000Y-83436260D01*
X157972068Y-83723158D01*
X158084010Y-83993411D01*
X158246525Y-84236632D01*
X158453368Y-84443475D01*
X158627760Y-84560000D01*
X158453368Y-84676525D01*
X158246525Y-84883368D01*
X158084010Y-85126589D01*
X157972068Y-85396842D01*
X157915000Y-85683740D01*
X157915000Y-85976260D01*
X157972068Y-86263158D01*
X158084010Y-86533411D01*
X158246525Y-86776632D01*
X158453368Y-86983475D01*
X158627760Y-87100000D01*
X158453368Y-87216525D01*
X158246525Y-87423368D01*
X158084010Y-87666589D01*
X157972068Y-87936842D01*
X157915000Y-88223740D01*
X157915000Y-88516260D01*
X157972068Y-88803158D01*
X158084010Y-89073411D01*
X158246525Y-89316632D01*
X158429893Y-89500000D01*
X157572793Y-89500000D01*
X156467657Y-88394865D01*
X156439475Y-88360525D01*
X156302432Y-88248057D01*
X156146081Y-88164486D01*
X155976431Y-88113023D01*
X155844207Y-88100000D01*
X155844206Y-88100000D01*
X155800000Y-88095646D01*
X155755794Y-88100000D01*
X146940694Y-88100000D01*
X146947205Y-88090256D01*
X147025226Y-87901898D01*
X147048478Y-87785000D01*
X147101939Y-87785000D01*
X147301898Y-87745226D01*
X147490256Y-87667205D01*
X147659774Y-87553937D01*
X147803937Y-87409774D01*
X147882315Y-87292472D01*
X148117653Y-87527810D01*
X148142236Y-87557764D01*
X148261767Y-87655862D01*
X148372408Y-87715000D01*
X148398140Y-87728754D01*
X148546113Y-87773642D01*
X148621026Y-87781020D01*
X148661439Y-87785000D01*
X148661444Y-87785000D01*
X148700000Y-87788797D01*
X148738556Y-87785000D01*
X150961447Y-87785000D01*
X151000000Y-87788797D01*
X151038553Y-87785000D01*
X151038561Y-87785000D01*
X151153887Y-87773641D01*
X151301860Y-87728754D01*
X151438233Y-87655862D01*
X151557764Y-87557764D01*
X151582346Y-87527811D01*
X152127816Y-86982342D01*
X152157764Y-86957764D01*
X152255862Y-86838233D01*
X152328754Y-86701860D01*
X152360832Y-86596113D01*
X152373641Y-86553888D01*
X152375658Y-86533411D01*
X152381108Y-86478072D01*
X152450000Y-86478072D01*
X152574482Y-86465812D01*
X152694180Y-86429502D01*
X152804494Y-86370537D01*
X152901185Y-86291185D01*
X152980537Y-86194494D01*
X153039502Y-86084180D01*
X153075812Y-85964482D01*
X153088072Y-85840000D01*
X153088072Y-84140000D01*
X153075812Y-84015518D01*
X153039502Y-83895820D01*
X152980537Y-83785506D01*
X152901185Y-83688815D01*
X152804494Y-83609463D01*
X152694180Y-83550498D01*
X152621620Y-83528487D01*
X152753475Y-83396632D01*
X152915990Y-83153411D01*
X153027932Y-82883158D01*
X153085000Y-82596260D01*
X153085000Y-82303740D01*
X153074058Y-82248734D01*
X153922792Y-81400000D01*
X155505794Y-81400000D01*
X155550000Y-81404354D01*
X155594206Y-81400000D01*
X155594207Y-81400000D01*
X155726431Y-81386977D01*
X155896081Y-81335514D01*
X156052432Y-81251943D01*
X156189475Y-81139475D01*
X156217657Y-81105135D01*
X158222793Y-79100000D01*
X160805794Y-79100000D01*
X160850000Y-79104354D01*
X160894206Y-79100000D01*
X160894207Y-79100000D01*
X161026431Y-79086977D01*
X161196081Y-79035514D01*
X161352432Y-78951943D01*
X161489475Y-78839475D01*
X161517657Y-78805135D01*
X162545136Y-77777656D01*
X162579475Y-77749475D01*
X162691943Y-77612432D01*
X162775514Y-77456081D01*
X162826977Y-77286431D01*
X162840000Y-77154207D01*
X162840000Y-77154206D01*
X162844354Y-77110000D01*
X162840000Y-77065793D01*
X162840000Y-76984633D01*
X162886632Y-76953475D01*
X163093475Y-76746632D01*
X163255990Y-76503411D01*
X163367932Y-76233158D01*
X163425000Y-75946260D01*
X163425000Y-75653740D01*
X163367932Y-75366842D01*
X163255990Y-75096589D01*
X163093475Y-74853368D01*
X162886632Y-74646525D01*
X162704466Y-74524805D01*
X162821355Y-74455178D01*
X163037588Y-74260269D01*
X163211641Y-74026920D01*
X163336825Y-73764099D01*
X163381476Y-73616890D01*
X163260155Y-73387000D01*
X162067000Y-73387000D01*
X162067000Y-73407000D01*
X161813000Y-73407000D01*
X161813000Y-73387000D01*
X161793000Y-73387000D01*
X161793000Y-73133000D01*
X161813000Y-73133000D01*
X161813000Y-70847000D01*
X162067000Y-70847000D01*
X162067000Y-73133000D01*
X163260155Y-73133000D01*
X163381476Y-72903110D01*
X163336825Y-72755901D01*
X163211641Y-72493080D01*
X163037588Y-72259731D01*
X162821355Y-72064822D01*
X162695745Y-71990000D01*
X162821355Y-71915178D01*
X163037588Y-71720269D01*
X163211641Y-71486920D01*
X163336825Y-71224099D01*
X163381476Y-71076890D01*
X163260155Y-70847000D01*
X162067000Y-70847000D01*
X161813000Y-70847000D01*
X161793000Y-70847000D01*
X161793000Y-70593000D01*
X161813000Y-70593000D01*
X161813000Y-68307000D01*
X162067000Y-68307000D01*
X162067000Y-70593000D01*
X163260155Y-70593000D01*
X163381476Y-70363110D01*
X163336825Y-70215901D01*
X163211641Y-69953080D01*
X163037588Y-69719731D01*
X162821355Y-69524822D01*
X162695745Y-69450000D01*
X162821355Y-69375178D01*
X163037588Y-69180269D01*
X163211641Y-68946920D01*
X163336825Y-68684099D01*
X163381476Y-68536890D01*
X163260155Y-68307000D01*
X162067000Y-68307000D01*
X161813000Y-68307000D01*
X161793000Y-68307000D01*
X161793000Y-68053000D01*
X161813000Y-68053000D01*
X161813000Y-65767000D01*
X162067000Y-65767000D01*
X162067000Y-68053000D01*
X163260155Y-68053000D01*
X163381476Y-67823110D01*
X163336825Y-67675901D01*
X163211641Y-67413080D01*
X163037588Y-67179731D01*
X162821355Y-66984822D01*
X162695745Y-66910000D01*
X162821355Y-66835178D01*
X163037588Y-66640269D01*
X163211641Y-66406920D01*
X163336825Y-66144099D01*
X163381476Y-65996890D01*
X163260155Y-65767000D01*
X162067000Y-65767000D01*
X161813000Y-65767000D01*
X161793000Y-65767000D01*
X161793000Y-65513000D01*
X161813000Y-65513000D01*
X161813000Y-63227000D01*
X162067000Y-63227000D01*
X162067000Y-65513000D01*
X163260155Y-65513000D01*
X163381476Y-65283110D01*
X163336825Y-65135901D01*
X163211641Y-64873080D01*
X163037588Y-64639731D01*
X162821355Y-64444822D01*
X162695745Y-64370000D01*
X162821355Y-64295178D01*
X163037588Y-64100269D01*
X163211641Y-63866920D01*
X163336825Y-63604099D01*
X163381476Y-63456890D01*
X163260155Y-63227000D01*
X162067000Y-63227000D01*
X161813000Y-63227000D01*
X161793000Y-63227000D01*
X161793000Y-62973000D01*
X161813000Y-62973000D01*
X161813000Y-61779186D01*
X162067000Y-61779186D01*
X162067000Y-62973000D01*
X163260155Y-62973000D01*
X163381476Y-62743110D01*
X163336825Y-62595901D01*
X163211641Y-62333080D01*
X163037588Y-62099731D01*
X162821355Y-61904822D01*
X162571252Y-61755843D01*
X162296891Y-61658519D01*
X162067000Y-61779186D01*
X161813000Y-61779186D01*
X161583109Y-61658519D01*
X161308748Y-61755843D01*
X161058645Y-61904822D01*
X160862498Y-62081626D01*
X160839502Y-62005820D01*
X160780537Y-61895506D01*
X160701185Y-61798815D01*
X160604494Y-61719463D01*
X160494180Y-61660498D01*
X160374482Y-61624188D01*
X160250000Y-61611928D01*
X158550000Y-61611928D01*
X158425518Y-61624188D01*
X158305820Y-61660498D01*
X158195506Y-61719463D01*
X158098815Y-61798815D01*
X158019463Y-61895506D01*
X157960498Y-62005820D01*
X157924188Y-62125518D01*
X157911928Y-62250000D01*
X157911928Y-63950000D01*
X157924188Y-64074482D01*
X157960498Y-64194180D01*
X158019463Y-64304494D01*
X158098815Y-64401185D01*
X158195506Y-64480537D01*
X158305820Y-64539502D01*
X158378380Y-64561513D01*
X158246525Y-64693368D01*
X158084010Y-64936589D01*
X157972068Y-65206842D01*
X157915000Y-65493740D01*
X157915000Y-65786260D01*
X157972068Y-66073158D01*
X158084010Y-66343411D01*
X158246525Y-66586632D01*
X158453368Y-66793475D01*
X158627760Y-66910000D01*
X158453368Y-67026525D01*
X158246525Y-67233368D01*
X158084010Y-67476589D01*
X157972068Y-67746842D01*
X157915000Y-68033740D01*
X157915000Y-68326260D01*
X157972068Y-68613158D01*
X158084010Y-68883411D01*
X158246525Y-69126632D01*
X158453368Y-69333475D01*
X158627760Y-69450000D01*
X158453368Y-69566525D01*
X158246525Y-69773368D01*
X158084010Y-70016589D01*
X157972068Y-70286842D01*
X157915000Y-70573740D01*
X157915000Y-70866260D01*
X157972068Y-71153158D01*
X158084010Y-71423411D01*
X158246525Y-71666632D01*
X158453368Y-71873475D01*
X158627760Y-71990000D01*
X158453368Y-72106525D01*
X158246525Y-72313368D01*
X158084010Y-72556589D01*
X157972068Y-72826842D01*
X157935000Y-73013194D01*
X157935000Y-72728711D01*
X157953937Y-72709774D01*
X158067205Y-72540256D01*
X158145226Y-72351898D01*
X158185000Y-72151939D01*
X158185000Y-71948061D01*
X158145226Y-71748102D01*
X158067205Y-71559744D01*
X157953937Y-71390226D01*
X157809774Y-71246063D01*
X157640256Y-71132795D01*
X157451898Y-71054774D01*
X157251939Y-71015000D01*
X157048061Y-71015000D01*
X156848102Y-71054774D01*
X156659744Y-71132795D01*
X156490226Y-71246063D01*
X156346063Y-71390226D01*
X156232795Y-71559744D01*
X156154774Y-71748102D01*
X156115000Y-71948061D01*
X156115000Y-72151939D01*
X156154774Y-72351898D01*
X156232795Y-72540256D01*
X156346063Y-72709774D01*
X156365001Y-72728712D01*
X156365000Y-74713528D01*
X156361203Y-74752081D01*
X156365000Y-74790634D01*
X156365000Y-74790641D01*
X156376359Y-74905967D01*
X156421246Y-75053940D01*
X156494138Y-75190313D01*
X156592236Y-75309845D01*
X156622190Y-75334428D01*
X157615576Y-76327815D01*
X157640155Y-76357764D01*
X157670103Y-76382342D01*
X157670106Y-76382345D01*
X157699478Y-76406450D01*
X157759686Y-76455862D01*
X157896059Y-76528754D01*
X158009591Y-76563194D01*
X158044031Y-76573641D01*
X158058409Y-76575057D01*
X158137058Y-76582804D01*
X158246525Y-76746632D01*
X158453368Y-76953475D01*
X158696589Y-77115990D01*
X158966842Y-77227932D01*
X159253740Y-77285000D01*
X159546260Y-77285000D01*
X159833158Y-77227932D01*
X160103411Y-77115990D01*
X160346632Y-76953475D01*
X160553475Y-76746632D01*
X160670000Y-76572240D01*
X160786525Y-76746632D01*
X160908551Y-76868658D01*
X160477208Y-77300000D01*
X157894203Y-77300000D01*
X157849999Y-77295646D01*
X157805795Y-77300000D01*
X157805793Y-77300000D01*
X157673569Y-77313023D01*
X157503919Y-77364486D01*
X157347568Y-77448057D01*
X157335740Y-77457764D01*
X157244862Y-77532345D01*
X157244860Y-77532347D01*
X157210525Y-77560525D01*
X157182347Y-77594860D01*
X155177208Y-79600000D01*
X154450000Y-79600000D01*
X154450000Y-65744207D01*
X154454354Y-65700000D01*
X154450000Y-65655793D01*
X154450000Y-56644207D01*
X154454354Y-56600000D01*
X154436977Y-56423569D01*
X154385514Y-56253918D01*
X154301943Y-56097568D01*
X154269277Y-56057764D01*
X154189475Y-55960525D01*
X154155135Y-55932343D01*
X153357655Y-55134863D01*
X153329475Y-55100525D01*
X153192432Y-54988057D01*
X153036081Y-54904486D01*
X152866431Y-54853023D01*
X152734207Y-54840000D01*
X152734206Y-54840000D01*
X152690000Y-54835646D01*
X152645794Y-54840000D01*
X151962792Y-54840000D01*
X151317657Y-54194865D01*
X151289475Y-54160525D01*
X151152432Y-54048057D01*
X150996081Y-53964486D01*
X150826431Y-53913023D01*
X150694207Y-53900000D01*
X150694206Y-53900000D01*
X150650000Y-53895646D01*
X150605794Y-53900000D01*
X146959888Y-53900000D01*
X146915684Y-53895646D01*
X146871480Y-53900000D01*
X146871478Y-53900000D01*
X146739254Y-53913023D01*
X146569604Y-53964486D01*
X146413253Y-54048057D01*
X146413251Y-54048058D01*
X146413252Y-54048058D01*
X146310547Y-54132345D01*
X146310545Y-54132347D01*
X146276210Y-54160525D01*
X146248032Y-54194860D01*
X142940405Y-57502488D01*
X142751939Y-57465000D01*
X142548061Y-57465000D01*
X142348102Y-57504774D01*
X142159744Y-57582795D01*
X141990226Y-57696063D01*
X141846063Y-57840226D01*
X141732795Y-58009744D01*
X141654774Y-58198102D01*
X141615000Y-58398061D01*
X141615000Y-58601939D01*
X141654774Y-58801898D01*
X141732795Y-58990256D01*
X141846063Y-59159774D01*
X141990226Y-59303937D01*
X142156444Y-59415000D01*
X137188552Y-59415000D01*
X137149999Y-59411203D01*
X137111446Y-59415000D01*
X137111439Y-59415000D01*
X137010490Y-59424943D01*
X136996112Y-59426359D01*
X136961672Y-59436806D01*
X136848140Y-59471246D01*
X136711767Y-59544138D01*
X136658150Y-59588141D01*
X136622187Y-59617655D01*
X136622184Y-59617658D01*
X136592236Y-59642236D01*
X136567658Y-59672184D01*
X134374843Y-61865000D01*
X126938556Y-61865000D01*
X126900000Y-61861203D01*
X126861444Y-61865000D01*
X126861439Y-61865000D01*
X126821026Y-61868980D01*
X126746113Y-61876358D01*
X126598140Y-61921246D01*
X126461767Y-61994138D01*
X126342236Y-62092236D01*
X126317655Y-62122188D01*
X125410745Y-63029098D01*
X125478755Y-62901859D01*
X125497885Y-62838797D01*
X125523642Y-62753887D01*
X125529332Y-62696113D01*
X125535001Y-62638560D01*
X125535001Y-62638553D01*
X125538798Y-62600000D01*
X125535001Y-62561447D01*
X125535001Y-60460803D01*
X125640256Y-60417205D01*
X125809774Y-60303937D01*
X125953937Y-60159774D01*
X126067205Y-59990256D01*
X126145226Y-59801898D01*
X126185000Y-59601939D01*
X126185000Y-59398061D01*
X126145226Y-59198102D01*
X126067205Y-59009744D01*
X125953937Y-58840226D01*
X125809774Y-58696063D01*
X125640256Y-58582795D01*
X125451898Y-58504774D01*
X125251939Y-58465000D01*
X125048061Y-58465000D01*
X124848102Y-58504774D01*
X124659744Y-58582795D01*
X124490226Y-58696063D01*
X124346063Y-58840226D01*
X124232795Y-59009744D01*
X124154774Y-59198102D01*
X124115000Y-59398061D01*
X124115000Y-59436348D01*
X124094139Y-59461767D01*
X124021247Y-59598140D01*
X123976360Y-59746113D01*
X123965001Y-59861439D01*
X123965001Y-59861446D01*
X123961204Y-59899999D01*
X123965001Y-59938552D01*
X123965002Y-62274840D01*
X119724843Y-66515000D01*
X118388555Y-66515000D01*
X118350000Y-66511203D01*
X118311444Y-66515000D01*
X118311439Y-66515000D01*
X118271026Y-66518980D01*
X118196113Y-66526358D01*
X118048140Y-66571246D01*
X117911767Y-66644138D01*
X117865345Y-66682236D01*
X117822187Y-66717655D01*
X117822184Y-66717658D01*
X117792236Y-66742236D01*
X117767658Y-66772185D01*
X116572190Y-67967653D01*
X116542236Y-67992236D01*
X116444138Y-68111768D01*
X116371246Y-68248141D01*
X116326359Y-68396114D01*
X116315000Y-68511440D01*
X116315000Y-68511447D01*
X116311203Y-68550000D01*
X116315000Y-68588553D01*
X116315001Y-72411457D01*
X116311203Y-72450020D01*
X116326359Y-72603906D01*
X116371246Y-72751879D01*
X116400101Y-72805862D01*
X116444139Y-72888253D01*
X116457144Y-72904099D01*
X116517655Y-72977832D01*
X116517659Y-72977836D01*
X116542237Y-73007784D01*
X116572185Y-73032362D01*
X120767638Y-77227816D01*
X120792216Y-77257764D01*
X120822164Y-77282342D01*
X120822167Y-77282345D01*
X120843680Y-77300000D01*
X120911747Y-77355862D01*
X121048120Y-77428754D01*
X121159791Y-77462629D01*
X121196092Y-77473641D01*
X121210470Y-77475057D01*
X121311419Y-77485000D01*
X121311426Y-77485000D01*
X121349979Y-77488797D01*
X121388532Y-77485000D01*
X123821289Y-77485000D01*
X123840226Y-77503937D01*
X124009744Y-77617205D01*
X124198102Y-77695226D01*
X124398061Y-77735000D01*
X124601939Y-77735000D01*
X124801898Y-77695226D01*
X124990256Y-77617205D01*
X125159774Y-77503937D01*
X125303937Y-77359774D01*
X125417205Y-77190256D01*
X125495226Y-77001898D01*
X125535000Y-76801939D01*
X125535000Y-76598061D01*
X125495226Y-76398102D01*
X125417205Y-76209744D01*
X125303937Y-76040226D01*
X125159774Y-75896063D01*
X124990256Y-75782795D01*
X124801898Y-75704774D01*
X124601939Y-75665000D01*
X124398061Y-75665000D01*
X124198102Y-75704774D01*
X124009744Y-75782795D01*
X123840226Y-75896063D01*
X123821289Y-75915000D01*
X121675138Y-75915000D01*
X117885000Y-72124863D01*
X117885000Y-70845156D01*
X117967649Y-70927805D01*
X117992236Y-70957764D01*
X118111767Y-71055862D01*
X118248140Y-71128754D01*
X118396113Y-71173642D01*
X118471026Y-71181020D01*
X118511439Y-71185000D01*
X118511444Y-71185000D01*
X118550000Y-71188797D01*
X118588556Y-71185000D01*
X123971289Y-71185000D01*
X123990226Y-71203937D01*
X124159744Y-71317205D01*
X124348102Y-71395226D01*
X124548061Y-71435000D01*
X124751939Y-71435000D01*
X124951898Y-71395226D01*
X125140256Y-71317205D01*
X125309774Y-71203937D01*
X125453937Y-71059774D01*
X125567205Y-70890256D01*
X125593519Y-70826729D01*
X125751898Y-70795226D01*
X125940256Y-70717205D01*
X126109774Y-70603937D01*
X126136847Y-70576864D01*
X126169572Y-70573641D01*
X126317545Y-70528754D01*
X126453918Y-70455862D01*
X126573449Y-70357764D01*
X126598032Y-70327810D01*
X127577817Y-69348026D01*
X127607764Y-69323449D01*
X127633519Y-69292068D01*
X127656450Y-69264126D01*
X127705862Y-69203918D01*
X127778754Y-69067545D01*
X127823641Y-68919572D01*
X127835000Y-68804246D01*
X127835000Y-68804239D01*
X127838797Y-68765686D01*
X127835000Y-68727133D01*
X127835000Y-67525157D01*
X129025158Y-66335000D01*
X135351289Y-66335000D01*
X135296063Y-66390226D01*
X135182795Y-66559744D01*
X135104774Y-66748102D01*
X135065000Y-66948061D01*
X135065000Y-67151939D01*
X135104774Y-67351898D01*
X135182795Y-67540256D01*
X135296063Y-67709774D01*
X135315000Y-67728711D01*
X135315001Y-71785000D01*
X131978711Y-71785000D01*
X131959774Y-71766063D01*
X131790256Y-71652795D01*
X131601898Y-71574774D01*
X131401939Y-71535000D01*
X131198061Y-71535000D01*
X130998102Y-71574774D01*
X130809744Y-71652795D01*
X130640226Y-71766063D01*
X130496063Y-71910226D01*
X130382795Y-72079744D01*
X130304774Y-72268102D01*
X130270508Y-72440372D01*
X130198102Y-72454774D01*
X130009744Y-72532795D01*
X129840226Y-72646063D01*
X129696063Y-72790226D01*
X129582795Y-72959744D01*
X129504774Y-73148102D01*
X129465000Y-73348061D01*
X129465000Y-73551939D01*
X129504774Y-73751898D01*
X129582795Y-73940256D01*
X129696063Y-74109774D01*
X129840226Y-74253937D01*
X130009744Y-74367205D01*
X130198102Y-74445226D01*
X130398061Y-74485000D01*
X130424843Y-74485000D01*
X132017658Y-76077816D01*
X132042236Y-76107764D01*
X132072184Y-76132342D01*
X132072187Y-76132345D01*
X132089753Y-76146761D01*
X132161767Y-76205862D01*
X132298140Y-76278754D01*
X132411672Y-76313194D01*
X132446112Y-76323641D01*
X132460490Y-76325057D01*
X132561439Y-76335000D01*
X132561446Y-76335000D01*
X132599999Y-76338797D01*
X132638552Y-76335000D01*
X135621289Y-76335000D01*
X135640226Y-76353937D01*
X135809744Y-76467205D01*
X135998102Y-76545226D01*
X136198061Y-76585000D01*
X136401939Y-76585000D01*
X136601898Y-76545226D01*
X136790256Y-76467205D01*
X136959774Y-76353937D01*
X137103937Y-76209774D01*
X137217205Y-76040256D01*
X137295226Y-75851898D01*
X137335000Y-75651939D01*
X137335000Y-75585000D01*
X137451939Y-75585000D01*
X137651898Y-75545226D01*
X137840256Y-75467205D01*
X138009774Y-75353937D01*
X138101777Y-75261934D01*
X139413483Y-76573641D01*
X139815000Y-76975158D01*
X139815000Y-77001939D01*
X139854774Y-77201898D01*
X139932795Y-77390256D01*
X140046063Y-77559774D01*
X140190226Y-77703937D01*
X140359744Y-77817205D01*
X140548102Y-77895226D01*
X140748061Y-77935000D01*
X140951939Y-77935000D01*
X141151898Y-77895226D01*
X141340256Y-77817205D01*
X141509774Y-77703937D01*
X141653937Y-77559774D01*
X141767205Y-77390256D01*
X141845226Y-77201898D01*
X141885000Y-77001939D01*
X141885000Y-76798061D01*
X141845226Y-76598102D01*
X141767205Y-76409744D01*
X141653937Y-76240226D01*
X141509774Y-76096063D01*
X141340256Y-75982795D01*
X141151898Y-75904774D01*
X140951939Y-75865000D01*
X140925158Y-75865000D01*
X140527363Y-75467205D01*
X136885000Y-71824843D01*
X136885000Y-71550000D01*
X147561928Y-71550000D01*
X147561928Y-73250000D01*
X147574188Y-73374482D01*
X147610498Y-73494180D01*
X147669463Y-73604494D01*
X147748815Y-73701185D01*
X147845506Y-73780537D01*
X147955820Y-73839502D01*
X148028380Y-73861513D01*
X147896525Y-73993368D01*
X147734010Y-74236589D01*
X147622068Y-74506842D01*
X147565000Y-74793740D01*
X147565000Y-75086260D01*
X147622068Y-75373158D01*
X147734010Y-75643411D01*
X147896525Y-75886632D01*
X148103368Y-76093475D01*
X148277760Y-76210000D01*
X148103368Y-76326525D01*
X147896525Y-76533368D01*
X147734010Y-76776589D01*
X147622068Y-77046842D01*
X147565000Y-77333740D01*
X147565000Y-77626260D01*
X147622068Y-77913158D01*
X147734010Y-78183411D01*
X147896525Y-78426632D01*
X148103368Y-78633475D01*
X148346589Y-78795990D01*
X148616842Y-78907932D01*
X148903740Y-78965000D01*
X149196260Y-78965000D01*
X149483158Y-78907932D01*
X149753411Y-78795990D01*
X149996632Y-78633475D01*
X150203475Y-78426632D01*
X150321100Y-78250594D01*
X150492412Y-78480269D01*
X150708645Y-78675178D01*
X150958748Y-78824157D01*
X151233109Y-78921481D01*
X151463000Y-78800814D01*
X151463000Y-77607000D01*
X151443000Y-77607000D01*
X151443000Y-77353000D01*
X151463000Y-77353000D01*
X151463000Y-75067000D01*
X151443000Y-75067000D01*
X151443000Y-74813000D01*
X151463000Y-74813000D01*
X151463000Y-72527000D01*
X151443000Y-72527000D01*
X151443000Y-72273000D01*
X151463000Y-72273000D01*
X151463000Y-71079186D01*
X151233109Y-70958519D01*
X150958748Y-71055843D01*
X150708645Y-71204822D01*
X150512498Y-71381626D01*
X150489502Y-71305820D01*
X150430537Y-71195506D01*
X150351185Y-71098815D01*
X150254494Y-71019463D01*
X150144180Y-70960498D01*
X150024482Y-70924188D01*
X149900000Y-70911928D01*
X148200000Y-70911928D01*
X148075518Y-70924188D01*
X147955820Y-70960498D01*
X147845506Y-71019463D01*
X147748815Y-71098815D01*
X147669463Y-71195506D01*
X147610498Y-71305820D01*
X147574188Y-71425518D01*
X147561928Y-71550000D01*
X136885000Y-71550000D01*
X136885000Y-67728711D01*
X136903937Y-67709774D01*
X137017205Y-67540256D01*
X137095226Y-67351898D01*
X137135000Y-67151939D01*
X137135000Y-66948061D01*
X137095226Y-66748102D01*
X137017205Y-66559744D01*
X136903937Y-66390226D01*
X136760905Y-66247194D01*
X136838233Y-66205862D01*
X136957764Y-66107764D01*
X136982347Y-66077810D01*
X139425157Y-63635000D01*
X142104842Y-63635000D01*
X141222190Y-64517653D01*
X141192236Y-64542236D01*
X141094138Y-64661768D01*
X141021246Y-64798141D01*
X140976359Y-64946114D01*
X140965000Y-65061440D01*
X140965000Y-65061447D01*
X140961203Y-65100000D01*
X140965000Y-65138553D01*
X140965001Y-68921288D01*
X140946063Y-68940226D01*
X140832795Y-69109744D01*
X140754774Y-69298102D01*
X140715000Y-69498061D01*
X140715000Y-69701939D01*
X140754774Y-69901898D01*
X140832795Y-70090256D01*
X140946063Y-70259774D01*
X141090226Y-70403937D01*
X141259744Y-70517205D01*
X141448102Y-70595226D01*
X141648061Y-70635000D01*
X141851939Y-70635000D01*
X142051898Y-70595226D01*
X142240256Y-70517205D01*
X142409774Y-70403937D01*
X142553937Y-70259774D01*
X142667205Y-70090256D01*
X142734170Y-69928589D01*
X142901898Y-69895226D01*
X143090256Y-69817205D01*
X143259774Y-69703937D01*
X143403937Y-69559774D01*
X143517205Y-69390256D01*
X143595226Y-69201898D01*
X143635000Y-69001939D01*
X143635000Y-68798061D01*
X143595226Y-68598102D01*
X143517205Y-68409744D01*
X143403937Y-68240226D01*
X143385000Y-68221289D01*
X143385000Y-66525157D01*
X143932345Y-65977813D01*
X143932349Y-65977808D01*
X144532345Y-65377813D01*
X145003844Y-64906314D01*
X145148061Y-64935000D01*
X145351939Y-64935000D01*
X145551898Y-64895226D01*
X145740256Y-64817205D01*
X145909774Y-64703937D01*
X146053937Y-64559774D01*
X146167205Y-64390256D01*
X146245226Y-64201898D01*
X146285000Y-64001939D01*
X146285000Y-63798061D01*
X146252565Y-63635000D01*
X146845762Y-63635000D01*
X146884315Y-63638797D01*
X146922868Y-63635000D01*
X146922876Y-63635000D01*
X147038202Y-63623641D01*
X147186175Y-63578754D01*
X147322548Y-63505862D01*
X147442079Y-63407764D01*
X147466662Y-63377811D01*
X147742845Y-63101627D01*
X147848102Y-63145226D01*
X148048061Y-63185000D01*
X148251939Y-63185000D01*
X148451898Y-63145226D01*
X148640256Y-63067205D01*
X148809774Y-62953937D01*
X148953937Y-62809774D01*
X149067205Y-62640256D01*
X149145226Y-62451898D01*
X149185000Y-62251939D01*
X149185000Y-62048061D01*
X149145226Y-61848102D01*
X149067205Y-61659744D01*
X148953937Y-61490226D01*
X148822564Y-61358853D01*
X148903740Y-61375000D01*
X149196260Y-61375000D01*
X149483158Y-61317932D01*
X149753411Y-61205990D01*
X149996632Y-61043475D01*
X150203475Y-60836632D01*
X150321100Y-60660594D01*
X150492412Y-60890269D01*
X150708645Y-61085178D01*
X150958748Y-61234157D01*
X151233109Y-61331481D01*
X151463000Y-61210814D01*
X151463000Y-60017000D01*
X151443000Y-60017000D01*
X151443000Y-59763000D01*
X151463000Y-59763000D01*
X151463000Y-59743000D01*
X151717000Y-59743000D01*
X151717000Y-59763000D01*
X151737000Y-59763000D01*
X151737000Y-60017000D01*
X151717000Y-60017000D01*
X151717000Y-61210814D01*
X151946891Y-61331481D01*
X152221252Y-61234157D01*
X152471355Y-61085178D01*
X152650001Y-60924150D01*
X152650000Y-63809893D01*
X152536632Y-63696525D01*
X152293411Y-63534010D01*
X152023158Y-63422068D01*
X151736260Y-63365000D01*
X151443740Y-63365000D01*
X151156842Y-63422068D01*
X150886589Y-63534010D01*
X150643368Y-63696525D01*
X150511513Y-63828380D01*
X150489502Y-63755820D01*
X150430537Y-63645506D01*
X150351185Y-63548815D01*
X150254494Y-63469463D01*
X150144180Y-63410498D01*
X150024482Y-63374188D01*
X149900000Y-63361928D01*
X148200000Y-63361928D01*
X148075518Y-63374188D01*
X147955820Y-63410498D01*
X147845506Y-63469463D01*
X147748815Y-63548815D01*
X147669463Y-63645506D01*
X147610498Y-63755820D01*
X147574188Y-63875518D01*
X147561928Y-64000000D01*
X147561928Y-65700000D01*
X147574188Y-65824482D01*
X147610498Y-65944180D01*
X147669463Y-66054494D01*
X147748815Y-66151185D01*
X147845506Y-66230537D01*
X147955820Y-66289502D01*
X148028380Y-66311513D01*
X147896525Y-66443368D01*
X147734010Y-66686589D01*
X147622068Y-66956842D01*
X147565000Y-67243740D01*
X147565000Y-67536260D01*
X147622068Y-67823158D01*
X147734010Y-68093411D01*
X147896525Y-68336632D01*
X148103368Y-68543475D01*
X148346589Y-68705990D01*
X148616842Y-68817932D01*
X148903740Y-68875000D01*
X149196260Y-68875000D01*
X149483158Y-68817932D01*
X149753411Y-68705990D01*
X149996632Y-68543475D01*
X150203475Y-68336632D01*
X150321100Y-68160594D01*
X150492412Y-68390269D01*
X150708645Y-68585178D01*
X150958748Y-68734157D01*
X151233109Y-68831481D01*
X151463000Y-68710814D01*
X151463000Y-67517000D01*
X151443000Y-67517000D01*
X151443000Y-67263000D01*
X151463000Y-67263000D01*
X151463000Y-67243000D01*
X151717000Y-67243000D01*
X151717000Y-67263000D01*
X151737000Y-67263000D01*
X151737000Y-67517000D01*
X151717000Y-67517000D01*
X151717000Y-68710814D01*
X151946891Y-68831481D01*
X152221252Y-68734157D01*
X152471355Y-68585178D01*
X152650001Y-68424149D01*
X152650001Y-71365850D01*
X152471355Y-71204822D01*
X152221252Y-71055843D01*
X151946891Y-70958519D01*
X151717000Y-71079186D01*
X151717000Y-72273000D01*
X151737000Y-72273000D01*
X151737000Y-72527000D01*
X151717000Y-72527000D01*
X151717000Y-74813000D01*
X151737000Y-74813000D01*
X151737000Y-75067000D01*
X151717000Y-75067000D01*
X151717000Y-77353000D01*
X151737000Y-77353000D01*
X151737000Y-77607000D01*
X151717000Y-77607000D01*
X151717000Y-78800814D01*
X151946891Y-78921481D01*
X152221252Y-78824157D01*
X152471355Y-78675178D01*
X152650000Y-78514150D01*
X152650000Y-80127208D01*
X151801266Y-80975942D01*
X151746260Y-80965000D01*
X151453740Y-80965000D01*
X151166842Y-81022068D01*
X150896589Y-81134010D01*
X150653368Y-81296525D01*
X150446525Y-81503368D01*
X150330000Y-81677760D01*
X150213475Y-81503368D01*
X150006632Y-81296525D01*
X149763411Y-81134010D01*
X149493158Y-81022068D01*
X149206260Y-80965000D01*
X148913740Y-80965000D01*
X148626842Y-81022068D01*
X148356589Y-81134010D01*
X148113368Y-81296525D01*
X147906525Y-81503368D01*
X147744010Y-81746589D01*
X147632068Y-82016842D01*
X147575000Y-82303740D01*
X147575000Y-82596260D01*
X147632068Y-82883158D01*
X147744010Y-83153411D01*
X147906525Y-83396632D01*
X148113368Y-83603475D01*
X148287760Y-83720000D01*
X148113368Y-83836525D01*
X147906525Y-84043368D01*
X147744010Y-84286589D01*
X147632068Y-84556842D01*
X147588090Y-84777933D01*
X146232346Y-83422189D01*
X146207763Y-83392235D01*
X146088232Y-83294137D01*
X145951859Y-83221245D01*
X145803886Y-83176358D01*
X145688560Y-83164999D01*
X145688552Y-83164999D01*
X145649999Y-83161202D01*
X145611446Y-83164999D01*
X136948587Y-83164999D01*
X136945226Y-83148102D01*
X136867205Y-82959744D01*
X136753937Y-82790226D01*
X136609774Y-82646063D01*
X136440256Y-82532795D01*
X136251898Y-82454774D01*
X136221525Y-82448733D01*
X132117657Y-78344865D01*
X132089475Y-78310525D01*
X131952432Y-78198057D01*
X131796081Y-78114486D01*
X131626431Y-78063023D01*
X131494207Y-78050000D01*
X131494206Y-78050000D01*
X131450000Y-78045646D01*
X131405794Y-78050000D01*
X121666005Y-78050000D01*
X121640256Y-78032795D01*
X121451898Y-77954774D01*
X121251939Y-77915000D01*
X121048061Y-77915000D01*
X120848102Y-77954774D01*
X120659744Y-78032795D01*
X120490226Y-78146063D01*
X120346063Y-78290226D01*
X120232795Y-78459744D01*
X120154774Y-78648102D01*
X120115000Y-78848061D01*
X120115000Y-79051939D01*
X120154774Y-79251898D01*
X120232795Y-79440256D01*
X120346063Y-79609774D01*
X120490226Y-79753937D01*
X120659744Y-79867205D01*
X120848102Y-79945226D01*
X121048061Y-79985000D01*
X121251939Y-79985000D01*
X121451898Y-79945226D01*
X121640256Y-79867205D01*
X121666005Y-79850000D01*
X131077208Y-79850000D01*
X134948733Y-83721525D01*
X134954774Y-83751898D01*
X135032795Y-83940256D01*
X135146063Y-84109774D01*
X135290226Y-84253937D01*
X135377555Y-84312288D01*
X135074843Y-84615000D01*
X113480633Y-84615000D01*
X113442080Y-84611203D01*
X113403527Y-84615000D01*
X113403520Y-84615000D01*
X113288194Y-84626359D01*
X113140221Y-84671246D01*
X113003848Y-84744138D01*
X112943640Y-84793550D01*
X112914268Y-84817655D01*
X112914265Y-84817658D01*
X112884317Y-84842236D01*
X112859739Y-84872184D01*
X110236015Y-87495908D01*
X110086632Y-87346525D01*
X109843411Y-87184010D01*
X109573158Y-87072068D01*
X109286260Y-87015000D01*
X108993740Y-87015000D01*
X108706842Y-87072068D01*
X108436589Y-87184010D01*
X108193368Y-87346525D01*
X107986525Y-87553368D01*
X107870000Y-87727760D01*
X107753475Y-87553368D01*
X107546632Y-87346525D01*
X107303411Y-87184010D01*
X107033158Y-87072068D01*
X106746260Y-87015000D01*
X106453740Y-87015000D01*
X106166842Y-87072068D01*
X105896589Y-87184010D01*
X105653368Y-87346525D01*
X105521513Y-87478380D01*
X105499502Y-87405820D01*
X105440537Y-87295506D01*
X105361185Y-87198815D01*
X105264494Y-87119463D01*
X105154180Y-87060498D01*
X105034482Y-87024188D01*
X104910000Y-87011928D01*
X103210000Y-87011928D01*
X103085518Y-87024188D01*
X102965820Y-87060498D01*
X102855506Y-87119463D01*
X102758815Y-87198815D01*
X102679463Y-87295506D01*
X102620498Y-87405820D01*
X102584188Y-87525518D01*
X102571928Y-87650000D01*
X102571928Y-89350000D01*
X102584188Y-89474482D01*
X102620498Y-89594180D01*
X102679463Y-89704494D01*
X102758815Y-89801185D01*
X102855506Y-89880537D01*
X102965820Y-89939502D01*
X103085518Y-89975812D01*
X103210000Y-89988072D01*
X104910000Y-89988072D01*
X105034482Y-89975812D01*
X105154180Y-89939502D01*
X105264494Y-89880537D01*
X105361185Y-89801185D01*
X105440537Y-89704494D01*
X105499502Y-89594180D01*
X105521513Y-89521620D01*
X105653368Y-89653475D01*
X105896589Y-89815990D01*
X106166842Y-89927932D01*
X106453740Y-89985000D01*
X106746260Y-89985000D01*
X107033158Y-89927932D01*
X107303411Y-89815990D01*
X107546632Y-89653475D01*
X107753475Y-89446632D01*
X107870000Y-89272240D01*
X107986525Y-89446632D01*
X108193368Y-89653475D01*
X108436589Y-89815990D01*
X108706842Y-89927932D01*
X108993740Y-89985000D01*
X109286260Y-89985000D01*
X109573158Y-89927932D01*
X109843411Y-89815990D01*
X110086632Y-89653475D01*
X110293475Y-89446632D01*
X110402942Y-89282804D01*
X110495968Y-89273641D01*
X110643941Y-89228754D01*
X110780314Y-89155862D01*
X110899845Y-89057764D01*
X110924428Y-89027810D01*
X113767239Y-86185000D01*
X135361447Y-86185000D01*
X135400000Y-86188797D01*
X135438553Y-86185000D01*
X135438561Y-86185000D01*
X135553887Y-86173641D01*
X135701860Y-86128754D01*
X135838233Y-86055862D01*
X135957764Y-85957764D01*
X135982347Y-85927810D01*
X136697658Y-85212500D01*
X136796063Y-85359774D01*
X136940226Y-85503937D01*
X137109744Y-85617205D01*
X137298102Y-85695226D01*
X137498061Y-85735000D01*
X137701939Y-85735000D01*
X137901898Y-85695226D01*
X138090256Y-85617205D01*
X138259774Y-85503937D01*
X138278711Y-85485000D01*
X139574843Y-85485000D01*
X140904843Y-86815000D01*
X138828552Y-86815000D01*
X138789999Y-86811203D01*
X138751446Y-86815000D01*
X138751439Y-86815000D01*
X138650490Y-86824943D01*
X138636112Y-86826359D01*
X138608175Y-86834834D01*
X138488140Y-86871246D01*
X138351767Y-86944138D01*
X138306692Y-86981131D01*
X138238102Y-86994774D01*
X138049744Y-87072795D01*
X137880226Y-87186063D01*
X137736063Y-87330226D01*
X137622795Y-87499744D01*
X137544774Y-87688102D01*
X137505000Y-87888061D01*
X137505000Y-88022628D01*
X137359744Y-88082795D01*
X137190226Y-88196063D01*
X137046063Y-88340226D01*
X136932795Y-88509744D01*
X136854774Y-88698102D01*
X136815000Y-88898061D01*
X136815000Y-89101939D01*
X136854774Y-89301898D01*
X136932795Y-89490256D01*
X137046063Y-89659774D01*
X137190226Y-89803937D01*
X137359744Y-89917205D01*
X137548102Y-89995226D01*
X137748061Y-90035000D01*
X137951939Y-90035000D01*
X138151898Y-89995226D01*
X138340256Y-89917205D01*
X138366005Y-89900000D01*
X144488918Y-89900000D01*
X144409744Y-89932795D01*
X144240226Y-90046063D01*
X144096063Y-90190226D01*
X143982795Y-90359744D01*
X143904774Y-90548102D01*
X143865000Y-90748061D01*
X143865000Y-90774843D01*
X139731419Y-94908424D01*
X139601898Y-94854774D01*
X139401939Y-94815000D01*
X139198061Y-94815000D01*
X138998102Y-94854774D01*
X138883019Y-94902443D01*
X138922893Y-94862569D01*
X139088144Y-94615253D01*
X139201971Y-94340451D01*
X139260000Y-94048722D01*
X139260000Y-93751278D01*
X139201971Y-93459549D01*
X139088144Y-93184747D01*
X138922893Y-92937431D01*
X138712569Y-92727107D01*
X138465253Y-92561856D01*
X138190451Y-92448029D01*
X137898722Y-92390000D01*
X137601278Y-92390000D01*
X137309549Y-92448029D01*
X137034747Y-92561856D01*
X136787431Y-92727107D01*
X136577107Y-92937431D01*
X136500000Y-93052830D01*
X136422893Y-92937431D01*
X136212569Y-92727107D01*
X135965253Y-92561856D01*
X135690451Y-92448029D01*
X135398722Y-92390000D01*
X135101278Y-92390000D01*
X134809549Y-92448029D01*
X134534747Y-92561856D01*
X134287431Y-92727107D01*
X134077107Y-92937431D01*
X134000000Y-93052830D01*
X133922893Y-92937431D01*
X133712569Y-92727107D01*
X133465253Y-92561856D01*
X133190451Y-92448029D01*
X132898722Y-92390000D01*
X132601278Y-92390000D01*
X132309549Y-92448029D01*
X132034747Y-92561856D01*
X131787431Y-92727107D01*
X131577107Y-92937431D01*
X131500000Y-93052830D01*
X131422893Y-92937431D01*
X131212569Y-92727107D01*
X130965253Y-92561856D01*
X130690451Y-92448029D01*
X130398722Y-92390000D01*
X130101278Y-92390000D01*
X129809549Y-92448029D01*
X129534747Y-92561856D01*
X129287431Y-92727107D01*
X129218974Y-92795564D01*
X129214502Y-92780820D01*
X129155537Y-92670506D01*
X129076185Y-92573815D01*
X128979494Y-92494463D01*
X128869180Y-92435498D01*
X128749482Y-92399188D01*
X128625000Y-92386928D01*
X128535000Y-92386928D01*
X128535000Y-91688552D01*
X128538797Y-91649999D01*
X128535000Y-91611446D01*
X128535000Y-91611439D01*
X128523641Y-91496113D01*
X128478754Y-91348140D01*
X128405862Y-91211767D01*
X128307764Y-91092236D01*
X128277817Y-91067659D01*
X125926931Y-88716774D01*
X125995226Y-88551898D01*
X126035000Y-88351939D01*
X126035000Y-88148061D01*
X125995226Y-87948102D01*
X125917205Y-87759744D01*
X125803937Y-87590226D01*
X125659774Y-87446063D01*
X125490256Y-87332795D01*
X125301898Y-87254774D01*
X125101939Y-87215000D01*
X124898061Y-87215000D01*
X124698102Y-87254774D01*
X124509744Y-87332795D01*
X124340226Y-87446063D01*
X124196063Y-87590226D01*
X124082795Y-87759744D01*
X124004774Y-87948102D01*
X123965000Y-88148061D01*
X123965000Y-88221467D01*
X123831939Y-88195000D01*
X123628061Y-88195000D01*
X123428102Y-88234774D01*
X123239744Y-88312795D01*
X123070226Y-88426063D01*
X122926063Y-88570226D01*
X122840996Y-88697538D01*
X122761898Y-88664774D01*
X122561939Y-88625000D01*
X122358061Y-88625000D01*
X122158102Y-88664774D01*
X121969744Y-88742795D01*
X121800226Y-88856063D01*
X121656063Y-89000226D01*
X121542795Y-89169744D01*
X121464774Y-89358102D01*
X121435683Y-89504354D01*
X121417205Y-89459744D01*
X121303937Y-89290226D01*
X121159774Y-89146063D01*
X120990256Y-89032795D01*
X120801898Y-88954774D01*
X120601939Y-88915000D01*
X120398061Y-88915000D01*
X120198102Y-88954774D01*
X120009744Y-89032795D01*
X119840226Y-89146063D01*
X119696063Y-89290226D01*
X119582795Y-89459744D01*
X119504774Y-89648102D01*
X119465000Y-89848061D01*
X119465000Y-90051939D01*
X119504774Y-90251898D01*
X119582795Y-90440256D01*
X119600000Y-90466005D01*
X119600001Y-92685299D01*
X119537431Y-92727107D01*
X119327107Y-92937431D01*
X119250000Y-93052830D01*
X119172893Y-92937431D01*
X118962569Y-92727107D01*
X118715253Y-92561856D01*
X118440451Y-92448029D01*
X118148722Y-92390000D01*
X117851278Y-92390000D01*
X117559549Y-92448029D01*
X117284747Y-92561856D01*
X117037431Y-92727107D01*
X116827107Y-92937431D01*
X116750000Y-93052830D01*
X116672893Y-92937431D01*
X116462569Y-92727107D01*
X116215253Y-92561856D01*
X115940451Y-92448029D01*
X115648722Y-92390000D01*
X115351278Y-92390000D01*
X115059549Y-92448029D01*
X114784747Y-92561856D01*
X114537431Y-92727107D01*
X114327107Y-92937431D01*
X114250000Y-93052830D01*
X114172893Y-92937431D01*
X113962569Y-92727107D01*
X113715253Y-92561856D01*
X113440451Y-92448029D01*
X113148722Y-92390000D01*
X112851278Y-92390000D01*
X112559549Y-92448029D01*
X112284747Y-92561856D01*
X112037431Y-92727107D01*
X111968974Y-92795564D01*
X111964502Y-92780820D01*
X111905537Y-92670506D01*
X111826185Y-92573815D01*
X111729494Y-92494463D01*
X111619180Y-92435498D01*
X111499482Y-92399188D01*
X111375000Y-92386928D01*
X109625000Y-92386928D01*
X109500518Y-92399188D01*
X109380820Y-92435498D01*
X109270506Y-92494463D01*
X109173815Y-92573815D01*
X109094463Y-92670506D01*
X109035498Y-92780820D01*
X108999188Y-92900518D01*
X108986928Y-93025000D01*
X108986928Y-94775000D01*
X108999188Y-94899482D01*
X109035498Y-95019180D01*
X109094463Y-95129494D01*
X109173815Y-95226185D01*
X109270506Y-95305537D01*
X109380820Y-95364502D01*
X109500518Y-95400812D01*
X109625000Y-95413072D01*
X111375000Y-95413072D01*
X111499482Y-95400812D01*
X111619180Y-95364502D01*
X111729494Y-95305537D01*
X111826185Y-95226185D01*
X111905537Y-95129494D01*
X111964502Y-95019180D01*
X111968974Y-95004436D01*
X112037431Y-95072893D01*
X112284747Y-95238144D01*
X112559549Y-95351971D01*
X112851278Y-95410000D01*
X113148722Y-95410000D01*
X113440451Y-95351971D01*
X113715253Y-95238144D01*
X113962569Y-95072893D01*
X114172893Y-94862569D01*
X114250000Y-94747170D01*
X114327107Y-94862569D01*
X114537431Y-95072893D01*
X114784747Y-95238144D01*
X115059549Y-95351971D01*
X115351278Y-95410000D01*
X115648722Y-95410000D01*
X115940451Y-95351971D01*
X116215253Y-95238144D01*
X116462569Y-95072893D01*
X116672893Y-94862569D01*
X116750000Y-94747170D01*
X116827107Y-94862569D01*
X117037431Y-95072893D01*
X117284747Y-95238144D01*
X117559549Y-95351971D01*
X117851278Y-95410000D01*
X118148722Y-95410000D01*
X118440451Y-95351971D01*
X118715253Y-95238144D01*
X118962569Y-95072893D01*
X119172893Y-94862569D01*
X119250000Y-94747170D01*
X119327107Y-94862569D01*
X119537431Y-95072893D01*
X119784747Y-95238144D01*
X120059549Y-95351971D01*
X120351278Y-95410000D01*
X120648722Y-95410000D01*
X120940451Y-95351971D01*
X121215253Y-95238144D01*
X121462569Y-95072893D01*
X121672893Y-94862569D01*
X121838144Y-94615253D01*
X121951971Y-94340451D01*
X122010000Y-94048722D01*
X122010000Y-93751278D01*
X121951971Y-93459549D01*
X121838144Y-93184747D01*
X121672893Y-92937431D01*
X121462569Y-92727107D01*
X121400000Y-92685300D01*
X121400000Y-90466005D01*
X121417205Y-90440256D01*
X121495226Y-90251898D01*
X121524317Y-90105646D01*
X121542795Y-90150256D01*
X121656063Y-90319774D01*
X121800226Y-90463937D01*
X121969744Y-90577205D01*
X122158102Y-90655226D01*
X122358061Y-90695000D01*
X122384843Y-90695000D01*
X123865000Y-92175157D01*
X123865001Y-95311437D01*
X123861203Y-95350000D01*
X123876359Y-95503886D01*
X123921246Y-95651859D01*
X123941756Y-95690231D01*
X123994139Y-95788233D01*
X124018546Y-95817972D01*
X124067655Y-95877812D01*
X124067659Y-95877816D01*
X124092237Y-95907764D01*
X124122185Y-95932342D01*
X125317658Y-97127815D01*
X125342236Y-97157764D01*
X125372184Y-97182342D01*
X125372187Y-97182345D01*
X125382681Y-97190957D01*
X125461767Y-97255862D01*
X125589250Y-97324002D01*
X125598140Y-97328754D01*
X125746113Y-97373642D01*
X125821026Y-97381020D01*
X125861439Y-97385000D01*
X125861444Y-97385000D01*
X125900000Y-97388797D01*
X125938555Y-97385000D01*
X131561447Y-97385000D01*
X131600000Y-97388797D01*
X131638553Y-97385000D01*
X131638561Y-97385000D01*
X131753887Y-97373641D01*
X131901860Y-97328754D01*
X132038233Y-97255862D01*
X132157764Y-97157764D01*
X132182347Y-97127810D01*
X133277811Y-96032346D01*
X133307764Y-96007764D01*
X133405862Y-95888233D01*
X133478754Y-95751860D01*
X133479906Y-95748061D01*
X133523642Y-95603887D01*
X133533490Y-95503887D01*
X133535000Y-95488561D01*
X133535000Y-95488556D01*
X133538797Y-95450000D01*
X133535000Y-95411444D01*
X133535000Y-95191541D01*
X133712569Y-95072893D01*
X133922893Y-94862569D01*
X134000000Y-94747170D01*
X134077107Y-94862569D01*
X134287431Y-95072893D01*
X134534747Y-95238144D01*
X134809549Y-95351971D01*
X135101278Y-95410000D01*
X135398722Y-95410000D01*
X135690451Y-95351971D01*
X135965253Y-95238144D01*
X136212569Y-95072893D01*
X136422893Y-94862569D01*
X136500000Y-94747170D01*
X136577107Y-94862569D01*
X136787431Y-95072893D01*
X137034747Y-95238144D01*
X137309549Y-95351971D01*
X137601278Y-95410000D01*
X137898722Y-95410000D01*
X138190451Y-95351971D01*
X138463583Y-95238836D01*
X138382795Y-95359744D01*
X138304774Y-95548102D01*
X138265000Y-95748061D01*
X138265000Y-95951939D01*
X138304774Y-96151898D01*
X138382795Y-96340256D01*
X138496063Y-96509774D01*
X138640226Y-96653937D01*
X138809744Y-96767205D01*
X138998102Y-96845226D01*
X139198061Y-96885000D01*
X139401939Y-96885000D01*
X139601898Y-96845226D01*
X139790256Y-96767205D01*
X139959774Y-96653937D01*
X139983098Y-96630613D01*
X140053887Y-96623641D01*
X140201860Y-96578754D01*
X140338233Y-96505862D01*
X140457764Y-96407764D01*
X140482347Y-96377810D01*
X140827211Y-96032946D01*
X158603687Y-96032946D01*
X158656158Y-96499811D01*
X158798703Y-96947468D01*
X158989234Y-97303927D01*
X159330391Y-97490003D01*
X160820395Y-96000000D01*
X161179605Y-96000000D01*
X162669609Y-97490003D01*
X163010766Y-97303927D01*
X163226513Y-96886591D01*
X163356696Y-96435185D01*
X163396313Y-95967054D01*
X163343842Y-95500189D01*
X163201297Y-95052532D01*
X163010766Y-94696073D01*
X162669609Y-94509997D01*
X161179605Y-96000000D01*
X160820395Y-96000000D01*
X159330391Y-94509997D01*
X158989234Y-94696073D01*
X158773487Y-95113409D01*
X158643304Y-95564815D01*
X158603687Y-96032946D01*
X140827211Y-96032946D01*
X143486928Y-93373229D01*
X143486928Y-94775000D01*
X143499188Y-94899482D01*
X143535498Y-95019180D01*
X143594463Y-95129494D01*
X143673815Y-95226185D01*
X143770506Y-95305537D01*
X143880820Y-95364502D01*
X144000518Y-95400812D01*
X144125000Y-95413072D01*
X145875000Y-95413072D01*
X145999482Y-95400812D01*
X146119180Y-95364502D01*
X146229494Y-95305537D01*
X146326185Y-95226185D01*
X146405537Y-95129494D01*
X146464502Y-95019180D01*
X146468974Y-95004436D01*
X146537431Y-95072893D01*
X146784747Y-95238144D01*
X147059549Y-95351971D01*
X147351278Y-95410000D01*
X147648722Y-95410000D01*
X147940451Y-95351971D01*
X148215253Y-95238144D01*
X148462569Y-95072893D01*
X148672893Y-94862569D01*
X148750000Y-94747170D01*
X148827107Y-94862569D01*
X149037431Y-95072893D01*
X149284747Y-95238144D01*
X149559549Y-95351971D01*
X149851278Y-95410000D01*
X150148722Y-95410000D01*
X150440451Y-95351971D01*
X150715253Y-95238144D01*
X150962569Y-95072893D01*
X151172893Y-94862569D01*
X151250000Y-94747170D01*
X151327107Y-94862569D01*
X151537431Y-95072893D01*
X151784747Y-95238144D01*
X152059549Y-95351971D01*
X152351278Y-95410000D01*
X152648722Y-95410000D01*
X152940451Y-95351971D01*
X153215253Y-95238144D01*
X153462569Y-95072893D01*
X153672893Y-94862569D01*
X153750000Y-94747170D01*
X153827107Y-94862569D01*
X154037431Y-95072893D01*
X154284747Y-95238144D01*
X154559549Y-95351971D01*
X154851278Y-95410000D01*
X155148722Y-95410000D01*
X155440451Y-95351971D01*
X155715253Y-95238144D01*
X155962569Y-95072893D01*
X156172893Y-94862569D01*
X156338144Y-94615253D01*
X156451971Y-94340451D01*
X156453972Y-94330391D01*
X159509997Y-94330391D01*
X161000000Y-95820395D01*
X162490003Y-94330391D01*
X162303927Y-93989234D01*
X161886591Y-93773487D01*
X161435185Y-93643304D01*
X160967054Y-93603687D01*
X160500189Y-93656158D01*
X160052532Y-93798703D01*
X159696073Y-93989234D01*
X159509997Y-94330391D01*
X156453972Y-94330391D01*
X156510000Y-94048722D01*
X156510000Y-93751278D01*
X156451971Y-93459549D01*
X156338144Y-93184747D01*
X156172893Y-92937431D01*
X155962569Y-92727107D01*
X155715253Y-92561856D01*
X155440451Y-92448029D01*
X155148722Y-92390000D01*
X154851278Y-92390000D01*
X154559549Y-92448029D01*
X154284747Y-92561856D01*
X154037431Y-92727107D01*
X153827107Y-92937431D01*
X153750000Y-93052830D01*
X153672893Y-92937431D01*
X153462569Y-92727107D01*
X153215253Y-92561856D01*
X152940451Y-92448029D01*
X152648722Y-92390000D01*
X152351278Y-92390000D01*
X152059549Y-92448029D01*
X151784747Y-92561856D01*
X151537431Y-92727107D01*
X151327107Y-92937431D01*
X151250000Y-93052830D01*
X151172893Y-92937431D01*
X150962569Y-92727107D01*
X150715253Y-92561856D01*
X150440451Y-92448029D01*
X150148722Y-92390000D01*
X149851278Y-92390000D01*
X149559549Y-92448029D01*
X149284747Y-92561856D01*
X149037431Y-92727107D01*
X148827107Y-92937431D01*
X148750000Y-93052830D01*
X148672893Y-92937431D01*
X148462569Y-92727107D01*
X148215253Y-92561856D01*
X147940451Y-92448029D01*
X147648722Y-92390000D01*
X147351278Y-92390000D01*
X147059549Y-92448029D01*
X146784747Y-92561856D01*
X146537431Y-92727107D01*
X146468974Y-92795564D01*
X146464502Y-92780820D01*
X146405537Y-92670506D01*
X146326185Y-92573815D01*
X146229494Y-92494463D01*
X146119180Y-92435498D01*
X145999482Y-92399188D01*
X145875000Y-92386928D01*
X144473229Y-92386928D01*
X144975157Y-91885000D01*
X145001939Y-91885000D01*
X145201898Y-91845226D01*
X145390256Y-91767205D01*
X145559774Y-91653937D01*
X145703937Y-91509774D01*
X145817205Y-91340256D01*
X145895226Y-91151898D01*
X145935000Y-90951939D01*
X145935000Y-90748061D01*
X145895226Y-90548102D01*
X145817205Y-90359744D01*
X145703937Y-90190226D01*
X145559774Y-90046063D01*
X145390256Y-89932795D01*
X145311082Y-89900000D01*
X145883995Y-89900000D01*
X145909744Y-89917205D01*
X146098102Y-89995226D01*
X146298061Y-90035000D01*
X146501939Y-90035000D01*
X146701898Y-89995226D01*
X146890256Y-89917205D01*
X146916005Y-89900000D01*
X155427208Y-89900000D01*
X156532347Y-91005140D01*
X156560525Y-91039475D01*
X156594860Y-91067653D01*
X156594862Y-91067655D01*
X156661310Y-91122187D01*
X156697568Y-91151943D01*
X156853919Y-91235514D01*
X157023569Y-91286977D01*
X157200000Y-91304354D01*
X157244206Y-91300000D01*
X162705794Y-91300000D01*
X162750000Y-91304354D01*
X162794206Y-91300000D01*
X162794207Y-91300000D01*
X162926431Y-91286977D01*
X163096081Y-91235514D01*
X163252432Y-91151943D01*
X163389475Y-91039475D01*
X163417657Y-91005135D01*
X164290001Y-90132791D01*
X164290001Y-95965270D01*
X164224004Y-96638366D01*
X164038607Y-97252428D01*
X163737474Y-97818775D01*
X163332071Y-98315847D01*
X162837842Y-98724710D01*
X162273611Y-99029790D01*
X161660862Y-99219467D01*
X160989787Y-99290000D01*
X104034720Y-99290000D01*
X103361634Y-99224004D01*
X102747572Y-99038607D01*
X102181225Y-98737474D01*
X101684153Y-98332071D01*
X101275290Y-97837842D01*
X101184327Y-97669609D01*
X102509997Y-97669609D01*
X102696073Y-98010766D01*
X103113409Y-98226513D01*
X103564815Y-98356696D01*
X104032946Y-98396313D01*
X104499811Y-98343842D01*
X104947468Y-98201297D01*
X105303927Y-98010766D01*
X105490003Y-97669609D01*
X159509997Y-97669609D01*
X159696073Y-98010766D01*
X160113409Y-98226513D01*
X160564815Y-98356696D01*
X161032946Y-98396313D01*
X161499811Y-98343842D01*
X161947468Y-98201297D01*
X162303927Y-98010766D01*
X162490003Y-97669609D01*
X161000000Y-96179605D01*
X159509997Y-97669609D01*
X105490003Y-97669609D01*
X104000000Y-96179605D01*
X102509997Y-97669609D01*
X101184327Y-97669609D01*
X100970210Y-97273611D01*
X100780533Y-96660862D01*
X100714537Y-96032946D01*
X101603687Y-96032946D01*
X101656158Y-96499811D01*
X101798703Y-96947468D01*
X101989234Y-97303927D01*
X102330391Y-97490003D01*
X103820395Y-96000000D01*
X104179605Y-96000000D01*
X105669609Y-97490003D01*
X106010766Y-97303927D01*
X106226513Y-96886591D01*
X106356696Y-96435185D01*
X106396313Y-95967054D01*
X106343842Y-95500189D01*
X106201297Y-95052532D01*
X106010766Y-94696073D01*
X105669609Y-94509997D01*
X104179605Y-96000000D01*
X103820395Y-96000000D01*
X102330391Y-94509997D01*
X101989234Y-94696073D01*
X101773487Y-95113409D01*
X101643304Y-95564815D01*
X101603687Y-96032946D01*
X100714537Y-96032946D01*
X100710000Y-95989787D01*
X100710000Y-94330391D01*
X102509997Y-94330391D01*
X104000000Y-95820395D01*
X105490003Y-94330391D01*
X105303927Y-93989234D01*
X104886591Y-93773487D01*
X104435185Y-93643304D01*
X103967054Y-93603687D01*
X103500189Y-93656158D01*
X103052532Y-93798703D01*
X102696073Y-93989234D01*
X102509997Y-94330391D01*
X100710000Y-94330391D01*
X100710000Y-85771653D01*
X102867952Y-85771653D01*
X103023962Y-86087214D01*
X103398745Y-86278020D01*
X103803551Y-86392044D01*
X104222824Y-86424902D01*
X104640451Y-86375334D01*
X105040383Y-86245243D01*
X105336038Y-86087214D01*
X105492048Y-85771653D01*
X104180000Y-84459605D01*
X102867952Y-85771653D01*
X100710000Y-85771653D01*
X100710000Y-84322824D01*
X102035098Y-84322824D01*
X102084666Y-84740451D01*
X102214757Y-85140383D01*
X102372786Y-85436038D01*
X102688347Y-85592048D01*
X104000395Y-84280000D01*
X104359605Y-84280000D01*
X105671653Y-85592048D01*
X105987214Y-85436038D01*
X106178020Y-85061255D01*
X106292044Y-84656449D01*
X106324902Y-84237176D01*
X106275334Y-83819549D01*
X106145243Y-83419617D01*
X105987214Y-83123962D01*
X105671653Y-82967952D01*
X104359605Y-84280000D01*
X104000395Y-84280000D01*
X102688347Y-82967952D01*
X102372786Y-83123962D01*
X102181980Y-83498745D01*
X102067956Y-83903551D01*
X102035098Y-84322824D01*
X100710000Y-84322824D01*
X100710000Y-82788347D01*
X102867952Y-82788347D01*
X104180000Y-84100395D01*
X105492048Y-82788347D01*
X105336038Y-82472786D01*
X104961255Y-82281980D01*
X104624034Y-82186993D01*
X106072612Y-82186993D01*
X106138137Y-82425860D01*
X106385116Y-82541760D01*
X106649960Y-82607250D01*
X106922492Y-82619812D01*
X107192238Y-82578965D01*
X107448832Y-82486277D01*
X107561863Y-82425860D01*
X107627388Y-82186993D01*
X106850000Y-81409605D01*
X106072612Y-82186993D01*
X104624034Y-82186993D01*
X104556449Y-82167956D01*
X104137176Y-82135098D01*
X103719549Y-82184666D01*
X103319617Y-82314757D01*
X103023962Y-82472786D01*
X102867952Y-82788347D01*
X100710000Y-82788347D01*
X100710000Y-81302492D01*
X105460188Y-81302492D01*
X105501035Y-81572238D01*
X105593723Y-81828832D01*
X105654140Y-81941863D01*
X105893007Y-82007388D01*
X106670395Y-81230000D01*
X107029605Y-81230000D01*
X107806993Y-82007388D01*
X108045860Y-81941863D01*
X108161760Y-81694884D01*
X108227250Y-81430040D01*
X108239812Y-81157508D01*
X108198965Y-80887762D01*
X108106277Y-80631168D01*
X108045860Y-80518137D01*
X107806993Y-80452612D01*
X107029605Y-81230000D01*
X106670395Y-81230000D01*
X105893007Y-80452612D01*
X105654140Y-80518137D01*
X105538240Y-80765116D01*
X105472750Y-81029960D01*
X105460188Y-81302492D01*
X100710000Y-81302492D01*
X100710000Y-72051653D01*
X102867952Y-72051653D01*
X103023962Y-72367214D01*
X103398745Y-72558020D01*
X103803551Y-72672044D01*
X104222824Y-72704902D01*
X104640451Y-72655334D01*
X105040383Y-72525243D01*
X105336038Y-72367214D01*
X105492048Y-72051653D01*
X104180000Y-70739605D01*
X102867952Y-72051653D01*
X100710000Y-72051653D01*
X100710000Y-70602824D01*
X102035098Y-70602824D01*
X102084666Y-71020451D01*
X102214757Y-71420383D01*
X102372786Y-71716038D01*
X102688347Y-71872048D01*
X104000395Y-70560000D01*
X104359605Y-70560000D01*
X105671653Y-71872048D01*
X105902796Y-71757774D01*
X105876652Y-71789630D01*
X105873136Y-71796209D01*
X105868475Y-71802037D01*
X105819082Y-71897335D01*
X105768473Y-71992018D01*
X105766306Y-71999161D01*
X105762875Y-72005781D01*
X105733033Y-72108848D01*
X105701857Y-72211621D01*
X105701126Y-72219048D01*
X105699051Y-72226213D01*
X105689885Y-72333177D01*
X105685000Y-72382777D01*
X105685000Y-72390184D01*
X105679458Y-72454858D01*
X105685000Y-72504639D01*
X105685000Y-73370612D01*
X105622629Y-73463957D01*
X105518225Y-73716011D01*
X105465000Y-73983589D01*
X105465000Y-74256411D01*
X105518225Y-74523989D01*
X105622629Y-74776043D01*
X105774201Y-75002886D01*
X105967114Y-75195799D01*
X106193957Y-75347371D01*
X106296873Y-75390000D01*
X106193957Y-75432629D01*
X105967114Y-75584201D01*
X105774201Y-75777114D01*
X105622629Y-76003957D01*
X105518225Y-76256011D01*
X105465000Y-76523589D01*
X105465000Y-76796411D01*
X105518225Y-77063989D01*
X105622629Y-77316043D01*
X105774201Y-77542886D01*
X105906315Y-77675000D01*
X105774201Y-77807114D01*
X105622629Y-78033957D01*
X105518225Y-78286011D01*
X105465000Y-78553589D01*
X105465000Y-78826411D01*
X105518225Y-79093989D01*
X105622629Y-79346043D01*
X105774201Y-79572886D01*
X105967114Y-79765799D01*
X106193957Y-79917371D01*
X106293279Y-79958511D01*
X106251168Y-79973723D01*
X106138137Y-80034140D01*
X106072612Y-80273007D01*
X106850000Y-81050395D01*
X107627388Y-80273007D01*
X107561863Y-80034140D01*
X107403523Y-79959836D01*
X107506043Y-79917371D01*
X107732886Y-79765799D01*
X107925799Y-79572886D01*
X108077371Y-79346043D01*
X108181775Y-79093989D01*
X108235000Y-78826411D01*
X108235000Y-78553589D01*
X108181775Y-78286011D01*
X108077371Y-78033957D01*
X107925799Y-77807114D01*
X107793685Y-77675000D01*
X107925799Y-77542886D01*
X108077371Y-77316043D01*
X108181775Y-77063989D01*
X108235000Y-76796411D01*
X108235000Y-76523589D01*
X108181775Y-76256011D01*
X108077371Y-76003957D01*
X107925799Y-75777114D01*
X107732886Y-75584201D01*
X107506043Y-75432629D01*
X107403127Y-75390000D01*
X107506043Y-75347371D01*
X107732886Y-75195799D01*
X107925799Y-75002886D01*
X108077371Y-74776043D01*
X108181775Y-74523989D01*
X108235000Y-74256411D01*
X108235000Y-73983589D01*
X108181775Y-73716011D01*
X108077371Y-73463957D01*
X108015000Y-73370612D01*
X108015000Y-72913918D01*
X111224115Y-69622284D01*
X111331525Y-69487964D01*
X111437125Y-69284220D01*
X111500949Y-69063788D01*
X111520542Y-68835142D01*
X111495151Y-68607066D01*
X111425753Y-68388326D01*
X111315015Y-68187328D01*
X111167191Y-68011796D01*
X110987963Y-67868475D01*
X110784219Y-67762875D01*
X110563787Y-67699051D01*
X110335141Y-67679458D01*
X110107065Y-67704849D01*
X109888325Y-67774247D01*
X109687327Y-67884985D01*
X109555777Y-67995770D01*
X106060960Y-71580454D01*
X106052854Y-71587106D01*
X106178020Y-71341255D01*
X106292044Y-70936449D01*
X106324902Y-70517176D01*
X106275334Y-70099549D01*
X106145243Y-69699617D01*
X105987214Y-69403962D01*
X105671653Y-69247952D01*
X104359605Y-70560000D01*
X104000395Y-70560000D01*
X102688347Y-69247952D01*
X102372786Y-69403962D01*
X102181980Y-69778745D01*
X102067956Y-70183551D01*
X102035098Y-70602824D01*
X100710000Y-70602824D01*
X100710000Y-69068347D01*
X102867952Y-69068347D01*
X104180000Y-70380395D01*
X105492048Y-69068347D01*
X105336038Y-68752786D01*
X104961255Y-68561980D01*
X104556449Y-68447956D01*
X104137176Y-68415098D01*
X103719549Y-68464666D01*
X103319617Y-68594757D01*
X103023962Y-68752786D01*
X102867952Y-69068347D01*
X100710000Y-69068347D01*
X100710000Y-66899117D01*
X100721324Y-66936447D01*
X100826716Y-67133623D01*
X100968551Y-67306449D01*
X101141377Y-67448284D01*
X101338553Y-67553676D01*
X101552501Y-67618577D01*
X101719248Y-67635000D01*
X102380752Y-67635000D01*
X102547499Y-67618577D01*
X102761447Y-67553676D01*
X102958623Y-67448284D01*
X103131449Y-67306449D01*
X103273284Y-67133623D01*
X103378676Y-66936447D01*
X103443577Y-66722499D01*
X103465491Y-66500000D01*
X103443577Y-66277501D01*
X103378676Y-66063553D01*
X103273284Y-65866377D01*
X103131449Y-65693551D01*
X102958623Y-65551716D01*
X102761447Y-65446324D01*
X102547499Y-65381423D01*
X102380752Y-65365000D01*
X101719248Y-65365000D01*
X101552501Y-65381423D01*
X101338553Y-65446324D01*
X101141377Y-65551716D01*
X100968551Y-65693551D01*
X100826716Y-65866377D01*
X100721324Y-66063553D01*
X100710000Y-66100883D01*
X100710000Y-65295480D01*
X103640000Y-65295480D01*
X103640000Y-65704521D01*
X103656062Y-65867598D01*
X103719532Y-66076834D01*
X103822604Y-66269666D01*
X103961315Y-66438686D01*
X104130335Y-66577396D01*
X104323167Y-66680468D01*
X104532403Y-66743938D01*
X104750000Y-66765370D01*
X104967598Y-66743938D01*
X105176834Y-66680468D01*
X105369666Y-66577396D01*
X105538686Y-66438686D01*
X105677396Y-66269666D01*
X105780468Y-66076833D01*
X105843938Y-65867597D01*
X105860000Y-65704520D01*
X105860000Y-65295479D01*
X105843938Y-65132402D01*
X105780468Y-64923166D01*
X105677396Y-64730334D01*
X105538686Y-64561314D01*
X105369666Y-64422604D01*
X105176833Y-64319532D01*
X104967597Y-64256062D01*
X104750000Y-64234630D01*
X104532402Y-64256062D01*
X104323166Y-64319532D01*
X104130334Y-64422604D01*
X103961314Y-64561314D01*
X103822604Y-64730334D01*
X103719532Y-64923167D01*
X103656062Y-65132403D01*
X103640000Y-65295480D01*
X100710000Y-65295480D01*
X100710000Y-59899117D01*
X100721324Y-59936447D01*
X100826716Y-60133623D01*
X100968551Y-60306449D01*
X101141377Y-60448284D01*
X101338553Y-60553676D01*
X101552501Y-60618577D01*
X101719248Y-60635000D01*
X102380752Y-60635000D01*
X102547499Y-60618577D01*
X102761447Y-60553676D01*
X102958623Y-60448284D01*
X103131449Y-60306449D01*
X103140451Y-60295480D01*
X103640000Y-60295480D01*
X103640000Y-60704521D01*
X103656062Y-60867598D01*
X103719532Y-61076834D01*
X103822604Y-61269666D01*
X103961315Y-61438686D01*
X104130335Y-61577396D01*
X104323167Y-61680468D01*
X104532403Y-61743938D01*
X104750000Y-61765370D01*
X104967598Y-61743938D01*
X105176834Y-61680468D01*
X105369666Y-61577396D01*
X105538686Y-61438686D01*
X105677396Y-61269666D01*
X105780468Y-61076833D01*
X105843938Y-60867597D01*
X105860000Y-60704520D01*
X105860000Y-60295479D01*
X105843938Y-60132402D01*
X105780468Y-59923166D01*
X105677396Y-59730334D01*
X105538686Y-59561314D01*
X105369666Y-59422604D01*
X105176833Y-59319532D01*
X104967597Y-59256062D01*
X104750000Y-59234630D01*
X104532402Y-59256062D01*
X104323166Y-59319532D01*
X104130334Y-59422604D01*
X103961314Y-59561314D01*
X103822604Y-59730334D01*
X103719532Y-59923167D01*
X103656062Y-60132403D01*
X103640000Y-60295480D01*
X103140451Y-60295480D01*
X103273284Y-60133623D01*
X103378676Y-59936447D01*
X103443577Y-59722499D01*
X103465491Y-59500000D01*
X103443577Y-59277501D01*
X103378676Y-59063553D01*
X103273284Y-58866377D01*
X103131449Y-58693551D01*
X102958623Y-58551716D01*
X102761447Y-58446324D01*
X102547499Y-58381423D01*
X102380752Y-58365000D01*
X101719248Y-58365000D01*
X101552501Y-58381423D01*
X101338553Y-58446324D01*
X101141377Y-58551716D01*
X100968551Y-58693551D01*
X100826716Y-58866377D01*
X100721324Y-59063553D01*
X100710000Y-59100883D01*
X100710000Y-51548061D01*
X112915000Y-51548061D01*
X112915000Y-51751939D01*
X112954774Y-51951898D01*
X113032795Y-52140256D01*
X113146063Y-52309774D01*
X113173136Y-52336847D01*
X113176359Y-52369572D01*
X113221246Y-52517545D01*
X113294139Y-52653918D01*
X113319648Y-52685000D01*
X113367655Y-52743497D01*
X113367659Y-52743501D01*
X113392237Y-52773449D01*
X113422185Y-52798027D01*
X116651970Y-56027812D01*
X117251972Y-56627815D01*
X117276551Y-56657764D01*
X117306499Y-56682342D01*
X117306502Y-56682345D01*
X117320872Y-56694138D01*
X117396082Y-56755862D01*
X117532455Y-56828754D01*
X117680427Y-56873641D01*
X117694805Y-56875057D01*
X117795754Y-56885000D01*
X117795761Y-56885000D01*
X117834314Y-56888797D01*
X117872867Y-56885000D01*
X129821289Y-56885000D01*
X129840226Y-56903937D01*
X130009744Y-57017205D01*
X130198102Y-57095226D01*
X130287076Y-57112924D01*
X130304774Y-57201898D01*
X130382795Y-57390256D01*
X130496063Y-57559774D01*
X130640226Y-57703937D01*
X130809744Y-57817205D01*
X130998102Y-57895226D01*
X131198061Y-57935000D01*
X131401939Y-57935000D01*
X131601898Y-57895226D01*
X131790256Y-57817205D01*
X131959774Y-57703937D01*
X132103937Y-57559774D01*
X132217205Y-57390256D01*
X132295226Y-57201898D01*
X132335000Y-57001939D01*
X132335000Y-56817994D01*
X133732994Y-55420000D01*
X139183995Y-55420000D01*
X139209744Y-55437205D01*
X139398102Y-55515226D01*
X139598061Y-55555000D01*
X139801939Y-55555000D01*
X140001898Y-55515226D01*
X140190256Y-55437205D01*
X140359774Y-55323937D01*
X140503937Y-55179774D01*
X140617205Y-55010256D01*
X140695226Y-54821898D01*
X140735000Y-54621939D01*
X140735000Y-54418061D01*
X140695226Y-54218102D01*
X140617205Y-54029744D01*
X140503937Y-53860226D01*
X140359774Y-53716063D01*
X140190256Y-53602795D01*
X140001898Y-53524774D01*
X139801939Y-53485000D01*
X139598061Y-53485000D01*
X139398102Y-53524774D01*
X139209744Y-53602795D01*
X139183995Y-53620000D01*
X133404409Y-53620000D01*
X133360202Y-53615646D01*
X133183771Y-53633023D01*
X133014120Y-53684486D01*
X132906078Y-53742236D01*
X132857770Y-53768057D01*
X132720727Y-53880525D01*
X132692545Y-53914865D01*
X131235561Y-55371850D01*
X131159774Y-55296063D01*
X130990256Y-55182795D01*
X130801898Y-55104774D01*
X130601939Y-55065000D01*
X130398061Y-55065000D01*
X130198102Y-55104774D01*
X130009744Y-55182795D01*
X129840226Y-55296063D01*
X129821289Y-55315000D01*
X129648711Y-55315000D01*
X129703937Y-55259774D01*
X129817205Y-55090256D01*
X129895226Y-54901898D01*
X129935000Y-54701939D01*
X129935000Y-54498061D01*
X129914609Y-54395548D01*
X130525158Y-53785000D01*
X130551939Y-53785000D01*
X130751898Y-53745226D01*
X130940256Y-53667205D01*
X131109774Y-53553937D01*
X131253937Y-53409774D01*
X131367205Y-53240256D01*
X131445226Y-53051898D01*
X131485000Y-52851939D01*
X131485000Y-52648061D01*
X131445226Y-52448102D01*
X131367205Y-52259744D01*
X131253937Y-52090226D01*
X131109774Y-51946063D01*
X130940256Y-51832795D01*
X130751898Y-51754774D01*
X130551939Y-51715000D01*
X130481483Y-51715000D01*
X130487764Y-51709845D01*
X130585862Y-51590314D01*
X130658754Y-51453941D01*
X130703641Y-51305968D01*
X130712804Y-51212942D01*
X130876632Y-51103475D01*
X131083475Y-50896632D01*
X131245990Y-50653411D01*
X131357932Y-50383158D01*
X131415000Y-50096260D01*
X131415000Y-49803740D01*
X131394365Y-49700000D01*
X137584630Y-49700000D01*
X137606062Y-49917598D01*
X137669532Y-50126834D01*
X137772604Y-50319666D01*
X137911314Y-50488686D01*
X138080334Y-50627396D01*
X138273166Y-50730468D01*
X138482402Y-50793938D01*
X138645479Y-50810000D01*
X139054521Y-50810000D01*
X139217598Y-50793938D01*
X139426834Y-50730468D01*
X139619666Y-50627396D01*
X139788686Y-50488686D01*
X139927396Y-50319666D01*
X140030468Y-50126834D01*
X140093938Y-49917598D01*
X140115370Y-49700000D01*
X142584630Y-49700000D01*
X142606062Y-49917598D01*
X142669532Y-50126834D01*
X142772604Y-50319666D01*
X142911314Y-50488686D01*
X143080334Y-50627396D01*
X143273166Y-50730468D01*
X143482402Y-50793938D01*
X143645479Y-50810000D01*
X144054521Y-50810000D01*
X144217598Y-50793938D01*
X144426834Y-50730468D01*
X144559400Y-50659609D01*
X159519997Y-50659609D01*
X159706073Y-51000766D01*
X160123409Y-51216513D01*
X160574815Y-51346696D01*
X161042946Y-51386313D01*
X161509811Y-51333842D01*
X161957468Y-51191297D01*
X162313927Y-51000766D01*
X162500003Y-50659609D01*
X161010000Y-49169605D01*
X159519997Y-50659609D01*
X144559400Y-50659609D01*
X144619666Y-50627396D01*
X144788686Y-50488686D01*
X144927396Y-50319666D01*
X145030468Y-50126834D01*
X145093938Y-49917598D01*
X145115370Y-49700000D01*
X145093938Y-49482402D01*
X145030468Y-49273166D01*
X144927396Y-49080334D01*
X144880300Y-49022946D01*
X158613687Y-49022946D01*
X158666158Y-49489811D01*
X158808703Y-49937468D01*
X158999234Y-50293927D01*
X159340391Y-50480003D01*
X160830395Y-48990000D01*
X161189605Y-48990000D01*
X162679609Y-50480003D01*
X163020766Y-50293927D01*
X163236513Y-49876591D01*
X163366696Y-49425185D01*
X163406313Y-48957054D01*
X163353842Y-48490189D01*
X163211297Y-48042532D01*
X163020766Y-47686073D01*
X162679609Y-47499997D01*
X161189605Y-48990000D01*
X160830395Y-48990000D01*
X159340391Y-47499997D01*
X158999234Y-47686073D01*
X158783487Y-48103409D01*
X158653304Y-48554815D01*
X158613687Y-49022946D01*
X144880300Y-49022946D01*
X144788686Y-48911314D01*
X144619666Y-48772604D01*
X144426834Y-48669532D01*
X144217598Y-48606062D01*
X144054521Y-48590000D01*
X143645479Y-48590000D01*
X143482402Y-48606062D01*
X143273166Y-48669532D01*
X143080334Y-48772604D01*
X142911314Y-48911314D01*
X142772604Y-49080334D01*
X142669532Y-49273166D01*
X142606062Y-49482402D01*
X142584630Y-49700000D01*
X140115370Y-49700000D01*
X140093938Y-49482402D01*
X140030468Y-49273166D01*
X139927396Y-49080334D01*
X139788686Y-48911314D01*
X139619666Y-48772604D01*
X139426834Y-48669532D01*
X139217598Y-48606062D01*
X139054521Y-48590000D01*
X138645479Y-48590000D01*
X138482402Y-48606062D01*
X138273166Y-48669532D01*
X138080334Y-48772604D01*
X137911314Y-48911314D01*
X137772604Y-49080334D01*
X137669532Y-49273166D01*
X137606062Y-49482402D01*
X137584630Y-49700000D01*
X131394365Y-49700000D01*
X131357932Y-49516842D01*
X131245990Y-49246589D01*
X131083475Y-49003368D01*
X130876632Y-48796525D01*
X130700594Y-48678900D01*
X130930269Y-48507588D01*
X131125178Y-48291355D01*
X131274157Y-48041252D01*
X131371481Y-47766891D01*
X131250814Y-47537000D01*
X130057000Y-47537000D01*
X130057000Y-47557000D01*
X129803000Y-47557000D01*
X129803000Y-47537000D01*
X129783000Y-47537000D01*
X129783000Y-47283000D01*
X129803000Y-47283000D01*
X129803000Y-46089845D01*
X130057000Y-46089845D01*
X130057000Y-47283000D01*
X131250814Y-47283000D01*
X131371481Y-47053109D01*
X131274157Y-46778748D01*
X131125178Y-46528645D01*
X130930269Y-46312412D01*
X130696920Y-46138359D01*
X130434099Y-46013175D01*
X130286890Y-45968524D01*
X130057000Y-46089845D01*
X129803000Y-46089845D01*
X129573110Y-45968524D01*
X129425901Y-46013175D01*
X129163080Y-46138359D01*
X128929731Y-46312412D01*
X128734822Y-46528645D01*
X128665195Y-46645534D01*
X128543475Y-46463368D01*
X128336632Y-46256525D01*
X128093411Y-46094010D01*
X127823158Y-45982068D01*
X127536260Y-45925000D01*
X127243740Y-45925000D01*
X126956842Y-45982068D01*
X126686589Y-46094010D01*
X126443368Y-46256525D01*
X126236525Y-46463368D01*
X126120000Y-46637760D01*
X126003475Y-46463368D01*
X125796632Y-46256525D01*
X125553411Y-46094010D01*
X125283158Y-45982068D01*
X124996260Y-45925000D01*
X124703740Y-45925000D01*
X124416842Y-45982068D01*
X124146589Y-46094010D01*
X123903368Y-46256525D01*
X123696525Y-46463368D01*
X123534010Y-46706589D01*
X123422068Y-46976842D01*
X123365000Y-47263740D01*
X123365000Y-47556260D01*
X123422068Y-47843158D01*
X123534010Y-48113411D01*
X123696525Y-48356632D01*
X123828380Y-48488487D01*
X123755820Y-48510498D01*
X123645506Y-48569463D01*
X123548815Y-48648815D01*
X123469463Y-48745506D01*
X123410498Y-48855820D01*
X123374188Y-48975518D01*
X123361928Y-49100000D01*
X123361928Y-50800000D01*
X123374188Y-50924482D01*
X123410498Y-51044180D01*
X123469463Y-51154494D01*
X123548815Y-51251185D01*
X123645506Y-51330537D01*
X123755820Y-51389502D01*
X123875518Y-51425812D01*
X124000000Y-51438072D01*
X125700000Y-51438072D01*
X125824482Y-51425812D01*
X125944180Y-51389502D01*
X126054494Y-51330537D01*
X126151185Y-51251185D01*
X126230537Y-51154494D01*
X126289502Y-51044180D01*
X126311513Y-50971620D01*
X126443368Y-51103475D01*
X126686589Y-51265990D01*
X126956842Y-51377932D01*
X127243740Y-51435000D01*
X127536260Y-51435000D01*
X127823158Y-51377932D01*
X128093411Y-51265990D01*
X128336632Y-51103475D01*
X128543475Y-50896632D01*
X128660000Y-50722240D01*
X128776525Y-50896632D01*
X128925908Y-51046015D01*
X127972188Y-51999736D01*
X127956924Y-52015000D01*
X123428711Y-52015000D01*
X123409774Y-51996063D01*
X123240256Y-51882795D01*
X123051898Y-51804774D01*
X122851939Y-51765000D01*
X122648061Y-51765000D01*
X122448102Y-51804774D01*
X122259744Y-51882795D01*
X122090226Y-51996063D01*
X121946063Y-52140226D01*
X121832795Y-52309744D01*
X121754774Y-52498102D01*
X121715000Y-52698061D01*
X121715000Y-52901939D01*
X121754774Y-53101898D01*
X121832795Y-53290256D01*
X121946063Y-53459774D01*
X122090226Y-53603937D01*
X122259744Y-53717205D01*
X122448102Y-53795226D01*
X122648061Y-53835000D01*
X122851939Y-53835000D01*
X123051898Y-53795226D01*
X123240256Y-53717205D01*
X123409774Y-53603937D01*
X123428711Y-53585000D01*
X128243528Y-53585000D01*
X128282081Y-53588797D01*
X128320634Y-53585000D01*
X128320642Y-53585000D01*
X128435968Y-53573641D01*
X128551138Y-53538705D01*
X128401619Y-53688224D01*
X128240226Y-53796063D01*
X128096063Y-53940226D01*
X127982795Y-54109744D01*
X127904774Y-54298102D01*
X127865000Y-54498061D01*
X127865000Y-54701939D01*
X127904774Y-54901898D01*
X127982795Y-55090256D01*
X128096063Y-55259774D01*
X128151289Y-55315000D01*
X118159473Y-55315000D01*
X117762127Y-54917655D01*
X114901627Y-52057155D01*
X114945226Y-51951898D01*
X114985000Y-51751939D01*
X114985000Y-51548061D01*
X114945226Y-51348102D01*
X114867205Y-51159744D01*
X114753937Y-50990226D01*
X114609774Y-50846063D01*
X114440256Y-50732795D01*
X114251898Y-50654774D01*
X114051939Y-50615000D01*
X113848061Y-50615000D01*
X113648102Y-50654774D01*
X113459744Y-50732795D01*
X113290226Y-50846063D01*
X113146063Y-50990226D01*
X113032795Y-51159744D01*
X112954774Y-51348102D01*
X112915000Y-51548061D01*
X100710000Y-51548061D01*
X100710000Y-50669609D01*
X102509997Y-50669609D01*
X102696073Y-51010766D01*
X103113409Y-51226513D01*
X103564815Y-51356696D01*
X104032946Y-51396313D01*
X104499811Y-51343842D01*
X104947468Y-51201297D01*
X105303927Y-51010766D01*
X105490003Y-50669609D01*
X104000000Y-49179605D01*
X102509997Y-50669609D01*
X100710000Y-50669609D01*
X100710000Y-49034721D01*
X100710174Y-49032946D01*
X101603687Y-49032946D01*
X101656158Y-49499811D01*
X101798703Y-49947468D01*
X101989234Y-50303927D01*
X102330391Y-50490003D01*
X103820395Y-49000000D01*
X104179605Y-49000000D01*
X105669609Y-50490003D01*
X106010766Y-50303927D01*
X106226513Y-49886591D01*
X106356696Y-49435185D01*
X106396313Y-48967054D01*
X106343842Y-48500189D01*
X106296019Y-48350000D01*
X116281928Y-48350000D01*
X116294188Y-48474482D01*
X116330498Y-48594180D01*
X116389463Y-48704494D01*
X116468815Y-48801185D01*
X116565506Y-48880537D01*
X116675820Y-48939502D01*
X116748380Y-48961513D01*
X116616525Y-49093368D01*
X116454010Y-49336589D01*
X116342068Y-49606842D01*
X116285000Y-49893740D01*
X116285000Y-50186260D01*
X116342068Y-50473158D01*
X116454010Y-50743411D01*
X116616525Y-50986632D01*
X116823368Y-51193475D01*
X117066589Y-51355990D01*
X117336842Y-51467932D01*
X117623740Y-51525000D01*
X117916260Y-51525000D01*
X118203158Y-51467932D01*
X118473411Y-51355990D01*
X118716632Y-51193475D01*
X118923475Y-50986632D01*
X119050001Y-50797273D01*
X119050000Y-51933995D01*
X119032795Y-51959744D01*
X118954774Y-52148102D01*
X118915000Y-52348061D01*
X118915000Y-52551939D01*
X118954774Y-52751898D01*
X119032795Y-52940256D01*
X119146063Y-53109774D01*
X119290226Y-53253937D01*
X119459744Y-53367205D01*
X119648102Y-53445226D01*
X119848061Y-53485000D01*
X120051939Y-53485000D01*
X120251898Y-53445226D01*
X120440256Y-53367205D01*
X120609774Y-53253937D01*
X120753937Y-53109774D01*
X120867205Y-52940256D01*
X120945226Y-52751898D01*
X120985000Y-52551939D01*
X120985000Y-52348061D01*
X120945226Y-52148102D01*
X120867205Y-51959744D01*
X120850000Y-51933995D01*
X120850000Y-50316005D01*
X120867205Y-50290256D01*
X120945226Y-50101898D01*
X120985000Y-49901939D01*
X120985000Y-49698061D01*
X120945226Y-49498102D01*
X120867205Y-49309744D01*
X120753937Y-49140226D01*
X120609774Y-48996063D01*
X120440256Y-48882795D01*
X120251898Y-48804774D01*
X120051939Y-48765000D01*
X119848061Y-48765000D01*
X119648102Y-48804774D01*
X119459744Y-48882795D01*
X119290226Y-48996063D01*
X119146063Y-49140226D01*
X119050424Y-49283360D01*
X118923475Y-49093368D01*
X118791620Y-48961513D01*
X118864180Y-48939502D01*
X118974494Y-48880537D01*
X119071185Y-48801185D01*
X119150537Y-48704494D01*
X119209502Y-48594180D01*
X119245812Y-48474482D01*
X119258072Y-48350000D01*
X119255000Y-47785750D01*
X119096250Y-47627000D01*
X117897000Y-47627000D01*
X117897000Y-47647000D01*
X117643000Y-47647000D01*
X117643000Y-47627000D01*
X116443750Y-47627000D01*
X116285000Y-47785750D01*
X116281928Y-48350000D01*
X106296019Y-48350000D01*
X106201297Y-48052532D01*
X106010766Y-47696073D01*
X105669609Y-47509997D01*
X104179605Y-49000000D01*
X103820395Y-49000000D01*
X102330391Y-47509997D01*
X101989234Y-47696073D01*
X101773487Y-48113409D01*
X101643304Y-48564815D01*
X101603687Y-49032946D01*
X100710174Y-49032946D01*
X100775998Y-48361630D01*
X100961392Y-47747576D01*
X101183213Y-47330391D01*
X102509997Y-47330391D01*
X104000000Y-48820395D01*
X105490003Y-47330391D01*
X105303927Y-46989234D01*
X104886591Y-46773487D01*
X104458404Y-46650000D01*
X116281928Y-46650000D01*
X116285000Y-47214250D01*
X116443750Y-47373000D01*
X117643000Y-47373000D01*
X117643000Y-46173750D01*
X117897000Y-46173750D01*
X117897000Y-47373000D01*
X119096250Y-47373000D01*
X119255000Y-47214250D01*
X119258072Y-46650000D01*
X119245812Y-46525518D01*
X119209502Y-46405820D01*
X119150537Y-46295506D01*
X119071185Y-46198815D01*
X118974494Y-46119463D01*
X118864180Y-46060498D01*
X118744482Y-46024188D01*
X118620000Y-46011928D01*
X118055750Y-46015000D01*
X117897000Y-46173750D01*
X117643000Y-46173750D01*
X117484250Y-46015000D01*
X116920000Y-46011928D01*
X116795518Y-46024188D01*
X116675820Y-46060498D01*
X116565506Y-46119463D01*
X116468815Y-46198815D01*
X116389463Y-46295506D01*
X116330498Y-46405820D01*
X116294188Y-46525518D01*
X116281928Y-46650000D01*
X104458404Y-46650000D01*
X104435185Y-46643304D01*
X103967054Y-46603687D01*
X103500189Y-46656158D01*
X103052532Y-46798703D01*
X102696073Y-46989234D01*
X102509997Y-47330391D01*
X101183213Y-47330391D01*
X101262525Y-47181227D01*
X101667928Y-46684152D01*
X102162159Y-46275288D01*
X102726389Y-45970210D01*
X103339137Y-45780533D01*
X104010204Y-45710000D01*
X137341196Y-45710000D01*
X137216378Y-45776716D01*
G37*
X137216378Y-45776716D02*
X137043552Y-45918551D01*
X136901717Y-46091377D01*
X136796324Y-46288553D01*
X136731423Y-46502501D01*
X136715000Y-46669248D01*
X136715000Y-47330751D01*
X136731423Y-47497498D01*
X136796324Y-47711446D01*
X136901716Y-47908623D01*
X137043551Y-48081449D01*
X137216377Y-48223284D01*
X137413553Y-48328676D01*
X137627501Y-48393577D01*
X137850000Y-48415491D01*
X138072498Y-48393577D01*
X138286446Y-48328676D01*
X138483623Y-48223284D01*
X138656449Y-48081449D01*
X138798284Y-47908623D01*
X138903676Y-47711447D01*
X138968577Y-47497499D01*
X138985000Y-47330752D01*
X138985000Y-46669249D01*
X138968577Y-46502502D01*
X138903676Y-46288554D01*
X138798284Y-46091377D01*
X138656449Y-45918551D01*
X138483623Y-45776716D01*
X138358805Y-45710000D01*
X144341196Y-45710000D01*
X144216378Y-45776716D01*
X144043552Y-45918551D01*
X143901717Y-46091377D01*
X143796324Y-46288553D01*
X143731423Y-46502501D01*
X143715000Y-46669248D01*
X143715000Y-47330751D01*
X143731423Y-47497498D01*
X143796324Y-47711446D01*
X143901716Y-47908623D01*
X144043551Y-48081449D01*
X144216377Y-48223284D01*
X144413553Y-48328676D01*
X144627501Y-48393577D01*
X144850000Y-48415491D01*
X145072498Y-48393577D01*
X145286446Y-48328676D01*
X145483623Y-48223284D01*
X145656449Y-48081449D01*
X145798284Y-47908623D01*
X145903676Y-47711447D01*
X145968577Y-47497499D01*
X145985000Y-47330752D01*
X145985000Y-47320391D01*
X159519997Y-47320391D01*
X161010000Y-48810395D01*
X162500003Y-47320391D01*
X162313927Y-46979234D01*
X161896591Y-46763487D01*
X161445185Y-46633304D01*
X160977054Y-46593687D01*
X160510189Y-46646158D01*
X160062532Y-46788703D01*
X159706073Y-46979234D01*
X159519997Y-47320391D01*
X145985000Y-47320391D01*
X145985000Y-46669249D01*
X145968577Y-46502502D01*
X145903676Y-46288554D01*
X145798284Y-46091377D01*
X145656449Y-45918551D01*
X145483623Y-45776716D01*
X145358805Y-45710000D01*
X160897622Y-45710000D01*
X161608252Y-45919284D01*
X162305469Y-46268574D01*
X162929811Y-46735812D01*
X163461543Y-47306221D01*
X163883864Y-47961785D01*
X164188235Y-48693348D01*
X164290000Y-49089697D01*
X164290001Y-85467210D01*
X164047658Y-85224866D01*
X164019475Y-85190525D01*
X163882432Y-85078057D01*
X163726081Y-84994486D01*
X163556431Y-84943023D01*
X163424207Y-84930000D01*
X163424206Y-84930000D01*
X163380000Y-84925646D01*
X163335794Y-84930000D01*
X163124633Y-84930000D01*
X163093475Y-84883368D01*
X162886632Y-84676525D01*
X162840000Y-84645367D01*
X162840000Y-84474633D01*
X162886632Y-84443475D01*
X163093475Y-84236632D01*
X163255990Y-83993411D01*
X163367932Y-83723158D01*
X163425000Y-83436260D01*
X163425000Y-83143740D01*
X163367932Y-82856842D01*
X163255990Y-82586589D01*
X163093475Y-82343368D01*
X162886632Y-82136525D01*
X162712240Y-82020000D01*
X162886632Y-81903475D01*
X163093475Y-81696632D01*
X163255990Y-81453411D01*
X163367932Y-81183158D01*
X163425000Y-80896260D01*
X163425000Y-80603740D01*
X163367932Y-80316842D01*
X163255990Y-80046589D01*
X163093475Y-79803368D01*
X162886632Y-79596525D01*
X162643411Y-79434010D01*
X162373158Y-79322068D01*
X162086260Y-79265000D01*
X161793740Y-79265000D01*
X161506842Y-79322068D01*
X161236589Y-79434010D01*
X160993368Y-79596525D01*
X160861513Y-79728380D01*
X160839502Y-79655820D01*
X160780537Y-79545506D01*
X160701185Y-79448815D01*
X160604494Y-79369463D01*
X160494180Y-79310498D01*
X160374482Y-79274188D01*
X160250000Y-79261928D01*
X158550000Y-79261928D01*
X158425518Y-79274188D01*
X158305820Y-79310498D01*
X158195506Y-79369463D01*
X158098815Y-79448815D01*
X158019463Y-79545506D01*
X157960498Y-79655820D01*
X157924188Y-79775518D01*
X157911928Y-79900000D01*
X157911928Y-81600000D01*
X157924188Y-81724482D01*
X157960498Y-81844180D01*
X158019463Y-81954494D01*
X158098815Y-82051185D01*
X158195506Y-82130537D01*
X158305820Y-82189502D01*
X158378380Y-82211513D01*
X158246525Y-82343368D01*
X158084010Y-82586589D01*
X157972068Y-82856842D01*
X157915000Y-83143740D01*
X157915000Y-83436260D01*
X157972068Y-83723158D01*
X158084010Y-83993411D01*
X158246525Y-84236632D01*
X158453368Y-84443475D01*
X158627760Y-84560000D01*
X158453368Y-84676525D01*
X158246525Y-84883368D01*
X158084010Y-85126589D01*
X157972068Y-85396842D01*
X157915000Y-85683740D01*
X157915000Y-85976260D01*
X157972068Y-86263158D01*
X158084010Y-86533411D01*
X158246525Y-86776632D01*
X158453368Y-86983475D01*
X158627760Y-87100000D01*
X158453368Y-87216525D01*
X158246525Y-87423368D01*
X158084010Y-87666589D01*
X157972068Y-87936842D01*
X157915000Y-88223740D01*
X157915000Y-88516260D01*
X157972068Y-88803158D01*
X158084010Y-89073411D01*
X158246525Y-89316632D01*
X158429893Y-89500000D01*
X157572793Y-89500000D01*
X156467657Y-88394865D01*
X156439475Y-88360525D01*
X156302432Y-88248057D01*
X156146081Y-88164486D01*
X155976431Y-88113023D01*
X155844207Y-88100000D01*
X155844206Y-88100000D01*
X155800000Y-88095646D01*
X155755794Y-88100000D01*
X146940694Y-88100000D01*
X146947205Y-88090256D01*
X147025226Y-87901898D01*
X147048478Y-87785000D01*
X147101939Y-87785000D01*
X147301898Y-87745226D01*
X147490256Y-87667205D01*
X147659774Y-87553937D01*
X147803937Y-87409774D01*
X147882315Y-87292472D01*
X148117653Y-87527810D01*
X148142236Y-87557764D01*
X148261767Y-87655862D01*
X148372408Y-87715000D01*
X148398140Y-87728754D01*
X148546113Y-87773642D01*
X148621026Y-87781020D01*
X148661439Y-87785000D01*
X148661444Y-87785000D01*
X148700000Y-87788797D01*
X148738556Y-87785000D01*
X150961447Y-87785000D01*
X151000000Y-87788797D01*
X151038553Y-87785000D01*
X151038561Y-87785000D01*
X151153887Y-87773641D01*
X151301860Y-87728754D01*
X151438233Y-87655862D01*
X151557764Y-87557764D01*
X151582346Y-87527811D01*
X152127816Y-86982342D01*
X152157764Y-86957764D01*
X152255862Y-86838233D01*
X152328754Y-86701860D01*
X152360832Y-86596113D01*
X152373641Y-86553888D01*
X152375658Y-86533411D01*
X152381108Y-86478072D01*
X152450000Y-86478072D01*
X152574482Y-86465812D01*
X152694180Y-86429502D01*
X152804494Y-86370537D01*
X152901185Y-86291185D01*
X152980537Y-86194494D01*
X153039502Y-86084180D01*
X153075812Y-85964482D01*
X153088072Y-85840000D01*
X153088072Y-84140000D01*
X153075812Y-84015518D01*
X153039502Y-83895820D01*
X152980537Y-83785506D01*
X152901185Y-83688815D01*
X152804494Y-83609463D01*
X152694180Y-83550498D01*
X152621620Y-83528487D01*
X152753475Y-83396632D01*
X152915990Y-83153411D01*
X153027932Y-82883158D01*
X153085000Y-82596260D01*
X153085000Y-82303740D01*
X153074058Y-82248734D01*
X153922792Y-81400000D01*
X155505794Y-81400000D01*
X155550000Y-81404354D01*
X155594206Y-81400000D01*
X155594207Y-81400000D01*
X155726431Y-81386977D01*
X155896081Y-81335514D01*
X156052432Y-81251943D01*
X156189475Y-81139475D01*
X156217657Y-81105135D01*
X158222793Y-79100000D01*
X160805794Y-79100000D01*
X160850000Y-79104354D01*
X160894206Y-79100000D01*
X160894207Y-79100000D01*
X161026431Y-79086977D01*
X161196081Y-79035514D01*
X161352432Y-78951943D01*
X161489475Y-78839475D01*
X161517657Y-78805135D01*
X162545136Y-77777656D01*
X162579475Y-77749475D01*
X162691943Y-77612432D01*
X162775514Y-77456081D01*
X162826977Y-77286431D01*
X162840000Y-77154207D01*
X162840000Y-77154206D01*
X162844354Y-77110000D01*
X162840000Y-77065793D01*
X162840000Y-76984633D01*
X162886632Y-76953475D01*
X163093475Y-76746632D01*
X163255990Y-76503411D01*
X163367932Y-76233158D01*
X163425000Y-75946260D01*
X163425000Y-75653740D01*
X163367932Y-75366842D01*
X163255990Y-75096589D01*
X163093475Y-74853368D01*
X162886632Y-74646525D01*
X162704466Y-74524805D01*
X162821355Y-74455178D01*
X163037588Y-74260269D01*
X163211641Y-74026920D01*
X163336825Y-73764099D01*
X163381476Y-73616890D01*
X163260155Y-73387000D01*
X162067000Y-73387000D01*
X162067000Y-73407000D01*
X161813000Y-73407000D01*
X161813000Y-73387000D01*
X161793000Y-73387000D01*
X161793000Y-73133000D01*
X161813000Y-73133000D01*
X161813000Y-70847000D01*
X162067000Y-70847000D01*
X162067000Y-73133000D01*
X163260155Y-73133000D01*
X163381476Y-72903110D01*
X163336825Y-72755901D01*
X163211641Y-72493080D01*
X163037588Y-72259731D01*
X162821355Y-72064822D01*
X162695745Y-71990000D01*
X162821355Y-71915178D01*
X163037588Y-71720269D01*
X163211641Y-71486920D01*
X163336825Y-71224099D01*
X163381476Y-71076890D01*
X163260155Y-70847000D01*
X162067000Y-70847000D01*
X161813000Y-70847000D01*
X161793000Y-70847000D01*
X161793000Y-70593000D01*
X161813000Y-70593000D01*
X161813000Y-68307000D01*
X162067000Y-68307000D01*
X162067000Y-70593000D01*
X163260155Y-70593000D01*
X163381476Y-70363110D01*
X163336825Y-70215901D01*
X163211641Y-69953080D01*
X163037588Y-69719731D01*
X162821355Y-69524822D01*
X162695745Y-69450000D01*
X162821355Y-69375178D01*
X163037588Y-69180269D01*
X163211641Y-68946920D01*
X163336825Y-68684099D01*
X163381476Y-68536890D01*
X163260155Y-68307000D01*
X162067000Y-68307000D01*
X161813000Y-68307000D01*
X161793000Y-68307000D01*
X161793000Y-68053000D01*
X161813000Y-68053000D01*
X161813000Y-65767000D01*
X162067000Y-65767000D01*
X162067000Y-68053000D01*
X163260155Y-68053000D01*
X163381476Y-67823110D01*
X163336825Y-67675901D01*
X163211641Y-67413080D01*
X163037588Y-67179731D01*
X162821355Y-66984822D01*
X162695745Y-66910000D01*
X162821355Y-66835178D01*
X163037588Y-66640269D01*
X163211641Y-66406920D01*
X163336825Y-66144099D01*
X163381476Y-65996890D01*
X163260155Y-65767000D01*
X162067000Y-65767000D01*
X161813000Y-65767000D01*
X161793000Y-65767000D01*
X161793000Y-65513000D01*
X161813000Y-65513000D01*
X161813000Y-63227000D01*
X162067000Y-63227000D01*
X162067000Y-65513000D01*
X163260155Y-65513000D01*
X163381476Y-65283110D01*
X163336825Y-65135901D01*
X163211641Y-64873080D01*
X163037588Y-64639731D01*
X162821355Y-64444822D01*
X162695745Y-64370000D01*
X162821355Y-64295178D01*
X163037588Y-64100269D01*
X163211641Y-63866920D01*
X163336825Y-63604099D01*
X163381476Y-63456890D01*
X163260155Y-63227000D01*
X162067000Y-63227000D01*
X161813000Y-63227000D01*
X161793000Y-63227000D01*
X161793000Y-62973000D01*
X161813000Y-62973000D01*
X161813000Y-61779186D01*
X162067000Y-61779186D01*
X162067000Y-62973000D01*
X163260155Y-62973000D01*
X163381476Y-62743110D01*
X163336825Y-62595901D01*
X163211641Y-62333080D01*
X163037588Y-62099731D01*
X162821355Y-61904822D01*
X162571252Y-61755843D01*
X162296891Y-61658519D01*
X162067000Y-61779186D01*
X161813000Y-61779186D01*
X161583109Y-61658519D01*
X161308748Y-61755843D01*
X161058645Y-61904822D01*
X160862498Y-62081626D01*
X160839502Y-62005820D01*
X160780537Y-61895506D01*
X160701185Y-61798815D01*
X160604494Y-61719463D01*
X160494180Y-61660498D01*
X160374482Y-61624188D01*
X160250000Y-61611928D01*
X158550000Y-61611928D01*
X158425518Y-61624188D01*
X158305820Y-61660498D01*
X158195506Y-61719463D01*
X158098815Y-61798815D01*
X158019463Y-61895506D01*
X157960498Y-62005820D01*
X157924188Y-62125518D01*
X157911928Y-62250000D01*
X157911928Y-63950000D01*
X157924188Y-64074482D01*
X157960498Y-64194180D01*
X158019463Y-64304494D01*
X158098815Y-64401185D01*
X158195506Y-64480537D01*
X158305820Y-64539502D01*
X158378380Y-64561513D01*
X158246525Y-64693368D01*
X158084010Y-64936589D01*
X157972068Y-65206842D01*
X157915000Y-65493740D01*
X157915000Y-65786260D01*
X157972068Y-66073158D01*
X158084010Y-66343411D01*
X158246525Y-66586632D01*
X158453368Y-66793475D01*
X158627760Y-66910000D01*
X158453368Y-67026525D01*
X158246525Y-67233368D01*
X158084010Y-67476589D01*
X157972068Y-67746842D01*
X157915000Y-68033740D01*
X157915000Y-68326260D01*
X157972068Y-68613158D01*
X158084010Y-68883411D01*
X158246525Y-69126632D01*
X158453368Y-69333475D01*
X158627760Y-69450000D01*
X158453368Y-69566525D01*
X158246525Y-69773368D01*
X158084010Y-70016589D01*
X157972068Y-70286842D01*
X157915000Y-70573740D01*
X157915000Y-70866260D01*
X157972068Y-71153158D01*
X158084010Y-71423411D01*
X158246525Y-71666632D01*
X158453368Y-71873475D01*
X158627760Y-71990000D01*
X158453368Y-72106525D01*
X158246525Y-72313368D01*
X158084010Y-72556589D01*
X157972068Y-72826842D01*
X157935000Y-73013194D01*
X157935000Y-72728711D01*
X157953937Y-72709774D01*
X158067205Y-72540256D01*
X158145226Y-72351898D01*
X158185000Y-72151939D01*
X158185000Y-71948061D01*
X158145226Y-71748102D01*
X158067205Y-71559744D01*
X157953937Y-71390226D01*
X157809774Y-71246063D01*
X157640256Y-71132795D01*
X157451898Y-71054774D01*
X157251939Y-71015000D01*
X157048061Y-71015000D01*
X156848102Y-71054774D01*
X156659744Y-71132795D01*
X156490226Y-71246063D01*
X156346063Y-71390226D01*
X156232795Y-71559744D01*
X156154774Y-71748102D01*
X156115000Y-71948061D01*
X156115000Y-72151939D01*
X156154774Y-72351898D01*
X156232795Y-72540256D01*
X156346063Y-72709774D01*
X156365001Y-72728712D01*
X156365000Y-74713528D01*
X156361203Y-74752081D01*
X156365000Y-74790634D01*
X156365000Y-74790641D01*
X156376359Y-74905967D01*
X156421246Y-75053940D01*
X156494138Y-75190313D01*
X156592236Y-75309845D01*
X156622190Y-75334428D01*
X157615576Y-76327815D01*
X157640155Y-76357764D01*
X157670103Y-76382342D01*
X157670106Y-76382345D01*
X157699478Y-76406450D01*
X157759686Y-76455862D01*
X157896059Y-76528754D01*
X158009591Y-76563194D01*
X158044031Y-76573641D01*
X158058409Y-76575057D01*
X158137058Y-76582804D01*
X158246525Y-76746632D01*
X158453368Y-76953475D01*
X158696589Y-77115990D01*
X158966842Y-77227932D01*
X159253740Y-77285000D01*
X159546260Y-77285000D01*
X159833158Y-77227932D01*
X160103411Y-77115990D01*
X160346632Y-76953475D01*
X160553475Y-76746632D01*
X160670000Y-76572240D01*
X160786525Y-76746632D01*
X160908551Y-76868658D01*
X160477208Y-77300000D01*
X157894203Y-77300000D01*
X157849999Y-77295646D01*
X157805795Y-77300000D01*
X157805793Y-77300000D01*
X157673569Y-77313023D01*
X157503919Y-77364486D01*
X157347568Y-77448057D01*
X157335740Y-77457764D01*
X157244862Y-77532345D01*
X157244860Y-77532347D01*
X157210525Y-77560525D01*
X157182347Y-77594860D01*
X155177208Y-79600000D01*
X154450000Y-79600000D01*
X154450000Y-65744207D01*
X154454354Y-65700000D01*
X154450000Y-65655793D01*
X154450000Y-56644207D01*
X154454354Y-56600000D01*
X154436977Y-56423569D01*
X154385514Y-56253918D01*
X154301943Y-56097568D01*
X154269277Y-56057764D01*
X154189475Y-55960525D01*
X154155135Y-55932343D01*
X153357655Y-55134863D01*
X153329475Y-55100525D01*
X153192432Y-54988057D01*
X153036081Y-54904486D01*
X152866431Y-54853023D01*
X152734207Y-54840000D01*
X152734206Y-54840000D01*
X152690000Y-54835646D01*
X152645794Y-54840000D01*
X151962792Y-54840000D01*
X151317657Y-54194865D01*
X151289475Y-54160525D01*
X151152432Y-54048057D01*
X150996081Y-53964486D01*
X150826431Y-53913023D01*
X150694207Y-53900000D01*
X150694206Y-53900000D01*
X150650000Y-53895646D01*
X150605794Y-53900000D01*
X146959888Y-53900000D01*
X146915684Y-53895646D01*
X146871480Y-53900000D01*
X146871478Y-53900000D01*
X146739254Y-53913023D01*
X146569604Y-53964486D01*
X146413253Y-54048057D01*
X146413251Y-54048058D01*
X146413252Y-54048058D01*
X146310547Y-54132345D01*
X146310545Y-54132347D01*
X146276210Y-54160525D01*
X146248032Y-54194860D01*
X142940405Y-57502488D01*
X142751939Y-57465000D01*
X142548061Y-57465000D01*
X142348102Y-57504774D01*
X142159744Y-57582795D01*
X141990226Y-57696063D01*
X141846063Y-57840226D01*
X141732795Y-58009744D01*
X141654774Y-58198102D01*
X141615000Y-58398061D01*
X141615000Y-58601939D01*
X141654774Y-58801898D01*
X141732795Y-58990256D01*
X141846063Y-59159774D01*
X141990226Y-59303937D01*
X142156444Y-59415000D01*
X137188552Y-59415000D01*
X137149999Y-59411203D01*
X137111446Y-59415000D01*
X137111439Y-59415000D01*
X137010490Y-59424943D01*
X136996112Y-59426359D01*
X136961672Y-59436806D01*
X136848140Y-59471246D01*
X136711767Y-59544138D01*
X136658150Y-59588141D01*
X136622187Y-59617655D01*
X136622184Y-59617658D01*
X136592236Y-59642236D01*
X136567658Y-59672184D01*
X134374843Y-61865000D01*
X126938556Y-61865000D01*
X126900000Y-61861203D01*
X126861444Y-61865000D01*
X126861439Y-61865000D01*
X126821026Y-61868980D01*
X126746113Y-61876358D01*
X126598140Y-61921246D01*
X126461767Y-61994138D01*
X126342236Y-62092236D01*
X126317655Y-62122188D01*
X125410745Y-63029098D01*
X125478755Y-62901859D01*
X125497885Y-62838797D01*
X125523642Y-62753887D01*
X125529332Y-62696113D01*
X125535001Y-62638560D01*
X125535001Y-62638553D01*
X125538798Y-62600000D01*
X125535001Y-62561447D01*
X125535001Y-60460803D01*
X125640256Y-60417205D01*
X125809774Y-60303937D01*
X125953937Y-60159774D01*
X126067205Y-59990256D01*
X126145226Y-59801898D01*
X126185000Y-59601939D01*
X126185000Y-59398061D01*
X126145226Y-59198102D01*
X126067205Y-59009744D01*
X125953937Y-58840226D01*
X125809774Y-58696063D01*
X125640256Y-58582795D01*
X125451898Y-58504774D01*
X125251939Y-58465000D01*
X125048061Y-58465000D01*
X124848102Y-58504774D01*
X124659744Y-58582795D01*
X124490226Y-58696063D01*
X124346063Y-58840226D01*
X124232795Y-59009744D01*
X124154774Y-59198102D01*
X124115000Y-59398061D01*
X124115000Y-59436348D01*
X124094139Y-59461767D01*
X124021247Y-59598140D01*
X123976360Y-59746113D01*
X123965001Y-59861439D01*
X123965001Y-59861446D01*
X123961204Y-59899999D01*
X123965001Y-59938552D01*
X123965002Y-62274840D01*
X119724843Y-66515000D01*
X118388555Y-66515000D01*
X118350000Y-66511203D01*
X118311444Y-66515000D01*
X118311439Y-66515000D01*
X118271026Y-66518980D01*
X118196113Y-66526358D01*
X118048140Y-66571246D01*
X117911767Y-66644138D01*
X117865345Y-66682236D01*
X117822187Y-66717655D01*
X117822184Y-66717658D01*
X117792236Y-66742236D01*
X117767658Y-66772185D01*
X116572190Y-67967653D01*
X116542236Y-67992236D01*
X116444138Y-68111768D01*
X116371246Y-68248141D01*
X116326359Y-68396114D01*
X116315000Y-68511440D01*
X116315000Y-68511447D01*
X116311203Y-68550000D01*
X116315000Y-68588553D01*
X116315001Y-72411457D01*
X116311203Y-72450020D01*
X116326359Y-72603906D01*
X116371246Y-72751879D01*
X116400101Y-72805862D01*
X116444139Y-72888253D01*
X116457144Y-72904099D01*
X116517655Y-72977832D01*
X116517659Y-72977836D01*
X116542237Y-73007784D01*
X116572185Y-73032362D01*
X120767638Y-77227816D01*
X120792216Y-77257764D01*
X120822164Y-77282342D01*
X120822167Y-77282345D01*
X120843680Y-77300000D01*
X120911747Y-77355862D01*
X121048120Y-77428754D01*
X121159791Y-77462629D01*
X121196092Y-77473641D01*
X121210470Y-77475057D01*
X121311419Y-77485000D01*
X121311426Y-77485000D01*
X121349979Y-77488797D01*
X121388532Y-77485000D01*
X123821289Y-77485000D01*
X123840226Y-77503937D01*
X124009744Y-77617205D01*
X124198102Y-77695226D01*
X124398061Y-77735000D01*
X124601939Y-77735000D01*
X124801898Y-77695226D01*
X124990256Y-77617205D01*
X125159774Y-77503937D01*
X125303937Y-77359774D01*
X125417205Y-77190256D01*
X125495226Y-77001898D01*
X125535000Y-76801939D01*
X125535000Y-76598061D01*
X125495226Y-76398102D01*
X125417205Y-76209744D01*
X125303937Y-76040226D01*
X125159774Y-75896063D01*
X124990256Y-75782795D01*
X124801898Y-75704774D01*
X124601939Y-75665000D01*
X124398061Y-75665000D01*
X124198102Y-75704774D01*
X124009744Y-75782795D01*
X123840226Y-75896063D01*
X123821289Y-75915000D01*
X121675138Y-75915000D01*
X117885000Y-72124863D01*
X117885000Y-70845156D01*
X117967649Y-70927805D01*
X117992236Y-70957764D01*
X118111767Y-71055862D01*
X118248140Y-71128754D01*
X118396113Y-71173642D01*
X118471026Y-71181020D01*
X118511439Y-71185000D01*
X118511444Y-71185000D01*
X118550000Y-71188797D01*
X118588556Y-71185000D01*
X123971289Y-71185000D01*
X123990226Y-71203937D01*
X124159744Y-71317205D01*
X124348102Y-71395226D01*
X124548061Y-71435000D01*
X124751939Y-71435000D01*
X124951898Y-71395226D01*
X125140256Y-71317205D01*
X125309774Y-71203937D01*
X125453937Y-71059774D01*
X125567205Y-70890256D01*
X125593519Y-70826729D01*
X125751898Y-70795226D01*
X125940256Y-70717205D01*
X126109774Y-70603937D01*
X126136847Y-70576864D01*
X126169572Y-70573641D01*
X126317545Y-70528754D01*
X126453918Y-70455862D01*
X126573449Y-70357764D01*
X126598032Y-70327810D01*
X127577817Y-69348026D01*
X127607764Y-69323449D01*
X127633519Y-69292068D01*
X127656450Y-69264126D01*
X127705862Y-69203918D01*
X127778754Y-69067545D01*
X127823641Y-68919572D01*
X127835000Y-68804246D01*
X127835000Y-68804239D01*
X127838797Y-68765686D01*
X127835000Y-68727133D01*
X127835000Y-67525157D01*
X129025158Y-66335000D01*
X135351289Y-66335000D01*
X135296063Y-66390226D01*
X135182795Y-66559744D01*
X135104774Y-66748102D01*
X135065000Y-66948061D01*
X135065000Y-67151939D01*
X135104774Y-67351898D01*
X135182795Y-67540256D01*
X135296063Y-67709774D01*
X135315000Y-67728711D01*
X135315001Y-71785000D01*
X131978711Y-71785000D01*
X131959774Y-71766063D01*
X131790256Y-71652795D01*
X131601898Y-71574774D01*
X131401939Y-71535000D01*
X131198061Y-71535000D01*
X130998102Y-71574774D01*
X130809744Y-71652795D01*
X130640226Y-71766063D01*
X130496063Y-71910226D01*
X130382795Y-72079744D01*
X130304774Y-72268102D01*
X130270508Y-72440372D01*
X130198102Y-72454774D01*
X130009744Y-72532795D01*
X129840226Y-72646063D01*
X129696063Y-72790226D01*
X129582795Y-72959744D01*
X129504774Y-73148102D01*
X129465000Y-73348061D01*
X129465000Y-73551939D01*
X129504774Y-73751898D01*
X129582795Y-73940256D01*
X129696063Y-74109774D01*
X129840226Y-74253937D01*
X130009744Y-74367205D01*
X130198102Y-74445226D01*
X130398061Y-74485000D01*
X130424843Y-74485000D01*
X132017658Y-76077816D01*
X132042236Y-76107764D01*
X132072184Y-76132342D01*
X132072187Y-76132345D01*
X132089753Y-76146761D01*
X132161767Y-76205862D01*
X132298140Y-76278754D01*
X132411672Y-76313194D01*
X132446112Y-76323641D01*
X132460490Y-76325057D01*
X132561439Y-76335000D01*
X132561446Y-76335000D01*
X132599999Y-76338797D01*
X132638552Y-76335000D01*
X135621289Y-76335000D01*
X135640226Y-76353937D01*
X135809744Y-76467205D01*
X135998102Y-76545226D01*
X136198061Y-76585000D01*
X136401939Y-76585000D01*
X136601898Y-76545226D01*
X136790256Y-76467205D01*
X136959774Y-76353937D01*
X137103937Y-76209774D01*
X137217205Y-76040256D01*
X137295226Y-75851898D01*
X137335000Y-75651939D01*
X137335000Y-75585000D01*
X137451939Y-75585000D01*
X137651898Y-75545226D01*
X137840256Y-75467205D01*
X138009774Y-75353937D01*
X138101777Y-75261934D01*
X139413483Y-76573641D01*
X139815000Y-76975158D01*
X139815000Y-77001939D01*
X139854774Y-77201898D01*
X139932795Y-77390256D01*
X140046063Y-77559774D01*
X140190226Y-77703937D01*
X140359744Y-77817205D01*
X140548102Y-77895226D01*
X140748061Y-77935000D01*
X140951939Y-77935000D01*
X141151898Y-77895226D01*
X141340256Y-77817205D01*
X141509774Y-77703937D01*
X141653937Y-77559774D01*
X141767205Y-77390256D01*
X141845226Y-77201898D01*
X141885000Y-77001939D01*
X141885000Y-76798061D01*
X141845226Y-76598102D01*
X141767205Y-76409744D01*
X141653937Y-76240226D01*
X141509774Y-76096063D01*
X141340256Y-75982795D01*
X141151898Y-75904774D01*
X140951939Y-75865000D01*
X140925158Y-75865000D01*
X140527363Y-75467205D01*
X136885000Y-71824843D01*
X136885000Y-71550000D01*
X147561928Y-71550000D01*
X147561928Y-73250000D01*
X147574188Y-73374482D01*
X147610498Y-73494180D01*
X147669463Y-73604494D01*
X147748815Y-73701185D01*
X147845506Y-73780537D01*
X147955820Y-73839502D01*
X148028380Y-73861513D01*
X147896525Y-73993368D01*
X147734010Y-74236589D01*
X147622068Y-74506842D01*
X147565000Y-74793740D01*
X147565000Y-75086260D01*
X147622068Y-75373158D01*
X147734010Y-75643411D01*
X147896525Y-75886632D01*
X148103368Y-76093475D01*
X148277760Y-76210000D01*
X148103368Y-76326525D01*
X147896525Y-76533368D01*
X147734010Y-76776589D01*
X147622068Y-77046842D01*
X147565000Y-77333740D01*
X147565000Y-77626260D01*
X147622068Y-77913158D01*
X147734010Y-78183411D01*
X147896525Y-78426632D01*
X148103368Y-78633475D01*
X148346589Y-78795990D01*
X148616842Y-78907932D01*
X148903740Y-78965000D01*
X149196260Y-78965000D01*
X149483158Y-78907932D01*
X149753411Y-78795990D01*
X149996632Y-78633475D01*
X150203475Y-78426632D01*
X150321100Y-78250594D01*
X150492412Y-78480269D01*
X150708645Y-78675178D01*
X150958748Y-78824157D01*
X151233109Y-78921481D01*
X151463000Y-78800814D01*
X151463000Y-77607000D01*
X151443000Y-77607000D01*
X151443000Y-77353000D01*
X151463000Y-77353000D01*
X151463000Y-75067000D01*
X151443000Y-75067000D01*
X151443000Y-74813000D01*
X151463000Y-74813000D01*
X151463000Y-72527000D01*
X151443000Y-72527000D01*
X151443000Y-72273000D01*
X151463000Y-72273000D01*
X151463000Y-71079186D01*
X151233109Y-70958519D01*
X150958748Y-71055843D01*
X150708645Y-71204822D01*
X150512498Y-71381626D01*
X150489502Y-71305820D01*
X150430537Y-71195506D01*
X150351185Y-71098815D01*
X150254494Y-71019463D01*
X150144180Y-70960498D01*
X150024482Y-70924188D01*
X149900000Y-70911928D01*
X148200000Y-70911928D01*
X148075518Y-70924188D01*
X147955820Y-70960498D01*
X147845506Y-71019463D01*
X147748815Y-71098815D01*
X147669463Y-71195506D01*
X147610498Y-71305820D01*
X147574188Y-71425518D01*
X147561928Y-71550000D01*
X136885000Y-71550000D01*
X136885000Y-67728711D01*
X136903937Y-67709774D01*
X137017205Y-67540256D01*
X137095226Y-67351898D01*
X137135000Y-67151939D01*
X137135000Y-66948061D01*
X137095226Y-66748102D01*
X137017205Y-66559744D01*
X136903937Y-66390226D01*
X136760905Y-66247194D01*
X136838233Y-66205862D01*
X136957764Y-66107764D01*
X136982347Y-66077810D01*
X139425157Y-63635000D01*
X142104842Y-63635000D01*
X141222190Y-64517653D01*
X141192236Y-64542236D01*
X141094138Y-64661768D01*
X141021246Y-64798141D01*
X140976359Y-64946114D01*
X140965000Y-65061440D01*
X140965000Y-65061447D01*
X140961203Y-65100000D01*
X140965000Y-65138553D01*
X140965001Y-68921288D01*
X140946063Y-68940226D01*
X140832795Y-69109744D01*
X140754774Y-69298102D01*
X140715000Y-69498061D01*
X140715000Y-69701939D01*
X140754774Y-69901898D01*
X140832795Y-70090256D01*
X140946063Y-70259774D01*
X141090226Y-70403937D01*
X141259744Y-70517205D01*
X141448102Y-70595226D01*
X141648061Y-70635000D01*
X141851939Y-70635000D01*
X142051898Y-70595226D01*
X142240256Y-70517205D01*
X142409774Y-70403937D01*
X142553937Y-70259774D01*
X142667205Y-70090256D01*
X142734170Y-69928589D01*
X142901898Y-69895226D01*
X143090256Y-69817205D01*
X143259774Y-69703937D01*
X143403937Y-69559774D01*
X143517205Y-69390256D01*
X143595226Y-69201898D01*
X143635000Y-69001939D01*
X143635000Y-68798061D01*
X143595226Y-68598102D01*
X143517205Y-68409744D01*
X143403937Y-68240226D01*
X143385000Y-68221289D01*
X143385000Y-66525157D01*
X143932345Y-65977813D01*
X143932349Y-65977808D01*
X144532345Y-65377813D01*
X145003844Y-64906314D01*
X145148061Y-64935000D01*
X145351939Y-64935000D01*
X145551898Y-64895226D01*
X145740256Y-64817205D01*
X145909774Y-64703937D01*
X146053937Y-64559774D01*
X146167205Y-64390256D01*
X146245226Y-64201898D01*
X146285000Y-64001939D01*
X146285000Y-63798061D01*
X146252565Y-63635000D01*
X146845762Y-63635000D01*
X146884315Y-63638797D01*
X146922868Y-63635000D01*
X146922876Y-63635000D01*
X147038202Y-63623641D01*
X147186175Y-63578754D01*
X147322548Y-63505862D01*
X147442079Y-63407764D01*
X147466662Y-63377811D01*
X147742845Y-63101627D01*
X147848102Y-63145226D01*
X148048061Y-63185000D01*
X148251939Y-63185000D01*
X148451898Y-63145226D01*
X148640256Y-63067205D01*
X148809774Y-62953937D01*
X148953937Y-62809774D01*
X149067205Y-62640256D01*
X149145226Y-62451898D01*
X149185000Y-62251939D01*
X149185000Y-62048061D01*
X149145226Y-61848102D01*
X149067205Y-61659744D01*
X148953937Y-61490226D01*
X148822564Y-61358853D01*
X148903740Y-61375000D01*
X149196260Y-61375000D01*
X149483158Y-61317932D01*
X149753411Y-61205990D01*
X149996632Y-61043475D01*
X150203475Y-60836632D01*
X150321100Y-60660594D01*
X150492412Y-60890269D01*
X150708645Y-61085178D01*
X150958748Y-61234157D01*
X151233109Y-61331481D01*
X151463000Y-61210814D01*
X151463000Y-60017000D01*
X151443000Y-60017000D01*
X151443000Y-59763000D01*
X151463000Y-59763000D01*
X151463000Y-59743000D01*
X151717000Y-59743000D01*
X151717000Y-59763000D01*
X151737000Y-59763000D01*
X151737000Y-60017000D01*
X151717000Y-60017000D01*
X151717000Y-61210814D01*
X151946891Y-61331481D01*
X152221252Y-61234157D01*
X152471355Y-61085178D01*
X152650001Y-60924150D01*
X152650000Y-63809893D01*
X152536632Y-63696525D01*
X152293411Y-63534010D01*
X152023158Y-63422068D01*
X151736260Y-63365000D01*
X151443740Y-63365000D01*
X151156842Y-63422068D01*
X150886589Y-63534010D01*
X150643368Y-63696525D01*
X150511513Y-63828380D01*
X150489502Y-63755820D01*
X150430537Y-63645506D01*
X150351185Y-63548815D01*
X150254494Y-63469463D01*
X150144180Y-63410498D01*
X150024482Y-63374188D01*
X149900000Y-63361928D01*
X148200000Y-63361928D01*
X148075518Y-63374188D01*
X147955820Y-63410498D01*
X147845506Y-63469463D01*
X147748815Y-63548815D01*
X147669463Y-63645506D01*
X147610498Y-63755820D01*
X147574188Y-63875518D01*
X147561928Y-64000000D01*
X147561928Y-65700000D01*
X147574188Y-65824482D01*
X147610498Y-65944180D01*
X147669463Y-66054494D01*
X147748815Y-66151185D01*
X147845506Y-66230537D01*
X147955820Y-66289502D01*
X148028380Y-66311513D01*
X147896525Y-66443368D01*
X147734010Y-66686589D01*
X147622068Y-66956842D01*
X147565000Y-67243740D01*
X147565000Y-67536260D01*
X147622068Y-67823158D01*
X147734010Y-68093411D01*
X147896525Y-68336632D01*
X148103368Y-68543475D01*
X148346589Y-68705990D01*
X148616842Y-68817932D01*
X148903740Y-68875000D01*
X149196260Y-68875000D01*
X149483158Y-68817932D01*
X149753411Y-68705990D01*
X149996632Y-68543475D01*
X150203475Y-68336632D01*
X150321100Y-68160594D01*
X150492412Y-68390269D01*
X150708645Y-68585178D01*
X150958748Y-68734157D01*
X151233109Y-68831481D01*
X151463000Y-68710814D01*
X151463000Y-67517000D01*
X151443000Y-67517000D01*
X151443000Y-67263000D01*
X151463000Y-67263000D01*
X151463000Y-67243000D01*
X151717000Y-67243000D01*
X151717000Y-67263000D01*
X151737000Y-67263000D01*
X151737000Y-67517000D01*
X151717000Y-67517000D01*
X151717000Y-68710814D01*
X151946891Y-68831481D01*
X152221252Y-68734157D01*
X152471355Y-68585178D01*
X152650001Y-68424149D01*
X152650001Y-71365850D01*
X152471355Y-71204822D01*
X152221252Y-71055843D01*
X151946891Y-70958519D01*
X151717000Y-71079186D01*
X151717000Y-72273000D01*
X151737000Y-72273000D01*
X151737000Y-72527000D01*
X151717000Y-72527000D01*
X151717000Y-74813000D01*
X151737000Y-74813000D01*
X151737000Y-75067000D01*
X151717000Y-75067000D01*
X151717000Y-77353000D01*
X151737000Y-77353000D01*
X151737000Y-77607000D01*
X151717000Y-77607000D01*
X151717000Y-78800814D01*
X151946891Y-78921481D01*
X152221252Y-78824157D01*
X152471355Y-78675178D01*
X152650000Y-78514150D01*
X152650000Y-80127208D01*
X151801266Y-80975942D01*
X151746260Y-80965000D01*
X151453740Y-80965000D01*
X151166842Y-81022068D01*
X150896589Y-81134010D01*
X150653368Y-81296525D01*
X150446525Y-81503368D01*
X150330000Y-81677760D01*
X150213475Y-81503368D01*
X150006632Y-81296525D01*
X149763411Y-81134010D01*
X149493158Y-81022068D01*
X149206260Y-80965000D01*
X148913740Y-80965000D01*
X148626842Y-81022068D01*
X148356589Y-81134010D01*
X148113368Y-81296525D01*
X147906525Y-81503368D01*
X147744010Y-81746589D01*
X147632068Y-82016842D01*
X147575000Y-82303740D01*
X147575000Y-82596260D01*
X147632068Y-82883158D01*
X147744010Y-83153411D01*
X147906525Y-83396632D01*
X148113368Y-83603475D01*
X148287760Y-83720000D01*
X148113368Y-83836525D01*
X147906525Y-84043368D01*
X147744010Y-84286589D01*
X147632068Y-84556842D01*
X147588090Y-84777933D01*
X146232346Y-83422189D01*
X146207763Y-83392235D01*
X146088232Y-83294137D01*
X145951859Y-83221245D01*
X145803886Y-83176358D01*
X145688560Y-83164999D01*
X145688552Y-83164999D01*
X145649999Y-83161202D01*
X145611446Y-83164999D01*
X136948587Y-83164999D01*
X136945226Y-83148102D01*
X136867205Y-82959744D01*
X136753937Y-82790226D01*
X136609774Y-82646063D01*
X136440256Y-82532795D01*
X136251898Y-82454774D01*
X136221525Y-82448733D01*
X132117657Y-78344865D01*
X132089475Y-78310525D01*
X131952432Y-78198057D01*
X131796081Y-78114486D01*
X131626431Y-78063023D01*
X131494207Y-78050000D01*
X131494206Y-78050000D01*
X131450000Y-78045646D01*
X131405794Y-78050000D01*
X121666005Y-78050000D01*
X121640256Y-78032795D01*
X121451898Y-77954774D01*
X121251939Y-77915000D01*
X121048061Y-77915000D01*
X120848102Y-77954774D01*
X120659744Y-78032795D01*
X120490226Y-78146063D01*
X120346063Y-78290226D01*
X120232795Y-78459744D01*
X120154774Y-78648102D01*
X120115000Y-78848061D01*
X120115000Y-79051939D01*
X120154774Y-79251898D01*
X120232795Y-79440256D01*
X120346063Y-79609774D01*
X120490226Y-79753937D01*
X120659744Y-79867205D01*
X120848102Y-79945226D01*
X121048061Y-79985000D01*
X121251939Y-79985000D01*
X121451898Y-79945226D01*
X121640256Y-79867205D01*
X121666005Y-79850000D01*
X131077208Y-79850000D01*
X134948733Y-83721525D01*
X134954774Y-83751898D01*
X135032795Y-83940256D01*
X135146063Y-84109774D01*
X135290226Y-84253937D01*
X135377555Y-84312288D01*
X135074843Y-84615000D01*
X113480633Y-84615000D01*
X113442080Y-84611203D01*
X113403527Y-84615000D01*
X113403520Y-84615000D01*
X113288194Y-84626359D01*
X113140221Y-84671246D01*
X113003848Y-84744138D01*
X112943640Y-84793550D01*
X112914268Y-84817655D01*
X112914265Y-84817658D01*
X112884317Y-84842236D01*
X112859739Y-84872184D01*
X110236015Y-87495908D01*
X110086632Y-87346525D01*
X109843411Y-87184010D01*
X109573158Y-87072068D01*
X109286260Y-87015000D01*
X108993740Y-87015000D01*
X108706842Y-87072068D01*
X108436589Y-87184010D01*
X108193368Y-87346525D01*
X107986525Y-87553368D01*
X107870000Y-87727760D01*
X107753475Y-87553368D01*
X107546632Y-87346525D01*
X107303411Y-87184010D01*
X107033158Y-87072068D01*
X106746260Y-87015000D01*
X106453740Y-87015000D01*
X106166842Y-87072068D01*
X105896589Y-87184010D01*
X105653368Y-87346525D01*
X105521513Y-87478380D01*
X105499502Y-87405820D01*
X105440537Y-87295506D01*
X105361185Y-87198815D01*
X105264494Y-87119463D01*
X105154180Y-87060498D01*
X105034482Y-87024188D01*
X104910000Y-87011928D01*
X103210000Y-87011928D01*
X103085518Y-87024188D01*
X102965820Y-87060498D01*
X102855506Y-87119463D01*
X102758815Y-87198815D01*
X102679463Y-87295506D01*
X102620498Y-87405820D01*
X102584188Y-87525518D01*
X102571928Y-87650000D01*
X102571928Y-89350000D01*
X102584188Y-89474482D01*
X102620498Y-89594180D01*
X102679463Y-89704494D01*
X102758815Y-89801185D01*
X102855506Y-89880537D01*
X102965820Y-89939502D01*
X103085518Y-89975812D01*
X103210000Y-89988072D01*
X104910000Y-89988072D01*
X105034482Y-89975812D01*
X105154180Y-89939502D01*
X105264494Y-89880537D01*
X105361185Y-89801185D01*
X105440537Y-89704494D01*
X105499502Y-89594180D01*
X105521513Y-89521620D01*
X105653368Y-89653475D01*
X105896589Y-89815990D01*
X106166842Y-89927932D01*
X106453740Y-89985000D01*
X106746260Y-89985000D01*
X107033158Y-89927932D01*
X107303411Y-89815990D01*
X107546632Y-89653475D01*
X107753475Y-89446632D01*
X107870000Y-89272240D01*
X107986525Y-89446632D01*
X108193368Y-89653475D01*
X108436589Y-89815990D01*
X108706842Y-89927932D01*
X108993740Y-89985000D01*
X109286260Y-89985000D01*
X109573158Y-89927932D01*
X109843411Y-89815990D01*
X110086632Y-89653475D01*
X110293475Y-89446632D01*
X110402942Y-89282804D01*
X110495968Y-89273641D01*
X110643941Y-89228754D01*
X110780314Y-89155862D01*
X110899845Y-89057764D01*
X110924428Y-89027810D01*
X113767239Y-86185000D01*
X135361447Y-86185000D01*
X135400000Y-86188797D01*
X135438553Y-86185000D01*
X135438561Y-86185000D01*
X135553887Y-86173641D01*
X135701860Y-86128754D01*
X135838233Y-86055862D01*
X135957764Y-85957764D01*
X135982347Y-85927810D01*
X136697658Y-85212500D01*
X136796063Y-85359774D01*
X136940226Y-85503937D01*
X137109744Y-85617205D01*
X137298102Y-85695226D01*
X137498061Y-85735000D01*
X137701939Y-85735000D01*
X137901898Y-85695226D01*
X138090256Y-85617205D01*
X138259774Y-85503937D01*
X138278711Y-85485000D01*
X139574843Y-85485000D01*
X140904843Y-86815000D01*
X138828552Y-86815000D01*
X138789999Y-86811203D01*
X138751446Y-86815000D01*
X138751439Y-86815000D01*
X138650490Y-86824943D01*
X138636112Y-86826359D01*
X138608175Y-86834834D01*
X138488140Y-86871246D01*
X138351767Y-86944138D01*
X138306692Y-86981131D01*
X138238102Y-86994774D01*
X138049744Y-87072795D01*
X137880226Y-87186063D01*
X137736063Y-87330226D01*
X137622795Y-87499744D01*
X137544774Y-87688102D01*
X137505000Y-87888061D01*
X137505000Y-88022628D01*
X137359744Y-88082795D01*
X137190226Y-88196063D01*
X137046063Y-88340226D01*
X136932795Y-88509744D01*
X136854774Y-88698102D01*
X136815000Y-88898061D01*
X136815000Y-89101939D01*
X136854774Y-89301898D01*
X136932795Y-89490256D01*
X137046063Y-89659774D01*
X137190226Y-89803937D01*
X137359744Y-89917205D01*
X137548102Y-89995226D01*
X137748061Y-90035000D01*
X137951939Y-90035000D01*
X138151898Y-89995226D01*
X138340256Y-89917205D01*
X138366005Y-89900000D01*
X144488918Y-89900000D01*
X144409744Y-89932795D01*
X144240226Y-90046063D01*
X144096063Y-90190226D01*
X143982795Y-90359744D01*
X143904774Y-90548102D01*
X143865000Y-90748061D01*
X143865000Y-90774843D01*
X139731419Y-94908424D01*
X139601898Y-94854774D01*
X139401939Y-94815000D01*
X139198061Y-94815000D01*
X138998102Y-94854774D01*
X138883019Y-94902443D01*
X138922893Y-94862569D01*
X139088144Y-94615253D01*
X139201971Y-94340451D01*
X139260000Y-94048722D01*
X139260000Y-93751278D01*
X139201971Y-93459549D01*
X139088144Y-93184747D01*
X138922893Y-92937431D01*
X138712569Y-92727107D01*
X138465253Y-92561856D01*
X138190451Y-92448029D01*
X137898722Y-92390000D01*
X137601278Y-92390000D01*
X137309549Y-92448029D01*
X137034747Y-92561856D01*
X136787431Y-92727107D01*
X136577107Y-92937431D01*
X136500000Y-93052830D01*
X136422893Y-92937431D01*
X136212569Y-92727107D01*
X135965253Y-92561856D01*
X135690451Y-92448029D01*
X135398722Y-92390000D01*
X135101278Y-92390000D01*
X134809549Y-92448029D01*
X134534747Y-92561856D01*
X134287431Y-92727107D01*
X134077107Y-92937431D01*
X134000000Y-93052830D01*
X133922893Y-92937431D01*
X133712569Y-92727107D01*
X133465253Y-92561856D01*
X133190451Y-92448029D01*
X132898722Y-92390000D01*
X132601278Y-92390000D01*
X132309549Y-92448029D01*
X132034747Y-92561856D01*
X131787431Y-92727107D01*
X131577107Y-92937431D01*
X131500000Y-93052830D01*
X131422893Y-92937431D01*
X131212569Y-92727107D01*
X130965253Y-92561856D01*
X130690451Y-92448029D01*
X130398722Y-92390000D01*
X130101278Y-92390000D01*
X129809549Y-92448029D01*
X129534747Y-92561856D01*
X129287431Y-92727107D01*
X129218974Y-92795564D01*
X129214502Y-92780820D01*
X129155537Y-92670506D01*
X129076185Y-92573815D01*
X128979494Y-92494463D01*
X128869180Y-92435498D01*
X128749482Y-92399188D01*
X128625000Y-92386928D01*
X128535000Y-92386928D01*
X128535000Y-91688552D01*
X128538797Y-91649999D01*
X128535000Y-91611446D01*
X128535000Y-91611439D01*
X128523641Y-91496113D01*
X128478754Y-91348140D01*
X128405862Y-91211767D01*
X128307764Y-91092236D01*
X128277817Y-91067659D01*
X125926931Y-88716774D01*
X125995226Y-88551898D01*
X126035000Y-88351939D01*
X126035000Y-88148061D01*
X125995226Y-87948102D01*
X125917205Y-87759744D01*
X125803937Y-87590226D01*
X125659774Y-87446063D01*
X125490256Y-87332795D01*
X125301898Y-87254774D01*
X125101939Y-87215000D01*
X124898061Y-87215000D01*
X124698102Y-87254774D01*
X124509744Y-87332795D01*
X124340226Y-87446063D01*
X124196063Y-87590226D01*
X124082795Y-87759744D01*
X124004774Y-87948102D01*
X123965000Y-88148061D01*
X123965000Y-88221467D01*
X123831939Y-88195000D01*
X123628061Y-88195000D01*
X123428102Y-88234774D01*
X123239744Y-88312795D01*
X123070226Y-88426063D01*
X122926063Y-88570226D01*
X122840996Y-88697538D01*
X122761898Y-88664774D01*
X122561939Y-88625000D01*
X122358061Y-88625000D01*
X122158102Y-88664774D01*
X121969744Y-88742795D01*
X121800226Y-88856063D01*
X121656063Y-89000226D01*
X121542795Y-89169744D01*
X121464774Y-89358102D01*
X121435683Y-89504354D01*
X121417205Y-89459744D01*
X121303937Y-89290226D01*
X121159774Y-89146063D01*
X120990256Y-89032795D01*
X120801898Y-88954774D01*
X120601939Y-88915000D01*
X120398061Y-88915000D01*
X120198102Y-88954774D01*
X120009744Y-89032795D01*
X119840226Y-89146063D01*
X119696063Y-89290226D01*
X119582795Y-89459744D01*
X119504774Y-89648102D01*
X119465000Y-89848061D01*
X119465000Y-90051939D01*
X119504774Y-90251898D01*
X119582795Y-90440256D01*
X119600000Y-90466005D01*
X119600001Y-92685299D01*
X119537431Y-92727107D01*
X119327107Y-92937431D01*
X119250000Y-93052830D01*
X119172893Y-92937431D01*
X118962569Y-92727107D01*
X118715253Y-92561856D01*
X118440451Y-92448029D01*
X118148722Y-92390000D01*
X117851278Y-92390000D01*
X117559549Y-92448029D01*
X117284747Y-92561856D01*
X117037431Y-92727107D01*
X116827107Y-92937431D01*
X116750000Y-93052830D01*
X116672893Y-92937431D01*
X116462569Y-92727107D01*
X116215253Y-92561856D01*
X115940451Y-92448029D01*
X115648722Y-92390000D01*
X115351278Y-92390000D01*
X115059549Y-92448029D01*
X114784747Y-92561856D01*
X114537431Y-92727107D01*
X114327107Y-92937431D01*
X114250000Y-93052830D01*
X114172893Y-92937431D01*
X113962569Y-92727107D01*
X113715253Y-92561856D01*
X113440451Y-92448029D01*
X113148722Y-92390000D01*
X112851278Y-92390000D01*
X112559549Y-92448029D01*
X112284747Y-92561856D01*
X112037431Y-92727107D01*
X111968974Y-92795564D01*
X111964502Y-92780820D01*
X111905537Y-92670506D01*
X111826185Y-92573815D01*
X111729494Y-92494463D01*
X111619180Y-92435498D01*
X111499482Y-92399188D01*
X111375000Y-92386928D01*
X109625000Y-92386928D01*
X109500518Y-92399188D01*
X109380820Y-92435498D01*
X109270506Y-92494463D01*
X109173815Y-92573815D01*
X109094463Y-92670506D01*
X109035498Y-92780820D01*
X108999188Y-92900518D01*
X108986928Y-93025000D01*
X108986928Y-94775000D01*
X108999188Y-94899482D01*
X109035498Y-95019180D01*
X109094463Y-95129494D01*
X109173815Y-95226185D01*
X109270506Y-95305537D01*
X109380820Y-95364502D01*
X109500518Y-95400812D01*
X109625000Y-95413072D01*
X111375000Y-95413072D01*
X111499482Y-95400812D01*
X111619180Y-95364502D01*
X111729494Y-95305537D01*
X111826185Y-95226185D01*
X111905537Y-95129494D01*
X111964502Y-95019180D01*
X111968974Y-95004436D01*
X112037431Y-95072893D01*
X112284747Y-95238144D01*
X112559549Y-95351971D01*
X112851278Y-95410000D01*
X113148722Y-95410000D01*
X113440451Y-95351971D01*
X113715253Y-95238144D01*
X113962569Y-95072893D01*
X114172893Y-94862569D01*
X114250000Y-94747170D01*
X114327107Y-94862569D01*
X114537431Y-95072893D01*
X114784747Y-95238144D01*
X115059549Y-95351971D01*
X115351278Y-95410000D01*
X115648722Y-95410000D01*
X115940451Y-95351971D01*
X116215253Y-95238144D01*
X116462569Y-95072893D01*
X116672893Y-94862569D01*
X116750000Y-94747170D01*
X116827107Y-94862569D01*
X117037431Y-95072893D01*
X117284747Y-95238144D01*
X117559549Y-95351971D01*
X117851278Y-95410000D01*
X118148722Y-95410000D01*
X118440451Y-95351971D01*
X118715253Y-95238144D01*
X118962569Y-95072893D01*
X119172893Y-94862569D01*
X119250000Y-94747170D01*
X119327107Y-94862569D01*
X119537431Y-95072893D01*
X119784747Y-95238144D01*
X120059549Y-95351971D01*
X120351278Y-95410000D01*
X120648722Y-95410000D01*
X120940451Y-95351971D01*
X121215253Y-95238144D01*
X121462569Y-95072893D01*
X121672893Y-94862569D01*
X121838144Y-94615253D01*
X121951971Y-94340451D01*
X122010000Y-94048722D01*
X122010000Y-93751278D01*
X121951971Y-93459549D01*
X121838144Y-93184747D01*
X121672893Y-92937431D01*
X121462569Y-92727107D01*
X121400000Y-92685300D01*
X121400000Y-90466005D01*
X121417205Y-90440256D01*
X121495226Y-90251898D01*
X121524317Y-90105646D01*
X121542795Y-90150256D01*
X121656063Y-90319774D01*
X121800226Y-90463937D01*
X121969744Y-90577205D01*
X122158102Y-90655226D01*
X122358061Y-90695000D01*
X122384843Y-90695000D01*
X123865000Y-92175157D01*
X123865001Y-95311437D01*
X123861203Y-95350000D01*
X123876359Y-95503886D01*
X123921246Y-95651859D01*
X123941756Y-95690231D01*
X123994139Y-95788233D01*
X124018546Y-95817972D01*
X124067655Y-95877812D01*
X124067659Y-95877816D01*
X124092237Y-95907764D01*
X124122185Y-95932342D01*
X125317658Y-97127815D01*
X125342236Y-97157764D01*
X125372184Y-97182342D01*
X125372187Y-97182345D01*
X125382681Y-97190957D01*
X125461767Y-97255862D01*
X125589250Y-97324002D01*
X125598140Y-97328754D01*
X125746113Y-97373642D01*
X125821026Y-97381020D01*
X125861439Y-97385000D01*
X125861444Y-97385000D01*
X125900000Y-97388797D01*
X125938555Y-97385000D01*
X131561447Y-97385000D01*
X131600000Y-97388797D01*
X131638553Y-97385000D01*
X131638561Y-97385000D01*
X131753887Y-97373641D01*
X131901860Y-97328754D01*
X132038233Y-97255862D01*
X132157764Y-97157764D01*
X132182347Y-97127810D01*
X133277811Y-96032346D01*
X133307764Y-96007764D01*
X133405862Y-95888233D01*
X133478754Y-95751860D01*
X133479906Y-95748061D01*
X133523642Y-95603887D01*
X133533490Y-95503887D01*
X133535000Y-95488561D01*
X133535000Y-95488556D01*
X133538797Y-95450000D01*
X133535000Y-95411444D01*
X133535000Y-95191541D01*
X133712569Y-95072893D01*
X133922893Y-94862569D01*
X134000000Y-94747170D01*
X134077107Y-94862569D01*
X134287431Y-95072893D01*
X134534747Y-95238144D01*
X134809549Y-95351971D01*
X135101278Y-95410000D01*
X135398722Y-95410000D01*
X135690451Y-95351971D01*
X135965253Y-95238144D01*
X136212569Y-95072893D01*
X136422893Y-94862569D01*
X136500000Y-94747170D01*
X136577107Y-94862569D01*
X136787431Y-95072893D01*
X137034747Y-95238144D01*
X137309549Y-95351971D01*
X137601278Y-95410000D01*
X137898722Y-95410000D01*
X138190451Y-95351971D01*
X138463583Y-95238836D01*
X138382795Y-95359744D01*
X138304774Y-95548102D01*
X138265000Y-95748061D01*
X138265000Y-95951939D01*
X138304774Y-96151898D01*
X138382795Y-96340256D01*
X138496063Y-96509774D01*
X138640226Y-96653937D01*
X138809744Y-96767205D01*
X138998102Y-96845226D01*
X139198061Y-96885000D01*
X139401939Y-96885000D01*
X139601898Y-96845226D01*
X139790256Y-96767205D01*
X139959774Y-96653937D01*
X139983098Y-96630613D01*
X140053887Y-96623641D01*
X140201860Y-96578754D01*
X140338233Y-96505862D01*
X140457764Y-96407764D01*
X140482347Y-96377810D01*
X140827211Y-96032946D01*
X158603687Y-96032946D01*
X158656158Y-96499811D01*
X158798703Y-96947468D01*
X158989234Y-97303927D01*
X159330391Y-97490003D01*
X160820395Y-96000000D01*
X161179605Y-96000000D01*
X162669609Y-97490003D01*
X163010766Y-97303927D01*
X163226513Y-96886591D01*
X163356696Y-96435185D01*
X163396313Y-95967054D01*
X163343842Y-95500189D01*
X163201297Y-95052532D01*
X163010766Y-94696073D01*
X162669609Y-94509997D01*
X161179605Y-96000000D01*
X160820395Y-96000000D01*
X159330391Y-94509997D01*
X158989234Y-94696073D01*
X158773487Y-95113409D01*
X158643304Y-95564815D01*
X158603687Y-96032946D01*
X140827211Y-96032946D01*
X143486928Y-93373229D01*
X143486928Y-94775000D01*
X143499188Y-94899482D01*
X143535498Y-95019180D01*
X143594463Y-95129494D01*
X143673815Y-95226185D01*
X143770506Y-95305537D01*
X143880820Y-95364502D01*
X144000518Y-95400812D01*
X144125000Y-95413072D01*
X145875000Y-95413072D01*
X145999482Y-95400812D01*
X146119180Y-95364502D01*
X146229494Y-95305537D01*
X146326185Y-95226185D01*
X146405537Y-95129494D01*
X146464502Y-95019180D01*
X146468974Y-95004436D01*
X146537431Y-95072893D01*
X146784747Y-95238144D01*
X147059549Y-95351971D01*
X147351278Y-95410000D01*
X147648722Y-95410000D01*
X147940451Y-95351971D01*
X148215253Y-95238144D01*
X148462569Y-95072893D01*
X148672893Y-94862569D01*
X148750000Y-94747170D01*
X148827107Y-94862569D01*
X149037431Y-95072893D01*
X149284747Y-95238144D01*
X149559549Y-95351971D01*
X149851278Y-95410000D01*
X150148722Y-95410000D01*
X150440451Y-95351971D01*
X150715253Y-95238144D01*
X150962569Y-95072893D01*
X151172893Y-94862569D01*
X151250000Y-94747170D01*
X151327107Y-94862569D01*
X151537431Y-95072893D01*
X151784747Y-95238144D01*
X152059549Y-95351971D01*
X152351278Y-95410000D01*
X152648722Y-95410000D01*
X152940451Y-95351971D01*
X153215253Y-95238144D01*
X153462569Y-95072893D01*
X153672893Y-94862569D01*
X153750000Y-94747170D01*
X153827107Y-94862569D01*
X154037431Y-95072893D01*
X154284747Y-95238144D01*
X154559549Y-95351971D01*
X154851278Y-95410000D01*
X155148722Y-95410000D01*
X155440451Y-95351971D01*
X155715253Y-95238144D01*
X155962569Y-95072893D01*
X156172893Y-94862569D01*
X156338144Y-94615253D01*
X156451971Y-94340451D01*
X156453972Y-94330391D01*
X159509997Y-94330391D01*
X161000000Y-95820395D01*
X162490003Y-94330391D01*
X162303927Y-93989234D01*
X161886591Y-93773487D01*
X161435185Y-93643304D01*
X160967054Y-93603687D01*
X160500189Y-93656158D01*
X160052532Y-93798703D01*
X159696073Y-93989234D01*
X159509997Y-94330391D01*
X156453972Y-94330391D01*
X156510000Y-94048722D01*
X156510000Y-93751278D01*
X156451971Y-93459549D01*
X156338144Y-93184747D01*
X156172893Y-92937431D01*
X155962569Y-92727107D01*
X155715253Y-92561856D01*
X155440451Y-92448029D01*
X155148722Y-92390000D01*
X154851278Y-92390000D01*
X154559549Y-92448029D01*
X154284747Y-92561856D01*
X154037431Y-92727107D01*
X153827107Y-92937431D01*
X153750000Y-93052830D01*
X153672893Y-92937431D01*
X153462569Y-92727107D01*
X153215253Y-92561856D01*
X152940451Y-92448029D01*
X152648722Y-92390000D01*
X152351278Y-92390000D01*
X152059549Y-92448029D01*
X151784747Y-92561856D01*
X151537431Y-92727107D01*
X151327107Y-92937431D01*
X151250000Y-93052830D01*
X151172893Y-92937431D01*
X150962569Y-92727107D01*
X150715253Y-92561856D01*
X150440451Y-92448029D01*
X150148722Y-92390000D01*
X149851278Y-92390000D01*
X149559549Y-92448029D01*
X149284747Y-92561856D01*
X149037431Y-92727107D01*
X148827107Y-92937431D01*
X148750000Y-93052830D01*
X148672893Y-92937431D01*
X148462569Y-92727107D01*
X148215253Y-92561856D01*
X147940451Y-92448029D01*
X147648722Y-92390000D01*
X147351278Y-92390000D01*
X147059549Y-92448029D01*
X146784747Y-92561856D01*
X146537431Y-92727107D01*
X146468974Y-92795564D01*
X146464502Y-92780820D01*
X146405537Y-92670506D01*
X146326185Y-92573815D01*
X146229494Y-92494463D01*
X146119180Y-92435498D01*
X145999482Y-92399188D01*
X145875000Y-92386928D01*
X144473229Y-92386928D01*
X144975157Y-91885000D01*
X145001939Y-91885000D01*
X145201898Y-91845226D01*
X145390256Y-91767205D01*
X145559774Y-91653937D01*
X145703937Y-91509774D01*
X145817205Y-91340256D01*
X145895226Y-91151898D01*
X145935000Y-90951939D01*
X145935000Y-90748061D01*
X145895226Y-90548102D01*
X145817205Y-90359744D01*
X145703937Y-90190226D01*
X145559774Y-90046063D01*
X145390256Y-89932795D01*
X145311082Y-89900000D01*
X145883995Y-89900000D01*
X145909744Y-89917205D01*
X146098102Y-89995226D01*
X146298061Y-90035000D01*
X146501939Y-90035000D01*
X146701898Y-89995226D01*
X146890256Y-89917205D01*
X146916005Y-89900000D01*
X155427208Y-89900000D01*
X156532347Y-91005140D01*
X156560525Y-91039475D01*
X156594860Y-91067653D01*
X156594862Y-91067655D01*
X156661310Y-91122187D01*
X156697568Y-91151943D01*
X156853919Y-91235514D01*
X157023569Y-91286977D01*
X157200000Y-91304354D01*
X157244206Y-91300000D01*
X162705794Y-91300000D01*
X162750000Y-91304354D01*
X162794206Y-91300000D01*
X162794207Y-91300000D01*
X162926431Y-91286977D01*
X163096081Y-91235514D01*
X163252432Y-91151943D01*
X163389475Y-91039475D01*
X163417657Y-91005135D01*
X164290001Y-90132791D01*
X164290001Y-95965270D01*
X164224004Y-96638366D01*
X164038607Y-97252428D01*
X163737474Y-97818775D01*
X163332071Y-98315847D01*
X162837842Y-98724710D01*
X162273611Y-99029790D01*
X161660862Y-99219467D01*
X160989787Y-99290000D01*
X104034720Y-99290000D01*
X103361634Y-99224004D01*
X102747572Y-99038607D01*
X102181225Y-98737474D01*
X101684153Y-98332071D01*
X101275290Y-97837842D01*
X101184327Y-97669609D01*
X102509997Y-97669609D01*
X102696073Y-98010766D01*
X103113409Y-98226513D01*
X103564815Y-98356696D01*
X104032946Y-98396313D01*
X104499811Y-98343842D01*
X104947468Y-98201297D01*
X105303927Y-98010766D01*
X105490003Y-97669609D01*
X159509997Y-97669609D01*
X159696073Y-98010766D01*
X160113409Y-98226513D01*
X160564815Y-98356696D01*
X161032946Y-98396313D01*
X161499811Y-98343842D01*
X161947468Y-98201297D01*
X162303927Y-98010766D01*
X162490003Y-97669609D01*
X161000000Y-96179605D01*
X159509997Y-97669609D01*
X105490003Y-97669609D01*
X104000000Y-96179605D01*
X102509997Y-97669609D01*
X101184327Y-97669609D01*
X100970210Y-97273611D01*
X100780533Y-96660862D01*
X100714537Y-96032946D01*
X101603687Y-96032946D01*
X101656158Y-96499811D01*
X101798703Y-96947468D01*
X101989234Y-97303927D01*
X102330391Y-97490003D01*
X103820395Y-96000000D01*
X104179605Y-96000000D01*
X105669609Y-97490003D01*
X106010766Y-97303927D01*
X106226513Y-96886591D01*
X106356696Y-96435185D01*
X106396313Y-95967054D01*
X106343842Y-95500189D01*
X106201297Y-95052532D01*
X106010766Y-94696073D01*
X105669609Y-94509997D01*
X104179605Y-96000000D01*
X103820395Y-96000000D01*
X102330391Y-94509997D01*
X101989234Y-94696073D01*
X101773487Y-95113409D01*
X101643304Y-95564815D01*
X101603687Y-96032946D01*
X100714537Y-96032946D01*
X100710000Y-95989787D01*
X100710000Y-94330391D01*
X102509997Y-94330391D01*
X104000000Y-95820395D01*
X105490003Y-94330391D01*
X105303927Y-93989234D01*
X104886591Y-93773487D01*
X104435185Y-93643304D01*
X103967054Y-93603687D01*
X103500189Y-93656158D01*
X103052532Y-93798703D01*
X102696073Y-93989234D01*
X102509997Y-94330391D01*
X100710000Y-94330391D01*
X100710000Y-85771653D01*
X102867952Y-85771653D01*
X103023962Y-86087214D01*
X103398745Y-86278020D01*
X103803551Y-86392044D01*
X104222824Y-86424902D01*
X104640451Y-86375334D01*
X105040383Y-86245243D01*
X105336038Y-86087214D01*
X105492048Y-85771653D01*
X104180000Y-84459605D01*
X102867952Y-85771653D01*
X100710000Y-85771653D01*
X100710000Y-84322824D01*
X102035098Y-84322824D01*
X102084666Y-84740451D01*
X102214757Y-85140383D01*
X102372786Y-85436038D01*
X102688347Y-85592048D01*
X104000395Y-84280000D01*
X104359605Y-84280000D01*
X105671653Y-85592048D01*
X105987214Y-85436038D01*
X106178020Y-85061255D01*
X106292044Y-84656449D01*
X106324902Y-84237176D01*
X106275334Y-83819549D01*
X106145243Y-83419617D01*
X105987214Y-83123962D01*
X105671653Y-82967952D01*
X104359605Y-84280000D01*
X104000395Y-84280000D01*
X102688347Y-82967952D01*
X102372786Y-83123962D01*
X102181980Y-83498745D01*
X102067956Y-83903551D01*
X102035098Y-84322824D01*
X100710000Y-84322824D01*
X100710000Y-82788347D01*
X102867952Y-82788347D01*
X104180000Y-84100395D01*
X105492048Y-82788347D01*
X105336038Y-82472786D01*
X104961255Y-82281980D01*
X104624034Y-82186993D01*
X106072612Y-82186993D01*
X106138137Y-82425860D01*
X106385116Y-82541760D01*
X106649960Y-82607250D01*
X106922492Y-82619812D01*
X107192238Y-82578965D01*
X107448832Y-82486277D01*
X107561863Y-82425860D01*
X107627388Y-82186993D01*
X106850000Y-81409605D01*
X106072612Y-82186993D01*
X104624034Y-82186993D01*
X104556449Y-82167956D01*
X104137176Y-82135098D01*
X103719549Y-82184666D01*
X103319617Y-82314757D01*
X103023962Y-82472786D01*
X102867952Y-82788347D01*
X100710000Y-82788347D01*
X100710000Y-81302492D01*
X105460188Y-81302492D01*
X105501035Y-81572238D01*
X105593723Y-81828832D01*
X105654140Y-81941863D01*
X105893007Y-82007388D01*
X106670395Y-81230000D01*
X107029605Y-81230000D01*
X107806993Y-82007388D01*
X108045860Y-81941863D01*
X108161760Y-81694884D01*
X108227250Y-81430040D01*
X108239812Y-81157508D01*
X108198965Y-80887762D01*
X108106277Y-80631168D01*
X108045860Y-80518137D01*
X107806993Y-80452612D01*
X107029605Y-81230000D01*
X106670395Y-81230000D01*
X105893007Y-80452612D01*
X105654140Y-80518137D01*
X105538240Y-80765116D01*
X105472750Y-81029960D01*
X105460188Y-81302492D01*
X100710000Y-81302492D01*
X100710000Y-72051653D01*
X102867952Y-72051653D01*
X103023962Y-72367214D01*
X103398745Y-72558020D01*
X103803551Y-72672044D01*
X104222824Y-72704902D01*
X104640451Y-72655334D01*
X105040383Y-72525243D01*
X105336038Y-72367214D01*
X105492048Y-72051653D01*
X104180000Y-70739605D01*
X102867952Y-72051653D01*
X100710000Y-72051653D01*
X100710000Y-70602824D01*
X102035098Y-70602824D01*
X102084666Y-71020451D01*
X102214757Y-71420383D01*
X102372786Y-71716038D01*
X102688347Y-71872048D01*
X104000395Y-70560000D01*
X104359605Y-70560000D01*
X105671653Y-71872048D01*
X105902796Y-71757774D01*
X105876652Y-71789630D01*
X105873136Y-71796209D01*
X105868475Y-71802037D01*
X105819082Y-71897335D01*
X105768473Y-71992018D01*
X105766306Y-71999161D01*
X105762875Y-72005781D01*
X105733033Y-72108848D01*
X105701857Y-72211621D01*
X105701126Y-72219048D01*
X105699051Y-72226213D01*
X105689885Y-72333177D01*
X105685000Y-72382777D01*
X105685000Y-72390184D01*
X105679458Y-72454858D01*
X105685000Y-72504639D01*
X105685000Y-73370612D01*
X105622629Y-73463957D01*
X105518225Y-73716011D01*
X105465000Y-73983589D01*
X105465000Y-74256411D01*
X105518225Y-74523989D01*
X105622629Y-74776043D01*
X105774201Y-75002886D01*
X105967114Y-75195799D01*
X106193957Y-75347371D01*
X106296873Y-75390000D01*
X106193957Y-75432629D01*
X105967114Y-75584201D01*
X105774201Y-75777114D01*
X105622629Y-76003957D01*
X105518225Y-76256011D01*
X105465000Y-76523589D01*
X105465000Y-76796411D01*
X105518225Y-77063989D01*
X105622629Y-77316043D01*
X105774201Y-77542886D01*
X105906315Y-77675000D01*
X105774201Y-77807114D01*
X105622629Y-78033957D01*
X105518225Y-78286011D01*
X105465000Y-78553589D01*
X105465000Y-78826411D01*
X105518225Y-79093989D01*
X105622629Y-79346043D01*
X105774201Y-79572886D01*
X105967114Y-79765799D01*
X106193957Y-79917371D01*
X106293279Y-79958511D01*
X106251168Y-79973723D01*
X106138137Y-80034140D01*
X106072612Y-80273007D01*
X106850000Y-81050395D01*
X107627388Y-80273007D01*
X107561863Y-80034140D01*
X107403523Y-79959836D01*
X107506043Y-79917371D01*
X107732886Y-79765799D01*
X107925799Y-79572886D01*
X108077371Y-79346043D01*
X108181775Y-79093989D01*
X108235000Y-78826411D01*
X108235000Y-78553589D01*
X108181775Y-78286011D01*
X108077371Y-78033957D01*
X107925799Y-77807114D01*
X107793685Y-77675000D01*
X107925799Y-77542886D01*
X108077371Y-77316043D01*
X108181775Y-77063989D01*
X108235000Y-76796411D01*
X108235000Y-76523589D01*
X108181775Y-76256011D01*
X108077371Y-76003957D01*
X107925799Y-75777114D01*
X107732886Y-75584201D01*
X107506043Y-75432629D01*
X107403127Y-75390000D01*
X107506043Y-75347371D01*
X107732886Y-75195799D01*
X107925799Y-75002886D01*
X108077371Y-74776043D01*
X108181775Y-74523989D01*
X108235000Y-74256411D01*
X108235000Y-73983589D01*
X108181775Y-73716011D01*
X108077371Y-73463957D01*
X108015000Y-73370612D01*
X108015000Y-72913918D01*
X111224115Y-69622284D01*
X111331525Y-69487964D01*
X111437125Y-69284220D01*
X111500949Y-69063788D01*
X111520542Y-68835142D01*
X111495151Y-68607066D01*
X111425753Y-68388326D01*
X111315015Y-68187328D01*
X111167191Y-68011796D01*
X110987963Y-67868475D01*
X110784219Y-67762875D01*
X110563787Y-67699051D01*
X110335141Y-67679458D01*
X110107065Y-67704849D01*
X109888325Y-67774247D01*
X109687327Y-67884985D01*
X109555777Y-67995770D01*
X106060960Y-71580454D01*
X106052854Y-71587106D01*
X106178020Y-71341255D01*
X106292044Y-70936449D01*
X106324902Y-70517176D01*
X106275334Y-70099549D01*
X106145243Y-69699617D01*
X105987214Y-69403962D01*
X105671653Y-69247952D01*
X104359605Y-70560000D01*
X104000395Y-70560000D01*
X102688347Y-69247952D01*
X102372786Y-69403962D01*
X102181980Y-69778745D01*
X102067956Y-70183551D01*
X102035098Y-70602824D01*
X100710000Y-70602824D01*
X100710000Y-69068347D01*
X102867952Y-69068347D01*
X104180000Y-70380395D01*
X105492048Y-69068347D01*
X105336038Y-68752786D01*
X104961255Y-68561980D01*
X104556449Y-68447956D01*
X104137176Y-68415098D01*
X103719549Y-68464666D01*
X103319617Y-68594757D01*
X103023962Y-68752786D01*
X102867952Y-69068347D01*
X100710000Y-69068347D01*
X100710000Y-66899117D01*
X100721324Y-66936447D01*
X100826716Y-67133623D01*
X100968551Y-67306449D01*
X101141377Y-67448284D01*
X101338553Y-67553676D01*
X101552501Y-67618577D01*
X101719248Y-67635000D01*
X102380752Y-67635000D01*
X102547499Y-67618577D01*
X102761447Y-67553676D01*
X102958623Y-67448284D01*
X103131449Y-67306449D01*
X103273284Y-67133623D01*
X103378676Y-66936447D01*
X103443577Y-66722499D01*
X103465491Y-66500000D01*
X103443577Y-66277501D01*
X103378676Y-66063553D01*
X103273284Y-65866377D01*
X103131449Y-65693551D01*
X102958623Y-65551716D01*
X102761447Y-65446324D01*
X102547499Y-65381423D01*
X102380752Y-65365000D01*
X101719248Y-65365000D01*
X101552501Y-65381423D01*
X101338553Y-65446324D01*
X101141377Y-65551716D01*
X100968551Y-65693551D01*
X100826716Y-65866377D01*
X100721324Y-66063553D01*
X100710000Y-66100883D01*
X100710000Y-65295480D01*
X103640000Y-65295480D01*
X103640000Y-65704521D01*
X103656062Y-65867598D01*
X103719532Y-66076834D01*
X103822604Y-66269666D01*
X103961315Y-66438686D01*
X104130335Y-66577396D01*
X104323167Y-66680468D01*
X104532403Y-66743938D01*
X104750000Y-66765370D01*
X104967598Y-66743938D01*
X105176834Y-66680468D01*
X105369666Y-66577396D01*
X105538686Y-66438686D01*
X105677396Y-66269666D01*
X105780468Y-66076833D01*
X105843938Y-65867597D01*
X105860000Y-65704520D01*
X105860000Y-65295479D01*
X105843938Y-65132402D01*
X105780468Y-64923166D01*
X105677396Y-64730334D01*
X105538686Y-64561314D01*
X105369666Y-64422604D01*
X105176833Y-64319532D01*
X104967597Y-64256062D01*
X104750000Y-64234630D01*
X104532402Y-64256062D01*
X104323166Y-64319532D01*
X104130334Y-64422604D01*
X103961314Y-64561314D01*
X103822604Y-64730334D01*
X103719532Y-64923167D01*
X103656062Y-65132403D01*
X103640000Y-65295480D01*
X100710000Y-65295480D01*
X100710000Y-59899117D01*
X100721324Y-59936447D01*
X100826716Y-60133623D01*
X100968551Y-60306449D01*
X101141377Y-60448284D01*
X101338553Y-60553676D01*
X101552501Y-60618577D01*
X101719248Y-60635000D01*
X102380752Y-60635000D01*
X102547499Y-60618577D01*
X102761447Y-60553676D01*
X102958623Y-60448284D01*
X103131449Y-60306449D01*
X103140451Y-60295480D01*
X103640000Y-60295480D01*
X103640000Y-60704521D01*
X103656062Y-60867598D01*
X103719532Y-61076834D01*
X103822604Y-61269666D01*
X103961315Y-61438686D01*
X104130335Y-61577396D01*
X104323167Y-61680468D01*
X104532403Y-61743938D01*
X104750000Y-61765370D01*
X104967598Y-61743938D01*
X105176834Y-61680468D01*
X105369666Y-61577396D01*
X105538686Y-61438686D01*
X105677396Y-61269666D01*
X105780468Y-61076833D01*
X105843938Y-60867597D01*
X105860000Y-60704520D01*
X105860000Y-60295479D01*
X105843938Y-60132402D01*
X105780468Y-59923166D01*
X105677396Y-59730334D01*
X105538686Y-59561314D01*
X105369666Y-59422604D01*
X105176833Y-59319532D01*
X104967597Y-59256062D01*
X104750000Y-59234630D01*
X104532402Y-59256062D01*
X104323166Y-59319532D01*
X104130334Y-59422604D01*
X103961314Y-59561314D01*
X103822604Y-59730334D01*
X103719532Y-59923167D01*
X103656062Y-60132403D01*
X103640000Y-60295480D01*
X103140451Y-60295480D01*
X103273284Y-60133623D01*
X103378676Y-59936447D01*
X103443577Y-59722499D01*
X103465491Y-59500000D01*
X103443577Y-59277501D01*
X103378676Y-59063553D01*
X103273284Y-58866377D01*
X103131449Y-58693551D01*
X102958623Y-58551716D01*
X102761447Y-58446324D01*
X102547499Y-58381423D01*
X102380752Y-58365000D01*
X101719248Y-58365000D01*
X101552501Y-58381423D01*
X101338553Y-58446324D01*
X101141377Y-58551716D01*
X100968551Y-58693551D01*
X100826716Y-58866377D01*
X100721324Y-59063553D01*
X100710000Y-59100883D01*
X100710000Y-51548061D01*
X112915000Y-51548061D01*
X112915000Y-51751939D01*
X112954774Y-51951898D01*
X113032795Y-52140256D01*
X113146063Y-52309774D01*
X113173136Y-52336847D01*
X113176359Y-52369572D01*
X113221246Y-52517545D01*
X113294139Y-52653918D01*
X113319648Y-52685000D01*
X113367655Y-52743497D01*
X113367659Y-52743501D01*
X113392237Y-52773449D01*
X113422185Y-52798027D01*
X116651970Y-56027812D01*
X117251972Y-56627815D01*
X117276551Y-56657764D01*
X117306499Y-56682342D01*
X117306502Y-56682345D01*
X117320872Y-56694138D01*
X117396082Y-56755862D01*
X117532455Y-56828754D01*
X117680427Y-56873641D01*
X117694805Y-56875057D01*
X117795754Y-56885000D01*
X117795761Y-56885000D01*
X117834314Y-56888797D01*
X117872867Y-56885000D01*
X129821289Y-56885000D01*
X129840226Y-56903937D01*
X130009744Y-57017205D01*
X130198102Y-57095226D01*
X130287076Y-57112924D01*
X130304774Y-57201898D01*
X130382795Y-57390256D01*
X130496063Y-57559774D01*
X130640226Y-57703937D01*
X130809744Y-57817205D01*
X130998102Y-57895226D01*
X131198061Y-57935000D01*
X131401939Y-57935000D01*
X131601898Y-57895226D01*
X131790256Y-57817205D01*
X131959774Y-57703937D01*
X132103937Y-57559774D01*
X132217205Y-57390256D01*
X132295226Y-57201898D01*
X132335000Y-57001939D01*
X132335000Y-56817994D01*
X133732994Y-55420000D01*
X139183995Y-55420000D01*
X139209744Y-55437205D01*
X139398102Y-55515226D01*
X139598061Y-55555000D01*
X139801939Y-55555000D01*
X140001898Y-55515226D01*
X140190256Y-55437205D01*
X140359774Y-55323937D01*
X140503937Y-55179774D01*
X140617205Y-55010256D01*
X140695226Y-54821898D01*
X140735000Y-54621939D01*
X140735000Y-54418061D01*
X140695226Y-54218102D01*
X140617205Y-54029744D01*
X140503937Y-53860226D01*
X140359774Y-53716063D01*
X140190256Y-53602795D01*
X140001898Y-53524774D01*
X139801939Y-53485000D01*
X139598061Y-53485000D01*
X139398102Y-53524774D01*
X139209744Y-53602795D01*
X139183995Y-53620000D01*
X133404409Y-53620000D01*
X133360202Y-53615646D01*
X133183771Y-53633023D01*
X133014120Y-53684486D01*
X132906078Y-53742236D01*
X132857770Y-53768057D01*
X132720727Y-53880525D01*
X132692545Y-53914865D01*
X131235561Y-55371850D01*
X131159774Y-55296063D01*
X130990256Y-55182795D01*
X130801898Y-55104774D01*
X130601939Y-55065000D01*
X130398061Y-55065000D01*
X130198102Y-55104774D01*
X130009744Y-55182795D01*
X129840226Y-55296063D01*
X129821289Y-55315000D01*
X129648711Y-55315000D01*
X129703937Y-55259774D01*
X129817205Y-55090256D01*
X129895226Y-54901898D01*
X129935000Y-54701939D01*
X129935000Y-54498061D01*
X129914609Y-54395548D01*
X130525158Y-53785000D01*
X130551939Y-53785000D01*
X130751898Y-53745226D01*
X130940256Y-53667205D01*
X131109774Y-53553937D01*
X131253937Y-53409774D01*
X131367205Y-53240256D01*
X131445226Y-53051898D01*
X131485000Y-52851939D01*
X131485000Y-52648061D01*
X131445226Y-52448102D01*
X131367205Y-52259744D01*
X131253937Y-52090226D01*
X131109774Y-51946063D01*
X130940256Y-51832795D01*
X130751898Y-51754774D01*
X130551939Y-51715000D01*
X130481483Y-51715000D01*
X130487764Y-51709845D01*
X130585862Y-51590314D01*
X130658754Y-51453941D01*
X130703641Y-51305968D01*
X130712804Y-51212942D01*
X130876632Y-51103475D01*
X131083475Y-50896632D01*
X131245990Y-50653411D01*
X131357932Y-50383158D01*
X131415000Y-50096260D01*
X131415000Y-49803740D01*
X131394365Y-49700000D01*
X137584630Y-49700000D01*
X137606062Y-49917598D01*
X137669532Y-50126834D01*
X137772604Y-50319666D01*
X137911314Y-50488686D01*
X138080334Y-50627396D01*
X138273166Y-50730468D01*
X138482402Y-50793938D01*
X138645479Y-50810000D01*
X139054521Y-50810000D01*
X139217598Y-50793938D01*
X139426834Y-50730468D01*
X139619666Y-50627396D01*
X139788686Y-50488686D01*
X139927396Y-50319666D01*
X140030468Y-50126834D01*
X140093938Y-49917598D01*
X140115370Y-49700000D01*
X142584630Y-49700000D01*
X142606062Y-49917598D01*
X142669532Y-50126834D01*
X142772604Y-50319666D01*
X142911314Y-50488686D01*
X143080334Y-50627396D01*
X143273166Y-50730468D01*
X143482402Y-50793938D01*
X143645479Y-50810000D01*
X144054521Y-50810000D01*
X144217598Y-50793938D01*
X144426834Y-50730468D01*
X144559400Y-50659609D01*
X159519997Y-50659609D01*
X159706073Y-51000766D01*
X160123409Y-51216513D01*
X160574815Y-51346696D01*
X161042946Y-51386313D01*
X161509811Y-51333842D01*
X161957468Y-51191297D01*
X162313927Y-51000766D01*
X162500003Y-50659609D01*
X161010000Y-49169605D01*
X159519997Y-50659609D01*
X144559400Y-50659609D01*
X144619666Y-50627396D01*
X144788686Y-50488686D01*
X144927396Y-50319666D01*
X145030468Y-50126834D01*
X145093938Y-49917598D01*
X145115370Y-49700000D01*
X145093938Y-49482402D01*
X145030468Y-49273166D01*
X144927396Y-49080334D01*
X144880300Y-49022946D01*
X158613687Y-49022946D01*
X158666158Y-49489811D01*
X158808703Y-49937468D01*
X158999234Y-50293927D01*
X159340391Y-50480003D01*
X160830395Y-48990000D01*
X161189605Y-48990000D01*
X162679609Y-50480003D01*
X163020766Y-50293927D01*
X163236513Y-49876591D01*
X163366696Y-49425185D01*
X163406313Y-48957054D01*
X163353842Y-48490189D01*
X163211297Y-48042532D01*
X163020766Y-47686073D01*
X162679609Y-47499997D01*
X161189605Y-48990000D01*
X160830395Y-48990000D01*
X159340391Y-47499997D01*
X158999234Y-47686073D01*
X158783487Y-48103409D01*
X158653304Y-48554815D01*
X158613687Y-49022946D01*
X144880300Y-49022946D01*
X144788686Y-48911314D01*
X144619666Y-48772604D01*
X144426834Y-48669532D01*
X144217598Y-48606062D01*
X144054521Y-48590000D01*
X143645479Y-48590000D01*
X143482402Y-48606062D01*
X143273166Y-48669532D01*
X143080334Y-48772604D01*
X142911314Y-48911314D01*
X142772604Y-49080334D01*
X142669532Y-49273166D01*
X142606062Y-49482402D01*
X142584630Y-49700000D01*
X140115370Y-49700000D01*
X140093938Y-49482402D01*
X140030468Y-49273166D01*
X139927396Y-49080334D01*
X139788686Y-48911314D01*
X139619666Y-48772604D01*
X139426834Y-48669532D01*
X139217598Y-48606062D01*
X139054521Y-48590000D01*
X138645479Y-48590000D01*
X138482402Y-48606062D01*
X138273166Y-48669532D01*
X138080334Y-48772604D01*
X137911314Y-48911314D01*
X137772604Y-49080334D01*
X137669532Y-49273166D01*
X137606062Y-49482402D01*
X137584630Y-49700000D01*
X131394365Y-49700000D01*
X131357932Y-49516842D01*
X131245990Y-49246589D01*
X131083475Y-49003368D01*
X130876632Y-48796525D01*
X130700594Y-48678900D01*
X130930269Y-48507588D01*
X131125178Y-48291355D01*
X131274157Y-48041252D01*
X131371481Y-47766891D01*
X131250814Y-47537000D01*
X130057000Y-47537000D01*
X130057000Y-47557000D01*
X129803000Y-47557000D01*
X129803000Y-47537000D01*
X129783000Y-47537000D01*
X129783000Y-47283000D01*
X129803000Y-47283000D01*
X129803000Y-46089845D01*
X130057000Y-46089845D01*
X130057000Y-47283000D01*
X131250814Y-47283000D01*
X131371481Y-47053109D01*
X131274157Y-46778748D01*
X131125178Y-46528645D01*
X130930269Y-46312412D01*
X130696920Y-46138359D01*
X130434099Y-46013175D01*
X130286890Y-45968524D01*
X130057000Y-46089845D01*
X129803000Y-46089845D01*
X129573110Y-45968524D01*
X129425901Y-46013175D01*
X129163080Y-46138359D01*
X128929731Y-46312412D01*
X128734822Y-46528645D01*
X128665195Y-46645534D01*
X128543475Y-46463368D01*
X128336632Y-46256525D01*
X128093411Y-46094010D01*
X127823158Y-45982068D01*
X127536260Y-45925000D01*
X127243740Y-45925000D01*
X126956842Y-45982068D01*
X126686589Y-46094010D01*
X126443368Y-46256525D01*
X126236525Y-46463368D01*
X126120000Y-46637760D01*
X126003475Y-46463368D01*
X125796632Y-46256525D01*
X125553411Y-46094010D01*
X125283158Y-45982068D01*
X124996260Y-45925000D01*
X124703740Y-45925000D01*
X124416842Y-45982068D01*
X124146589Y-46094010D01*
X123903368Y-46256525D01*
X123696525Y-46463368D01*
X123534010Y-46706589D01*
X123422068Y-46976842D01*
X123365000Y-47263740D01*
X123365000Y-47556260D01*
X123422068Y-47843158D01*
X123534010Y-48113411D01*
X123696525Y-48356632D01*
X123828380Y-48488487D01*
X123755820Y-48510498D01*
X123645506Y-48569463D01*
X123548815Y-48648815D01*
X123469463Y-48745506D01*
X123410498Y-48855820D01*
X123374188Y-48975518D01*
X123361928Y-49100000D01*
X123361928Y-50800000D01*
X123374188Y-50924482D01*
X123410498Y-51044180D01*
X123469463Y-51154494D01*
X123548815Y-51251185D01*
X123645506Y-51330537D01*
X123755820Y-51389502D01*
X123875518Y-51425812D01*
X124000000Y-51438072D01*
X125700000Y-51438072D01*
X125824482Y-51425812D01*
X125944180Y-51389502D01*
X126054494Y-51330537D01*
X126151185Y-51251185D01*
X126230537Y-51154494D01*
X126289502Y-51044180D01*
X126311513Y-50971620D01*
X126443368Y-51103475D01*
X126686589Y-51265990D01*
X126956842Y-51377932D01*
X127243740Y-51435000D01*
X127536260Y-51435000D01*
X127823158Y-51377932D01*
X128093411Y-51265990D01*
X128336632Y-51103475D01*
X128543475Y-50896632D01*
X128660000Y-50722240D01*
X128776525Y-50896632D01*
X128925908Y-51046015D01*
X127972188Y-51999736D01*
X127956924Y-52015000D01*
X123428711Y-52015000D01*
X123409774Y-51996063D01*
X123240256Y-51882795D01*
X123051898Y-51804774D01*
X122851939Y-51765000D01*
X122648061Y-51765000D01*
X122448102Y-51804774D01*
X122259744Y-51882795D01*
X122090226Y-51996063D01*
X121946063Y-52140226D01*
X121832795Y-52309744D01*
X121754774Y-52498102D01*
X121715000Y-52698061D01*
X121715000Y-52901939D01*
X121754774Y-53101898D01*
X121832795Y-53290256D01*
X121946063Y-53459774D01*
X122090226Y-53603937D01*
X122259744Y-53717205D01*
X122448102Y-53795226D01*
X122648061Y-53835000D01*
X122851939Y-53835000D01*
X123051898Y-53795226D01*
X123240256Y-53717205D01*
X123409774Y-53603937D01*
X123428711Y-53585000D01*
X128243528Y-53585000D01*
X128282081Y-53588797D01*
X128320634Y-53585000D01*
X128320642Y-53585000D01*
X128435968Y-53573641D01*
X128551138Y-53538705D01*
X128401619Y-53688224D01*
X128240226Y-53796063D01*
X128096063Y-53940226D01*
X127982795Y-54109744D01*
X127904774Y-54298102D01*
X127865000Y-54498061D01*
X127865000Y-54701939D01*
X127904774Y-54901898D01*
X127982795Y-55090256D01*
X128096063Y-55259774D01*
X128151289Y-55315000D01*
X118159473Y-55315000D01*
X117762127Y-54917655D01*
X114901627Y-52057155D01*
X114945226Y-51951898D01*
X114985000Y-51751939D01*
X114985000Y-51548061D01*
X114945226Y-51348102D01*
X114867205Y-51159744D01*
X114753937Y-50990226D01*
X114609774Y-50846063D01*
X114440256Y-50732795D01*
X114251898Y-50654774D01*
X114051939Y-50615000D01*
X113848061Y-50615000D01*
X113648102Y-50654774D01*
X113459744Y-50732795D01*
X113290226Y-50846063D01*
X113146063Y-50990226D01*
X113032795Y-51159744D01*
X112954774Y-51348102D01*
X112915000Y-51548061D01*
X100710000Y-51548061D01*
X100710000Y-50669609D01*
X102509997Y-50669609D01*
X102696073Y-51010766D01*
X103113409Y-51226513D01*
X103564815Y-51356696D01*
X104032946Y-51396313D01*
X104499811Y-51343842D01*
X104947468Y-51201297D01*
X105303927Y-51010766D01*
X105490003Y-50669609D01*
X104000000Y-49179605D01*
X102509997Y-50669609D01*
X100710000Y-50669609D01*
X100710000Y-49034721D01*
X100710174Y-49032946D01*
X101603687Y-49032946D01*
X101656158Y-49499811D01*
X101798703Y-49947468D01*
X101989234Y-50303927D01*
X102330391Y-50490003D01*
X103820395Y-49000000D01*
X104179605Y-49000000D01*
X105669609Y-50490003D01*
X106010766Y-50303927D01*
X106226513Y-49886591D01*
X106356696Y-49435185D01*
X106396313Y-48967054D01*
X106343842Y-48500189D01*
X106296019Y-48350000D01*
X116281928Y-48350000D01*
X116294188Y-48474482D01*
X116330498Y-48594180D01*
X116389463Y-48704494D01*
X116468815Y-48801185D01*
X116565506Y-48880537D01*
X116675820Y-48939502D01*
X116748380Y-48961513D01*
X116616525Y-49093368D01*
X116454010Y-49336589D01*
X116342068Y-49606842D01*
X116285000Y-49893740D01*
X116285000Y-50186260D01*
X116342068Y-50473158D01*
X116454010Y-50743411D01*
X116616525Y-50986632D01*
X116823368Y-51193475D01*
X117066589Y-51355990D01*
X117336842Y-51467932D01*
X117623740Y-51525000D01*
X117916260Y-51525000D01*
X118203158Y-51467932D01*
X118473411Y-51355990D01*
X118716632Y-51193475D01*
X118923475Y-50986632D01*
X119050001Y-50797273D01*
X119050000Y-51933995D01*
X119032795Y-51959744D01*
X118954774Y-52148102D01*
X118915000Y-52348061D01*
X118915000Y-52551939D01*
X118954774Y-52751898D01*
X119032795Y-52940256D01*
X119146063Y-53109774D01*
X119290226Y-53253937D01*
X119459744Y-53367205D01*
X119648102Y-53445226D01*
X119848061Y-53485000D01*
X120051939Y-53485000D01*
X120251898Y-53445226D01*
X120440256Y-53367205D01*
X120609774Y-53253937D01*
X120753937Y-53109774D01*
X120867205Y-52940256D01*
X120945226Y-52751898D01*
X120985000Y-52551939D01*
X120985000Y-52348061D01*
X120945226Y-52148102D01*
X120867205Y-51959744D01*
X120850000Y-51933995D01*
X120850000Y-50316005D01*
X120867205Y-50290256D01*
X120945226Y-50101898D01*
X120985000Y-49901939D01*
X120985000Y-49698061D01*
X120945226Y-49498102D01*
X120867205Y-49309744D01*
X120753937Y-49140226D01*
X120609774Y-48996063D01*
X120440256Y-48882795D01*
X120251898Y-48804774D01*
X120051939Y-48765000D01*
X119848061Y-48765000D01*
X119648102Y-48804774D01*
X119459744Y-48882795D01*
X119290226Y-48996063D01*
X119146063Y-49140226D01*
X119050424Y-49283360D01*
X118923475Y-49093368D01*
X118791620Y-48961513D01*
X118864180Y-48939502D01*
X118974494Y-48880537D01*
X119071185Y-48801185D01*
X119150537Y-48704494D01*
X119209502Y-48594180D01*
X119245812Y-48474482D01*
X119258072Y-48350000D01*
X119255000Y-47785750D01*
X119096250Y-47627000D01*
X117897000Y-47627000D01*
X117897000Y-47647000D01*
X117643000Y-47647000D01*
X117643000Y-47627000D01*
X116443750Y-47627000D01*
X116285000Y-47785750D01*
X116281928Y-48350000D01*
X106296019Y-48350000D01*
X106201297Y-48052532D01*
X106010766Y-47696073D01*
X105669609Y-47509997D01*
X104179605Y-49000000D01*
X103820395Y-49000000D01*
X102330391Y-47509997D01*
X101989234Y-47696073D01*
X101773487Y-48113409D01*
X101643304Y-48564815D01*
X101603687Y-49032946D01*
X100710174Y-49032946D01*
X100775998Y-48361630D01*
X100961392Y-47747576D01*
X101183213Y-47330391D01*
X102509997Y-47330391D01*
X104000000Y-48820395D01*
X105490003Y-47330391D01*
X105303927Y-46989234D01*
X104886591Y-46773487D01*
X104458404Y-46650000D01*
X116281928Y-46650000D01*
X116285000Y-47214250D01*
X116443750Y-47373000D01*
X117643000Y-47373000D01*
X117643000Y-46173750D01*
X117897000Y-46173750D01*
X117897000Y-47373000D01*
X119096250Y-47373000D01*
X119255000Y-47214250D01*
X119258072Y-46650000D01*
X119245812Y-46525518D01*
X119209502Y-46405820D01*
X119150537Y-46295506D01*
X119071185Y-46198815D01*
X118974494Y-46119463D01*
X118864180Y-46060498D01*
X118744482Y-46024188D01*
X118620000Y-46011928D01*
X118055750Y-46015000D01*
X117897000Y-46173750D01*
X117643000Y-46173750D01*
X117484250Y-46015000D01*
X116920000Y-46011928D01*
X116795518Y-46024188D01*
X116675820Y-46060498D01*
X116565506Y-46119463D01*
X116468815Y-46198815D01*
X116389463Y-46295506D01*
X116330498Y-46405820D01*
X116294188Y-46525518D01*
X116281928Y-46650000D01*
X104458404Y-46650000D01*
X104435185Y-46643304D01*
X103967054Y-46603687D01*
X103500189Y-46656158D01*
X103052532Y-46798703D01*
X102696073Y-46989234D01*
X102509997Y-47330391D01*
X101183213Y-47330391D01*
X101262525Y-47181227D01*
X101667928Y-46684152D01*
X102162159Y-46275288D01*
X102726389Y-45970210D01*
X103339137Y-45780533D01*
X104010204Y-45710000D01*
X137341196Y-45710000D01*
X137216378Y-45776716D01*
M02*
