G04 #@! TF.GenerationSoftware,KiCad,Pcbnew,5.1.5-52549c5~84~ubuntu18.04.1*
G04 #@! TF.CreationDate,2020-01-13T18:21:35+00:00*
G04 #@! TF.ProjectId,sangaboard_v0.3,73616e67-6162-46f6-9172-645f76302e33,0.3*
G04 #@! TF.SameCoordinates,Original*
G04 #@! TF.FileFunction,Legend,Top*
G04 #@! TF.FilePolarity,Positive*
%FSLAX46Y46*%
G04 Gerber Fmt 4.6, Leading zero omitted, Abs format (unit mm)*
G04 Created by KiCad (PCBNEW 5.1.5-52549c5~84~ubuntu18.04.1) date 2020-01-13 18:21:35*
%MOMM*%
%LPD*%
G04 APERTURE LIST*
%ADD10C,0.200000*%
%ADD11C,0.125000*%
%ADD12C,0.175000*%
%ADD13C,0.300000*%
%ADD14C,0.120000*%
%ADD15C,0.150000*%
%ADD16C,0.100000*%
G04 APERTURE END LIST*
D10*
X122871904Y-47742380D02*
X122071904Y-47742380D01*
X122833809Y-47399523D02*
X122871904Y-47285238D01*
X122871904Y-47094761D01*
X122833809Y-47018571D01*
X122795714Y-46980476D01*
X122719523Y-46942380D01*
X122643333Y-46942380D01*
X122567142Y-46980476D01*
X122529047Y-47018571D01*
X122490952Y-47094761D01*
X122452857Y-47247142D01*
X122414761Y-47323333D01*
X122376666Y-47361428D01*
X122300476Y-47399523D01*
X122224285Y-47399523D01*
X122148095Y-47361428D01*
X122110000Y-47323333D01*
X122071904Y-47247142D01*
X122071904Y-47056666D01*
X122110000Y-46942380D01*
X122871904Y-46599523D02*
X122071904Y-46599523D01*
X122071904Y-46294761D01*
X122110000Y-46218571D01*
X122148095Y-46180476D01*
X122224285Y-46142380D01*
X122338571Y-46142380D01*
X122414761Y-46180476D01*
X122452857Y-46218571D01*
X122490952Y-46294761D01*
X122490952Y-46599523D01*
X101981904Y-92040476D02*
X101181904Y-92040476D01*
X101181904Y-91735714D01*
X101220000Y-91659523D01*
X101258095Y-91621428D01*
X101334285Y-91583333D01*
X101448571Y-91583333D01*
X101524761Y-91621428D01*
X101562857Y-91659523D01*
X101600952Y-91735714D01*
X101600952Y-92040476D01*
X101181904Y-91316666D02*
X101981904Y-91126190D01*
X101410476Y-90973809D01*
X101981904Y-90821428D01*
X101181904Y-90630952D01*
X101981904Y-89869047D02*
X101600952Y-90135714D01*
X101981904Y-90326190D02*
X101181904Y-90326190D01*
X101181904Y-90021428D01*
X101220000Y-89945238D01*
X101258095Y-89907142D01*
X101334285Y-89869047D01*
X101448571Y-89869047D01*
X101524761Y-89907142D01*
X101562857Y-89945238D01*
X101600952Y-90021428D01*
X101600952Y-90326190D01*
X101981904Y-88916666D02*
X101181904Y-88916666D01*
X101181904Y-88611904D01*
X101220000Y-88535714D01*
X101258095Y-88497619D01*
X101334285Y-88459523D01*
X101448571Y-88459523D01*
X101524761Y-88497619D01*
X101562857Y-88535714D01*
X101600952Y-88611904D01*
X101600952Y-88916666D01*
X101981904Y-87773809D02*
X101562857Y-87773809D01*
X101486666Y-87811904D01*
X101448571Y-87888095D01*
X101448571Y-88040476D01*
X101486666Y-88116666D01*
X101943809Y-87773809D02*
X101981904Y-87850000D01*
X101981904Y-88040476D01*
X101943809Y-88116666D01*
X101867619Y-88154761D01*
X101791428Y-88154761D01*
X101715238Y-88116666D01*
X101677142Y-88040476D01*
X101677142Y-87850000D01*
X101639047Y-87773809D01*
X101943809Y-87050000D02*
X101981904Y-87126190D01*
X101981904Y-87278571D01*
X101943809Y-87354761D01*
X101905714Y-87392857D01*
X101829523Y-87430952D01*
X101600952Y-87430952D01*
X101524761Y-87392857D01*
X101486666Y-87354761D01*
X101448571Y-87278571D01*
X101448571Y-87126190D01*
X101486666Y-87050000D01*
X101981904Y-86707142D02*
X101181904Y-86707142D01*
X101677142Y-86630952D02*
X101981904Y-86402380D01*
X101448571Y-86402380D02*
X101753333Y-86707142D01*
X159291428Y-77991904D02*
X159291428Y-78639523D01*
X159329523Y-78715714D01*
X159367619Y-78753809D01*
X159443809Y-78791904D01*
X159596190Y-78791904D01*
X159672380Y-78753809D01*
X159710476Y-78715714D01*
X159748571Y-78639523D01*
X159748571Y-77991904D01*
X160510476Y-78791904D02*
X160129523Y-78791904D01*
X160129523Y-77991904D01*
X160777142Y-78791904D02*
X160777142Y-77991904D01*
X161234285Y-78791904D01*
X161234285Y-77991904D01*
X162186666Y-78563333D02*
X162567619Y-78563333D01*
X162110476Y-78791904D02*
X162377142Y-77991904D01*
X162643809Y-78791904D01*
X162910476Y-77991904D02*
X162910476Y-78639523D01*
X162948571Y-78715714D01*
X162986666Y-78753809D01*
X163062857Y-78791904D01*
X163215238Y-78791904D01*
X163291428Y-78753809D01*
X163329523Y-78715714D01*
X163367619Y-78639523D01*
X163367619Y-77991904D01*
X163672380Y-77991904D02*
X164205714Y-78791904D01*
X164205714Y-77991904D02*
X163672380Y-78791904D01*
X161580476Y-60370000D02*
X161504285Y-60331904D01*
X161390000Y-60331904D01*
X161275714Y-60370000D01*
X161199523Y-60446190D01*
X161161428Y-60522380D01*
X161123333Y-60674761D01*
X161123333Y-60789047D01*
X161161428Y-60941428D01*
X161199523Y-61017619D01*
X161275714Y-61093809D01*
X161390000Y-61131904D01*
X161466190Y-61131904D01*
X161580476Y-61093809D01*
X161618571Y-61055714D01*
X161618571Y-60789047D01*
X161466190Y-60789047D01*
X161961428Y-61131904D02*
X161961428Y-60331904D01*
X162266190Y-60331904D01*
X162342380Y-60370000D01*
X162380476Y-60408095D01*
X162418571Y-60484285D01*
X162418571Y-60598571D01*
X162380476Y-60674761D01*
X162342380Y-60712857D01*
X162266190Y-60750952D01*
X161961428Y-60750952D01*
X162761428Y-61131904D02*
X162761428Y-60331904D01*
X163294761Y-60331904D02*
X163447142Y-60331904D01*
X163523333Y-60370000D01*
X163599523Y-60446190D01*
X163637619Y-60598571D01*
X163637619Y-60865238D01*
X163599523Y-61017619D01*
X163523333Y-61093809D01*
X163447142Y-61131904D01*
X163294761Y-61131904D01*
X163218571Y-61093809D01*
X163142380Y-61017619D01*
X163104285Y-60865238D01*
X163104285Y-60598571D01*
X163142380Y-60446190D01*
X163218571Y-60370000D01*
X163294761Y-60331904D01*
X149774285Y-80233333D02*
X150155238Y-80233333D01*
X149698095Y-80461904D02*
X149964761Y-79661904D01*
X150231428Y-80461904D01*
X150498095Y-80157142D02*
X151107619Y-80157142D01*
X151488571Y-80042857D02*
X151755238Y-80042857D01*
X151869523Y-80461904D02*
X151488571Y-80461904D01*
X151488571Y-79661904D01*
X151869523Y-79661904D01*
X152212380Y-80461904D02*
X152212380Y-79661904D01*
X152669523Y-80461904D01*
X152669523Y-79661904D01*
X153317142Y-80042857D02*
X153431428Y-80080952D01*
X153469523Y-80119047D01*
X153507619Y-80195238D01*
X153507619Y-80309523D01*
X153469523Y-80385714D01*
X153431428Y-80423809D01*
X153355238Y-80461904D01*
X153050476Y-80461904D01*
X153050476Y-79661904D01*
X153317142Y-79661904D01*
X153393333Y-79700000D01*
X153431428Y-79738095D01*
X153469523Y-79814285D01*
X153469523Y-79890476D01*
X153431428Y-79966666D01*
X153393333Y-80004761D01*
X153317142Y-80042857D01*
X153050476Y-80042857D01*
X149454761Y-70022857D02*
X149721428Y-70022857D01*
X149835714Y-70441904D02*
X149454761Y-70441904D01*
X149454761Y-69641904D01*
X149835714Y-69641904D01*
X150178571Y-70137142D02*
X150788095Y-70137142D01*
X151130952Y-70403809D02*
X151245238Y-70441904D01*
X151435714Y-70441904D01*
X151511904Y-70403809D01*
X151550000Y-70365714D01*
X151588095Y-70289523D01*
X151588095Y-70213333D01*
X151550000Y-70137142D01*
X151511904Y-70099047D01*
X151435714Y-70060952D01*
X151283333Y-70022857D01*
X151207142Y-69984761D01*
X151169047Y-69946666D01*
X151130952Y-69870476D01*
X151130952Y-69794285D01*
X151169047Y-69718095D01*
X151207142Y-69680000D01*
X151283333Y-69641904D01*
X151473809Y-69641904D01*
X151588095Y-69680000D01*
X151816666Y-69641904D02*
X152273809Y-69641904D01*
X152045238Y-70441904D02*
X152045238Y-69641904D01*
X152692857Y-69641904D02*
X152845238Y-69641904D01*
X152921428Y-69680000D01*
X152997619Y-69756190D01*
X153035714Y-69908571D01*
X153035714Y-70175238D01*
X152997619Y-70327619D01*
X152921428Y-70403809D01*
X152845238Y-70441904D01*
X152692857Y-70441904D01*
X152616666Y-70403809D01*
X152540476Y-70327619D01*
X152502380Y-70175238D01*
X152502380Y-69908571D01*
X152540476Y-69756190D01*
X152616666Y-69680000D01*
X152692857Y-69641904D01*
X153378571Y-70441904D02*
X153378571Y-69641904D01*
X153683333Y-69641904D01*
X153759523Y-69680000D01*
X153797619Y-69718095D01*
X153835714Y-69794285D01*
X153835714Y-69908571D01*
X153797619Y-69984761D01*
X153759523Y-70022857D01*
X153683333Y-70060952D01*
X153378571Y-70060952D01*
X154140476Y-70403809D02*
X154254761Y-70441904D01*
X154445238Y-70441904D01*
X154521428Y-70403809D01*
X154559523Y-70365714D01*
X154597619Y-70289523D01*
X154597619Y-70213333D01*
X154559523Y-70137142D01*
X154521428Y-70099047D01*
X154445238Y-70060952D01*
X154292857Y-70022857D01*
X154216666Y-69984761D01*
X154178571Y-69946666D01*
X154140476Y-69870476D01*
X154140476Y-69794285D01*
X154178571Y-69718095D01*
X154216666Y-69680000D01*
X154292857Y-69641904D01*
X154483333Y-69641904D01*
X154597619Y-69680000D01*
X149393809Y-62823809D02*
X149508095Y-62861904D01*
X149698571Y-62861904D01*
X149774761Y-62823809D01*
X149812857Y-62785714D01*
X149850952Y-62709523D01*
X149850952Y-62633333D01*
X149812857Y-62557142D01*
X149774761Y-62519047D01*
X149698571Y-62480952D01*
X149546190Y-62442857D01*
X149470000Y-62404761D01*
X149431904Y-62366666D01*
X149393809Y-62290476D01*
X149393809Y-62214285D01*
X149431904Y-62138095D01*
X149470000Y-62100000D01*
X149546190Y-62061904D01*
X149736666Y-62061904D01*
X149850952Y-62100000D01*
X150498571Y-62823809D02*
X150422380Y-62861904D01*
X150270000Y-62861904D01*
X150193809Y-62823809D01*
X150155714Y-62747619D01*
X150155714Y-62442857D01*
X150193809Y-62366666D01*
X150270000Y-62328571D01*
X150422380Y-62328571D01*
X150498571Y-62366666D01*
X150536666Y-62442857D01*
X150536666Y-62519047D01*
X150155714Y-62595238D01*
X150879523Y-62861904D02*
X150879523Y-62328571D01*
X150879523Y-62480952D02*
X150917619Y-62404761D01*
X150955714Y-62366666D01*
X151031904Y-62328571D01*
X151108095Y-62328571D01*
X151374761Y-62861904D02*
X151374761Y-62328571D01*
X151374761Y-62061904D02*
X151336666Y-62100000D01*
X151374761Y-62138095D01*
X151412857Y-62100000D01*
X151374761Y-62061904D01*
X151374761Y-62138095D01*
X152098571Y-62861904D02*
X152098571Y-62442857D01*
X152060476Y-62366666D01*
X151984285Y-62328571D01*
X151831904Y-62328571D01*
X151755714Y-62366666D01*
X152098571Y-62823809D02*
X152022380Y-62861904D01*
X151831904Y-62861904D01*
X151755714Y-62823809D01*
X151717619Y-62747619D01*
X151717619Y-62671428D01*
X151755714Y-62595238D01*
X151831904Y-62557142D01*
X152022380Y-62557142D01*
X152098571Y-62519047D01*
X152593809Y-62861904D02*
X152517619Y-62823809D01*
X152479523Y-62747619D01*
X152479523Y-62061904D01*
X153317619Y-62861904D02*
X152860476Y-62861904D01*
X153089047Y-62861904D02*
X153089047Y-62061904D01*
X153012857Y-62176190D01*
X152936666Y-62252380D01*
X152860476Y-62290476D01*
X151267619Y-55401904D02*
X151267619Y-54601904D01*
X151610476Y-54678095D02*
X151648571Y-54640000D01*
X151724761Y-54601904D01*
X151915238Y-54601904D01*
X151991428Y-54640000D01*
X152029523Y-54678095D01*
X152067619Y-54754285D01*
X152067619Y-54830476D01*
X152029523Y-54944761D01*
X151572380Y-55401904D01*
X152067619Y-55401904D01*
X152867619Y-55325714D02*
X152829523Y-55363809D01*
X152715238Y-55401904D01*
X152639047Y-55401904D01*
X152524761Y-55363809D01*
X152448571Y-55287619D01*
X152410476Y-55211428D01*
X152372380Y-55059047D01*
X152372380Y-54944761D01*
X152410476Y-54792380D01*
X152448571Y-54716190D01*
X152524761Y-54640000D01*
X152639047Y-54601904D01*
X152715238Y-54601904D01*
X152829523Y-54640000D01*
X152867619Y-54678095D01*
X140310000Y-51101904D02*
X140310000Y-51749523D01*
X140348095Y-51825714D01*
X140386190Y-51863809D01*
X140462380Y-51901904D01*
X140614761Y-51901904D01*
X140690952Y-51863809D01*
X140729047Y-51825714D01*
X140767142Y-51749523D01*
X140767142Y-51101904D01*
X141110000Y-51863809D02*
X141224285Y-51901904D01*
X141414761Y-51901904D01*
X141490952Y-51863809D01*
X141529047Y-51825714D01*
X141567142Y-51749523D01*
X141567142Y-51673333D01*
X141529047Y-51597142D01*
X141490952Y-51559047D01*
X141414761Y-51520952D01*
X141262380Y-51482857D01*
X141186190Y-51444761D01*
X141148095Y-51406666D01*
X141110000Y-51330476D01*
X141110000Y-51254285D01*
X141148095Y-51178095D01*
X141186190Y-51140000D01*
X141262380Y-51101904D01*
X141452857Y-51101904D01*
X141567142Y-51140000D01*
X142176666Y-51482857D02*
X142290952Y-51520952D01*
X142329047Y-51559047D01*
X142367142Y-51635238D01*
X142367142Y-51749523D01*
X142329047Y-51825714D01*
X142290952Y-51863809D01*
X142214761Y-51901904D01*
X141910000Y-51901904D01*
X141910000Y-51101904D01*
X142176666Y-51101904D01*
X142252857Y-51140000D01*
X142290952Y-51178095D01*
X142329047Y-51254285D01*
X142329047Y-51330476D01*
X142290952Y-51406666D01*
X142252857Y-51444761D01*
X142176666Y-51482857D01*
X141910000Y-51482857D01*
X143319523Y-51901904D02*
X143319523Y-51101904D01*
X143510000Y-51101904D01*
X143624285Y-51140000D01*
X143700476Y-51216190D01*
X143738571Y-51292380D01*
X143776666Y-51444761D01*
X143776666Y-51559047D01*
X143738571Y-51711428D01*
X143700476Y-51787619D01*
X143624285Y-51863809D01*
X143510000Y-51901904D01*
X143319523Y-51901904D01*
X144081428Y-51673333D02*
X144462380Y-51673333D01*
X144005238Y-51901904D02*
X144271904Y-51101904D01*
X144538571Y-51901904D01*
X144690952Y-51101904D02*
X145148095Y-51101904D01*
X144919523Y-51901904D02*
X144919523Y-51101904D01*
X145376666Y-51673333D02*
X145757619Y-51673333D01*
X145300476Y-51901904D02*
X145567142Y-51101904D01*
X145833809Y-51901904D01*
X118031904Y-80687142D02*
X117231904Y-80687142D01*
X117803333Y-80420476D01*
X117231904Y-80153809D01*
X118031904Y-80153809D01*
X117231904Y-79887142D02*
X117231904Y-79430000D01*
X118031904Y-79658571D02*
X117231904Y-79658571D01*
X118031904Y-78706190D02*
X117650952Y-78972857D01*
X118031904Y-79163333D02*
X117231904Y-79163333D01*
X117231904Y-78858571D01*
X117270000Y-78782380D01*
X117308095Y-78744285D01*
X117384285Y-78706190D01*
X117498571Y-78706190D01*
X117574761Y-78744285D01*
X117612857Y-78782380D01*
X117650952Y-78858571D01*
X117650952Y-79163333D01*
X118031904Y-77753809D02*
X117231904Y-77753809D01*
X117231904Y-77449047D01*
X117270000Y-77372857D01*
X117308095Y-77334761D01*
X117384285Y-77296666D01*
X117498571Y-77296666D01*
X117574761Y-77334761D01*
X117612857Y-77372857D01*
X117650952Y-77449047D01*
X117650952Y-77753809D01*
X117231904Y-77030000D02*
X118031904Y-76839523D01*
X117460476Y-76687142D01*
X118031904Y-76534761D01*
X117231904Y-76344285D01*
X118031904Y-75582380D02*
X117650952Y-75849047D01*
X118031904Y-76039523D02*
X117231904Y-76039523D01*
X117231904Y-75734761D01*
X117270000Y-75658571D01*
X117308095Y-75620476D01*
X117384285Y-75582380D01*
X117498571Y-75582380D01*
X117574761Y-75620476D01*
X117612857Y-75658571D01*
X117650952Y-75734761D01*
X117650952Y-76039523D01*
X107834285Y-45981904D02*
X107986666Y-45981904D01*
X108062857Y-46020000D01*
X108139047Y-46096190D01*
X108177142Y-46248571D01*
X108177142Y-46515238D01*
X108139047Y-46667619D01*
X108062857Y-46743809D01*
X107986666Y-46781904D01*
X107834285Y-46781904D01*
X107758095Y-46743809D01*
X107681904Y-46667619D01*
X107643809Y-46515238D01*
X107643809Y-46248571D01*
X107681904Y-46096190D01*
X107758095Y-46020000D01*
X107834285Y-45981904D01*
X108520000Y-46781904D02*
X108520000Y-45981904D01*
X108977142Y-46781904D01*
X108977142Y-45981904D01*
X109853333Y-45981904D02*
X110310476Y-45981904D01*
X110081904Y-46781904D02*
X110081904Y-45981904D01*
X110500952Y-45981904D02*
X111034285Y-46781904D01*
X111034285Y-45981904D02*
X110500952Y-46781904D01*
X112405714Y-46781904D02*
X112139047Y-46400952D01*
X111948571Y-46781904D02*
X111948571Y-45981904D01*
X112253333Y-45981904D01*
X112329523Y-46020000D01*
X112367619Y-46058095D01*
X112405714Y-46134285D01*
X112405714Y-46248571D01*
X112367619Y-46324761D01*
X112329523Y-46362857D01*
X112253333Y-46400952D01*
X111948571Y-46400952D01*
X112672380Y-45981904D02*
X113205714Y-46781904D01*
X113205714Y-45981904D02*
X112672380Y-46781904D01*
X101076666Y-57281904D02*
X101076666Y-57929523D01*
X101114761Y-58005714D01*
X101152857Y-58043809D01*
X101229047Y-58081904D01*
X101381428Y-58081904D01*
X101457619Y-58043809D01*
X101495714Y-58005714D01*
X101533809Y-57929523D01*
X101533809Y-57281904D01*
X101876666Y-58043809D02*
X101990952Y-58081904D01*
X102181428Y-58081904D01*
X102257619Y-58043809D01*
X102295714Y-58005714D01*
X102333809Y-57929523D01*
X102333809Y-57853333D01*
X102295714Y-57777142D01*
X102257619Y-57739047D01*
X102181428Y-57700952D01*
X102029047Y-57662857D01*
X101952857Y-57624761D01*
X101914761Y-57586666D01*
X101876666Y-57510476D01*
X101876666Y-57434285D01*
X101914761Y-57358095D01*
X101952857Y-57320000D01*
X102029047Y-57281904D01*
X102219523Y-57281904D01*
X102333809Y-57320000D01*
X102943333Y-57662857D02*
X103057619Y-57700952D01*
X103095714Y-57739047D01*
X103133809Y-57815238D01*
X103133809Y-57929523D01*
X103095714Y-58005714D01*
X103057619Y-58043809D01*
X102981428Y-58081904D01*
X102676666Y-58081904D01*
X102676666Y-57281904D01*
X102943333Y-57281904D01*
X103019523Y-57320000D01*
X103057619Y-57358095D01*
X103095714Y-57434285D01*
X103095714Y-57510476D01*
X103057619Y-57586666D01*
X103019523Y-57624761D01*
X102943333Y-57662857D01*
X102676666Y-57662857D01*
X104086190Y-58081904D02*
X104086190Y-57281904D01*
X104390952Y-57281904D01*
X104467142Y-57320000D01*
X104505238Y-57358095D01*
X104543333Y-57434285D01*
X104543333Y-57548571D01*
X104505238Y-57624761D01*
X104467142Y-57662857D01*
X104390952Y-57700952D01*
X104086190Y-57700952D01*
X104810000Y-57281904D02*
X105000476Y-58081904D01*
X105152857Y-57510476D01*
X105305238Y-58081904D01*
X105495714Y-57281904D01*
X106257619Y-58081904D02*
X105990952Y-57700952D01*
X105800476Y-58081904D02*
X105800476Y-57281904D01*
X106105238Y-57281904D01*
X106181428Y-57320000D01*
X106219523Y-57358095D01*
X106257619Y-57434285D01*
X106257619Y-57548571D01*
X106219523Y-57624761D01*
X106181428Y-57662857D01*
X106105238Y-57700952D01*
X105800476Y-57700952D01*
X109471904Y-75529047D02*
X108671904Y-75529047D01*
X108671904Y-75224285D01*
X108710000Y-75148095D01*
X108748095Y-75110000D01*
X108824285Y-75071904D01*
X108938571Y-75071904D01*
X109014761Y-75110000D01*
X109052857Y-75148095D01*
X109090952Y-75224285D01*
X109090952Y-75529047D01*
X108671904Y-74805238D02*
X109471904Y-74614761D01*
X108900476Y-74462380D01*
X109471904Y-74310000D01*
X108671904Y-74119523D01*
X109471904Y-73357619D02*
X109090952Y-73624285D01*
X109471904Y-73814761D02*
X108671904Y-73814761D01*
X108671904Y-73510000D01*
X108710000Y-73433809D01*
X108748095Y-73395714D01*
X108824285Y-73357619D01*
X108938571Y-73357619D01*
X109014761Y-73395714D01*
X109052857Y-73433809D01*
X109090952Y-73510000D01*
X109090952Y-73814761D01*
X109548095Y-73205238D02*
X109548095Y-72595714D01*
X108671904Y-72252857D02*
X108671904Y-72100476D01*
X108710000Y-72024285D01*
X108786190Y-71948095D01*
X108938571Y-71910000D01*
X109205238Y-71910000D01*
X109357619Y-71948095D01*
X109433809Y-72024285D01*
X109471904Y-72100476D01*
X109471904Y-72252857D01*
X109433809Y-72329047D01*
X109357619Y-72405238D01*
X109205238Y-72443333D01*
X108938571Y-72443333D01*
X108786190Y-72405238D01*
X108710000Y-72329047D01*
X108671904Y-72252857D01*
X108671904Y-71567142D02*
X109319523Y-71567142D01*
X109395714Y-71529047D01*
X109433809Y-71490952D01*
X109471904Y-71414761D01*
X109471904Y-71262380D01*
X109433809Y-71186190D01*
X109395714Y-71148095D01*
X109319523Y-71110000D01*
X108671904Y-71110000D01*
X108671904Y-70843333D02*
X108671904Y-70386190D01*
X109471904Y-70614761D02*
X108671904Y-70614761D01*
X108931904Y-86867619D02*
X109731904Y-86600952D01*
X108931904Y-86334285D01*
X109427142Y-86067619D02*
X109427142Y-85458095D01*
X109731904Y-84696190D02*
X109731904Y-85077142D01*
X108931904Y-85077142D01*
X109693809Y-84124761D02*
X109731904Y-84200952D01*
X109731904Y-84353333D01*
X109693809Y-84429523D01*
X109617619Y-84467619D01*
X109312857Y-84467619D01*
X109236666Y-84429523D01*
X109198571Y-84353333D01*
X109198571Y-84200952D01*
X109236666Y-84124761D01*
X109312857Y-84086666D01*
X109389047Y-84086666D01*
X109465238Y-84467619D01*
X109198571Y-83820000D02*
X109731904Y-83629523D01*
X109198571Y-83439047D01*
X109693809Y-82829523D02*
X109731904Y-82905714D01*
X109731904Y-83058095D01*
X109693809Y-83134285D01*
X109617619Y-83172380D01*
X109312857Y-83172380D01*
X109236666Y-83134285D01*
X109198571Y-83058095D01*
X109198571Y-82905714D01*
X109236666Y-82829523D01*
X109312857Y-82791428D01*
X109389047Y-82791428D01*
X109465238Y-83172380D01*
X109731904Y-82334285D02*
X109693809Y-82410476D01*
X109617619Y-82448571D01*
X108931904Y-82448571D01*
X163651904Y-86803809D02*
X163651904Y-87184761D01*
X164032857Y-87222857D01*
X163994761Y-87184761D01*
X163956666Y-87108571D01*
X163956666Y-86918095D01*
X163994761Y-86841904D01*
X164032857Y-86803809D01*
X164109047Y-86765714D01*
X164299523Y-86765714D01*
X164375714Y-86803809D01*
X164413809Y-86841904D01*
X164451904Y-86918095D01*
X164451904Y-87108571D01*
X164413809Y-87184761D01*
X164375714Y-87222857D01*
X163651904Y-86537142D02*
X164451904Y-86270476D01*
X163651904Y-86003809D01*
X164756666Y-85508571D02*
X164718571Y-85546666D01*
X164604285Y-85622857D01*
X164528095Y-85660952D01*
X164413809Y-85699047D01*
X164223333Y-85737142D01*
X164070952Y-85737142D01*
X163880476Y-85699047D01*
X163766190Y-85660952D01*
X163690000Y-85622857D01*
X163575714Y-85546666D01*
X163537619Y-85508571D01*
X163651904Y-85318095D02*
X164451904Y-85051428D01*
X163651904Y-84784761D01*
X164451904Y-84518095D02*
X163651904Y-84518095D01*
X164223333Y-84251428D01*
X163651904Y-83984761D01*
X164451904Y-83984761D01*
X164451904Y-83489523D02*
X164413809Y-83565714D01*
X164375714Y-83603809D01*
X164299523Y-83641904D01*
X164070952Y-83641904D01*
X163994761Y-83603809D01*
X163956666Y-83565714D01*
X163918571Y-83489523D01*
X163918571Y-83375238D01*
X163956666Y-83299047D01*
X163994761Y-83260952D01*
X164070952Y-83222857D01*
X164299523Y-83222857D01*
X164375714Y-83260952D01*
X164413809Y-83299047D01*
X164451904Y-83375238D01*
X164451904Y-83489523D01*
X163918571Y-82994285D02*
X163918571Y-82689523D01*
X163651904Y-82880000D02*
X164337619Y-82880000D01*
X164413809Y-82841904D01*
X164451904Y-82765714D01*
X164451904Y-82689523D01*
X164756666Y-82499047D02*
X164718571Y-82460952D01*
X164604285Y-82384761D01*
X164528095Y-82346666D01*
X164413809Y-82308571D01*
X164223333Y-82270476D01*
X164070952Y-82270476D01*
X163880476Y-82308571D01*
X163766190Y-82346666D01*
X163690000Y-82384761D01*
X163575714Y-82460952D01*
X163537619Y-82499047D01*
X153390000Y-76724761D02*
X153351904Y-76800952D01*
X153351904Y-76915238D01*
X153390000Y-77029523D01*
X153466190Y-77105714D01*
X153542380Y-77143809D01*
X153694761Y-77181904D01*
X153809047Y-77181904D01*
X153961428Y-77143809D01*
X154037619Y-77105714D01*
X154113809Y-77029523D01*
X154151904Y-76915238D01*
X154151904Y-76839047D01*
X154113809Y-76724761D01*
X154075714Y-76686666D01*
X153809047Y-76686666D01*
X153809047Y-76839047D01*
X154151904Y-75886666D02*
X153770952Y-76153333D01*
X154151904Y-76343809D02*
X153351904Y-76343809D01*
X153351904Y-76039047D01*
X153390000Y-75962857D01*
X153428095Y-75924761D01*
X153504285Y-75886666D01*
X153618571Y-75886666D01*
X153694761Y-75924761D01*
X153732857Y-75962857D01*
X153770952Y-76039047D01*
X153770952Y-76343809D01*
X153351904Y-75391428D02*
X153351904Y-75239047D01*
X153390000Y-75162857D01*
X153466190Y-75086666D01*
X153618571Y-75048571D01*
X153885238Y-75048571D01*
X154037619Y-75086666D01*
X154113809Y-75162857D01*
X154151904Y-75239047D01*
X154151904Y-75391428D01*
X154113809Y-75467619D01*
X154037619Y-75543809D01*
X153885238Y-75581904D01*
X153618571Y-75581904D01*
X153466190Y-75543809D01*
X153390000Y-75467619D01*
X153351904Y-75391428D01*
X153351904Y-74705714D02*
X153999523Y-74705714D01*
X154075714Y-74667619D01*
X154113809Y-74629523D01*
X154151904Y-74553333D01*
X154151904Y-74400952D01*
X154113809Y-74324761D01*
X154075714Y-74286666D01*
X153999523Y-74248571D01*
X153351904Y-74248571D01*
X154151904Y-73867619D02*
X153351904Y-73867619D01*
X154151904Y-73410476D01*
X153351904Y-73410476D01*
X154151904Y-73029523D02*
X153351904Y-73029523D01*
X153351904Y-72839047D01*
X153390000Y-72724761D01*
X153466190Y-72648571D01*
X153542380Y-72610476D01*
X153694761Y-72572380D01*
X153809047Y-72572380D01*
X153961428Y-72610476D01*
X154037619Y-72648571D01*
X154113809Y-72724761D01*
X154151904Y-72839047D01*
X154151904Y-73029523D01*
X153813333Y-85781904D02*
X153813333Y-85400952D01*
X154041904Y-85858095D02*
X153241904Y-85591428D01*
X154041904Y-85324761D01*
X153241904Y-85134285D02*
X153241904Y-84639047D01*
X153546666Y-84905714D01*
X153546666Y-84791428D01*
X153584761Y-84715238D01*
X153622857Y-84677142D01*
X153699047Y-84639047D01*
X153889523Y-84639047D01*
X153965714Y-84677142D01*
X154003809Y-84715238D01*
X154041904Y-84791428D01*
X154041904Y-85020000D01*
X154003809Y-85096190D01*
X153965714Y-85134285D01*
X153241904Y-82696190D02*
X153241904Y-83077142D01*
X153622857Y-83115238D01*
X153584761Y-83077142D01*
X153546666Y-83000952D01*
X153546666Y-82810476D01*
X153584761Y-82734285D01*
X153622857Y-82696190D01*
X153699047Y-82658095D01*
X153889523Y-82658095D01*
X153965714Y-82696190D01*
X154003809Y-82734285D01*
X154041904Y-82810476D01*
X154041904Y-83000952D01*
X154003809Y-83077142D01*
X153965714Y-83115238D01*
X153241904Y-82429523D02*
X154041904Y-82162857D01*
X153241904Y-81896190D01*
X153230000Y-67876666D02*
X153191904Y-67952857D01*
X153191904Y-68067142D01*
X153230000Y-68181428D01*
X153306190Y-68257619D01*
X153382380Y-68295714D01*
X153534761Y-68333809D01*
X153649047Y-68333809D01*
X153801428Y-68295714D01*
X153877619Y-68257619D01*
X153953809Y-68181428D01*
X153991904Y-68067142D01*
X153991904Y-67990952D01*
X153953809Y-67876666D01*
X153915714Y-67838571D01*
X153649047Y-67838571D01*
X153649047Y-67990952D01*
X153191904Y-65286190D02*
X153191904Y-65667142D01*
X153572857Y-65705238D01*
X153534761Y-65667142D01*
X153496666Y-65590952D01*
X153496666Y-65400476D01*
X153534761Y-65324285D01*
X153572857Y-65286190D01*
X153649047Y-65248095D01*
X153839523Y-65248095D01*
X153915714Y-65286190D01*
X153953809Y-65324285D01*
X153991904Y-65400476D01*
X153991904Y-65590952D01*
X153953809Y-65667142D01*
X153915714Y-65705238D01*
X153191904Y-65019523D02*
X153991904Y-64752857D01*
X153191904Y-64486190D01*
D11*
X145869226Y-82500833D02*
X146107321Y-82500833D01*
X145821607Y-82643690D02*
X145988273Y-82143690D01*
X146154940Y-82643690D01*
X146321607Y-82143690D02*
X146321607Y-82548452D01*
X146345416Y-82596071D01*
X146369226Y-82619880D01*
X146416845Y-82643690D01*
X146512083Y-82643690D01*
X146559702Y-82619880D01*
X146583511Y-82596071D01*
X146607321Y-82548452D01*
X146607321Y-82143690D01*
X146797797Y-82143690D02*
X147131130Y-82643690D01*
X147131130Y-82143690D02*
X146797797Y-82643690D01*
X147583511Y-82643690D02*
X147297797Y-82643690D01*
X147440654Y-82643690D02*
X147440654Y-82143690D01*
X147393035Y-82215119D01*
X147345416Y-82262738D01*
X147297797Y-82286547D01*
X145869226Y-85125833D02*
X146107321Y-85125833D01*
X145821607Y-85268690D02*
X145988273Y-84768690D01*
X146154940Y-85268690D01*
X146321607Y-84768690D02*
X146321607Y-85173452D01*
X146345416Y-85221071D01*
X146369226Y-85244880D01*
X146416845Y-85268690D01*
X146512083Y-85268690D01*
X146559702Y-85244880D01*
X146583511Y-85221071D01*
X146607321Y-85173452D01*
X146607321Y-84768690D01*
X146797797Y-84768690D02*
X147131130Y-85268690D01*
X147131130Y-84768690D02*
X146797797Y-85268690D01*
X147297797Y-84816309D02*
X147321607Y-84792500D01*
X147369226Y-84768690D01*
X147488273Y-84768690D01*
X147535892Y-84792500D01*
X147559702Y-84816309D01*
X147583511Y-84863928D01*
X147583511Y-84911547D01*
X147559702Y-84982976D01*
X147273988Y-85268690D01*
X147583511Y-85268690D01*
D12*
X156369583Y-81015000D02*
X156902916Y-81015000D01*
X157236250Y-81015000D02*
X157769583Y-81015000D01*
X155402916Y-83531666D02*
X155736250Y-83531666D01*
X155336250Y-83731666D02*
X155569583Y-83031666D01*
X155802916Y-83731666D01*
X156036250Y-83031666D02*
X156036250Y-83598333D01*
X156069583Y-83665000D01*
X156102916Y-83698333D01*
X156169583Y-83731666D01*
X156302916Y-83731666D01*
X156369583Y-83698333D01*
X156402916Y-83665000D01*
X156436250Y-83598333D01*
X156436250Y-83031666D01*
X156702916Y-83031666D02*
X157169583Y-83731666D01*
X157169583Y-83031666D02*
X156702916Y-83731666D01*
X157402916Y-83098333D02*
X157436250Y-83065000D01*
X157502916Y-83031666D01*
X157669583Y-83031666D01*
X157736250Y-83065000D01*
X157769583Y-83098333D01*
X157802916Y-83165000D01*
X157802916Y-83231666D01*
X157769583Y-83331666D01*
X157369583Y-83731666D01*
X157802916Y-83731666D01*
X155402916Y-85981666D02*
X155736250Y-85981666D01*
X155336250Y-86181666D02*
X155569583Y-85481666D01*
X155802916Y-86181666D01*
X156036250Y-85481666D02*
X156036250Y-86048333D01*
X156069583Y-86115000D01*
X156102916Y-86148333D01*
X156169583Y-86181666D01*
X156302916Y-86181666D01*
X156369583Y-86148333D01*
X156402916Y-86115000D01*
X156436250Y-86048333D01*
X156436250Y-85481666D01*
X156702916Y-85481666D02*
X157169583Y-86181666D01*
X157169583Y-85481666D02*
X156702916Y-86181666D01*
X157802916Y-86181666D02*
X157402916Y-86181666D01*
X157602916Y-86181666D02*
X157602916Y-85481666D01*
X157536250Y-85581666D01*
X157469583Y-85648333D01*
X157402916Y-85681666D01*
X156369583Y-88365000D02*
X156902916Y-88365000D01*
X157236250Y-88365000D02*
X157769583Y-88365000D01*
D10*
X163521904Y-76125238D02*
X163521904Y-76506190D01*
X163902857Y-76544285D01*
X163864761Y-76506190D01*
X163826666Y-76430000D01*
X163826666Y-76239523D01*
X163864761Y-76163333D01*
X163902857Y-76125238D01*
X163979047Y-76087142D01*
X164169523Y-76087142D01*
X164245714Y-76125238D01*
X164283809Y-76163333D01*
X164321904Y-76239523D01*
X164321904Y-76430000D01*
X164283809Y-76506190D01*
X164245714Y-76544285D01*
X163521904Y-75858571D02*
X164321904Y-75591904D01*
X163521904Y-75325238D01*
X164398095Y-73420476D02*
X164398095Y-72810952D01*
X164398095Y-72810952D02*
X164398095Y-72201428D01*
X164398095Y-72201428D02*
X164398095Y-71591904D01*
X163560000Y-70372857D02*
X163521904Y-70449047D01*
X163521904Y-70563333D01*
X163560000Y-70677619D01*
X163636190Y-70753809D01*
X163712380Y-70791904D01*
X163864761Y-70830000D01*
X163979047Y-70830000D01*
X164131428Y-70791904D01*
X164207619Y-70753809D01*
X164283809Y-70677619D01*
X164321904Y-70563333D01*
X164321904Y-70487142D01*
X164283809Y-70372857D01*
X164245714Y-70334761D01*
X163979047Y-70334761D01*
X163979047Y-70487142D01*
X164321904Y-69534761D02*
X163940952Y-69801428D01*
X164321904Y-69991904D02*
X163521904Y-69991904D01*
X163521904Y-69687142D01*
X163560000Y-69610952D01*
X163598095Y-69572857D01*
X163674285Y-69534761D01*
X163788571Y-69534761D01*
X163864761Y-69572857D01*
X163902857Y-69610952D01*
X163940952Y-69687142D01*
X163940952Y-69991904D01*
X163521904Y-69039523D02*
X163521904Y-68887142D01*
X163560000Y-68810952D01*
X163636190Y-68734761D01*
X163788571Y-68696666D01*
X164055238Y-68696666D01*
X164207619Y-68734761D01*
X164283809Y-68810952D01*
X164321904Y-68887142D01*
X164321904Y-69039523D01*
X164283809Y-69115714D01*
X164207619Y-69191904D01*
X164055238Y-69230000D01*
X163788571Y-69230000D01*
X163636190Y-69191904D01*
X163560000Y-69115714D01*
X163521904Y-69039523D01*
X163521904Y-68353809D02*
X164169523Y-68353809D01*
X164245714Y-68315714D01*
X164283809Y-68277619D01*
X164321904Y-68201428D01*
X164321904Y-68049047D01*
X164283809Y-67972857D01*
X164245714Y-67934761D01*
X164169523Y-67896666D01*
X163521904Y-67896666D01*
X164321904Y-67515714D02*
X163521904Y-67515714D01*
X164321904Y-67058571D01*
X163521904Y-67058571D01*
X164321904Y-66677619D02*
X163521904Y-66677619D01*
X163521904Y-66487142D01*
X163560000Y-66372857D01*
X163636190Y-66296666D01*
X163712380Y-66258571D01*
X163864761Y-66220476D01*
X163979047Y-66220476D01*
X164131428Y-66258571D01*
X164207619Y-66296666D01*
X164283809Y-66372857D01*
X164321904Y-66487142D01*
X164321904Y-66677619D01*
X164398095Y-65458571D02*
X164398095Y-64849047D01*
X164398095Y-64849047D02*
X164398095Y-64239523D01*
X164398095Y-64239523D02*
X164398095Y-63630000D01*
X153200000Y-60146666D02*
X153161904Y-60222857D01*
X153161904Y-60337142D01*
X153200000Y-60451428D01*
X153276190Y-60527619D01*
X153352380Y-60565714D01*
X153504761Y-60603809D01*
X153619047Y-60603809D01*
X153771428Y-60565714D01*
X153847619Y-60527619D01*
X153923809Y-60451428D01*
X153961904Y-60337142D01*
X153961904Y-60260952D01*
X153923809Y-60146666D01*
X153885714Y-60108571D01*
X153619047Y-60108571D01*
X153619047Y-60260952D01*
X153161904Y-57556190D02*
X153161904Y-57937142D01*
X153542857Y-57975238D01*
X153504761Y-57937142D01*
X153466666Y-57860952D01*
X153466666Y-57670476D01*
X153504761Y-57594285D01*
X153542857Y-57556190D01*
X153619047Y-57518095D01*
X153809523Y-57518095D01*
X153885714Y-57556190D01*
X153923809Y-57594285D01*
X153961904Y-57670476D01*
X153961904Y-57860952D01*
X153923809Y-57937142D01*
X153885714Y-57975238D01*
X153161904Y-57289523D02*
X153961904Y-57022857D01*
X153161904Y-56756190D01*
X147443809Y-61064285D02*
X147481904Y-60950000D01*
X147481904Y-60759523D01*
X147443809Y-60683333D01*
X147405714Y-60645238D01*
X147329523Y-60607142D01*
X147253333Y-60607142D01*
X147177142Y-60645238D01*
X147139047Y-60683333D01*
X147100952Y-60759523D01*
X147062857Y-60911904D01*
X147024761Y-60988095D01*
X146986666Y-61026190D01*
X146910476Y-61064285D01*
X146834285Y-61064285D01*
X146758095Y-61026190D01*
X146720000Y-60988095D01*
X146681904Y-60911904D01*
X146681904Y-60721428D01*
X146720000Y-60607142D01*
X147405714Y-59807142D02*
X147443809Y-59845238D01*
X147481904Y-59959523D01*
X147481904Y-60035714D01*
X147443809Y-60150000D01*
X147367619Y-60226190D01*
X147291428Y-60264285D01*
X147139047Y-60302380D01*
X147024761Y-60302380D01*
X146872380Y-60264285D01*
X146796190Y-60226190D01*
X146720000Y-60150000D01*
X146681904Y-60035714D01*
X146681904Y-59959523D01*
X146720000Y-59845238D01*
X146758095Y-59807142D01*
X147481904Y-59083333D02*
X147481904Y-59464285D01*
X146681904Y-59464285D01*
X147443809Y-58245238D02*
X147481904Y-58130952D01*
X147481904Y-57940476D01*
X147443809Y-57864285D01*
X147405714Y-57826190D01*
X147329523Y-57788095D01*
X147253333Y-57788095D01*
X147177142Y-57826190D01*
X147139047Y-57864285D01*
X147100952Y-57940476D01*
X147062857Y-58092857D01*
X147024761Y-58169047D01*
X146986666Y-58207142D01*
X146910476Y-58245238D01*
X146834285Y-58245238D01*
X146758095Y-58207142D01*
X146720000Y-58169047D01*
X146681904Y-58092857D01*
X146681904Y-57902380D01*
X146720000Y-57788095D01*
X147481904Y-57445238D02*
X146681904Y-57445238D01*
X146681904Y-57254761D01*
X146720000Y-57140476D01*
X146796190Y-57064285D01*
X146872380Y-57026190D01*
X147024761Y-56988095D01*
X147139047Y-56988095D01*
X147291428Y-57026190D01*
X147367619Y-57064285D01*
X147443809Y-57140476D01*
X147481904Y-57254761D01*
X147481904Y-57445238D01*
X147253333Y-56683333D02*
X147253333Y-56302380D01*
X147481904Y-56759523D02*
X146681904Y-56492857D01*
X147481904Y-56226190D01*
D12*
X146311011Y-64591666D02*
X146768154Y-64591666D01*
X146539583Y-65291666D02*
X146539583Y-64591666D01*
X146958630Y-64591666D02*
X147491964Y-65291666D01*
X147491964Y-64591666D02*
X146958630Y-65291666D01*
X146691964Y-67741666D02*
X146425297Y-67408333D01*
X146234821Y-67741666D02*
X146234821Y-67041666D01*
X146539583Y-67041666D01*
X146615773Y-67075000D01*
X146653869Y-67108333D01*
X146691964Y-67175000D01*
X146691964Y-67275000D01*
X146653869Y-67341666D01*
X146615773Y-67375000D01*
X146539583Y-67408333D01*
X146234821Y-67408333D01*
X146958630Y-67041666D02*
X147491964Y-67741666D01*
X147491964Y-67041666D02*
X146958630Y-67741666D01*
X145960059Y-72530000D02*
X146226726Y-72530000D01*
X146341011Y-72896666D02*
X145960059Y-72896666D01*
X145960059Y-72196666D01*
X146341011Y-72196666D01*
X146683869Y-72830000D02*
X146721964Y-72863333D01*
X146683869Y-72896666D01*
X146645773Y-72863333D01*
X146683869Y-72830000D01*
X146683869Y-72896666D01*
X146683869Y-72463333D02*
X146721964Y-72496666D01*
X146683869Y-72530000D01*
X146645773Y-72496666D01*
X146683869Y-72463333D01*
X146683869Y-72530000D01*
X146988630Y-72196666D02*
X147521964Y-72196666D01*
X146988630Y-72896666D01*
X147521964Y-72896666D01*
X146036250Y-74980000D02*
X146302916Y-74980000D01*
X146417202Y-75346666D02*
X146036250Y-75346666D01*
X146036250Y-74646666D01*
X146417202Y-74646666D01*
X146760059Y-75280000D02*
X146798154Y-75313333D01*
X146760059Y-75346666D01*
X146721964Y-75313333D01*
X146760059Y-75280000D01*
X146760059Y-75346666D01*
X146760059Y-74913333D02*
X146798154Y-74946666D01*
X146760059Y-74980000D01*
X146721964Y-74946666D01*
X146760059Y-74913333D01*
X146760059Y-74980000D01*
X147293392Y-75013333D02*
X147293392Y-75346666D01*
X147026726Y-74646666D02*
X147293392Y-75013333D01*
X147560059Y-74646666D01*
X145960059Y-77430000D02*
X146226726Y-77430000D01*
X146341011Y-77796666D02*
X145960059Y-77796666D01*
X145960059Y-77096666D01*
X146341011Y-77096666D01*
X146683869Y-77730000D02*
X146721964Y-77763333D01*
X146683869Y-77796666D01*
X146645773Y-77763333D01*
X146683869Y-77730000D01*
X146683869Y-77796666D01*
X146683869Y-77363333D02*
X146721964Y-77396666D01*
X146683869Y-77430000D01*
X146645773Y-77396666D01*
X146683869Y-77363333D01*
X146683869Y-77430000D01*
X146988630Y-77096666D02*
X147521964Y-77796666D01*
X147521964Y-77096666D02*
X146988630Y-77796666D01*
X156558630Y-63781666D02*
X156558630Y-63081666D01*
X156749107Y-63081666D01*
X156863392Y-63115000D01*
X156939583Y-63181666D01*
X156977678Y-63248333D01*
X157015773Y-63381666D01*
X157015773Y-63481666D01*
X156977678Y-63615000D01*
X156939583Y-63681666D01*
X156863392Y-63748333D01*
X156749107Y-63781666D01*
X156558630Y-63781666D01*
X157511011Y-63081666D02*
X157663392Y-63081666D01*
X157739583Y-63115000D01*
X157815773Y-63181666D01*
X157853869Y-63315000D01*
X157853869Y-63548333D01*
X157815773Y-63681666D01*
X157739583Y-63748333D01*
X157663392Y-63781666D01*
X157511011Y-63781666D01*
X157434821Y-63748333D01*
X157358630Y-63681666D01*
X157320535Y-63548333D01*
X157320535Y-63315000D01*
X157358630Y-63181666D01*
X157434821Y-63115000D01*
X157511011Y-63081666D01*
X156634821Y-66231666D02*
X156634821Y-65531666D01*
X156825297Y-65531666D01*
X156939583Y-65565000D01*
X157015773Y-65631666D01*
X157053869Y-65698333D01*
X157091964Y-65831666D01*
X157091964Y-65931666D01*
X157053869Y-66065000D01*
X157015773Y-66131666D01*
X156939583Y-66198333D01*
X156825297Y-66231666D01*
X156634821Y-66231666D01*
X157853869Y-66231666D02*
X157396726Y-66231666D01*
X157625297Y-66231666D02*
X157625297Y-65531666D01*
X157549107Y-65631666D01*
X157472916Y-65698333D01*
X157396726Y-65731666D01*
X156634821Y-68681666D02*
X156634821Y-67981666D01*
X156825297Y-67981666D01*
X156939583Y-68015000D01*
X157015773Y-68081666D01*
X157053869Y-68148333D01*
X157091964Y-68281666D01*
X157091964Y-68381666D01*
X157053869Y-68515000D01*
X157015773Y-68581666D01*
X156939583Y-68648333D01*
X156825297Y-68681666D01*
X156634821Y-68681666D01*
X157396726Y-68048333D02*
X157434821Y-68015000D01*
X157511011Y-67981666D01*
X157701488Y-67981666D01*
X157777678Y-68015000D01*
X157815773Y-68048333D01*
X157853869Y-68115000D01*
X157853869Y-68181666D01*
X157815773Y-68281666D01*
X157358630Y-68681666D01*
X157853869Y-68681666D01*
X156634821Y-71131666D02*
X156634821Y-70431666D01*
X156825297Y-70431666D01*
X156939583Y-70465000D01*
X157015773Y-70531666D01*
X157053869Y-70598333D01*
X157091964Y-70731666D01*
X157091964Y-70831666D01*
X157053869Y-70965000D01*
X157015773Y-71031666D01*
X156939583Y-71098333D01*
X156825297Y-71131666D01*
X156634821Y-71131666D01*
X157358630Y-70431666D02*
X157853869Y-70431666D01*
X157587202Y-70698333D01*
X157701488Y-70698333D01*
X157777678Y-70731666D01*
X157815773Y-70765000D01*
X157853869Y-70831666D01*
X157853869Y-70998333D01*
X157815773Y-71065000D01*
X157777678Y-71098333D01*
X157701488Y-71131666D01*
X157472916Y-71131666D01*
X157396726Y-71098333D01*
X157358630Y-71065000D01*
X156711011Y-73381666D02*
X157091964Y-73381666D01*
X156634821Y-73581666D02*
X156901488Y-72881666D01*
X157168154Y-73581666D01*
X157358630Y-72881666D02*
X157853869Y-72881666D01*
X157587202Y-73148333D01*
X157701488Y-73148333D01*
X157777678Y-73181666D01*
X157815773Y-73215000D01*
X157853869Y-73281666D01*
X157853869Y-73448333D01*
X157815773Y-73515000D01*
X157777678Y-73548333D01*
X157701488Y-73581666D01*
X157472916Y-73581666D01*
X157396726Y-73548333D01*
X157358630Y-73515000D01*
X155263392Y-75831666D02*
X155644345Y-75831666D01*
X155187202Y-76031666D02*
X155453869Y-75331666D01*
X155720535Y-76031666D01*
X156444345Y-76031666D02*
X156177678Y-75698333D01*
X155987202Y-76031666D02*
X155987202Y-75331666D01*
X156291964Y-75331666D01*
X156368154Y-75365000D01*
X156406250Y-75398333D01*
X156444345Y-75465000D01*
X156444345Y-75565000D01*
X156406250Y-75631666D01*
X156368154Y-75665000D01*
X156291964Y-75698333D01*
X155987202Y-75698333D01*
X156787202Y-75665000D02*
X157053869Y-75665000D01*
X157168154Y-76031666D02*
X156787202Y-76031666D01*
X156787202Y-75331666D01*
X157168154Y-75331666D01*
X157777678Y-75665000D02*
X157511011Y-75665000D01*
X157511011Y-76031666D02*
X157511011Y-75331666D01*
X157891964Y-75331666D01*
D13*
X149744285Y-90698571D02*
X150544285Y-90698571D01*
X149744285Y-92198571D01*
X150544285Y-92198571D01*
X151001428Y-91627142D02*
X151915714Y-91627142D01*
X152430000Y-91770000D02*
X153001428Y-91770000D01*
X152315714Y-92198571D02*
X152715714Y-90698571D01*
X153115714Y-92198571D01*
X153401428Y-90698571D02*
X154201428Y-92198571D01*
X154201428Y-90698571D02*
X153401428Y-92198571D01*
X154658571Y-92198571D02*
X154658571Y-90698571D01*
X155172857Y-92127142D02*
X155344285Y-92198571D01*
X155630000Y-92198571D01*
X155744285Y-92127142D01*
X155801428Y-92055714D01*
X155858571Y-91912857D01*
X155858571Y-91770000D01*
X155801428Y-91627142D01*
X155744285Y-91555714D01*
X155630000Y-91484285D01*
X155401428Y-91412857D01*
X155287142Y-91341428D01*
X155230000Y-91270000D01*
X155172857Y-91127142D01*
X155172857Y-90984285D01*
X155230000Y-90841428D01*
X155287142Y-90770000D01*
X155401428Y-90698571D01*
X155687142Y-90698571D01*
X155858571Y-90770000D01*
X133184285Y-91454285D02*
X133184285Y-92168571D01*
X132784285Y-90668571D02*
X133184285Y-91454285D01*
X133584285Y-90668571D01*
X133984285Y-91597142D02*
X134898571Y-91597142D01*
X135412857Y-91740000D02*
X135984285Y-91740000D01*
X135298571Y-92168571D02*
X135698571Y-90668571D01*
X136098571Y-92168571D01*
X136384285Y-90668571D02*
X137184285Y-92168571D01*
X137184285Y-90668571D02*
X136384285Y-92168571D01*
X137641428Y-92168571D02*
X137641428Y-90668571D01*
X138155714Y-92097142D02*
X138327142Y-92168571D01*
X138612857Y-92168571D01*
X138727142Y-92097142D01*
X138784285Y-92025714D01*
X138841428Y-91882857D01*
X138841428Y-91740000D01*
X138784285Y-91597142D01*
X138727142Y-91525714D01*
X138612857Y-91454285D01*
X138384285Y-91382857D01*
X138270000Y-91311428D01*
X138212857Y-91240000D01*
X138155714Y-91097142D01*
X138155714Y-90954285D01*
X138212857Y-90811428D01*
X138270000Y-90740000D01*
X138384285Y-90668571D01*
X138670000Y-90668571D01*
X138841428Y-90740000D01*
X115474285Y-90638571D02*
X116274285Y-92138571D01*
X116274285Y-90638571D02*
X115474285Y-92138571D01*
X116731428Y-91567142D02*
X117645714Y-91567142D01*
X118160000Y-91710000D02*
X118731428Y-91710000D01*
X118045714Y-92138571D02*
X118445714Y-90638571D01*
X118845714Y-92138571D01*
X119131428Y-90638571D02*
X119931428Y-92138571D01*
X119931428Y-90638571D02*
X119131428Y-92138571D01*
X120388571Y-92138571D02*
X120388571Y-90638571D01*
X120902857Y-92067142D02*
X121074285Y-92138571D01*
X121360000Y-92138571D01*
X121474285Y-92067142D01*
X121531428Y-91995714D01*
X121588571Y-91852857D01*
X121588571Y-91710000D01*
X121531428Y-91567142D01*
X121474285Y-91495714D01*
X121360000Y-91424285D01*
X121131428Y-91352857D01*
X121017142Y-91281428D01*
X120960000Y-91210000D01*
X120902857Y-91067142D01*
X120902857Y-90924285D01*
X120960000Y-90781428D01*
X121017142Y-90710000D01*
X121131428Y-90638571D01*
X121417142Y-90638571D01*
X121588571Y-90710000D01*
D14*
X111900000Y-50800000D02*
X111900000Y-48000000D01*
X113300000Y-50800000D02*
X113300000Y-48000000D01*
X111900000Y-50800000D02*
X113300000Y-50800000D01*
X109620000Y-56230000D02*
X108850000Y-57000000D01*
X109620000Y-56230000D02*
X113430000Y-56230000D01*
X109620000Y-60810000D02*
X108850000Y-60040000D01*
X109620000Y-60810000D02*
X113430000Y-60810000D01*
X108850000Y-60040000D02*
X108850000Y-59640000D01*
X108850000Y-57000000D02*
X108850000Y-57400000D01*
X113430000Y-56230000D02*
X113430000Y-57400000D01*
X113430000Y-60810000D02*
X113430000Y-59640000D01*
X148480000Y-46110000D02*
X147710000Y-46880000D01*
X148480000Y-46110000D02*
X152290000Y-46110000D01*
X148480000Y-50690000D02*
X147710000Y-49920000D01*
X148480000Y-50690000D02*
X152290000Y-50690000D01*
X147710000Y-46880000D02*
X147710000Y-47280000D01*
X152290000Y-46110000D02*
X152290000Y-47280000D01*
X152290000Y-50690000D02*
X152290000Y-49520000D01*
X147710000Y-49920000D02*
X147710000Y-49520000D01*
X141000000Y-55600000D02*
X141000000Y-57600000D01*
X141000000Y-57600000D02*
X144850000Y-57600000D01*
X141000000Y-55600000D02*
X144850000Y-55600000D01*
X115900000Y-73150000D02*
X112050000Y-73150000D01*
X115900000Y-71150000D02*
X112050000Y-71150000D01*
X115900000Y-73150000D02*
X115900000Y-71150000D01*
X115900000Y-76650000D02*
X112050000Y-76650000D01*
X115900000Y-74650000D02*
X112050000Y-74650000D01*
X115900000Y-76650000D02*
X115900000Y-74650000D01*
X119150000Y-53200000D02*
X119150000Y-55200000D01*
X119150000Y-55200000D02*
X123000000Y-55200000D01*
X119150000Y-53200000D02*
X123000000Y-53200000D01*
D15*
X116620000Y-78877000D02*
X116112000Y-78877000D01*
X116620000Y-85100000D02*
X116620000Y-78877000D01*
X116112000Y-85100000D02*
X116620000Y-85100000D01*
X113572000Y-85100000D02*
X114588000Y-85100000D01*
X113572000Y-78877000D02*
X114588000Y-78877000D01*
X111540000Y-85100000D02*
X112048000Y-85100000D01*
X111540000Y-78877000D02*
X111540000Y-85100000D01*
X112048000Y-78877000D02*
X111540000Y-78877000D01*
D14*
X110800000Y-91800000D02*
X110500000Y-92400000D01*
X110200000Y-91800000D02*
X110800000Y-91800000D01*
X110500000Y-92400000D02*
X110200000Y-91800000D01*
X121900000Y-95950000D02*
X115500000Y-95950000D01*
X121900000Y-91450000D02*
X121900000Y-95950000D01*
X123100000Y-91450000D02*
X121900000Y-91450000D01*
X123100000Y-103250000D02*
X123100000Y-91450000D01*
X115500000Y-103250000D02*
X123100000Y-103250000D01*
X109100000Y-95950000D02*
X115500000Y-95950000D01*
X109100000Y-91450000D02*
X109100000Y-95950000D01*
X107900000Y-91450000D02*
X109100000Y-91450000D01*
X107900000Y-103250000D02*
X107900000Y-91450000D01*
X115500000Y-103250000D02*
X107900000Y-103250000D01*
X128050000Y-91800000D02*
X127750000Y-92400000D01*
X127450000Y-91800000D02*
X128050000Y-91800000D01*
X127750000Y-92400000D02*
X127450000Y-91800000D01*
X139150000Y-95950000D02*
X132750000Y-95950000D01*
X139150000Y-91450000D02*
X139150000Y-95950000D01*
X140350000Y-91450000D02*
X139150000Y-91450000D01*
X140350000Y-103250000D02*
X140350000Y-91450000D01*
X132750000Y-103250000D02*
X140350000Y-103250000D01*
X126350000Y-95950000D02*
X132750000Y-95950000D01*
X126350000Y-91450000D02*
X126350000Y-95950000D01*
X125150000Y-91450000D02*
X126350000Y-91450000D01*
X125150000Y-103250000D02*
X125150000Y-91450000D01*
X132750000Y-103250000D02*
X125150000Y-103250000D01*
X150000000Y-103250000D02*
X142400000Y-103250000D01*
X142400000Y-103250000D02*
X142400000Y-91450000D01*
X142400000Y-91450000D02*
X143600000Y-91450000D01*
X143600000Y-91450000D02*
X143600000Y-95950000D01*
X143600000Y-95950000D02*
X150000000Y-95950000D01*
X150000000Y-103250000D02*
X157600000Y-103250000D01*
X157600000Y-103250000D02*
X157600000Y-91450000D01*
X157600000Y-91450000D02*
X156400000Y-91450000D01*
X156400000Y-91450000D02*
X156400000Y-95950000D01*
X156400000Y-95950000D02*
X150000000Y-95950000D01*
X145000000Y-92400000D02*
X144700000Y-91800000D01*
X144700000Y-91800000D02*
X145300000Y-91800000D01*
X145300000Y-91800000D02*
X145000000Y-92400000D01*
X135730000Y-47600000D02*
X135730000Y-48800000D01*
X133970000Y-48800000D02*
X133970000Y-47600000D01*
X103100000Y-54870000D02*
X104300000Y-54870000D01*
X104300000Y-56630000D02*
X103100000Y-56630000D01*
D16*
X120435000Y-85900000D02*
X120435000Y-85600000D01*
X120435000Y-85900000D02*
X120735000Y-85900000D01*
X130835000Y-85900000D02*
X130835000Y-85600000D01*
X120735000Y-81500000D02*
X120435000Y-81500000D01*
X120435000Y-81500000D02*
X120435000Y-81800000D01*
X130835000Y-81900000D02*
X130835000Y-81500000D01*
X130835000Y-81500000D02*
X130535000Y-81500000D01*
X130535000Y-81500000D02*
X130535000Y-80900000D01*
X130535000Y-85900000D02*
X130835000Y-85900000D01*
X145345000Y-85900000D02*
X145645000Y-85900000D01*
X145345000Y-81500000D02*
X145345000Y-80900000D01*
X145645000Y-81500000D02*
X145345000Y-81500000D01*
X145645000Y-81900000D02*
X145645000Y-81500000D01*
X135245000Y-81500000D02*
X135245000Y-81800000D01*
X135545000Y-81500000D02*
X135245000Y-81500000D01*
X145645000Y-85900000D02*
X145645000Y-85600000D01*
X135245000Y-85900000D02*
X135545000Y-85900000D01*
X135245000Y-85900000D02*
X135245000Y-85600000D01*
D14*
X112070000Y-53850000D02*
X112070000Y-53050000D01*
X108630000Y-53850000D02*
X108630000Y-53050000D01*
D15*
X136700000Y-59525000D02*
X136700000Y-58250000D01*
X137275000Y-69875000D02*
X137275000Y-69200000D01*
X126925000Y-69875000D02*
X126925000Y-69200000D01*
X126925000Y-59525000D02*
X126925000Y-60200000D01*
X137275000Y-59525000D02*
X137275000Y-60200000D01*
X126925000Y-59525000D02*
X127600000Y-59525000D01*
X126925000Y-69875000D02*
X127600000Y-69875000D01*
X137275000Y-69875000D02*
X136600000Y-69875000D01*
X137275000Y-59525000D02*
X136700000Y-59525000D01*
D14*
X120700000Y-66900000D02*
X119700000Y-66900000D01*
X119700000Y-68600000D02*
X120700000Y-68600000D01*
X119600000Y-61050000D02*
X120600000Y-61050000D01*
X120600000Y-59350000D02*
X119600000Y-59350000D01*
X124450000Y-55250000D02*
X124450000Y-56250000D01*
X126150000Y-56250000D02*
X126150000Y-55250000D01*
X127650000Y-72000000D02*
X126650000Y-72000000D01*
X126650000Y-73700000D02*
X127650000Y-73700000D01*
X119850000Y-84200000D02*
X119850000Y-83200000D01*
X118150000Y-83200000D02*
X118150000Y-84200000D01*
X133100000Y-83250000D02*
X133100000Y-84250000D01*
X134800000Y-84250000D02*
X134800000Y-83250000D01*
X116500000Y-90070000D02*
X114500000Y-90070000D01*
X114500000Y-87930000D02*
X116500000Y-87930000D01*
X133800000Y-90070000D02*
X131800000Y-90070000D01*
X131800000Y-87930000D02*
X133800000Y-87930000D01*
X149000000Y-87930000D02*
X151000000Y-87930000D01*
X151000000Y-90070000D02*
X149000000Y-90070000D01*
X142250000Y-52330000D02*
X144250000Y-52330000D01*
X144250000Y-54470000D02*
X142250000Y-54470000D01*
X123980000Y-70750000D02*
X123980000Y-71950000D01*
X122220000Y-71950000D02*
X122220000Y-70750000D01*
X121880000Y-70750000D02*
X121880000Y-71950000D01*
X120120000Y-71950000D02*
X120120000Y-70750000D01*
X134680000Y-54100000D02*
X134680000Y-55300000D01*
X132920000Y-55300000D02*
X132920000Y-54100000D01*
X135020000Y-55300000D02*
X135020000Y-54100000D01*
X136780000Y-54100000D02*
X136780000Y-55300000D01*
X120800000Y-56320000D02*
X122000000Y-56320000D01*
X122000000Y-58080000D02*
X120800000Y-58080000D01*
X136650000Y-71970000D02*
X137850000Y-71970000D01*
X137850000Y-73730000D02*
X136650000Y-73730000D01*
X131170000Y-54900000D02*
X131170000Y-53900000D01*
X132530000Y-53900000D02*
X132530000Y-54900000D01*
X138480000Y-53900000D02*
X138480000Y-54900000D01*
X137120000Y-54900000D02*
X137120000Y-53900000D01*
X107700000Y-50800000D02*
X107700000Y-48000000D01*
X109100000Y-50800000D02*
X109100000Y-48000000D01*
X107700000Y-50800000D02*
X109100000Y-50800000D01*
X109800000Y-50800000D02*
X111200000Y-50800000D01*
X111200000Y-50800000D02*
X111200000Y-48000000D01*
X109800000Y-50800000D02*
X109800000Y-48000000D01*
X119750000Y-76050000D02*
X118350000Y-76050000D01*
X118350000Y-76050000D02*
X118350000Y-78850000D01*
X119750000Y-76050000D02*
X119750000Y-78850000D01*
X99370000Y-58650000D02*
X99370000Y-67350000D01*
X105780000Y-58650000D02*
X105780000Y-67350000D01*
X105780000Y-67350000D02*
X99370000Y-67350000D01*
X100600000Y-67350000D02*
X100600000Y-58650000D01*
X99370000Y-58650000D02*
X105780000Y-58650000D01*
X102500000Y-70180000D02*
X93900000Y-70180000D01*
X102700000Y-85170000D02*
X93900000Y-85170000D01*
X93900000Y-85170000D02*
X93900000Y-70180000D01*
X107990000Y-85170000D02*
X107990000Y-70180000D01*
X107990000Y-70180000D02*
X105870000Y-70180000D01*
X107990000Y-85170000D02*
X105660000Y-85170000D01*
X147720000Y-71070000D02*
X149050000Y-71070000D01*
X147720000Y-72400000D02*
X147720000Y-71070000D01*
X150320000Y-71070000D02*
X152920000Y-71070000D01*
X150320000Y-73670000D02*
X150320000Y-71070000D01*
X147720000Y-73670000D02*
X150320000Y-73670000D01*
X152920000Y-71070000D02*
X152920000Y-78810000D01*
X147720000Y-73670000D02*
X147720000Y-78810000D01*
X147720000Y-78810000D02*
X152920000Y-78810000D01*
X147720000Y-56020000D02*
X149050000Y-56020000D01*
X147720000Y-57350000D02*
X147720000Y-56020000D01*
X150320000Y-56020000D02*
X152920000Y-56020000D01*
X150320000Y-58620000D02*
X150320000Y-56020000D01*
X147720000Y-58620000D02*
X150320000Y-58620000D01*
X152920000Y-56020000D02*
X152920000Y-61220000D01*
X147720000Y-58620000D02*
X147720000Y-61220000D01*
X147720000Y-61220000D02*
X152920000Y-61220000D01*
X147720000Y-68720000D02*
X152920000Y-68720000D01*
X147720000Y-66120000D02*
X147720000Y-68720000D01*
X152920000Y-63520000D02*
X152920000Y-68720000D01*
X147720000Y-66120000D02*
X150320000Y-66120000D01*
X150320000Y-66120000D02*
X150320000Y-63520000D01*
X150320000Y-63520000D02*
X152920000Y-63520000D01*
X147720000Y-64850000D02*
X147720000Y-63520000D01*
X147720000Y-63520000D02*
X149050000Y-63520000D01*
X158070000Y-61770000D02*
X159400000Y-61770000D01*
X158070000Y-63100000D02*
X158070000Y-61770000D01*
X160670000Y-61770000D02*
X163270000Y-61770000D01*
X160670000Y-64370000D02*
X160670000Y-61770000D01*
X158070000Y-64370000D02*
X160670000Y-64370000D01*
X163270000Y-61770000D02*
X163270000Y-77130000D01*
X158070000Y-64370000D02*
X158070000Y-77130000D01*
X158070000Y-77130000D02*
X163270000Y-77130000D01*
X102730000Y-89830000D02*
X102730000Y-88500000D01*
X104060000Y-89830000D02*
X102730000Y-89830000D01*
X105330000Y-89830000D02*
X105330000Y-87170000D01*
X105330000Y-87170000D02*
X110470000Y-87170000D01*
X105330000Y-89830000D02*
X110470000Y-89830000D01*
X110470000Y-89830000D02*
X110470000Y-87170000D01*
X152930000Y-86320000D02*
X151600000Y-86320000D01*
X152930000Y-84990000D02*
X152930000Y-86320000D01*
X150330000Y-86320000D02*
X147730000Y-86320000D01*
X150330000Y-83720000D02*
X150330000Y-86320000D01*
X152930000Y-83720000D02*
X150330000Y-83720000D01*
X147730000Y-86320000D02*
X147730000Y-81120000D01*
X152930000Y-83720000D02*
X152930000Y-81120000D01*
X152930000Y-81120000D02*
X147730000Y-81120000D01*
X158070000Y-79420000D02*
X159400000Y-79420000D01*
X158070000Y-80750000D02*
X158070000Y-79420000D01*
X160670000Y-79420000D02*
X163270000Y-79420000D01*
X160670000Y-82020000D02*
X160670000Y-79420000D01*
X158070000Y-82020000D02*
X160670000Y-82020000D01*
X163270000Y-79420000D02*
X163270000Y-89700000D01*
X158070000Y-82020000D02*
X158070000Y-89700000D01*
X158070000Y-89700000D02*
X163270000Y-89700000D01*
X131260000Y-51280000D02*
X131260000Y-46080000D01*
X126120000Y-51280000D02*
X131260000Y-51280000D01*
X123520000Y-46080000D02*
X131260000Y-46080000D01*
X126120000Y-51280000D02*
X126120000Y-48680000D01*
X126120000Y-48680000D02*
X123520000Y-48680000D01*
X123520000Y-48680000D02*
X123520000Y-46080000D01*
X124850000Y-51280000D02*
X123520000Y-51280000D01*
X123520000Y-51280000D02*
X123520000Y-49950000D01*
X145700000Y-44320000D02*
X145700000Y-50730000D01*
X137000000Y-45550000D02*
X145700000Y-45550000D01*
X137000000Y-50730000D02*
X137000000Y-44320000D01*
X145700000Y-50730000D02*
X137000000Y-50730000D01*
X145700000Y-44320000D02*
X137000000Y-44320000D01*
X116440000Y-46170000D02*
X117770000Y-46170000D01*
X116440000Y-47500000D02*
X116440000Y-46170000D01*
X116440000Y-48770000D02*
X119100000Y-48770000D01*
X119100000Y-48770000D02*
X119100000Y-51370000D01*
X116440000Y-48770000D02*
X116440000Y-51370000D01*
X116440000Y-51370000D02*
X119100000Y-51370000D01*
X110350000Y-66430000D02*
X108350000Y-66430000D01*
X108350000Y-63470000D02*
X110350000Y-63470000D01*
X118650000Y-65550000D02*
X122650000Y-65550000D01*
X118650000Y-62250000D02*
X118650000Y-65550000D01*
X139950000Y-60400000D02*
X139950000Y-61400000D01*
X141650000Y-61400000D02*
X141650000Y-60400000D01*
X110500000Y-63150000D02*
X111500000Y-63150000D01*
X111500000Y-61450000D02*
X110500000Y-61450000D01*
X150250000Y-51700000D02*
X149250000Y-51700000D01*
X149250000Y-53400000D02*
X150250000Y-53400000D01*
D11*
X112157142Y-51576190D02*
X112157142Y-51076190D01*
X112300000Y-51076190D01*
X112385714Y-51100000D01*
X112442857Y-51147619D01*
X112471428Y-51195238D01*
X112500000Y-51290476D01*
X112500000Y-51361904D01*
X112471428Y-51457142D01*
X112442857Y-51504761D01*
X112385714Y-51552380D01*
X112300000Y-51576190D01*
X112157142Y-51576190D01*
X112842857Y-51290476D02*
X112785714Y-51266666D01*
X112757142Y-51242857D01*
X112728571Y-51195238D01*
X112728571Y-51171428D01*
X112757142Y-51123809D01*
X112785714Y-51100000D01*
X112842857Y-51076190D01*
X112957142Y-51076190D01*
X113014285Y-51100000D01*
X113042857Y-51123809D01*
X113071428Y-51171428D01*
X113071428Y-51195238D01*
X113042857Y-51242857D01*
X113014285Y-51266666D01*
X112957142Y-51290476D01*
X112842857Y-51290476D01*
X112785714Y-51314285D01*
X112757142Y-51338095D01*
X112728571Y-51385714D01*
X112728571Y-51480952D01*
X112757142Y-51528571D01*
X112785714Y-51552380D01*
X112842857Y-51576190D01*
X112957142Y-51576190D01*
X113014285Y-51552380D01*
X113042857Y-51528571D01*
X113071428Y-51480952D01*
X113071428Y-51385714D01*
X113042857Y-51338095D01*
X113014285Y-51314285D01*
X112957142Y-51290476D01*
D15*
X115927142Y-58676666D02*
X115974761Y-58724285D01*
X116022380Y-58867142D01*
X116022380Y-58962380D01*
X115974761Y-59105238D01*
X115879523Y-59200476D01*
X115784285Y-59248095D01*
X115593809Y-59295714D01*
X115450952Y-59295714D01*
X115260476Y-59248095D01*
X115165238Y-59200476D01*
X115070000Y-59105238D01*
X115022380Y-58962380D01*
X115022380Y-58867142D01*
X115070000Y-58724285D01*
X115117619Y-58676666D01*
X115355714Y-57819523D02*
X116022380Y-57819523D01*
X114974761Y-58057619D02*
X115689047Y-58295714D01*
X115689047Y-57676666D01*
X107989047Y-60601428D02*
X108750952Y-60601428D01*
X108370000Y-60982380D02*
X108370000Y-60220476D01*
X155047142Y-48596666D02*
X155094761Y-48644285D01*
X155142380Y-48787142D01*
X155142380Y-48882380D01*
X155094761Y-49025238D01*
X154999523Y-49120476D01*
X154904285Y-49168095D01*
X154713809Y-49215714D01*
X154570952Y-49215714D01*
X154380476Y-49168095D01*
X154285238Y-49120476D01*
X154190000Y-49025238D01*
X154142380Y-48882380D01*
X154142380Y-48787142D01*
X154190000Y-48644285D01*
X154237619Y-48596666D01*
X154570952Y-48025238D02*
X154523333Y-48120476D01*
X154475714Y-48168095D01*
X154380476Y-48215714D01*
X154332857Y-48215714D01*
X154237619Y-48168095D01*
X154190000Y-48120476D01*
X154142380Y-48025238D01*
X154142380Y-47834761D01*
X154190000Y-47739523D01*
X154237619Y-47691904D01*
X154332857Y-47644285D01*
X154380476Y-47644285D01*
X154475714Y-47691904D01*
X154523333Y-47739523D01*
X154570952Y-47834761D01*
X154570952Y-48025238D01*
X154618571Y-48120476D01*
X154666190Y-48168095D01*
X154761428Y-48215714D01*
X154951904Y-48215714D01*
X155047142Y-48168095D01*
X155094761Y-48120476D01*
X155142380Y-48025238D01*
X155142380Y-47834761D01*
X155094761Y-47739523D01*
X155047142Y-47691904D01*
X154951904Y-47644285D01*
X154761428Y-47644285D01*
X154666190Y-47691904D01*
X154618571Y-47739523D01*
X154570952Y-47834761D01*
X146839047Y-50481428D02*
X147600952Y-50481428D01*
X147220000Y-50862380D02*
X147220000Y-50100476D01*
X143181904Y-58712380D02*
X143181904Y-57712380D01*
X143420000Y-57712380D01*
X143562857Y-57760000D01*
X143658095Y-57855238D01*
X143705714Y-57950476D01*
X143753333Y-58140952D01*
X143753333Y-58283809D01*
X143705714Y-58474285D01*
X143658095Y-58569523D01*
X143562857Y-58664761D01*
X143420000Y-58712380D01*
X143181904Y-58712380D01*
X144705714Y-58712380D02*
X144134285Y-58712380D01*
X144420000Y-58712380D02*
X144420000Y-57712380D01*
X144324761Y-57855238D01*
X144229523Y-57950476D01*
X144134285Y-57998095D01*
X111302380Y-72838095D02*
X110302380Y-72838095D01*
X110302380Y-72600000D01*
X110350000Y-72457142D01*
X110445238Y-72361904D01*
X110540476Y-72314285D01*
X110730952Y-72266666D01*
X110873809Y-72266666D01*
X111064285Y-72314285D01*
X111159523Y-72361904D01*
X111254761Y-72457142D01*
X111302380Y-72600000D01*
X111302380Y-72838095D01*
X110302380Y-71933333D02*
X110302380Y-71314285D01*
X110683333Y-71647619D01*
X110683333Y-71504761D01*
X110730952Y-71409523D01*
X110778571Y-71361904D01*
X110873809Y-71314285D01*
X111111904Y-71314285D01*
X111207142Y-71361904D01*
X111254761Y-71409523D01*
X111302380Y-71504761D01*
X111302380Y-71790476D01*
X111254761Y-71885714D01*
X111207142Y-71933333D01*
X111302380Y-76388095D02*
X110302380Y-76388095D01*
X110302380Y-76150000D01*
X110350000Y-76007142D01*
X110445238Y-75911904D01*
X110540476Y-75864285D01*
X110730952Y-75816666D01*
X110873809Y-75816666D01*
X111064285Y-75864285D01*
X111159523Y-75911904D01*
X111254761Y-76007142D01*
X111302380Y-76150000D01*
X111302380Y-76388095D01*
X110635714Y-74959523D02*
X111302380Y-74959523D01*
X110254761Y-75197619D02*
X110969047Y-75435714D01*
X110969047Y-74816666D01*
X118952380Y-54938095D02*
X117952380Y-54938095D01*
X117952380Y-54700000D01*
X118000000Y-54557142D01*
X118095238Y-54461904D01*
X118190476Y-54414285D01*
X118380952Y-54366666D01*
X118523809Y-54366666D01*
X118714285Y-54414285D01*
X118809523Y-54461904D01*
X118904761Y-54557142D01*
X118952380Y-54700000D01*
X118952380Y-54938095D01*
X117952380Y-53461904D02*
X117952380Y-53938095D01*
X118428571Y-53985714D01*
X118380952Y-53938095D01*
X118333333Y-53842857D01*
X118333333Y-53604761D01*
X118380952Y-53509523D01*
X118428571Y-53461904D01*
X118523809Y-53414285D01*
X118761904Y-53414285D01*
X118857142Y-53461904D01*
X118904761Y-53509523D01*
X118952380Y-53604761D01*
X118952380Y-53842857D01*
X118904761Y-53938095D01*
X118857142Y-53985714D01*
X111222380Y-81254285D02*
X110222380Y-81254285D01*
X110222380Y-81016190D01*
X110270000Y-80873333D01*
X110365238Y-80778095D01*
X110460476Y-80730476D01*
X110650952Y-80682857D01*
X110793809Y-80682857D01*
X110984285Y-80730476D01*
X111079523Y-80778095D01*
X111174761Y-80873333D01*
X111222380Y-81016190D01*
X111222380Y-81254285D01*
X111222380Y-79730476D02*
X111222380Y-80301904D01*
X111222380Y-80016190D02*
X110222380Y-80016190D01*
X110365238Y-80111428D01*
X110460476Y-80206666D01*
X110508095Y-80301904D01*
X110222380Y-79111428D02*
X110222380Y-79016190D01*
X110270000Y-78920952D01*
X110317619Y-78873333D01*
X110412857Y-78825714D01*
X110603333Y-78778095D01*
X110841428Y-78778095D01*
X111031904Y-78825714D01*
X111127142Y-78873333D01*
X111174761Y-78920952D01*
X111222380Y-79016190D01*
X111222380Y-79111428D01*
X111174761Y-79206666D01*
X111127142Y-79254285D01*
X111031904Y-79301904D01*
X110841428Y-79349523D01*
X110603333Y-79349523D01*
X110412857Y-79301904D01*
X110317619Y-79254285D01*
X110270000Y-79206666D01*
X110222380Y-79111428D01*
X111440476Y-90802380D02*
X111440476Y-91516666D01*
X111392857Y-91659523D01*
X111297619Y-91754761D01*
X111154761Y-91802380D01*
X111059523Y-91802380D01*
X112440476Y-91802380D02*
X111869047Y-91802380D01*
X112154761Y-91802380D02*
X112154761Y-90802380D01*
X112059523Y-90945238D01*
X111964285Y-91040476D01*
X111869047Y-91088095D01*
X112821428Y-90897619D02*
X112869047Y-90850000D01*
X112964285Y-90802380D01*
X113202380Y-90802380D01*
X113297619Y-90850000D01*
X113345238Y-90897619D01*
X113392857Y-90992857D01*
X113392857Y-91088095D01*
X113345238Y-91230952D01*
X112773809Y-91802380D01*
X113392857Y-91802380D01*
X128740476Y-90802380D02*
X128740476Y-91516666D01*
X128692857Y-91659523D01*
X128597619Y-91754761D01*
X128454761Y-91802380D01*
X128359523Y-91802380D01*
X129740476Y-91802380D02*
X129169047Y-91802380D01*
X129454761Y-91802380D02*
X129454761Y-90802380D01*
X129359523Y-90945238D01*
X129264285Y-91040476D01*
X129169047Y-91088095D01*
X130073809Y-90802380D02*
X130692857Y-90802380D01*
X130359523Y-91183333D01*
X130502380Y-91183333D01*
X130597619Y-91230952D01*
X130645238Y-91278571D01*
X130692857Y-91373809D01*
X130692857Y-91611904D01*
X130645238Y-91707142D01*
X130597619Y-91754761D01*
X130502380Y-91802380D01*
X130216666Y-91802380D01*
X130121428Y-91754761D01*
X130073809Y-91707142D01*
X145990476Y-90802380D02*
X145990476Y-91516666D01*
X145942857Y-91659523D01*
X145847619Y-91754761D01*
X145704761Y-91802380D01*
X145609523Y-91802380D01*
X146990476Y-91802380D02*
X146419047Y-91802380D01*
X146704761Y-91802380D02*
X146704761Y-90802380D01*
X146609523Y-90945238D01*
X146514285Y-91040476D01*
X146419047Y-91088095D01*
X147847619Y-91135714D02*
X147847619Y-91802380D01*
X147609523Y-90754761D02*
X147371428Y-91469047D01*
X147990476Y-91469047D01*
X134733333Y-51752380D02*
X134257142Y-51752380D01*
X134257142Y-50752380D01*
X135590476Y-51752380D02*
X135019047Y-51752380D01*
X135304761Y-51752380D02*
X135304761Y-50752380D01*
X135209523Y-50895238D01*
X135114285Y-50990476D01*
X135019047Y-51038095D01*
X103533333Y-54452380D02*
X103057142Y-54452380D01*
X103057142Y-53452380D01*
X103819047Y-53547619D02*
X103866666Y-53500000D01*
X103961904Y-53452380D01*
X104200000Y-53452380D01*
X104295238Y-53500000D01*
X104342857Y-53547619D01*
X104390476Y-53642857D01*
X104390476Y-53738095D01*
X104342857Y-53880952D01*
X103771428Y-54452380D01*
X104390476Y-54452380D01*
X121678095Y-78762380D02*
X121678095Y-79571904D01*
X121725714Y-79667142D01*
X121773333Y-79714761D01*
X121868571Y-79762380D01*
X122059047Y-79762380D01*
X122154285Y-79714761D01*
X122201904Y-79667142D01*
X122249523Y-79571904D01*
X122249523Y-78762380D01*
X122678095Y-78857619D02*
X122725714Y-78810000D01*
X122820952Y-78762380D01*
X123059047Y-78762380D01*
X123154285Y-78810000D01*
X123201904Y-78857619D01*
X123249523Y-78952857D01*
X123249523Y-79048095D01*
X123201904Y-79190952D01*
X122630476Y-79762380D01*
X123249523Y-79762380D01*
X136318095Y-78692380D02*
X136318095Y-79501904D01*
X136365714Y-79597142D01*
X136413333Y-79644761D01*
X136508571Y-79692380D01*
X136699047Y-79692380D01*
X136794285Y-79644761D01*
X136841904Y-79597142D01*
X136889523Y-79501904D01*
X136889523Y-78692380D01*
X137270476Y-78692380D02*
X137889523Y-78692380D01*
X137556190Y-79073333D01*
X137699047Y-79073333D01*
X137794285Y-79120952D01*
X137841904Y-79168571D01*
X137889523Y-79263809D01*
X137889523Y-79501904D01*
X137841904Y-79597142D01*
X137794285Y-79644761D01*
X137699047Y-79692380D01*
X137413333Y-79692380D01*
X137318095Y-79644761D01*
X137270476Y-79597142D01*
X113402380Y-54140476D02*
X112926190Y-54473809D01*
X113402380Y-54711904D02*
X112402380Y-54711904D01*
X112402380Y-54330952D01*
X112450000Y-54235714D01*
X112497619Y-54188095D01*
X112592857Y-54140476D01*
X112735714Y-54140476D01*
X112830952Y-54188095D01*
X112878571Y-54235714D01*
X112926190Y-54330952D01*
X112926190Y-54711904D01*
X113402380Y-53711904D02*
X112402380Y-53711904D01*
X113402380Y-53140476D01*
X112402380Y-53140476D01*
X113402380Y-52140476D02*
X113402380Y-52711904D01*
X113402380Y-52426190D02*
X112402380Y-52426190D01*
X112545238Y-52521428D01*
X112640476Y-52616666D01*
X112688095Y-52711904D01*
X123638095Y-60352380D02*
X123638095Y-61161904D01*
X123685714Y-61257142D01*
X123733333Y-61304761D01*
X123828571Y-61352380D01*
X124019047Y-61352380D01*
X124114285Y-61304761D01*
X124161904Y-61257142D01*
X124209523Y-61161904D01*
X124209523Y-60352380D01*
X125209523Y-61352380D02*
X124638095Y-61352380D01*
X124923809Y-61352380D02*
X124923809Y-60352380D01*
X124828571Y-60495238D01*
X124733333Y-60590476D01*
X124638095Y-60638095D01*
X122957142Y-67916666D02*
X123004761Y-67964285D01*
X123052380Y-68107142D01*
X123052380Y-68202380D01*
X123004761Y-68345238D01*
X122909523Y-68440476D01*
X122814285Y-68488095D01*
X122623809Y-68535714D01*
X122480952Y-68535714D01*
X122290476Y-68488095D01*
X122195238Y-68440476D01*
X122100000Y-68345238D01*
X122052380Y-68202380D01*
X122052380Y-68107142D01*
X122100000Y-67964285D01*
X122147619Y-67916666D01*
X122147619Y-67535714D02*
X122100000Y-67488095D01*
X122052380Y-67392857D01*
X122052380Y-67154761D01*
X122100000Y-67059523D01*
X122147619Y-67011904D01*
X122242857Y-66964285D01*
X122338095Y-66964285D01*
X122480952Y-67011904D01*
X123052380Y-67583333D01*
X123052380Y-66964285D01*
X118007142Y-60416666D02*
X118054761Y-60464285D01*
X118102380Y-60607142D01*
X118102380Y-60702380D01*
X118054761Y-60845238D01*
X117959523Y-60940476D01*
X117864285Y-60988095D01*
X117673809Y-61035714D01*
X117530952Y-61035714D01*
X117340476Y-60988095D01*
X117245238Y-60940476D01*
X117150000Y-60845238D01*
X117102380Y-60702380D01*
X117102380Y-60607142D01*
X117150000Y-60464285D01*
X117197619Y-60416666D01*
X117102380Y-60083333D02*
X117102380Y-59464285D01*
X117483333Y-59797619D01*
X117483333Y-59654761D01*
X117530952Y-59559523D01*
X117578571Y-59511904D01*
X117673809Y-59464285D01*
X117911904Y-59464285D01*
X118007142Y-59511904D01*
X118054761Y-59559523D01*
X118102380Y-59654761D01*
X118102380Y-59940476D01*
X118054761Y-60035714D01*
X118007142Y-60083333D01*
X127157142Y-55916666D02*
X127204761Y-55964285D01*
X127252380Y-56107142D01*
X127252380Y-56202380D01*
X127204761Y-56345238D01*
X127109523Y-56440476D01*
X127014285Y-56488095D01*
X126823809Y-56535714D01*
X126680952Y-56535714D01*
X126490476Y-56488095D01*
X126395238Y-56440476D01*
X126300000Y-56345238D01*
X126252380Y-56202380D01*
X126252380Y-56107142D01*
X126300000Y-55964285D01*
X126347619Y-55916666D01*
X126252380Y-55059523D02*
X126252380Y-55250000D01*
X126300000Y-55345238D01*
X126347619Y-55392857D01*
X126490476Y-55488095D01*
X126680952Y-55535714D01*
X127061904Y-55535714D01*
X127157142Y-55488095D01*
X127204761Y-55440476D01*
X127252380Y-55345238D01*
X127252380Y-55154761D01*
X127204761Y-55059523D01*
X127157142Y-55011904D01*
X127061904Y-54964285D01*
X126823809Y-54964285D01*
X126728571Y-55011904D01*
X126680952Y-55059523D01*
X126633333Y-55154761D01*
X126633333Y-55345238D01*
X126680952Y-55440476D01*
X126728571Y-55488095D01*
X126823809Y-55535714D01*
X129723333Y-73257142D02*
X129675714Y-73304761D01*
X129532857Y-73352380D01*
X129437619Y-73352380D01*
X129294761Y-73304761D01*
X129199523Y-73209523D01*
X129151904Y-73114285D01*
X129104285Y-72923809D01*
X129104285Y-72780952D01*
X129151904Y-72590476D01*
X129199523Y-72495238D01*
X129294761Y-72400000D01*
X129437619Y-72352380D01*
X129532857Y-72352380D01*
X129675714Y-72400000D01*
X129723333Y-72447619D01*
X130056666Y-72352380D02*
X130723333Y-72352380D01*
X130294761Y-73352380D01*
X117857142Y-84342857D02*
X117904761Y-84390476D01*
X117952380Y-84533333D01*
X117952380Y-84628571D01*
X117904761Y-84771428D01*
X117809523Y-84866666D01*
X117714285Y-84914285D01*
X117523809Y-84961904D01*
X117380952Y-84961904D01*
X117190476Y-84914285D01*
X117095238Y-84866666D01*
X117000000Y-84771428D01*
X116952380Y-84628571D01*
X116952380Y-84533333D01*
X117000000Y-84390476D01*
X117047619Y-84342857D01*
X117952380Y-83390476D02*
X117952380Y-83961904D01*
X117952380Y-83676190D02*
X116952380Y-83676190D01*
X117095238Y-83771428D01*
X117190476Y-83866666D01*
X117238095Y-83961904D01*
X116952380Y-82771428D02*
X116952380Y-82676190D01*
X117000000Y-82580952D01*
X117047619Y-82533333D01*
X117142857Y-82485714D01*
X117333333Y-82438095D01*
X117571428Y-82438095D01*
X117761904Y-82485714D01*
X117857142Y-82533333D01*
X117904761Y-82580952D01*
X117952380Y-82676190D01*
X117952380Y-82771428D01*
X117904761Y-82866666D01*
X117857142Y-82914285D01*
X117761904Y-82961904D01*
X117571428Y-83009523D01*
X117333333Y-83009523D01*
X117142857Y-82961904D01*
X117047619Y-82914285D01*
X117000000Y-82866666D01*
X116952380Y-82771428D01*
X132707142Y-84492857D02*
X132754761Y-84540476D01*
X132802380Y-84683333D01*
X132802380Y-84778571D01*
X132754761Y-84921428D01*
X132659523Y-85016666D01*
X132564285Y-85064285D01*
X132373809Y-85111904D01*
X132230952Y-85111904D01*
X132040476Y-85064285D01*
X131945238Y-85016666D01*
X131850000Y-84921428D01*
X131802380Y-84778571D01*
X131802380Y-84683333D01*
X131850000Y-84540476D01*
X131897619Y-84492857D01*
X132802380Y-83540476D02*
X132802380Y-84111904D01*
X132802380Y-83826190D02*
X131802380Y-83826190D01*
X131945238Y-83921428D01*
X132040476Y-84016666D01*
X132088095Y-84111904D01*
X132802380Y-82588095D02*
X132802380Y-83159523D01*
X132802380Y-82873809D02*
X131802380Y-82873809D01*
X131945238Y-82969047D01*
X132040476Y-83064285D01*
X132088095Y-83159523D01*
X115166666Y-87128571D02*
X114833333Y-87128571D01*
X114833333Y-87652380D02*
X114833333Y-86652380D01*
X115309523Y-86652380D01*
X115642857Y-86747619D02*
X115690476Y-86700000D01*
X115785714Y-86652380D01*
X116023809Y-86652380D01*
X116119047Y-86700000D01*
X116166666Y-86747619D01*
X116214285Y-86842857D01*
X116214285Y-86938095D01*
X116166666Y-87080952D01*
X115595238Y-87652380D01*
X116214285Y-87652380D01*
X132416666Y-87078571D02*
X132083333Y-87078571D01*
X132083333Y-87602380D02*
X132083333Y-86602380D01*
X132559523Y-86602380D01*
X132845238Y-86602380D02*
X133464285Y-86602380D01*
X133130952Y-86983333D01*
X133273809Y-86983333D01*
X133369047Y-87030952D01*
X133416666Y-87078571D01*
X133464285Y-87173809D01*
X133464285Y-87411904D01*
X133416666Y-87507142D01*
X133369047Y-87554761D01*
X133273809Y-87602380D01*
X132988095Y-87602380D01*
X132892857Y-87554761D01*
X132845238Y-87507142D01*
X149716666Y-87128571D02*
X149383333Y-87128571D01*
X149383333Y-87652380D02*
X149383333Y-86652380D01*
X149859523Y-86652380D01*
X150669047Y-86985714D02*
X150669047Y-87652380D01*
X150430952Y-86604761D02*
X150192857Y-87319047D01*
X150811904Y-87319047D01*
X146078571Y-53733333D02*
X146078571Y-54066666D01*
X146602380Y-54066666D02*
X145602380Y-54066666D01*
X145602380Y-53590476D01*
X145602380Y-52733333D02*
X145602380Y-53209523D01*
X146078571Y-53257142D01*
X146030952Y-53209523D01*
X145983333Y-53114285D01*
X145983333Y-52876190D01*
X146030952Y-52780952D01*
X146078571Y-52733333D01*
X146173809Y-52685714D01*
X146411904Y-52685714D01*
X146507142Y-52733333D01*
X146554761Y-52780952D01*
X146602380Y-52876190D01*
X146602380Y-53114285D01*
X146554761Y-53209523D01*
X146507142Y-53257142D01*
X125192380Y-71656666D02*
X124716190Y-71990000D01*
X125192380Y-72228095D02*
X124192380Y-72228095D01*
X124192380Y-71847142D01*
X124240000Y-71751904D01*
X124287619Y-71704285D01*
X124382857Y-71656666D01*
X124525714Y-71656666D01*
X124620952Y-71704285D01*
X124668571Y-71751904D01*
X124716190Y-71847142D01*
X124716190Y-72228095D01*
X125192380Y-70704285D02*
X125192380Y-71275714D01*
X125192380Y-70990000D02*
X124192380Y-70990000D01*
X124335238Y-71085238D01*
X124430476Y-71180476D01*
X124478095Y-71275714D01*
X119902380Y-71536666D02*
X119426190Y-71870000D01*
X119902380Y-72108095D02*
X118902380Y-72108095D01*
X118902380Y-71727142D01*
X118950000Y-71631904D01*
X118997619Y-71584285D01*
X119092857Y-71536666D01*
X119235714Y-71536666D01*
X119330952Y-71584285D01*
X119378571Y-71631904D01*
X119426190Y-71727142D01*
X119426190Y-72108095D01*
X118997619Y-71155714D02*
X118950000Y-71108095D01*
X118902380Y-71012857D01*
X118902380Y-70774761D01*
X118950000Y-70679523D01*
X118997619Y-70631904D01*
X119092857Y-70584285D01*
X119188095Y-70584285D01*
X119330952Y-70631904D01*
X119902380Y-71203333D01*
X119902380Y-70584285D01*
X133683333Y-57402380D02*
X133350000Y-56926190D01*
X133111904Y-57402380D02*
X133111904Y-56402380D01*
X133492857Y-56402380D01*
X133588095Y-56450000D01*
X133635714Y-56497619D01*
X133683333Y-56592857D01*
X133683333Y-56735714D01*
X133635714Y-56830952D01*
X133588095Y-56878571D01*
X133492857Y-56926190D01*
X133111904Y-56926190D01*
X134016666Y-56402380D02*
X134635714Y-56402380D01*
X134302380Y-56783333D01*
X134445238Y-56783333D01*
X134540476Y-56830952D01*
X134588095Y-56878571D01*
X134635714Y-56973809D01*
X134635714Y-57211904D01*
X134588095Y-57307142D01*
X134540476Y-57354761D01*
X134445238Y-57402380D01*
X134159523Y-57402380D01*
X134064285Y-57354761D01*
X134016666Y-57307142D01*
X135783333Y-57402380D02*
X135450000Y-56926190D01*
X135211904Y-57402380D02*
X135211904Y-56402380D01*
X135592857Y-56402380D01*
X135688095Y-56450000D01*
X135735714Y-56497619D01*
X135783333Y-56592857D01*
X135783333Y-56735714D01*
X135735714Y-56830952D01*
X135688095Y-56878571D01*
X135592857Y-56926190D01*
X135211904Y-56926190D01*
X136640476Y-56735714D02*
X136640476Y-57402380D01*
X136402380Y-56354761D02*
X136164285Y-57069047D01*
X136783333Y-57069047D01*
X119652380Y-57366666D02*
X119176190Y-57700000D01*
X119652380Y-57938095D02*
X118652380Y-57938095D01*
X118652380Y-57557142D01*
X118700000Y-57461904D01*
X118747619Y-57414285D01*
X118842857Y-57366666D01*
X118985714Y-57366666D01*
X119080952Y-57414285D01*
X119128571Y-57461904D01*
X119176190Y-57557142D01*
X119176190Y-57938095D01*
X118652380Y-56461904D02*
X118652380Y-56938095D01*
X119128571Y-56985714D01*
X119080952Y-56938095D01*
X119033333Y-56842857D01*
X119033333Y-56604761D01*
X119080952Y-56509523D01*
X119128571Y-56461904D01*
X119223809Y-56414285D01*
X119461904Y-56414285D01*
X119557142Y-56461904D01*
X119604761Y-56509523D01*
X119652380Y-56604761D01*
X119652380Y-56842857D01*
X119604761Y-56938095D01*
X119557142Y-56985714D01*
X135502380Y-73016666D02*
X135026190Y-73350000D01*
X135502380Y-73588095D02*
X134502380Y-73588095D01*
X134502380Y-73207142D01*
X134550000Y-73111904D01*
X134597619Y-73064285D01*
X134692857Y-73016666D01*
X134835714Y-73016666D01*
X134930952Y-73064285D01*
X134978571Y-73111904D01*
X135026190Y-73207142D01*
X135026190Y-73588095D01*
X134502380Y-72159523D02*
X134502380Y-72350000D01*
X134550000Y-72445238D01*
X134597619Y-72492857D01*
X134740476Y-72588095D01*
X134930952Y-72635714D01*
X135311904Y-72635714D01*
X135407142Y-72588095D01*
X135454761Y-72540476D01*
X135502380Y-72445238D01*
X135502380Y-72254761D01*
X135454761Y-72159523D01*
X135407142Y-72111904D01*
X135311904Y-72064285D01*
X135073809Y-72064285D01*
X134978571Y-72111904D01*
X134930952Y-72159523D01*
X134883333Y-72254761D01*
X134883333Y-72445238D01*
X134930952Y-72540476D01*
X134978571Y-72588095D01*
X135073809Y-72635714D01*
X131002380Y-54945238D02*
X130526190Y-55278571D01*
X131002380Y-55516666D02*
X130002380Y-55516666D01*
X130002380Y-55135714D01*
X130050000Y-55040476D01*
X130097619Y-54992857D01*
X130192857Y-54945238D01*
X130335714Y-54945238D01*
X130430952Y-54992857D01*
X130478571Y-55040476D01*
X130526190Y-55135714D01*
X130526190Y-55516666D01*
X130002380Y-54659523D02*
X131002380Y-54326190D01*
X130002380Y-53992857D01*
X131002380Y-53135714D02*
X131002380Y-53707142D01*
X131002380Y-53421428D02*
X130002380Y-53421428D01*
X130145238Y-53516666D01*
X130240476Y-53611904D01*
X130288095Y-53707142D01*
X137854761Y-56802380D02*
X137521428Y-56326190D01*
X137283333Y-56802380D02*
X137283333Y-55802380D01*
X137664285Y-55802380D01*
X137759523Y-55850000D01*
X137807142Y-55897619D01*
X137854761Y-55992857D01*
X137854761Y-56135714D01*
X137807142Y-56230952D01*
X137759523Y-56278571D01*
X137664285Y-56326190D01*
X137283333Y-56326190D01*
X138140476Y-55802380D02*
X138473809Y-56802380D01*
X138807142Y-55802380D01*
X139092857Y-55897619D02*
X139140476Y-55850000D01*
X139235714Y-55802380D01*
X139473809Y-55802380D01*
X139569047Y-55850000D01*
X139616666Y-55897619D01*
X139664285Y-55992857D01*
X139664285Y-56088095D01*
X139616666Y-56230952D01*
X139045238Y-56802380D01*
X139664285Y-56802380D01*
X116138095Y-73332380D02*
X116709523Y-73332380D01*
X116423809Y-74332380D02*
X116423809Y-73332380D01*
X117042857Y-74332380D02*
X117042857Y-73332380D01*
X117423809Y-73332380D01*
X117519047Y-73380000D01*
X117566666Y-73427619D01*
X117614285Y-73522857D01*
X117614285Y-73665714D01*
X117566666Y-73760952D01*
X117519047Y-73808571D01*
X117423809Y-73856190D01*
X117042857Y-73856190D01*
X118566666Y-74332380D02*
X117995238Y-74332380D01*
X118280952Y-74332380D02*
X118280952Y-73332380D01*
X118185714Y-73475238D01*
X118090476Y-73570476D01*
X117995238Y-73618095D01*
X122958095Y-74042380D02*
X123529523Y-74042380D01*
X123243809Y-75042380D02*
X123243809Y-74042380D01*
X123862857Y-75042380D02*
X123862857Y-74042380D01*
X124243809Y-74042380D01*
X124339047Y-74090000D01*
X124386666Y-74137619D01*
X124434285Y-74232857D01*
X124434285Y-74375714D01*
X124386666Y-74470952D01*
X124339047Y-74518571D01*
X124243809Y-74566190D01*
X123862857Y-74566190D01*
X124815238Y-74137619D02*
X124862857Y-74090000D01*
X124958095Y-74042380D01*
X125196190Y-74042380D01*
X125291428Y-74090000D01*
X125339047Y-74137619D01*
X125386666Y-74232857D01*
X125386666Y-74328095D01*
X125339047Y-74470952D01*
X124767619Y-75042380D01*
X125386666Y-75042380D01*
X104258095Y-92902380D02*
X104829523Y-92902380D01*
X104543809Y-93902380D02*
X104543809Y-92902380D01*
X105162857Y-93902380D02*
X105162857Y-92902380D01*
X105543809Y-92902380D01*
X105639047Y-92950000D01*
X105686666Y-92997619D01*
X105734285Y-93092857D01*
X105734285Y-93235714D01*
X105686666Y-93330952D01*
X105639047Y-93378571D01*
X105543809Y-93426190D01*
X105162857Y-93426190D01*
X106067619Y-92902380D02*
X106686666Y-92902380D01*
X106353333Y-93283333D01*
X106496190Y-93283333D01*
X106591428Y-93330952D01*
X106639047Y-93378571D01*
X106686666Y-93473809D01*
X106686666Y-93711904D01*
X106639047Y-93807142D01*
X106591428Y-93854761D01*
X106496190Y-93902380D01*
X106210476Y-93902380D01*
X106115238Y-93854761D01*
X106067619Y-93807142D01*
D11*
X107957142Y-51586190D02*
X107957142Y-51086190D01*
X108100000Y-51086190D01*
X108185714Y-51110000D01*
X108242857Y-51157619D01*
X108271428Y-51205238D01*
X108300000Y-51300476D01*
X108300000Y-51371904D01*
X108271428Y-51467142D01*
X108242857Y-51514761D01*
X108185714Y-51562380D01*
X108100000Y-51586190D01*
X107957142Y-51586190D01*
X108814285Y-51086190D02*
X108700000Y-51086190D01*
X108642857Y-51110000D01*
X108614285Y-51133809D01*
X108557142Y-51205238D01*
X108528571Y-51300476D01*
X108528571Y-51490952D01*
X108557142Y-51538571D01*
X108585714Y-51562380D01*
X108642857Y-51586190D01*
X108757142Y-51586190D01*
X108814285Y-51562380D01*
X108842857Y-51538571D01*
X108871428Y-51490952D01*
X108871428Y-51371904D01*
X108842857Y-51324285D01*
X108814285Y-51300476D01*
X108757142Y-51276666D01*
X108642857Y-51276666D01*
X108585714Y-51300476D01*
X108557142Y-51324285D01*
X108528571Y-51371904D01*
X110067142Y-51576190D02*
X110067142Y-51076190D01*
X110210000Y-51076190D01*
X110295714Y-51100000D01*
X110352857Y-51147619D01*
X110381428Y-51195238D01*
X110410000Y-51290476D01*
X110410000Y-51361904D01*
X110381428Y-51457142D01*
X110352857Y-51504761D01*
X110295714Y-51552380D01*
X110210000Y-51576190D01*
X110067142Y-51576190D01*
X110610000Y-51076190D02*
X111010000Y-51076190D01*
X110752857Y-51576190D01*
D15*
X121012380Y-77908095D02*
X120012380Y-77908095D01*
X120012380Y-77670000D01*
X120060000Y-77527142D01*
X120155238Y-77431904D01*
X120250476Y-77384285D01*
X120440952Y-77336666D01*
X120583809Y-77336666D01*
X120774285Y-77384285D01*
X120869523Y-77431904D01*
X120964761Y-77527142D01*
X121012380Y-77670000D01*
X121012380Y-77908095D01*
X121012380Y-76860476D02*
X121012380Y-76670000D01*
X120964761Y-76574761D01*
X120917142Y-76527142D01*
X120774285Y-76431904D01*
X120583809Y-76384285D01*
X120202857Y-76384285D01*
X120107619Y-76431904D01*
X120060000Y-76479523D01*
X120012380Y-76574761D01*
X120012380Y-76765238D01*
X120060000Y-76860476D01*
X120107619Y-76908095D01*
X120202857Y-76955714D01*
X120440952Y-76955714D01*
X120536190Y-76908095D01*
X120583809Y-76860476D01*
X120631428Y-76765238D01*
X120631428Y-76574761D01*
X120583809Y-76479523D01*
X120536190Y-76431904D01*
X120440952Y-76384285D01*
X106092380Y-63333333D02*
X106806666Y-63333333D01*
X106949523Y-63380952D01*
X107044761Y-63476190D01*
X107092380Y-63619047D01*
X107092380Y-63714285D01*
X107092380Y-62333333D02*
X107092380Y-62904761D01*
X107092380Y-62619047D02*
X106092380Y-62619047D01*
X106235238Y-62714285D01*
X106330476Y-62809523D01*
X106378095Y-62904761D01*
X108622380Y-79093333D02*
X109336666Y-79093333D01*
X109479523Y-79140952D01*
X109574761Y-79236190D01*
X109622380Y-79379047D01*
X109622380Y-79474285D01*
X108717619Y-78664761D02*
X108670000Y-78617142D01*
X108622380Y-78521904D01*
X108622380Y-78283809D01*
X108670000Y-78188571D01*
X108717619Y-78140952D01*
X108812857Y-78093333D01*
X108908095Y-78093333D01*
X109050952Y-78140952D01*
X109622380Y-78712380D01*
X109622380Y-78093333D01*
X147656666Y-69462380D02*
X147656666Y-70176666D01*
X147609047Y-70319523D01*
X147513809Y-70414761D01*
X147370952Y-70462380D01*
X147275714Y-70462380D01*
X148037619Y-69462380D02*
X148656666Y-69462380D01*
X148323333Y-69843333D01*
X148466190Y-69843333D01*
X148561428Y-69890952D01*
X148609047Y-69938571D01*
X148656666Y-70033809D01*
X148656666Y-70271904D01*
X148609047Y-70367142D01*
X148561428Y-70414761D01*
X148466190Y-70462380D01*
X148180476Y-70462380D01*
X148085238Y-70414761D01*
X148037619Y-70367142D01*
X147696666Y-54422380D02*
X147696666Y-55136666D01*
X147649047Y-55279523D01*
X147553809Y-55374761D01*
X147410952Y-55422380D01*
X147315714Y-55422380D01*
X148601428Y-54755714D02*
X148601428Y-55422380D01*
X148363333Y-54374761D02*
X148125238Y-55089047D01*
X148744285Y-55089047D01*
X147716666Y-61902380D02*
X147716666Y-62616666D01*
X147669047Y-62759523D01*
X147573809Y-62854761D01*
X147430952Y-62902380D01*
X147335714Y-62902380D01*
X148669047Y-61902380D02*
X148192857Y-61902380D01*
X148145238Y-62378571D01*
X148192857Y-62330952D01*
X148288095Y-62283333D01*
X148526190Y-62283333D01*
X148621428Y-62330952D01*
X148669047Y-62378571D01*
X148716666Y-62473809D01*
X148716666Y-62711904D01*
X148669047Y-62807142D01*
X148621428Y-62854761D01*
X148526190Y-62902380D01*
X148288095Y-62902380D01*
X148192857Y-62854761D01*
X148145238Y-62807142D01*
X157716666Y-60172380D02*
X157716666Y-60886666D01*
X157669047Y-61029523D01*
X157573809Y-61124761D01*
X157430952Y-61172380D01*
X157335714Y-61172380D01*
X158621428Y-60172380D02*
X158430952Y-60172380D01*
X158335714Y-60220000D01*
X158288095Y-60267619D01*
X158192857Y-60410476D01*
X158145238Y-60600952D01*
X158145238Y-60981904D01*
X158192857Y-61077142D01*
X158240476Y-61124761D01*
X158335714Y-61172380D01*
X158526190Y-61172380D01*
X158621428Y-61124761D01*
X158669047Y-61077142D01*
X158716666Y-60981904D01*
X158716666Y-60743809D01*
X158669047Y-60648571D01*
X158621428Y-60600952D01*
X158526190Y-60553333D01*
X158335714Y-60553333D01*
X158240476Y-60600952D01*
X158192857Y-60648571D01*
X158145238Y-60743809D01*
X111142380Y-88843333D02*
X111856666Y-88843333D01*
X111999523Y-88890952D01*
X112094761Y-88986190D01*
X112142380Y-89129047D01*
X112142380Y-89224285D01*
X111142380Y-88462380D02*
X111142380Y-87795714D01*
X112142380Y-88224285D01*
X147656666Y-79532380D02*
X147656666Y-80246666D01*
X147609047Y-80389523D01*
X147513809Y-80484761D01*
X147370952Y-80532380D01*
X147275714Y-80532380D01*
X148275714Y-79960952D02*
X148180476Y-79913333D01*
X148132857Y-79865714D01*
X148085238Y-79770476D01*
X148085238Y-79722857D01*
X148132857Y-79627619D01*
X148180476Y-79580000D01*
X148275714Y-79532380D01*
X148466190Y-79532380D01*
X148561428Y-79580000D01*
X148609047Y-79627619D01*
X148656666Y-79722857D01*
X148656666Y-79770476D01*
X148609047Y-79865714D01*
X148561428Y-79913333D01*
X148466190Y-79960952D01*
X148275714Y-79960952D01*
X148180476Y-80008571D01*
X148132857Y-80056190D01*
X148085238Y-80151428D01*
X148085238Y-80341904D01*
X148132857Y-80437142D01*
X148180476Y-80484761D01*
X148275714Y-80532380D01*
X148466190Y-80532380D01*
X148561428Y-80484761D01*
X148609047Y-80437142D01*
X148656666Y-80341904D01*
X148656666Y-80151428D01*
X148609047Y-80056190D01*
X148561428Y-80008571D01*
X148466190Y-79960952D01*
X157366666Y-77822380D02*
X157366666Y-78536666D01*
X157319047Y-78679523D01*
X157223809Y-78774761D01*
X157080952Y-78822380D01*
X156985714Y-78822380D01*
X157890476Y-78822380D02*
X158080952Y-78822380D01*
X158176190Y-78774761D01*
X158223809Y-78727142D01*
X158319047Y-78584285D01*
X158366666Y-78393809D01*
X158366666Y-78012857D01*
X158319047Y-77917619D01*
X158271428Y-77870000D01*
X158176190Y-77822380D01*
X157985714Y-77822380D01*
X157890476Y-77870000D01*
X157842857Y-77917619D01*
X157795238Y-78012857D01*
X157795238Y-78250952D01*
X157842857Y-78346190D01*
X157890476Y-78393809D01*
X157985714Y-78441428D01*
X158176190Y-78441428D01*
X158271428Y-78393809D01*
X158319047Y-78346190D01*
X158366666Y-78250952D01*
X121852380Y-51309523D02*
X122566666Y-51309523D01*
X122709523Y-51357142D01*
X122804761Y-51452380D01*
X122852380Y-51595238D01*
X122852380Y-51690476D01*
X122852380Y-50309523D02*
X122852380Y-50880952D01*
X122852380Y-50595238D02*
X121852380Y-50595238D01*
X121995238Y-50690476D01*
X122090476Y-50785714D01*
X122138095Y-50880952D01*
X121852380Y-49690476D02*
X121852380Y-49595238D01*
X121900000Y-49500000D01*
X121947619Y-49452380D01*
X122042857Y-49404761D01*
X122233333Y-49357142D01*
X122471428Y-49357142D01*
X122661904Y-49404761D01*
X122757142Y-49452380D01*
X122804761Y-49500000D01*
X122852380Y-49595238D01*
X122852380Y-49690476D01*
X122804761Y-49785714D01*
X122757142Y-49833333D01*
X122661904Y-49880952D01*
X122471428Y-49928571D01*
X122233333Y-49928571D01*
X122042857Y-49880952D01*
X121947619Y-49833333D01*
X121900000Y-49785714D01*
X121852380Y-49690476D01*
X137120476Y-51052380D02*
X137120476Y-51766666D01*
X137072857Y-51909523D01*
X136977619Y-52004761D01*
X136834761Y-52052380D01*
X136739523Y-52052380D01*
X138120476Y-52052380D02*
X137549047Y-52052380D01*
X137834761Y-52052380D02*
X137834761Y-51052380D01*
X137739523Y-51195238D01*
X137644285Y-51290476D01*
X137549047Y-51338095D01*
X139072857Y-52052380D02*
X138501428Y-52052380D01*
X138787142Y-52052380D02*
X138787142Y-51052380D01*
X138691904Y-51195238D01*
X138596666Y-51290476D01*
X138501428Y-51338095D01*
X102666666Y-51992380D02*
X102666666Y-50992380D01*
X103000000Y-51706666D01*
X103333333Y-50992380D01*
X103333333Y-51992380D01*
X103809523Y-51992380D02*
X103809523Y-50992380D01*
X103809523Y-51468571D02*
X104380952Y-51468571D01*
X104380952Y-51992380D02*
X104380952Y-50992380D01*
X105380952Y-51992380D02*
X104809523Y-51992380D01*
X105095238Y-51992380D02*
X105095238Y-50992380D01*
X105000000Y-51135238D01*
X104904761Y-51230476D01*
X104809523Y-51278095D01*
X159676666Y-51982380D02*
X159676666Y-50982380D01*
X160010000Y-51696666D01*
X160343333Y-50982380D01*
X160343333Y-51982380D01*
X160819523Y-51982380D02*
X160819523Y-50982380D01*
X160819523Y-51458571D02*
X161390952Y-51458571D01*
X161390952Y-51982380D02*
X161390952Y-50982380D01*
X161819523Y-51077619D02*
X161867142Y-51030000D01*
X161962380Y-50982380D01*
X162200476Y-50982380D01*
X162295714Y-51030000D01*
X162343333Y-51077619D01*
X162390952Y-51172857D01*
X162390952Y-51268095D01*
X162343333Y-51410952D01*
X161771904Y-51982380D01*
X162390952Y-51982380D01*
X102666666Y-98992380D02*
X102666666Y-97992380D01*
X103000000Y-98706666D01*
X103333333Y-97992380D01*
X103333333Y-98992380D01*
X103809523Y-98992380D02*
X103809523Y-97992380D01*
X103809523Y-98468571D02*
X104380952Y-98468571D01*
X104380952Y-98992380D02*
X104380952Y-97992380D01*
X104761904Y-97992380D02*
X105380952Y-97992380D01*
X105047619Y-98373333D01*
X105190476Y-98373333D01*
X105285714Y-98420952D01*
X105333333Y-98468571D01*
X105380952Y-98563809D01*
X105380952Y-98801904D01*
X105333333Y-98897142D01*
X105285714Y-98944761D01*
X105190476Y-98992380D01*
X104904761Y-98992380D01*
X104809523Y-98944761D01*
X104761904Y-98897142D01*
X159666666Y-98992380D02*
X159666666Y-97992380D01*
X160000000Y-98706666D01*
X160333333Y-97992380D01*
X160333333Y-98992380D01*
X160809523Y-98992380D02*
X160809523Y-97992380D01*
X160809523Y-98468571D02*
X161380952Y-98468571D01*
X161380952Y-98992380D02*
X161380952Y-97992380D01*
X162285714Y-98325714D02*
X162285714Y-98992380D01*
X162047619Y-97944761D02*
X161809523Y-98659047D01*
X162428571Y-98659047D01*
X114465000Y-51173333D02*
X114465000Y-50173333D01*
X115832380Y-50363809D02*
X115356190Y-50697142D01*
X115832380Y-50935238D02*
X114832380Y-50935238D01*
X114832380Y-50554285D01*
X114880000Y-50459047D01*
X114927619Y-50411428D01*
X115022857Y-50363809D01*
X115165714Y-50363809D01*
X115260952Y-50411428D01*
X115308571Y-50459047D01*
X115356190Y-50554285D01*
X115356190Y-50935238D01*
X114465000Y-50173333D02*
X114465000Y-49220952D01*
X115784761Y-49982857D02*
X115832380Y-49840000D01*
X115832380Y-49601904D01*
X115784761Y-49506666D01*
X115737142Y-49459047D01*
X115641904Y-49411428D01*
X115546666Y-49411428D01*
X115451428Y-49459047D01*
X115403809Y-49506666D01*
X115356190Y-49601904D01*
X115308571Y-49792380D01*
X115260952Y-49887619D01*
X115213333Y-49935238D01*
X115118095Y-49982857D01*
X115022857Y-49982857D01*
X114927619Y-49935238D01*
X114880000Y-49887619D01*
X114832380Y-49792380D01*
X114832380Y-49554285D01*
X114880000Y-49411428D01*
X114465000Y-49220952D02*
X114465000Y-48459047D01*
X114832380Y-49125714D02*
X114832380Y-48554285D01*
X115832380Y-48840000D02*
X114832380Y-48840000D01*
X114465000Y-48459047D02*
X114465000Y-47506666D01*
X115832380Y-47697142D02*
X115832380Y-48268571D01*
X115832380Y-47982857D02*
X114832380Y-47982857D01*
X114975238Y-48078095D01*
X115070476Y-48173333D01*
X115118095Y-48268571D01*
X109016666Y-67128571D02*
X108683333Y-67128571D01*
X108683333Y-67652380D02*
X108683333Y-66652380D01*
X109159523Y-66652380D01*
X110064285Y-67652380D02*
X109492857Y-67652380D01*
X109778571Y-67652380D02*
X109778571Y-66652380D01*
X109683333Y-66795238D01*
X109588095Y-66890476D01*
X109492857Y-66938095D01*
X117746190Y-64386190D02*
X118222380Y-64386190D01*
X117222380Y-64719523D02*
X117746190Y-64386190D01*
X117222380Y-64052857D01*
X118222380Y-63195714D02*
X118222380Y-63767142D01*
X118222380Y-63481428D02*
X117222380Y-63481428D01*
X117365238Y-63576666D01*
X117460476Y-63671904D01*
X117508095Y-63767142D01*
X142657142Y-61066666D02*
X142704761Y-61114285D01*
X142752380Y-61257142D01*
X142752380Y-61352380D01*
X142704761Y-61495238D01*
X142609523Y-61590476D01*
X142514285Y-61638095D01*
X142323809Y-61685714D01*
X142180952Y-61685714D01*
X141990476Y-61638095D01*
X141895238Y-61590476D01*
X141800000Y-61495238D01*
X141752380Y-61352380D01*
X141752380Y-61257142D01*
X141800000Y-61114285D01*
X141847619Y-61066666D01*
X142752380Y-60114285D02*
X142752380Y-60685714D01*
X142752380Y-60400000D02*
X141752380Y-60400000D01*
X141895238Y-60495238D01*
X141990476Y-60590476D01*
X142038095Y-60685714D01*
X113967142Y-62496666D02*
X114014761Y-62544285D01*
X114062380Y-62687142D01*
X114062380Y-62782380D01*
X114014761Y-62925238D01*
X113919523Y-63020476D01*
X113824285Y-63068095D01*
X113633809Y-63115714D01*
X113490952Y-63115714D01*
X113300476Y-63068095D01*
X113205238Y-63020476D01*
X113110000Y-62925238D01*
X113062380Y-62782380D01*
X113062380Y-62687142D01*
X113110000Y-62544285D01*
X113157619Y-62496666D01*
X113062380Y-61591904D02*
X113062380Y-62068095D01*
X113538571Y-62115714D01*
X113490952Y-62068095D01*
X113443333Y-61972857D01*
X113443333Y-61734761D01*
X113490952Y-61639523D01*
X113538571Y-61591904D01*
X113633809Y-61544285D01*
X113871904Y-61544285D01*
X113967142Y-61591904D01*
X114014761Y-61639523D01*
X114062380Y-61734761D01*
X114062380Y-61972857D01*
X114014761Y-62068095D01*
X113967142Y-62115714D01*
X152443333Y-52897142D02*
X152395714Y-52944761D01*
X152252857Y-52992380D01*
X152157619Y-52992380D01*
X152014761Y-52944761D01*
X151919523Y-52849523D01*
X151871904Y-52754285D01*
X151824285Y-52563809D01*
X151824285Y-52420952D01*
X151871904Y-52230476D01*
X151919523Y-52135238D01*
X152014761Y-52040000D01*
X152157619Y-51992380D01*
X152252857Y-51992380D01*
X152395714Y-52040000D01*
X152443333Y-52087619D01*
X152919523Y-52992380D02*
X153110000Y-52992380D01*
X153205238Y-52944761D01*
X153252857Y-52897142D01*
X153348095Y-52754285D01*
X153395714Y-52563809D01*
X153395714Y-52182857D01*
X153348095Y-52087619D01*
X153300476Y-52040000D01*
X153205238Y-51992380D01*
X153014761Y-51992380D01*
X152919523Y-52040000D01*
X152871904Y-52087619D01*
X152824285Y-52182857D01*
X152824285Y-52420952D01*
X152871904Y-52516190D01*
X152919523Y-52563809D01*
X153014761Y-52611428D01*
X153205238Y-52611428D01*
X153300476Y-52563809D01*
X153348095Y-52516190D01*
X153395714Y-52420952D01*
M02*
