G04 #@! TF.GenerationSoftware,KiCad,Pcbnew,5.1.5-52549c5~84~ubuntu18.04.1*
G04 #@! TF.CreationDate,2020-01-13T18:21:35+00:00*
G04 #@! TF.ProjectId,sangaboard_v0.3,73616e67-6162-46f6-9172-645f76302e33,0.3*
G04 #@! TF.SameCoordinates,Original*
G04 #@! TF.FileFunction,Legend,Bot*
G04 #@! TF.FilePolarity,Positive*
%FSLAX46Y46*%
G04 Gerber Fmt 4.6, Leading zero omitted, Abs format (unit mm)*
G04 Created by KiCad (PCBNEW 5.1.5-52549c5~84~ubuntu18.04.1) date 2020-01-13 18:21:35*
%MOMM*%
%LPD*%
G04 APERTURE LIST*
%ADD10C,0.200000*%
%ADD11C,0.250000*%
%ADD12C,0.300000*%
G04 APERTURE END LIST*
D10*
X119611904Y-47351428D02*
X119611904Y-46970476D01*
X119992857Y-46932380D01*
X119954761Y-46970476D01*
X119916666Y-47046666D01*
X119916666Y-47237142D01*
X119954761Y-47313333D01*
X119992857Y-47351428D01*
X120069047Y-47389523D01*
X120259523Y-47389523D01*
X120335714Y-47351428D01*
X120373809Y-47313333D01*
X120411904Y-47237142D01*
X120411904Y-47046666D01*
X120373809Y-46970476D01*
X120335714Y-46932380D01*
X119878571Y-47656190D02*
X120411904Y-47846666D01*
X119878571Y-48037142D01*
X120488095Y-48151428D02*
X120488095Y-48760952D01*
X120488095Y-48760952D02*
X120488095Y-49370476D01*
X120411904Y-49560952D02*
X119611904Y-49560952D01*
X120183333Y-49827619D01*
X119611904Y-50094285D01*
X120411904Y-50094285D01*
X120411904Y-50475238D02*
X119611904Y-50475238D01*
X120373809Y-50818095D02*
X120411904Y-50932380D01*
X120411904Y-51122857D01*
X120373809Y-51199047D01*
X120335714Y-51237142D01*
X120259523Y-51275238D01*
X120183333Y-51275238D01*
X120107142Y-51237142D01*
X120069047Y-51199047D01*
X120030952Y-51122857D01*
X119992857Y-50970476D01*
X119954761Y-50894285D01*
X119916666Y-50856190D01*
X119840476Y-50818095D01*
X119764285Y-50818095D01*
X119688095Y-50856190D01*
X119650000Y-50894285D01*
X119611904Y-50970476D01*
X119611904Y-51160952D01*
X119650000Y-51275238D01*
X119611904Y-51770476D02*
X119611904Y-51922857D01*
X119650000Y-51999047D01*
X119726190Y-52075238D01*
X119878571Y-52113333D01*
X120145238Y-52113333D01*
X120297619Y-52075238D01*
X120373809Y-51999047D01*
X120411904Y-51922857D01*
X120411904Y-51770476D01*
X120373809Y-51694285D01*
X120297619Y-51618095D01*
X120145238Y-51580000D01*
X119878571Y-51580000D01*
X119726190Y-51618095D01*
X119650000Y-51694285D01*
X119611904Y-51770476D01*
X121811904Y-46970476D02*
X121011904Y-46970476D01*
X121583333Y-47237142D01*
X121011904Y-47503809D01*
X121811904Y-47503809D01*
X121011904Y-48037142D02*
X121011904Y-48189523D01*
X121050000Y-48265714D01*
X121126190Y-48341904D01*
X121278571Y-48380000D01*
X121545238Y-48380000D01*
X121697619Y-48341904D01*
X121773809Y-48265714D01*
X121811904Y-48189523D01*
X121811904Y-48037142D01*
X121773809Y-47960952D01*
X121697619Y-47884761D01*
X121545238Y-47846666D01*
X121278571Y-47846666D01*
X121126190Y-47884761D01*
X121050000Y-47960952D01*
X121011904Y-48037142D01*
X121773809Y-48684761D02*
X121811904Y-48799047D01*
X121811904Y-48989523D01*
X121773809Y-49065714D01*
X121735714Y-49103809D01*
X121659523Y-49141904D01*
X121583333Y-49141904D01*
X121507142Y-49103809D01*
X121469047Y-49065714D01*
X121430952Y-48989523D01*
X121392857Y-48837142D01*
X121354761Y-48760952D01*
X121316666Y-48722857D01*
X121240476Y-48684761D01*
X121164285Y-48684761D01*
X121088095Y-48722857D01*
X121050000Y-48760952D01*
X121011904Y-48837142D01*
X121011904Y-49027619D01*
X121050000Y-49141904D01*
X121811904Y-49484761D02*
X121011904Y-49484761D01*
X121888095Y-49675238D02*
X121888095Y-50284761D01*
X121888095Y-50284761D02*
X121888095Y-50894285D01*
X121773809Y-51046666D02*
X121811904Y-51160952D01*
X121811904Y-51351428D01*
X121773809Y-51427619D01*
X121735714Y-51465714D01*
X121659523Y-51503809D01*
X121583333Y-51503809D01*
X121507142Y-51465714D01*
X121469047Y-51427619D01*
X121430952Y-51351428D01*
X121392857Y-51199047D01*
X121354761Y-51122857D01*
X121316666Y-51084761D01*
X121240476Y-51046666D01*
X121164285Y-51046666D01*
X121088095Y-51084761D01*
X121050000Y-51122857D01*
X121011904Y-51199047D01*
X121011904Y-51389523D01*
X121050000Y-51503809D01*
X121735714Y-52303809D02*
X121773809Y-52265714D01*
X121811904Y-52151428D01*
X121811904Y-52075238D01*
X121773809Y-51960952D01*
X121697619Y-51884761D01*
X121621428Y-51846666D01*
X121469047Y-51808571D01*
X121354761Y-51808571D01*
X121202380Y-51846666D01*
X121126190Y-51884761D01*
X121050000Y-51960952D01*
X121011904Y-52075238D01*
X121011904Y-52151428D01*
X121050000Y-52265714D01*
X121088095Y-52303809D01*
X121811904Y-52646666D02*
X121011904Y-52646666D01*
X121811904Y-53103809D02*
X121354761Y-52760952D01*
X121011904Y-53103809D02*
X121469047Y-52646666D01*
X122450000Y-47389523D02*
X122411904Y-47313333D01*
X122411904Y-47199047D01*
X122450000Y-47084761D01*
X122526190Y-47008571D01*
X122602380Y-46970476D01*
X122754761Y-46932380D01*
X122869047Y-46932380D01*
X123021428Y-46970476D01*
X123097619Y-47008571D01*
X123173809Y-47084761D01*
X123211904Y-47199047D01*
X123211904Y-47275238D01*
X123173809Y-47389523D01*
X123135714Y-47427619D01*
X122869047Y-47427619D01*
X122869047Y-47275238D01*
X123288095Y-47580000D02*
X123288095Y-48189523D01*
X123288095Y-48189523D02*
X123288095Y-48799047D01*
X123211904Y-49446666D02*
X122830952Y-49180000D01*
X123211904Y-48989523D02*
X122411904Y-48989523D01*
X122411904Y-49294285D01*
X122450000Y-49370476D01*
X122488095Y-49408571D01*
X122564285Y-49446666D01*
X122678571Y-49446666D01*
X122754761Y-49408571D01*
X122792857Y-49370476D01*
X122830952Y-49294285D01*
X122830952Y-48989523D01*
X123173809Y-49751428D02*
X123211904Y-49865714D01*
X123211904Y-50056190D01*
X123173809Y-50132380D01*
X123135714Y-50170476D01*
X123059523Y-50208571D01*
X122983333Y-50208571D01*
X122907142Y-50170476D01*
X122869047Y-50132380D01*
X122830952Y-50056190D01*
X122792857Y-49903809D01*
X122754761Y-49827619D01*
X122716666Y-49789523D01*
X122640476Y-49751428D01*
X122564285Y-49751428D01*
X122488095Y-49789523D01*
X122450000Y-49827619D01*
X122411904Y-49903809D01*
X122411904Y-50094285D01*
X122450000Y-50208571D01*
X122411904Y-50437142D02*
X122411904Y-50894285D01*
X123211904Y-50665714D02*
X122411904Y-50665714D01*
D11*
X160774761Y-91478571D02*
X160774761Y-89978571D01*
X160346190Y-91478571D02*
X160346190Y-90692857D01*
X160393809Y-90550000D01*
X160489047Y-90478571D01*
X160631904Y-90478571D01*
X160727142Y-90550000D01*
X160774761Y-90621428D01*
X160012857Y-90478571D02*
X159631904Y-90478571D01*
X159870000Y-89978571D02*
X159870000Y-91264285D01*
X159822380Y-91407142D01*
X159727142Y-91478571D01*
X159631904Y-91478571D01*
X159441428Y-90478571D02*
X159060476Y-90478571D01*
X159298571Y-89978571D02*
X159298571Y-91264285D01*
X159250952Y-91407142D01*
X159155714Y-91478571D01*
X159060476Y-91478571D01*
X158727142Y-90478571D02*
X158727142Y-91978571D01*
X158727142Y-90550000D02*
X158631904Y-90478571D01*
X158441428Y-90478571D01*
X158346190Y-90550000D01*
X158298571Y-90621428D01*
X158250952Y-90764285D01*
X158250952Y-91192857D01*
X158298571Y-91335714D01*
X158346190Y-91407142D01*
X158441428Y-91478571D01*
X158631904Y-91478571D01*
X158727142Y-91407142D01*
X157870000Y-91407142D02*
X157774761Y-91478571D01*
X157584285Y-91478571D01*
X157489047Y-91407142D01*
X157441428Y-91264285D01*
X157441428Y-91192857D01*
X157489047Y-91050000D01*
X157584285Y-90978571D01*
X157727142Y-90978571D01*
X157822380Y-90907142D01*
X157870000Y-90764285D01*
X157870000Y-90692857D01*
X157822380Y-90550000D01*
X157727142Y-90478571D01*
X157584285Y-90478571D01*
X157489047Y-90550000D01*
X157012857Y-91335714D02*
X156965238Y-91407142D01*
X157012857Y-91478571D01*
X157060476Y-91407142D01*
X157012857Y-91335714D01*
X157012857Y-91478571D01*
X157012857Y-90550000D02*
X156965238Y-90621428D01*
X157012857Y-90692857D01*
X157060476Y-90621428D01*
X157012857Y-90550000D01*
X157012857Y-90692857D01*
X155822380Y-89907142D02*
X156679523Y-91835714D01*
X154774761Y-89907142D02*
X155631904Y-91835714D01*
X154012857Y-90478571D02*
X154012857Y-91692857D01*
X154060476Y-91835714D01*
X154108095Y-91907142D01*
X154203333Y-91978571D01*
X154346190Y-91978571D01*
X154441428Y-91907142D01*
X154012857Y-91407142D02*
X154108095Y-91478571D01*
X154298571Y-91478571D01*
X154393809Y-91407142D01*
X154441428Y-91335714D01*
X154489047Y-91192857D01*
X154489047Y-90764285D01*
X154441428Y-90621428D01*
X154393809Y-90550000D01*
X154298571Y-90478571D01*
X154108095Y-90478571D01*
X154012857Y-90550000D01*
X153536666Y-91478571D02*
X153536666Y-90478571D01*
X153536666Y-89978571D02*
X153584285Y-90050000D01*
X153536666Y-90121428D01*
X153489047Y-90050000D01*
X153536666Y-89978571D01*
X153536666Y-90121428D01*
X153203333Y-90478571D02*
X152822380Y-90478571D01*
X153060476Y-89978571D02*
X153060476Y-91264285D01*
X153012857Y-91407142D01*
X152917619Y-91478571D01*
X152822380Y-91478571D01*
X152489047Y-91478571D02*
X152489047Y-89978571D01*
X152060476Y-91478571D02*
X152060476Y-90692857D01*
X152108095Y-90550000D01*
X152203333Y-90478571D01*
X152346190Y-90478571D01*
X152441428Y-90550000D01*
X152489047Y-90621428D01*
X151155714Y-90478571D02*
X151155714Y-91478571D01*
X151584285Y-90478571D02*
X151584285Y-91264285D01*
X151536666Y-91407142D01*
X151441428Y-91478571D01*
X151298571Y-91478571D01*
X151203333Y-91407142D01*
X151155714Y-91335714D01*
X150679523Y-91478571D02*
X150679523Y-89978571D01*
X150679523Y-90550000D02*
X150584285Y-90478571D01*
X150393809Y-90478571D01*
X150298571Y-90550000D01*
X150250952Y-90621428D01*
X150203333Y-90764285D01*
X150203333Y-91192857D01*
X150250952Y-91335714D01*
X150298571Y-91407142D01*
X150393809Y-91478571D01*
X150584285Y-91478571D01*
X150679523Y-91407142D01*
X149774761Y-91335714D02*
X149727142Y-91407142D01*
X149774761Y-91478571D01*
X149822380Y-91407142D01*
X149774761Y-91335714D01*
X149774761Y-91478571D01*
X148870000Y-91407142D02*
X148965238Y-91478571D01*
X149155714Y-91478571D01*
X149250952Y-91407142D01*
X149298571Y-91335714D01*
X149346190Y-91192857D01*
X149346190Y-90764285D01*
X149298571Y-90621428D01*
X149250952Y-90550000D01*
X149155714Y-90478571D01*
X148965238Y-90478571D01*
X148870000Y-90550000D01*
X148298571Y-91478571D02*
X148393809Y-91407142D01*
X148441428Y-91335714D01*
X148489047Y-91192857D01*
X148489047Y-90764285D01*
X148441428Y-90621428D01*
X148393809Y-90550000D01*
X148298571Y-90478571D01*
X148155714Y-90478571D01*
X148060476Y-90550000D01*
X148012857Y-90621428D01*
X147965238Y-90764285D01*
X147965238Y-91192857D01*
X148012857Y-91335714D01*
X148060476Y-91407142D01*
X148155714Y-91478571D01*
X148298571Y-91478571D01*
X147536666Y-91478571D02*
X147536666Y-90478571D01*
X147536666Y-90621428D02*
X147489047Y-90550000D01*
X147393809Y-90478571D01*
X147250952Y-90478571D01*
X147155714Y-90550000D01*
X147108095Y-90692857D01*
X147108095Y-91478571D01*
X147108095Y-90692857D02*
X147060476Y-90550000D01*
X146965238Y-90478571D01*
X146822380Y-90478571D01*
X146727142Y-90550000D01*
X146679523Y-90692857D01*
X146679523Y-91478571D01*
X145489047Y-89907142D02*
X146346190Y-91835714D01*
X145203333Y-91407142D02*
X145108095Y-91478571D01*
X144917619Y-91478571D01*
X144822380Y-91407142D01*
X144774761Y-91264285D01*
X144774761Y-91192857D01*
X144822380Y-91050000D01*
X144917619Y-90978571D01*
X145060476Y-90978571D01*
X145155714Y-90907142D01*
X145203333Y-90764285D01*
X145203333Y-90692857D01*
X145155714Y-90550000D01*
X145060476Y-90478571D01*
X144917619Y-90478571D01*
X144822380Y-90550000D01*
X143917619Y-91478571D02*
X143917619Y-90692857D01*
X143965238Y-90550000D01*
X144060476Y-90478571D01*
X144250952Y-90478571D01*
X144346190Y-90550000D01*
X143917619Y-91407142D02*
X144012857Y-91478571D01*
X144250952Y-91478571D01*
X144346190Y-91407142D01*
X144393809Y-91264285D01*
X144393809Y-91121428D01*
X144346190Y-90978571D01*
X144250952Y-90907142D01*
X144012857Y-90907142D01*
X143917619Y-90835714D01*
X143441428Y-90478571D02*
X143441428Y-91478571D01*
X143441428Y-90621428D02*
X143393809Y-90550000D01*
X143298571Y-90478571D01*
X143155714Y-90478571D01*
X143060476Y-90550000D01*
X143012857Y-90692857D01*
X143012857Y-91478571D01*
X142108095Y-90478571D02*
X142108095Y-91692857D01*
X142155714Y-91835714D01*
X142203333Y-91907142D01*
X142298571Y-91978571D01*
X142441428Y-91978571D01*
X142536666Y-91907142D01*
X142108095Y-91407142D02*
X142203333Y-91478571D01*
X142393809Y-91478571D01*
X142489047Y-91407142D01*
X142536666Y-91335714D01*
X142584285Y-91192857D01*
X142584285Y-90764285D01*
X142536666Y-90621428D01*
X142489047Y-90550000D01*
X142393809Y-90478571D01*
X142203333Y-90478571D01*
X142108095Y-90550000D01*
X141203333Y-91478571D02*
X141203333Y-90692857D01*
X141250952Y-90550000D01*
X141346190Y-90478571D01*
X141536666Y-90478571D01*
X141631904Y-90550000D01*
X141203333Y-91407142D02*
X141298571Y-91478571D01*
X141536666Y-91478571D01*
X141631904Y-91407142D01*
X141679523Y-91264285D01*
X141679523Y-91121428D01*
X141631904Y-90978571D01*
X141536666Y-90907142D01*
X141298571Y-90907142D01*
X141203333Y-90835714D01*
X140822380Y-90478571D02*
X140584285Y-91478571D01*
X140346190Y-90478571D01*
X139536666Y-91478571D02*
X139536666Y-90692857D01*
X139584285Y-90550000D01*
X139679523Y-90478571D01*
X139870000Y-90478571D01*
X139965238Y-90550000D01*
X139536666Y-91407142D02*
X139631904Y-91478571D01*
X139870000Y-91478571D01*
X139965238Y-91407142D01*
X140012857Y-91264285D01*
X140012857Y-91121428D01*
X139965238Y-90978571D01*
X139870000Y-90907142D01*
X139631904Y-90907142D01*
X139536666Y-90835714D01*
X138917619Y-91478571D02*
X139012857Y-91407142D01*
X139060476Y-91264285D01*
X139060476Y-89978571D01*
X138155714Y-91407142D02*
X138250952Y-91478571D01*
X138441428Y-91478571D01*
X138536666Y-91407142D01*
X138584285Y-91264285D01*
X138584285Y-90692857D01*
X138536666Y-90550000D01*
X138441428Y-90478571D01*
X138250952Y-90478571D01*
X138155714Y-90550000D01*
X138108095Y-90692857D01*
X138108095Y-90835714D01*
X138584285Y-90978571D01*
X137679523Y-91478571D02*
X137679523Y-90478571D01*
X137679523Y-90764285D02*
X137631904Y-90621428D01*
X137584285Y-90550000D01*
X137489047Y-90478571D01*
X137393809Y-90478571D01*
X137060476Y-91478571D02*
X137060476Y-90478571D01*
X137060476Y-89978571D02*
X137108095Y-90050000D01*
X137060476Y-90121428D01*
X137012857Y-90050000D01*
X137060476Y-89978571D01*
X137060476Y-90121428D01*
X136155714Y-91478571D02*
X136155714Y-90692857D01*
X136203333Y-90550000D01*
X136298571Y-90478571D01*
X136489047Y-90478571D01*
X136584285Y-90550000D01*
X136155714Y-91407142D02*
X136250952Y-91478571D01*
X136489047Y-91478571D01*
X136584285Y-91407142D01*
X136631904Y-91264285D01*
X136631904Y-91121428D01*
X136584285Y-90978571D01*
X136489047Y-90907142D01*
X136250952Y-90907142D01*
X136155714Y-90835714D01*
X135679523Y-90478571D02*
X135679523Y-91478571D01*
X135679523Y-90621428D02*
X135631904Y-90550000D01*
X135536666Y-90478571D01*
X135393809Y-90478571D01*
X135298571Y-90550000D01*
X135250952Y-90692857D01*
X135250952Y-91478571D01*
X134060476Y-89907142D02*
X134917619Y-91835714D01*
X133584285Y-91478571D02*
X133679523Y-91407142D01*
X133727142Y-91335714D01*
X133774761Y-91192857D01*
X133774761Y-90764285D01*
X133727142Y-90621428D01*
X133679523Y-90550000D01*
X133584285Y-90478571D01*
X133441428Y-90478571D01*
X133346190Y-90550000D01*
X133298571Y-90621428D01*
X133250952Y-90764285D01*
X133250952Y-91192857D01*
X133298571Y-91335714D01*
X133346190Y-91407142D01*
X133441428Y-91478571D01*
X133584285Y-91478571D01*
X132822380Y-90478571D02*
X132822380Y-91978571D01*
X132822380Y-90550000D02*
X132727142Y-90478571D01*
X132536666Y-90478571D01*
X132441428Y-90550000D01*
X132393809Y-90621428D01*
X132346190Y-90764285D01*
X132346190Y-91192857D01*
X132393809Y-91335714D01*
X132441428Y-91407142D01*
X132536666Y-91478571D01*
X132727142Y-91478571D01*
X132822380Y-91407142D01*
X131536666Y-91407142D02*
X131631904Y-91478571D01*
X131822380Y-91478571D01*
X131917619Y-91407142D01*
X131965238Y-91264285D01*
X131965238Y-90692857D01*
X131917619Y-90550000D01*
X131822380Y-90478571D01*
X131631904Y-90478571D01*
X131536666Y-90550000D01*
X131489047Y-90692857D01*
X131489047Y-90835714D01*
X131965238Y-90978571D01*
X131060476Y-90478571D02*
X131060476Y-91478571D01*
X131060476Y-90621428D02*
X131012857Y-90550000D01*
X130917619Y-90478571D01*
X130774761Y-90478571D01*
X130679523Y-90550000D01*
X130631904Y-90692857D01*
X130631904Y-91478571D01*
X130298571Y-90478571D02*
X129917619Y-90478571D01*
X130155714Y-91478571D02*
X130155714Y-90192857D01*
X130108095Y-90050000D01*
X130012857Y-89978571D01*
X129917619Y-89978571D01*
X129441428Y-91478571D02*
X129536666Y-91407142D01*
X129584285Y-91264285D01*
X129584285Y-89978571D01*
X128679523Y-91407142D02*
X128774761Y-91478571D01*
X128965238Y-91478571D01*
X129060476Y-91407142D01*
X129108095Y-91264285D01*
X129108095Y-90692857D01*
X129060476Y-90550000D01*
X128965238Y-90478571D01*
X128774761Y-90478571D01*
X128679523Y-90550000D01*
X128631904Y-90692857D01*
X128631904Y-90835714D01*
X129108095Y-90978571D01*
X128298571Y-91478571D02*
X127774761Y-90478571D01*
X128298571Y-90478571D02*
X127774761Y-91478571D01*
X126965238Y-90478571D02*
X126965238Y-91478571D01*
X127393809Y-90478571D02*
X127393809Y-91264285D01*
X127346190Y-91407142D01*
X127250952Y-91478571D01*
X127108095Y-91478571D01*
X127012857Y-91407142D01*
X126965238Y-91335714D01*
X126489047Y-91478571D02*
X126489047Y-90478571D01*
X126489047Y-90764285D02*
X126441428Y-90621428D01*
X126393809Y-90550000D01*
X126298571Y-90478571D01*
X126203333Y-90478571D01*
X125489047Y-91407142D02*
X125584285Y-91478571D01*
X125774761Y-91478571D01*
X125870000Y-91407142D01*
X125917619Y-91264285D01*
X125917619Y-90692857D01*
X125870000Y-90550000D01*
X125774761Y-90478571D01*
X125584285Y-90478571D01*
X125489047Y-90550000D01*
X125441428Y-90692857D01*
X125441428Y-90835714D01*
X125917619Y-90978571D01*
X125250952Y-91621428D02*
X124489047Y-91621428D01*
X124250952Y-90478571D02*
X124250952Y-91478571D01*
X124250952Y-90621428D02*
X124203333Y-90550000D01*
X124108095Y-90478571D01*
X123965238Y-90478571D01*
X123870000Y-90550000D01*
X123822380Y-90692857D01*
X123822380Y-91478571D01*
X122917619Y-91478571D02*
X122917619Y-90692857D01*
X122965238Y-90550000D01*
X123060476Y-90478571D01*
X123250952Y-90478571D01*
X123346190Y-90550000D01*
X122917619Y-91407142D02*
X123012857Y-91478571D01*
X123250952Y-91478571D01*
X123346190Y-91407142D01*
X123393809Y-91264285D01*
X123393809Y-91121428D01*
X123346190Y-90978571D01*
X123250952Y-90907142D01*
X123012857Y-90907142D01*
X122917619Y-90835714D01*
X122441428Y-90478571D02*
X122441428Y-91478571D01*
X122441428Y-90621428D02*
X122393809Y-90550000D01*
X122298571Y-90478571D01*
X122155714Y-90478571D01*
X122060476Y-90550000D01*
X122012857Y-90692857D01*
X122012857Y-91478571D01*
X121393809Y-91478571D02*
X121489047Y-91407142D01*
X121536666Y-91335714D01*
X121584285Y-91192857D01*
X121584285Y-90764285D01*
X121536666Y-90621428D01*
X121489047Y-90550000D01*
X121393809Y-90478571D01*
X121250952Y-90478571D01*
X121155714Y-90550000D01*
X121108095Y-90621428D01*
X121060476Y-90764285D01*
X121060476Y-91192857D01*
X121108095Y-91335714D01*
X121155714Y-91407142D01*
X121250952Y-91478571D01*
X121393809Y-91478571D01*
X120870000Y-91621428D02*
X120108095Y-91621428D01*
X119870000Y-91478571D02*
X119870000Y-90478571D01*
X119870000Y-90621428D02*
X119822380Y-90550000D01*
X119727142Y-90478571D01*
X119584285Y-90478571D01*
X119489047Y-90550000D01*
X119441428Y-90692857D01*
X119441428Y-91478571D01*
X119441428Y-90692857D02*
X119393809Y-90550000D01*
X119298571Y-90478571D01*
X119155714Y-90478571D01*
X119060476Y-90550000D01*
X119012857Y-90692857D01*
X119012857Y-91478571D01*
X118393809Y-91478571D02*
X118489047Y-91407142D01*
X118536666Y-91335714D01*
X118584285Y-91192857D01*
X118584285Y-90764285D01*
X118536666Y-90621428D01*
X118489047Y-90550000D01*
X118393809Y-90478571D01*
X118250952Y-90478571D01*
X118155714Y-90550000D01*
X118108095Y-90621428D01*
X118060476Y-90764285D01*
X118060476Y-91192857D01*
X118108095Y-91335714D01*
X118155714Y-91407142D01*
X118250952Y-91478571D01*
X118393809Y-91478571D01*
X117774761Y-90478571D02*
X117393809Y-90478571D01*
X117631904Y-89978571D02*
X117631904Y-91264285D01*
X117584285Y-91407142D01*
X117489047Y-91478571D01*
X117393809Y-91478571D01*
X116917619Y-91478571D02*
X117012857Y-91407142D01*
X117060476Y-91335714D01*
X117108095Y-91192857D01*
X117108095Y-90764285D01*
X117060476Y-90621428D01*
X117012857Y-90550000D01*
X116917619Y-90478571D01*
X116774761Y-90478571D01*
X116679523Y-90550000D01*
X116631904Y-90621428D01*
X116584285Y-90764285D01*
X116584285Y-91192857D01*
X116631904Y-91335714D01*
X116679523Y-91407142D01*
X116774761Y-91478571D01*
X116917619Y-91478571D01*
X116155714Y-91478571D02*
X116155714Y-90478571D01*
X116155714Y-90764285D02*
X116108095Y-90621428D01*
X116060476Y-90550000D01*
X115965238Y-90478571D01*
X115870000Y-90478571D01*
X115774761Y-91621428D02*
X115012857Y-91621428D01*
X114346190Y-91407142D02*
X114441428Y-91478571D01*
X114631904Y-91478571D01*
X114727142Y-91407142D01*
X114774761Y-91335714D01*
X114822380Y-91192857D01*
X114822380Y-90764285D01*
X114774761Y-90621428D01*
X114727142Y-90550000D01*
X114631904Y-90478571D01*
X114441428Y-90478571D01*
X114346190Y-90550000D01*
X113774761Y-91478571D02*
X113870000Y-91407142D01*
X113917619Y-91335714D01*
X113965238Y-91192857D01*
X113965238Y-90764285D01*
X113917619Y-90621428D01*
X113870000Y-90550000D01*
X113774761Y-90478571D01*
X113631904Y-90478571D01*
X113536666Y-90550000D01*
X113489047Y-90621428D01*
X113441428Y-90764285D01*
X113441428Y-91192857D01*
X113489047Y-91335714D01*
X113536666Y-91407142D01*
X113631904Y-91478571D01*
X113774761Y-91478571D01*
X113012857Y-90478571D02*
X113012857Y-91478571D01*
X113012857Y-90621428D02*
X112965238Y-90550000D01*
X112870000Y-90478571D01*
X112727142Y-90478571D01*
X112631904Y-90550000D01*
X112584285Y-90692857D01*
X112584285Y-91478571D01*
X112250952Y-90478571D02*
X111870000Y-90478571D01*
X112108095Y-89978571D02*
X112108095Y-91264285D01*
X112060476Y-91407142D01*
X111965238Y-91478571D01*
X111870000Y-91478571D01*
X111536666Y-91478571D02*
X111536666Y-90478571D01*
X111536666Y-90764285D02*
X111489047Y-90621428D01*
X111441428Y-90550000D01*
X111346190Y-90478571D01*
X111250952Y-90478571D01*
X110774761Y-91478571D02*
X110870000Y-91407142D01*
X110917619Y-91335714D01*
X110965238Y-91192857D01*
X110965238Y-90764285D01*
X110917619Y-90621428D01*
X110870000Y-90550000D01*
X110774761Y-90478571D01*
X110631904Y-90478571D01*
X110536666Y-90550000D01*
X110489047Y-90621428D01*
X110441428Y-90764285D01*
X110441428Y-91192857D01*
X110489047Y-91335714D01*
X110536666Y-91407142D01*
X110631904Y-91478571D01*
X110774761Y-91478571D01*
X109870000Y-91478571D02*
X109965238Y-91407142D01*
X110012857Y-91264285D01*
X110012857Y-89978571D01*
X109346190Y-91478571D02*
X109441428Y-91407142D01*
X109489047Y-91264285D01*
X109489047Y-89978571D01*
X108584285Y-91407142D02*
X108679523Y-91478571D01*
X108870000Y-91478571D01*
X108965238Y-91407142D01*
X109012857Y-91264285D01*
X109012857Y-90692857D01*
X108965238Y-90550000D01*
X108870000Y-90478571D01*
X108679523Y-90478571D01*
X108584285Y-90550000D01*
X108536666Y-90692857D01*
X108536666Y-90835714D01*
X109012857Y-90978571D01*
X108108095Y-91478571D02*
X108108095Y-90478571D01*
X108108095Y-90764285D02*
X108060476Y-90621428D01*
X108012857Y-90550000D01*
X107917619Y-90478571D01*
X107822380Y-90478571D01*
D12*
X143117857Y-77598571D02*
X143046428Y-77384285D01*
X143046428Y-77027142D01*
X143117857Y-76884285D01*
X143189285Y-76812857D01*
X143332142Y-76741428D01*
X143475000Y-76741428D01*
X143617857Y-76812857D01*
X143689285Y-76884285D01*
X143760714Y-77027142D01*
X143832142Y-77312857D01*
X143903571Y-77455714D01*
X143975000Y-77527142D01*
X144117857Y-77598571D01*
X144260714Y-77598571D01*
X144403571Y-77527142D01*
X144475000Y-77455714D01*
X144546428Y-77312857D01*
X144546428Y-76955714D01*
X144475000Y-76741428D01*
X144546428Y-76312857D02*
X144546428Y-75455714D01*
X143046428Y-75884285D02*
X144546428Y-75884285D01*
X143046428Y-74955714D02*
X144546428Y-74955714D01*
X143189285Y-73384285D02*
X143117857Y-73455714D01*
X143046428Y-73670000D01*
X143046428Y-73812857D01*
X143117857Y-74027142D01*
X143260714Y-74170000D01*
X143403571Y-74241428D01*
X143689285Y-74312857D01*
X143903571Y-74312857D01*
X144189285Y-74241428D01*
X144332142Y-74170000D01*
X144475000Y-74027142D01*
X144546428Y-73812857D01*
X144546428Y-73670000D01*
X144475000Y-73455714D01*
X144403571Y-73384285D01*
X143046428Y-72027142D02*
X143046428Y-72741428D01*
X144546428Y-72741428D01*
X143046428Y-70884285D02*
X143832142Y-70884285D01*
X143975000Y-70955714D01*
X144046428Y-71098571D01*
X144046428Y-71384285D01*
X143975000Y-71527142D01*
X143117857Y-70884285D02*
X143046428Y-71027142D01*
X143046428Y-71384285D01*
X143117857Y-71527142D01*
X143260714Y-71598571D01*
X143403571Y-71598571D01*
X143546428Y-71527142D01*
X143617857Y-71384285D01*
X143617857Y-71027142D01*
X143689285Y-70884285D01*
X143046428Y-70170000D02*
X144546428Y-70170000D01*
X143975000Y-70170000D02*
X144046428Y-70027142D01*
X144046428Y-69741428D01*
X143975000Y-69598571D01*
X143903571Y-69527142D01*
X143760714Y-69455714D01*
X143332142Y-69455714D01*
X143189285Y-69527142D01*
X143117857Y-69598571D01*
X143046428Y-69741428D01*
X143046428Y-70027142D01*
X143117857Y-70170000D01*
X143617857Y-67670000D02*
X143617857Y-66527142D01*
X144546428Y-64884285D02*
X144546428Y-64027142D01*
X143046428Y-64455714D02*
X144546428Y-64455714D01*
X144546428Y-63670000D02*
X144546428Y-62670000D01*
X143046428Y-63670000D01*
X143046428Y-62670000D01*
X141996428Y-83670000D02*
X140782142Y-83670000D01*
X140639285Y-83598571D01*
X140567857Y-83527142D01*
X140496428Y-83384285D01*
X140496428Y-83098571D01*
X140567857Y-82955714D01*
X140639285Y-82884285D01*
X140782142Y-82812857D01*
X141996428Y-82812857D01*
X141496428Y-82098571D02*
X140496428Y-82098571D01*
X141353571Y-82098571D02*
X141425000Y-82027142D01*
X141496428Y-81884285D01*
X141496428Y-81670000D01*
X141425000Y-81527142D01*
X141282142Y-81455714D01*
X140496428Y-81455714D01*
X140496428Y-80741428D02*
X141496428Y-80741428D01*
X141996428Y-80741428D02*
X141925000Y-80812857D01*
X141853571Y-80741428D01*
X141925000Y-80670000D01*
X141996428Y-80741428D01*
X141853571Y-80741428D01*
X141496428Y-80170000D02*
X140496428Y-79812857D01*
X141496428Y-79455714D01*
X140567857Y-78312857D02*
X140496428Y-78455714D01*
X140496428Y-78741428D01*
X140567857Y-78884285D01*
X140710714Y-78955714D01*
X141282142Y-78955714D01*
X141425000Y-78884285D01*
X141496428Y-78741428D01*
X141496428Y-78455714D01*
X141425000Y-78312857D01*
X141282142Y-78241428D01*
X141139285Y-78241428D01*
X140996428Y-78955714D01*
X140496428Y-77598571D02*
X141496428Y-77598571D01*
X141210714Y-77598571D02*
X141353571Y-77527142D01*
X141425000Y-77455714D01*
X141496428Y-77312857D01*
X141496428Y-77170000D01*
X140567857Y-76741428D02*
X140496428Y-76598571D01*
X140496428Y-76312857D01*
X140567857Y-76170000D01*
X140710714Y-76098571D01*
X140782142Y-76098571D01*
X140925000Y-76170000D01*
X140996428Y-76312857D01*
X140996428Y-76527142D01*
X141067857Y-76670000D01*
X141210714Y-76741428D01*
X141282142Y-76741428D01*
X141425000Y-76670000D01*
X141496428Y-76527142D01*
X141496428Y-76312857D01*
X141425000Y-76170000D01*
X140496428Y-75455714D02*
X141496428Y-75455714D01*
X141996428Y-75455714D02*
X141925000Y-75527142D01*
X141853571Y-75455714D01*
X141925000Y-75384285D01*
X141996428Y-75455714D01*
X141853571Y-75455714D01*
X141496428Y-74955714D02*
X141496428Y-74384285D01*
X141996428Y-74741428D02*
X140710714Y-74741428D01*
X140567857Y-74670000D01*
X140496428Y-74527142D01*
X140496428Y-74384285D01*
X141496428Y-74027142D02*
X140496428Y-73670000D01*
X141496428Y-73312857D02*
X140496428Y-73670000D01*
X140139285Y-73812857D01*
X140067857Y-73884285D01*
X139996428Y-74027142D01*
X140496428Y-71384285D02*
X140567857Y-71527142D01*
X140639285Y-71598571D01*
X140782142Y-71670000D01*
X141210714Y-71670000D01*
X141353571Y-71598571D01*
X141425000Y-71527142D01*
X141496428Y-71384285D01*
X141496428Y-71170000D01*
X141425000Y-71027142D01*
X141353571Y-70955714D01*
X141210714Y-70884285D01*
X140782142Y-70884285D01*
X140639285Y-70955714D01*
X140567857Y-71027142D01*
X140496428Y-71170000D01*
X140496428Y-71384285D01*
X141496428Y-70455714D02*
X141496428Y-69884285D01*
X140496428Y-70241428D02*
X141782142Y-70241428D01*
X141925000Y-70170000D01*
X141996428Y-70027142D01*
X141996428Y-69884285D01*
X141282142Y-67741428D02*
X141210714Y-67527142D01*
X141139285Y-67455714D01*
X140996428Y-67384285D01*
X140782142Y-67384285D01*
X140639285Y-67455714D01*
X140567857Y-67527142D01*
X140496428Y-67670000D01*
X140496428Y-68241428D01*
X141996428Y-68241428D01*
X141996428Y-67741428D01*
X141925000Y-67598571D01*
X141853571Y-67527142D01*
X141710714Y-67455714D01*
X141567857Y-67455714D01*
X141425000Y-67527142D01*
X141353571Y-67598571D01*
X141282142Y-67741428D01*
X141282142Y-68241428D01*
X140496428Y-66098571D02*
X141282142Y-66098571D01*
X141425000Y-66170000D01*
X141496428Y-66312857D01*
X141496428Y-66598571D01*
X141425000Y-66741428D01*
X140567857Y-66098571D02*
X140496428Y-66241428D01*
X140496428Y-66598571D01*
X140567857Y-66741428D01*
X140710714Y-66812857D01*
X140853571Y-66812857D01*
X140996428Y-66741428D01*
X141067857Y-66598571D01*
X141067857Y-66241428D01*
X141139285Y-66098571D01*
X141496428Y-65598571D02*
X141496428Y-65027142D01*
X141996428Y-65384285D02*
X140710714Y-65384285D01*
X140567857Y-65312857D01*
X140496428Y-65170000D01*
X140496428Y-65027142D01*
X140496428Y-64527142D02*
X141996428Y-64527142D01*
X140496428Y-63884285D02*
X141282142Y-63884285D01*
X141425000Y-63955714D01*
X141496428Y-64098571D01*
X141496428Y-64312857D01*
X141425000Y-64455714D01*
X141353571Y-64527142D01*
X141067857Y-62027142D02*
X141067857Y-60884285D01*
X141996428Y-59027142D02*
X140782142Y-59027142D01*
X140639285Y-58955714D01*
X140567857Y-58884285D01*
X140496428Y-58741428D01*
X140496428Y-58455714D01*
X140567857Y-58312857D01*
X140639285Y-58241428D01*
X140782142Y-58170000D01*
X141996428Y-58170000D01*
X140496428Y-57455714D02*
X141996428Y-57455714D01*
X140496428Y-56598571D02*
X141353571Y-57241428D01*
X141996428Y-56598571D02*
X141139285Y-57455714D01*
X139446428Y-87062857D02*
X138232142Y-87062857D01*
X138089285Y-86991428D01*
X138017857Y-86920000D01*
X137946428Y-86777142D01*
X137946428Y-86491428D01*
X138017857Y-86348571D01*
X138089285Y-86277142D01*
X138232142Y-86205714D01*
X139446428Y-86205714D01*
X138946428Y-85491428D02*
X137946428Y-85491428D01*
X138803571Y-85491428D02*
X138875000Y-85420000D01*
X138946428Y-85277142D01*
X138946428Y-85062857D01*
X138875000Y-84920000D01*
X138732142Y-84848571D01*
X137946428Y-84848571D01*
X137946428Y-84134285D02*
X138946428Y-84134285D01*
X139446428Y-84134285D02*
X139375000Y-84205714D01*
X139303571Y-84134285D01*
X139375000Y-84062857D01*
X139446428Y-84134285D01*
X139303571Y-84134285D01*
X138946428Y-83562857D02*
X137946428Y-83205714D01*
X138946428Y-82848571D01*
X138017857Y-81705714D02*
X137946428Y-81848571D01*
X137946428Y-82134285D01*
X138017857Y-82277142D01*
X138160714Y-82348571D01*
X138732142Y-82348571D01*
X138875000Y-82277142D01*
X138946428Y-82134285D01*
X138946428Y-81848571D01*
X138875000Y-81705714D01*
X138732142Y-81634285D01*
X138589285Y-81634285D01*
X138446428Y-82348571D01*
X137946428Y-80991428D02*
X138946428Y-80991428D01*
X138660714Y-80991428D02*
X138803571Y-80920000D01*
X138875000Y-80848571D01*
X138946428Y-80705714D01*
X138946428Y-80562857D01*
X138017857Y-80134285D02*
X137946428Y-79991428D01*
X137946428Y-79705714D01*
X138017857Y-79562857D01*
X138160714Y-79491428D01*
X138232142Y-79491428D01*
X138375000Y-79562857D01*
X138446428Y-79705714D01*
X138446428Y-79920000D01*
X138517857Y-80062857D01*
X138660714Y-80134285D01*
X138732142Y-80134285D01*
X138875000Y-80062857D01*
X138946428Y-79920000D01*
X138946428Y-79705714D01*
X138875000Y-79562857D01*
X137946428Y-78848571D02*
X138946428Y-78848571D01*
X139446428Y-78848571D02*
X139375000Y-78920000D01*
X139303571Y-78848571D01*
X139375000Y-78777142D01*
X139446428Y-78848571D01*
X139303571Y-78848571D01*
X138946428Y-78348571D02*
X138946428Y-77777142D01*
X139446428Y-78134285D02*
X138160714Y-78134285D01*
X138017857Y-78062857D01*
X137946428Y-77920000D01*
X137946428Y-77777142D01*
X138946428Y-77420000D02*
X137946428Y-77062857D01*
X138946428Y-76705714D02*
X137946428Y-77062857D01*
X137589285Y-77205714D01*
X137517857Y-77277142D01*
X137446428Y-77420000D01*
X137946428Y-74777142D02*
X138017857Y-74920000D01*
X138089285Y-74991428D01*
X138232142Y-75062857D01*
X138660714Y-75062857D01*
X138803571Y-74991428D01*
X138875000Y-74920000D01*
X138946428Y-74777142D01*
X138946428Y-74562857D01*
X138875000Y-74420000D01*
X138803571Y-74348571D01*
X138660714Y-74277142D01*
X138232142Y-74277142D01*
X138089285Y-74348571D01*
X138017857Y-74420000D01*
X137946428Y-74562857D01*
X137946428Y-74777142D01*
X138946428Y-73848571D02*
X138946428Y-73277142D01*
X137946428Y-73634285D02*
X139232142Y-73634285D01*
X139375000Y-73562857D01*
X139446428Y-73420000D01*
X139446428Y-73277142D01*
X138089285Y-70777142D02*
X138017857Y-70848571D01*
X137946428Y-71062857D01*
X137946428Y-71205714D01*
X138017857Y-71420000D01*
X138160714Y-71562857D01*
X138303571Y-71634285D01*
X138589285Y-71705714D01*
X138803571Y-71705714D01*
X139089285Y-71634285D01*
X139232142Y-71562857D01*
X139375000Y-71420000D01*
X139446428Y-71205714D01*
X139446428Y-71062857D01*
X139375000Y-70848571D01*
X139303571Y-70777142D01*
X137946428Y-69491428D02*
X138732142Y-69491428D01*
X138875000Y-69562857D01*
X138946428Y-69705714D01*
X138946428Y-69991428D01*
X138875000Y-70134285D01*
X138017857Y-69491428D02*
X137946428Y-69634285D01*
X137946428Y-69991428D01*
X138017857Y-70134285D01*
X138160714Y-70205714D01*
X138303571Y-70205714D01*
X138446428Y-70134285D01*
X138517857Y-69991428D01*
X138517857Y-69634285D01*
X138589285Y-69491428D01*
X137946428Y-68777142D02*
X138946428Y-68777142D01*
X138803571Y-68777142D02*
X138875000Y-68705714D01*
X138946428Y-68562857D01*
X138946428Y-68348571D01*
X138875000Y-68205714D01*
X138732142Y-68134285D01*
X137946428Y-68134285D01*
X138732142Y-68134285D02*
X138875000Y-68062857D01*
X138946428Y-67920000D01*
X138946428Y-67705714D01*
X138875000Y-67562857D01*
X138732142Y-67491428D01*
X137946428Y-67491428D01*
X137946428Y-66777142D02*
X139446428Y-66777142D01*
X138875000Y-66777142D02*
X138946428Y-66634285D01*
X138946428Y-66348571D01*
X138875000Y-66205714D01*
X138803571Y-66134285D01*
X138660714Y-66062857D01*
X138232142Y-66062857D01*
X138089285Y-66134285D01*
X138017857Y-66205714D01*
X137946428Y-66348571D01*
X137946428Y-66634285D01*
X138017857Y-66777142D01*
X137946428Y-65420000D02*
X138946428Y-65420000D01*
X138660714Y-65420000D02*
X138803571Y-65348571D01*
X138875000Y-65277142D01*
X138946428Y-65134285D01*
X138946428Y-64991428D01*
X137946428Y-64491428D02*
X138946428Y-64491428D01*
X139446428Y-64491428D02*
X139375000Y-64562857D01*
X139303571Y-64491428D01*
X139375000Y-64420000D01*
X139446428Y-64491428D01*
X139303571Y-64491428D01*
X137946428Y-63134285D02*
X139446428Y-63134285D01*
X138017857Y-63134285D02*
X137946428Y-63277142D01*
X137946428Y-63562857D01*
X138017857Y-63705714D01*
X138089285Y-63777142D01*
X138232142Y-63848571D01*
X138660714Y-63848571D01*
X138803571Y-63777142D01*
X138875000Y-63705714D01*
X138946428Y-63562857D01*
X138946428Y-63277142D01*
X138875000Y-63134285D01*
X138946428Y-61777142D02*
X137732142Y-61777142D01*
X137589285Y-61848571D01*
X137517857Y-61920000D01*
X137446428Y-62062857D01*
X137446428Y-62277142D01*
X137517857Y-62420000D01*
X138017857Y-61777142D02*
X137946428Y-61920000D01*
X137946428Y-62205714D01*
X138017857Y-62348571D01*
X138089285Y-62420000D01*
X138232142Y-62491428D01*
X138660714Y-62491428D01*
X138803571Y-62420000D01*
X138875000Y-62348571D01*
X138946428Y-62205714D01*
X138946428Y-61920000D01*
X138875000Y-61777142D01*
X138017857Y-60491428D02*
X137946428Y-60634285D01*
X137946428Y-60920000D01*
X138017857Y-61062857D01*
X138160714Y-61134285D01*
X138732142Y-61134285D01*
X138875000Y-61062857D01*
X138946428Y-60920000D01*
X138946428Y-60634285D01*
X138875000Y-60491428D01*
X138732142Y-60420000D01*
X138589285Y-60420000D01*
X138446428Y-61134285D01*
X138517857Y-58634285D02*
X138517857Y-57491428D01*
X139446428Y-55634285D02*
X138232142Y-55634285D01*
X138089285Y-55562857D01*
X138017857Y-55491428D01*
X137946428Y-55348571D01*
X137946428Y-55062857D01*
X138017857Y-54920000D01*
X138089285Y-54848571D01*
X138232142Y-54777142D01*
X139446428Y-54777142D01*
X137946428Y-54062857D02*
X139446428Y-54062857D01*
X137946428Y-53205714D02*
X138803571Y-53848571D01*
X139446428Y-53205714D02*
X138589285Y-54062857D01*
X136896428Y-85670000D02*
X136896428Y-85384285D01*
X136825000Y-85241428D01*
X136682142Y-85098571D01*
X136396428Y-85027142D01*
X135896428Y-85027142D01*
X135610714Y-85098571D01*
X135467857Y-85241428D01*
X135396428Y-85384285D01*
X135396428Y-85670000D01*
X135467857Y-85812857D01*
X135610714Y-85955714D01*
X135896428Y-86027142D01*
X136396428Y-86027142D01*
X136682142Y-85955714D01*
X136825000Y-85812857D01*
X136896428Y-85670000D01*
X135396428Y-84384285D02*
X136896428Y-84384285D01*
X136896428Y-83812857D01*
X136825000Y-83670000D01*
X136753571Y-83598571D01*
X136610714Y-83527142D01*
X136396428Y-83527142D01*
X136253571Y-83598571D01*
X136182142Y-83670000D01*
X136110714Y-83812857D01*
X136110714Y-84384285D01*
X136182142Y-82884285D02*
X136182142Y-82384285D01*
X135396428Y-82170000D02*
X135396428Y-82884285D01*
X136896428Y-82884285D01*
X136896428Y-82170000D01*
X135396428Y-81527142D02*
X136896428Y-81527142D01*
X135396428Y-80670000D01*
X136896428Y-80670000D01*
X135396428Y-78098571D02*
X135396428Y-78812857D01*
X136896428Y-78812857D01*
X135825000Y-77670000D02*
X135825000Y-76955714D01*
X135396428Y-77812857D02*
X136896428Y-77312857D01*
X135396428Y-76812857D01*
X136182142Y-75812857D02*
X136110714Y-75598571D01*
X136039285Y-75527142D01*
X135896428Y-75455714D01*
X135682142Y-75455714D01*
X135539285Y-75527142D01*
X135467857Y-75598571D01*
X135396428Y-75741428D01*
X135396428Y-76312857D01*
X136896428Y-76312857D01*
X136896428Y-75812857D01*
X136825000Y-75670000D01*
X136753571Y-75598571D01*
X136610714Y-75527142D01*
X136467857Y-75527142D01*
X136325000Y-75598571D01*
X136253571Y-75670000D01*
X136182142Y-75812857D01*
X136182142Y-76312857D01*
X135396428Y-73670000D02*
X136896428Y-73670000D01*
X135396428Y-72955714D02*
X136896428Y-72955714D01*
X135396428Y-72098571D01*
X136896428Y-72098571D01*
X135467857Y-71455714D02*
X135396428Y-71241428D01*
X135396428Y-70884285D01*
X135467857Y-70741428D01*
X135539285Y-70670000D01*
X135682142Y-70598571D01*
X135825000Y-70598571D01*
X135967857Y-70670000D01*
X136039285Y-70741428D01*
X136110714Y-70884285D01*
X136182142Y-71170000D01*
X136253571Y-71312857D01*
X136325000Y-71384285D01*
X136467857Y-71455714D01*
X136610714Y-71455714D01*
X136753571Y-71384285D01*
X136825000Y-71312857D01*
X136896428Y-71170000D01*
X136896428Y-70812857D01*
X136825000Y-70598571D01*
X136896428Y-70170000D02*
X136896428Y-69312857D01*
X135396428Y-69741428D02*
X136896428Y-69741428D01*
X135396428Y-67955714D02*
X136110714Y-68455714D01*
X135396428Y-68812857D02*
X136896428Y-68812857D01*
X136896428Y-68241428D01*
X136825000Y-68098571D01*
X136753571Y-68027142D01*
X136610714Y-67955714D01*
X136396428Y-67955714D01*
X136253571Y-68027142D01*
X136182142Y-68098571D01*
X136110714Y-68241428D01*
X136110714Y-68812857D01*
X136896428Y-67312857D02*
X135682142Y-67312857D01*
X135539285Y-67241428D01*
X135467857Y-67170000D01*
X135396428Y-67027142D01*
X135396428Y-66741428D01*
X135467857Y-66598571D01*
X135539285Y-66527142D01*
X135682142Y-66455714D01*
X136896428Y-66455714D01*
X135396428Y-65741428D02*
X136896428Y-65741428D01*
X135825000Y-65241428D01*
X136896428Y-64741428D01*
X135396428Y-64741428D01*
X136182142Y-64027142D02*
X136182142Y-63527142D01*
X135396428Y-63312857D02*
X135396428Y-64027142D01*
X136896428Y-64027142D01*
X136896428Y-63312857D01*
X135396428Y-62670000D02*
X136896428Y-62670000D01*
X135396428Y-61812857D01*
X136896428Y-61812857D01*
X136896428Y-61312857D02*
X136896428Y-60455714D01*
X135396428Y-60884285D02*
X136896428Y-60884285D01*
X135825000Y-60027142D02*
X135825000Y-59312857D01*
X135396428Y-60170000D02*
X136896428Y-59670000D01*
X135396428Y-59170000D01*
X136896428Y-58884285D02*
X136896428Y-58027142D01*
X135396428Y-58455714D02*
X136896428Y-58455714D01*
X135396428Y-57527142D02*
X136896428Y-57527142D01*
X136896428Y-56527142D02*
X136896428Y-56241428D01*
X136825000Y-56098571D01*
X136682142Y-55955714D01*
X136396428Y-55884285D01*
X135896428Y-55884285D01*
X135610714Y-55955714D01*
X135467857Y-56098571D01*
X135396428Y-56241428D01*
X135396428Y-56527142D01*
X135467857Y-56670000D01*
X135610714Y-56812857D01*
X135896428Y-56884285D01*
X136396428Y-56884285D01*
X136682142Y-56812857D01*
X136825000Y-56670000D01*
X136896428Y-56527142D01*
X135396428Y-55241428D02*
X136896428Y-55241428D01*
X135396428Y-54384285D01*
X136896428Y-54384285D01*
M02*
