M48
; DRILL file {KiCad 5.1.5-52549c5~84~ubuntu16.04.1} date Tue 03 Mar 2020 15:59:04 GMT
; FORMAT={-:-/ absolute / metric / decimal}
; #@! TF.CreationDate,2020-03-03T15:59:04+00:00
; #@! TF.GenerationSoftware,Kicad,Pcbnew,5.1.5-52549c5~84~ubuntu16.04.1
; #@! TF.FileFunction,Plated,1,2,PTH
FMAT,2
METRIC
T1C0.500
T2C0.600
T3C0.850
T4C0.950
T5C1.000
%
G90
G05
T1
X198.52Y-105.67
X204.87Y-115.01
X205.33Y-124.28
X206.6Y-106.6
X206.8Y-102.06
X207.01Y-116.41
X207.48Y-115.16
X207.95Y-117.73
X208.61Y-121.84
X210.09Y-102.6
X210.22Y-111.36
X210.22Y-111.36
X210.4Y-97.6
X210.75Y-94.66
X211.92Y-120.94
X212.14Y-128.84
X213.07Y-121.07
X213.09Y-115.73
X213.131Y-116.729
X213.35Y-111.39
X213.38Y-104.47
X213.56Y-125.57
X214.79Y-104.01
X215.41Y-138.97
X215.601Y-109.564
X215.67Y-95.98
X215.76Y-107.44
X215.763Y-103.777
X215.78Y-108.58
X215.86Y-94.66
X216.23Y-127.39
X216.71Y-104.19
X216.71Y-107.07
X217.7Y-132.86
X218.88Y-119.17
X220.78Y-114.86
X220.89Y-135.44
X221.16Y-128.46
X222.3Y-136.53
X222.84Y-93.9
X223.98Y-107.62
X224.61Y-114.41
X224.72Y-117.86
X224.74Y-116.8
X224.94Y-142.155
X225.51Y-107.59
X227.315Y-109.22
X227.35Y-121.06
X227.535Y-131.62
X227.56Y-94.89
X227.89Y-142.35
X228.119Y-114.922
X228.218Y-116.068
X228.76Y-113.99
X228.959Y-127.138
X229.08Y-115.2
X229.48Y-96.85
X229.88Y-132.04
X230.03Y-105.44
X230.2Y-109.92
X230.226Y-127.07
X230.52Y-122.45
X230.98Y-120.45
X231.52Y-127.06
X232.32Y-123.14
X233.56Y-99.47
X234.26Y-142.01
X235.235Y-123.19
X235.69Y-121.79
X236.48Y-132.35
X236.53Y-123.33
X237.73Y-128.16
X237.75Y-131.99
X237.83Y-122.67
X238.83Y-126.6
X239.135Y-105.515
X239.26Y-96.02
X239.63Y-131.67
X240.17Y-119.0
X241.26Y-103.76
X241.45Y-112.535
X242.24Y-143.24
X243.8Y-122.55
X244.183Y-123.817
X244.93Y-128.88
X247.53Y-105.23
X250.73Y-133.9
X255.543Y-130.103
X256.33Y-113.4
T3
X201.52Y-97.15
X201.52Y-102.15
X205.68Y-139.48
X210.68Y-139.48
T4
X245.84Y-116.905
X248.34Y-116.905
X250.84Y-116.905
X253.34Y-116.905
X255.84Y-116.905
X245.84Y-108.19
X248.34Y-108.19
X250.84Y-108.19
X253.34Y-108.19
X255.84Y-108.19
X245.84Y-125.62
X248.34Y-125.62
X250.84Y-125.62
X253.34Y-125.62
X255.84Y-125.62
T5
X220.295Y-98.4
X220.295Y-100.94
X222.835Y-98.4
X222.835Y-100.94
X225.26Y-90.46
X225.26Y-93.0
X227.8Y-90.46
X227.8Y-93.0
X230.34Y-90.46
X230.34Y-93.0
X248.36Y-90.45
X248.36Y-92.99
X248.36Y-95.53
X248.36Y-98.07
X248.36Y-100.61
X248.36Y-103.15
X250.9Y-90.45
X250.9Y-92.99
X250.9Y-95.53
X250.9Y-98.07
X250.9Y-100.61
X250.9Y-103.15
X254.23Y-132.795
X254.23Y-135.335
X256.77Y-132.795
X256.77Y-135.335
X245.974Y-132.795
X245.974Y-135.335
X245.974Y-137.875
X245.974Y-140.415
X248.514Y-132.795
X248.514Y-135.335
X248.514Y-137.875
X248.514Y-140.415
X242.05Y-90.45
X242.05Y-92.99
X242.05Y-95.53
X244.59Y-90.45
X244.59Y-92.99
X244.59Y-95.53
X205.23Y-90.46
X205.23Y-93.0
X207.77Y-90.46
X207.77Y-93.0
X210.31Y-90.46
X210.31Y-93.0
X212.85Y-90.46
X212.85Y-93.0
X215.39Y-90.46
X215.39Y-93.0
X227.52Y-98.4
X227.52Y-100.94
X213.07Y-98.4
X213.07Y-100.94
X215.61Y-98.4
X215.61Y-100.94
X235.71Y-90.46
X235.71Y-93.0
X238.25Y-90.46
X238.25Y-93.0
X220.34Y-90.46
X220.34Y-93.0
T2
G00X198.47Y-96.15
M15
G01X199.17Y-96.15
M16
G05
G00X199.17Y-103.15
M15
G01X198.47Y-103.15
M16
G05
G00X204.68Y-142.53
M15
G01X204.68Y-141.83
M16
G05
G00X211.68Y-141.83
M15
G01X211.68Y-142.53
M16
G05
T0
M30
