M48
; DRILL file {KiCad 5.1.5-52549c5~84~ubuntu18.04.1} date Mon 02 Mar 2020 20:18:12 GMT
; FORMAT={-:-/ absolute / inch / decimal}
; #@! TF.CreationDate,2020-03-02T20:18:12+00:00
; #@! TF.GenerationSoftware,Kicad,Pcbnew,5.1.5-52549c5~84~ubuntu18.04.1
; #@! TF.FileFunction,Plated,1,2,PTH
FMAT,2
INCH
T1C0.0197
T2C0.0236
T3C0.0335
T4C0.0374
T5C0.0394
%
G90
G05
T1
X7.8157Y-4.1602
X8.0657Y-4.528
X8.0839Y-4.8929
X8.1339Y-4.1969
X8.1417Y-4.0181
X8.15Y-4.5831
X8.1685Y-4.5339
X8.187Y-4.635
X8.213Y-4.7969
X8.2713Y-4.0394
X8.2764Y-4.3843
X8.2764Y-4.3843
X8.2835Y-3.8425
X8.2972Y-3.7268
X8.3433Y-4.7614
X8.352Y-5.0724
X8.3886Y-4.7665
X8.3894Y-4.5563
X8.391Y-4.5956
X8.3996Y-4.3854
X8.4008Y-4.113
X8.4079Y-4.9437
X8.4563Y-4.0949
X8.4807Y-5.4713
X8.4882Y-4.3135
X8.4909Y-3.7787
X8.4945Y-4.2299
X8.4946Y-4.0857
X8.4953Y-4.2748
X8.4984Y-3.7268
X8.513Y-5.0154
X8.5319Y-4.102
X8.5319Y-4.2154
X8.5709Y-5.2307
X8.6173Y-4.6917
X8.6921Y-4.522
X8.6965Y-5.3323
X8.7071Y-5.0575
X8.752Y-5.3752
X8.7732Y-3.6969
X8.8181Y-4.237
X8.8429Y-4.5043
X8.8472Y-4.6402
X8.848Y-4.5984
X8.8559Y-5.5967
X8.8783Y-4.2358
X8.9494Y-4.3
X8.9508Y-4.7661
X8.9581Y-5.1819
X8.9591Y-3.7358
X8.972Y-5.6043
X8.9811Y-4.5245
X8.985Y-4.5696
X9.0063Y-4.4878
X9.0141Y-5.0054
X9.0189Y-4.5354
X9.0346Y-3.813
X9.0504Y-5.1984
X9.0563Y-4.1512
X9.063Y-4.3276
X9.064Y-5.0028
X9.0756Y-4.8209
X9.0937Y-4.7421
X9.115Y-5.0024
X9.1465Y-4.848
X9.1953Y-3.9161
X9.2228Y-5.5909
X9.2612Y-4.85
X9.2791Y-4.7949
X9.3102Y-5.2106
X9.3122Y-4.8555
X9.3594Y-5.0457
X9.3602Y-5.1965
X9.3634Y-4.8295
X9.4028Y-4.9843
X9.4148Y-4.1541
X9.4197Y-3.7803
X9.4343Y-5.1839
X9.4555Y-4.685
X9.4984Y-4.085
X9.5059Y-4.4305
X9.537Y-5.6394
X9.5984Y-4.8248
X9.6135Y-4.8747
X9.6429Y-5.074
X9.7453Y-4.1429
X9.8713Y-5.2717
X10.0607Y-5.1221
X10.0917Y-4.4646
T3
X7.9339Y-3.8248
X7.9339Y-4.0217
X8.0976Y-5.4913
X8.2945Y-5.4913
T4
X9.6787Y-4.9457
X9.7772Y-4.9457
X9.8756Y-4.9457
X9.974Y-4.9457
X10.0724Y-4.9457
X9.6787Y-4.6026
X9.7772Y-4.6026
X9.8756Y-4.6026
X9.974Y-4.6026
X10.0724Y-4.6026
X9.6787Y-4.2594
X9.7772Y-4.2594
X9.8756Y-4.2594
X9.974Y-4.2594
X10.0724Y-4.2594
T5
X8.673Y-3.874
X8.673Y-3.974
X8.773Y-3.874
X8.773Y-3.974
X9.5295Y-3.561
X9.5295Y-3.661
X9.5295Y-3.761
X9.6295Y-3.561
X9.6295Y-3.661
X9.6295Y-3.761
X8.3886Y-3.874
X8.3886Y-3.974
X8.4886Y-3.874
X8.4886Y-3.974
X8.0799Y-3.5614
X8.0799Y-3.6614
X8.1799Y-3.5614
X8.1799Y-3.6614
X8.2799Y-3.5614
X8.2799Y-3.6614
X8.3799Y-3.5614
X8.3799Y-3.6614
X8.4799Y-3.5614
X8.4799Y-3.6614
X8.8685Y-3.5614
X8.8685Y-3.6614
X8.9685Y-3.5614
X8.9685Y-3.6614
X9.0685Y-3.5614
X9.0685Y-3.6614
X9.778Y-3.561
X9.778Y-3.661
X9.778Y-3.761
X9.778Y-3.861
X9.778Y-3.961
X9.778Y-4.061
X9.878Y-3.561
X9.878Y-3.661
X9.878Y-3.761
X9.878Y-3.861
X9.878Y-3.961
X9.878Y-4.061
X8.6748Y-3.5614
X8.6748Y-3.6614
X9.684Y-5.2281
X9.684Y-5.3281
X9.684Y-5.4281
X9.684Y-5.5281
X9.784Y-5.2281
X9.784Y-5.3281
X9.784Y-5.4281
X9.784Y-5.5281
X10.0091Y-5.2281
X10.0091Y-5.3281
X10.1091Y-5.2281
X10.1091Y-5.3281
X9.2799Y-3.5614
X9.2799Y-3.6614
X9.3799Y-3.5614
X9.3799Y-3.6614
X8.9575Y-3.874
X8.9575Y-3.974
T2
G00X7.8138Y-3.7854
M15
G01X7.8413Y-3.7854
M16
G05
G00X7.8413Y-4.061
M15
G01X7.8138Y-4.061
M16
G05
G00X8.0583Y-5.6114
M15
G01X8.0583Y-5.5839
M16
G05
G00X8.3339Y-5.5839
M15
G01X8.3339Y-5.6114
M16
G05
T0
M30
