G04 #@! TF.GenerationSoftware,KiCad,Pcbnew,5.1.5-52549c5~84~ubuntu18.04.1*
G04 #@! TF.CreationDate,2020-03-02T19:21:28+00:00*
G04 #@! TF.ProjectId,sangaboard_v0.4,73616e67-6162-46f6-9172-645f76302e34,rev?*
G04 #@! TF.SameCoordinates,Original*
G04 #@! TF.FileFunction,Legend,Bot*
G04 #@! TF.FilePolarity,Positive*
%FSLAX46Y46*%
G04 Gerber Fmt 4.6, Leading zero omitted, Abs format (unit mm)*
G04 Created by KiCad (PCBNEW 5.1.5-52549c5~84~ubuntu18.04.1) date 2020-03-02 19:21:28*
%MOMM*%
%LPD*%
G04 APERTURE LIST*
%ADD10C,0.120000*%
%ADD11C,0.150000*%
G04 APERTURE END LIST*
D10*
X203900000Y-89130000D02*
X203900000Y-91730000D01*
X203900000Y-89130000D02*
X216720000Y-89130000D01*
X216720000Y-89130000D02*
X216720000Y-94330000D01*
X206500000Y-94330000D02*
X216720000Y-94330000D01*
X206500000Y-91730000D02*
X206500000Y-94330000D01*
X203900000Y-91730000D02*
X206500000Y-91730000D01*
X203900000Y-94330000D02*
X205230000Y-94330000D01*
X203900000Y-93000000D02*
X203900000Y-94330000D01*
X234380000Y-93000000D02*
X234380000Y-94330000D01*
X234380000Y-94330000D02*
X235710000Y-94330000D01*
X234380000Y-91730000D02*
X236980000Y-91730000D01*
X236980000Y-91730000D02*
X236980000Y-94330000D01*
X236980000Y-94330000D02*
X239580000Y-94330000D01*
X239580000Y-89130000D02*
X239580000Y-94330000D01*
X234380000Y-89130000D02*
X239580000Y-89130000D01*
X234380000Y-89130000D02*
X234380000Y-91730000D01*
D11*
X202562380Y-91010476D02*
X203276666Y-91010476D01*
X203419523Y-90962857D01*
X203514761Y-90867619D01*
X203562380Y-90724761D01*
X203562380Y-90629523D01*
X203562380Y-92010476D02*
X203562380Y-91439047D01*
X203562380Y-91724761D02*
X202562380Y-91724761D01*
X202705238Y-91629523D01*
X202800476Y-91534285D01*
X202848095Y-91439047D01*
X202895714Y-92867619D02*
X203562380Y-92867619D01*
X202514761Y-92629523D02*
X203229047Y-92391428D01*
X203229047Y-93010476D01*
X233082380Y-90920476D02*
X233796666Y-90920476D01*
X233939523Y-90872857D01*
X234034761Y-90777619D01*
X234082380Y-90634761D01*
X234082380Y-90539523D01*
X234082380Y-91920476D02*
X234082380Y-91349047D01*
X234082380Y-91634761D02*
X233082380Y-91634761D01*
X233225238Y-91539523D01*
X233320476Y-91444285D01*
X233368095Y-91349047D01*
X233082380Y-92825238D02*
X233082380Y-92349047D01*
X233558571Y-92301428D01*
X233510952Y-92349047D01*
X233463333Y-92444285D01*
X233463333Y-92682380D01*
X233510952Y-92777619D01*
X233558571Y-92825238D01*
X233653809Y-92872857D01*
X233891904Y-92872857D01*
X233987142Y-92825238D01*
X234034761Y-92777619D01*
X234082380Y-92682380D01*
X234082380Y-92444285D01*
X234034761Y-92349047D01*
X233987142Y-92301428D01*
M02*
