G04 #@! TF.GenerationSoftware,KiCad,Pcbnew,5.1.5-52549c5~84~ubuntu18.04.1*
G04 #@! TF.CreationDate,2020-03-02T19:34:08+00:00*
G04 #@! TF.ProjectId,sangaboard_v0.4,73616e67-6162-46f6-9172-645f76302e34,rev?*
G04 #@! TF.SameCoordinates,Original*
G04 #@! TF.FileFunction,Legend,Top*
G04 #@! TF.FilePolarity,Positive*
%FSLAX46Y46*%
G04 Gerber Fmt 4.6, Leading zero omitted, Abs format (unit mm)*
G04 Created by KiCad (PCBNEW 5.1.5-52549c5~84~ubuntu18.04.1) date 2020-03-02 19:34:08*
%MOMM*%
%LPD*%
G04 APERTURE LIST*
%ADD10C,0.300000*%
%ADD11C,0.120000*%
%ADD12C,0.150000*%
G04 APERTURE END LIST*
D10*
X252744285Y-103588571D02*
X253544285Y-105088571D01*
X253544285Y-103588571D02*
X252744285Y-105088571D01*
X254001428Y-104517142D02*
X254915714Y-104517142D01*
X255430000Y-104660000D02*
X256001428Y-104660000D01*
X255315714Y-105088571D02*
X255715714Y-103588571D01*
X256115714Y-105088571D01*
X256401428Y-103588571D02*
X257201428Y-105088571D01*
X257201428Y-103588571D02*
X256401428Y-105088571D01*
X257658571Y-105088571D02*
X257658571Y-103588571D01*
X258172857Y-105017142D02*
X258344285Y-105088571D01*
X258630000Y-105088571D01*
X258744285Y-105017142D01*
X258801428Y-104945714D01*
X258858571Y-104802857D01*
X258858571Y-104660000D01*
X258801428Y-104517142D01*
X258744285Y-104445714D01*
X258630000Y-104374285D01*
X258401428Y-104302857D01*
X258287142Y-104231428D01*
X258230000Y-104160000D01*
X258172857Y-104017142D01*
X258172857Y-103874285D01*
X258230000Y-103731428D01*
X258287142Y-103660000D01*
X258401428Y-103588571D01*
X258687142Y-103588571D01*
X258858571Y-103660000D01*
X253144285Y-113184285D02*
X253144285Y-113898571D01*
X252744285Y-112398571D02*
X253144285Y-113184285D01*
X253544285Y-112398571D01*
X253944285Y-113327142D02*
X254858571Y-113327142D01*
X255372857Y-113470000D02*
X255944285Y-113470000D01*
X255258571Y-113898571D02*
X255658571Y-112398571D01*
X256058571Y-113898571D01*
X256344285Y-112398571D02*
X257144285Y-113898571D01*
X257144285Y-112398571D02*
X256344285Y-113898571D01*
X257601428Y-113898571D02*
X257601428Y-112398571D01*
X258115714Y-113827142D02*
X258287142Y-113898571D01*
X258572857Y-113898571D01*
X258687142Y-113827142D01*
X258744285Y-113755714D01*
X258801428Y-113612857D01*
X258801428Y-113470000D01*
X258744285Y-113327142D01*
X258687142Y-113255714D01*
X258572857Y-113184285D01*
X258344285Y-113112857D01*
X258230000Y-113041428D01*
X258172857Y-112970000D01*
X258115714Y-112827142D01*
X258115714Y-112684285D01*
X258172857Y-112541428D01*
X258230000Y-112470000D01*
X258344285Y-112398571D01*
X258630000Y-112398571D01*
X258801428Y-112470000D01*
X252744285Y-121068571D02*
X253544285Y-121068571D01*
X252744285Y-122568571D01*
X253544285Y-122568571D01*
X254001428Y-121997142D02*
X254915714Y-121997142D01*
X255430000Y-122140000D02*
X256001428Y-122140000D01*
X255315714Y-122568571D02*
X255715714Y-121068571D01*
X256115714Y-122568571D01*
X256401428Y-121068571D02*
X257201428Y-122568571D01*
X257201428Y-121068571D02*
X256401428Y-122568571D01*
X257658571Y-122568571D02*
X257658571Y-121068571D01*
X258172857Y-122497142D02*
X258344285Y-122568571D01*
X258630000Y-122568571D01*
X258744285Y-122497142D01*
X258801428Y-122425714D01*
X258858571Y-122282857D01*
X258858571Y-122140000D01*
X258801428Y-121997142D01*
X258744285Y-121925714D01*
X258630000Y-121854285D01*
X258401428Y-121782857D01*
X258287142Y-121711428D01*
X258230000Y-121640000D01*
X258172857Y-121497142D01*
X258172857Y-121354285D01*
X258230000Y-121211428D01*
X258287142Y-121140000D01*
X258401428Y-121068571D01*
X258687142Y-121068571D01*
X258858571Y-121140000D01*
D11*
X218320000Y-141742064D02*
X218320000Y-140537936D01*
X216500000Y-141742064D02*
X216500000Y-140537936D01*
D12*
X225380000Y-109685000D02*
X225380000Y-108410000D01*
X225955000Y-120035000D02*
X225955000Y-119360000D01*
X215605000Y-120035000D02*
X215605000Y-119360000D01*
X215605000Y-109685000D02*
X215605000Y-110360000D01*
X225955000Y-109685000D02*
X225955000Y-110360000D01*
X215605000Y-109685000D02*
X216280000Y-109685000D01*
X215605000Y-120035000D02*
X216280000Y-120035000D01*
X225955000Y-120035000D02*
X225280000Y-120035000D01*
X225955000Y-109685000D02*
X225380000Y-109685000D01*
D11*
X212106233Y-108110000D02*
X212448767Y-108110000D01*
X212106233Y-107090000D02*
X212448767Y-107090000D01*
X226456233Y-123100000D02*
X226798767Y-123100000D01*
X226456233Y-122080000D02*
X226798767Y-122080000D01*
X222976666Y-105881267D02*
X222976666Y-105538733D01*
X221956666Y-105881267D02*
X221956666Y-105538733D01*
X220863333Y-105881267D02*
X220863333Y-105538733D01*
X219843333Y-105881267D02*
X219843333Y-105538733D01*
X206808578Y-129260000D02*
X206291422Y-129260000D01*
X206808578Y-130680000D02*
X206291422Y-130680000D01*
X209341078Y-132600000D02*
X208823922Y-132600000D01*
X209341078Y-134020000D02*
X208823922Y-134020000D01*
X213878578Y-134510000D02*
X213361422Y-134510000D01*
X213878578Y-135930000D02*
X213361422Y-135930000D01*
X207548578Y-99410000D02*
X207031422Y-99410000D01*
X207548578Y-100830000D02*
X207031422Y-100830000D01*
X205850000Y-111430000D02*
X203050000Y-111430000D01*
X203050000Y-111430000D02*
X203050000Y-109430000D01*
X203050000Y-109430000D02*
X205850000Y-109430000D01*
X205850000Y-109430000D02*
X205850000Y-111430000D01*
X205880000Y-121060000D02*
X203080000Y-121060000D01*
X203080000Y-121060000D02*
X203080000Y-119060000D01*
X203080000Y-119060000D02*
X205880000Y-119060000D01*
X205880000Y-119060000D02*
X205880000Y-121060000D01*
X239020000Y-139150000D02*
X236220000Y-139150000D01*
X236220000Y-139150000D02*
X236220000Y-137150000D01*
X236220000Y-137150000D02*
X239020000Y-137150000D01*
X239020000Y-137150000D02*
X239020000Y-139150000D01*
X198390000Y-133280000D02*
X198390000Y-130480000D01*
X198390000Y-130480000D02*
X200390000Y-130480000D01*
X200390000Y-130480000D02*
X200390000Y-133280000D01*
X200390000Y-133280000D02*
X198390000Y-133280000D01*
X247030000Y-104480000D02*
X252230000Y-104480000D01*
X247030000Y-91720000D02*
X247030000Y-104480000D01*
X252230000Y-89120000D02*
X252230000Y-104480000D01*
X247030000Y-91720000D02*
X249630000Y-91720000D01*
X249630000Y-91720000D02*
X249630000Y-89120000D01*
X249630000Y-89120000D02*
X252230000Y-89120000D01*
X247030000Y-90450000D02*
X247030000Y-89120000D01*
X247030000Y-89120000D02*
X248360000Y-89120000D01*
X248514000Y-131465001D02*
X249844000Y-131465001D01*
X249844000Y-131465001D02*
X249844000Y-132795001D01*
X247244000Y-131465001D02*
X247244000Y-134065001D01*
X247244000Y-134065001D02*
X249844000Y-134065001D01*
X249844000Y-134065001D02*
X249844000Y-141745001D01*
X244644000Y-141745001D02*
X249844000Y-141745001D01*
X244644000Y-131465001D02*
X244644000Y-141745001D01*
X244644000Y-131465001D02*
X247244000Y-131465001D01*
X228050000Y-110251422D02*
X228050000Y-110768578D01*
X229470000Y-110251422D02*
X229470000Y-110768578D01*
X210428578Y-117880000D02*
X209911422Y-117880000D01*
X210428578Y-119300000D02*
X209911422Y-119300000D01*
X210428578Y-113370000D02*
X209911422Y-113370000D01*
X210428578Y-111950000D02*
X209911422Y-111950000D01*
X206548922Y-103290000D02*
X207066078Y-103290000D01*
X206548922Y-104710000D02*
X207066078Y-104710000D01*
X219252000Y-134833922D02*
X219252000Y-135351078D01*
X217832000Y-134833922D02*
X217832000Y-135351078D01*
X226890000Y-105971422D02*
X226890000Y-106488578D01*
X228310000Y-105971422D02*
X228310000Y-106488578D01*
X216883922Y-123970000D02*
X217401078Y-123970000D01*
X216883922Y-122550000D02*
X217401078Y-122550000D01*
X224451078Y-136150000D02*
X223933922Y-136150000D01*
X224451078Y-134730000D02*
X223933922Y-134730000D01*
X210331078Y-128260000D02*
X209813922Y-128260000D01*
X210331078Y-126840000D02*
X209813922Y-126840000D01*
X240023922Y-111880000D02*
X240541078Y-111880000D01*
X240023922Y-110460000D02*
X240541078Y-110460000D01*
X240023922Y-121840000D02*
X240541078Y-121840000D01*
X240023922Y-123260000D02*
X240541078Y-123260000D01*
X209557500Y-109000000D02*
X209557500Y-111000000D01*
X209557500Y-111000000D02*
X213407500Y-111000000D01*
X209557500Y-109000000D02*
X213407500Y-109000000D01*
X200090000Y-137087500D02*
X200090000Y-134402500D01*
X198170000Y-137087500D02*
X200090000Y-137087500D01*
X198170000Y-134402500D02*
X198170000Y-137087500D01*
X235010000Y-140317500D02*
X235010000Y-143002500D01*
X235010000Y-143002500D02*
X236930000Y-143002500D01*
X236930000Y-143002500D02*
X236930000Y-140317500D01*
X205577500Y-116115000D02*
X202892500Y-116115000D01*
X202892500Y-116115000D02*
X202892500Y-118035000D01*
X202892500Y-118035000D02*
X205577500Y-118035000D01*
X202892500Y-114145000D02*
X205577500Y-114145000D01*
X202892500Y-112225000D02*
X202892500Y-114145000D01*
X205577500Y-112225000D02*
X202892500Y-112225000D01*
X207582064Y-97420000D02*
X206377936Y-97420000D01*
X207582064Y-95600000D02*
X206377936Y-95600000D01*
X259120000Y-109217936D02*
X259120000Y-110422064D01*
X260940000Y-109217936D02*
X260940000Y-110422064D01*
X260940000Y-119137064D02*
X260940000Y-117932936D01*
X259120000Y-119137064D02*
X259120000Y-117932936D01*
X260940000Y-126647936D02*
X260940000Y-127852064D01*
X259120000Y-126647936D02*
X259120000Y-127852064D01*
X202370000Y-97950000D02*
X201920000Y-97950000D01*
X202370000Y-97950000D02*
X202370000Y-98400000D01*
X201820000Y-103550000D02*
X201820000Y-103100000D01*
X199970000Y-103550000D02*
X201820000Y-103550000D01*
X197420000Y-95750000D02*
X197670000Y-95750000D01*
X197420000Y-103550000D02*
X197670000Y-103550000D01*
X199970000Y-95750000D02*
X201820000Y-95750000D01*
X201820000Y-95750000D02*
X201820000Y-96200000D01*
X204280000Y-139180000D02*
X204730000Y-139180000D01*
X204280000Y-141030000D02*
X204280000Y-139180000D01*
X212080000Y-143580000D02*
X212080000Y-143330000D01*
X204280000Y-143580000D02*
X204280000Y-143330000D01*
X212080000Y-141030000D02*
X212080000Y-139180000D01*
X212080000Y-139180000D02*
X211630000Y-139180000D01*
X206480000Y-138630000D02*
X206930000Y-138630000D01*
X206480000Y-138630000D02*
X206480000Y-139080000D01*
X240720000Y-89120000D02*
X242050000Y-89120000D01*
X240720000Y-90450000D02*
X240720000Y-89120000D01*
X243320000Y-89120000D02*
X245920000Y-89120000D01*
X243320000Y-91720000D02*
X243320000Y-89120000D01*
X240720000Y-91720000D02*
X243320000Y-91720000D01*
X245920000Y-89120000D02*
X245920000Y-96860000D01*
X240720000Y-91720000D02*
X240720000Y-96860000D01*
X240720000Y-96860000D02*
X245920000Y-96860000D01*
X218965000Y-102270000D02*
X224165000Y-102270000D01*
X218965000Y-99670000D02*
X218965000Y-102270000D01*
X224165000Y-97070000D02*
X224165000Y-102270000D01*
X218965000Y-99670000D02*
X221565000Y-99670000D01*
X221565000Y-99670000D02*
X221565000Y-97070000D01*
X221565000Y-97070000D02*
X224165000Y-97070000D01*
X218965000Y-98400000D02*
X218965000Y-97070000D01*
X218965000Y-97070000D02*
X220295000Y-97070000D01*
X211740000Y-97070000D02*
X213070000Y-97070000D01*
X211740000Y-98400000D02*
X211740000Y-97070000D01*
X214340000Y-97070000D02*
X216940000Y-97070000D01*
X214340000Y-99670000D02*
X214340000Y-97070000D01*
X211740000Y-99670000D02*
X214340000Y-99670000D01*
X216940000Y-97070000D02*
X216940000Y-102270000D01*
X211740000Y-99670000D02*
X211740000Y-102270000D01*
X211740000Y-102270000D02*
X216940000Y-102270000D01*
X231670000Y-94330000D02*
X231670000Y-89130000D01*
X226530000Y-94330000D02*
X231670000Y-94330000D01*
X223930000Y-89130000D02*
X231670000Y-89130000D01*
X226530000Y-94330000D02*
X226530000Y-91730000D01*
X226530000Y-91730000D02*
X223930000Y-91730000D01*
X223930000Y-91730000D02*
X223930000Y-89130000D01*
X225260000Y-94330000D02*
X223930000Y-94330000D01*
X223930000Y-94330000D02*
X223930000Y-93000000D01*
X252900000Y-136665001D02*
X258100000Y-136665001D01*
X252900000Y-134065001D02*
X252900000Y-136665001D01*
X258100000Y-131465001D02*
X258100000Y-136665001D01*
X252900000Y-134065001D02*
X255500000Y-134065001D01*
X255500000Y-134065001D02*
X255500000Y-131465001D01*
X255500000Y-131465001D02*
X258100000Y-131465001D01*
X252900000Y-132795001D02*
X252900000Y-131465001D01*
X252900000Y-131465001D02*
X254230000Y-131465001D01*
X242990000Y-105440000D02*
X242990000Y-106690000D01*
X244240000Y-105440000D02*
X242990000Y-105440000D01*
X257640000Y-110940000D02*
X250840000Y-110940000D01*
X257640000Y-107990000D02*
X257640000Y-110940000D01*
X258390000Y-107990000D02*
X257640000Y-107990000D01*
X244040000Y-110940000D02*
X250840000Y-110940000D01*
X244040000Y-107990000D02*
X244040000Y-110940000D01*
X243290000Y-107990000D02*
X244040000Y-107990000D01*
X258390000Y-105740000D02*
X256590000Y-105740000D01*
X258390000Y-106490000D02*
X258390000Y-105740000D01*
X256590000Y-106490000D02*
X258390000Y-106490000D01*
X256590000Y-105740000D02*
X256590000Y-106490000D01*
X245090000Y-105740000D02*
X243290000Y-105740000D01*
X245090000Y-106490000D02*
X245090000Y-105740000D01*
X243290000Y-106490000D02*
X245090000Y-106490000D01*
X243290000Y-105740000D02*
X243290000Y-106490000D01*
X255090000Y-105740000D02*
X246590000Y-105740000D01*
X255090000Y-106490000D02*
X255090000Y-105740000D01*
X246590000Y-106490000D02*
X255090000Y-106490000D01*
X246590000Y-105740000D02*
X246590000Y-106490000D01*
X258400000Y-105730000D02*
X243280000Y-105730000D01*
X258400000Y-111700000D02*
X258400000Y-105730000D01*
X243280000Y-111700000D02*
X258400000Y-111700000D01*
X243280000Y-105730000D02*
X243280000Y-111700000D01*
X243280000Y-114445000D02*
X243280000Y-120415000D01*
X243280000Y-120415000D02*
X258400000Y-120415000D01*
X258400000Y-120415000D02*
X258400000Y-114445000D01*
X258400000Y-114445000D02*
X243280000Y-114445000D01*
X246590000Y-114455000D02*
X246590000Y-115205000D01*
X246590000Y-115205000D02*
X255090000Y-115205000D01*
X255090000Y-115205000D02*
X255090000Y-114455000D01*
X255090000Y-114455000D02*
X246590000Y-114455000D01*
X243290000Y-114455000D02*
X243290000Y-115205000D01*
X243290000Y-115205000D02*
X245090000Y-115205000D01*
X245090000Y-115205000D02*
X245090000Y-114455000D01*
X245090000Y-114455000D02*
X243290000Y-114455000D01*
X256590000Y-114455000D02*
X256590000Y-115205000D01*
X256590000Y-115205000D02*
X258390000Y-115205000D01*
X258390000Y-115205000D02*
X258390000Y-114455000D01*
X258390000Y-114455000D02*
X256590000Y-114455000D01*
X243290000Y-116705000D02*
X244040000Y-116705000D01*
X244040000Y-116705000D02*
X244040000Y-119655000D01*
X244040000Y-119655000D02*
X250840000Y-119655000D01*
X258390000Y-116705000D02*
X257640000Y-116705000D01*
X257640000Y-116705000D02*
X257640000Y-119655000D01*
X257640000Y-119655000D02*
X250840000Y-119655000D01*
X244240000Y-114155000D02*
X242990000Y-114155000D01*
X242990000Y-114155000D02*
X242990000Y-115405000D01*
X243280000Y-123160000D02*
X243280000Y-129130000D01*
X243280000Y-129130000D02*
X258400000Y-129130000D01*
X258400000Y-129130000D02*
X258400000Y-123160000D01*
X258400000Y-123160000D02*
X243280000Y-123160000D01*
X246590000Y-123170000D02*
X246590000Y-123920000D01*
X246590000Y-123920000D02*
X255090000Y-123920000D01*
X255090000Y-123920000D02*
X255090000Y-123170000D01*
X255090000Y-123170000D02*
X246590000Y-123170000D01*
X243290000Y-123170000D02*
X243290000Y-123920000D01*
X243290000Y-123920000D02*
X245090000Y-123920000D01*
X245090000Y-123920000D02*
X245090000Y-123170000D01*
X245090000Y-123170000D02*
X243290000Y-123170000D01*
X256590000Y-123170000D02*
X256590000Y-123920000D01*
X256590000Y-123920000D02*
X258390000Y-123920000D01*
X258390000Y-123920000D02*
X258390000Y-123170000D01*
X258390000Y-123170000D02*
X256590000Y-123170000D01*
X243290000Y-125420000D02*
X244040000Y-125420000D01*
X244040000Y-125420000D02*
X244040000Y-128370000D01*
X244040000Y-128370000D02*
X250840000Y-128370000D01*
X258390000Y-125420000D02*
X257640000Y-125420000D01*
X257640000Y-125420000D02*
X257640000Y-128370000D01*
X257640000Y-128370000D02*
X250840000Y-128370000D01*
X244240000Y-122870000D02*
X242990000Y-122870000D01*
X242990000Y-122870000D02*
X242990000Y-124120000D01*
X226190000Y-102270000D02*
X228850000Y-102270000D01*
X226190000Y-99670000D02*
X226190000Y-102270000D01*
X228850000Y-99670000D02*
X228850000Y-102270000D01*
X226190000Y-99670000D02*
X228850000Y-99670000D01*
X226190000Y-98400000D02*
X226190000Y-97070000D01*
X226190000Y-97070000D02*
X227520000Y-97070000D01*
X201531252Y-106330000D02*
X201008748Y-106330000D01*
X201531252Y-104910000D02*
X201008748Y-104910000D01*
X214990000Y-141856252D02*
X214990000Y-141333748D01*
X213570000Y-141856252D02*
X213570000Y-141333748D01*
X225140000Y-141960000D02*
X227590000Y-141960000D01*
X226940000Y-138740000D02*
X225140000Y-138740000D01*
X225210000Y-128680000D02*
X225210000Y-126230000D01*
X221990000Y-126880000D02*
X221990000Y-128680000D01*
X220620000Y-141100000D02*
X221550000Y-141100000D01*
X223780000Y-141100000D02*
X222850000Y-141100000D01*
X223780000Y-141100000D02*
X223780000Y-138940000D01*
X220620000Y-141100000D02*
X220620000Y-139640000D01*
X224330000Y-133290000D02*
X222870000Y-133290000D01*
X224330000Y-130130000D02*
X222170000Y-130130000D01*
X224330000Y-130130000D02*
X224330000Y-131060000D01*
X224330000Y-133290000D02*
X224330000Y-132360000D01*
X218990000Y-127880000D02*
X217190000Y-127880000D01*
X217190000Y-131100000D02*
X219640000Y-131100000D01*
X212650000Y-130220000D02*
X213580000Y-130220000D01*
X215810000Y-130220000D02*
X214880000Y-130220000D01*
X215810000Y-130220000D02*
X215810000Y-128060000D01*
X212650000Y-130220000D02*
X212650000Y-128760000D01*
X233130000Y-139410000D02*
X233130000Y-137610000D01*
X229910000Y-137610000D02*
X229910000Y-140060000D01*
X230770000Y-133040000D02*
X232230000Y-133040000D01*
X230770000Y-136200000D02*
X232930000Y-136200000D01*
X230770000Y-136200000D02*
X230770000Y-135270000D01*
X230770000Y-133040000D02*
X230770000Y-133970000D01*
X212590000Y-123726078D02*
X212590000Y-123208922D01*
X211170000Y-123726078D02*
X211170000Y-123208922D01*
X213460000Y-123726078D02*
X213460000Y-123208922D01*
X214880000Y-123726078D02*
X214880000Y-123208922D01*
X226461267Y-138080000D02*
X226118733Y-138080000D01*
X226461267Y-137060000D02*
X226118733Y-137060000D01*
X227050000Y-127363733D02*
X227050000Y-127706267D01*
X226030000Y-127363733D02*
X226030000Y-127706267D01*
X222446267Y-137060000D02*
X222103733Y-137060000D01*
X222446267Y-138080000D02*
X222103733Y-138080000D01*
X227050000Y-131886267D02*
X227050000Y-131543733D01*
X226030000Y-131886267D02*
X226030000Y-131543733D01*
X218516267Y-127150000D02*
X218173733Y-127150000D01*
X218516267Y-126130000D02*
X218173733Y-126130000D01*
X214296267Y-126120000D02*
X213953733Y-126120000D01*
X214296267Y-127140000D02*
X213953733Y-127140000D01*
X231378733Y-141850000D02*
X231721267Y-141850000D01*
X231378733Y-140830000D02*
X231721267Y-140830000D01*
X198430000Y-128158922D02*
X198430000Y-128676078D01*
X199850000Y-128158922D02*
X199850000Y-128676078D01*
X235570000Y-137213922D02*
X235570000Y-137731078D01*
X234150000Y-137213922D02*
X234150000Y-137731078D01*
X234370000Y-133946267D02*
X234370000Y-133603733D01*
X235390000Y-133946267D02*
X235390000Y-133603733D01*
X204766078Y-123160000D02*
X204248922Y-123160000D01*
X204766078Y-121740000D02*
X204248922Y-121740000D01*
X204731078Y-107050000D02*
X204213922Y-107050000D01*
X204731078Y-108470000D02*
X204213922Y-108470000D01*
X230986000Y-101847733D02*
X230986000Y-102190267D01*
X232006000Y-101847733D02*
X232006000Y-102190267D01*
X232006000Y-97727733D02*
X232006000Y-98070267D01*
X230986000Y-97727733D02*
X230986000Y-98070267D01*
X239516000Y-102180267D02*
X239516000Y-101837733D01*
X238496000Y-102180267D02*
X238496000Y-101837733D01*
X238486000Y-98550267D02*
X238486000Y-98207733D01*
X239506000Y-98550267D02*
X239506000Y-98207733D01*
X219010000Y-89130000D02*
X220340000Y-89130000D01*
X219010000Y-90460000D02*
X219010000Y-89130000D01*
X219010000Y-91730000D02*
X221670000Y-91730000D01*
X221670000Y-91730000D02*
X221670000Y-94330000D01*
X219010000Y-91730000D02*
X219010000Y-94330000D01*
X219010000Y-94330000D02*
X221670000Y-94330000D01*
X217950000Y-105347221D02*
X217950000Y-105672779D01*
X218970000Y-105347221D02*
X218970000Y-105672779D01*
X224870000Y-105347221D02*
X224870000Y-105672779D01*
X223850000Y-105347221D02*
X223850000Y-105672779D01*
X206400000Y-123820000D02*
X208800000Y-123820000D01*
X208800000Y-123820000D02*
X208800000Y-126220000D01*
X208800000Y-126220000D02*
X206400000Y-126220000D01*
X206400000Y-126220000D02*
X206400000Y-123820000D01*
X237690000Y-135140000D02*
X237690000Y-132740000D01*
X240090000Y-135140000D02*
X237690000Y-135140000D01*
X240090000Y-132740000D02*
X240090000Y-135140000D01*
X237690000Y-132740000D02*
X240090000Y-132740000D01*
X237580000Y-141160000D02*
X239980000Y-141160000D01*
X239980000Y-141160000D02*
X239980000Y-143560000D01*
X239980000Y-143560000D02*
X237580000Y-143560000D01*
X237580000Y-143560000D02*
X237580000Y-141160000D01*
X208420000Y-131410000D02*
X209350000Y-131410000D01*
X211580000Y-131410000D02*
X210650000Y-131410000D01*
X211580000Y-131410000D02*
X211580000Y-129250000D01*
X208420000Y-131410000D02*
X208420000Y-129950000D01*
X239630000Y-115985000D02*
X239630000Y-114035000D01*
X239630000Y-115985000D02*
X239630000Y-117935000D01*
X229510000Y-115985000D02*
X229510000Y-114035000D01*
X229510000Y-115985000D02*
X229510000Y-119435000D01*
X229510000Y-127385000D02*
X229510000Y-130835000D01*
X229510000Y-127385000D02*
X229510000Y-125435000D01*
X239630000Y-127385000D02*
X239630000Y-129335000D01*
X239630000Y-127385000D02*
X239630000Y-125435000D01*
X237791000Y-99959000D02*
X237791000Y-98009000D01*
X237791000Y-99959000D02*
X237791000Y-101909000D01*
X232671000Y-99959000D02*
X232671000Y-98009000D01*
X232671000Y-99959000D02*
X232671000Y-103409000D01*
X208170000Y-113975000D02*
X208170000Y-117275000D01*
X208170000Y-117275000D02*
X212170000Y-117275000D01*
D12*
X215518571Y-141473333D02*
X215518571Y-141806666D01*
X216042380Y-141806666D02*
X215042380Y-141806666D01*
X215042380Y-141330476D01*
X215137619Y-140997142D02*
X215090000Y-140949523D01*
X215042380Y-140854285D01*
X215042380Y-140616190D01*
X215090000Y-140520952D01*
X215137619Y-140473333D01*
X215232857Y-140425714D01*
X215328095Y-140425714D01*
X215470952Y-140473333D01*
X216042380Y-141044761D01*
X216042380Y-140425714D01*
X225718095Y-108352380D02*
X225718095Y-109161904D01*
X225765714Y-109257142D01*
X225813333Y-109304761D01*
X225908571Y-109352380D01*
X226099047Y-109352380D01*
X226194285Y-109304761D01*
X226241904Y-109257142D01*
X226289523Y-109161904D01*
X226289523Y-108352380D01*
X227289523Y-109352380D02*
X226718095Y-109352380D01*
X227003809Y-109352380D02*
X227003809Y-108352380D01*
X226908571Y-108495238D01*
X226813333Y-108590476D01*
X226718095Y-108638095D01*
X212110833Y-106402380D02*
X211777500Y-105926190D01*
X211539404Y-106402380D02*
X211539404Y-105402380D01*
X211920357Y-105402380D01*
X212015595Y-105450000D01*
X212063214Y-105497619D01*
X212110833Y-105592857D01*
X212110833Y-105735714D01*
X212063214Y-105830952D01*
X212015595Y-105878571D01*
X211920357Y-105926190D01*
X211539404Y-105926190D01*
X213015595Y-105402380D02*
X212539404Y-105402380D01*
X212491785Y-105878571D01*
X212539404Y-105830952D01*
X212634642Y-105783333D01*
X212872738Y-105783333D01*
X212967976Y-105830952D01*
X213015595Y-105878571D01*
X213063214Y-105973809D01*
X213063214Y-106211904D01*
X213015595Y-106307142D01*
X212967976Y-106354761D01*
X212872738Y-106402380D01*
X212634642Y-106402380D01*
X212539404Y-106354761D01*
X212491785Y-106307142D01*
X226460833Y-121612380D02*
X226127500Y-121136190D01*
X225889404Y-121612380D02*
X225889404Y-120612380D01*
X226270357Y-120612380D01*
X226365595Y-120660000D01*
X226413214Y-120707619D01*
X226460833Y-120802857D01*
X226460833Y-120945714D01*
X226413214Y-121040952D01*
X226365595Y-121088571D01*
X226270357Y-121136190D01*
X225889404Y-121136190D01*
X227032261Y-121040952D02*
X226937023Y-120993333D01*
X226889404Y-120945714D01*
X226841785Y-120850476D01*
X226841785Y-120802857D01*
X226889404Y-120707619D01*
X226937023Y-120660000D01*
X227032261Y-120612380D01*
X227222738Y-120612380D01*
X227317976Y-120660000D01*
X227365595Y-120707619D01*
X227413214Y-120802857D01*
X227413214Y-120850476D01*
X227365595Y-120945714D01*
X227317976Y-120993333D01*
X227222738Y-121040952D01*
X227032261Y-121040952D01*
X226937023Y-121088571D01*
X226889404Y-121136190D01*
X226841785Y-121231428D01*
X226841785Y-121421904D01*
X226889404Y-121517142D01*
X226937023Y-121564761D01*
X227032261Y-121612380D01*
X227222738Y-121612380D01*
X227317976Y-121564761D01*
X227365595Y-121517142D01*
X227413214Y-121421904D01*
X227413214Y-121231428D01*
X227365595Y-121136190D01*
X227317976Y-121088571D01*
X227222738Y-121040952D01*
X221489046Y-105876666D02*
X221012856Y-106210000D01*
X221489046Y-106448095D02*
X220489046Y-106448095D01*
X220489046Y-106067142D01*
X220536666Y-105971904D01*
X220584285Y-105924285D01*
X220679523Y-105876666D01*
X220822380Y-105876666D01*
X220917618Y-105924285D01*
X220965237Y-105971904D01*
X221012856Y-106067142D01*
X221012856Y-106448095D01*
X220822380Y-105019523D02*
X221489046Y-105019523D01*
X220441427Y-105257619D02*
X221155713Y-105495714D01*
X221155713Y-104876666D01*
X219375713Y-105876666D02*
X218899523Y-106210000D01*
X219375713Y-106448095D02*
X218375713Y-106448095D01*
X218375713Y-106067142D01*
X218423333Y-105971904D01*
X218470952Y-105924285D01*
X218566190Y-105876666D01*
X218709047Y-105876666D01*
X218804285Y-105924285D01*
X218851904Y-105971904D01*
X218899523Y-106067142D01*
X218899523Y-106448095D01*
X218375713Y-105543333D02*
X218375713Y-104924285D01*
X218756666Y-105257619D01*
X218756666Y-105114761D01*
X218804285Y-105019523D01*
X218851904Y-104971904D01*
X218947142Y-104924285D01*
X219185237Y-104924285D01*
X219280475Y-104971904D01*
X219328094Y-105019523D01*
X219375713Y-105114761D01*
X219375713Y-105400476D01*
X219328094Y-105495714D01*
X219280475Y-105543333D01*
X205907142Y-131977142D02*
X205859523Y-132024761D01*
X205716666Y-132072380D01*
X205621428Y-132072380D01*
X205478571Y-132024761D01*
X205383333Y-131929523D01*
X205335714Y-131834285D01*
X205288095Y-131643809D01*
X205288095Y-131500952D01*
X205335714Y-131310476D01*
X205383333Y-131215238D01*
X205478571Y-131120000D01*
X205621428Y-131072380D01*
X205716666Y-131072380D01*
X205859523Y-131120000D01*
X205907142Y-131167619D01*
X206859523Y-132072380D02*
X206288095Y-132072380D01*
X206573809Y-132072380D02*
X206573809Y-131072380D01*
X206478571Y-131215238D01*
X206383333Y-131310476D01*
X206288095Y-131358095D01*
X207240476Y-131167619D02*
X207288095Y-131120000D01*
X207383333Y-131072380D01*
X207621428Y-131072380D01*
X207716666Y-131120000D01*
X207764285Y-131167619D01*
X207811904Y-131262857D01*
X207811904Y-131358095D01*
X207764285Y-131500952D01*
X207192857Y-132072380D01*
X207811904Y-132072380D01*
X208439642Y-135317142D02*
X208392023Y-135364761D01*
X208249166Y-135412380D01*
X208153928Y-135412380D01*
X208011071Y-135364761D01*
X207915833Y-135269523D01*
X207868214Y-135174285D01*
X207820595Y-134983809D01*
X207820595Y-134840952D01*
X207868214Y-134650476D01*
X207915833Y-134555238D01*
X208011071Y-134460000D01*
X208153928Y-134412380D01*
X208249166Y-134412380D01*
X208392023Y-134460000D01*
X208439642Y-134507619D01*
X209392023Y-135412380D02*
X208820595Y-135412380D01*
X209106309Y-135412380D02*
X209106309Y-134412380D01*
X209011071Y-134555238D01*
X208915833Y-134650476D01*
X208820595Y-134698095D01*
X210344404Y-135412380D02*
X209772976Y-135412380D01*
X210058690Y-135412380D02*
X210058690Y-134412380D01*
X209963452Y-134555238D01*
X209868214Y-134650476D01*
X209772976Y-134698095D01*
X213453333Y-137227142D02*
X213405714Y-137274761D01*
X213262857Y-137322380D01*
X213167619Y-137322380D01*
X213024761Y-137274761D01*
X212929523Y-137179523D01*
X212881904Y-137084285D01*
X212834285Y-136893809D01*
X212834285Y-136750952D01*
X212881904Y-136560476D01*
X212929523Y-136465238D01*
X213024761Y-136370000D01*
X213167619Y-136322380D01*
X213262857Y-136322380D01*
X213405714Y-136370000D01*
X213453333Y-136417619D01*
X214358095Y-136322380D02*
X213881904Y-136322380D01*
X213834285Y-136798571D01*
X213881904Y-136750952D01*
X213977142Y-136703333D01*
X214215238Y-136703333D01*
X214310476Y-136750952D01*
X214358095Y-136798571D01*
X214405714Y-136893809D01*
X214405714Y-137131904D01*
X214358095Y-137227142D01*
X214310476Y-137274761D01*
X214215238Y-137322380D01*
X213977142Y-137322380D01*
X213881904Y-137274761D01*
X213834285Y-137227142D01*
X207123333Y-102127142D02*
X207075714Y-102174761D01*
X206932857Y-102222380D01*
X206837619Y-102222380D01*
X206694761Y-102174761D01*
X206599523Y-102079523D01*
X206551904Y-101984285D01*
X206504285Y-101793809D01*
X206504285Y-101650952D01*
X206551904Y-101460476D01*
X206599523Y-101365238D01*
X206694761Y-101270000D01*
X206837619Y-101222380D01*
X206932857Y-101222380D01*
X207075714Y-101270000D01*
X207123333Y-101317619D01*
X207980476Y-101555714D02*
X207980476Y-102222380D01*
X207742380Y-101174761D02*
X207504285Y-101889047D01*
X208123333Y-101889047D01*
X206252380Y-111203333D02*
X206966666Y-111203333D01*
X207109523Y-111250952D01*
X207204761Y-111346190D01*
X207252380Y-111489047D01*
X207252380Y-111584285D01*
X207252380Y-110727142D02*
X206252380Y-110727142D01*
X206252380Y-110346190D01*
X206300000Y-110250952D01*
X206347619Y-110203333D01*
X206442857Y-110155714D01*
X206585714Y-110155714D01*
X206680952Y-110203333D01*
X206728571Y-110250952D01*
X206776190Y-110346190D01*
X206776190Y-110727142D01*
X206585714Y-109298571D02*
X207252380Y-109298571D01*
X206204761Y-109536666D02*
X206919047Y-109774761D01*
X206919047Y-109155714D01*
X206292380Y-120923333D02*
X207006666Y-120923333D01*
X207149523Y-120970952D01*
X207244761Y-121066190D01*
X207292380Y-121209047D01*
X207292380Y-121304285D01*
X207292380Y-120447142D02*
X206292380Y-120447142D01*
X206292380Y-120066190D01*
X206340000Y-119970952D01*
X206387619Y-119923333D01*
X206482857Y-119875714D01*
X206625714Y-119875714D01*
X206720952Y-119923333D01*
X206768571Y-119970952D01*
X206816190Y-120066190D01*
X206816190Y-120447142D01*
X206292380Y-119542380D02*
X206292380Y-118923333D01*
X206673333Y-119256666D01*
X206673333Y-119113809D01*
X206720952Y-119018571D01*
X206768571Y-118970952D01*
X206863809Y-118923333D01*
X207101904Y-118923333D01*
X207197142Y-118970952D01*
X207244761Y-119018571D01*
X207292380Y-119113809D01*
X207292380Y-119399523D01*
X207244761Y-119494761D01*
X207197142Y-119542380D01*
X239392380Y-138993333D02*
X240106666Y-138993333D01*
X240249523Y-139040952D01*
X240344761Y-139136190D01*
X240392380Y-139279047D01*
X240392380Y-139374285D01*
X240392380Y-138517142D02*
X239392380Y-138517142D01*
X239392380Y-138136190D01*
X239440000Y-138040952D01*
X239487619Y-137993333D01*
X239582857Y-137945714D01*
X239725714Y-137945714D01*
X239820952Y-137993333D01*
X239868571Y-138040952D01*
X239916190Y-138136190D01*
X239916190Y-138517142D01*
X239487619Y-137564761D02*
X239440000Y-137517142D01*
X239392380Y-137421904D01*
X239392380Y-137183809D01*
X239440000Y-137088571D01*
X239487619Y-137040952D01*
X239582857Y-136993333D01*
X239678095Y-136993333D01*
X239820952Y-137040952D01*
X240392380Y-137612380D01*
X240392380Y-136993333D01*
X200652380Y-132003333D02*
X201366666Y-132003333D01*
X201509523Y-132050952D01*
X201604761Y-132146190D01*
X201652380Y-132289047D01*
X201652380Y-132384285D01*
X201652380Y-131527142D02*
X200652380Y-131527142D01*
X200652380Y-131146190D01*
X200700000Y-131050952D01*
X200747619Y-131003333D01*
X200842857Y-130955714D01*
X200985714Y-130955714D01*
X201080952Y-131003333D01*
X201128571Y-131050952D01*
X201176190Y-131146190D01*
X201176190Y-131527142D01*
X201652380Y-130003333D02*
X201652380Y-130574761D01*
X201652380Y-130289047D02*
X200652380Y-130289047D01*
X200795238Y-130384285D01*
X200890476Y-130479523D01*
X200938095Y-130574761D01*
X245732380Y-101733333D02*
X246446666Y-101733333D01*
X246589523Y-101780952D01*
X246684761Y-101876190D01*
X246732380Y-102019047D01*
X246732380Y-102114285D01*
X246732380Y-101209523D02*
X246732380Y-101019047D01*
X246684761Y-100923809D01*
X246637142Y-100876190D01*
X246494285Y-100780952D01*
X246303809Y-100733333D01*
X245922857Y-100733333D01*
X245827619Y-100780952D01*
X245780000Y-100828571D01*
X245732380Y-100923809D01*
X245732380Y-101114285D01*
X245780000Y-101209523D01*
X245827619Y-101257142D01*
X245922857Y-101304761D01*
X246160952Y-101304761D01*
X246256190Y-101257142D01*
X246303809Y-101209523D01*
X246351428Y-101114285D01*
X246351428Y-100923809D01*
X246303809Y-100828571D01*
X246256190Y-100780952D01*
X246160952Y-100733333D01*
X246906666Y-129892380D02*
X246906666Y-130606666D01*
X246859047Y-130749523D01*
X246763809Y-130844761D01*
X246620952Y-130892380D01*
X246525714Y-130892380D01*
X247525714Y-130320952D02*
X247430476Y-130273333D01*
X247382857Y-130225714D01*
X247335238Y-130130476D01*
X247335238Y-130082857D01*
X247382857Y-129987619D01*
X247430476Y-129940000D01*
X247525714Y-129892380D01*
X247716190Y-129892380D01*
X247811428Y-129940000D01*
X247859047Y-129987619D01*
X247906666Y-130082857D01*
X247906666Y-130130476D01*
X247859047Y-130225714D01*
X247811428Y-130273333D01*
X247716190Y-130320952D01*
X247525714Y-130320952D01*
X247430476Y-130368571D01*
X247382857Y-130416190D01*
X247335238Y-130511428D01*
X247335238Y-130701904D01*
X247382857Y-130797142D01*
X247430476Y-130844761D01*
X247525714Y-130892380D01*
X247716190Y-130892380D01*
X247811428Y-130844761D01*
X247859047Y-130797142D01*
X247906666Y-130701904D01*
X247906666Y-130511428D01*
X247859047Y-130416190D01*
X247811428Y-130368571D01*
X247716190Y-130320952D01*
X229027142Y-107904166D02*
X229074761Y-107951785D01*
X229122380Y-108094642D01*
X229122380Y-108189880D01*
X229074761Y-108332738D01*
X228979523Y-108427976D01*
X228884285Y-108475595D01*
X228693809Y-108523214D01*
X228550952Y-108523214D01*
X228360476Y-108475595D01*
X228265238Y-108427976D01*
X228170000Y-108332738D01*
X228122380Y-108189880D01*
X228122380Y-108094642D01*
X228170000Y-107951785D01*
X228217619Y-107904166D01*
X229122380Y-106951785D02*
X229122380Y-107523214D01*
X229122380Y-107237500D02*
X228122380Y-107237500D01*
X228265238Y-107332738D01*
X228360476Y-107427976D01*
X228408095Y-107523214D01*
X212743333Y-118947142D02*
X212695714Y-118994761D01*
X212552857Y-119042380D01*
X212457619Y-119042380D01*
X212314761Y-118994761D01*
X212219523Y-118899523D01*
X212171904Y-118804285D01*
X212124285Y-118613809D01*
X212124285Y-118470952D01*
X212171904Y-118280476D01*
X212219523Y-118185238D01*
X212314761Y-118090000D01*
X212457619Y-118042380D01*
X212552857Y-118042380D01*
X212695714Y-118090000D01*
X212743333Y-118137619D01*
X213124285Y-118137619D02*
X213171904Y-118090000D01*
X213267142Y-118042380D01*
X213505238Y-118042380D01*
X213600476Y-118090000D01*
X213648095Y-118137619D01*
X213695714Y-118232857D01*
X213695714Y-118328095D01*
X213648095Y-118470952D01*
X213076666Y-119042380D01*
X213695714Y-119042380D01*
X207275833Y-113027142D02*
X207228214Y-113074761D01*
X207085357Y-113122380D01*
X206990119Y-113122380D01*
X206847261Y-113074761D01*
X206752023Y-112979523D01*
X206704404Y-112884285D01*
X206656785Y-112693809D01*
X206656785Y-112550952D01*
X206704404Y-112360476D01*
X206752023Y-112265238D01*
X206847261Y-112170000D01*
X206990119Y-112122380D01*
X207085357Y-112122380D01*
X207228214Y-112170000D01*
X207275833Y-112217619D01*
X207609166Y-112122380D02*
X208228214Y-112122380D01*
X207894880Y-112503333D01*
X208037738Y-112503333D01*
X208132976Y-112550952D01*
X208180595Y-112598571D01*
X208228214Y-112693809D01*
X208228214Y-112931904D01*
X208180595Y-113027142D01*
X208132976Y-113074761D01*
X208037738Y-113122380D01*
X207752023Y-113122380D01*
X207656785Y-113074761D01*
X207609166Y-113027142D01*
X209418333Y-104357142D02*
X209370714Y-104404761D01*
X209227857Y-104452380D01*
X209132619Y-104452380D01*
X208989761Y-104404761D01*
X208894523Y-104309523D01*
X208846904Y-104214285D01*
X208799285Y-104023809D01*
X208799285Y-103880952D01*
X208846904Y-103690476D01*
X208894523Y-103595238D01*
X208989761Y-103500000D01*
X209132619Y-103452380D01*
X209227857Y-103452380D01*
X209370714Y-103500000D01*
X209418333Y-103547619D01*
X210275476Y-103452380D02*
X210085000Y-103452380D01*
X209989761Y-103500000D01*
X209942142Y-103547619D01*
X209846904Y-103690476D01*
X209799285Y-103880952D01*
X209799285Y-104261904D01*
X209846904Y-104357142D01*
X209894523Y-104404761D01*
X209989761Y-104452380D01*
X210180238Y-104452380D01*
X210275476Y-104404761D01*
X210323095Y-104357142D01*
X210370714Y-104261904D01*
X210370714Y-104023809D01*
X210323095Y-103928571D01*
X210275476Y-103880952D01*
X210180238Y-103833333D01*
X209989761Y-103833333D01*
X209894523Y-103880952D01*
X209846904Y-103928571D01*
X209799285Y-104023809D01*
X220407333Y-134863142D02*
X220359714Y-134910761D01*
X220216857Y-134958380D01*
X220121619Y-134958380D01*
X219978761Y-134910761D01*
X219883523Y-134815523D01*
X219835904Y-134720285D01*
X219788285Y-134529809D01*
X219788285Y-134386952D01*
X219835904Y-134196476D01*
X219883523Y-134101238D01*
X219978761Y-134006000D01*
X220121619Y-133958380D01*
X220216857Y-133958380D01*
X220359714Y-134006000D01*
X220407333Y-134053619D01*
X220740666Y-133958380D02*
X221407333Y-133958380D01*
X220978761Y-134958380D01*
X227463333Y-104269642D02*
X227415714Y-104317261D01*
X227272857Y-104364880D01*
X227177619Y-104364880D01*
X227034761Y-104317261D01*
X226939523Y-104222023D01*
X226891904Y-104126785D01*
X226844285Y-103936309D01*
X226844285Y-103793452D01*
X226891904Y-103602976D01*
X226939523Y-103507738D01*
X227034761Y-103412500D01*
X227177619Y-103364880D01*
X227272857Y-103364880D01*
X227415714Y-103412500D01*
X227463333Y-103460119D01*
X228034761Y-103793452D02*
X227939523Y-103745833D01*
X227891904Y-103698214D01*
X227844285Y-103602976D01*
X227844285Y-103555357D01*
X227891904Y-103460119D01*
X227939523Y-103412500D01*
X228034761Y-103364880D01*
X228225238Y-103364880D01*
X228320476Y-103412500D01*
X228368095Y-103460119D01*
X228415714Y-103555357D01*
X228415714Y-103602976D01*
X228368095Y-103698214D01*
X228320476Y-103745833D01*
X228225238Y-103793452D01*
X228034761Y-103793452D01*
X227939523Y-103841071D01*
X227891904Y-103888690D01*
X227844285Y-103983928D01*
X227844285Y-104174404D01*
X227891904Y-104269642D01*
X227939523Y-104317261D01*
X228034761Y-104364880D01*
X228225238Y-104364880D01*
X228320476Y-104317261D01*
X228368095Y-104269642D01*
X228415714Y-104174404D01*
X228415714Y-103983928D01*
X228368095Y-103888690D01*
X228320476Y-103841071D01*
X228225238Y-103793452D01*
X219593333Y-123617142D02*
X219545714Y-123664761D01*
X219402857Y-123712380D01*
X219307619Y-123712380D01*
X219164761Y-123664761D01*
X219069523Y-123569523D01*
X219021904Y-123474285D01*
X218974285Y-123283809D01*
X218974285Y-123140952D01*
X219021904Y-122950476D01*
X219069523Y-122855238D01*
X219164761Y-122760000D01*
X219307619Y-122712380D01*
X219402857Y-122712380D01*
X219545714Y-122760000D01*
X219593333Y-122807619D01*
X220069523Y-123712380D02*
X220260000Y-123712380D01*
X220355238Y-123664761D01*
X220402857Y-123617142D01*
X220498095Y-123474285D01*
X220545714Y-123283809D01*
X220545714Y-122902857D01*
X220498095Y-122807619D01*
X220450476Y-122760000D01*
X220355238Y-122712380D01*
X220164761Y-122712380D01*
X220069523Y-122760000D01*
X220021904Y-122807619D01*
X219974285Y-122902857D01*
X219974285Y-123140952D01*
X220021904Y-123236190D01*
X220069523Y-123283809D01*
X220164761Y-123331428D01*
X220355238Y-123331428D01*
X220450476Y-123283809D01*
X220498095Y-123236190D01*
X220545714Y-123140952D01*
X226777142Y-135067142D02*
X226729523Y-135114761D01*
X226586666Y-135162380D01*
X226491428Y-135162380D01*
X226348571Y-135114761D01*
X226253333Y-135019523D01*
X226205714Y-134924285D01*
X226158095Y-134733809D01*
X226158095Y-134590952D01*
X226205714Y-134400476D01*
X226253333Y-134305238D01*
X226348571Y-134210000D01*
X226491428Y-134162380D01*
X226586666Y-134162380D01*
X226729523Y-134210000D01*
X226777142Y-134257619D01*
X227729523Y-135162380D02*
X227158095Y-135162380D01*
X227443809Y-135162380D02*
X227443809Y-134162380D01*
X227348571Y-134305238D01*
X227253333Y-134400476D01*
X227158095Y-134448095D01*
X228348571Y-134162380D02*
X228443809Y-134162380D01*
X228539047Y-134210000D01*
X228586666Y-134257619D01*
X228634285Y-134352857D01*
X228681904Y-134543333D01*
X228681904Y-134781428D01*
X228634285Y-134971904D01*
X228586666Y-135067142D01*
X228539047Y-135114761D01*
X228443809Y-135162380D01*
X228348571Y-135162380D01*
X228253333Y-135114761D01*
X228205714Y-135067142D01*
X228158095Y-134971904D01*
X228110476Y-134781428D01*
X228110476Y-134543333D01*
X228158095Y-134352857D01*
X228205714Y-134257619D01*
X228253333Y-134210000D01*
X228348571Y-134162380D01*
X209957142Y-126217142D02*
X209909523Y-126264761D01*
X209766666Y-126312380D01*
X209671428Y-126312380D01*
X209528571Y-126264761D01*
X209433333Y-126169523D01*
X209385714Y-126074285D01*
X209338095Y-125883809D01*
X209338095Y-125740952D01*
X209385714Y-125550476D01*
X209433333Y-125455238D01*
X209528571Y-125360000D01*
X209671428Y-125312380D01*
X209766666Y-125312380D01*
X209909523Y-125360000D01*
X209957142Y-125407619D01*
X210909523Y-126312380D02*
X210338095Y-126312380D01*
X210623809Y-126312380D02*
X210623809Y-125312380D01*
X210528571Y-125455238D01*
X210433333Y-125550476D01*
X210338095Y-125598095D01*
X211242857Y-125312380D02*
X211861904Y-125312380D01*
X211528571Y-125693333D01*
X211671428Y-125693333D01*
X211766666Y-125740952D01*
X211814285Y-125788571D01*
X211861904Y-125883809D01*
X211861904Y-126121904D01*
X211814285Y-126217142D01*
X211766666Y-126264761D01*
X211671428Y-126312380D01*
X211385714Y-126312380D01*
X211290476Y-126264761D01*
X211242857Y-126217142D01*
X239639642Y-109877142D02*
X239592023Y-109924761D01*
X239449166Y-109972380D01*
X239353928Y-109972380D01*
X239211071Y-109924761D01*
X239115833Y-109829523D01*
X239068214Y-109734285D01*
X239020595Y-109543809D01*
X239020595Y-109400952D01*
X239068214Y-109210476D01*
X239115833Y-109115238D01*
X239211071Y-109020000D01*
X239353928Y-108972380D01*
X239449166Y-108972380D01*
X239592023Y-109020000D01*
X239639642Y-109067619D01*
X240592023Y-109972380D02*
X240020595Y-109972380D01*
X240306309Y-109972380D02*
X240306309Y-108972380D01*
X240211071Y-109115238D01*
X240115833Y-109210476D01*
X240020595Y-109258095D01*
X241449166Y-109305714D02*
X241449166Y-109972380D01*
X241211071Y-108924761D02*
X240972976Y-109639047D01*
X241592023Y-109639047D01*
X239639642Y-121257142D02*
X239592023Y-121304761D01*
X239449166Y-121352380D01*
X239353928Y-121352380D01*
X239211071Y-121304761D01*
X239115833Y-121209523D01*
X239068214Y-121114285D01*
X239020595Y-120923809D01*
X239020595Y-120780952D01*
X239068214Y-120590476D01*
X239115833Y-120495238D01*
X239211071Y-120400000D01*
X239353928Y-120352380D01*
X239449166Y-120352380D01*
X239592023Y-120400000D01*
X239639642Y-120447619D01*
X240592023Y-121352380D02*
X240020595Y-121352380D01*
X240306309Y-121352380D02*
X240306309Y-120352380D01*
X240211071Y-120495238D01*
X240115833Y-120590476D01*
X240020595Y-120638095D01*
X241496785Y-120352380D02*
X241020595Y-120352380D01*
X240972976Y-120828571D01*
X241020595Y-120780952D01*
X241115833Y-120733333D01*
X241353928Y-120733333D01*
X241449166Y-120780952D01*
X241496785Y-120828571D01*
X241544404Y-120923809D01*
X241544404Y-121161904D01*
X241496785Y-121257142D01*
X241449166Y-121304761D01*
X241353928Y-121352380D01*
X241115833Y-121352380D01*
X241020595Y-121304761D01*
X240972976Y-121257142D01*
X207799404Y-110432380D02*
X207799404Y-109432380D01*
X208037500Y-109432380D01*
X208180357Y-109480000D01*
X208275595Y-109575238D01*
X208323214Y-109670476D01*
X208370833Y-109860952D01*
X208370833Y-110003809D01*
X208323214Y-110194285D01*
X208275595Y-110289523D01*
X208180357Y-110384761D01*
X208037500Y-110432380D01*
X207799404Y-110432380D01*
X209323214Y-110432380D02*
X208751785Y-110432380D01*
X209037500Y-110432380D02*
X209037500Y-109432380D01*
X208942261Y-109575238D01*
X208847023Y-109670476D01*
X208751785Y-109718095D01*
X201322380Y-137078095D02*
X200322380Y-137078095D01*
X200322380Y-136840000D01*
X200370000Y-136697142D01*
X200465238Y-136601904D01*
X200560476Y-136554285D01*
X200750952Y-136506666D01*
X200893809Y-136506666D01*
X201084285Y-136554285D01*
X201179523Y-136601904D01*
X201274761Y-136697142D01*
X201322380Y-136840000D01*
X201322380Y-137078095D01*
X200417619Y-136125714D02*
X200370000Y-136078095D01*
X200322380Y-135982857D01*
X200322380Y-135744761D01*
X200370000Y-135649523D01*
X200417619Y-135601904D01*
X200512857Y-135554285D01*
X200608095Y-135554285D01*
X200750952Y-135601904D01*
X201322380Y-136173333D01*
X201322380Y-135554285D01*
X234762380Y-142098095D02*
X233762380Y-142098095D01*
X233762380Y-141860000D01*
X233810000Y-141717142D01*
X233905238Y-141621904D01*
X234000476Y-141574285D01*
X234190952Y-141526666D01*
X234333809Y-141526666D01*
X234524285Y-141574285D01*
X234619523Y-141621904D01*
X234714761Y-141717142D01*
X234762380Y-141860000D01*
X234762380Y-142098095D01*
X233762380Y-141193333D02*
X233762380Y-140574285D01*
X234143333Y-140907619D01*
X234143333Y-140764761D01*
X234190952Y-140669523D01*
X234238571Y-140621904D01*
X234333809Y-140574285D01*
X234571904Y-140574285D01*
X234667142Y-140621904D01*
X234714761Y-140669523D01*
X234762380Y-140764761D01*
X234762380Y-141050476D01*
X234714761Y-141145714D01*
X234667142Y-141193333D01*
X207382380Y-117898095D02*
X206382380Y-117898095D01*
X206382380Y-117660000D01*
X206430000Y-117517142D01*
X206525238Y-117421904D01*
X206620476Y-117374285D01*
X206810952Y-117326666D01*
X206953809Y-117326666D01*
X207144285Y-117374285D01*
X207239523Y-117421904D01*
X207334761Y-117517142D01*
X207382380Y-117660000D01*
X207382380Y-117898095D01*
X206715714Y-116469523D02*
X207382380Y-116469523D01*
X206334761Y-116707619D02*
X207049047Y-116945714D01*
X207049047Y-116326666D01*
X202961904Y-115362380D02*
X202961904Y-114362380D01*
X203200000Y-114362380D01*
X203342857Y-114410000D01*
X203438095Y-114505238D01*
X203485714Y-114600476D01*
X203533333Y-114790952D01*
X203533333Y-114933809D01*
X203485714Y-115124285D01*
X203438095Y-115219523D01*
X203342857Y-115314761D01*
X203200000Y-115362380D01*
X202961904Y-115362380D01*
X204438095Y-114362380D02*
X203961904Y-114362380D01*
X203914285Y-114838571D01*
X203961904Y-114790952D01*
X204057142Y-114743333D01*
X204295238Y-114743333D01*
X204390476Y-114790952D01*
X204438095Y-114838571D01*
X204485714Y-114933809D01*
X204485714Y-115171904D01*
X204438095Y-115267142D01*
X204390476Y-115314761D01*
X204295238Y-115362380D01*
X204057142Y-115362380D01*
X203961904Y-115314761D01*
X203914285Y-115267142D01*
X203436666Y-96488571D02*
X203103333Y-96488571D01*
X203103333Y-97012380D02*
X203103333Y-96012380D01*
X203579523Y-96012380D01*
X204484285Y-97012380D02*
X203912857Y-97012380D01*
X204198571Y-97012380D02*
X204198571Y-96012380D01*
X204103333Y-96155238D01*
X204008095Y-96250476D01*
X203912857Y-96298095D01*
X259696666Y-106858571D02*
X259363333Y-106858571D01*
X259363333Y-107382380D02*
X259363333Y-106382380D01*
X259839523Y-106382380D01*
X260125238Y-106382380D02*
X260744285Y-106382380D01*
X260410952Y-106763333D01*
X260553809Y-106763333D01*
X260649047Y-106810952D01*
X260696666Y-106858571D01*
X260744285Y-106953809D01*
X260744285Y-107191904D01*
X260696666Y-107287142D01*
X260649047Y-107334761D01*
X260553809Y-107382380D01*
X260268095Y-107382380D01*
X260172857Y-107334761D01*
X260125238Y-107287142D01*
X259626666Y-115398571D02*
X259293333Y-115398571D01*
X259293333Y-115922380D02*
X259293333Y-114922380D01*
X259769523Y-114922380D01*
X260579047Y-115255714D02*
X260579047Y-115922380D01*
X260340952Y-114874761D02*
X260102857Y-115589047D01*
X260721904Y-115589047D01*
X259666666Y-124148571D02*
X259333333Y-124148571D01*
X259333333Y-124672380D02*
X259333333Y-123672380D01*
X259809523Y-123672380D01*
X260666666Y-123672380D02*
X260190476Y-123672380D01*
X260142857Y-124148571D01*
X260190476Y-124100952D01*
X260285714Y-124053333D01*
X260523809Y-124053333D01*
X260619047Y-124100952D01*
X260666666Y-124148571D01*
X260714285Y-124243809D01*
X260714285Y-124481904D01*
X260666666Y-124577142D01*
X260619047Y-124624761D01*
X260523809Y-124672380D01*
X260285714Y-124672380D01*
X260190476Y-124624761D01*
X260142857Y-124577142D01*
X202622380Y-99983333D02*
X203336666Y-99983333D01*
X203479523Y-100030952D01*
X203574761Y-100126190D01*
X203622380Y-100269047D01*
X203622380Y-100364285D01*
X203622380Y-98983333D02*
X203622380Y-99554761D01*
X203622380Y-99269047D02*
X202622380Y-99269047D01*
X202765238Y-99364285D01*
X202860476Y-99459523D01*
X202908095Y-99554761D01*
X207846666Y-137282380D02*
X207846666Y-137996666D01*
X207799047Y-138139523D01*
X207703809Y-138234761D01*
X207560952Y-138282380D01*
X207465714Y-138282380D01*
X208275238Y-137377619D02*
X208322857Y-137330000D01*
X208418095Y-137282380D01*
X208656190Y-137282380D01*
X208751428Y-137330000D01*
X208799047Y-137377619D01*
X208846666Y-137472857D01*
X208846666Y-137568095D01*
X208799047Y-137710952D01*
X208227619Y-138282380D01*
X208846666Y-138282380D01*
X242856666Y-97162380D02*
X242856666Y-97876666D01*
X242809047Y-98019523D01*
X242713809Y-98114761D01*
X242570952Y-98162380D01*
X242475714Y-98162380D01*
X243237619Y-97162380D02*
X243856666Y-97162380D01*
X243523333Y-97543333D01*
X243666190Y-97543333D01*
X243761428Y-97590952D01*
X243809047Y-97638571D01*
X243856666Y-97733809D01*
X243856666Y-97971904D01*
X243809047Y-98067142D01*
X243761428Y-98114761D01*
X243666190Y-98162380D01*
X243380476Y-98162380D01*
X243285238Y-98114761D01*
X243237619Y-98067142D01*
X219099666Y-95552380D02*
X219099666Y-96266666D01*
X219052047Y-96409523D01*
X218956809Y-96504761D01*
X218813952Y-96552380D01*
X218718714Y-96552380D01*
X220004428Y-95885714D02*
X220004428Y-96552380D01*
X219766333Y-95504761D02*
X219528238Y-96219047D01*
X220147285Y-96219047D01*
X213936666Y-102782380D02*
X213936666Y-103496666D01*
X213889047Y-103639523D01*
X213793809Y-103734761D01*
X213650952Y-103782380D01*
X213555714Y-103782380D01*
X214889047Y-102782380D02*
X214412857Y-102782380D01*
X214365238Y-103258571D01*
X214412857Y-103210952D01*
X214508095Y-103163333D01*
X214746190Y-103163333D01*
X214841428Y-103210952D01*
X214889047Y-103258571D01*
X214936666Y-103353809D01*
X214936666Y-103591904D01*
X214889047Y-103687142D01*
X214841428Y-103734761D01*
X214746190Y-103782380D01*
X214508095Y-103782380D01*
X214412857Y-103734761D01*
X214365238Y-103687142D01*
X222692380Y-92063333D02*
X223406666Y-92063333D01*
X223549523Y-92110952D01*
X223644761Y-92206190D01*
X223692380Y-92349047D01*
X223692380Y-92444285D01*
X222692380Y-91158571D02*
X222692380Y-91349047D01*
X222740000Y-91444285D01*
X222787619Y-91491904D01*
X222930476Y-91587142D01*
X223120952Y-91634761D01*
X223501904Y-91634761D01*
X223597142Y-91587142D01*
X223644761Y-91539523D01*
X223692380Y-91444285D01*
X223692380Y-91253809D01*
X223644761Y-91158571D01*
X223597142Y-91110952D01*
X223501904Y-91063333D01*
X223263809Y-91063333D01*
X223168571Y-91110952D01*
X223120952Y-91158571D01*
X223073333Y-91253809D01*
X223073333Y-91444285D01*
X223120952Y-91539523D01*
X223168571Y-91587142D01*
X223263809Y-91634761D01*
X255166666Y-129917381D02*
X255166666Y-130631667D01*
X255119047Y-130774524D01*
X255023809Y-130869762D01*
X254880952Y-130917381D01*
X254785714Y-130917381D01*
X255547619Y-129917381D02*
X256214285Y-129917381D01*
X255785714Y-130917381D01*
X243320476Y-104112380D02*
X243320476Y-104826666D01*
X243272857Y-104969523D01*
X243177619Y-105064761D01*
X243034761Y-105112380D01*
X242939523Y-105112380D01*
X244320476Y-105112380D02*
X243749047Y-105112380D01*
X244034761Y-105112380D02*
X244034761Y-104112380D01*
X243939523Y-104255238D01*
X243844285Y-104350476D01*
X243749047Y-104398095D01*
X244939523Y-104112380D02*
X245034761Y-104112380D01*
X245130000Y-104160000D01*
X245177619Y-104207619D01*
X245225238Y-104302857D01*
X245272857Y-104493333D01*
X245272857Y-104731428D01*
X245225238Y-104921904D01*
X245177619Y-105017142D01*
X245130000Y-105064761D01*
X245034761Y-105112380D01*
X244939523Y-105112380D01*
X244844285Y-105064761D01*
X244796666Y-105017142D01*
X244749047Y-104921904D01*
X244701428Y-104731428D01*
X244701428Y-104493333D01*
X244749047Y-104302857D01*
X244796666Y-104207619D01*
X244844285Y-104160000D01*
X244939523Y-104112380D01*
X243290476Y-112827380D02*
X243290476Y-113541666D01*
X243242857Y-113684523D01*
X243147619Y-113779761D01*
X243004761Y-113827380D01*
X242909523Y-113827380D01*
X244290476Y-113827380D02*
X243719047Y-113827380D01*
X244004761Y-113827380D02*
X244004761Y-112827380D01*
X243909523Y-112970238D01*
X243814285Y-113065476D01*
X243719047Y-113113095D01*
X245242857Y-113827380D02*
X244671428Y-113827380D01*
X244957142Y-113827380D02*
X244957142Y-112827380D01*
X244861904Y-112970238D01*
X244766666Y-113065476D01*
X244671428Y-113113095D01*
X243340476Y-121472380D02*
X243340476Y-122186666D01*
X243292857Y-122329523D01*
X243197619Y-122424761D01*
X243054761Y-122472380D01*
X242959523Y-122472380D01*
X244340476Y-122472380D02*
X243769047Y-122472380D01*
X244054761Y-122472380D02*
X244054761Y-121472380D01*
X243959523Y-121615238D01*
X243864285Y-121710476D01*
X243769047Y-121758095D01*
X244721428Y-121567619D02*
X244769047Y-121520000D01*
X244864285Y-121472380D01*
X245102380Y-121472380D01*
X245197619Y-121520000D01*
X245245238Y-121567619D01*
X245292857Y-121662857D01*
X245292857Y-121758095D01*
X245245238Y-121900952D01*
X244673809Y-122472380D01*
X245292857Y-122472380D01*
X226710476Y-95522380D02*
X226710476Y-96236666D01*
X226662857Y-96379523D01*
X226567619Y-96474761D01*
X226424761Y-96522380D01*
X226329523Y-96522380D01*
X227710476Y-96522380D02*
X227139047Y-96522380D01*
X227424761Y-96522380D02*
X227424761Y-95522380D01*
X227329523Y-95665238D01*
X227234285Y-95760476D01*
X227139047Y-95808095D01*
X228043809Y-95522380D02*
X228662857Y-95522380D01*
X228329523Y-95903333D01*
X228472380Y-95903333D01*
X228567619Y-95950952D01*
X228615238Y-95998571D01*
X228662857Y-96093809D01*
X228662857Y-96331904D01*
X228615238Y-96427142D01*
X228567619Y-96474761D01*
X228472380Y-96522380D01*
X228186666Y-96522380D01*
X228091428Y-96474761D01*
X228043809Y-96427142D01*
X198303333Y-106102380D02*
X197827142Y-106102380D01*
X197827142Y-105102380D01*
X199160476Y-106102380D02*
X198589047Y-106102380D01*
X198874761Y-106102380D02*
X198874761Y-105102380D01*
X198779523Y-105245238D01*
X198684285Y-105340476D01*
X198589047Y-105388095D01*
X214093333Y-139397380D02*
X213617142Y-139397380D01*
X213617142Y-138397380D01*
X214379047Y-138492619D02*
X214426666Y-138445000D01*
X214521904Y-138397380D01*
X214760000Y-138397380D01*
X214855238Y-138445000D01*
X214902857Y-138492619D01*
X214950476Y-138587857D01*
X214950476Y-138683095D01*
X214902857Y-138825952D01*
X214331428Y-139397380D01*
X214950476Y-139397380D01*
X225944761Y-143417619D02*
X225849523Y-143370000D01*
X225754285Y-143274761D01*
X225611428Y-143131904D01*
X225516190Y-143084285D01*
X225420952Y-143084285D01*
X225468571Y-143322380D02*
X225373333Y-143274761D01*
X225278095Y-143179523D01*
X225230476Y-142989047D01*
X225230476Y-142655714D01*
X225278095Y-142465238D01*
X225373333Y-142370000D01*
X225468571Y-142322380D01*
X225659047Y-142322380D01*
X225754285Y-142370000D01*
X225849523Y-142465238D01*
X225897142Y-142655714D01*
X225897142Y-142989047D01*
X225849523Y-143179523D01*
X225754285Y-143274761D01*
X225659047Y-143322380D01*
X225468571Y-143322380D01*
X226849523Y-143322380D02*
X226278095Y-143322380D01*
X226563809Y-143322380D02*
X226563809Y-142322380D01*
X226468571Y-142465238D01*
X226373333Y-142560476D01*
X226278095Y-142608095D01*
X223504761Y-125687619D02*
X223409523Y-125640000D01*
X223314285Y-125544761D01*
X223171428Y-125401904D01*
X223076190Y-125354285D01*
X222980952Y-125354285D01*
X223028571Y-125592380D02*
X222933333Y-125544761D01*
X222838095Y-125449523D01*
X222790476Y-125259047D01*
X222790476Y-124925714D01*
X222838095Y-124735238D01*
X222933333Y-124640000D01*
X223028571Y-124592380D01*
X223219047Y-124592380D01*
X223314285Y-124640000D01*
X223409523Y-124735238D01*
X223457142Y-124925714D01*
X223457142Y-125259047D01*
X223409523Y-125449523D01*
X223314285Y-125544761D01*
X223219047Y-125592380D01*
X223028571Y-125592380D01*
X223838095Y-124687619D02*
X223885714Y-124640000D01*
X223980952Y-124592380D01*
X224219047Y-124592380D01*
X224314285Y-124640000D01*
X224361904Y-124687619D01*
X224409523Y-124782857D01*
X224409523Y-124878095D01*
X224361904Y-125020952D01*
X223790476Y-125592380D01*
X224409523Y-125592380D01*
X222114761Y-143307619D02*
X222019523Y-143260000D01*
X221924285Y-143164761D01*
X221781428Y-143021904D01*
X221686190Y-142974285D01*
X221590952Y-142974285D01*
X221638571Y-143212380D02*
X221543333Y-143164761D01*
X221448095Y-143069523D01*
X221400476Y-142879047D01*
X221400476Y-142545714D01*
X221448095Y-142355238D01*
X221543333Y-142260000D01*
X221638571Y-142212380D01*
X221829047Y-142212380D01*
X221924285Y-142260000D01*
X222019523Y-142355238D01*
X222067142Y-142545714D01*
X222067142Y-142879047D01*
X222019523Y-143069523D01*
X221924285Y-143164761D01*
X221829047Y-143212380D01*
X221638571Y-143212380D01*
X222400476Y-142212380D02*
X223019523Y-142212380D01*
X222686190Y-142593333D01*
X222829047Y-142593333D01*
X222924285Y-142640952D01*
X222971904Y-142688571D01*
X223019523Y-142783809D01*
X223019523Y-143021904D01*
X222971904Y-143117142D01*
X222924285Y-143164761D01*
X222829047Y-143212380D01*
X222543333Y-143212380D01*
X222448095Y-143164761D01*
X222400476Y-143117142D01*
X221657619Y-131805238D02*
X221610000Y-131900476D01*
X221514761Y-131995714D01*
X221371904Y-132138571D01*
X221324285Y-132233809D01*
X221324285Y-132329047D01*
X221562380Y-132281428D02*
X221514761Y-132376666D01*
X221419523Y-132471904D01*
X221229047Y-132519523D01*
X220895714Y-132519523D01*
X220705238Y-132471904D01*
X220610000Y-132376666D01*
X220562380Y-132281428D01*
X220562380Y-132090952D01*
X220610000Y-131995714D01*
X220705238Y-131900476D01*
X220895714Y-131852857D01*
X221229047Y-131852857D01*
X221419523Y-131900476D01*
X221514761Y-131995714D01*
X221562380Y-132090952D01*
X221562380Y-132281428D01*
X220895714Y-130995714D02*
X221562380Y-130995714D01*
X220514761Y-131233809D02*
X221229047Y-131471904D01*
X221229047Y-130852857D01*
X216934761Y-132567619D02*
X216839523Y-132520000D01*
X216744285Y-132424761D01*
X216601428Y-132281904D01*
X216506190Y-132234285D01*
X216410952Y-132234285D01*
X216458571Y-132472380D02*
X216363333Y-132424761D01*
X216268095Y-132329523D01*
X216220476Y-132139047D01*
X216220476Y-131805714D01*
X216268095Y-131615238D01*
X216363333Y-131520000D01*
X216458571Y-131472380D01*
X216649047Y-131472380D01*
X216744285Y-131520000D01*
X216839523Y-131615238D01*
X216887142Y-131805714D01*
X216887142Y-132139047D01*
X216839523Y-132329523D01*
X216744285Y-132424761D01*
X216649047Y-132472380D01*
X216458571Y-132472380D01*
X217791904Y-131472380D02*
X217315714Y-131472380D01*
X217268095Y-131948571D01*
X217315714Y-131900952D01*
X217410952Y-131853333D01*
X217649047Y-131853333D01*
X217744285Y-131900952D01*
X217791904Y-131948571D01*
X217839523Y-132043809D01*
X217839523Y-132281904D01*
X217791904Y-132377142D01*
X217744285Y-132424761D01*
X217649047Y-132472380D01*
X217410952Y-132472380D01*
X217315714Y-132424761D01*
X217268095Y-132377142D01*
X214134761Y-132467619D02*
X214039523Y-132420000D01*
X213944285Y-132324761D01*
X213801428Y-132181904D01*
X213706190Y-132134285D01*
X213610952Y-132134285D01*
X213658571Y-132372380D02*
X213563333Y-132324761D01*
X213468095Y-132229523D01*
X213420476Y-132039047D01*
X213420476Y-131705714D01*
X213468095Y-131515238D01*
X213563333Y-131420000D01*
X213658571Y-131372380D01*
X213849047Y-131372380D01*
X213944285Y-131420000D01*
X214039523Y-131515238D01*
X214087142Y-131705714D01*
X214087142Y-132039047D01*
X214039523Y-132229523D01*
X213944285Y-132324761D01*
X213849047Y-132372380D01*
X213658571Y-132372380D01*
X214944285Y-131372380D02*
X214753809Y-131372380D01*
X214658571Y-131420000D01*
X214610952Y-131467619D01*
X214515714Y-131610476D01*
X214468095Y-131800952D01*
X214468095Y-132181904D01*
X214515714Y-132277142D01*
X214563333Y-132324761D01*
X214658571Y-132372380D01*
X214849047Y-132372380D01*
X214944285Y-132324761D01*
X214991904Y-132277142D01*
X215039523Y-132181904D01*
X215039523Y-131943809D01*
X214991904Y-131848571D01*
X214944285Y-131800952D01*
X214849047Y-131753333D01*
X214658571Y-131753333D01*
X214563333Y-131800952D01*
X214515714Y-131848571D01*
X214468095Y-131943809D01*
X229447619Y-138585238D02*
X229400000Y-138680476D01*
X229304761Y-138775714D01*
X229161904Y-138918571D01*
X229114285Y-139013809D01*
X229114285Y-139109047D01*
X229352380Y-139061428D02*
X229304761Y-139156666D01*
X229209523Y-139251904D01*
X229019047Y-139299523D01*
X228685714Y-139299523D01*
X228495238Y-139251904D01*
X228400000Y-139156666D01*
X228352380Y-139061428D01*
X228352380Y-138870952D01*
X228400000Y-138775714D01*
X228495238Y-138680476D01*
X228685714Y-138632857D01*
X229019047Y-138632857D01*
X229209523Y-138680476D01*
X229304761Y-138775714D01*
X229352380Y-138870952D01*
X229352380Y-139061428D01*
X228352380Y-138299523D02*
X228352380Y-137632857D01*
X229352380Y-138061428D01*
X231424761Y-132707619D02*
X231329523Y-132660000D01*
X231234285Y-132564761D01*
X231091428Y-132421904D01*
X230996190Y-132374285D01*
X230900952Y-132374285D01*
X230948571Y-132612380D02*
X230853333Y-132564761D01*
X230758095Y-132469523D01*
X230710476Y-132279047D01*
X230710476Y-131945714D01*
X230758095Y-131755238D01*
X230853333Y-131660000D01*
X230948571Y-131612380D01*
X231139047Y-131612380D01*
X231234285Y-131660000D01*
X231329523Y-131755238D01*
X231377142Y-131945714D01*
X231377142Y-132279047D01*
X231329523Y-132469523D01*
X231234285Y-132564761D01*
X231139047Y-132612380D01*
X230948571Y-132612380D01*
X231948571Y-132040952D02*
X231853333Y-131993333D01*
X231805714Y-131945714D01*
X231758095Y-131850476D01*
X231758095Y-131802857D01*
X231805714Y-131707619D01*
X231853333Y-131660000D01*
X231948571Y-131612380D01*
X232139047Y-131612380D01*
X232234285Y-131660000D01*
X232281904Y-131707619D01*
X232329523Y-131802857D01*
X232329523Y-131850476D01*
X232281904Y-131945714D01*
X232234285Y-131993333D01*
X232139047Y-132040952D01*
X231948571Y-132040952D01*
X231853333Y-132088571D01*
X231805714Y-132136190D01*
X231758095Y-132231428D01*
X231758095Y-132421904D01*
X231805714Y-132517142D01*
X231853333Y-132564761D01*
X231948571Y-132612380D01*
X232139047Y-132612380D01*
X232234285Y-132564761D01*
X232281904Y-132517142D01*
X232329523Y-132421904D01*
X232329523Y-132231428D01*
X232281904Y-132136190D01*
X232234285Y-132088571D01*
X232139047Y-132040952D01*
X210712380Y-122786666D02*
X210236190Y-123120000D01*
X210712380Y-123358095D02*
X209712380Y-123358095D01*
X209712380Y-122977142D01*
X209760000Y-122881904D01*
X209807619Y-122834285D01*
X209902857Y-122786666D01*
X210045714Y-122786666D01*
X210140952Y-122834285D01*
X210188571Y-122881904D01*
X210236190Y-122977142D01*
X210236190Y-123358095D01*
X210712380Y-121834285D02*
X210712380Y-122405714D01*
X210712380Y-122120000D02*
X209712380Y-122120000D01*
X209855238Y-122215238D01*
X209950476Y-122310476D01*
X209998095Y-122405714D01*
X213872380Y-120946666D02*
X213396190Y-121280000D01*
X213872380Y-121518095D02*
X212872380Y-121518095D01*
X212872380Y-121137142D01*
X212920000Y-121041904D01*
X212967619Y-120994285D01*
X213062857Y-120946666D01*
X213205714Y-120946666D01*
X213300952Y-120994285D01*
X213348571Y-121041904D01*
X213396190Y-121137142D01*
X213396190Y-121518095D01*
X212967619Y-120565714D02*
X212920000Y-120518095D01*
X212872380Y-120422857D01*
X212872380Y-120184761D01*
X212920000Y-120089523D01*
X212967619Y-120041904D01*
X213062857Y-119994285D01*
X213158095Y-119994285D01*
X213300952Y-120041904D01*
X213872380Y-120613333D01*
X213872380Y-119994285D01*
X226953333Y-136672380D02*
X226620000Y-136196190D01*
X226381904Y-136672380D02*
X226381904Y-135672380D01*
X226762857Y-135672380D01*
X226858095Y-135720000D01*
X226905714Y-135767619D01*
X226953333Y-135862857D01*
X226953333Y-136005714D01*
X226905714Y-136100952D01*
X226858095Y-136148571D01*
X226762857Y-136196190D01*
X226381904Y-136196190D01*
X227810476Y-135672380D02*
X227620000Y-135672380D01*
X227524761Y-135720000D01*
X227477142Y-135767619D01*
X227381904Y-135910476D01*
X227334285Y-136100952D01*
X227334285Y-136481904D01*
X227381904Y-136577142D01*
X227429523Y-136624761D01*
X227524761Y-136672380D01*
X227715238Y-136672380D01*
X227810476Y-136624761D01*
X227858095Y-136577142D01*
X227905714Y-136481904D01*
X227905714Y-136243809D01*
X227858095Y-136148571D01*
X227810476Y-136100952D01*
X227715238Y-136053333D01*
X227524761Y-136053333D01*
X227429523Y-136100952D01*
X227381904Y-136148571D01*
X227334285Y-136243809D01*
X226363333Y-125592380D02*
X226030000Y-125116190D01*
X225791904Y-125592380D02*
X225791904Y-124592380D01*
X226172857Y-124592380D01*
X226268095Y-124640000D01*
X226315714Y-124687619D01*
X226363333Y-124782857D01*
X226363333Y-124925714D01*
X226315714Y-125020952D01*
X226268095Y-125068571D01*
X226172857Y-125116190D01*
X225791904Y-125116190D01*
X226696666Y-124592380D02*
X227363333Y-124592380D01*
X226934761Y-125592380D01*
X221253333Y-136672380D02*
X220920000Y-136196190D01*
X220681904Y-136672380D02*
X220681904Y-135672380D01*
X221062857Y-135672380D01*
X221158095Y-135720000D01*
X221205714Y-135767619D01*
X221253333Y-135862857D01*
X221253333Y-136005714D01*
X221205714Y-136100952D01*
X221158095Y-136148571D01*
X221062857Y-136196190D01*
X220681904Y-136196190D01*
X221729523Y-136672380D02*
X221920000Y-136672380D01*
X222015238Y-136624761D01*
X222062857Y-136577142D01*
X222158095Y-136434285D01*
X222205714Y-136243809D01*
X222205714Y-135862857D01*
X222158095Y-135767619D01*
X222110476Y-135720000D01*
X222015238Y-135672380D01*
X221824761Y-135672380D01*
X221729523Y-135720000D01*
X221681904Y-135767619D01*
X221634285Y-135862857D01*
X221634285Y-136100952D01*
X221681904Y-136196190D01*
X221729523Y-136243809D01*
X221824761Y-136291428D01*
X222015238Y-136291428D01*
X222110476Y-136243809D01*
X222158095Y-136196190D01*
X222205714Y-136100952D01*
X228472380Y-132362857D02*
X227996190Y-132696190D01*
X228472380Y-132934285D02*
X227472380Y-132934285D01*
X227472380Y-132553333D01*
X227520000Y-132458095D01*
X227567619Y-132410476D01*
X227662857Y-132362857D01*
X227805714Y-132362857D01*
X227900952Y-132410476D01*
X227948571Y-132458095D01*
X227996190Y-132553333D01*
X227996190Y-132934285D01*
X228472380Y-131410476D02*
X228472380Y-131981904D01*
X228472380Y-131696190D02*
X227472380Y-131696190D01*
X227615238Y-131791428D01*
X227710476Y-131886666D01*
X227758095Y-131981904D01*
X227472380Y-130791428D02*
X227472380Y-130696190D01*
X227520000Y-130600952D01*
X227567619Y-130553333D01*
X227662857Y-130505714D01*
X227853333Y-130458095D01*
X228091428Y-130458095D01*
X228281904Y-130505714D01*
X228377142Y-130553333D01*
X228424761Y-130600952D01*
X228472380Y-130696190D01*
X228472380Y-130791428D01*
X228424761Y-130886666D01*
X228377142Y-130934285D01*
X228281904Y-130981904D01*
X228091428Y-131029523D01*
X227853333Y-131029523D01*
X227662857Y-130981904D01*
X227567619Y-130934285D01*
X227520000Y-130886666D01*
X227472380Y-130791428D01*
X217707142Y-125682380D02*
X217373809Y-125206190D01*
X217135714Y-125682380D02*
X217135714Y-124682380D01*
X217516666Y-124682380D01*
X217611904Y-124730000D01*
X217659523Y-124777619D01*
X217707142Y-124872857D01*
X217707142Y-125015714D01*
X217659523Y-125110952D01*
X217611904Y-125158571D01*
X217516666Y-125206190D01*
X217135714Y-125206190D01*
X218659523Y-125682380D02*
X218088095Y-125682380D01*
X218373809Y-125682380D02*
X218373809Y-124682380D01*
X218278571Y-124825238D01*
X218183333Y-124920476D01*
X218088095Y-124968095D01*
X219611904Y-125682380D02*
X219040476Y-125682380D01*
X219326190Y-125682380D02*
X219326190Y-124682380D01*
X219230952Y-124825238D01*
X219135714Y-124920476D01*
X219040476Y-124968095D01*
X213457142Y-125722380D02*
X213123809Y-125246190D01*
X212885714Y-125722380D02*
X212885714Y-124722380D01*
X213266666Y-124722380D01*
X213361904Y-124770000D01*
X213409523Y-124817619D01*
X213457142Y-124912857D01*
X213457142Y-125055714D01*
X213409523Y-125150952D01*
X213361904Y-125198571D01*
X213266666Y-125246190D01*
X212885714Y-125246190D01*
X214409523Y-125722380D02*
X213838095Y-125722380D01*
X214123809Y-125722380D02*
X214123809Y-124722380D01*
X214028571Y-124865238D01*
X213933333Y-124960476D01*
X213838095Y-125008095D01*
X214790476Y-124817619D02*
X214838095Y-124770000D01*
X214933333Y-124722380D01*
X215171428Y-124722380D01*
X215266666Y-124770000D01*
X215314285Y-124817619D01*
X215361904Y-124912857D01*
X215361904Y-125008095D01*
X215314285Y-125150952D01*
X214742857Y-125722380D01*
X215361904Y-125722380D01*
X230907142Y-143242380D02*
X230573809Y-142766190D01*
X230335714Y-143242380D02*
X230335714Y-142242380D01*
X230716666Y-142242380D01*
X230811904Y-142290000D01*
X230859523Y-142337619D01*
X230907142Y-142432857D01*
X230907142Y-142575714D01*
X230859523Y-142670952D01*
X230811904Y-142718571D01*
X230716666Y-142766190D01*
X230335714Y-142766190D01*
X231859523Y-143242380D02*
X231288095Y-143242380D01*
X231573809Y-143242380D02*
X231573809Y-142242380D01*
X231478571Y-142385238D01*
X231383333Y-142480476D01*
X231288095Y-142528095D01*
X232192857Y-142242380D02*
X232811904Y-142242380D01*
X232478571Y-142623333D01*
X232621428Y-142623333D01*
X232716666Y-142670952D01*
X232764285Y-142718571D01*
X232811904Y-142813809D01*
X232811904Y-143051904D01*
X232764285Y-143147142D01*
X232716666Y-143194761D01*
X232621428Y-143242380D01*
X232335714Y-143242380D01*
X232240476Y-143194761D01*
X232192857Y-143147142D01*
X198847142Y-126522380D02*
X198513809Y-126046190D01*
X198275714Y-126522380D02*
X198275714Y-125522380D01*
X198656666Y-125522380D01*
X198751904Y-125570000D01*
X198799523Y-125617619D01*
X198847142Y-125712857D01*
X198847142Y-125855714D01*
X198799523Y-125950952D01*
X198751904Y-125998571D01*
X198656666Y-126046190D01*
X198275714Y-126046190D01*
X199799523Y-126522380D02*
X199228095Y-126522380D01*
X199513809Y-126522380D02*
X199513809Y-125522380D01*
X199418571Y-125665238D01*
X199323333Y-125760476D01*
X199228095Y-125808095D01*
X200656666Y-125855714D02*
X200656666Y-126522380D01*
X200418571Y-125474761D02*
X200180476Y-126189047D01*
X200799523Y-126189047D01*
X236557142Y-136662380D02*
X236223809Y-136186190D01*
X235985714Y-136662380D02*
X235985714Y-135662380D01*
X236366666Y-135662380D01*
X236461904Y-135710000D01*
X236509523Y-135757619D01*
X236557142Y-135852857D01*
X236557142Y-135995714D01*
X236509523Y-136090952D01*
X236461904Y-136138571D01*
X236366666Y-136186190D01*
X235985714Y-136186190D01*
X237509523Y-136662380D02*
X236938095Y-136662380D01*
X237223809Y-136662380D02*
X237223809Y-135662380D01*
X237128571Y-135805238D01*
X237033333Y-135900476D01*
X236938095Y-135948095D01*
X238414285Y-135662380D02*
X237938095Y-135662380D01*
X237890476Y-136138571D01*
X237938095Y-136090952D01*
X238033333Y-136043333D01*
X238271428Y-136043333D01*
X238366666Y-136090952D01*
X238414285Y-136138571D01*
X238461904Y-136233809D01*
X238461904Y-136471904D01*
X238414285Y-136567142D01*
X238366666Y-136614761D01*
X238271428Y-136662380D01*
X238033333Y-136662380D01*
X237938095Y-136614761D01*
X237890476Y-136567142D01*
X236792380Y-134392857D02*
X236316190Y-134726190D01*
X236792380Y-134964285D02*
X235792380Y-134964285D01*
X235792380Y-134583333D01*
X235840000Y-134488095D01*
X235887619Y-134440476D01*
X235982857Y-134392857D01*
X236125714Y-134392857D01*
X236220952Y-134440476D01*
X236268571Y-134488095D01*
X236316190Y-134583333D01*
X236316190Y-134964285D01*
X236792380Y-133440476D02*
X236792380Y-134011904D01*
X236792380Y-133726190D02*
X235792380Y-133726190D01*
X235935238Y-133821428D01*
X236030476Y-133916666D01*
X236078095Y-134011904D01*
X235792380Y-132583333D02*
X235792380Y-132773809D01*
X235840000Y-132869047D01*
X235887619Y-132916666D01*
X236030476Y-133011904D01*
X236220952Y-133059523D01*
X236601904Y-133059523D01*
X236697142Y-133011904D01*
X236744761Y-132964285D01*
X236792380Y-132869047D01*
X236792380Y-132678571D01*
X236744761Y-132583333D01*
X236697142Y-132535714D01*
X236601904Y-132488095D01*
X236363809Y-132488095D01*
X236268571Y-132535714D01*
X236220952Y-132583333D01*
X236173333Y-132678571D01*
X236173333Y-132869047D01*
X236220952Y-132964285D01*
X236268571Y-133011904D01*
X236363809Y-133059523D01*
X203087142Y-124542380D02*
X202753809Y-124066190D01*
X202515714Y-124542380D02*
X202515714Y-123542380D01*
X202896666Y-123542380D01*
X202991904Y-123590000D01*
X203039523Y-123637619D01*
X203087142Y-123732857D01*
X203087142Y-123875714D01*
X203039523Y-123970952D01*
X202991904Y-124018571D01*
X202896666Y-124066190D01*
X202515714Y-124066190D01*
X204039523Y-124542380D02*
X203468095Y-124542380D01*
X203753809Y-124542380D02*
X203753809Y-123542380D01*
X203658571Y-123685238D01*
X203563333Y-123780476D01*
X203468095Y-123828095D01*
X204372857Y-123542380D02*
X205039523Y-123542380D01*
X204610952Y-124542380D01*
X204747142Y-106472380D02*
X204413809Y-105996190D01*
X204175714Y-106472380D02*
X204175714Y-105472380D01*
X204556666Y-105472380D01*
X204651904Y-105520000D01*
X204699523Y-105567619D01*
X204747142Y-105662857D01*
X204747142Y-105805714D01*
X204699523Y-105900952D01*
X204651904Y-105948571D01*
X204556666Y-105996190D01*
X204175714Y-105996190D01*
X205699523Y-106472380D02*
X205128095Y-106472380D01*
X205413809Y-106472380D02*
X205413809Y-105472380D01*
X205318571Y-105615238D01*
X205223333Y-105710476D01*
X205128095Y-105758095D01*
X206270952Y-105900952D02*
X206175714Y-105853333D01*
X206128095Y-105805714D01*
X206080476Y-105710476D01*
X206080476Y-105662857D01*
X206128095Y-105567619D01*
X206175714Y-105520000D01*
X206270952Y-105472380D01*
X206461428Y-105472380D01*
X206556666Y-105520000D01*
X206604285Y-105567619D01*
X206651904Y-105662857D01*
X206651904Y-105710476D01*
X206604285Y-105805714D01*
X206556666Y-105853333D01*
X206461428Y-105900952D01*
X206270952Y-105900952D01*
X206175714Y-105948571D01*
X206128095Y-105996190D01*
X206080476Y-106091428D01*
X206080476Y-106281904D01*
X206128095Y-106377142D01*
X206175714Y-106424761D01*
X206270952Y-106472380D01*
X206461428Y-106472380D01*
X206556666Y-106424761D01*
X206604285Y-106377142D01*
X206651904Y-106281904D01*
X206651904Y-106091428D01*
X206604285Y-105996190D01*
X206556666Y-105948571D01*
X206461428Y-105900952D01*
X230528380Y-102656857D02*
X230052190Y-102990190D01*
X230528380Y-103228285D02*
X229528380Y-103228285D01*
X229528380Y-102847333D01*
X229576000Y-102752095D01*
X229623619Y-102704476D01*
X229718857Y-102656857D01*
X229861714Y-102656857D01*
X229956952Y-102704476D01*
X230004571Y-102752095D01*
X230052190Y-102847333D01*
X230052190Y-103228285D01*
X230528380Y-101704476D02*
X230528380Y-102275904D01*
X230528380Y-101990190D02*
X229528380Y-101990190D01*
X229671238Y-102085428D01*
X229766476Y-102180666D01*
X229814095Y-102275904D01*
X230528380Y-101228285D02*
X230528380Y-101037809D01*
X230480761Y-100942571D01*
X230433142Y-100894952D01*
X230290285Y-100799714D01*
X230099809Y-100752095D01*
X229718857Y-100752095D01*
X229623619Y-100799714D01*
X229576000Y-100847333D01*
X229528380Y-100942571D01*
X229528380Y-101133047D01*
X229576000Y-101228285D01*
X229623619Y-101275904D01*
X229718857Y-101323523D01*
X229956952Y-101323523D01*
X230052190Y-101275904D01*
X230099809Y-101228285D01*
X230147428Y-101133047D01*
X230147428Y-100942571D01*
X230099809Y-100847333D01*
X230052190Y-100799714D01*
X229956952Y-100752095D01*
X230538380Y-98541857D02*
X230062190Y-98875190D01*
X230538380Y-99113285D02*
X229538380Y-99113285D01*
X229538380Y-98732333D01*
X229586000Y-98637095D01*
X229633619Y-98589476D01*
X229728857Y-98541857D01*
X229871714Y-98541857D01*
X229966952Y-98589476D01*
X230014571Y-98637095D01*
X230062190Y-98732333D01*
X230062190Y-99113285D01*
X229633619Y-98160904D02*
X229586000Y-98113285D01*
X229538380Y-98018047D01*
X229538380Y-97779952D01*
X229586000Y-97684714D01*
X229633619Y-97637095D01*
X229728857Y-97589476D01*
X229824095Y-97589476D01*
X229966952Y-97637095D01*
X230538380Y-98208523D01*
X230538380Y-97589476D01*
X229538380Y-96970428D02*
X229538380Y-96875190D01*
X229586000Y-96779952D01*
X229633619Y-96732333D01*
X229728857Y-96684714D01*
X229919333Y-96637095D01*
X230157428Y-96637095D01*
X230347904Y-96684714D01*
X230443142Y-96732333D01*
X230490761Y-96779952D01*
X230538380Y-96875190D01*
X230538380Y-96970428D01*
X230490761Y-97065666D01*
X230443142Y-97113285D01*
X230347904Y-97160904D01*
X230157428Y-97208523D01*
X229919333Y-97208523D01*
X229728857Y-97160904D01*
X229633619Y-97113285D01*
X229586000Y-97065666D01*
X229538380Y-96970428D01*
X241062380Y-102482857D02*
X240586190Y-102816190D01*
X241062380Y-103054285D02*
X240062380Y-103054285D01*
X240062380Y-102673333D01*
X240110000Y-102578095D01*
X240157619Y-102530476D01*
X240252857Y-102482857D01*
X240395714Y-102482857D01*
X240490952Y-102530476D01*
X240538571Y-102578095D01*
X240586190Y-102673333D01*
X240586190Y-103054285D01*
X240157619Y-102101904D02*
X240110000Y-102054285D01*
X240062380Y-101959047D01*
X240062380Y-101720952D01*
X240110000Y-101625714D01*
X240157619Y-101578095D01*
X240252857Y-101530476D01*
X240348095Y-101530476D01*
X240490952Y-101578095D01*
X241062380Y-102149523D01*
X241062380Y-101530476D01*
X241062380Y-100578095D02*
X241062380Y-101149523D01*
X241062380Y-100863809D02*
X240062380Y-100863809D01*
X240205238Y-100959047D01*
X240300476Y-101054285D01*
X240348095Y-101149523D01*
X238237142Y-96102380D02*
X237903809Y-95626190D01*
X237665714Y-96102380D02*
X237665714Y-95102380D01*
X238046666Y-95102380D01*
X238141904Y-95150000D01*
X238189523Y-95197619D01*
X238237142Y-95292857D01*
X238237142Y-95435714D01*
X238189523Y-95530952D01*
X238141904Y-95578571D01*
X238046666Y-95626190D01*
X237665714Y-95626190D01*
X238618095Y-95197619D02*
X238665714Y-95150000D01*
X238760952Y-95102380D01*
X238999047Y-95102380D01*
X239094285Y-95150000D01*
X239141904Y-95197619D01*
X239189523Y-95292857D01*
X239189523Y-95388095D01*
X239141904Y-95530952D01*
X238570476Y-96102380D01*
X239189523Y-96102380D01*
X239570476Y-95197619D02*
X239618095Y-95150000D01*
X239713333Y-95102380D01*
X239951428Y-95102380D01*
X240046666Y-95150000D01*
X240094285Y-95197619D01*
X240141904Y-95292857D01*
X240141904Y-95388095D01*
X240094285Y-95530952D01*
X239522857Y-96102380D01*
X240141904Y-96102380D01*
X218752380Y-92993809D02*
X218276190Y-93327142D01*
X218752380Y-93565238D02*
X217752380Y-93565238D01*
X217752380Y-93184285D01*
X217800000Y-93089047D01*
X217847619Y-93041428D01*
X217942857Y-92993809D01*
X218085714Y-92993809D01*
X218180952Y-93041428D01*
X218228571Y-93089047D01*
X218276190Y-93184285D01*
X218276190Y-93565238D01*
X218704761Y-92612857D02*
X218752380Y-92470000D01*
X218752380Y-92231904D01*
X218704761Y-92136666D01*
X218657142Y-92089047D01*
X218561904Y-92041428D01*
X218466666Y-92041428D01*
X218371428Y-92089047D01*
X218323809Y-92136666D01*
X218276190Y-92231904D01*
X218228571Y-92422380D01*
X218180952Y-92517619D01*
X218133333Y-92565238D01*
X218038095Y-92612857D01*
X217942857Y-92612857D01*
X217847619Y-92565238D01*
X217800000Y-92517619D01*
X217752380Y-92422380D01*
X217752380Y-92184285D01*
X217800000Y-92041428D01*
X217752380Y-91755714D02*
X217752380Y-91184285D01*
X218752380Y-91470000D02*
X217752380Y-91470000D01*
X218752380Y-90327142D02*
X218752380Y-90898571D01*
X218752380Y-90612857D02*
X217752380Y-90612857D01*
X217895238Y-90708095D01*
X217990476Y-90803333D01*
X218038095Y-90898571D01*
X217562380Y-106115238D02*
X217086190Y-106448571D01*
X217562380Y-106686666D02*
X216562380Y-106686666D01*
X216562380Y-106305714D01*
X216610000Y-106210476D01*
X216657619Y-106162857D01*
X216752857Y-106115238D01*
X216895714Y-106115238D01*
X216990952Y-106162857D01*
X217038571Y-106210476D01*
X217086190Y-106305714D01*
X217086190Y-106686666D01*
X216562380Y-105829523D02*
X217562380Y-105496190D01*
X216562380Y-105162857D01*
X217562380Y-104305714D02*
X217562380Y-104877142D01*
X217562380Y-104591428D02*
X216562380Y-104591428D01*
X216705238Y-104686666D01*
X216800476Y-104781904D01*
X216848095Y-104877142D01*
X226242380Y-106105238D02*
X225766190Y-106438571D01*
X226242380Y-106676666D02*
X225242380Y-106676666D01*
X225242380Y-106295714D01*
X225290000Y-106200476D01*
X225337619Y-106152857D01*
X225432857Y-106105238D01*
X225575714Y-106105238D01*
X225670952Y-106152857D01*
X225718571Y-106200476D01*
X225766190Y-106295714D01*
X225766190Y-106676666D01*
X225242380Y-105819523D02*
X226242380Y-105486190D01*
X225242380Y-105152857D01*
X225337619Y-104867142D02*
X225290000Y-104819523D01*
X225242380Y-104724285D01*
X225242380Y-104486190D01*
X225290000Y-104390952D01*
X225337619Y-104343333D01*
X225432857Y-104295714D01*
X225528095Y-104295714D01*
X225670952Y-104343333D01*
X226242380Y-104914761D01*
X226242380Y-104295714D01*
X206348095Y-122572380D02*
X206919523Y-122572380D01*
X206633809Y-123572380D02*
X206633809Y-122572380D01*
X207252857Y-123572380D02*
X207252857Y-122572380D01*
X207633809Y-122572380D01*
X207729047Y-122620000D01*
X207776666Y-122667619D01*
X207824285Y-122762857D01*
X207824285Y-122905714D01*
X207776666Y-123000952D01*
X207729047Y-123048571D01*
X207633809Y-123096190D01*
X207252857Y-123096190D01*
X208776666Y-123572380D02*
X208205238Y-123572380D01*
X208490952Y-123572380D02*
X208490952Y-122572380D01*
X208395714Y-122715238D01*
X208300476Y-122810476D01*
X208205238Y-122858095D01*
X237628095Y-131394380D02*
X238199523Y-131394380D01*
X237913809Y-132394380D02*
X237913809Y-131394380D01*
X238532857Y-132394380D02*
X238532857Y-131394380D01*
X238913809Y-131394380D01*
X239009047Y-131442000D01*
X239056666Y-131489619D01*
X239104285Y-131584857D01*
X239104285Y-131727714D01*
X239056666Y-131822952D01*
X239009047Y-131870571D01*
X238913809Y-131918190D01*
X238532857Y-131918190D01*
X239485238Y-131489619D02*
X239532857Y-131442000D01*
X239628095Y-131394380D01*
X239866190Y-131394380D01*
X239961428Y-131442000D01*
X240009047Y-131489619D01*
X240056666Y-131584857D01*
X240056666Y-131680095D01*
X240009047Y-131822952D01*
X239437619Y-132394380D01*
X240056666Y-132394380D01*
X237518095Y-139814380D02*
X238089523Y-139814380D01*
X237803809Y-140814380D02*
X237803809Y-139814380D01*
X238422857Y-140814380D02*
X238422857Y-139814380D01*
X238803809Y-139814380D01*
X238899047Y-139862000D01*
X238946666Y-139909619D01*
X238994285Y-140004857D01*
X238994285Y-140147714D01*
X238946666Y-140242952D01*
X238899047Y-140290571D01*
X238803809Y-140338190D01*
X238422857Y-140338190D01*
X239327619Y-139814380D02*
X239946666Y-139814380D01*
X239613333Y-140195333D01*
X239756190Y-140195333D01*
X239851428Y-140242952D01*
X239899047Y-140290571D01*
X239946666Y-140385809D01*
X239946666Y-140623904D01*
X239899047Y-140719142D01*
X239851428Y-140766761D01*
X239756190Y-140814380D01*
X239470476Y-140814380D01*
X239375238Y-140766761D01*
X239327619Y-140719142D01*
X211558095Y-132172380D02*
X211558095Y-132981904D01*
X211605714Y-133077142D01*
X211653333Y-133124761D01*
X211748571Y-133172380D01*
X211939047Y-133172380D01*
X212034285Y-133124761D01*
X212081904Y-133077142D01*
X212129523Y-132981904D01*
X212129523Y-132172380D01*
X212558095Y-132267619D02*
X212605714Y-132220000D01*
X212700952Y-132172380D01*
X212939047Y-132172380D01*
X213034285Y-132220000D01*
X213081904Y-132267619D01*
X213129523Y-132362857D01*
X213129523Y-132458095D01*
X213081904Y-132600952D01*
X212510476Y-133172380D01*
X213129523Y-133172380D01*
X228122380Y-118341904D02*
X228931904Y-118341904D01*
X229027142Y-118294285D01*
X229074761Y-118246666D01*
X229122380Y-118151428D01*
X229122380Y-117960952D01*
X229074761Y-117865714D01*
X229027142Y-117818095D01*
X228931904Y-117770476D01*
X228122380Y-117770476D01*
X228122380Y-117389523D02*
X228122380Y-116770476D01*
X228503333Y-117103809D01*
X228503333Y-116960952D01*
X228550952Y-116865714D01*
X228598571Y-116818095D01*
X228693809Y-116770476D01*
X228931904Y-116770476D01*
X229027142Y-116818095D01*
X229074761Y-116865714D01*
X229122380Y-116960952D01*
X229122380Y-117246666D01*
X229074761Y-117341904D01*
X229027142Y-117389523D01*
X228122380Y-128146904D02*
X228931904Y-128146904D01*
X229027142Y-128099285D01*
X229074761Y-128051666D01*
X229122380Y-127956428D01*
X229122380Y-127765952D01*
X229074761Y-127670714D01*
X229027142Y-127623095D01*
X228931904Y-127575476D01*
X228122380Y-127575476D01*
X228455714Y-126670714D02*
X229122380Y-126670714D01*
X228074761Y-126908809D02*
X228789047Y-127146904D01*
X228789047Y-126527857D01*
X232664095Y-103966380D02*
X232664095Y-104775904D01*
X232711714Y-104871142D01*
X232759333Y-104918761D01*
X232854571Y-104966380D01*
X233045047Y-104966380D01*
X233140285Y-104918761D01*
X233187904Y-104871142D01*
X233235523Y-104775904D01*
X233235523Y-103966380D01*
X234187904Y-103966380D02*
X233711714Y-103966380D01*
X233664095Y-104442571D01*
X233711714Y-104394952D01*
X233806952Y-104347333D01*
X234045047Y-104347333D01*
X234140285Y-104394952D01*
X234187904Y-104442571D01*
X234235523Y-104537809D01*
X234235523Y-104775904D01*
X234187904Y-104871142D01*
X234140285Y-104918761D01*
X234045047Y-104966380D01*
X233806952Y-104966380D01*
X233711714Y-104918761D01*
X233664095Y-104871142D01*
X212743809Y-114456190D02*
X212743809Y-114932380D01*
X212410476Y-113932380D02*
X212743809Y-114456190D01*
X213077142Y-113932380D01*
X213934285Y-114932380D02*
X213362857Y-114932380D01*
X213648571Y-114932380D02*
X213648571Y-113932380D01*
X213553333Y-114075238D01*
X213458095Y-114170476D01*
X213362857Y-114218095D01*
M02*
